<?xml version="1.0" encoding="utf-8" standalone="no"?>
<!DOCTYPE svg PUBLIC "-//W3C//DTD SVG 1.1//EN"
  "http://www.w3.org/Graphics/SVG/1.1/DTD/svg11.dtd">
<!-- Created with matplotlib (https://matplotlib.org/) -->
<svg height="679.17498pt" version="1.1" viewBox="0 0 817.475 679.17498" width="817.475pt" xmlns="http://www.w3.org/2000/svg" xmlns:xlink="http://www.w3.org/1999/xlink">
 <defs>
  <style type="text/css">
*{stroke-linecap:butt;stroke-linejoin:round;}
  </style>
 </defs>
 <g id="figure_1">
  <g id="patch_1">
   <path d="M 0 679.17498 
L 817.475 679.17498 
L 817.475 0 
L 0 0 
z
" style="fill:#ffffff;"/>
  </g>
  <g id="axes_1">
   <g id="patch_2">
    <path d="M 140.675 274.254545 
L 810.275 274.254545 
L 810.275 7.2 
L 140.675 7.2 
z
" style="fill:#ffffff;"/>
   </g>
   <g id="matplotlib.axis_1">
    <g id="xtick_1">
     <g id="line2d_1">
      <path clip-path="url(#p1823093ee3)" d="M 151.066618 274.254545 
L 151.066618 7.2 
" style="fill:none;stroke:#d3d3d3;stroke-linecap:square;stroke-width:0.8;"/>
     </g>
     <g id="line2d_2">
      <defs>
       <path d="M 0 0 
L 0 3.5 
" id="m9c9ffd509d" style="stroke:#000000;stroke-width:0.8;"/>
      </defs>
      <g>
       <use style="stroke:#000000;stroke-width:0.8;" x="151.066618" xlink:href="#m9c9ffd509d" y="274.254545"/>
      </g>
     </g>
    </g>
    <g id="xtick_2">
     <g id="line2d_3">
      <path clip-path="url(#p1823093ee3)" d="M 215.420801 274.254545 
L 215.420801 7.2 
" style="fill:none;stroke:#d3d3d3;stroke-linecap:square;stroke-width:0.8;"/>
     </g>
     <g id="line2d_4">
      <g>
       <use style="stroke:#000000;stroke-width:0.8;" x="215.420801" xlink:href="#m9c9ffd509d" y="274.254545"/>
      </g>
     </g>
    </g>
    <g id="xtick_3">
     <g id="line2d_5">
      <path clip-path="url(#p1823093ee3)" d="M 279.774984 274.254545 
L 279.774984 7.2 
" style="fill:none;stroke:#d3d3d3;stroke-linecap:square;stroke-width:0.8;"/>
     </g>
     <g id="line2d_6">
      <g>
       <use style="stroke:#000000;stroke-width:0.8;" x="279.774984" xlink:href="#m9c9ffd509d" y="274.254545"/>
      </g>
     </g>
    </g>
    <g id="xtick_4">
     <g id="line2d_7">
      <path clip-path="url(#p1823093ee3)" d="M 345.184154 274.254545 
L 345.184154 7.2 
" style="fill:none;stroke:#d3d3d3;stroke-linecap:square;stroke-width:0.8;"/>
     </g>
     <g id="line2d_8">
      <g>
       <use style="stroke:#000000;stroke-width:0.8;" x="345.184154" xlink:href="#m9c9ffd509d" y="274.254545"/>
      </g>
     </g>
    </g>
    <g id="xtick_5">
     <g id="line2d_9">
      <path clip-path="url(#p1823093ee3)" d="M 409.538337 274.254545 
L 409.538337 7.2 
" style="fill:none;stroke:#d3d3d3;stroke-linecap:square;stroke-width:0.8;"/>
     </g>
     <g id="line2d_10">
      <g>
       <use style="stroke:#000000;stroke-width:0.8;" x="409.538337" xlink:href="#m9c9ffd509d" y="274.254545"/>
      </g>
     </g>
    </g>
    <g id="xtick_6">
     <g id="line2d_11">
      <path clip-path="url(#p1823093ee3)" d="M 473.89252 274.254545 
L 473.89252 7.2 
" style="fill:none;stroke:#d3d3d3;stroke-linecap:square;stroke-width:0.8;"/>
     </g>
     <g id="line2d_12">
      <g>
       <use style="stroke:#000000;stroke-width:0.8;" x="473.89252" xlink:href="#m9c9ffd509d" y="274.254545"/>
      </g>
     </g>
    </g>
    <g id="xtick_7">
     <g id="line2d_13">
      <path clip-path="url(#p1823093ee3)" d="M 536.13673 274.254545 
L 536.13673 7.2 
" style="fill:none;stroke:#d3d3d3;stroke-linecap:square;stroke-width:0.8;"/>
     </g>
     <g id="line2d_14">
      <g>
       <use style="stroke:#000000;stroke-width:0.8;" x="536.13673" xlink:href="#m9c9ffd509d" y="274.254545"/>
      </g>
     </g>
    </g>
    <g id="xtick_8">
     <g id="line2d_15">
      <path clip-path="url(#p1823093ee3)" d="M 600.490913 274.254545 
L 600.490913 7.2 
" style="fill:none;stroke:#d3d3d3;stroke-linecap:square;stroke-width:0.8;"/>
     </g>
     <g id="line2d_16">
      <g>
       <use style="stroke:#000000;stroke-width:0.8;" x="600.490913" xlink:href="#m9c9ffd509d" y="274.254545"/>
      </g>
     </g>
    </g>
    <g id="xtick_9">
     <g id="line2d_17">
      <path clip-path="url(#p1823093ee3)" d="M 664.845096 274.254545 
L 664.845096 7.2 
" style="fill:none;stroke:#d3d3d3;stroke-linecap:square;stroke-width:0.8;"/>
     </g>
     <g id="line2d_18">
      <g>
       <use style="stroke:#000000;stroke-width:0.8;" x="664.845096" xlink:href="#m9c9ffd509d" y="274.254545"/>
      </g>
     </g>
    </g>
    <g id="xtick_10">
     <g id="line2d_19">
      <path clip-path="url(#p1823093ee3)" d="M 730.254266 274.254545 
L 730.254266 7.2 
" style="fill:none;stroke:#d3d3d3;stroke-linecap:square;stroke-width:0.8;"/>
     </g>
     <g id="line2d_20">
      <g>
       <use style="stroke:#000000;stroke-width:0.8;" x="730.254266" xlink:href="#m9c9ffd509d" y="274.254545"/>
      </g>
     </g>
    </g>
    <g id="xtick_11">
     <g id="line2d_21">
      <path clip-path="url(#p1823093ee3)" d="M 794.608449 274.254545 
L 794.608449 7.2 
" style="fill:none;stroke:#d3d3d3;stroke-linecap:square;stroke-width:0.8;"/>
     </g>
     <g id="line2d_22">
      <g>
       <use style="stroke:#000000;stroke-width:0.8;" x="794.608449" xlink:href="#m9c9ffd509d" y="274.254545"/>
      </g>
     </g>
    </g>
   </g>
   <g id="matplotlib.axis_2">
    <g id="ytick_1">
     <g id="line2d_23">
      <path clip-path="url(#p1823093ee3)" d="M 140.675 274.254545 
L 810.275 274.254545 
" style="fill:none;stroke:#d3d3d3;stroke-linecap:square;stroke-width:0.8;"/>
     </g>
     <g id="line2d_24">
      <defs>
       <path d="M 0 0 
L -3.5 0 
" id="ma8a9c718ee" style="stroke:#000000;stroke-width:0.8;"/>
      </defs>
      <g>
       <use style="stroke:#000000;stroke-width:0.8;" x="140.675" xlink:href="#ma8a9c718ee" y="274.254545"/>
      </g>
     </g>
     <g id="text_1">
      <!-- 0 -->
      <defs>
       <path d="M 31.78125 66.40625 
Q 24.171875 66.40625 20.328125 58.90625 
Q 16.5 51.421875 16.5 36.375 
Q 16.5 21.390625 20.328125 13.890625 
Q 24.171875 6.390625 31.78125 6.390625 
Q 39.453125 6.390625 43.28125 13.890625 
Q 47.125 21.390625 47.125 36.375 
Q 47.125 51.421875 43.28125 58.90625 
Q 39.453125 66.40625 31.78125 66.40625 
z
M 31.78125 74.21875 
Q 44.046875 74.21875 50.515625 64.515625 
Q 56.984375 54.828125 56.984375 36.375 
Q 56.984375 17.96875 50.515625 8.265625 
Q 44.046875 -1.421875 31.78125 -1.421875 
Q 19.53125 -1.421875 13.0625 8.265625 
Q 6.59375 17.96875 6.59375 36.375 
Q 6.59375 54.828125 13.0625 64.515625 
Q 19.53125 74.21875 31.78125 74.21875 
z
" id="DejaVuSans-48"/>
      </defs>
      <g transform="translate(118.405 283.37267)scale(0.24 -0.24)">
       <use xlink:href="#DejaVuSans-48"/>
      </g>
     </g>
    </g>
    <g id="ytick_2">
     <g id="line2d_25">
      <path clip-path="url(#p1823093ee3)" d="M 140.675 209.978868 
L 810.275 209.978868 
" style="fill:none;stroke:#d3d3d3;stroke-linecap:square;stroke-width:0.8;"/>
     </g>
     <g id="line2d_26">
      <g>
       <use style="stroke:#000000;stroke-width:0.8;" x="140.675" xlink:href="#ma8a9c718ee" y="209.978868"/>
      </g>
     </g>
     <g id="text_2">
      <!-- 200,000 -->
      <defs>
       <path d="M 19.1875 8.296875 
L 53.609375 8.296875 
L 53.609375 0 
L 7.328125 0 
L 7.328125 8.296875 
Q 12.9375 14.109375 22.625 23.890625 
Q 32.328125 33.6875 34.8125 36.53125 
Q 39.546875 41.84375 41.421875 45.53125 
Q 43.3125 49.21875 43.3125 52.78125 
Q 43.3125 58.59375 39.234375 62.25 
Q 35.15625 65.921875 28.609375 65.921875 
Q 23.96875 65.921875 18.8125 64.3125 
Q 13.671875 62.703125 7.8125 59.421875 
L 7.8125 69.390625 
Q 13.765625 71.78125 18.9375 73 
Q 24.125 74.21875 28.421875 74.21875 
Q 39.75 74.21875 46.484375 68.546875 
Q 53.21875 62.890625 53.21875 53.421875 
Q 53.21875 48.921875 51.53125 44.890625 
Q 49.859375 40.875 45.40625 35.40625 
Q 44.1875 33.984375 37.640625 27.21875 
Q 31.109375 20.453125 19.1875 8.296875 
z
" id="DejaVuSans-50"/>
       <path d="M 11.71875 12.40625 
L 22.015625 12.40625 
L 22.015625 4 
L 14.015625 -11.625 
L 7.71875 -11.625 
L 11.71875 4 
z
" id="DejaVuSans-44"/>
      </defs>
      <g transform="translate(34.4275 219.096993)scale(0.24 -0.24)">
       <use xlink:href="#DejaVuSans-50"/>
       <use x="63.623047" xlink:href="#DejaVuSans-48"/>
       <use x="127.246094" xlink:href="#DejaVuSans-48"/>
       <use x="190.869141" xlink:href="#DejaVuSans-44"/>
       <use x="222.65625" xlink:href="#DejaVuSans-48"/>
       <use x="286.279297" xlink:href="#DejaVuSans-48"/>
       <use x="349.902344" xlink:href="#DejaVuSans-48"/>
      </g>
     </g>
    </g>
    <g id="ytick_3">
     <g id="line2d_27">
      <path clip-path="url(#p1823093ee3)" d="M 140.675 145.70319 
L 810.275 145.70319 
" style="fill:none;stroke:#d3d3d3;stroke-linecap:square;stroke-width:0.8;"/>
     </g>
     <g id="line2d_28">
      <g>
       <use style="stroke:#000000;stroke-width:0.8;" x="140.675" xlink:href="#ma8a9c718ee" y="145.70319"/>
      </g>
     </g>
     <g id="text_3">
      <!-- 400,000 -->
      <defs>
       <path d="M 37.796875 64.3125 
L 12.890625 25.390625 
L 37.796875 25.390625 
z
M 35.203125 72.90625 
L 47.609375 72.90625 
L 47.609375 25.390625 
L 58.015625 25.390625 
L 58.015625 17.1875 
L 47.609375 17.1875 
L 47.609375 0 
L 37.796875 0 
L 37.796875 17.1875 
L 4.890625 17.1875 
L 4.890625 26.703125 
z
" id="DejaVuSans-52"/>
      </defs>
      <g transform="translate(34.4275 154.821315)scale(0.24 -0.24)">
       <use xlink:href="#DejaVuSans-52"/>
       <use x="63.623047" xlink:href="#DejaVuSans-48"/>
       <use x="127.246094" xlink:href="#DejaVuSans-48"/>
       <use x="190.869141" xlink:href="#DejaVuSans-44"/>
       <use x="222.65625" xlink:href="#DejaVuSans-48"/>
       <use x="286.279297" xlink:href="#DejaVuSans-48"/>
       <use x="349.902344" xlink:href="#DejaVuSans-48"/>
      </g>
     </g>
    </g>
    <g id="ytick_4">
     <g id="line2d_29">
      <path clip-path="url(#p1823093ee3)" d="M 140.675 81.427513 
L 810.275 81.427513 
" style="fill:none;stroke:#d3d3d3;stroke-linecap:square;stroke-width:0.8;"/>
     </g>
     <g id="line2d_30">
      <g>
       <use style="stroke:#000000;stroke-width:0.8;" x="140.675" xlink:href="#ma8a9c718ee" y="81.427513"/>
      </g>
     </g>
     <g id="text_4">
      <!-- 600,000 -->
      <defs>
       <path d="M 33.015625 40.375 
Q 26.375 40.375 22.484375 35.828125 
Q 18.609375 31.296875 18.609375 23.390625 
Q 18.609375 15.53125 22.484375 10.953125 
Q 26.375 6.390625 33.015625 6.390625 
Q 39.65625 6.390625 43.53125 10.953125 
Q 47.40625 15.53125 47.40625 23.390625 
Q 47.40625 31.296875 43.53125 35.828125 
Q 39.65625 40.375 33.015625 40.375 
z
M 52.59375 71.296875 
L 52.59375 62.3125 
Q 48.875 64.0625 45.09375 64.984375 
Q 41.3125 65.921875 37.59375 65.921875 
Q 27.828125 65.921875 22.671875 59.328125 
Q 17.53125 52.734375 16.796875 39.40625 
Q 19.671875 43.65625 24.015625 45.921875 
Q 28.375 48.1875 33.59375 48.1875 
Q 44.578125 48.1875 50.953125 41.515625 
Q 57.328125 34.859375 57.328125 23.390625 
Q 57.328125 12.15625 50.6875 5.359375 
Q 44.046875 -1.421875 33.015625 -1.421875 
Q 20.359375 -1.421875 13.671875 8.265625 
Q 6.984375 17.96875 6.984375 36.375 
Q 6.984375 53.65625 15.1875 63.9375 
Q 23.390625 74.21875 37.203125 74.21875 
Q 40.921875 74.21875 44.703125 73.484375 
Q 48.484375 72.75 52.59375 71.296875 
z
" id="DejaVuSans-54"/>
      </defs>
      <g transform="translate(34.4275 90.545638)scale(0.24 -0.24)">
       <use xlink:href="#DejaVuSans-54"/>
       <use x="63.623047" xlink:href="#DejaVuSans-48"/>
       <use x="127.246094" xlink:href="#DejaVuSans-48"/>
       <use x="190.869141" xlink:href="#DejaVuSans-44"/>
       <use x="222.65625" xlink:href="#DejaVuSans-48"/>
       <use x="286.279297" xlink:href="#DejaVuSans-48"/>
       <use x="349.902344" xlink:href="#DejaVuSans-48"/>
      </g>
     </g>
    </g>
    <g id="ytick_5">
     <g id="line2d_31">
      <path clip-path="url(#p1823093ee3)" d="M 140.675 17.151835 
L 810.275 17.151835 
" style="fill:none;stroke:#d3d3d3;stroke-linecap:square;stroke-width:0.8;"/>
     </g>
     <g id="line2d_32">
      <g>
       <use style="stroke:#000000;stroke-width:0.8;" x="140.675" xlink:href="#ma8a9c718ee" y="17.151835"/>
      </g>
     </g>
     <g id="text_5">
      <!-- 800,000 -->
      <defs>
       <path d="M 31.78125 34.625 
Q 24.75 34.625 20.71875 30.859375 
Q 16.703125 27.09375 16.703125 20.515625 
Q 16.703125 13.921875 20.71875 10.15625 
Q 24.75 6.390625 31.78125 6.390625 
Q 38.8125 6.390625 42.859375 10.171875 
Q 46.921875 13.96875 46.921875 20.515625 
Q 46.921875 27.09375 42.890625 30.859375 
Q 38.875 34.625 31.78125 34.625 
z
M 21.921875 38.8125 
Q 15.578125 40.375 12.03125 44.71875 
Q 8.5 49.078125 8.5 55.328125 
Q 8.5 64.0625 14.71875 69.140625 
Q 20.953125 74.21875 31.78125 74.21875 
Q 42.671875 74.21875 48.875 69.140625 
Q 55.078125 64.0625 55.078125 55.328125 
Q 55.078125 49.078125 51.53125 44.71875 
Q 48 40.375 41.703125 38.8125 
Q 48.828125 37.15625 52.796875 32.3125 
Q 56.78125 27.484375 56.78125 20.515625 
Q 56.78125 9.90625 50.3125 4.234375 
Q 43.84375 -1.421875 31.78125 -1.421875 
Q 19.734375 -1.421875 13.25 4.234375 
Q 6.78125 9.90625 6.78125 20.515625 
Q 6.78125 27.484375 10.78125 32.3125 
Q 14.796875 37.15625 21.921875 38.8125 
z
M 18.3125 54.390625 
Q 18.3125 48.734375 21.84375 45.5625 
Q 25.390625 42.390625 31.78125 42.390625 
Q 38.140625 42.390625 41.71875 45.5625 
Q 45.3125 48.734375 45.3125 54.390625 
Q 45.3125 60.0625 41.71875 63.234375 
Q 38.140625 66.40625 31.78125 66.40625 
Q 25.390625 66.40625 21.84375 63.234375 
Q 18.3125 60.0625 18.3125 54.390625 
z
" id="DejaVuSans-56"/>
      </defs>
      <g transform="translate(34.4275 26.26996)scale(0.24 -0.24)">
       <use xlink:href="#DejaVuSans-56"/>
       <use x="63.623047" xlink:href="#DejaVuSans-48"/>
       <use x="127.246094" xlink:href="#DejaVuSans-48"/>
       <use x="190.869141" xlink:href="#DejaVuSans-44"/>
       <use x="222.65625" xlink:href="#DejaVuSans-48"/>
       <use x="286.279297" xlink:href="#DejaVuSans-48"/>
       <use x="349.902344" xlink:href="#DejaVuSans-48"/>
      </g>
     </g>
    </g>
    <g id="text_6">
     <!-- Total manuscripts -->
     <defs>
      <path d="M -0.296875 72.90625 
L 61.375 72.90625 
L 61.375 64.59375 
L 35.5 64.59375 
L 35.5 0 
L 25.59375 0 
L 25.59375 64.59375 
L -0.296875 64.59375 
z
" id="DejaVuSans-84"/>
      <path d="M 30.609375 48.390625 
Q 23.390625 48.390625 19.1875 42.75 
Q 14.984375 37.109375 14.984375 27.296875 
Q 14.984375 17.484375 19.15625 11.84375 
Q 23.34375 6.203125 30.609375 6.203125 
Q 37.796875 6.203125 41.984375 11.859375 
Q 46.1875 17.53125 46.1875 27.296875 
Q 46.1875 37.015625 41.984375 42.703125 
Q 37.796875 48.390625 30.609375 48.390625 
z
M 30.609375 56 
Q 42.328125 56 49.015625 48.375 
Q 55.71875 40.765625 55.71875 27.296875 
Q 55.71875 13.875 49.015625 6.21875 
Q 42.328125 -1.421875 30.609375 -1.421875 
Q 18.84375 -1.421875 12.171875 6.21875 
Q 5.515625 13.875 5.515625 27.296875 
Q 5.515625 40.765625 12.171875 48.375 
Q 18.84375 56 30.609375 56 
z
" id="DejaVuSans-111"/>
      <path d="M 18.3125 70.21875 
L 18.3125 54.6875 
L 36.8125 54.6875 
L 36.8125 47.703125 
L 18.3125 47.703125 
L 18.3125 18.015625 
Q 18.3125 11.328125 20.140625 9.421875 
Q 21.96875 7.515625 27.59375 7.515625 
L 36.8125 7.515625 
L 36.8125 0 
L 27.59375 0 
Q 17.1875 0 13.234375 3.875 
Q 9.28125 7.765625 9.28125 18.015625 
L 9.28125 47.703125 
L 2.6875 47.703125 
L 2.6875 54.6875 
L 9.28125 54.6875 
L 9.28125 70.21875 
z
" id="DejaVuSans-116"/>
      <path d="M 34.28125 27.484375 
Q 23.390625 27.484375 19.1875 25 
Q 14.984375 22.515625 14.984375 16.5 
Q 14.984375 11.71875 18.140625 8.90625 
Q 21.296875 6.109375 26.703125 6.109375 
Q 34.1875 6.109375 38.703125 11.40625 
Q 43.21875 16.703125 43.21875 25.484375 
L 43.21875 27.484375 
z
M 52.203125 31.203125 
L 52.203125 0 
L 43.21875 0 
L 43.21875 8.296875 
Q 40.140625 3.328125 35.546875 0.953125 
Q 30.953125 -1.421875 24.3125 -1.421875 
Q 15.921875 -1.421875 10.953125 3.296875 
Q 6 8.015625 6 15.921875 
Q 6 25.140625 12.171875 29.828125 
Q 18.359375 34.515625 30.609375 34.515625 
L 43.21875 34.515625 
L 43.21875 35.40625 
Q 43.21875 41.609375 39.140625 45 
Q 35.0625 48.390625 27.6875 48.390625 
Q 23 48.390625 18.546875 47.265625 
Q 14.109375 46.140625 10.015625 43.890625 
L 10.015625 52.203125 
Q 14.9375 54.109375 19.578125 55.046875 
Q 24.21875 56 28.609375 56 
Q 40.484375 56 46.34375 49.84375 
Q 52.203125 43.703125 52.203125 31.203125 
z
" id="DejaVuSans-97"/>
      <path d="M 9.421875 75.984375 
L 18.40625 75.984375 
L 18.40625 0 
L 9.421875 0 
z
" id="DejaVuSans-108"/>
      <path id="DejaVuSans-32"/>
      <path d="M 52 44.1875 
Q 55.375 50.25 60.0625 53.125 
Q 64.75 56 71.09375 56 
Q 79.640625 56 84.28125 50.015625 
Q 88.921875 44.046875 88.921875 33.015625 
L 88.921875 0 
L 79.890625 0 
L 79.890625 32.71875 
Q 79.890625 40.578125 77.09375 44.375 
Q 74.3125 48.1875 68.609375 48.1875 
Q 61.625 48.1875 57.5625 43.546875 
Q 53.515625 38.921875 53.515625 30.90625 
L 53.515625 0 
L 44.484375 0 
L 44.484375 32.71875 
Q 44.484375 40.625 41.703125 44.40625 
Q 38.921875 48.1875 33.109375 48.1875 
Q 26.21875 48.1875 22.15625 43.53125 
Q 18.109375 38.875 18.109375 30.90625 
L 18.109375 0 
L 9.078125 0 
L 9.078125 54.6875 
L 18.109375 54.6875 
L 18.109375 46.1875 
Q 21.1875 51.21875 25.484375 53.609375 
Q 29.78125 56 35.6875 56 
Q 41.65625 56 45.828125 52.96875 
Q 50 49.953125 52 44.1875 
z
" id="DejaVuSans-109"/>
      <path d="M 54.890625 33.015625 
L 54.890625 0 
L 45.90625 0 
L 45.90625 32.71875 
Q 45.90625 40.484375 42.875 44.328125 
Q 39.84375 48.1875 33.796875 48.1875 
Q 26.515625 48.1875 22.3125 43.546875 
Q 18.109375 38.921875 18.109375 30.90625 
L 18.109375 0 
L 9.078125 0 
L 9.078125 54.6875 
L 18.109375 54.6875 
L 18.109375 46.1875 
Q 21.34375 51.125 25.703125 53.5625 
Q 30.078125 56 35.796875 56 
Q 45.21875 56 50.046875 50.171875 
Q 54.890625 44.34375 54.890625 33.015625 
z
" id="DejaVuSans-110"/>
      <path d="M 8.5 21.578125 
L 8.5 54.6875 
L 17.484375 54.6875 
L 17.484375 21.921875 
Q 17.484375 14.15625 20.5 10.265625 
Q 23.53125 6.390625 29.59375 6.390625 
Q 36.859375 6.390625 41.078125 11.03125 
Q 45.3125 15.671875 45.3125 23.6875 
L 45.3125 54.6875 
L 54.296875 54.6875 
L 54.296875 0 
L 45.3125 0 
L 45.3125 8.40625 
Q 42.046875 3.421875 37.71875 1 
Q 33.40625 -1.421875 27.6875 -1.421875 
Q 18.265625 -1.421875 13.375 4.4375 
Q 8.5 10.296875 8.5 21.578125 
z
M 31.109375 56 
z
" id="DejaVuSans-117"/>
      <path d="M 44.28125 53.078125 
L 44.28125 44.578125 
Q 40.484375 46.53125 36.375 47.5 
Q 32.28125 48.484375 27.875 48.484375 
Q 21.1875 48.484375 17.84375 46.4375 
Q 14.5 44.390625 14.5 40.28125 
Q 14.5 37.15625 16.890625 35.375 
Q 19.28125 33.59375 26.515625 31.984375 
L 29.59375 31.296875 
Q 39.15625 29.25 43.1875 25.515625 
Q 47.21875 21.78125 47.21875 15.09375 
Q 47.21875 7.46875 41.1875 3.015625 
Q 35.15625 -1.421875 24.609375 -1.421875 
Q 20.21875 -1.421875 15.453125 -0.5625 
Q 10.6875 0.296875 5.421875 2 
L 5.421875 11.28125 
Q 10.40625 8.6875 15.234375 7.390625 
Q 20.0625 6.109375 24.8125 6.109375 
Q 31.15625 6.109375 34.5625 8.28125 
Q 37.984375 10.453125 37.984375 14.40625 
Q 37.984375 18.0625 35.515625 20.015625 
Q 33.0625 21.96875 24.703125 23.78125 
L 21.578125 24.515625 
Q 13.234375 26.265625 9.515625 29.90625 
Q 5.8125 33.546875 5.8125 39.890625 
Q 5.8125 47.609375 11.28125 51.796875 
Q 16.75 56 26.8125 56 
Q 31.78125 56 36.171875 55.265625 
Q 40.578125 54.546875 44.28125 53.078125 
z
" id="DejaVuSans-115"/>
      <path d="M 48.78125 52.59375 
L 48.78125 44.1875 
Q 44.96875 46.296875 41.140625 47.34375 
Q 37.3125 48.390625 33.40625 48.390625 
Q 24.65625 48.390625 19.8125 42.84375 
Q 14.984375 37.3125 14.984375 27.296875 
Q 14.984375 17.28125 19.8125 11.734375 
Q 24.65625 6.203125 33.40625 6.203125 
Q 37.3125 6.203125 41.140625 7.25 
Q 44.96875 8.296875 48.78125 10.40625 
L 48.78125 2.09375 
Q 45.015625 0.34375 40.984375 -0.53125 
Q 36.96875 -1.421875 32.421875 -1.421875 
Q 20.0625 -1.421875 12.78125 6.34375 
Q 5.515625 14.109375 5.515625 27.296875 
Q 5.515625 40.671875 12.859375 48.328125 
Q 20.21875 56 33.015625 56 
Q 37.15625 56 41.109375 55.140625 
Q 45.0625 54.296875 48.78125 52.59375 
z
" id="DejaVuSans-99"/>
      <path d="M 41.109375 46.296875 
Q 39.59375 47.171875 37.8125 47.578125 
Q 36.03125 48 33.890625 48 
Q 26.265625 48 22.1875 43.046875 
Q 18.109375 38.09375 18.109375 28.8125 
L 18.109375 0 
L 9.078125 0 
L 9.078125 54.6875 
L 18.109375 54.6875 
L 18.109375 46.1875 
Q 20.953125 51.171875 25.484375 53.578125 
Q 30.03125 56 36.53125 56 
Q 37.453125 56 38.578125 55.875 
Q 39.703125 55.765625 41.0625 55.515625 
z
" id="DejaVuSans-114"/>
      <path d="M 9.421875 54.6875 
L 18.40625 54.6875 
L 18.40625 0 
L 9.421875 0 
z
M 9.421875 75.984375 
L 18.40625 75.984375 
L 18.40625 64.59375 
L 9.421875 64.59375 
z
" id="DejaVuSans-105"/>
      <path d="M 18.109375 8.203125 
L 18.109375 -20.796875 
L 9.078125 -20.796875 
L 9.078125 54.6875 
L 18.109375 54.6875 
L 18.109375 46.390625 
Q 20.953125 51.265625 25.265625 53.625 
Q 29.59375 56 35.59375 56 
Q 45.5625 56 51.78125 48.09375 
Q 58.015625 40.1875 58.015625 27.296875 
Q 58.015625 14.40625 51.78125 6.484375 
Q 45.5625 -1.421875 35.59375 -1.421875 
Q 29.59375 -1.421875 25.265625 0.953125 
Q 20.953125 3.328125 18.109375 8.203125 
z
M 48.6875 27.296875 
Q 48.6875 37.203125 44.609375 42.84375 
Q 40.53125 48.484375 33.40625 48.484375 
Q 26.265625 48.484375 22.1875 42.84375 
Q 18.109375 37.203125 18.109375 27.296875 
Q 18.109375 17.390625 22.1875 11.75 
Q 26.265625 6.109375 33.40625 6.109375 
Q 40.53125 6.109375 44.609375 11.75 
Q 48.6875 17.390625 48.6875 27.296875 
z
" id="DejaVuSans-112"/>
     </defs>
     <g transform="translate(25.43625 248.515398)rotate(-90)scale(0.24 -0.24)">
      <use xlink:href="#DejaVuSans-84"/>
      <use x="60.818359" xlink:href="#DejaVuSans-111"/>
      <use x="122" xlink:href="#DejaVuSans-116"/>
      <use x="161.208984" xlink:href="#DejaVuSans-97"/>
      <use x="222.488281" xlink:href="#DejaVuSans-108"/>
      <use x="250.271484" xlink:href="#DejaVuSans-32"/>
      <use x="282.058594" xlink:href="#DejaVuSans-109"/>
      <use x="379.470703" xlink:href="#DejaVuSans-97"/>
      <use x="440.75" xlink:href="#DejaVuSans-110"/>
      <use x="504.128906" xlink:href="#DejaVuSans-117"/>
      <use x="567.507812" xlink:href="#DejaVuSans-115"/>
      <use x="619.607422" xlink:href="#DejaVuSans-99"/>
      <use x="674.587891" xlink:href="#DejaVuSans-114"/>
      <use x="715.701172" xlink:href="#DejaVuSans-105"/>
      <use x="743.484375" xlink:href="#DejaVuSans-112"/>
      <use x="806.960938" xlink:href="#DejaVuSans-116"/>
      <use x="846.169922" xlink:href="#DejaVuSans-115"/>
     </g>
    </g>
   </g>
   <g id="line2d_33">
    <path clip-path="url(#p1823093ee3)" d="M 171.111364 260.043193 
L 185.881176 259.05399 
L 193.266082 257.83918 
L 200.650989 257.414961 
L 208.035895 255.818353 
L 227.025654 253.8242 
L 234.41056 232.959994 
L 241.795466 231.123638 
L 242.850453 230.525552 
L 244.960426 229.644976 
L 246.015413 229.563345 
L 248.125386 229.090598 
L 249.180373 228.905163 
L 250.235359 230.820578 
L 251.290346 230.610396 
L 254.455306 230.359721 
L 255.510292 230.09362 
L 256.565279 229.649154 
L 258.675252 229.101203 
L 259.730239 229.010896 
L 262.895199 228.327967 
L 263.950185 227.164577 
L 265.005172 223.671516 
L 267.115145 223.388703 
L 269.225118 223.204553 
L 270.280105 223.172415 
L 271.335091 222.719593 
L 272.390078 222.80765 
L 273.445065 222.331368 
L 274.500051 221.695038 
L 275.555038 221.601517 
L 276.610024 220.433307 
L 277.665011 220.320182 
L 279.774984 219.677746 
L 281.884957 216.357265 
L 282.939944 215.938509 
L 285.049917 215.658267 
L 286.104904 215.396986 
L 287.15989 214.822362 
L 289.269864 214.179605 
L 291.379837 213.855334 
L 293.48981 212.98472 
L 294.544797 212.757184 
L 295.599783 212.386313 
L 302.98469 210.580167 
L 307.204636 210.270679 
L 308.259623 209.29144 
L 309.314609 208.973596 
L 310.369596 208.846973 
L 311.424582 208.42886 
L 314.589542 207.629271 
L 315.644529 207.537999 
L 317.754502 206.634926 
L 318.809489 206.368824 
L 319.864475 206.592504 
L 324.084422 205.733459 
L 325.139408 204.988826 
L 326.194395 204.64945 
L 327.249382 202.055927 
L 328.304368 201.426346 
L 330.414341 201.157674 
L 332.524315 200.372225 
L 333.579301 200.233711 
L 335.689274 199.28211 
L 336.744261 199.200158 
L 337.799248 198.960731 
L 340.964207 197.54988 
L 342.019194 197.445111 
L 345.184154 196.42827 
L 346.239141 195.895424 
L 347.294127 195.498522 
L 352.56906 193.856921 
L 353.624047 193.353 
L 355.73402 192.799908 
L 358.89898 190.332043 
L 359.953966 189.887898 
L 361.008953 188.744434 
L 362.06394 188.711653 
L 363.118926 188.072431 
L 364.173913 187.182213 
L 365.228899 186.50539 
L 367.338873 186.186262 
L 368.393859 185.788717 
L 369.448846 185.226947 
L 370.503833 184.437321 
L 372.613806 183.617806 
L 376.833752 182.672953 
L 379.998712 181.88879 
L 381.053699 181.750276 
L 383.163672 181.111054 
L 384.218658 179.898494 
L 385.273645 179.595112 
L 386.328632 177.898556 
L 387.383618 177.305291 
L 390.548578 176.443033 
L 391.603565 176.120369 
L 392.658551 175.678474 
L 393.713538 175.476648 
L 394.768524 174.883062 
L 395.823511 174.844176 
L 396.878498 174.359216 
L 397.933484 174.107898 
L 398.988471 173.34141 
L 400.043458 172.715687 
L 402.153431 172.012189 
L 404.263404 171.537192 
L 405.318391 171.246987 
L 406.373377 170.628977 
L 408.48335 167.942253 
L 409.538337 167.409729 
L 411.64831 167.080317 
L 412.703297 166.823535 
L 414.81327 165.232712 
L 416.923243 164.435372 
L 419.033216 164.097604 
L 421.14319 163.162714 
L 422.198176 162.974386 
L 423.253163 160.324621 
L 424.30815 159.989102 
L 425.363136 159.911972 
L 426.418123 159.72043 
L 427.473109 159.306495 
L 429.583083 158.778791 
L 431.693056 158.07208 
L 433.803029 157.757772 
L 436.967989 156.232832 
L 438.022975 156.100745 
L 444.352895 154.201399 
L 445.407882 154.056136 
L 446.462868 153.772359 
L 447.517855 153.70744 
L 450.682815 152.694777 
L 451.737801 152.266058 
L 452.792788 152.139114 
L 453.847775 151.546814 
L 458.067721 149.544626 
L 459.122708 148.889014 
L 461.232681 148.245936 
L 463.342654 147.963123 
L 464.397641 147.402961 
L 465.452627 147.069049 
L 466.507614 147.055551 
L 471.782547 146.545202 
L 472.837533 145.664946 
L 477.05748 145.565962 
L 479.167453 145.248119 
L 480.22244 142.116286 
L 481.277426 141.526557 
L 482.332413 141.197465 
L 483.3874 140.497182 
L 485.497373 140.194122 
L 487.607346 139.325758 
L 489.717319 137.758395 
L 490.772306 137.456942 
L 491.827292 137.412913 
L 492.882279 136.996728 
L 494.992252 136.648676 
L 497.102225 135.681648 
L 498.157212 135.237825 
L 500.267185 134.960796 
L 502.377159 133.242708 
L 503.432145 133.131189 
L 504.487132 132.703756 
L 506.597105 132.484255 
L 513.982011 129.51054 
L 521.366917 126.172704 
L 528.751824 124.0034 
L 536.13673 121.029043 
L 543.521636 119.279138 
L 558.291449 116.488609 
L 565.676355 114.238318 
L 573.061261 106.443928 
L 581.501154 104.036161 
L 587.831074 101.733164 
L 595.21598 99.294223 
L 602.600886 96.555436 
L 609.985793 91.761756 
L 617.370699 88.094507 
L 624.755605 85.296587 
L 632.140511 81.550922 
L 646.910324 65.060354 
L 654.29523 62.304856 
L 661.680136 59.003979 
L 669.065043 55.188253 
L 676.449949 52.092415 
L 683.834855 46.347134 
L 691.219761 43.346745 
L 698.604668 39.727382 
L 705.989574 36.337482 
L 716.53944 33.638225 
L 720.759386 30.536281 
L 728.144293 27.137383 
L 735.529199 32.596316 
L 757.683918 28.545663 
L 772.45373 21.886382 
L 779.838636 19.240152 
L 779.838636 19.240152 
" style="fill:none;stroke:#1f77b4;stroke-linecap:square;stroke-width:5;"/>
   </g>
   <g id="patch_3">
    <path d="M 140.675 274.254545 
L 140.675 7.2 
" style="fill:none;stroke:#000000;stroke-linecap:square;stroke-linejoin:miter;stroke-width:0.8;"/>
   </g>
   <g id="patch_4">
    <path d="M 140.675 274.254545 
L 810.275 274.254545 
" style="fill:none;stroke:#000000;stroke-linecap:square;stroke-linejoin:miter;stroke-width:0.8;"/>
   </g>
  </g>
  <g id="axes_2">
   <g id="patch_5">
    <path d="M 140.675 594.72 
L 810.275 594.72 
L 810.275 327.665455 
L 140.675 327.665455 
z
" style="fill:#ffffff;"/>
   </g>
   <g id="matplotlib.axis_3">
    <g id="xtick_12">
     <g id="line2d_34">
      <path clip-path="url(#p7806d7d3b6)" d="M 151.066618 594.72 
L 151.066618 327.665455 
" style="fill:none;stroke:#d3d3d3;stroke-linecap:square;stroke-width:0.8;"/>
     </g>
     <g id="line2d_35">
      <g>
       <use style="stroke:#000000;stroke-width:0.8;" x="151.066618" xlink:href="#m9c9ffd509d" y="594.72"/>
      </g>
     </g>
     <g id="text_7">
      <!-- 2020-03 -->
      <defs>
       <path d="M 4.890625 31.390625 
L 31.203125 31.390625 
L 31.203125 23.390625 
L 4.890625 23.390625 
z
" id="DejaVuSans-45"/>
       <path d="M 40.578125 39.3125 
Q 47.65625 37.796875 51.625 33 
Q 55.609375 28.21875 55.609375 21.1875 
Q 55.609375 10.40625 48.1875 4.484375 
Q 40.765625 -1.421875 27.09375 -1.421875 
Q 22.515625 -1.421875 17.65625 -0.515625 
Q 12.796875 0.390625 7.625 2.203125 
L 7.625 11.71875 
Q 11.71875 9.328125 16.59375 8.109375 
Q 21.484375 6.890625 26.8125 6.890625 
Q 36.078125 6.890625 40.9375 10.546875 
Q 45.796875 14.203125 45.796875 21.1875 
Q 45.796875 27.640625 41.28125 31.265625 
Q 36.765625 34.90625 28.71875 34.90625 
L 20.21875 34.90625 
L 20.21875 43.015625 
L 29.109375 43.015625 
Q 36.375 43.015625 40.234375 45.921875 
Q 44.09375 48.828125 44.09375 54.296875 
Q 44.09375 59.90625 40.109375 62.90625 
Q 36.140625 65.921875 28.71875 65.921875 
Q 24.65625 65.921875 20.015625 65.03125 
Q 15.375 64.15625 9.8125 62.3125 
L 9.8125 71.09375 
Q 15.4375 72.65625 20.34375 73.4375 
Q 25.25 74.21875 29.59375 74.21875 
Q 40.828125 74.21875 47.359375 69.109375 
Q 53.90625 64.015625 53.90625 55.328125 
Q 53.90625 49.265625 50.4375 45.09375 
Q 46.96875 40.921875 40.578125 39.3125 
z
" id="DejaVuSans-51"/>
      </defs>
      <g transform="translate(61.727048 667.652431)rotate(-30)scale(0.24 -0.24)">
       <use xlink:href="#DejaVuSans-50"/>
       <use x="63.623047" xlink:href="#DejaVuSans-48"/>
       <use x="127.246094" xlink:href="#DejaVuSans-50"/>
       <use x="190.869141" xlink:href="#DejaVuSans-48"/>
       <use x="254.492188" xlink:href="#DejaVuSans-45"/>
       <use x="290.576172" xlink:href="#DejaVuSans-48"/>
       <use x="354.199219" xlink:href="#DejaVuSans-51"/>
      </g>
     </g>
    </g>
    <g id="xtick_13">
     <g id="line2d_36">
      <path clip-path="url(#p7806d7d3b6)" d="M 215.420801 594.72 
L 215.420801 327.665455 
" style="fill:none;stroke:#d3d3d3;stroke-linecap:square;stroke-width:0.8;"/>
     </g>
     <g id="line2d_37">
      <g>
       <use style="stroke:#000000;stroke-width:0.8;" x="215.420801" xlink:href="#m9c9ffd509d" y="594.72"/>
      </g>
     </g>
     <g id="text_8">
      <!-- 2020-05 -->
      <defs>
       <path d="M 10.796875 72.90625 
L 49.515625 72.90625 
L 49.515625 64.59375 
L 19.828125 64.59375 
L 19.828125 46.734375 
Q 21.96875 47.46875 24.109375 47.828125 
Q 26.265625 48.1875 28.421875 48.1875 
Q 40.625 48.1875 47.75 41.5 
Q 54.890625 34.8125 54.890625 23.390625 
Q 54.890625 11.625 47.5625 5.09375 
Q 40.234375 -1.421875 26.90625 -1.421875 
Q 22.3125 -1.421875 17.546875 -0.640625 
Q 12.796875 0.140625 7.71875 1.703125 
L 7.71875 11.625 
Q 12.109375 9.234375 16.796875 8.0625 
Q 21.484375 6.890625 26.703125 6.890625 
Q 35.15625 6.890625 40.078125 11.328125 
Q 45.015625 15.765625 45.015625 23.390625 
Q 45.015625 31 40.078125 35.4375 
Q 35.15625 39.890625 26.703125 39.890625 
Q 22.75 39.890625 18.8125 39.015625 
Q 14.890625 38.140625 10.796875 36.28125 
z
" id="DejaVuSans-53"/>
      </defs>
      <g transform="translate(126.081231 667.652431)rotate(-30)scale(0.24 -0.24)">
       <use xlink:href="#DejaVuSans-50"/>
       <use x="63.623047" xlink:href="#DejaVuSans-48"/>
       <use x="127.246094" xlink:href="#DejaVuSans-50"/>
       <use x="190.869141" xlink:href="#DejaVuSans-48"/>
       <use x="254.492188" xlink:href="#DejaVuSans-45"/>
       <use x="290.576172" xlink:href="#DejaVuSans-48"/>
       <use x="354.199219" xlink:href="#DejaVuSans-53"/>
      </g>
     </g>
    </g>
    <g id="xtick_14">
     <g id="line2d_38">
      <path clip-path="url(#p7806d7d3b6)" d="M 279.774984 594.72 
L 279.774984 327.665455 
" style="fill:none;stroke:#d3d3d3;stroke-linecap:square;stroke-width:0.8;"/>
     </g>
     <g id="line2d_39">
      <g>
       <use style="stroke:#000000;stroke-width:0.8;" x="279.774984" xlink:href="#m9c9ffd509d" y="594.72"/>
      </g>
     </g>
     <g id="text_9">
      <!-- 2020-07 -->
      <defs>
       <path d="M 8.203125 72.90625 
L 55.078125 72.90625 
L 55.078125 68.703125 
L 28.609375 0 
L 18.3125 0 
L 43.21875 64.59375 
L 8.203125 64.59375 
z
" id="DejaVuSans-55"/>
      </defs>
      <g transform="translate(190.435414 667.652431)rotate(-30)scale(0.24 -0.24)">
       <use xlink:href="#DejaVuSans-50"/>
       <use x="63.623047" xlink:href="#DejaVuSans-48"/>
       <use x="127.246094" xlink:href="#DejaVuSans-50"/>
       <use x="190.869141" xlink:href="#DejaVuSans-48"/>
       <use x="254.492188" xlink:href="#DejaVuSans-45"/>
       <use x="290.576172" xlink:href="#DejaVuSans-48"/>
       <use x="354.199219" xlink:href="#DejaVuSans-55"/>
      </g>
     </g>
    </g>
    <g id="xtick_15">
     <g id="line2d_40">
      <path clip-path="url(#p7806d7d3b6)" d="M 345.184154 594.72 
L 345.184154 327.665455 
" style="fill:none;stroke:#d3d3d3;stroke-linecap:square;stroke-width:0.8;"/>
     </g>
     <g id="line2d_41">
      <g>
       <use style="stroke:#000000;stroke-width:0.8;" x="345.184154" xlink:href="#m9c9ffd509d" y="594.72"/>
      </g>
     </g>
     <g id="text_10">
      <!-- 2020-09 -->
      <defs>
       <path d="M 10.984375 1.515625 
L 10.984375 10.5 
Q 14.703125 8.734375 18.5 7.8125 
Q 22.3125 6.890625 25.984375 6.890625 
Q 35.75 6.890625 40.890625 13.453125 
Q 46.046875 20.015625 46.78125 33.40625 
Q 43.953125 29.203125 39.59375 26.953125 
Q 35.25 24.703125 29.984375 24.703125 
Q 19.046875 24.703125 12.671875 31.3125 
Q 6.296875 37.9375 6.296875 49.421875 
Q 6.296875 60.640625 12.9375 67.421875 
Q 19.578125 74.21875 30.609375 74.21875 
Q 43.265625 74.21875 49.921875 64.515625 
Q 56.59375 54.828125 56.59375 36.375 
Q 56.59375 19.140625 48.40625 8.859375 
Q 40.234375 -1.421875 26.421875 -1.421875 
Q 22.703125 -1.421875 18.890625 -0.6875 
Q 15.09375 0.046875 10.984375 1.515625 
z
M 30.609375 32.421875 
Q 37.25 32.421875 41.125 36.953125 
Q 45.015625 41.5 45.015625 49.421875 
Q 45.015625 57.28125 41.125 61.84375 
Q 37.25 66.40625 30.609375 66.40625 
Q 23.96875 66.40625 20.09375 61.84375 
Q 16.21875 57.28125 16.21875 49.421875 
Q 16.21875 41.5 20.09375 36.953125 
Q 23.96875 32.421875 30.609375 32.421875 
z
" id="DejaVuSans-57"/>
      </defs>
      <g transform="translate(255.844584 667.652431)rotate(-30)scale(0.24 -0.24)">
       <use xlink:href="#DejaVuSans-50"/>
       <use x="63.623047" xlink:href="#DejaVuSans-48"/>
       <use x="127.246094" xlink:href="#DejaVuSans-50"/>
       <use x="190.869141" xlink:href="#DejaVuSans-48"/>
       <use x="254.492188" xlink:href="#DejaVuSans-45"/>
       <use x="290.576172" xlink:href="#DejaVuSans-48"/>
       <use x="354.199219" xlink:href="#DejaVuSans-57"/>
      </g>
     </g>
    </g>
    <g id="xtick_16">
     <g id="line2d_42">
      <path clip-path="url(#p7806d7d3b6)" d="M 409.538337 594.72 
L 409.538337 327.665455 
" style="fill:none;stroke:#d3d3d3;stroke-linecap:square;stroke-width:0.8;"/>
     </g>
     <g id="line2d_43">
      <g>
       <use style="stroke:#000000;stroke-width:0.8;" x="409.538337" xlink:href="#m9c9ffd509d" y="594.72"/>
      </g>
     </g>
     <g id="text_11">
      <!-- 2020-11 -->
      <defs>
       <path d="M 12.40625 8.296875 
L 28.515625 8.296875 
L 28.515625 63.921875 
L 10.984375 60.40625 
L 10.984375 69.390625 
L 28.421875 72.90625 
L 38.28125 72.90625 
L 38.28125 8.296875 
L 54.390625 8.296875 
L 54.390625 0 
L 12.40625 0 
z
" id="DejaVuSans-49"/>
      </defs>
      <g transform="translate(320.198767 667.652431)rotate(-30)scale(0.24 -0.24)">
       <use xlink:href="#DejaVuSans-50"/>
       <use x="63.623047" xlink:href="#DejaVuSans-48"/>
       <use x="127.246094" xlink:href="#DejaVuSans-50"/>
       <use x="190.869141" xlink:href="#DejaVuSans-48"/>
       <use x="254.492188" xlink:href="#DejaVuSans-45"/>
       <use x="290.576172" xlink:href="#DejaVuSans-49"/>
       <use x="354.199219" xlink:href="#DejaVuSans-49"/>
      </g>
     </g>
    </g>
    <g id="xtick_17">
     <g id="line2d_44">
      <path clip-path="url(#p7806d7d3b6)" d="M 473.89252 594.72 
L 473.89252 327.665455 
" style="fill:none;stroke:#d3d3d3;stroke-linecap:square;stroke-width:0.8;"/>
     </g>
     <g id="line2d_45">
      <g>
       <use style="stroke:#000000;stroke-width:0.8;" x="473.89252" xlink:href="#m9c9ffd509d" y="594.72"/>
      </g>
     </g>
     <g id="text_12">
      <!-- 2021-01 -->
      <g transform="translate(384.55295 667.652431)rotate(-30)scale(0.24 -0.24)">
       <use xlink:href="#DejaVuSans-50"/>
       <use x="63.623047" xlink:href="#DejaVuSans-48"/>
       <use x="127.246094" xlink:href="#DejaVuSans-50"/>
       <use x="190.869141" xlink:href="#DejaVuSans-49"/>
       <use x="254.492188" xlink:href="#DejaVuSans-45"/>
       <use x="290.576172" xlink:href="#DejaVuSans-48"/>
       <use x="354.199219" xlink:href="#DejaVuSans-49"/>
      </g>
     </g>
    </g>
    <g id="xtick_18">
     <g id="line2d_46">
      <path clip-path="url(#p7806d7d3b6)" d="M 536.13673 594.72 
L 536.13673 327.665455 
" style="fill:none;stroke:#d3d3d3;stroke-linecap:square;stroke-width:0.8;"/>
     </g>
     <g id="line2d_47">
      <g>
       <use style="stroke:#000000;stroke-width:0.8;" x="536.13673" xlink:href="#m9c9ffd509d" y="594.72"/>
      </g>
     </g>
     <g id="text_13">
      <!-- 2021-03 -->
      <g transform="translate(446.79716 667.652431)rotate(-30)scale(0.24 -0.24)">
       <use xlink:href="#DejaVuSans-50"/>
       <use x="63.623047" xlink:href="#DejaVuSans-48"/>
       <use x="127.246094" xlink:href="#DejaVuSans-50"/>
       <use x="190.869141" xlink:href="#DejaVuSans-49"/>
       <use x="254.492188" xlink:href="#DejaVuSans-45"/>
       <use x="290.576172" xlink:href="#DejaVuSans-48"/>
       <use x="354.199219" xlink:href="#DejaVuSans-51"/>
      </g>
     </g>
    </g>
    <g id="xtick_19">
     <g id="line2d_48">
      <path clip-path="url(#p7806d7d3b6)" d="M 600.490913 594.72 
L 600.490913 327.665455 
" style="fill:none;stroke:#d3d3d3;stroke-linecap:square;stroke-width:0.8;"/>
     </g>
     <g id="line2d_49">
      <g>
       <use style="stroke:#000000;stroke-width:0.8;" x="600.490913" xlink:href="#m9c9ffd509d" y="594.72"/>
      </g>
     </g>
     <g id="text_14">
      <!-- 2021-05 -->
      <g transform="translate(511.151343 667.652431)rotate(-30)scale(0.24 -0.24)">
       <use xlink:href="#DejaVuSans-50"/>
       <use x="63.623047" xlink:href="#DejaVuSans-48"/>
       <use x="127.246094" xlink:href="#DejaVuSans-50"/>
       <use x="190.869141" xlink:href="#DejaVuSans-49"/>
       <use x="254.492188" xlink:href="#DejaVuSans-45"/>
       <use x="290.576172" xlink:href="#DejaVuSans-48"/>
       <use x="354.199219" xlink:href="#DejaVuSans-53"/>
      </g>
     </g>
    </g>
    <g id="xtick_20">
     <g id="line2d_50">
      <path clip-path="url(#p7806d7d3b6)" d="M 664.845096 594.72 
L 664.845096 327.665455 
" style="fill:none;stroke:#d3d3d3;stroke-linecap:square;stroke-width:0.8;"/>
     </g>
     <g id="line2d_51">
      <g>
       <use style="stroke:#000000;stroke-width:0.8;" x="664.845096" xlink:href="#m9c9ffd509d" y="594.72"/>
      </g>
     </g>
     <g id="text_15">
      <!-- 2021-07 -->
      <g transform="translate(575.505526 667.652431)rotate(-30)scale(0.24 -0.24)">
       <use xlink:href="#DejaVuSans-50"/>
       <use x="63.623047" xlink:href="#DejaVuSans-48"/>
       <use x="127.246094" xlink:href="#DejaVuSans-50"/>
       <use x="190.869141" xlink:href="#DejaVuSans-49"/>
       <use x="254.492188" xlink:href="#DejaVuSans-45"/>
       <use x="290.576172" xlink:href="#DejaVuSans-48"/>
       <use x="354.199219" xlink:href="#DejaVuSans-55"/>
      </g>
     </g>
    </g>
    <g id="xtick_21">
     <g id="line2d_52">
      <path clip-path="url(#p7806d7d3b6)" d="M 730.254266 594.72 
L 730.254266 327.665455 
" style="fill:none;stroke:#d3d3d3;stroke-linecap:square;stroke-width:0.8;"/>
     </g>
     <g id="line2d_53">
      <g>
       <use style="stroke:#000000;stroke-width:0.8;" x="730.254266" xlink:href="#m9c9ffd509d" y="594.72"/>
      </g>
     </g>
     <g id="text_16">
      <!-- 2021-09 -->
      <g transform="translate(640.914696 667.652431)rotate(-30)scale(0.24 -0.24)">
       <use xlink:href="#DejaVuSans-50"/>
       <use x="63.623047" xlink:href="#DejaVuSans-48"/>
       <use x="127.246094" xlink:href="#DejaVuSans-50"/>
       <use x="190.869141" xlink:href="#DejaVuSans-49"/>
       <use x="254.492188" xlink:href="#DejaVuSans-45"/>
       <use x="290.576172" xlink:href="#DejaVuSans-48"/>
       <use x="354.199219" xlink:href="#DejaVuSans-57"/>
      </g>
     </g>
    </g>
    <g id="xtick_22">
     <g id="line2d_54">
      <path clip-path="url(#p7806d7d3b6)" d="M 794.608449 594.72 
L 794.608449 327.665455 
" style="fill:none;stroke:#d3d3d3;stroke-linecap:square;stroke-width:0.8;"/>
     </g>
     <g id="line2d_55">
      <g>
       <use style="stroke:#000000;stroke-width:0.8;" x="794.608449" xlink:href="#m9c9ffd509d" y="594.72"/>
      </g>
     </g>
     <g id="text_17">
      <!-- 2021-11 -->
      <g transform="translate(705.268879 667.652431)rotate(-30)scale(0.24 -0.24)">
       <use xlink:href="#DejaVuSans-50"/>
       <use x="63.623047" xlink:href="#DejaVuSans-48"/>
       <use x="127.246094" xlink:href="#DejaVuSans-50"/>
       <use x="190.869141" xlink:href="#DejaVuSans-49"/>
       <use x="254.492188" xlink:href="#DejaVuSans-45"/>
       <use x="290.576172" xlink:href="#DejaVuSans-49"/>
       <use x="354.199219" xlink:href="#DejaVuSans-49"/>
      </g>
     </g>
    </g>
   </g>
   <g id="matplotlib.axis_4">
    <g id="ytick_6">
     <g id="line2d_56">
      <path clip-path="url(#p7806d7d3b6)" d="M 140.675 594.72 
L 810.275 594.72 
" style="fill:none;stroke:#d3d3d3;stroke-linecap:square;stroke-width:0.8;"/>
     </g>
     <g id="line2d_57">
      <g>
       <use style="stroke:#000000;stroke-width:0.8;" x="140.675" xlink:href="#ma8a9c718ee" y="594.72"/>
      </g>
     </g>
     <g id="text_18">
      <!-- 0 -->
      <g transform="translate(118.405 603.838125)scale(0.24 -0.24)">
       <use xlink:href="#DejaVuSans-48"/>
      </g>
     </g>
    </g>
    <g id="ytick_7">
     <g id="line2d_58">
      <path clip-path="url(#p7806d7d3b6)" d="M 140.675 515.375735 
L 810.275 515.375735 
" style="fill:none;stroke:#d3d3d3;stroke-linecap:square;stroke-width:0.8;"/>
     </g>
     <g id="line2d_59">
      <g>
       <use style="stroke:#000000;stroke-width:0.8;" x="140.675" xlink:href="#ma8a9c718ee" y="515.375735"/>
      </g>
     </g>
     <g id="text_19">
      <!-- 5,000 -->
      <g transform="translate(64.9675 524.49386)scale(0.24 -0.24)">
       <use xlink:href="#DejaVuSans-53"/>
       <use x="63.623047" xlink:href="#DejaVuSans-44"/>
       <use x="95.410156" xlink:href="#DejaVuSans-48"/>
       <use x="159.033203" xlink:href="#DejaVuSans-48"/>
       <use x="222.65625" xlink:href="#DejaVuSans-48"/>
      </g>
     </g>
    </g>
    <g id="ytick_8">
     <g id="line2d_60">
      <path clip-path="url(#p7806d7d3b6)" d="M 140.675 436.031471 
L 810.275 436.031471 
" style="fill:none;stroke:#d3d3d3;stroke-linecap:square;stroke-width:0.8;"/>
     </g>
     <g id="line2d_61">
      <g>
       <use style="stroke:#000000;stroke-width:0.8;" x="140.675" xlink:href="#ma8a9c718ee" y="436.031471"/>
      </g>
     </g>
     <g id="text_20">
      <!-- 10,000 -->
      <g transform="translate(49.6975 445.149596)scale(0.24 -0.24)">
       <use xlink:href="#DejaVuSans-49"/>
       <use x="63.623047" xlink:href="#DejaVuSans-48"/>
       <use x="127.246094" xlink:href="#DejaVuSans-44"/>
       <use x="159.033203" xlink:href="#DejaVuSans-48"/>
       <use x="222.65625" xlink:href="#DejaVuSans-48"/>
       <use x="286.279297" xlink:href="#DejaVuSans-48"/>
      </g>
     </g>
    </g>
    <g id="ytick_9">
     <g id="line2d_62">
      <path clip-path="url(#p7806d7d3b6)" d="M 140.675 356.687206 
L 810.275 356.687206 
" style="fill:none;stroke:#d3d3d3;stroke-linecap:square;stroke-width:0.8;"/>
     </g>
     <g id="line2d_63">
      <g>
       <use style="stroke:#000000;stroke-width:0.8;" x="140.675" xlink:href="#ma8a9c718ee" y="356.687206"/>
      </g>
     </g>
     <g id="text_21">
      <!-- 15,000 -->
      <g transform="translate(49.6975 365.805331)scale(0.24 -0.24)">
       <use xlink:href="#DejaVuSans-49"/>
       <use x="63.623047" xlink:href="#DejaVuSans-53"/>
       <use x="127.246094" xlink:href="#DejaVuSans-44"/>
       <use x="159.033203" xlink:href="#DejaVuSans-48"/>
       <use x="222.65625" xlink:href="#DejaVuSans-48"/>
       <use x="286.279297" xlink:href="#DejaVuSans-48"/>
      </g>
     </g>
    </g>
    <g id="text_22">
     <!-- Preprints -->
     <defs>
      <path d="M 19.671875 64.796875 
L 19.671875 37.40625 
L 32.078125 37.40625 
Q 38.96875 37.40625 42.71875 40.96875 
Q 46.484375 44.53125 46.484375 51.125 
Q 46.484375 57.671875 42.71875 61.234375 
Q 38.96875 64.796875 32.078125 64.796875 
z
M 9.8125 72.90625 
L 32.078125 72.90625 
Q 44.34375 72.90625 50.609375 67.359375 
Q 56.890625 61.8125 56.890625 51.125 
Q 56.890625 40.328125 50.609375 34.8125 
Q 44.34375 29.296875 32.078125 29.296875 
L 19.671875 29.296875 
L 19.671875 0 
L 9.8125 0 
z
" id="DejaVuSans-80"/>
      <path d="M 56.203125 29.59375 
L 56.203125 25.203125 
L 14.890625 25.203125 
Q 15.484375 15.921875 20.484375 11.0625 
Q 25.484375 6.203125 34.421875 6.203125 
Q 39.59375 6.203125 44.453125 7.46875 
Q 49.3125 8.734375 54.109375 11.28125 
L 54.109375 2.78125 
Q 49.265625 0.734375 44.1875 -0.34375 
Q 39.109375 -1.421875 33.890625 -1.421875 
Q 20.796875 -1.421875 13.15625 6.1875 
Q 5.515625 13.8125 5.515625 26.8125 
Q 5.515625 40.234375 12.765625 48.109375 
Q 20.015625 56 32.328125 56 
Q 43.359375 56 49.78125 48.890625 
Q 56.203125 41.796875 56.203125 29.59375 
z
M 47.21875 32.234375 
Q 47.125 39.59375 43.09375 43.984375 
Q 39.0625 48.390625 32.421875 48.390625 
Q 24.90625 48.390625 20.390625 44.140625 
Q 15.875 39.890625 15.1875 32.171875 
z
" id="DejaVuSans-101"/>
     </defs>
     <g transform="translate(40.70625 515.185227)rotate(-90)scale(0.24 -0.24)">
      <use xlink:href="#DejaVuSans-80"/>
      <use x="60.287109" xlink:href="#DejaVuSans-114"/>
      <use x="101.369141" xlink:href="#DejaVuSans-101"/>
      <use x="162.892578" xlink:href="#DejaVuSans-112"/>
      <use x="226.369141" xlink:href="#DejaVuSans-114"/>
      <use x="267.482422" xlink:href="#DejaVuSans-105"/>
      <use x="295.265625" xlink:href="#DejaVuSans-110"/>
      <use x="358.644531" xlink:href="#DejaVuSans-116"/>
      <use x="397.853516" xlink:href="#DejaVuSans-115"/>
     </g>
    </g>
   </g>
   <g id="line2d_64">
    <path clip-path="url(#p7806d7d3b6)" d="M 171.111364 591.879475 
L 178.49627 590.308459 
L 185.881176 588.324852 
L 193.266082 586.023869 
L 208.035895 582.072524 
L 215.420801 579.565245 
L 227.025654 576.45495 
L 234.41056 574.011147 
L 246.015413 570.583475 
L 248.125386 570.281967 
L 249.180373 569.82177 
L 254.455306 568.330098 
L 255.510292 568.15554 
L 256.565279 567.679475 
L 260.785225 566.203671 
L 262.895199 565.94977 
L 263.950185 565.426098 
L 265.005172 565.029376 
L 266.060158 564.791343 
L 268.170132 564.108983 
L 270.280105 563.886819 
L 271.335091 563.601179 
L 272.390078 563.093376 
L 276.610024 561.982556 
L 279.774984 561.347802 
L 282.939944 560.332196 
L 285.049917 559.903737 
L 286.104904 559.44354 
L 290.32485 558.174032 
L 294.544797 557.380589 
L 295.599783 556.983868 
L 299.81973 555.98413 
L 301.929703 555.333507 
L 305.094663 554.349638 
L 307.204636 553.984655 
L 311.424582 552.492982 
L 312.479569 552.096261 
L 314.589542 551.667802 
L 318.809489 550.334818 
L 319.864475 550.049179 
L 321.974449 549.906359 
L 324.084422 549.287474 
L 327.249382 548.398818 
L 330.414341 547.843408 
L 332.524315 547.383212 
L 334.634288 546.780195 
L 336.744261 546.558031 
L 339.909221 545.701113 
L 342.019194 544.971146 
L 347.294127 544.08249 
L 353.624047 542.622556 
L 355.73402 541.924326 
L 362.06394 540.781769 
L 363.118926 540.416785 
L 365.228899 540.051802 
L 366.283886 539.94072 
L 368.393859 539.24249 
L 369.448846 538.877507 
L 373.668792 538.084064 
L 379.998712 536.735211 
L 381.053699 536.639998 
L 385.273645 535.338752 
L 386.328632 534.973769 
L 388.438605 534.592916 
L 390.548578 534.021638 
L 391.603565 533.862949 
L 392.658551 533.466228 
L 396.878498 532.593441 
L 397.933484 532.133244 
L 400.043458 531.530228 
L 401.098444 531.165244 
L 403.208417 530.847867 
L 404.263404 530.482883 
L 405.318391 529.990949 
L 409.538337 528.642096 
L 410.593324 528.467539 
L 411.64831 528.118424 
L 414.81327 527.436064 
L 415.868257 527.086949 
L 417.97823 526.737834 
L 423.253163 525.452457 
L 426.418123 524.785965 
L 427.473109 524.420982 
L 431.693056 523.579932 
L 432.748042 523.532326 
L 433.803029 523.087998 
L 436.967989 522.326293 
L 439.077962 522.040654 
L 443.297908 521.072654 
L 445.407882 520.326818 
L 447.517855 520.104654 
L 449.627828 519.279473 
L 452.792788 518.374949 
L 453.847775 518.200391 
L 461.232681 516.454817 
L 462.287667 516.391342 
L 463.342654 516.105703 
L 464.397641 515.597899 
L 466.507614 514.963145 
L 469.672574 514.598162 
L 471.782547 514.20144 
L 476.002493 513.360391 
L 477.05748 513.281047 
L 480.22244 512.360653 
L 485.497373 511.218096 
L 488.662333 510.250096 
L 489.717319 509.996194 
L 491.827292 509.742293 
L 492.882279 509.456653 
L 494.992252 508.615604 
L 499.212199 507.949112 
L 501.322172 507.314358 
L 502.377159 507.123932 
L 503.432145 506.631997 
L 504.487132 506.346358 
L 506.597105 506.013112 
L 513.982011 504.140588 
L 521.366917 502.014161 
L 536.13673 498.237374 
L 543.521636 496.063341 
L 558.291449 492.524587 
L 573.061261 489.207997 
L 595.21598 483.479341 
L 609.985793 480.051669 
L 617.370699 478.258488 
L 632.140511 474.211931 
L 646.910324 469.530619 
L 661.680136 465.341242 
L 669.065043 463.452849 
L 676.449949 461.802488 
L 683.834855 459.914094 
L 691.219761 458.31134 
L 698.604668 456.438816 
L 705.989574 454.296521 
L 716.53944 451.67816 
L 720.759386 450.234094 
L 728.144293 448.425045 
L 735.529199 446.425569 
L 750.299011 442.204455 
L 757.683918 440.585832 
L 772.45373 436.221897 
L 779.838636 435.07934 
L 779.838636 435.07934 
" style="fill:none;stroke:#1f77b4;stroke-linecap:square;stroke-width:5;"/>
   </g>
   <g id="line2d_65">
    <path clip-path="url(#p7806d7d3b6)" d="M 171.111364 585.500196 
L 178.49627 582.992918 
L 185.881176 578.930491 
L 193.266082 575.423475 
L 200.650989 570.900852 
L 208.035895 565.299147 
L 215.420801 560.363933 
L 227.025654 550.430032 
L 234.41056 545.510687 
L 241.795466 539.702687 
L 242.850453 537.100195 
L 243.90544 536.497179 
L 244.960426 536.259146 
L 246.015413 535.275277 
L 247.070399 534.513572 
L 248.125386 534.497703 
L 249.180373 534.148588 
L 250.235359 532.87908 
L 251.290346 531.91108 
L 252.345332 531.530228 
L 253.400319 530.102031 
L 254.455306 530.038556 
L 256.565279 528.959474 
L 257.620265 527.816916 
L 258.675252 527.785178 
L 259.730239 527.324982 
L 260.785225 525.54767 
L 261.840212 525.341375 
L 262.895199 524.881178 
L 263.950185 524.833572 
L 265.005172 523.675145 
L 266.060158 523.119736 
L 267.115145 522.738883 
L 269.225118 521.025047 
L 270.280105 520.993309 
L 271.335091 520.469637 
L 272.390078 519.390555 
L 273.445065 518.91449 
L 274.500051 518.77167 
L 275.555038 517.835408 
L 276.610024 517.819539 
L 277.665011 517.375211 
L 278.719998 516.359604 
L 279.774984 516.026358 
L 282.939944 514.693375 
L 283.994931 513.995145 
L 285.049917 513.836457 
L 286.104904 513.407998 
L 287.15989 512.582817 
L 288.214877 512.090883 
L 289.269864 511.916325 
L 290.32485 511.392653 
L 291.379837 510.440522 
L 293.48981 510.392916 
L 294.544797 509.377309 
L 295.599783 508.885375 
L 299.81973 506.647866 
L 300.874716 506.362227 
L 301.929703 505.854424 
L 302.98469 505.568784 
L 304.039676 505.505309 
L 305.094663 504.267538 
L 307.204636 503.124981 
L 308.259623 502.680653 
L 309.314609 502.363276 
L 310.369596 501.395276 
L 311.424582 500.744653 
L 312.479569 500.538358 
L 313.534556 500.030555 
L 314.589542 499.776653 
L 315.644529 499.760784 
L 316.699516 498.126292 
L 317.754502 498.062817 
L 319.864475 496.729833 
L 323.029435 496.682227 
L 324.084422 495.857046 
L 326.194395 495.127079 
L 327.249382 493.746489 
L 328.304368 493.302161 
L 330.414341 492.699145 
L 331.469328 492.334161 
L 333.579301 492.080259 
L 335.689274 490.604456 
L 336.744261 490.398161 
L 337.799248 490.00144 
L 338.854234 489.350817 
L 339.909221 488.922358 
L 342.019194 488.858882 
L 345.184154 488.144784 
L 346.239141 486.748325 
L 347.294127 485.653374 
L 353.624047 483.558685 
L 355.73402 482.320915 
L 361.008953 480.384915 
L 363.118926 480.257964 
L 364.173913 478.36957 
L 366.283886 478.24262 
L 367.338873 478.131538 
L 368.393859 477.607865 
L 369.448846 476.560521 
L 370.503833 476.401833 
L 371.558819 475.655997 
L 372.613806 475.655997 
L 373.668792 475.306882 
L 376.833752 473.719996 
L 378.943725 473.307406 
L 379.998712 473.307406 
L 381.053699 473.021767 
L 382.108685 472.545701 
L 383.163672 471.910947 
L 386.328632 471.498357 
L 387.383618 471.498357 
L 388.438605 471.339669 
L 390.548578 470.451013 
L 391.603565 469.578226 
L 393.713538 469.181505 
L 394.768524 469.181505 
L 395.823511 468.959341 
L 396.878498 468.943472 
L 397.933484 468.070685 
L 398.988471 467.420062 
L 400.043458 467.324849 
L 401.098444 466.769439 
L 402.153431 466.769439 
L 403.208417 466.61075 
L 404.263404 466.325111 
L 405.318391 464.849308 
L 406.373377 464.738226 
L 409.538337 464.293898 
L 411.64831 464.087603 
L 412.703297 463.198947 
L 413.758283 461.945308 
L 414.81327 461.707275 
L 415.868257 461.21534 
L 416.923243 460.897963 
L 417.97823 460.866226 
L 421.14319 460.294947 
L 422.198176 459.691931 
L 423.253163 458.930226 
L 424.30815 458.914357 
L 425.363136 458.771537 
L 426.418123 458.04157 
L 427.473109 457.914619 
L 428.528096 457.010094 
L 429.583083 456.867275 
L 432.748042 456.295996 
L 433.803029 455.708848 
L 436.967989 455.089963 
L 439.077962 454.471078 
L 441.187935 452.979406 
L 443.297908 452.408127 
L 444.352895 451.995537 
L 445.407882 451.202094 
L 447.517855 451.170356 
L 448.572841 450.487996 
L 450.682815 449.884979 
L 451.737801 449.869111 
L 452.792788 448.790029 
L 453.847775 448.758291 
L 458.067721 447.266619 
L 459.122708 447.076192 
L 461.232681 446.251012 
L 462.287667 446.076455 
L 463.342654 446.060586 
L 464.397641 444.838684 
L 465.452627 444.664127 
L 466.507614 444.092848 
L 469.672574 443.64852 
L 471.782547 443.600914 
L 472.837533 443.394619 
L 473.89252 443.37875 
L 476.002493 442.870946 
L 477.05748 442.855078 
L 478.112467 441.728389 
L 479.167453 441.474487 
L 480.22244 440.903209 
L 481.277426 440.871471 
L 482.332413 440.204979 
L 483.3874 439.887602 
L 484.442386 439.855864 
L 486.552359 439.36393 
L 487.607346 438.856127 
L 488.662333 438.80852 
L 489.717319 437.491405 
L 491.827292 437.364454 
L 493.937266 437.316848 
L 494.992252 436.04734 
L 496.047239 435.967995 
L 497.102225 435.555405 
L 499.212199 435.507799 
L 500.267185 434.952389 
L 501.322172 433.698749 
L 502.377159 433.476585 
L 503.432145 433.381372 
L 504.487132 432.635536 
L 505.542118 432.556192 
L 506.597105 432.207077 
L 513.982011 429.12852 
L 521.366917 427.19252 
L 528.751824 424.209175 
L 536.13673 421.765372 
L 543.521636 418.686815 
L 558.291449 412.148847 
L 565.676355 407.895995 
L 573.061261 406.039339 
L 587.831074 400.834355 
L 595.21598 397.517765 
L 602.600886 394.67724 
L 609.985793 392.312781 
L 617.370699 389.726158 
L 624.755605 386.726945 
L 632.140511 384.425961 
L 646.910324 379.697043 
L 654.29523 377.983207 
L 661.680136 375.047469 
L 669.065043 372.841698 
L 676.449949 369.318813 
L 683.834855 367.335207 
L 691.219761 363.844059 
L 705.989574 359.638813 
L 716.53944 357.036321 
L 720.759386 356.338091 
L 728.144293 353.973632 
L 735.529199 352.164583 
L 750.299011 348.879731 
L 757.683918 345.912255 
L 772.45373 341.754616 
L 779.838636 340.247075 
L 779.838636 340.247075 
" style="fill:none;stroke:#ff7f0e;stroke-linecap:square;stroke-width:5;"/>
   </g>
   <g id="line2d_66">
    <path clip-path="url(#p7806d7d3b6)" d="M 171.111364 591.435147 
L 178.49627 590.848 
L 185.881176 589.975213 
L 193.266082 588.927869 
L 200.650989 587.705967 
L 208.035895 586.325377 
L 215.420801 585.230426 
L 227.025654 583.119869 
L 234.41056 581.390164 
L 243.90544 579.755672 
L 246.015413 579.041573 
L 254.455306 577.660983 
L 255.510292 577.613377 
L 256.565279 577.311868 
L 258.675252 576.851672 
L 259.730239 576.629508 
L 260.785225 576.232786 
L 262.895199 575.978885 
L 269.225118 574.201573 
L 271.335091 573.947672 
L 273.445065 573.376393 
L 275.555038 572.932065 
L 277.665011 572.789245 
L 278.719998 572.503606 
L 279.774984 571.995803 
L 281.884957 571.424524 
L 286.104904 570.932589 
L 290.32485 570.09154 
L 292.434824 569.996327 
L 295.599783 569.234622 
L 299.81973 568.742688 
L 300.874716 568.44118 
L 304.039676 567.838163 
L 305.094663 567.536655 
L 307.204636 567.362098 
L 308.259623 567.060589 
L 310.369596 566.647999 
L 312.479569 566.156065 
L 314.589542 566.029114 
L 316.699516 565.584786 
L 318.809489 565.124589 
L 319.864475 564.965901 
L 321.974449 564.965901 
L 324.084422 564.394622 
L 334.634288 562.537966 
L 336.744261 562.331671 
L 338.854234 561.998425 
L 342.019194 561.331933 
L 347.294127 560.570229 
L 353.624047 559.665704 
L 355.73402 559.221376 
L 362.06394 558.253376 
L 364.173913 557.888392 
L 366.283886 557.77731 
L 368.393859 557.380589 
L 370.503833 557.079081 
L 371.558819 556.888655 
L 373.668792 556.825179 
L 378.943725 555.904786 
L 382.108685 555.761966 
L 386.328632 554.857441 
L 388.438605 554.778097 
L 390.548578 554.397245 
L 392.658551 553.841835 
L 393.713538 553.572064 
L 395.823511 553.476851 
L 398.988471 552.921441 
L 401.098444 552.619933 
L 403.208417 552.52472 
L 408.48335 551.55672 
L 410.593324 551.398032 
L 412.703297 550.890228 
L 413.758283 550.779146 
L 415.868257 550.223736 
L 417.97823 550.096786 
L 419.033216 549.811146 
L 421.14319 549.509638 
L 422.198176 549.239868 
L 424.30815 549.017704 
L 425.363136 549.001835 
L 428.528096 548.271868 
L 429.583083 548.24013 
L 441.187935 547.034097 
L 444.352895 546.208917 
L 445.407882 545.986753 
L 447.517855 545.780458 
L 449.627828 545.431343 
L 452.792788 544.844195 
L 453.847775 544.796589 
L 459.122708 544.066621 
L 460.177694 543.701638 
L 461.232681 543.701638 
L 462.287667 543.542949 
L 465.452627 542.781244 
L 466.507614 542.574949 
L 469.672574 542.336917 
L 472.837533 541.702162 
L 477.05748 541.448261 
L 479.167453 540.861113 
L 482.332413 540.289834 
L 484.442386 540.258097 
L 485.497373 539.924851 
L 487.607346 539.591605 
L 489.717319 539.226621 
L 491.827292 539.163146 
L 492.882279 538.940982 
L 493.937266 538.528392 
L 498.157212 538.00472 
L 500.267185 537.734949 
L 503.432145 536.862162 
L 506.597105 536.528916 
L 513.982011 535.068982 
L 521.366917 534.085113 
L 528.751824 532.688654 
L 536.13673 531.482621 
L 565.676355 525.579408 
L 573.061261 524.43685 
L 581.501154 522.834096 
L 587.831074 522.167604 
L 595.21598 521.104391 
L 602.600886 519.501637 
L 609.985793 518.07344 
L 617.370699 516.883276 
L 624.755605 515.328129 
L 646.910324 511.392653 
L 654.29523 510.170752 
L 669.065043 508.091932 
L 676.449949 506.854161 
L 683.834855 505.790948 
L 691.219761 504.553178 
L 698.604668 503.505833 
L 705.989574 502.236325 
L 716.53944 500.300325 
L 720.759386 499.760784 
L 728.144293 498.618227 
L 735.529199 497.253505 
L 757.683918 493.762358 
L 772.45373 491.540718 
L 779.838636 491.302686 
L 779.838636 491.302686 
" style="fill:none;stroke:#2ca02c;stroke-linecap:square;stroke-width:5;"/>
   </g>
   <g id="patch_6">
    <path d="M 140.675 594.72 
L 140.675 327.665455 
" style="fill:none;stroke:#000000;stroke-linecap:square;stroke-linejoin:miter;stroke-width:0.8;"/>
   </g>
   <g id="patch_7">
    <path d="M 140.675 594.72 
L 810.275 594.72 
" style="fill:none;stroke:#000000;stroke-linecap:square;stroke-linejoin:miter;stroke-width:0.8;"/>
   </g>
   <g id="legend_1">
    <g id="patch_8">
     <path d="M 157.475 452.547955 
L 339.41 452.547955 
Q 344.21 452.547955 344.21 447.747955 
L 344.21 344.465455 
Q 344.21 339.665455 339.41 339.665455 
L 157.475 339.665455 
Q 152.675 339.665455 152.675 344.465455 
L 152.675 447.747955 
Q 152.675 452.547955 157.475 452.547955 
z
" style="fill:#ffffff;opacity:0.8;stroke:#cccccc;stroke-linejoin:miter;"/>
    </g>
    <g id="line2d_67">
     <path d="M 162.275 359.101705 
L 210.275 359.101705 
" style="fill:none;stroke:#1f77b4;stroke-linecap:square;stroke-width:5;"/>
    </g>
    <g id="line2d_68"/>
    <g id="text_23">
     <!-- arXiv -->
     <defs>
      <path d="M 6.296875 72.90625 
L 16.890625 72.90625 
L 35.015625 45.796875 
L 53.21875 72.90625 
L 63.8125 72.90625 
L 40.375 37.890625 
L 65.375 0 
L 54.78125 0 
L 34.28125 31 
L 13.625 0 
L 2.984375 0 
L 29 38.921875 
z
" id="DejaVuSans-88"/>
      <path d="M 2.984375 54.6875 
L 12.5 54.6875 
L 29.59375 8.796875 
L 46.6875 54.6875 
L 56.203125 54.6875 
L 35.6875 0 
L 23.484375 0 
z
" id="DejaVuSans-118"/>
     </defs>
     <g transform="translate(229.475 367.501705)scale(0.24 -0.24)">
      <use xlink:href="#DejaVuSans-97"/>
      <use x="61.279297" xlink:href="#DejaVuSans-114"/>
      <use x="102.392578" xlink:href="#DejaVuSans-88"/>
      <use x="170.898438" xlink:href="#DejaVuSans-105"/>
      <use x="198.681641" xlink:href="#DejaVuSans-118"/>
     </g>
    </g>
    <g id="line2d_69">
     <path d="M 162.275 394.329205 
L 210.275 394.329205 
" style="fill:none;stroke:#ff7f0e;stroke-linecap:square;stroke-width:5;"/>
    </g>
    <g id="line2d_70"/>
    <g id="text_24">
     <!-- medRxiv -->
     <defs>
      <path d="M 45.40625 46.390625 
L 45.40625 75.984375 
L 54.390625 75.984375 
L 54.390625 0 
L 45.40625 0 
L 45.40625 8.203125 
Q 42.578125 3.328125 38.25 0.953125 
Q 33.9375 -1.421875 27.875 -1.421875 
Q 17.96875 -1.421875 11.734375 6.484375 
Q 5.515625 14.40625 5.515625 27.296875 
Q 5.515625 40.1875 11.734375 48.09375 
Q 17.96875 56 27.875 56 
Q 33.9375 56 38.25 53.625 
Q 42.578125 51.265625 45.40625 46.390625 
z
M 14.796875 27.296875 
Q 14.796875 17.390625 18.875 11.75 
Q 22.953125 6.109375 30.078125 6.109375 
Q 37.203125 6.109375 41.296875 11.75 
Q 45.40625 17.390625 45.40625 27.296875 
Q 45.40625 37.203125 41.296875 42.84375 
Q 37.203125 48.484375 30.078125 48.484375 
Q 22.953125 48.484375 18.875 42.84375 
Q 14.796875 37.203125 14.796875 27.296875 
z
" id="DejaVuSans-100"/>
      <path d="M 44.390625 34.1875 
Q 47.5625 33.109375 50.5625 29.59375 
Q 53.5625 26.078125 56.59375 19.921875 
L 66.609375 0 
L 56 0 
L 46.6875 18.703125 
Q 43.0625 26.03125 39.671875 28.421875 
Q 36.28125 30.8125 30.421875 30.8125 
L 19.671875 30.8125 
L 19.671875 0 
L 9.8125 0 
L 9.8125 72.90625 
L 32.078125 72.90625 
Q 44.578125 72.90625 50.734375 67.671875 
Q 56.890625 62.453125 56.890625 51.90625 
Q 56.890625 45.015625 53.6875 40.46875 
Q 50.484375 35.9375 44.390625 34.1875 
z
M 19.671875 64.796875 
L 19.671875 38.921875 
L 32.078125 38.921875 
Q 39.203125 38.921875 42.84375 42.21875 
Q 46.484375 45.515625 46.484375 51.90625 
Q 46.484375 58.296875 42.84375 61.546875 
Q 39.203125 64.796875 32.078125 64.796875 
z
" id="DejaVuSans-82"/>
      <path d="M 54.890625 54.6875 
L 35.109375 28.078125 
L 55.90625 0 
L 45.3125 0 
L 29.390625 21.484375 
L 13.484375 0 
L 2.875 0 
L 24.125 28.609375 
L 4.6875 54.6875 
L 15.28125 54.6875 
L 29.78125 35.203125 
L 44.28125 54.6875 
z
" id="DejaVuSans-120"/>
     </defs>
     <g transform="translate(229.475 402.729205)scale(0.24 -0.24)">
      <use xlink:href="#DejaVuSans-109"/>
      <use x="97.412109" xlink:href="#DejaVuSans-101"/>
      <use x="158.935547" xlink:href="#DejaVuSans-100"/>
      <use x="222.412109" xlink:href="#DejaVuSans-82"/>
      <use x="291.894531" xlink:href="#DejaVuSans-120"/>
      <use x="351.074219" xlink:href="#DejaVuSans-105"/>
      <use x="378.857422" xlink:href="#DejaVuSans-118"/>
     </g>
    </g>
    <g id="line2d_71">
     <path d="M 162.275 429.556705 
L 210.275 429.556705 
" style="fill:none;stroke:#2ca02c;stroke-linecap:square;stroke-width:5;"/>
    </g>
    <g id="line2d_72"/>
    <g id="text_25">
     <!-- bioRxiv -->
     <defs>
      <path d="M 48.6875 27.296875 
Q 48.6875 37.203125 44.609375 42.84375 
Q 40.53125 48.484375 33.40625 48.484375 
Q 26.265625 48.484375 22.1875 42.84375 
Q 18.109375 37.203125 18.109375 27.296875 
Q 18.109375 17.390625 22.1875 11.75 
Q 26.265625 6.109375 33.40625 6.109375 
Q 40.53125 6.109375 44.609375 11.75 
Q 48.6875 17.390625 48.6875 27.296875 
z
M 18.109375 46.390625 
Q 20.953125 51.265625 25.265625 53.625 
Q 29.59375 56 35.59375 56 
Q 45.5625 56 51.78125 48.09375 
Q 58.015625 40.1875 58.015625 27.296875 
Q 58.015625 14.40625 51.78125 6.484375 
Q 45.5625 -1.421875 35.59375 -1.421875 
Q 29.59375 -1.421875 25.265625 0.953125 
Q 20.953125 3.328125 18.109375 8.203125 
L 18.109375 0 
L 9.078125 0 
L 9.078125 75.984375 
L 18.109375 75.984375 
z
" id="DejaVuSans-98"/>
     </defs>
     <g transform="translate(229.475 437.956705)scale(0.24 -0.24)">
      <use xlink:href="#DejaVuSans-98"/>
      <use x="63.476562" xlink:href="#DejaVuSans-105"/>
      <use x="91.259766" xlink:href="#DejaVuSans-111"/>
      <use x="152.441406" xlink:href="#DejaVuSans-82"/>
      <use x="221.923828" xlink:href="#DejaVuSans-120"/>
      <use x="281.103516" xlink:href="#DejaVuSans-105"/>
      <use x="308.886719" xlink:href="#DejaVuSans-118"/>
     </g>
    </g>
   </g>
  </g>
 </g>
 <defs>
  <clipPath id="p1823093ee3">
   <rect height="267.054545" width="669.6" x="140.675" y="7.2"/>
  </clipPath>
  <clipPath id="p7806d7d3b6">
   <rect height="267.054545" width="669.6" x="140.675" y="327.665455"/>
  </clipPath>
 </defs>
</svg>
