<?xml version="1.0" encoding="utf-8" standalone="no"?>
<!DOCTYPE svg PUBLIC "-//W3C//DTD SVG 1.1//EN"
  "http://www.w3.org/Graphics/SVG/1.1/DTD/svg11.dtd">
<!-- Created with matplotlib (https://matplotlib.org/) -->
<svg height="649.902072pt" version="1.1" viewBox="0 0 1212.84375 649.902072" width="1212.84375pt" xmlns="http://www.w3.org/2000/svg" xmlns:xlink="http://www.w3.org/1999/xlink">
 <defs>
  <style type="text/css">
*{stroke-linecap:butt;stroke-linejoin:round;}
  </style>
 </defs>
 <g id="figure_1">
  <g id="patch_1">
   <path d="M 0 649.902072 
L 1212.84375 649.902072 
L 1212.84375 0 
L 0 0 
z
" style="fill:#ffffff;"/>
  </g>
  <g id="axes_1">
   <g id="patch_2">
    <path d="M 89.64375 594.72 
L 596.916477 594.72 
L 596.916477 7.2 
L 89.64375 7.2 
z
" style="fill:#ffffff;"/>
   </g>
   <g id="matplotlib.axis_1">
    <g id="xtick_1">
     <g id="line2d_1">
      <path clip-path="url(#p7d153d4c4d)" d="M 92.324895 594.72 
L 92.324895 7.2 
" style="fill:none;stroke:#d3d3d3;stroke-linecap:square;stroke-width:0.8;"/>
     </g>
     <g id="line2d_2">
      <defs>
       <path d="M 0 0 
L 0 3.5 
" id="m47d5540451" style="stroke:#000000;stroke-width:0.8;"/>
      </defs>
      <g>
       <use style="stroke:#000000;stroke-width:0.8;" x="92.324895" xlink:href="#m47d5540451" y="594.72"/>
      </g>
     </g>
     <g id="text_1">
      <!-- 2020-03 -->
      <defs>
       <path d="M 19.1875 8.296875 
L 53.609375 8.296875 
L 53.609375 0 
L 7.328125 0 
L 7.328125 8.296875 
Q 12.9375 14.109375 22.625 23.890625 
Q 32.328125 33.6875 34.8125 36.53125 
Q 39.546875 41.84375 41.421875 45.53125 
Q 43.3125 49.21875 43.3125 52.78125 
Q 43.3125 58.59375 39.234375 62.25 
Q 35.15625 65.921875 28.609375 65.921875 
Q 23.96875 65.921875 18.8125 64.3125 
Q 13.671875 62.703125 7.8125 59.421875 
L 7.8125 69.390625 
Q 13.765625 71.78125 18.9375 73 
Q 24.125 74.21875 28.421875 74.21875 
Q 39.75 74.21875 46.484375 68.546875 
Q 53.21875 62.890625 53.21875 53.421875 
Q 53.21875 48.921875 51.53125 44.890625 
Q 49.859375 40.875 45.40625 35.40625 
Q 44.1875 33.984375 37.640625 27.21875 
Q 31.109375 20.453125 19.1875 8.296875 
z
" id="DejaVuSans-50"/>
       <path d="M 31.78125 66.40625 
Q 24.171875 66.40625 20.328125 58.90625 
Q 16.5 51.421875 16.5 36.375 
Q 16.5 21.390625 20.328125 13.890625 
Q 24.171875 6.390625 31.78125 6.390625 
Q 39.453125 6.390625 43.28125 13.890625 
Q 47.125 21.390625 47.125 36.375 
Q 47.125 51.421875 43.28125 58.90625 
Q 39.453125 66.40625 31.78125 66.40625 
z
M 31.78125 74.21875 
Q 44.046875 74.21875 50.515625 64.515625 
Q 56.984375 54.828125 56.984375 36.375 
Q 56.984375 17.96875 50.515625 8.265625 
Q 44.046875 -1.421875 31.78125 -1.421875 
Q 19.53125 -1.421875 13.0625 8.265625 
Q 6.59375 17.96875 6.59375 36.375 
Q 6.59375 54.828125 13.0625 64.515625 
Q 19.53125 74.21875 31.78125 74.21875 
z
" id="DejaVuSans-48"/>
       <path d="M 4.890625 31.390625 
L 31.203125 31.390625 
L 31.203125 23.390625 
L 4.890625 23.390625 
z
" id="DejaVuSans-45"/>
       <path d="M 40.578125 39.3125 
Q 47.65625 37.796875 51.625 33 
Q 55.609375 28.21875 55.609375 21.1875 
Q 55.609375 10.40625 48.1875 4.484375 
Q 40.765625 -1.421875 27.09375 -1.421875 
Q 22.515625 -1.421875 17.65625 -0.515625 
Q 12.796875 0.390625 7.625 2.203125 
L 7.625 11.71875 
Q 11.71875 9.328125 16.59375 8.109375 
Q 21.484375 6.890625 26.8125 6.890625 
Q 36.078125 6.890625 40.9375 10.546875 
Q 45.796875 14.203125 45.796875 21.1875 
Q 45.796875 27.640625 41.28125 31.265625 
Q 36.765625 34.90625 28.71875 34.90625 
L 20.21875 34.90625 
L 20.21875 43.015625 
L 29.109375 43.015625 
Q 36.375 43.015625 40.234375 45.921875 
Q 44.09375 48.828125 44.09375 54.296875 
Q 44.09375 59.90625 40.109375 62.90625 
Q 36.140625 65.921875 28.71875 65.921875 
Q 24.65625 65.921875 20.015625 65.03125 
Q 15.375 64.15625 9.8125 62.3125 
L 9.8125 71.09375 
Q 15.4375 72.65625 20.34375 73.4375 
Q 25.25 74.21875 29.59375 74.21875 
Q 40.828125 74.21875 47.359375 69.109375 
Q 53.90625 64.015625 53.90625 55.328125 
Q 53.90625 49.265625 50.4375 45.09375 
Q 46.96875 40.921875 40.578125 39.3125 
z
" id="DejaVuSans-51"/>
      </defs>
      <g transform="translate(40.210146 640.180585)rotate(-30)scale(0.14 -0.14)">
       <use xlink:href="#DejaVuSans-50"/>
       <use x="63.623047" xlink:href="#DejaVuSans-48"/>
       <use x="127.246094" xlink:href="#DejaVuSans-50"/>
       <use x="190.869141" xlink:href="#DejaVuSans-48"/>
       <use x="254.492188" xlink:href="#DejaVuSans-45"/>
       <use x="290.576172" xlink:href="#DejaVuSans-48"/>
       <use x="354.199219" xlink:href="#DejaVuSans-51"/>
      </g>
     </g>
    </g>
    <g id="xtick_2">
     <g id="line2d_3">
      <path clip-path="url(#p7d153d4c4d)" d="M 157.744846 594.72 
L 157.744846 7.2 
" style="fill:none;stroke:#d3d3d3;stroke-linecap:square;stroke-width:0.8;"/>
     </g>
     <g id="line2d_4">
      <g>
       <use style="stroke:#000000;stroke-width:0.8;" x="157.744846" xlink:href="#m47d5540451" y="594.72"/>
      </g>
     </g>
     <g id="text_2">
      <!-- 2020-05 -->
      <defs>
       <path d="M 10.796875 72.90625 
L 49.515625 72.90625 
L 49.515625 64.59375 
L 19.828125 64.59375 
L 19.828125 46.734375 
Q 21.96875 47.46875 24.109375 47.828125 
Q 26.265625 48.1875 28.421875 48.1875 
Q 40.625 48.1875 47.75 41.5 
Q 54.890625 34.8125 54.890625 23.390625 
Q 54.890625 11.625 47.5625 5.09375 
Q 40.234375 -1.421875 26.90625 -1.421875 
Q 22.3125 -1.421875 17.546875 -0.640625 
Q 12.796875 0.140625 7.71875 1.703125 
L 7.71875 11.625 
Q 12.109375 9.234375 16.796875 8.0625 
Q 21.484375 6.890625 26.703125 6.890625 
Q 35.15625 6.890625 40.078125 11.328125 
Q 45.015625 15.765625 45.015625 23.390625 
Q 45.015625 31 40.078125 35.4375 
Q 35.15625 39.890625 26.703125 39.890625 
Q 22.75 39.890625 18.8125 39.015625 
Q 14.890625 38.140625 10.796875 36.28125 
z
" id="DejaVuSans-53"/>
      </defs>
      <g transform="translate(105.630096 640.180585)rotate(-30)scale(0.14 -0.14)">
       <use xlink:href="#DejaVuSans-50"/>
       <use x="63.623047" xlink:href="#DejaVuSans-48"/>
       <use x="127.246094" xlink:href="#DejaVuSans-50"/>
       <use x="190.869141" xlink:href="#DejaVuSans-48"/>
       <use x="254.492188" xlink:href="#DejaVuSans-45"/>
       <use x="290.576172" xlink:href="#DejaVuSans-48"/>
       <use x="354.199219" xlink:href="#DejaVuSans-53"/>
      </g>
     </g>
    </g>
    <g id="xtick_3">
     <g id="line2d_5">
      <path clip-path="url(#p7d153d4c4d)" d="M 223.164796 594.72 
L 223.164796 7.2 
" style="fill:none;stroke:#d3d3d3;stroke-linecap:square;stroke-width:0.8;"/>
     </g>
     <g id="line2d_6">
      <g>
       <use style="stroke:#000000;stroke-width:0.8;" x="223.164796" xlink:href="#m47d5540451" y="594.72"/>
      </g>
     </g>
     <g id="text_3">
      <!-- 2020-07 -->
      <defs>
       <path d="M 8.203125 72.90625 
L 55.078125 72.90625 
L 55.078125 68.703125 
L 28.609375 0 
L 18.3125 0 
L 43.21875 64.59375 
L 8.203125 64.59375 
z
" id="DejaVuSans-55"/>
      </defs>
      <g transform="translate(171.050046 640.180585)rotate(-30)scale(0.14 -0.14)">
       <use xlink:href="#DejaVuSans-50"/>
       <use x="63.623047" xlink:href="#DejaVuSans-48"/>
       <use x="127.246094" xlink:href="#DejaVuSans-50"/>
       <use x="190.869141" xlink:href="#DejaVuSans-48"/>
       <use x="254.492188" xlink:href="#DejaVuSans-45"/>
       <use x="290.576172" xlink:href="#DejaVuSans-48"/>
       <use x="354.199219" xlink:href="#DejaVuSans-55"/>
      </g>
     </g>
    </g>
    <g id="xtick_4">
     <g id="line2d_7">
      <path clip-path="url(#p7d153d4c4d)" d="M 289.657204 594.72 
L 289.657204 7.2 
" style="fill:none;stroke:#d3d3d3;stroke-linecap:square;stroke-width:0.8;"/>
     </g>
     <g id="line2d_8">
      <g>
       <use style="stroke:#000000;stroke-width:0.8;" x="289.657204" xlink:href="#m47d5540451" y="594.72"/>
      </g>
     </g>
     <g id="text_4">
      <!-- 2020-09 -->
      <defs>
       <path d="M 10.984375 1.515625 
L 10.984375 10.5 
Q 14.703125 8.734375 18.5 7.8125 
Q 22.3125 6.890625 25.984375 6.890625 
Q 35.75 6.890625 40.890625 13.453125 
Q 46.046875 20.015625 46.78125 33.40625 
Q 43.953125 29.203125 39.59375 26.953125 
Q 35.25 24.703125 29.984375 24.703125 
Q 19.046875 24.703125 12.671875 31.3125 
Q 6.296875 37.9375 6.296875 49.421875 
Q 6.296875 60.640625 12.9375 67.421875 
Q 19.578125 74.21875 30.609375 74.21875 
Q 43.265625 74.21875 49.921875 64.515625 
Q 56.59375 54.828125 56.59375 36.375 
Q 56.59375 19.140625 48.40625 8.859375 
Q 40.234375 -1.421875 26.421875 -1.421875 
Q 22.703125 -1.421875 18.890625 -0.6875 
Q 15.09375 0.046875 10.984375 1.515625 
z
M 30.609375 32.421875 
Q 37.25 32.421875 41.125 36.953125 
Q 45.015625 41.5 45.015625 49.421875 
Q 45.015625 57.28125 41.125 61.84375 
Q 37.25 66.40625 30.609375 66.40625 
Q 23.96875 66.40625 20.09375 61.84375 
Q 16.21875 57.28125 16.21875 49.421875 
Q 16.21875 41.5 20.09375 36.953125 
Q 23.96875 32.421875 30.609375 32.421875 
z
" id="DejaVuSans-57"/>
      </defs>
      <g transform="translate(237.542455 640.180585)rotate(-30)scale(0.14 -0.14)">
       <use xlink:href="#DejaVuSans-50"/>
       <use x="63.623047" xlink:href="#DejaVuSans-48"/>
       <use x="127.246094" xlink:href="#DejaVuSans-50"/>
       <use x="190.869141" xlink:href="#DejaVuSans-48"/>
       <use x="254.492188" xlink:href="#DejaVuSans-45"/>
       <use x="290.576172" xlink:href="#DejaVuSans-48"/>
       <use x="354.199219" xlink:href="#DejaVuSans-57"/>
      </g>
     </g>
    </g>
    <g id="xtick_5">
     <g id="line2d_9">
      <path clip-path="url(#p7d153d4c4d)" d="M 355.077154 594.72 
L 355.077154 7.2 
" style="fill:none;stroke:#d3d3d3;stroke-linecap:square;stroke-width:0.8;"/>
     </g>
     <g id="line2d_10">
      <g>
       <use style="stroke:#000000;stroke-width:0.8;" x="355.077154" xlink:href="#m47d5540451" y="594.72"/>
      </g>
     </g>
     <g id="text_5">
      <!-- 2020-11 -->
      <defs>
       <path d="M 12.40625 8.296875 
L 28.515625 8.296875 
L 28.515625 63.921875 
L 10.984375 60.40625 
L 10.984375 69.390625 
L 28.421875 72.90625 
L 38.28125 72.90625 
L 38.28125 8.296875 
L 54.390625 8.296875 
L 54.390625 0 
L 12.40625 0 
z
" id="DejaVuSans-49"/>
      </defs>
      <g transform="translate(302.962405 640.180585)rotate(-30)scale(0.14 -0.14)">
       <use xlink:href="#DejaVuSans-50"/>
       <use x="63.623047" xlink:href="#DejaVuSans-48"/>
       <use x="127.246094" xlink:href="#DejaVuSans-50"/>
       <use x="190.869141" xlink:href="#DejaVuSans-48"/>
       <use x="254.492188" xlink:href="#DejaVuSans-45"/>
       <use x="290.576172" xlink:href="#DejaVuSans-49"/>
       <use x="354.199219" xlink:href="#DejaVuSans-49"/>
      </g>
     </g>
    </g>
    <g id="xtick_6">
     <g id="line2d_11">
      <path clip-path="url(#p7d153d4c4d)" d="M 420.497104 594.72 
L 420.497104 7.2 
" style="fill:none;stroke:#d3d3d3;stroke-linecap:square;stroke-width:0.8;"/>
     </g>
     <g id="line2d_12">
      <g>
       <use style="stroke:#000000;stroke-width:0.8;" x="420.497104" xlink:href="#m47d5540451" y="594.72"/>
      </g>
     </g>
     <g id="text_6">
      <!-- 2021-01 -->
      <g transform="translate(368.382355 640.180585)rotate(-30)scale(0.14 -0.14)">
       <use xlink:href="#DejaVuSans-50"/>
       <use x="63.623047" xlink:href="#DejaVuSans-48"/>
       <use x="127.246094" xlink:href="#DejaVuSans-50"/>
       <use x="190.869141" xlink:href="#DejaVuSans-49"/>
       <use x="254.492188" xlink:href="#DejaVuSans-45"/>
       <use x="290.576172" xlink:href="#DejaVuSans-48"/>
       <use x="354.199219" xlink:href="#DejaVuSans-49"/>
      </g>
     </g>
    </g>
    <g id="xtick_7">
     <g id="line2d_13">
      <path clip-path="url(#p7d153d4c4d)" d="M 483.772137 594.72 
L 483.772137 7.2 
" style="fill:none;stroke:#d3d3d3;stroke-linecap:square;stroke-width:0.8;"/>
     </g>
     <g id="line2d_14">
      <g>
       <use style="stroke:#000000;stroke-width:0.8;" x="483.772137" xlink:href="#m47d5540451" y="594.72"/>
      </g>
     </g>
     <g id="text_7">
      <!-- 2021-03 -->
      <g transform="translate(431.657388 640.180585)rotate(-30)scale(0.14 -0.14)">
       <use xlink:href="#DejaVuSans-50"/>
       <use x="63.623047" xlink:href="#DejaVuSans-48"/>
       <use x="127.246094" xlink:href="#DejaVuSans-50"/>
       <use x="190.869141" xlink:href="#DejaVuSans-49"/>
       <use x="254.492188" xlink:href="#DejaVuSans-45"/>
       <use x="290.576172" xlink:href="#DejaVuSans-48"/>
       <use x="354.199219" xlink:href="#DejaVuSans-51"/>
      </g>
     </g>
    </g>
    <g id="xtick_8">
     <g id="line2d_15">
      <path clip-path="url(#p7d153d4c4d)" d="M 549.192087 594.72 
L 549.192087 7.2 
" style="fill:none;stroke:#d3d3d3;stroke-linecap:square;stroke-width:0.8;"/>
     </g>
     <g id="line2d_16">
      <g>
       <use style="stroke:#000000;stroke-width:0.8;" x="549.192087" xlink:href="#m47d5540451" y="594.72"/>
      </g>
     </g>
     <g id="text_8">
      <!-- 2021-05 -->
      <g transform="translate(497.077338 640.180585)rotate(-30)scale(0.14 -0.14)">
       <use xlink:href="#DejaVuSans-50"/>
       <use x="63.623047" xlink:href="#DejaVuSans-48"/>
       <use x="127.246094" xlink:href="#DejaVuSans-50"/>
       <use x="190.869141" xlink:href="#DejaVuSans-49"/>
       <use x="254.492188" xlink:href="#DejaVuSans-45"/>
       <use x="290.576172" xlink:href="#DejaVuSans-48"/>
       <use x="354.199219" xlink:href="#DejaVuSans-53"/>
      </g>
     </g>
    </g>
   </g>
   <g id="matplotlib.axis_2">
    <g id="ytick_1">
     <g id="line2d_17">
      <path clip-path="url(#p7d153d4c4d)" d="M 89.64375 594.72 
L 596.916477 594.72 
" style="fill:none;stroke:#d3d3d3;stroke-linecap:square;stroke-width:0.8;"/>
     </g>
     <g id="line2d_18">
      <defs>
       <path d="M 0 0 
L -3.5 0 
" id="m7014082e30" style="stroke:#000000;stroke-width:0.8;"/>
      </defs>
      <g>
       <use style="stroke:#000000;stroke-width:0.8;" x="89.64375" xlink:href="#m7014082e30" y="594.72"/>
      </g>
     </g>
     <g id="text_9">
      <!-- 0 -->
      <g transform="translate(73.73625 600.038906)scale(0.14 -0.14)">
       <use xlink:href="#DejaVuSans-48"/>
      </g>
     </g>
    </g>
    <g id="ytick_2">
     <g id="line2d_19">
      <path clip-path="url(#p7d153d4c4d)" d="M 89.64375 499.211285 
L 596.916477 499.211285 
" style="fill:none;stroke:#d3d3d3;stroke-linecap:square;stroke-width:0.8;"/>
     </g>
     <g id="line2d_20">
      <g>
       <use style="stroke:#000000;stroke-width:0.8;" x="89.64375" xlink:href="#m7014082e30" y="499.211285"/>
      </g>
     </g>
     <g id="text_10">
      <!-- 100,000 -->
      <defs>
       <path d="M 11.71875 12.40625 
L 22.015625 12.40625 
L 22.015625 4 
L 14.015625 -11.625 
L 7.71875 -11.625 
L 11.71875 4 
z
" id="DejaVuSans-44"/>
      </defs>
      <g transform="translate(24.749375 504.530191)scale(0.14 -0.14)">
       <use xlink:href="#DejaVuSans-49"/>
       <use x="63.623047" xlink:href="#DejaVuSans-48"/>
       <use x="127.246094" xlink:href="#DejaVuSans-48"/>
       <use x="190.869141" xlink:href="#DejaVuSans-44"/>
       <use x="222.65625" xlink:href="#DejaVuSans-48"/>
       <use x="286.279297" xlink:href="#DejaVuSans-48"/>
       <use x="349.902344" xlink:href="#DejaVuSans-48"/>
      </g>
     </g>
    </g>
    <g id="ytick_3">
     <g id="line2d_21">
      <path clip-path="url(#p7d153d4c4d)" d="M 89.64375 403.702569 
L 596.916477 403.702569 
" style="fill:none;stroke:#d3d3d3;stroke-linecap:square;stroke-width:0.8;"/>
     </g>
     <g id="line2d_22">
      <g>
       <use style="stroke:#000000;stroke-width:0.8;" x="89.64375" xlink:href="#m7014082e30" y="403.702569"/>
      </g>
     </g>
     <g id="text_11">
      <!-- 200,000 -->
      <g transform="translate(24.749375 409.021476)scale(0.14 -0.14)">
       <use xlink:href="#DejaVuSans-50"/>
       <use x="63.623047" xlink:href="#DejaVuSans-48"/>
       <use x="127.246094" xlink:href="#DejaVuSans-48"/>
       <use x="190.869141" xlink:href="#DejaVuSans-44"/>
       <use x="222.65625" xlink:href="#DejaVuSans-48"/>
       <use x="286.279297" xlink:href="#DejaVuSans-48"/>
       <use x="349.902344" xlink:href="#DejaVuSans-48"/>
      </g>
     </g>
    </g>
    <g id="ytick_4">
     <g id="line2d_23">
      <path clip-path="url(#p7d153d4c4d)" d="M 89.64375 308.193854 
L 596.916477 308.193854 
" style="fill:none;stroke:#d3d3d3;stroke-linecap:square;stroke-width:0.8;"/>
     </g>
     <g id="line2d_24">
      <g>
       <use style="stroke:#000000;stroke-width:0.8;" x="89.64375" xlink:href="#m7014082e30" y="308.193854"/>
      </g>
     </g>
     <g id="text_12">
      <!-- 300,000 -->
      <g transform="translate(24.749375 313.51276)scale(0.14 -0.14)">
       <use xlink:href="#DejaVuSans-51"/>
       <use x="63.623047" xlink:href="#DejaVuSans-48"/>
       <use x="127.246094" xlink:href="#DejaVuSans-48"/>
       <use x="190.869141" xlink:href="#DejaVuSans-44"/>
       <use x="222.65625" xlink:href="#DejaVuSans-48"/>
       <use x="286.279297" xlink:href="#DejaVuSans-48"/>
       <use x="349.902344" xlink:href="#DejaVuSans-48"/>
      </g>
     </g>
    </g>
    <g id="ytick_5">
     <g id="line2d_25">
      <path clip-path="url(#p7d153d4c4d)" d="M 89.64375 212.685139 
L 596.916477 212.685139 
" style="fill:none;stroke:#d3d3d3;stroke-linecap:square;stroke-width:0.8;"/>
     </g>
     <g id="line2d_26">
      <g>
       <use style="stroke:#000000;stroke-width:0.8;" x="89.64375" xlink:href="#m7014082e30" y="212.685139"/>
      </g>
     </g>
     <g id="text_13">
      <!-- 400,000 -->
      <defs>
       <path d="M 37.796875 64.3125 
L 12.890625 25.390625 
L 37.796875 25.390625 
z
M 35.203125 72.90625 
L 47.609375 72.90625 
L 47.609375 25.390625 
L 58.015625 25.390625 
L 58.015625 17.1875 
L 47.609375 17.1875 
L 47.609375 0 
L 37.796875 0 
L 37.796875 17.1875 
L 4.890625 17.1875 
L 4.890625 26.703125 
z
" id="DejaVuSans-52"/>
      </defs>
      <g transform="translate(24.749375 218.004045)scale(0.14 -0.14)">
       <use xlink:href="#DejaVuSans-52"/>
       <use x="63.623047" xlink:href="#DejaVuSans-48"/>
       <use x="127.246094" xlink:href="#DejaVuSans-48"/>
       <use x="190.869141" xlink:href="#DejaVuSans-44"/>
       <use x="222.65625" xlink:href="#DejaVuSans-48"/>
       <use x="286.279297" xlink:href="#DejaVuSans-48"/>
       <use x="349.902344" xlink:href="#DejaVuSans-48"/>
      </g>
     </g>
    </g>
    <g id="ytick_6">
     <g id="line2d_27">
      <path clip-path="url(#p7d153d4c4d)" d="M 89.64375 117.176423 
L 596.916477 117.176423 
" style="fill:none;stroke:#d3d3d3;stroke-linecap:square;stroke-width:0.8;"/>
     </g>
     <g id="line2d_28">
      <g>
       <use style="stroke:#000000;stroke-width:0.8;" x="89.64375" xlink:href="#m7014082e30" y="117.176423"/>
      </g>
     </g>
     <g id="text_14">
      <!-- 500,000 -->
      <g transform="translate(24.749375 122.49533)scale(0.14 -0.14)">
       <use xlink:href="#DejaVuSans-53"/>
       <use x="63.623047" xlink:href="#DejaVuSans-48"/>
       <use x="127.246094" xlink:href="#DejaVuSans-48"/>
       <use x="190.869141" xlink:href="#DejaVuSans-44"/>
       <use x="222.65625" xlink:href="#DejaVuSans-48"/>
       <use x="286.279297" xlink:href="#DejaVuSans-48"/>
       <use x="349.902344" xlink:href="#DejaVuSans-48"/>
      </g>
     </g>
    </g>
    <g id="ytick_7">
     <g id="line2d_29">
      <path clip-path="url(#p7d153d4c4d)" d="M 89.64375 21.667708 
L 596.916477 21.667708 
" style="fill:none;stroke:#d3d3d3;stroke-linecap:square;stroke-width:0.8;"/>
     </g>
     <g id="line2d_30">
      <g>
       <use style="stroke:#000000;stroke-width:0.8;" x="89.64375" xlink:href="#m7014082e30" y="21.667708"/>
      </g>
     </g>
     <g id="text_15">
      <!-- 600,000 -->
      <defs>
       <path d="M 33.015625 40.375 
Q 26.375 40.375 22.484375 35.828125 
Q 18.609375 31.296875 18.609375 23.390625 
Q 18.609375 15.53125 22.484375 10.953125 
Q 26.375 6.390625 33.015625 6.390625 
Q 39.65625 6.390625 43.53125 10.953125 
Q 47.40625 15.53125 47.40625 23.390625 
Q 47.40625 31.296875 43.53125 35.828125 
Q 39.65625 40.375 33.015625 40.375 
z
M 52.59375 71.296875 
L 52.59375 62.3125 
Q 48.875 64.0625 45.09375 64.984375 
Q 41.3125 65.921875 37.59375 65.921875 
Q 27.828125 65.921875 22.671875 59.328125 
Q 17.53125 52.734375 16.796875 39.40625 
Q 19.671875 43.65625 24.015625 45.921875 
Q 28.375 48.1875 33.59375 48.1875 
Q 44.578125 48.1875 50.953125 41.515625 
Q 57.328125 34.859375 57.328125 23.390625 
Q 57.328125 12.15625 50.6875 5.359375 
Q 44.046875 -1.421875 33.015625 -1.421875 
Q 20.359375 -1.421875 13.671875 8.265625 
Q 6.984375 17.96875 6.984375 36.375 
Q 6.984375 53.65625 15.1875 63.9375 
Q 23.390625 74.21875 37.203125 74.21875 
Q 40.921875 74.21875 44.703125 73.484375 
Q 48.484375 72.75 52.59375 71.296875 
z
" id="DejaVuSans-54"/>
      </defs>
      <g transform="translate(24.749375 26.986614)scale(0.14 -0.14)">
       <use xlink:href="#DejaVuSans-54"/>
       <use x="63.623047" xlink:href="#DejaVuSans-48"/>
       <use x="127.246094" xlink:href="#DejaVuSans-48"/>
       <use x="190.869141" xlink:href="#DejaVuSans-44"/>
       <use x="222.65625" xlink:href="#DejaVuSans-48"/>
       <use x="286.279297" xlink:href="#DejaVuSans-48"/>
       <use x="349.902344" xlink:href="#DejaVuSans-48"/>
      </g>
     </g>
    </g>
    <g id="text_16">
     <!-- Total manuscripts -->
     <defs>
      <path d="M -0.296875 72.90625 
L 61.375 72.90625 
L 61.375 64.59375 
L 35.5 64.59375 
L 35.5 0 
L 25.59375 0 
L 25.59375 64.59375 
L -0.296875 64.59375 
z
" id="DejaVuSans-84"/>
      <path d="M 30.609375 48.390625 
Q 23.390625 48.390625 19.1875 42.75 
Q 14.984375 37.109375 14.984375 27.296875 
Q 14.984375 17.484375 19.15625 11.84375 
Q 23.34375 6.203125 30.609375 6.203125 
Q 37.796875 6.203125 41.984375 11.859375 
Q 46.1875 17.53125 46.1875 27.296875 
Q 46.1875 37.015625 41.984375 42.703125 
Q 37.796875 48.390625 30.609375 48.390625 
z
M 30.609375 56 
Q 42.328125 56 49.015625 48.375 
Q 55.71875 40.765625 55.71875 27.296875 
Q 55.71875 13.875 49.015625 6.21875 
Q 42.328125 -1.421875 30.609375 -1.421875 
Q 18.84375 -1.421875 12.171875 6.21875 
Q 5.515625 13.875 5.515625 27.296875 
Q 5.515625 40.765625 12.171875 48.375 
Q 18.84375 56 30.609375 56 
z
" id="DejaVuSans-111"/>
      <path d="M 18.3125 70.21875 
L 18.3125 54.6875 
L 36.8125 54.6875 
L 36.8125 47.703125 
L 18.3125 47.703125 
L 18.3125 18.015625 
Q 18.3125 11.328125 20.140625 9.421875 
Q 21.96875 7.515625 27.59375 7.515625 
L 36.8125 7.515625 
L 36.8125 0 
L 27.59375 0 
Q 17.1875 0 13.234375 3.875 
Q 9.28125 7.765625 9.28125 18.015625 
L 9.28125 47.703125 
L 2.6875 47.703125 
L 2.6875 54.6875 
L 9.28125 54.6875 
L 9.28125 70.21875 
z
" id="DejaVuSans-116"/>
      <path d="M 34.28125 27.484375 
Q 23.390625 27.484375 19.1875 25 
Q 14.984375 22.515625 14.984375 16.5 
Q 14.984375 11.71875 18.140625 8.90625 
Q 21.296875 6.109375 26.703125 6.109375 
Q 34.1875 6.109375 38.703125 11.40625 
Q 43.21875 16.703125 43.21875 25.484375 
L 43.21875 27.484375 
z
M 52.203125 31.203125 
L 52.203125 0 
L 43.21875 0 
L 43.21875 8.296875 
Q 40.140625 3.328125 35.546875 0.953125 
Q 30.953125 -1.421875 24.3125 -1.421875 
Q 15.921875 -1.421875 10.953125 3.296875 
Q 6 8.015625 6 15.921875 
Q 6 25.140625 12.171875 29.828125 
Q 18.359375 34.515625 30.609375 34.515625 
L 43.21875 34.515625 
L 43.21875 35.40625 
Q 43.21875 41.609375 39.140625 45 
Q 35.0625 48.390625 27.6875 48.390625 
Q 23 48.390625 18.546875 47.265625 
Q 14.109375 46.140625 10.015625 43.890625 
L 10.015625 52.203125 
Q 14.9375 54.109375 19.578125 55.046875 
Q 24.21875 56 28.609375 56 
Q 40.484375 56 46.34375 49.84375 
Q 52.203125 43.703125 52.203125 31.203125 
z
" id="DejaVuSans-97"/>
      <path d="M 9.421875 75.984375 
L 18.40625 75.984375 
L 18.40625 0 
L 9.421875 0 
z
" id="DejaVuSans-108"/>
      <path id="DejaVuSans-32"/>
      <path d="M 52 44.1875 
Q 55.375 50.25 60.0625 53.125 
Q 64.75 56 71.09375 56 
Q 79.640625 56 84.28125 50.015625 
Q 88.921875 44.046875 88.921875 33.015625 
L 88.921875 0 
L 79.890625 0 
L 79.890625 32.71875 
Q 79.890625 40.578125 77.09375 44.375 
Q 74.3125 48.1875 68.609375 48.1875 
Q 61.625 48.1875 57.5625 43.546875 
Q 53.515625 38.921875 53.515625 30.90625 
L 53.515625 0 
L 44.484375 0 
L 44.484375 32.71875 
Q 44.484375 40.625 41.703125 44.40625 
Q 38.921875 48.1875 33.109375 48.1875 
Q 26.21875 48.1875 22.15625 43.53125 
Q 18.109375 38.875 18.109375 30.90625 
L 18.109375 0 
L 9.078125 0 
L 9.078125 54.6875 
L 18.109375 54.6875 
L 18.109375 46.1875 
Q 21.1875 51.21875 25.484375 53.609375 
Q 29.78125 56 35.6875 56 
Q 41.65625 56 45.828125 52.96875 
Q 50 49.953125 52 44.1875 
z
" id="DejaVuSans-109"/>
      <path d="M 54.890625 33.015625 
L 54.890625 0 
L 45.90625 0 
L 45.90625 32.71875 
Q 45.90625 40.484375 42.875 44.328125 
Q 39.84375 48.1875 33.796875 48.1875 
Q 26.515625 48.1875 22.3125 43.546875 
Q 18.109375 38.921875 18.109375 30.90625 
L 18.109375 0 
L 9.078125 0 
L 9.078125 54.6875 
L 18.109375 54.6875 
L 18.109375 46.1875 
Q 21.34375 51.125 25.703125 53.5625 
Q 30.078125 56 35.796875 56 
Q 45.21875 56 50.046875 50.171875 
Q 54.890625 44.34375 54.890625 33.015625 
z
" id="DejaVuSans-110"/>
      <path d="M 8.5 21.578125 
L 8.5 54.6875 
L 17.484375 54.6875 
L 17.484375 21.921875 
Q 17.484375 14.15625 20.5 10.265625 
Q 23.53125 6.390625 29.59375 6.390625 
Q 36.859375 6.390625 41.078125 11.03125 
Q 45.3125 15.671875 45.3125 23.6875 
L 45.3125 54.6875 
L 54.296875 54.6875 
L 54.296875 0 
L 45.3125 0 
L 45.3125 8.40625 
Q 42.046875 3.421875 37.71875 1 
Q 33.40625 -1.421875 27.6875 -1.421875 
Q 18.265625 -1.421875 13.375 4.4375 
Q 8.5 10.296875 8.5 21.578125 
z
M 31.109375 56 
z
" id="DejaVuSans-117"/>
      <path d="M 44.28125 53.078125 
L 44.28125 44.578125 
Q 40.484375 46.53125 36.375 47.5 
Q 32.28125 48.484375 27.875 48.484375 
Q 21.1875 48.484375 17.84375 46.4375 
Q 14.5 44.390625 14.5 40.28125 
Q 14.5 37.15625 16.890625 35.375 
Q 19.28125 33.59375 26.515625 31.984375 
L 29.59375 31.296875 
Q 39.15625 29.25 43.1875 25.515625 
Q 47.21875 21.78125 47.21875 15.09375 
Q 47.21875 7.46875 41.1875 3.015625 
Q 35.15625 -1.421875 24.609375 -1.421875 
Q 20.21875 -1.421875 15.453125 -0.5625 
Q 10.6875 0.296875 5.421875 2 
L 5.421875 11.28125 
Q 10.40625 8.6875 15.234375 7.390625 
Q 20.0625 6.109375 24.8125 6.109375 
Q 31.15625 6.109375 34.5625 8.28125 
Q 37.984375 10.453125 37.984375 14.40625 
Q 37.984375 18.0625 35.515625 20.015625 
Q 33.0625 21.96875 24.703125 23.78125 
L 21.578125 24.515625 
Q 13.234375 26.265625 9.515625 29.90625 
Q 5.8125 33.546875 5.8125 39.890625 
Q 5.8125 47.609375 11.28125 51.796875 
Q 16.75 56 26.8125 56 
Q 31.78125 56 36.171875 55.265625 
Q 40.578125 54.546875 44.28125 53.078125 
z
" id="DejaVuSans-115"/>
      <path d="M 48.78125 52.59375 
L 48.78125 44.1875 
Q 44.96875 46.296875 41.140625 47.34375 
Q 37.3125 48.390625 33.40625 48.390625 
Q 24.65625 48.390625 19.8125 42.84375 
Q 14.984375 37.3125 14.984375 27.296875 
Q 14.984375 17.28125 19.8125 11.734375 
Q 24.65625 6.203125 33.40625 6.203125 
Q 37.3125 6.203125 41.140625 7.25 
Q 44.96875 8.296875 48.78125 10.40625 
L 48.78125 2.09375 
Q 45.015625 0.34375 40.984375 -0.53125 
Q 36.96875 -1.421875 32.421875 -1.421875 
Q 20.0625 -1.421875 12.78125 6.34375 
Q 5.515625 14.109375 5.515625 27.296875 
Q 5.515625 40.671875 12.859375 48.328125 
Q 20.21875 56 33.015625 56 
Q 37.15625 56 41.109375 55.140625 
Q 45.0625 54.296875 48.78125 52.59375 
z
" id="DejaVuSans-99"/>
      <path d="M 41.109375 46.296875 
Q 39.59375 47.171875 37.8125 47.578125 
Q 36.03125 48 33.890625 48 
Q 26.265625 48 22.1875 43.046875 
Q 18.109375 38.09375 18.109375 28.8125 
L 18.109375 0 
L 9.078125 0 
L 9.078125 54.6875 
L 18.109375 54.6875 
L 18.109375 46.1875 
Q 20.953125 51.171875 25.484375 53.578125 
Q 30.03125 56 36.53125 56 
Q 37.453125 56 38.578125 55.875 
Q 39.703125 55.765625 41.0625 55.515625 
z
" id="DejaVuSans-114"/>
      <path d="M 9.421875 54.6875 
L 18.40625 54.6875 
L 18.40625 0 
L 9.421875 0 
z
M 9.421875 75.984375 
L 18.40625 75.984375 
L 18.40625 64.59375 
L 9.421875 64.59375 
z
" id="DejaVuSans-105"/>
      <path d="M 18.109375 8.203125 
L 18.109375 -20.796875 
L 9.078125 -20.796875 
L 9.078125 54.6875 
L 18.109375 54.6875 
L 18.109375 46.390625 
Q 20.953125 51.265625 25.265625 53.625 
Q 29.59375 56 35.59375 56 
Q 45.5625 56 51.78125 48.09375 
Q 58.015625 40.1875 58.015625 27.296875 
Q 58.015625 14.40625 51.78125 6.484375 
Q 45.5625 -1.421875 35.59375 -1.421875 
Q 29.59375 -1.421875 25.265625 0.953125 
Q 20.953125 3.328125 18.109375 8.203125 
z
M 48.6875 27.296875 
Q 48.6875 37.203125 44.609375 42.84375 
Q 40.53125 48.484375 33.40625 48.484375 
Q 26.265625 48.484375 22.1875 42.84375 
Q 18.109375 37.203125 18.109375 27.296875 
Q 18.109375 17.390625 22.1875 11.75 
Q 26.265625 6.109375 33.40625 6.109375 
Q 40.53125 6.109375 44.609375 11.75 
Q 48.6875 17.390625 48.6875 27.296875 
z
" id="DejaVuSans-112"/>
     </defs>
     <g transform="translate(17.837813 363.836406)rotate(-90)scale(0.14 -0.14)">
      <use xlink:href="#DejaVuSans-84"/>
      <use x="60.818359" xlink:href="#DejaVuSans-111"/>
      <use x="122" xlink:href="#DejaVuSans-116"/>
      <use x="161.208984" xlink:href="#DejaVuSans-97"/>
      <use x="222.488281" xlink:href="#DejaVuSans-108"/>
      <use x="250.271484" xlink:href="#DejaVuSans-32"/>
      <use x="282.058594" xlink:href="#DejaVuSans-109"/>
      <use x="379.470703" xlink:href="#DejaVuSans-97"/>
      <use x="440.75" xlink:href="#DejaVuSans-110"/>
      <use x="504.128906" xlink:href="#DejaVuSans-117"/>
      <use x="567.507812" xlink:href="#DejaVuSans-115"/>
      <use x="619.607422" xlink:href="#DejaVuSans-99"/>
      <use x="674.587891" xlink:href="#DejaVuSans-114"/>
      <use x="715.701172" xlink:href="#DejaVuSans-105"/>
      <use x="743.484375" xlink:href="#DejaVuSans-112"/>
      <use x="806.960938" xlink:href="#DejaVuSans-116"/>
      <use x="846.169922" xlink:href="#DejaVuSans-115"/>
     </g>
    </g>
   </g>
   <g id="line2d_31">
    <path clip-path="url(#p7d153d4c4d)" d="M 112.701601 552.486046 
L 127.716016 549.546288 
L 135.223223 545.936058 
L 142.730431 544.675343 
L 150.237638 539.93047 
L 157.744846 537.522696 
L 169.541886 534.004155 
L 177.049093 471.998941 
L 184.5563 466.541573 
L 185.628759 464.764156 
L 186.701217 463.561702 
L 187.773675 462.147217 
L 188.846133 461.904625 
L 189.918591 461.053643 
L 192.063508 459.948607 
L 193.135966 465.640926 
L 194.208424 465.016299 
L 195.280882 464.74983 
L 196.353341 464.698255 
L 197.425799 464.271331 
L 198.498257 463.480519 
L 199.570715 462.159634 
L 200.643173 461.206457 
L 201.715632 460.53121 
L 202.78809 460.262831 
L 204.933006 458.681206 
L 206.005464 458.23327 
L 207.077923 454.775855 
L 208.150381 444.395013 
L 209.222839 444.091295 
L 211.367755 443.127612 
L 213.512672 442.911762 
L 214.58513 441.566044 
L 215.657588 441.827738 
L 216.730046 440.412299 
L 217.802505 438.521227 
L 218.874963 438.243296 
L 219.947421 434.771554 
L 221.019879 434.435364 
L 222.092337 433.616854 
L 223.164796 432.526145 
L 225.309712 422.658184 
L 226.38217 421.413705 
L 227.454628 421.106167 
L 228.527087 420.580869 
L 229.599545 419.804384 
L 230.672003 418.096688 
L 231.744461 416.993562 
L 232.816919 416.186514 
L 233.889378 415.840772 
L 234.961836 415.222831 
L 237.106752 412.635499 
L 238.17921 411.959298 
L 239.251669 410.857127 
L 246.758876 405.489537 
L 248.903792 405.045422 
L 251.048709 404.569788 
L 252.121167 401.659638 
L 253.193625 400.715057 
L 254.266083 400.338752 
L 255.338541 399.096184 
L 257.483458 397.262417 
L 258.555916 396.719927 
L 259.628374 396.448682 
L 261.773291 393.764887 
L 262.845749 392.974075 
L 263.918207 393.638816 
L 266.063123 392.337032 
L 267.135582 391.549085 
L 268.20804 391.085868 
L 269.280498 388.872931 
L 270.352956 387.864359 
L 271.425414 380.156806 
L 272.497873 378.28579 
L 273.570331 377.817797 
L 274.642789 377.487337 
L 276.787705 375.153104 
L 277.860164 374.741462 
L 280.00508 371.913449 
L 281.077538 371.669901 
L 282.149996 370.958361 
L 285.367371 366.765529 
L 286.439829 366.45417 
L 289.657204 363.432275 
L 290.729662 361.84874 
L 291.80212 360.669207 
L 297.164411 355.790622 
L 298.236869 354.293046 
L 300.381786 352.649341 
L 303.59916 345.315226 
L 304.671619 343.995296 
L 305.744077 340.597096 
L 306.816535 340.499677 
L 307.888993 338.600009 
L 308.961451 335.954417 
L 310.03391 333.943004 
L 311.106368 333.581026 
L 312.178826 332.994602 
L 313.251284 331.813159 
L 314.323742 330.143667 
L 315.396201 327.797018 
L 317.541117 325.361546 
L 318.613575 324.703491 
L 321.83095 322.553589 
L 323.975866 320.850669 
L 325.048324 320.223177 
L 326.120782 319.811534 
L 328.265699 317.911866 
L 329.338157 314.308322 
L 330.410615 313.40672 
L 331.483073 308.364815 
L 332.555532 306.601724 
L 333.62799 305.854846 
L 336.845364 303.080317 
L 337.917823 301.767073 
L 338.990281 301.167278 
L 340.062739 299.403232 
L 341.135197 299.287666 
L 342.207655 297.84644 
L 343.280114 297.099562 
L 344.352572 294.821679 
L 345.42503 292.962124 
L 346.497488 291.813154 
L 347.569946 290.871438 
L 348.642405 290.250632 
L 350.787321 288.597376 
L 351.859779 286.760743 
L 354.004696 278.776215 
L 355.077154 277.193635 
L 356.149612 276.81351 
L 357.22207 276.214671 
L 358.294528 275.451556 
L 359.366987 273.241485 
L 360.439445 270.723875 
L 362.584361 268.354304 
L 363.656819 267.965583 
L 364.729278 267.350507 
L 366.874194 264.572158 
L 367.946652 264.012477 
L 369.01911 256.137784 
L 370.091569 255.140673 
L 371.164027 254.911452 
L 372.236485 254.34222 
L 373.308943 253.112068 
L 374.381401 252.466429 
L 375.45386 251.543815 
L 377.598776 249.443578 
L 378.671234 248.853334 
L 379.743692 248.509503 
L 382.961067 243.977614 
L 384.033525 243.585073 
L 385.105983 242.657684 
L 387.2509 241.053137 
L 389.395816 238.822054 
L 390.468274 237.940508 
L 391.540733 237.508809 
L 392.613191 236.665467 
L 393.685649 236.472539 
L 394.758107 235.548015 
L 395.830565 234.357976 
L 396.903023 233.46306 
L 397.975482 232.188973 
L 399.04794 231.811714 
L 400.120398 230.051488 
L 404.410231 224.101295 
L 405.482689 222.152918 
L 407.627605 220.241788 
L 408.700064 219.913238 
L 409.772522 219.401311 
L 410.84498 217.736595 
L 411.917438 216.744259 
L 412.989896 216.704145 
L 418.352187 215.187467 
L 419.424646 212.571483 
L 420.497104 212.571483 
L 421.569562 212.305014 
L 423.714478 212.277316 
L 424.786937 211.731962 
L 425.859395 211.332735 
L 426.931853 202.025411 
L 428.004311 200.272826 
L 429.076769 199.294817 
L 430.149228 197.213682 
L 432.294144 196.313035 
L 434.43906 193.732389 
L 436.583977 189.074429 
L 437.656435 188.178557 
L 438.728893 188.04771 
L 439.801351 186.810873 
L 440.87381 186.176695 
L 441.946268 185.776513 
L 443.018726 184.20253 
L 445.163642 181.583681 
L 446.236101 181.023044 
L 447.308559 180.760395 
L 449.453475 175.6545 
L 450.525933 175.323084 
L 451.598392 174.052818 
L 452.67085 173.858936 
L 453.743308 173.400494 
L 461.250515 164.563072 
L 468.757723 154.643537 
L 476.26493 148.196699 
L 483.772137 139.357367 
L 491.279345 134.156918 
L 506.29376 125.863896 
L 513.800967 119.176376 
L 521.308174 96.012647 
L 529.88784 88.857134 
L 536.322589 82.01298 
L 543.829797 74.764823 
L 551.337004 66.62557 
L 558.844211 52.37949 
L 566.351419 41.480991 
L 573.858626 33.166002 
L 573.858626 33.166002 
" style="fill:none;stroke:#1f77b4;stroke-linecap:square;stroke-width:3;"/>
   </g>
   <g id="patch_3">
    <path d="M 89.64375 594.72 
L 89.64375 7.2 
" style="fill:none;stroke:#000000;stroke-linecap:square;stroke-linejoin:miter;stroke-width:0.8;"/>
   </g>
   <g id="patch_4">
    <path d="M 89.64375 594.72 
L 596.916477 594.72 
" style="fill:none;stroke:#000000;stroke-linecap:square;stroke-linejoin:miter;stroke-width:0.8;"/>
   </g>
  </g>
  <g id="axes_2">
   <g id="patch_5">
    <path d="M 698.371023 594.72 
L 1205.64375 594.72 
L 1205.64375 7.2 
L 698.371023 7.2 
z
" style="fill:#ffffff;"/>
   </g>
   <g id="matplotlib.axis_3">
    <g id="xtick_9">
     <g id="line2d_32">
      <path clip-path="url(#p6ff3b2f7a1)" d="M 701.052168 594.72 
L 701.052168 7.2 
" style="fill:none;stroke:#d3d3d3;stroke-linecap:square;stroke-width:0.8;"/>
     </g>
     <g id="line2d_33">
      <g>
       <use style="stroke:#000000;stroke-width:0.8;" x="701.052168" xlink:href="#m47d5540451" y="594.72"/>
      </g>
     </g>
     <g id="text_17">
      <!-- 2020-03 -->
      <g transform="translate(648.937419 640.180585)rotate(-30)scale(0.14 -0.14)">
       <use xlink:href="#DejaVuSans-50"/>
       <use x="63.623047" xlink:href="#DejaVuSans-48"/>
       <use x="127.246094" xlink:href="#DejaVuSans-50"/>
       <use x="190.869141" xlink:href="#DejaVuSans-48"/>
       <use x="254.492188" xlink:href="#DejaVuSans-45"/>
       <use x="290.576172" xlink:href="#DejaVuSans-48"/>
       <use x="354.199219" xlink:href="#DejaVuSans-51"/>
      </g>
     </g>
    </g>
    <g id="xtick_10">
     <g id="line2d_34">
      <path clip-path="url(#p6ff3b2f7a1)" d="M 766.472118 594.72 
L 766.472118 7.2 
" style="fill:none;stroke:#d3d3d3;stroke-linecap:square;stroke-width:0.8;"/>
     </g>
     <g id="line2d_35">
      <g>
       <use style="stroke:#000000;stroke-width:0.8;" x="766.472118" xlink:href="#m47d5540451" y="594.72"/>
      </g>
     </g>
     <g id="text_18">
      <!-- 2020-05 -->
      <g transform="translate(714.357369 640.180585)rotate(-30)scale(0.14 -0.14)">
       <use xlink:href="#DejaVuSans-50"/>
       <use x="63.623047" xlink:href="#DejaVuSans-48"/>
       <use x="127.246094" xlink:href="#DejaVuSans-50"/>
       <use x="190.869141" xlink:href="#DejaVuSans-48"/>
       <use x="254.492188" xlink:href="#DejaVuSans-45"/>
       <use x="290.576172" xlink:href="#DejaVuSans-48"/>
       <use x="354.199219" xlink:href="#DejaVuSans-53"/>
      </g>
     </g>
    </g>
    <g id="xtick_11">
     <g id="line2d_36">
      <path clip-path="url(#p6ff3b2f7a1)" d="M 831.892068 594.72 
L 831.892068 7.2 
" style="fill:none;stroke:#d3d3d3;stroke-linecap:square;stroke-width:0.8;"/>
     </g>
     <g id="line2d_37">
      <g>
       <use style="stroke:#000000;stroke-width:0.8;" x="831.892068" xlink:href="#m47d5540451" y="594.72"/>
      </g>
     </g>
     <g id="text_19">
      <!-- 2020-07 -->
      <g transform="translate(779.777319 640.180585)rotate(-30)scale(0.14 -0.14)">
       <use xlink:href="#DejaVuSans-50"/>
       <use x="63.623047" xlink:href="#DejaVuSans-48"/>
       <use x="127.246094" xlink:href="#DejaVuSans-50"/>
       <use x="190.869141" xlink:href="#DejaVuSans-48"/>
       <use x="254.492188" xlink:href="#DejaVuSans-45"/>
       <use x="290.576172" xlink:href="#DejaVuSans-48"/>
       <use x="354.199219" xlink:href="#DejaVuSans-55"/>
      </g>
     </g>
    </g>
    <g id="xtick_12">
     <g id="line2d_38">
      <path clip-path="url(#p6ff3b2f7a1)" d="M 898.384477 594.72 
L 898.384477 7.2 
" style="fill:none;stroke:#d3d3d3;stroke-linecap:square;stroke-width:0.8;"/>
     </g>
     <g id="line2d_39">
      <g>
       <use style="stroke:#000000;stroke-width:0.8;" x="898.384477" xlink:href="#m47d5540451" y="594.72"/>
      </g>
     </g>
     <g id="text_20">
      <!-- 2020-09 -->
      <g transform="translate(846.269727 640.180585)rotate(-30)scale(0.14 -0.14)">
       <use xlink:href="#DejaVuSans-50"/>
       <use x="63.623047" xlink:href="#DejaVuSans-48"/>
       <use x="127.246094" xlink:href="#DejaVuSans-50"/>
       <use x="190.869141" xlink:href="#DejaVuSans-48"/>
       <use x="254.492188" xlink:href="#DejaVuSans-45"/>
       <use x="290.576172" xlink:href="#DejaVuSans-48"/>
       <use x="354.199219" xlink:href="#DejaVuSans-57"/>
      </g>
     </g>
    </g>
    <g id="xtick_13">
     <g id="line2d_40">
      <path clip-path="url(#p6ff3b2f7a1)" d="M 963.804427 594.72 
L 963.804427 7.2 
" style="fill:none;stroke:#d3d3d3;stroke-linecap:square;stroke-width:0.8;"/>
     </g>
     <g id="line2d_41">
      <g>
       <use style="stroke:#000000;stroke-width:0.8;" x="963.804427" xlink:href="#m47d5540451" y="594.72"/>
      </g>
     </g>
     <g id="text_21">
      <!-- 2020-11 -->
      <g transform="translate(911.689677 640.180585)rotate(-30)scale(0.14 -0.14)">
       <use xlink:href="#DejaVuSans-50"/>
       <use x="63.623047" xlink:href="#DejaVuSans-48"/>
       <use x="127.246094" xlink:href="#DejaVuSans-50"/>
       <use x="190.869141" xlink:href="#DejaVuSans-48"/>
       <use x="254.492188" xlink:href="#DejaVuSans-45"/>
       <use x="290.576172" xlink:href="#DejaVuSans-49"/>
       <use x="354.199219" xlink:href="#DejaVuSans-49"/>
      </g>
     </g>
    </g>
    <g id="xtick_14">
     <g id="line2d_42">
      <path clip-path="url(#p6ff3b2f7a1)" d="M 1029.224377 594.72 
L 1029.224377 7.2 
" style="fill:none;stroke:#d3d3d3;stroke-linecap:square;stroke-width:0.8;"/>
     </g>
     <g id="line2d_43">
      <g>
       <use style="stroke:#000000;stroke-width:0.8;" x="1029.224377" xlink:href="#m47d5540451" y="594.72"/>
      </g>
     </g>
     <g id="text_22">
      <!-- 2021-01 -->
      <g transform="translate(977.109627 640.180585)rotate(-30)scale(0.14 -0.14)">
       <use xlink:href="#DejaVuSans-50"/>
       <use x="63.623047" xlink:href="#DejaVuSans-48"/>
       <use x="127.246094" xlink:href="#DejaVuSans-50"/>
       <use x="190.869141" xlink:href="#DejaVuSans-49"/>
       <use x="254.492188" xlink:href="#DejaVuSans-45"/>
       <use x="290.576172" xlink:href="#DejaVuSans-48"/>
       <use x="354.199219" xlink:href="#DejaVuSans-49"/>
      </g>
     </g>
    </g>
    <g id="xtick_15">
     <g id="line2d_44">
      <path clip-path="url(#p6ff3b2f7a1)" d="M 1092.49941 594.72 
L 1092.49941 7.2 
" style="fill:none;stroke:#d3d3d3;stroke-linecap:square;stroke-width:0.8;"/>
     </g>
     <g id="line2d_45">
      <g>
       <use style="stroke:#000000;stroke-width:0.8;" x="1092.49941" xlink:href="#m47d5540451" y="594.72"/>
      </g>
     </g>
     <g id="text_23">
      <!-- 2021-03 -->
      <g transform="translate(1040.384661 640.180585)rotate(-30)scale(0.14 -0.14)">
       <use xlink:href="#DejaVuSans-50"/>
       <use x="63.623047" xlink:href="#DejaVuSans-48"/>
       <use x="127.246094" xlink:href="#DejaVuSans-50"/>
       <use x="190.869141" xlink:href="#DejaVuSans-49"/>
       <use x="254.492188" xlink:href="#DejaVuSans-45"/>
       <use x="290.576172" xlink:href="#DejaVuSans-48"/>
       <use x="354.199219" xlink:href="#DejaVuSans-51"/>
      </g>
     </g>
    </g>
    <g id="xtick_16">
     <g id="line2d_46">
      <path clip-path="url(#p6ff3b2f7a1)" d="M 1157.91936 594.72 
L 1157.91936 7.2 
" style="fill:none;stroke:#d3d3d3;stroke-linecap:square;stroke-width:0.8;"/>
     </g>
     <g id="line2d_47">
      <g>
       <use style="stroke:#000000;stroke-width:0.8;" x="1157.91936" xlink:href="#m47d5540451" y="594.72"/>
      </g>
     </g>
     <g id="text_24">
      <!-- 2021-05 -->
      <g transform="translate(1105.804611 640.180585)rotate(-30)scale(0.14 -0.14)">
       <use xlink:href="#DejaVuSans-50"/>
       <use x="63.623047" xlink:href="#DejaVuSans-48"/>
       <use x="127.246094" xlink:href="#DejaVuSans-50"/>
       <use x="190.869141" xlink:href="#DejaVuSans-49"/>
       <use x="254.492188" xlink:href="#DejaVuSans-45"/>
       <use x="290.576172" xlink:href="#DejaVuSans-48"/>
       <use x="354.199219" xlink:href="#DejaVuSans-53"/>
      </g>
     </g>
    </g>
   </g>
   <g id="matplotlib.axis_4">
    <g id="ytick_8">
     <g id="line2d_48">
      <path clip-path="url(#p6ff3b2f7a1)" d="M 698.371023 594.72 
L 1205.64375 594.72 
" style="fill:none;stroke:#d3d3d3;stroke-linecap:square;stroke-width:0.8;"/>
     </g>
     <g id="line2d_49">
      <g>
       <use style="stroke:#000000;stroke-width:0.8;" x="698.371023" xlink:href="#m7014082e30" y="594.72"/>
      </g>
     </g>
     <g id="text_25">
      <!-- 0 -->
      <g transform="translate(682.463523 600.038906)scale(0.14 -0.14)">
       <use xlink:href="#DejaVuSans-48"/>
      </g>
     </g>
    </g>
    <g id="ytick_9">
     <g id="line2d_50">
      <path clip-path="url(#p6ff3b2f7a1)" d="M 698.371023 509.096904 
L 1205.64375 509.096904 
" style="fill:none;stroke:#d3d3d3;stroke-linecap:square;stroke-width:0.8;"/>
     </g>
     <g id="line2d_51">
      <g>
       <use style="stroke:#000000;stroke-width:0.8;" x="698.371023" xlink:href="#m7014082e30" y="509.096904"/>
      </g>
     </g>
     <g id="text_26">
      <!-- 2,000 -->
      <g transform="translate(651.291648 514.41581)scale(0.14 -0.14)">
       <use xlink:href="#DejaVuSans-50"/>
       <use x="63.623047" xlink:href="#DejaVuSans-44"/>
       <use x="95.410156" xlink:href="#DejaVuSans-48"/>
       <use x="159.033203" xlink:href="#DejaVuSans-48"/>
       <use x="222.65625" xlink:href="#DejaVuSans-48"/>
      </g>
     </g>
    </g>
    <g id="ytick_10">
     <g id="line2d_52">
      <path clip-path="url(#p6ff3b2f7a1)" d="M 698.371023 423.473807 
L 1205.64375 423.473807 
" style="fill:none;stroke:#d3d3d3;stroke-linecap:square;stroke-width:0.8;"/>
     </g>
     <g id="line2d_53">
      <g>
       <use style="stroke:#000000;stroke-width:0.8;" x="698.371023" xlink:href="#m7014082e30" y="423.473807"/>
      </g>
     </g>
     <g id="text_27">
      <!-- 4,000 -->
      <g transform="translate(651.291648 428.792714)scale(0.14 -0.14)">
       <use xlink:href="#DejaVuSans-52"/>
       <use x="63.623047" xlink:href="#DejaVuSans-44"/>
       <use x="95.410156" xlink:href="#DejaVuSans-48"/>
       <use x="159.033203" xlink:href="#DejaVuSans-48"/>
       <use x="222.65625" xlink:href="#DejaVuSans-48"/>
      </g>
     </g>
    </g>
    <g id="ytick_11">
     <g id="line2d_54">
      <path clip-path="url(#p6ff3b2f7a1)" d="M 698.371023 337.850711 
L 1205.64375 337.850711 
" style="fill:none;stroke:#d3d3d3;stroke-linecap:square;stroke-width:0.8;"/>
     </g>
     <g id="line2d_55">
      <g>
       <use style="stroke:#000000;stroke-width:0.8;" x="698.371023" xlink:href="#m7014082e30" y="337.850711"/>
      </g>
     </g>
     <g id="text_28">
      <!-- 6,000 -->
      <g transform="translate(651.291648 343.169617)scale(0.14 -0.14)">
       <use xlink:href="#DejaVuSans-54"/>
       <use x="63.623047" xlink:href="#DejaVuSans-44"/>
       <use x="95.410156" xlink:href="#DejaVuSans-48"/>
       <use x="159.033203" xlink:href="#DejaVuSans-48"/>
       <use x="222.65625" xlink:href="#DejaVuSans-48"/>
      </g>
     </g>
    </g>
    <g id="ytick_12">
     <g id="line2d_56">
      <path clip-path="url(#p6ff3b2f7a1)" d="M 698.371023 252.227615 
L 1205.64375 252.227615 
" style="fill:none;stroke:#d3d3d3;stroke-linecap:square;stroke-width:0.8;"/>
     </g>
     <g id="line2d_57">
      <g>
       <use style="stroke:#000000;stroke-width:0.8;" x="698.371023" xlink:href="#m7014082e30" y="252.227615"/>
      </g>
     </g>
     <g id="text_29">
      <!-- 8,000 -->
      <defs>
       <path d="M 31.78125 34.625 
Q 24.75 34.625 20.71875 30.859375 
Q 16.703125 27.09375 16.703125 20.515625 
Q 16.703125 13.921875 20.71875 10.15625 
Q 24.75 6.390625 31.78125 6.390625 
Q 38.8125 6.390625 42.859375 10.171875 
Q 46.921875 13.96875 46.921875 20.515625 
Q 46.921875 27.09375 42.890625 30.859375 
Q 38.875 34.625 31.78125 34.625 
z
M 21.921875 38.8125 
Q 15.578125 40.375 12.03125 44.71875 
Q 8.5 49.078125 8.5 55.328125 
Q 8.5 64.0625 14.71875 69.140625 
Q 20.953125 74.21875 31.78125 74.21875 
Q 42.671875 74.21875 48.875 69.140625 
Q 55.078125 64.0625 55.078125 55.328125 
Q 55.078125 49.078125 51.53125 44.71875 
Q 48 40.375 41.703125 38.8125 
Q 48.828125 37.15625 52.796875 32.3125 
Q 56.78125 27.484375 56.78125 20.515625 
Q 56.78125 9.90625 50.3125 4.234375 
Q 43.84375 -1.421875 31.78125 -1.421875 
Q 19.734375 -1.421875 13.25 4.234375 
Q 6.78125 9.90625 6.78125 20.515625 
Q 6.78125 27.484375 10.78125 32.3125 
Q 14.796875 37.15625 21.921875 38.8125 
z
M 18.3125 54.390625 
Q 18.3125 48.734375 21.84375 45.5625 
Q 25.390625 42.390625 31.78125 42.390625 
Q 38.140625 42.390625 41.71875 45.5625 
Q 45.3125 48.734375 45.3125 54.390625 
Q 45.3125 60.0625 41.71875 63.234375 
Q 38.140625 66.40625 31.78125 66.40625 
Q 25.390625 66.40625 21.84375 63.234375 
Q 18.3125 60.0625 18.3125 54.390625 
z
" id="DejaVuSans-56"/>
      </defs>
      <g transform="translate(651.291648 257.546521)scale(0.14 -0.14)">
       <use xlink:href="#DejaVuSans-56"/>
       <use x="63.623047" xlink:href="#DejaVuSans-44"/>
       <use x="95.410156" xlink:href="#DejaVuSans-48"/>
       <use x="159.033203" xlink:href="#DejaVuSans-48"/>
       <use x="222.65625" xlink:href="#DejaVuSans-48"/>
      </g>
     </g>
    </g>
    <g id="ytick_13">
     <g id="line2d_58">
      <path clip-path="url(#p6ff3b2f7a1)" d="M 698.371023 166.604518 
L 1205.64375 166.604518 
" style="fill:none;stroke:#d3d3d3;stroke-linecap:square;stroke-width:0.8;"/>
     </g>
     <g id="line2d_59">
      <g>
       <use style="stroke:#000000;stroke-width:0.8;" x="698.371023" xlink:href="#m7014082e30" y="166.604518"/>
      </g>
     </g>
     <g id="text_30">
      <!-- 10,000 -->
      <g transform="translate(642.384148 171.923425)scale(0.14 -0.14)">
       <use xlink:href="#DejaVuSans-49"/>
       <use x="63.623047" xlink:href="#DejaVuSans-48"/>
       <use x="127.246094" xlink:href="#DejaVuSans-44"/>
       <use x="159.033203" xlink:href="#DejaVuSans-48"/>
       <use x="222.65625" xlink:href="#DejaVuSans-48"/>
       <use x="286.279297" xlink:href="#DejaVuSans-48"/>
      </g>
     </g>
    </g>
    <g id="ytick_14">
     <g id="line2d_60">
      <path clip-path="url(#p6ff3b2f7a1)" d="M 698.371023 80.981422 
L 1205.64375 80.981422 
" style="fill:none;stroke:#d3d3d3;stroke-linecap:square;stroke-width:0.8;"/>
     </g>
     <g id="line2d_61">
      <g>
       <use style="stroke:#000000;stroke-width:0.8;" x="698.371023" xlink:href="#m7014082e30" y="80.981422"/>
      </g>
     </g>
     <g id="text_31">
      <!-- 12,000 -->
      <g transform="translate(642.384148 86.300328)scale(0.14 -0.14)">
       <use xlink:href="#DejaVuSans-49"/>
       <use x="63.623047" xlink:href="#DejaVuSans-50"/>
       <use x="127.246094" xlink:href="#DejaVuSans-44"/>
       <use x="159.033203" xlink:href="#DejaVuSans-48"/>
       <use x="222.65625" xlink:href="#DejaVuSans-48"/>
       <use x="286.279297" xlink:href="#DejaVuSans-48"/>
      </g>
     </g>
    </g>
    <g id="text_32">
     <!-- Preprints -->
     <defs>
      <path d="M 19.671875 64.796875 
L 19.671875 37.40625 
L 32.078125 37.40625 
Q 38.96875 37.40625 42.71875 40.96875 
Q 46.484375 44.53125 46.484375 51.125 
Q 46.484375 57.671875 42.71875 61.234375 
Q 38.96875 64.796875 32.078125 64.796875 
z
M 9.8125 72.90625 
L 32.078125 72.90625 
Q 44.34375 72.90625 50.609375 67.359375 
Q 56.890625 61.8125 56.890625 51.125 
Q 56.890625 40.328125 50.609375 34.8125 
Q 44.34375 29.296875 32.078125 29.296875 
L 19.671875 29.296875 
L 19.671875 0 
L 9.8125 0 
z
" id="DejaVuSans-80"/>
      <path d="M 56.203125 29.59375 
L 56.203125 25.203125 
L 14.890625 25.203125 
Q 15.484375 15.921875 20.484375 11.0625 
Q 25.484375 6.203125 34.421875 6.203125 
Q 39.59375 6.203125 44.453125 7.46875 
Q 49.3125 8.734375 54.109375 11.28125 
L 54.109375 2.78125 
Q 49.265625 0.734375 44.1875 -0.34375 
Q 39.109375 -1.421875 33.890625 -1.421875 
Q 20.796875 -1.421875 13.15625 6.1875 
Q 5.515625 13.8125 5.515625 26.8125 
Q 5.515625 40.234375 12.765625 48.109375 
Q 20.015625 56 32.328125 56 
Q 43.359375 56 49.78125 48.890625 
Q 56.203125 41.796875 56.203125 29.59375 
z
M 47.21875 32.234375 
Q 47.125 39.59375 43.09375 43.984375 
Q 39.0625 48.390625 32.421875 48.390625 
Q 24.90625 48.390625 20.390625 44.140625 
Q 15.875 39.890625 15.1875 32.171875 
z
" id="DejaVuSans-101"/>
     </defs>
     <g transform="translate(635.472585 332.455625)rotate(-90)scale(0.14 -0.14)">
      <use xlink:href="#DejaVuSans-80"/>
      <use x="60.287109" xlink:href="#DejaVuSans-114"/>
      <use x="101.369141" xlink:href="#DejaVuSans-101"/>
      <use x="162.892578" xlink:href="#DejaVuSans-112"/>
      <use x="226.369141" xlink:href="#DejaVuSans-114"/>
      <use x="267.482422" xlink:href="#DejaVuSans-105"/>
      <use x="295.265625" xlink:href="#DejaVuSans-110"/>
      <use x="358.644531" xlink:href="#DejaVuSans-116"/>
      <use x="397.853516" xlink:href="#DejaVuSans-115"/>
     </g>
    </g>
   </g>
   <g id="line2d_62">
    <path clip-path="url(#p6ff3b2f7a1)" d="M 721.428874 587.442037 
L 728.936081 583.289317 
L 736.443289 577.937873 
L 743.950496 571.730199 
L 758.964911 560.770442 
L 766.472118 553.79216 
L 778.269158 545.272662 
L 785.776366 538.765307 
L 797.573406 529.389578 
L 798.645864 529.004274 
L 799.718322 528.490535 
L 800.790781 527.249 
L 802.935697 525.450915 
L 804.008155 524.466249 
L 806.153072 523.181903 
L 807.22553 522.710976 
L 808.297988 521.383818 
L 809.370446 520.441964 
L 810.442904 519.671356 
L 811.515363 518.344198 
L 812.587821 517.402344 
L 813.660279 517.102663 
L 814.732737 516.674548 
L 815.805195 515.304578 
L 816.877654 514.277101 
L 817.950112 513.549305 
L 819.02257 512.521828 
L 820.095028 511.665597 
L 822.239945 511.066235 
L 823.312403 510.295627 
L 824.384861 508.882846 
L 827.602235 506.22853 
L 829.747152 505.372299 
L 831.892068 504.087953 
L 834.036985 502.161433 
L 835.109443 501.433637 
L 837.254359 500.277725 
L 838.326817 498.993378 
L 839.399276 498.179959 
L 840.471734 497.10967 
L 841.544192 496.467497 
L 842.61665 495.611266 
L 843.689108 495.140339 
L 844.761567 494.88347 
L 845.834025 494.369731 
L 847.978941 492.357588 
L 852.268774 489.746084 
L 853.341232 488.675795 
L 854.41369 487.947999 
L 856.558607 485.893045 
L 857.631065 485.293683 
L 859.775981 484.223394 
L 861.920898 482.339686 
L 865.138272 479.086008 
L 867.283189 477.972908 
L 869.428105 476.132012 
L 870.500563 475.404215 
L 871.573022 474.462361 
L 872.64548 473.734565 
L 874.790396 473.349261 
L 875.862854 472.321784 
L 876.935313 471.636799 
L 878.007771 470.780568 
L 879.080229 469.710279 
L 881.225145 468.725614 
L 882.297604 468.468744 
L 883.370062 467.655325 
L 885.514978 466.456602 
L 886.587436 465.728805 
L 887.659895 464.829763 
L 888.732353 464.658517 
L 889.804811 464.273213 
L 893.022186 462.004201 
L 895.167102 459.992058 
L 898.384477 458.750523 
L 899.456935 458.065538 
L 900.529393 457.594611 
L 905.891684 454.383745 
L 906.964142 453.570326 
L 909.109058 451.643806 
L 913.398891 449.631663 
L 914.471349 449.203548 
L 915.543808 448.518563 
L 916.616266 447.533897 
L 917.688724 446.891724 
L 919.83364 446.206739 
L 920.906099 445.179262 
L 924.123473 442.91025 
L 925.195931 442.439323 
L 926.26839 441.711527 
L 927.340848 441.2406 
L 933.775597 437.430372 
L 934.848055 437.173503 
L 940.210346 432.592667 
L 942.355263 431.522378 
L 944.500179 429.938351 
L 945.572637 429.467424 
L 946.645095 428.311512 
L 948.790012 427.284035 
L 949.86247 426.85592 
L 950.934928 425.999689 
L 952.007386 424.758154 
L 953.079845 424.073169 
L 955.224761 422.146649 
L 957.369677 421.290418 
L 958.442136 420.305753 
L 959.514594 419.021406 
L 962.731968 416.024598 
L 963.804427 415.296802 
L 964.876885 414.825875 
L 965.949343 413.755586 
L 968.094259 412.642486 
L 970.239176 411.10127 
L 972.384092 410.245039 
L 973.45655 409.474431 
L 978.818841 406.13513 
L 979.891299 405.792638 
L 982.036216 403.866118 
L 984.181132 402.53896 
L 986.326049 401.554295 
L 987.398507 401.383049 
L 988.470965 400.098702 
L 991.68834 398.043748 
L 993.833256 397.187517 
L 995.978172 395.817547 
L 998.123089 394.618824 
L 999.195547 393.420101 
L 1000.268005 392.521058 
L 1002.412922 391.921696 
L 1004.557838 389.652684 
L 1006.702754 387.811788 
L 1007.775213 387.083991 
L 1008.847671 386.655876 
L 1013.137504 383.958748 
L 1014.209962 383.016894 
L 1015.28242 382.374721 
L 1016.354878 382.032229 
L 1017.427336 381.860983 
L 1018.499795 381.090375 
L 1019.572253 379.720405 
L 1021.717169 377.965132 
L 1024.934544 376.937655 
L 1026.007002 376.25267 
L 1027.07946 375.824554 
L 1029.224377 374.411773 
L 1031.369293 373.555542 
L 1032.441751 373.341484 
L 1033.514209 372.485254 
L 1034.586668 371.457776 
L 1037.804042 369.830938 
L 1039.948959 368.889083 
L 1042.093875 366.876941 
L 1043.166333 365.892275 
L 1045.31125 364.393871 
L 1047.456166 363.666075 
L 1048.528624 362.895467 
L 1049.601082 361.568309 
L 1050.673541 360.583643 
L 1051.745999 360.155528 
L 1052.818457 359.513354 
L 1054.963373 358.82837 
L 1056.035831 357.886516 
L 1057.10829 357.115908 
L 1058.180748 356.644981 
L 1059.253206 355.2322 
L 1060.325664 354.504403 
L 1061.398122 354.204722 
L 1062.470581 353.648172 
L 1069.977788 348.510787 
L 1077.484995 342.816851 
L 1092.49941 332.756137 
L 1100.006618 327.019389 
L 1115.021032 317.558037 
L 1130.035447 308.524801 
L 1152.557069 293.112643 
L 1175.078691 279.926686 
L 1182.585899 276.673009 
L 1182.585899 276.673009 
" style="fill:none;stroke:#1f77b4;stroke-linecap:square;stroke-width:3;"/>
   </g>
   <g id="line2d_63">
    <path clip-path="url(#p6ff3b2f7a1)" d="M 721.428874 569.760867 
L 728.936081 562.996643 
L 736.443289 552.079698 
L 743.950496 542.703969 
L 751.457703 530.502678 
L 758.964911 515.518636 
L 766.472118 502.204244 
L 778.269158 475.447027 
L 785.776366 462.175447 
L 793.283573 446.50642 
L 794.356031 439.485326 
L 795.42849 437.858488 
L 796.500948 437.216314 
L 797.573406 434.561998 
L 798.645864 432.507044 
L 799.718322 432.464232 
L 800.790781 431.522378 
L 801.863239 428.097455 
L 802.935697 425.48595 
L 804.008155 424.458473 
L 805.080613 420.605434 
L 806.153072 420.434187 
L 808.297988 417.523002 
L 809.370446 414.440571 
L 810.442904 414.354948 
L 811.515363 413.113413 
L 812.587821 408.318519 
L 813.660279 407.761969 
L 814.732737 406.520434 
L 815.805195 406.392 
L 816.877654 403.266757 
L 817.950112 401.768352 
L 819.02257 400.740875 
L 821.167486 396.117228 
L 822.239945 396.031605 
L 823.312403 394.618824 
L 824.384861 391.707639 
L 825.457319 390.423292 
L 826.529777 390.037988 
L 827.602235 387.512107 
L 828.674694 387.469295 
L 829.747152 386.270572 
L 830.81961 383.530633 
L 831.892068 382.63159 
L 835.109443 379.078232 
L 836.181901 377.194524 
L 837.254359 376.766408 
L 838.326817 375.610497 
L 839.399276 373.384296 
L 840.471734 372.057138 
L 841.544192 371.586211 
L 842.61665 370.17343 
L 843.689108 367.604737 
L 845.834025 367.476302 
L 846.906483 364.736363 
L 847.978941 363.409205 
L 852.268774 357.372777 
L 853.341232 356.602169 
L 854.41369 355.2322 
L 855.486149 354.461592 
L 856.558607 354.290346 
L 857.631065 350.951045 
L 859.775981 347.868613 
L 860.84844 346.66989 
L 861.920898 345.813659 
L 862.993356 343.202155 
L 864.065814 341.446881 
L 865.138272 340.890331 
L 866.210731 339.520361 
L 867.283189 338.835377 
L 868.355647 338.792565 
L 869.428105 334.382976 
L 870.500563 334.211729 
L 872.64548 330.615559 
L 874.790396 330.615559 
L 875.862854 330.487125 
L 876.935313 328.260924 
L 879.080229 326.334405 
L 880.152687 322.652611 
L 881.225145 321.453888 
L 882.297604 320.768903 
L 884.44252 318.842384 
L 885.514978 318.371457 
L 886.587436 318.157399 
L 888.732353 314.175925 
L 889.804811 313.619375 
L 890.877269 312.549086 
L 891.949727 310.793813 
L 893.022186 309.637901 
L 895.167102 309.466655 
L 898.384477 307.540135 
L 899.456935 303.772719 
L 900.529393 300.818722 
L 906.964142 295.124786 
L 909.109058 291.742674 
L 913.398891 287.375896 
L 914.471349 286.519665 
L 915.543808 286.219984 
L 916.616266 286.177172 
L 917.688724 281.082598 
L 918.761182 281.039787 
L 920.906099 280.440425 
L 921.978557 279.027644 
L 923.051015 276.202082 
L 924.123473 275.773966 
L 925.195931 273.761823 
L 926.26839 273.761823 
L 927.340848 272.819969 
L 930.558222 268.538815 
L 932.703139 267.425714 
L 933.775597 267.425714 
L 934.848055 266.655106 
L 935.920513 265.37076 
L 936.992972 263.658298 
L 938.06543 263.187371 
L 939.137888 262.930502 
L 940.210346 262.545198 
L 941.282804 262.545198 
L 942.355263 262.117082 
L 944.500179 259.719636 
L 945.572637 257.365001 
L 947.717554 256.294712 
L 948.790012 256.294712 
L 949.86247 255.69535 
L 950.934928 255.652539 
L 952.007386 253.340715 
L 953.079845 251.54263 
L 954.152303 251.285761 
L 955.224761 249.787356 
L 956.297219 249.787356 
L 957.369677 249.359241 
L 958.442136 248.588633 
L 959.514594 244.692782 
L 960.587052 244.393101 
L 962.731968 243.408436 
L 963.804427 243.194378 
L 964.876885 242.766263 
L 965.949343 242.637828 
L 967.021801 240.240381 
L 968.094259 236.858269 
L 969.166718 236.216096 
L 970.239176 234.846126 
L 971.311634 233.989895 
L 972.384092 233.904272 
L 973.45655 233.476157 
L 975.601467 232.405868 
L 976.673925 230.779029 
L 977.746383 228.638452 
L 978.818841 228.59564 
L 979.891299 228.210336 
L 980.963758 226.241005 
L 982.036216 225.898513 
L 983.108674 223.458254 
L 984.181132 223.07295 
L 986.326049 221.917039 
L 987.398507 221.488923 
L 988.470965 219.990519 
L 991.68834 218.320869 
L 992.760798 217.336203 
L 993.833256 216.651218 
L 995.978172 212.626933 
L 998.123089 211.128528 
L 999.195547 210.015428 
L 1000.268005 207.789228 
L 1002.412922 207.703605 
L 1003.48538 205.90552 
L 1004.557838 205.006477 
L 1005.630296 204.278681 
L 1006.702754 204.235869 
L 1007.775213 201.410307 
L 1008.847671 201.324684 
L 1013.137504 197.300398 
L 1014.209962 196.78666 
L 1015.28242 195.545125 
L 1016.354878 194.560459 
L 1017.427336 194.089532 
L 1018.499795 194.046721 
L 1019.572253 190.750232 
L 1020.644711 190.279305 
L 1021.717169 188.7809 
L 1024.934544 187.582177 
L 1027.07946 187.453742 
L 1028.151918 186.897192 
L 1029.224377 186.854381 
L 1031.369293 185.484411 
L 1032.441751 185.4416 
L 1033.514209 182.444791 
L 1034.586668 181.759806 
L 1035.659126 180.218591 
L 1036.731584 180.132968 
L 1037.804042 178.334883 
L 1038.8765 177.478652 
L 1039.948959 177.393029 
L 1041.021417 176.87929 
L 1042.093875 176.065871 
L 1043.166333 174.695901 
L 1044.238791 174.567466 
L 1045.31125 171.056919 
L 1046.383708 170.80005 
L 1049.601082 170.628804 
L 1050.673541 167.20388 
L 1051.745999 166.989822 
L 1052.818457 165.876722 
L 1053.890915 165.876722 
L 1054.963373 165.748287 
L 1056.035831 164.249883 
L 1057.10829 160.910583 
L 1058.180748 160.311221 
L 1059.253206 160.054352 
L 1060.325664 158.042209 
L 1061.398122 157.828151 
L 1062.470581 156.886297 
L 1069.977788 148.580857 
L 1077.484995 143.443471 
L 1084.992203 135.437711 
L 1092.49941 128.887544 
L 1100.006618 120.496481 
L 1115.021032 102.900935 
L 1122.52824 91.42744 
L 1130.035447 86.418489 
L 1138.615113 78.498352 
L 1145.049862 72.376301 
L 1152.557069 63.428687 
L 1160.064277 55.76542 
L 1167.571484 49.3865 
L 1175.078691 42.365406 
L 1182.585899 34.830573 
L 1182.585899 34.830573 
" style="fill:none;stroke:#ff7f0e;stroke-linecap:square;stroke-width:3;"/>
   </g>
   <g id="line2d_64">
    <path clip-path="url(#p6ff3b2f7a1)" d="M 721.428874 585.643952 
L 728.936081 584.017113 
L 736.443289 581.705289 
L 743.950496 578.96535 
L 751.457703 575.668861 
L 758.964911 571.987068 
L 766.472118 569.033071 
L 778.269158 563.339135 
L 785.776366 558.672676 
L 795.42849 554.263087 
L 796.500948 553.149987 
L 797.573406 552.336567 
L 799.718322 551.394713 
L 800.790781 550.795352 
L 802.935697 550.110367 
L 805.080613 548.697586 
L 807.22553 548.440716 
L 808.297988 547.627297 
L 809.370446 547.15637 
L 810.442904 546.300139 
L 811.515363 545.700777 
L 812.587821 544.630489 
L 814.732737 543.945504 
L 815.805195 543.132084 
L 816.877654 542.018984 
L 817.950112 541.205565 
L 819.02257 540.606203 
L 820.095028 539.707161 
L 821.167486 539.15061 
L 822.239945 538.85093 
L 823.312403 538.422814 
L 824.384861 537.566583 
L 826.529777 536.239425 
L 827.602235 535.682875 
L 829.747152 535.297571 
L 830.81961 534.526963 
L 831.892068 533.156994 
L 834.036985 531.615778 
L 836.181901 531.144851 
L 837.254359 530.973605 
L 839.399276 529.73207 
L 840.471734 529.303954 
L 842.61665 528.019608 
L 844.761567 527.762739 
L 845.834025 527.077754 
L 846.906483 526.564015 
L 847.978941 525.622161 
L 852.268774 524.295003 
L 853.341232 523.481584 
L 855.486149 522.53973 
L 857.631065 520.955703 
L 859.775981 520.527587 
L 860.84844 519.714168 
L 861.920898 519.200429 
L 865.138272 517.231098 
L 867.283189 516.888605 
L 868.355647 516.417678 
L 870.500563 514.919274 
L 872.64548 514.063043 
L 874.790396 514.063043 
L 875.862854 513.206812 
L 876.935313 512.521828 
L 879.080229 511.537162 
L 880.152687 510.723743 
L 881.225145 510.552496 
L 883.370062 509.739077 
L 885.514978 508.540354 
L 887.659895 507.470065 
L 889.804811 506.913515 
L 890.877269 506.314153 
L 891.949727 506.014472 
L 895.167102 504.173576 
L 899.456935 502.63236 
L 900.529393 502.118621 
L 906.964142 499.635552 
L 909.109058 498.394017 
L 913.398891 496.638743 
L 917.688724 494.755035 
L 919.83364 494.412543 
L 920.906099 493.727558 
L 924.123473 492.528835 
L 925.195931 492.015096 
L 927.340848 491.84385 
L 930.558222 490.217011 
L 932.703139 489.275157 
L 933.775597 489.232345 
L 935.920513 488.889853 
L 939.137888 487.091768 
L 940.210346 486.363972 
L 942.355263 486.149914 
L 944.500179 485.079625 
L 945.572637 484.180583 
L 946.645095 483.581221 
L 947.717554 482.810613 
L 948.790012 482.767802 
L 949.86247 482.596555 
L 952.007386 481.440644 
L 955.224761 480.199109 
L 957.369677 479.942239 
L 958.442136 479.342878 
L 959.514594 478.914762 
L 960.587052 478.272589 
L 962.731968 477.330735 
L 963.804427 477.159489 
L 964.876885 476.859808 
L 967.021801 475.489838 
L 968.094259 475.190158 
L 970.239176 473.691753 
L 971.311634 473.648942 
L 972.384092 473.349261 
L 973.45655 472.578653 
L 975.601467 471.679611 
L 976.673925 470.866191 
L 977.746383 470.395264 
L 978.818841 470.181206 
L 979.891299 470.138395 
L 980.963758 469.367787 
L 982.036216 468.854048 
L 983.108674 468.126252 
L 984.181132 468.040629 
L 986.326049 467.398456 
L 987.398507 467.355644 
L 992.760798 465.386313 
L 993.833256 465.343501 
L 995.978172 464.658517 
L 998.123089 463.074489 
L 1000.268005 461.790143 
L 1002.412922 461.190781 
L 1003.48538 460.59142 
L 1004.557838 460.206116 
L 1005.630296 459.692377 
L 1006.702754 459.050204 
L 1007.775213 458.579277 
L 1008.847671 458.450842 
L 1013.137504 456.695569 
L 1014.209962 456.438699 
L 1015.28242 455.454034 
L 1016.354878 455.454034 
L 1017.427336 454.983107 
L 1019.572253 453.39908 
L 1021.717169 452.243168 
L 1024.934544 451.600995 
L 1027.07946 450.188213 
L 1028.151918 449.760098 
L 1030.296835 449.460417 
L 1032.441751 449.032302 
L 1033.514209 448.133259 
L 1034.586668 447.405463 
L 1037.804042 445.821436 
L 1039.948959 445.735812 
L 1041.021417 444.83677 
L 1042.093875 444.537089 
L 1045.31125 442.824627 
L 1047.456166 442.653381 
L 1048.528624 442.054019 
L 1049.601082 440.769673 
L 1052.818457 439.399703 
L 1053.890915 439.31408 
L 1056.035831 438.586284 
L 1057.10829 437.730053 
L 1058.180748 436.702576 
L 1061.398122 435.204172 
L 1062.470581 435.118548 
L 1069.977788 430.923017 
L 1077.484995 428.183078 
L 1084.992203 424.073169 
L 1092.49941 420.77668 
L 1122.52824 404.208611 
L 1130.035447 400.740875 
L 1138.615113 395.90317 
L 1145.049862 393.805404 
L 1152.557069 390.680161 
L 1160.064277 386.056514 
L 1167.571484 381.689736 
L 1175.078691 377.879509 
L 1182.585899 375.011135 
L 1182.585899 375.011135 
" style="fill:none;stroke:#2ca02c;stroke-linecap:square;stroke-width:3;"/>
   </g>
   <g id="patch_6">
    <path d="M 698.371023 594.72 
L 698.371023 7.2 
" style="fill:none;stroke:#000000;stroke-linecap:square;stroke-linejoin:miter;stroke-width:0.8;"/>
   </g>
   <g id="patch_7">
    <path d="M 698.371023 594.72 
L 1205.64375 594.72 
" style="fill:none;stroke:#000000;stroke-linecap:square;stroke-linejoin:miter;stroke-width:0.8;"/>
   </g>
   <g id="legend_1">
    <g id="patch_8">
     <path d="M 708.171023 80.048125 
L 814.299773 80.048125 
Q 817.099773 80.048125 817.099773 77.248125 
L 817.099773 17 
Q 817.099773 14.2 814.299773 14.2 
L 708.171023 14.2 
Q 705.371023 14.2 705.371023 17 
L 705.371023 77.248125 
Q 705.371023 80.048125 708.171023 80.048125 
z
" style="fill:#ffffff;opacity:0.8;stroke:#cccccc;stroke-linejoin:miter;"/>
    </g>
    <g id="line2d_65">
     <path d="M 710.971023 25.537813 
L 738.971023 25.537813 
" style="fill:none;stroke:#1f77b4;stroke-linecap:square;stroke-width:3;"/>
    </g>
    <g id="line2d_66"/>
    <g id="text_33">
     <!-- arXiv -->
     <defs>
      <path d="M 6.296875 72.90625 
L 16.890625 72.90625 
L 35.015625 45.796875 
L 53.21875 72.90625 
L 63.8125 72.90625 
L 40.375 37.890625 
L 65.375 0 
L 54.78125 0 
L 34.28125 31 
L 13.625 0 
L 2.984375 0 
L 29 38.921875 
z
" id="DejaVuSans-88"/>
      <path d="M 2.984375 54.6875 
L 12.5 54.6875 
L 29.59375 8.796875 
L 46.6875 54.6875 
L 56.203125 54.6875 
L 35.6875 0 
L 23.484375 0 
z
" id="DejaVuSans-118"/>
     </defs>
     <g transform="translate(750.171023 30.437813)scale(0.14 -0.14)">
      <use xlink:href="#DejaVuSans-97"/>
      <use x="61.279297" xlink:href="#DejaVuSans-114"/>
      <use x="102.392578" xlink:href="#DejaVuSans-88"/>
      <use x="170.898438" xlink:href="#DejaVuSans-105"/>
      <use x="198.681641" xlink:href="#DejaVuSans-118"/>
     </g>
    </g>
    <g id="line2d_67">
     <path d="M 710.971023 46.087188 
L 738.971023 46.087188 
" style="fill:none;stroke:#ff7f0e;stroke-linecap:square;stroke-width:3;"/>
    </g>
    <g id="line2d_68"/>
    <g id="text_34">
     <!-- medRxiv -->
     <defs>
      <path d="M 45.40625 46.390625 
L 45.40625 75.984375 
L 54.390625 75.984375 
L 54.390625 0 
L 45.40625 0 
L 45.40625 8.203125 
Q 42.578125 3.328125 38.25 0.953125 
Q 33.9375 -1.421875 27.875 -1.421875 
Q 17.96875 -1.421875 11.734375 6.484375 
Q 5.515625 14.40625 5.515625 27.296875 
Q 5.515625 40.1875 11.734375 48.09375 
Q 17.96875 56 27.875 56 
Q 33.9375 56 38.25 53.625 
Q 42.578125 51.265625 45.40625 46.390625 
z
M 14.796875 27.296875 
Q 14.796875 17.390625 18.875 11.75 
Q 22.953125 6.109375 30.078125 6.109375 
Q 37.203125 6.109375 41.296875 11.75 
Q 45.40625 17.390625 45.40625 27.296875 
Q 45.40625 37.203125 41.296875 42.84375 
Q 37.203125 48.484375 30.078125 48.484375 
Q 22.953125 48.484375 18.875 42.84375 
Q 14.796875 37.203125 14.796875 27.296875 
z
" id="DejaVuSans-100"/>
      <path d="M 44.390625 34.1875 
Q 47.5625 33.109375 50.5625 29.59375 
Q 53.5625 26.078125 56.59375 19.921875 
L 66.609375 0 
L 56 0 
L 46.6875 18.703125 
Q 43.0625 26.03125 39.671875 28.421875 
Q 36.28125 30.8125 30.421875 30.8125 
L 19.671875 30.8125 
L 19.671875 0 
L 9.8125 0 
L 9.8125 72.90625 
L 32.078125 72.90625 
Q 44.578125 72.90625 50.734375 67.671875 
Q 56.890625 62.453125 56.890625 51.90625 
Q 56.890625 45.015625 53.6875 40.46875 
Q 50.484375 35.9375 44.390625 34.1875 
z
M 19.671875 64.796875 
L 19.671875 38.921875 
L 32.078125 38.921875 
Q 39.203125 38.921875 42.84375 42.21875 
Q 46.484375 45.515625 46.484375 51.90625 
Q 46.484375 58.296875 42.84375 61.546875 
Q 39.203125 64.796875 32.078125 64.796875 
z
" id="DejaVuSans-82"/>
      <path d="M 54.890625 54.6875 
L 35.109375 28.078125 
L 55.90625 0 
L 45.3125 0 
L 29.390625 21.484375 
L 13.484375 0 
L 2.875 0 
L 24.125 28.609375 
L 4.6875 54.6875 
L 15.28125 54.6875 
L 29.78125 35.203125 
L 44.28125 54.6875 
z
" id="DejaVuSans-120"/>
     </defs>
     <g transform="translate(750.171023 50.987188)scale(0.14 -0.14)">
      <use xlink:href="#DejaVuSans-109"/>
      <use x="97.412109" xlink:href="#DejaVuSans-101"/>
      <use x="158.935547" xlink:href="#DejaVuSans-100"/>
      <use x="222.412109" xlink:href="#DejaVuSans-82"/>
      <use x="291.894531" xlink:href="#DejaVuSans-120"/>
      <use x="351.074219" xlink:href="#DejaVuSans-105"/>
      <use x="378.857422" xlink:href="#DejaVuSans-118"/>
     </g>
    </g>
    <g id="line2d_69">
     <path d="M 710.971023 66.636563 
L 738.971023 66.636563 
" style="fill:none;stroke:#2ca02c;stroke-linecap:square;stroke-width:3;"/>
    </g>
    <g id="line2d_70"/>
    <g id="text_35">
     <!-- bioRxiv -->
     <defs>
      <path d="M 48.6875 27.296875 
Q 48.6875 37.203125 44.609375 42.84375 
Q 40.53125 48.484375 33.40625 48.484375 
Q 26.265625 48.484375 22.1875 42.84375 
Q 18.109375 37.203125 18.109375 27.296875 
Q 18.109375 17.390625 22.1875 11.75 
Q 26.265625 6.109375 33.40625 6.109375 
Q 40.53125 6.109375 44.609375 11.75 
Q 48.6875 17.390625 48.6875 27.296875 
z
M 18.109375 46.390625 
Q 20.953125 51.265625 25.265625 53.625 
Q 29.59375 56 35.59375 56 
Q 45.5625 56 51.78125 48.09375 
Q 58.015625 40.1875 58.015625 27.296875 
Q 58.015625 14.40625 51.78125 6.484375 
Q 45.5625 -1.421875 35.59375 -1.421875 
Q 29.59375 -1.421875 25.265625 0.953125 
Q 20.953125 3.328125 18.109375 8.203125 
L 18.109375 0 
L 9.078125 0 
L 9.078125 75.984375 
L 18.109375 75.984375 
z
" id="DejaVuSans-98"/>
     </defs>
     <g transform="translate(750.171023 71.536563)scale(0.14 -0.14)">
      <use xlink:href="#DejaVuSans-98"/>
      <use x="63.476562" xlink:href="#DejaVuSans-105"/>
      <use x="91.259766" xlink:href="#DejaVuSans-111"/>
      <use x="152.441406" xlink:href="#DejaVuSans-82"/>
      <use x="221.923828" xlink:href="#DejaVuSans-120"/>
      <use x="281.103516" xlink:href="#DejaVuSans-105"/>
      <use x="308.886719" xlink:href="#DejaVuSans-118"/>
     </g>
    </g>
   </g>
  </g>
 </g>
 <defs>
  <clipPath id="p7d153d4c4d">
   <rect height="587.52" width="507.272727" x="89.64375" y="7.2"/>
  </clipPath>
  <clipPath id="p6ff3b2f7a1">
   <rect height="587.52" width="507.272727" x="698.371023" y="7.2"/>
  </clipPath>
 </defs>
</svg>
