<?xml version="1.0" encoding="utf-8" standalone="no"?>
<!DOCTYPE svg PUBLIC "-//W3C//DTD SVG 1.1//EN"
  "http://www.w3.org/Graphics/SVG/1.1/DTD/svg11.dtd">
<!-- Created with matplotlib (https://matplotlib.org/) -->
<svg height="679.17498pt" version="1.1" viewBox="0 0 817.475 679.17498" width="817.475pt" xmlns="http://www.w3.org/2000/svg" xmlns:xlink="http://www.w3.org/1999/xlink">
 <defs>
  <style type="text/css">
*{stroke-linecap:butt;stroke-linejoin:round;}
  </style>
 </defs>
 <g id="figure_1">
  <g id="patch_1">
   <path d="M 0 679.17498 
L 817.475 679.17498 
L 817.475 0 
L 0 0 
z
" style="fill:#ffffff;"/>
  </g>
  <g id="axes_1">
   <g id="patch_2">
    <path d="M 140.675 274.254545 
L 810.275 274.254545 
L 810.275 7.2 
L 140.675 7.2 
z
" style="fill:#ffffff;"/>
   </g>
   <g id="matplotlib.axis_1">
    <g id="xtick_1">
     <g id="line2d_1">
      <path clip-path="url(#pa2ad159c21)" d="M 151.994309 274.254545 
L 151.994309 7.2 
" style="fill:none;stroke:#d3d3d3;stroke-linecap:square;stroke-width:0.8;"/>
     </g>
     <g id="line2d_2">
      <defs>
       <path d="M 0 0 
L 0 3.5 
" id="m7ae73f1006" style="stroke:#000000;stroke-width:0.8;"/>
      </defs>
      <g>
       <use style="stroke:#000000;stroke-width:0.8;" x="151.994309" xlink:href="#m7ae73f1006" y="274.254545"/>
      </g>
     </g>
    </g>
    <g id="xtick_2">
     <g id="line2d_3">
      <path clip-path="url(#pa2ad159c21)" d="M 213.370116 274.254545 
L 213.370116 7.2 
" style="fill:none;stroke:#d3d3d3;stroke-linecap:square;stroke-width:0.8;"/>
     </g>
     <g id="line2d_4">
      <g>
       <use style="stroke:#000000;stroke-width:0.8;" x="213.370116" xlink:href="#m7ae73f1006" y="274.254545"/>
      </g>
     </g>
    </g>
    <g id="xtick_3">
     <g id="line2d_5">
      <path clip-path="url(#pa2ad159c21)" d="M 274.745924 274.254545 
L 274.745924 7.2 
" style="fill:none;stroke:#d3d3d3;stroke-linecap:square;stroke-width:0.8;"/>
     </g>
     <g id="line2d_6">
      <g>
       <use style="stroke:#000000;stroke-width:0.8;" x="274.745924" xlink:href="#m7ae73f1006" y="274.254545"/>
      </g>
     </g>
    </g>
    <g id="xtick_4">
     <g id="line2d_7">
      <path clip-path="url(#pa2ad159c21)" d="M 337.127893 274.254545 
L 337.127893 7.2 
" style="fill:none;stroke:#d3d3d3;stroke-linecap:square;stroke-width:0.8;"/>
     </g>
     <g id="line2d_8">
      <g>
       <use style="stroke:#000000;stroke-width:0.8;" x="337.127893" xlink:href="#m7ae73f1006" y="274.254545"/>
      </g>
     </g>
    </g>
    <g id="xtick_5">
     <g id="line2d_9">
      <path clip-path="url(#pa2ad159c21)" d="M 398.5037 274.254545 
L 398.5037 7.2 
" style="fill:none;stroke:#d3d3d3;stroke-linecap:square;stroke-width:0.8;"/>
     </g>
     <g id="line2d_10">
      <g>
       <use style="stroke:#000000;stroke-width:0.8;" x="398.5037" xlink:href="#m7ae73f1006" y="274.254545"/>
      </g>
     </g>
    </g>
    <g id="xtick_6">
     <g id="line2d_11">
      <path clip-path="url(#pa2ad159c21)" d="M 459.879508 274.254545 
L 459.879508 7.2 
" style="fill:none;stroke:#d3d3d3;stroke-linecap:square;stroke-width:0.8;"/>
     </g>
     <g id="line2d_12">
      <g>
       <use style="stroke:#000000;stroke-width:0.8;" x="459.879508" xlink:href="#m7ae73f1006" y="274.254545"/>
      </g>
     </g>
    </g>
    <g id="xtick_7">
     <g id="line2d_13">
      <path clip-path="url(#pa2ad159c21)" d="M 519.242994 274.254545 
L 519.242994 7.2 
" style="fill:none;stroke:#d3d3d3;stroke-linecap:square;stroke-width:0.8;"/>
     </g>
     <g id="line2d_14">
      <g>
       <use style="stroke:#000000;stroke-width:0.8;" x="519.242994" xlink:href="#m7ae73f1006" y="274.254545"/>
      </g>
     </g>
    </g>
    <g id="xtick_8">
     <g id="line2d_15">
      <path clip-path="url(#pa2ad159c21)" d="M 580.618802 274.254545 
L 580.618802 7.2 
" style="fill:none;stroke:#d3d3d3;stroke-linecap:square;stroke-width:0.8;"/>
     </g>
     <g id="line2d_16">
      <g>
       <use style="stroke:#000000;stroke-width:0.8;" x="580.618802" xlink:href="#m7ae73f1006" y="274.254545"/>
      </g>
     </g>
    </g>
    <g id="xtick_9">
     <g id="line2d_17">
      <path clip-path="url(#pa2ad159c21)" d="M 641.994609 274.254545 
L 641.994609 7.2 
" style="fill:none;stroke:#d3d3d3;stroke-linecap:square;stroke-width:0.8;"/>
     </g>
     <g id="line2d_18">
      <g>
       <use style="stroke:#000000;stroke-width:0.8;" x="641.994609" xlink:href="#m7ae73f1006" y="274.254545"/>
      </g>
     </g>
    </g>
    <g id="xtick_10">
     <g id="line2d_19">
      <path clip-path="url(#pa2ad159c21)" d="M 704.376578 274.254545 
L 704.376578 7.2 
" style="fill:none;stroke:#d3d3d3;stroke-linecap:square;stroke-width:0.8;"/>
     </g>
     <g id="line2d_20">
      <g>
       <use style="stroke:#000000;stroke-width:0.8;" x="704.376578" xlink:href="#m7ae73f1006" y="274.254545"/>
      </g>
     </g>
    </g>
    <g id="xtick_11">
     <g id="line2d_21">
      <path clip-path="url(#pa2ad159c21)" d="M 765.752385 274.254545 
L 765.752385 7.2 
" style="fill:none;stroke:#d3d3d3;stroke-linecap:square;stroke-width:0.8;"/>
     </g>
     <g id="line2d_22">
      <g>
       <use style="stroke:#000000;stroke-width:0.8;" x="765.752385" xlink:href="#m7ae73f1006" y="274.254545"/>
      </g>
     </g>
    </g>
   </g>
   <g id="matplotlib.axis_2">
    <g id="ytick_1">
     <g id="line2d_23">
      <path clip-path="url(#pa2ad159c21)" d="M 140.675 274.254545 
L 810.275 274.254545 
" style="fill:none;stroke:#d3d3d3;stroke-linecap:square;stroke-width:0.8;"/>
     </g>
     <g id="line2d_24">
      <defs>
       <path d="M 0 0 
L -3.5 0 
" id="m1ff0747ef0" style="stroke:#000000;stroke-width:0.8;"/>
      </defs>
      <g>
       <use style="stroke:#000000;stroke-width:0.8;" x="140.675" xlink:href="#m1ff0747ef0" y="274.254545"/>
      </g>
     </g>
     <g id="text_1">
      <!-- 0 -->
      <defs>
       <path d="M 31.78125 66.40625 
Q 24.171875 66.40625 20.328125 58.90625 
Q 16.5 51.421875 16.5 36.375 
Q 16.5 21.390625 20.328125 13.890625 
Q 24.171875 6.390625 31.78125 6.390625 
Q 39.453125 6.390625 43.28125 13.890625 
Q 47.125 21.390625 47.125 36.375 
Q 47.125 51.421875 43.28125 58.90625 
Q 39.453125 66.40625 31.78125 66.40625 
z
M 31.78125 74.21875 
Q 44.046875 74.21875 50.515625 64.515625 
Q 56.984375 54.828125 56.984375 36.375 
Q 56.984375 17.96875 50.515625 8.265625 
Q 44.046875 -1.421875 31.78125 -1.421875 
Q 19.53125 -1.421875 13.0625 8.265625 
Q 6.59375 17.96875 6.59375 36.375 
Q 6.59375 54.828125 13.0625 64.515625 
Q 19.53125 74.21875 31.78125 74.21875 
z
" id="DejaVuSans-48"/>
      </defs>
      <g transform="translate(118.405 283.37267)scale(0.24 -0.24)">
       <use xlink:href="#DejaVuSans-48"/>
      </g>
     </g>
    </g>
    <g id="ytick_2">
     <g id="line2d_25">
      <path clip-path="url(#pa2ad159c21)" d="M 140.675 212.904668 
L 810.275 212.904668 
" style="fill:none;stroke:#d3d3d3;stroke-linecap:square;stroke-width:0.8;"/>
     </g>
     <g id="line2d_26">
      <g>
       <use style="stroke:#000000;stroke-width:0.8;" x="140.675" xlink:href="#m1ff0747ef0" y="212.904668"/>
      </g>
     </g>
     <g id="text_2">
      <!-- 200,000 -->
      <defs>
       <path d="M 19.1875 8.296875 
L 53.609375 8.296875 
L 53.609375 0 
L 7.328125 0 
L 7.328125 8.296875 
Q 12.9375 14.109375 22.625 23.890625 
Q 32.328125 33.6875 34.8125 36.53125 
Q 39.546875 41.84375 41.421875 45.53125 
Q 43.3125 49.21875 43.3125 52.78125 
Q 43.3125 58.59375 39.234375 62.25 
Q 35.15625 65.921875 28.609375 65.921875 
Q 23.96875 65.921875 18.8125 64.3125 
Q 13.671875 62.703125 7.8125 59.421875 
L 7.8125 69.390625 
Q 13.765625 71.78125 18.9375 73 
Q 24.125 74.21875 28.421875 74.21875 
Q 39.75 74.21875 46.484375 68.546875 
Q 53.21875 62.890625 53.21875 53.421875 
Q 53.21875 48.921875 51.53125 44.890625 
Q 49.859375 40.875 45.40625 35.40625 
Q 44.1875 33.984375 37.640625 27.21875 
Q 31.109375 20.453125 19.1875 8.296875 
z
" id="DejaVuSans-50"/>
       <path d="M 11.71875 12.40625 
L 22.015625 12.40625 
L 22.015625 4 
L 14.015625 -11.625 
L 7.71875 -11.625 
L 11.71875 4 
z
" id="DejaVuSans-44"/>
      </defs>
      <g transform="translate(34.4275 222.022793)scale(0.24 -0.24)">
       <use xlink:href="#DejaVuSans-50"/>
       <use x="63.623047" xlink:href="#DejaVuSans-48"/>
       <use x="127.246094" xlink:href="#DejaVuSans-48"/>
       <use x="190.869141" xlink:href="#DejaVuSans-44"/>
       <use x="222.65625" xlink:href="#DejaVuSans-48"/>
       <use x="286.279297" xlink:href="#DejaVuSans-48"/>
       <use x="349.902344" xlink:href="#DejaVuSans-48"/>
      </g>
     </g>
    </g>
    <g id="ytick_3">
     <g id="line2d_27">
      <path clip-path="url(#pa2ad159c21)" d="M 140.675 151.55479 
L 810.275 151.55479 
" style="fill:none;stroke:#d3d3d3;stroke-linecap:square;stroke-width:0.8;"/>
     </g>
     <g id="line2d_28">
      <g>
       <use style="stroke:#000000;stroke-width:0.8;" x="140.675" xlink:href="#m1ff0747ef0" y="151.55479"/>
      </g>
     </g>
     <g id="text_3">
      <!-- 400,000 -->
      <defs>
       <path d="M 37.796875 64.3125 
L 12.890625 25.390625 
L 37.796875 25.390625 
z
M 35.203125 72.90625 
L 47.609375 72.90625 
L 47.609375 25.390625 
L 58.015625 25.390625 
L 58.015625 17.1875 
L 47.609375 17.1875 
L 47.609375 0 
L 37.796875 0 
L 37.796875 17.1875 
L 4.890625 17.1875 
L 4.890625 26.703125 
z
" id="DejaVuSans-52"/>
      </defs>
      <g transform="translate(34.4275 160.672915)scale(0.24 -0.24)">
       <use xlink:href="#DejaVuSans-52"/>
       <use x="63.623047" xlink:href="#DejaVuSans-48"/>
       <use x="127.246094" xlink:href="#DejaVuSans-48"/>
       <use x="190.869141" xlink:href="#DejaVuSans-44"/>
       <use x="222.65625" xlink:href="#DejaVuSans-48"/>
       <use x="286.279297" xlink:href="#DejaVuSans-48"/>
       <use x="349.902344" xlink:href="#DejaVuSans-48"/>
      </g>
     </g>
    </g>
    <g id="ytick_4">
     <g id="line2d_29">
      <path clip-path="url(#pa2ad159c21)" d="M 140.675 90.204912 
L 810.275 90.204912 
" style="fill:none;stroke:#d3d3d3;stroke-linecap:square;stroke-width:0.8;"/>
     </g>
     <g id="line2d_30">
      <g>
       <use style="stroke:#000000;stroke-width:0.8;" x="140.675" xlink:href="#m1ff0747ef0" y="90.204912"/>
      </g>
     </g>
     <g id="text_4">
      <!-- 600,000 -->
      <defs>
       <path d="M 33.015625 40.375 
Q 26.375 40.375 22.484375 35.828125 
Q 18.609375 31.296875 18.609375 23.390625 
Q 18.609375 15.53125 22.484375 10.953125 
Q 26.375 6.390625 33.015625 6.390625 
Q 39.65625 6.390625 43.53125 10.953125 
Q 47.40625 15.53125 47.40625 23.390625 
Q 47.40625 31.296875 43.53125 35.828125 
Q 39.65625 40.375 33.015625 40.375 
z
M 52.59375 71.296875 
L 52.59375 62.3125 
Q 48.875 64.0625 45.09375 64.984375 
Q 41.3125 65.921875 37.59375 65.921875 
Q 27.828125 65.921875 22.671875 59.328125 
Q 17.53125 52.734375 16.796875 39.40625 
Q 19.671875 43.65625 24.015625 45.921875 
Q 28.375 48.1875 33.59375 48.1875 
Q 44.578125 48.1875 50.953125 41.515625 
Q 57.328125 34.859375 57.328125 23.390625 
Q 57.328125 12.15625 50.6875 5.359375 
Q 44.046875 -1.421875 33.015625 -1.421875 
Q 20.359375 -1.421875 13.671875 8.265625 
Q 6.984375 17.96875 6.984375 36.375 
Q 6.984375 53.65625 15.1875 63.9375 
Q 23.390625 74.21875 37.203125 74.21875 
Q 40.921875 74.21875 44.703125 73.484375 
Q 48.484375 72.75 52.59375 71.296875 
z
" id="DejaVuSans-54"/>
      </defs>
      <g transform="translate(34.4275 99.323037)scale(0.24 -0.24)">
       <use xlink:href="#DejaVuSans-54"/>
       <use x="63.623047" xlink:href="#DejaVuSans-48"/>
       <use x="127.246094" xlink:href="#DejaVuSans-48"/>
       <use x="190.869141" xlink:href="#DejaVuSans-44"/>
       <use x="222.65625" xlink:href="#DejaVuSans-48"/>
       <use x="286.279297" xlink:href="#DejaVuSans-48"/>
       <use x="349.902344" xlink:href="#DejaVuSans-48"/>
      </g>
     </g>
    </g>
    <g id="ytick_5">
     <g id="line2d_31">
      <path clip-path="url(#pa2ad159c21)" d="M 140.675 28.855034 
L 810.275 28.855034 
" style="fill:none;stroke:#d3d3d3;stroke-linecap:square;stroke-width:0.8;"/>
     </g>
     <g id="line2d_32">
      <g>
       <use style="stroke:#000000;stroke-width:0.8;" x="140.675" xlink:href="#m1ff0747ef0" y="28.855034"/>
      </g>
     </g>
     <g id="text_5">
      <!-- 800,000 -->
      <defs>
       <path d="M 31.78125 34.625 
Q 24.75 34.625 20.71875 30.859375 
Q 16.703125 27.09375 16.703125 20.515625 
Q 16.703125 13.921875 20.71875 10.15625 
Q 24.75 6.390625 31.78125 6.390625 
Q 38.8125 6.390625 42.859375 10.171875 
Q 46.921875 13.96875 46.921875 20.515625 
Q 46.921875 27.09375 42.890625 30.859375 
Q 38.875 34.625 31.78125 34.625 
z
M 21.921875 38.8125 
Q 15.578125 40.375 12.03125 44.71875 
Q 8.5 49.078125 8.5 55.328125 
Q 8.5 64.0625 14.71875 69.140625 
Q 20.953125 74.21875 31.78125 74.21875 
Q 42.671875 74.21875 48.875 69.140625 
Q 55.078125 64.0625 55.078125 55.328125 
Q 55.078125 49.078125 51.53125 44.71875 
Q 48 40.375 41.703125 38.8125 
Q 48.828125 37.15625 52.796875 32.3125 
Q 56.78125 27.484375 56.78125 20.515625 
Q 56.78125 9.90625 50.3125 4.234375 
Q 43.84375 -1.421875 31.78125 -1.421875 
Q 19.734375 -1.421875 13.25 4.234375 
Q 6.78125 9.90625 6.78125 20.515625 
Q 6.78125 27.484375 10.78125 32.3125 
Q 14.796875 37.15625 21.921875 38.8125 
z
M 18.3125 54.390625 
Q 18.3125 48.734375 21.84375 45.5625 
Q 25.390625 42.390625 31.78125 42.390625 
Q 38.140625 42.390625 41.71875 45.5625 
Q 45.3125 48.734375 45.3125 54.390625 
Q 45.3125 60.0625 41.71875 63.234375 
Q 38.140625 66.40625 31.78125 66.40625 
Q 25.390625 66.40625 21.84375 63.234375 
Q 18.3125 60.0625 18.3125 54.390625 
z
" id="DejaVuSans-56"/>
      </defs>
      <g transform="translate(34.4275 37.973159)scale(0.24 -0.24)">
       <use xlink:href="#DejaVuSans-56"/>
       <use x="63.623047" xlink:href="#DejaVuSans-48"/>
       <use x="127.246094" xlink:href="#DejaVuSans-48"/>
       <use x="190.869141" xlink:href="#DejaVuSans-44"/>
       <use x="222.65625" xlink:href="#DejaVuSans-48"/>
       <use x="286.279297" xlink:href="#DejaVuSans-48"/>
       <use x="349.902344" xlink:href="#DejaVuSans-48"/>
      </g>
     </g>
    </g>
    <g id="text_6">
     <!-- Total manuscripts -->
     <defs>
      <path d="M -0.296875 72.90625 
L 61.375 72.90625 
L 61.375 64.59375 
L 35.5 64.59375 
L 35.5 0 
L 25.59375 0 
L 25.59375 64.59375 
L -0.296875 64.59375 
z
" id="DejaVuSans-84"/>
      <path d="M 30.609375 48.390625 
Q 23.390625 48.390625 19.1875 42.75 
Q 14.984375 37.109375 14.984375 27.296875 
Q 14.984375 17.484375 19.15625 11.84375 
Q 23.34375 6.203125 30.609375 6.203125 
Q 37.796875 6.203125 41.984375 11.859375 
Q 46.1875 17.53125 46.1875 27.296875 
Q 46.1875 37.015625 41.984375 42.703125 
Q 37.796875 48.390625 30.609375 48.390625 
z
M 30.609375 56 
Q 42.328125 56 49.015625 48.375 
Q 55.71875 40.765625 55.71875 27.296875 
Q 55.71875 13.875 49.015625 6.21875 
Q 42.328125 -1.421875 30.609375 -1.421875 
Q 18.84375 -1.421875 12.171875 6.21875 
Q 5.515625 13.875 5.515625 27.296875 
Q 5.515625 40.765625 12.171875 48.375 
Q 18.84375 56 30.609375 56 
z
" id="DejaVuSans-111"/>
      <path d="M 18.3125 70.21875 
L 18.3125 54.6875 
L 36.8125 54.6875 
L 36.8125 47.703125 
L 18.3125 47.703125 
L 18.3125 18.015625 
Q 18.3125 11.328125 20.140625 9.421875 
Q 21.96875 7.515625 27.59375 7.515625 
L 36.8125 7.515625 
L 36.8125 0 
L 27.59375 0 
Q 17.1875 0 13.234375 3.875 
Q 9.28125 7.765625 9.28125 18.015625 
L 9.28125 47.703125 
L 2.6875 47.703125 
L 2.6875 54.6875 
L 9.28125 54.6875 
L 9.28125 70.21875 
z
" id="DejaVuSans-116"/>
      <path d="M 34.28125 27.484375 
Q 23.390625 27.484375 19.1875 25 
Q 14.984375 22.515625 14.984375 16.5 
Q 14.984375 11.71875 18.140625 8.90625 
Q 21.296875 6.109375 26.703125 6.109375 
Q 34.1875 6.109375 38.703125 11.40625 
Q 43.21875 16.703125 43.21875 25.484375 
L 43.21875 27.484375 
z
M 52.203125 31.203125 
L 52.203125 0 
L 43.21875 0 
L 43.21875 8.296875 
Q 40.140625 3.328125 35.546875 0.953125 
Q 30.953125 -1.421875 24.3125 -1.421875 
Q 15.921875 -1.421875 10.953125 3.296875 
Q 6 8.015625 6 15.921875 
Q 6 25.140625 12.171875 29.828125 
Q 18.359375 34.515625 30.609375 34.515625 
L 43.21875 34.515625 
L 43.21875 35.40625 
Q 43.21875 41.609375 39.140625 45 
Q 35.0625 48.390625 27.6875 48.390625 
Q 23 48.390625 18.546875 47.265625 
Q 14.109375 46.140625 10.015625 43.890625 
L 10.015625 52.203125 
Q 14.9375 54.109375 19.578125 55.046875 
Q 24.21875 56 28.609375 56 
Q 40.484375 56 46.34375 49.84375 
Q 52.203125 43.703125 52.203125 31.203125 
z
" id="DejaVuSans-97"/>
      <path d="M 9.421875 75.984375 
L 18.40625 75.984375 
L 18.40625 0 
L 9.421875 0 
z
" id="DejaVuSans-108"/>
      <path id="DejaVuSans-32"/>
      <path d="M 52 44.1875 
Q 55.375 50.25 60.0625 53.125 
Q 64.75 56 71.09375 56 
Q 79.640625 56 84.28125 50.015625 
Q 88.921875 44.046875 88.921875 33.015625 
L 88.921875 0 
L 79.890625 0 
L 79.890625 32.71875 
Q 79.890625 40.578125 77.09375 44.375 
Q 74.3125 48.1875 68.609375 48.1875 
Q 61.625 48.1875 57.5625 43.546875 
Q 53.515625 38.921875 53.515625 30.90625 
L 53.515625 0 
L 44.484375 0 
L 44.484375 32.71875 
Q 44.484375 40.625 41.703125 44.40625 
Q 38.921875 48.1875 33.109375 48.1875 
Q 26.21875 48.1875 22.15625 43.53125 
Q 18.109375 38.875 18.109375 30.90625 
L 18.109375 0 
L 9.078125 0 
L 9.078125 54.6875 
L 18.109375 54.6875 
L 18.109375 46.1875 
Q 21.1875 51.21875 25.484375 53.609375 
Q 29.78125 56 35.6875 56 
Q 41.65625 56 45.828125 52.96875 
Q 50 49.953125 52 44.1875 
z
" id="DejaVuSans-109"/>
      <path d="M 54.890625 33.015625 
L 54.890625 0 
L 45.90625 0 
L 45.90625 32.71875 
Q 45.90625 40.484375 42.875 44.328125 
Q 39.84375 48.1875 33.796875 48.1875 
Q 26.515625 48.1875 22.3125 43.546875 
Q 18.109375 38.921875 18.109375 30.90625 
L 18.109375 0 
L 9.078125 0 
L 9.078125 54.6875 
L 18.109375 54.6875 
L 18.109375 46.1875 
Q 21.34375 51.125 25.703125 53.5625 
Q 30.078125 56 35.796875 56 
Q 45.21875 56 50.046875 50.171875 
Q 54.890625 44.34375 54.890625 33.015625 
z
" id="DejaVuSans-110"/>
      <path d="M 8.5 21.578125 
L 8.5 54.6875 
L 17.484375 54.6875 
L 17.484375 21.921875 
Q 17.484375 14.15625 20.5 10.265625 
Q 23.53125 6.390625 29.59375 6.390625 
Q 36.859375 6.390625 41.078125 11.03125 
Q 45.3125 15.671875 45.3125 23.6875 
L 45.3125 54.6875 
L 54.296875 54.6875 
L 54.296875 0 
L 45.3125 0 
L 45.3125 8.40625 
Q 42.046875 3.421875 37.71875 1 
Q 33.40625 -1.421875 27.6875 -1.421875 
Q 18.265625 -1.421875 13.375 4.4375 
Q 8.5 10.296875 8.5 21.578125 
z
M 31.109375 56 
z
" id="DejaVuSans-117"/>
      <path d="M 44.28125 53.078125 
L 44.28125 44.578125 
Q 40.484375 46.53125 36.375 47.5 
Q 32.28125 48.484375 27.875 48.484375 
Q 21.1875 48.484375 17.84375 46.4375 
Q 14.5 44.390625 14.5 40.28125 
Q 14.5 37.15625 16.890625 35.375 
Q 19.28125 33.59375 26.515625 31.984375 
L 29.59375 31.296875 
Q 39.15625 29.25 43.1875 25.515625 
Q 47.21875 21.78125 47.21875 15.09375 
Q 47.21875 7.46875 41.1875 3.015625 
Q 35.15625 -1.421875 24.609375 -1.421875 
Q 20.21875 -1.421875 15.453125 -0.5625 
Q 10.6875 0.296875 5.421875 2 
L 5.421875 11.28125 
Q 10.40625 8.6875 15.234375 7.390625 
Q 20.0625 6.109375 24.8125 6.109375 
Q 31.15625 6.109375 34.5625 8.28125 
Q 37.984375 10.453125 37.984375 14.40625 
Q 37.984375 18.0625 35.515625 20.015625 
Q 33.0625 21.96875 24.703125 23.78125 
L 21.578125 24.515625 
Q 13.234375 26.265625 9.515625 29.90625 
Q 5.8125 33.546875 5.8125 39.890625 
Q 5.8125 47.609375 11.28125 51.796875 
Q 16.75 56 26.8125 56 
Q 31.78125 56 36.171875 55.265625 
Q 40.578125 54.546875 44.28125 53.078125 
z
" id="DejaVuSans-115"/>
      <path d="M 48.78125 52.59375 
L 48.78125 44.1875 
Q 44.96875 46.296875 41.140625 47.34375 
Q 37.3125 48.390625 33.40625 48.390625 
Q 24.65625 48.390625 19.8125 42.84375 
Q 14.984375 37.3125 14.984375 27.296875 
Q 14.984375 17.28125 19.8125 11.734375 
Q 24.65625 6.203125 33.40625 6.203125 
Q 37.3125 6.203125 41.140625 7.25 
Q 44.96875 8.296875 48.78125 10.40625 
L 48.78125 2.09375 
Q 45.015625 0.34375 40.984375 -0.53125 
Q 36.96875 -1.421875 32.421875 -1.421875 
Q 20.0625 -1.421875 12.78125 6.34375 
Q 5.515625 14.109375 5.515625 27.296875 
Q 5.515625 40.671875 12.859375 48.328125 
Q 20.21875 56 33.015625 56 
Q 37.15625 56 41.109375 55.140625 
Q 45.0625 54.296875 48.78125 52.59375 
z
" id="DejaVuSans-99"/>
      <path d="M 41.109375 46.296875 
Q 39.59375 47.171875 37.8125 47.578125 
Q 36.03125 48 33.890625 48 
Q 26.265625 48 22.1875 43.046875 
Q 18.109375 38.09375 18.109375 28.8125 
L 18.109375 0 
L 9.078125 0 
L 9.078125 54.6875 
L 18.109375 54.6875 
L 18.109375 46.1875 
Q 20.953125 51.171875 25.484375 53.578125 
Q 30.03125 56 36.53125 56 
Q 37.453125 56 38.578125 55.875 
Q 39.703125 55.765625 41.0625 55.515625 
z
" id="DejaVuSans-114"/>
      <path d="M 9.421875 54.6875 
L 18.40625 54.6875 
L 18.40625 0 
L 9.421875 0 
z
M 9.421875 75.984375 
L 18.40625 75.984375 
L 18.40625 64.59375 
L 9.421875 64.59375 
z
" id="DejaVuSans-105"/>
      <path d="M 18.109375 8.203125 
L 18.109375 -20.796875 
L 9.078125 -20.796875 
L 9.078125 54.6875 
L 18.109375 54.6875 
L 18.109375 46.390625 
Q 20.953125 51.265625 25.265625 53.625 
Q 29.59375 56 35.59375 56 
Q 45.5625 56 51.78125 48.09375 
Q 58.015625 40.1875 58.015625 27.296875 
Q 58.015625 14.40625 51.78125 6.484375 
Q 45.5625 -1.421875 35.59375 -1.421875 
Q 29.59375 -1.421875 25.265625 0.953125 
Q 20.953125 3.328125 18.109375 8.203125 
z
M 48.6875 27.296875 
Q 48.6875 37.203125 44.609375 42.84375 
Q 40.53125 48.484375 33.40625 48.484375 
Q 26.265625 48.484375 22.1875 42.84375 
Q 18.109375 37.203125 18.109375 27.296875 
Q 18.109375 17.390625 22.1875 11.75 
Q 26.265625 6.109375 33.40625 6.109375 
Q 40.53125 6.109375 44.609375 11.75 
Q 48.6875 17.390625 48.6875 27.296875 
z
" id="DejaVuSans-112"/>
     </defs>
     <g transform="translate(25.43625 248.515398)rotate(-90)scale(0.24 -0.24)">
      <use xlink:href="#DejaVuSans-84"/>
      <use x="60.818359" xlink:href="#DejaVuSans-111"/>
      <use x="122" xlink:href="#DejaVuSans-116"/>
      <use x="161.208984" xlink:href="#DejaVuSans-97"/>
      <use x="222.488281" xlink:href="#DejaVuSans-108"/>
      <use x="250.271484" xlink:href="#DejaVuSans-32"/>
      <use x="282.058594" xlink:href="#DejaVuSans-109"/>
      <use x="379.470703" xlink:href="#DejaVuSans-97"/>
      <use x="440.75" xlink:href="#DejaVuSans-110"/>
      <use x="504.128906" xlink:href="#DejaVuSans-117"/>
      <use x="567.507812" xlink:href="#DejaVuSans-115"/>
      <use x="619.607422" xlink:href="#DejaVuSans-99"/>
      <use x="674.587891" xlink:href="#DejaVuSans-114"/>
      <use x="715.701172" xlink:href="#DejaVuSans-105"/>
      <use x="743.484375" xlink:href="#DejaVuSans-112"/>
      <use x="806.960938" xlink:href="#DejaVuSans-116"/>
      <use x="846.169922" xlink:href="#DejaVuSans-115"/>
     </g>
    </g>
   </g>
   <g id="line2d_33">
    <path clip-path="url(#pa2ad159c21)" d="M 171.111364 260.690087 
L 185.197615 259.745913 
L 192.24074 258.5864 
L 199.283866 258.181491 
L 206.326991 256.65756 
L 224.437885 254.75418 
L 231.481011 234.839703 
L 238.524136 233.086937 
L 239.530297 232.516076 
L 241.542618 231.675583 
L 242.548779 231.597669 
L 244.561101 231.14644 
L 245.567261 230.969446 
L 246.573422 232.797672 
L 247.579583 232.597058 
L 250.598065 232.357794 
L 251.604226 232.103805 
L 253.616548 231.373435 
L 254.622708 231.156563 
L 255.628869 231.070367 
L 258.647352 230.418524 
L 259.653512 229.308091 
L 260.659673 225.974032 
L 262.671995 225.704093 
L 264.684316 225.528325 
L 265.690477 225.49765 
L 266.696638 225.06544 
L 267.702799 225.14949 
L 268.708959 224.694887 
L 269.71512 224.087523 
L 270.721281 223.998259 
L 271.727442 222.883225 
L 272.733603 222.77525 
L 274.745924 222.162058 
L 276.758246 218.992723 
L 277.764406 218.593028 
L 279.776728 218.325543 
L 280.782889 218.076156 
L 281.78905 217.527688 
L 283.801371 216.914189 
L 285.813693 216.604679 
L 287.826014 215.773695 
L 288.832175 215.556516 
L 289.838336 215.202527 
L 296.881461 213.478596 
L 300.906104 213.183196 
L 301.912265 212.248531 
L 302.918426 211.945156 
L 303.924587 211.824296 
L 304.930748 211.425215 
L 307.94923 210.662023 
L 308.955391 210.574906 
L 310.967712 209.71294 
L 311.973873 209.458952 
L 312.980034 209.672449 
L 317.004677 208.852508 
L 318.010838 208.14177 
L 319.016998 207.817843 
L 320.023159 205.342375 
L 321.02932 204.741453 
L 323.041642 204.48501 
L 325.053963 203.735315 
L 326.060124 203.603106 
L 328.072446 202.694821 
L 329.078606 202.6166 
L 330.084767 202.388072 
L 333.103249 201.041442 
L 334.10941 200.941442 
L 337.127893 199.970886 
L 338.134053 199.462296 
L 339.140214 199.08346 
L 344.171018 197.516585 
L 345.177179 197.035602 
L 347.1895 196.507686 
L 350.207983 194.152157 
L 351.214144 193.72823 
L 352.220304 192.636815 
L 353.226465 192.605527 
L 354.232626 191.995402 
L 355.238787 191.145707 
L 356.244947 190.499692 
L 358.257269 190.19509 
L 359.26343 189.815641 
L 360.269591 189.279443 
L 361.275751 188.52576 
L 363.288073 187.743549 
L 367.312716 186.841706 
L 370.331198 186.093237 
L 371.337359 185.961028 
L 373.349681 185.350904 
L 374.355841 184.193538 
L 375.362002 183.903967 
L 376.368163 182.284637 
L 377.374324 181.718378 
L 380.392806 180.895369 
L 383.411289 179.972974 
L 384.417449 179.406407 
L 385.42361 179.369291 
L 386.429771 178.906406 
L 387.435932 178.666528 
L 389.448253 177.33769 
L 391.460575 176.666215 
L 393.472896 176.21284 
L 394.479057 175.935845 
L 395.485218 175.345966 
L 397.497539 172.781541 
L 398.5037 172.273257 
L 400.516022 171.958839 
L 401.522183 171.713746 
L 403.534504 170.195337 
L 405.546826 169.434292 
L 407.559147 169.111898 
L 409.571469 168.219564 
L 410.57763 168.039809 
L 411.58379 165.51066 
L 412.589951 165.190414 
L 414.602273 164.933971 
L 415.608434 164.538878 
L 417.620755 164.035196 
L 419.633077 163.360654 
L 421.645398 163.060653 
L 424.663881 161.605127 
L 425.670041 161.479053 
L 431.707006 159.666164 
L 432.713167 159.527513 
L 433.719328 159.256654 
L 434.725488 159.19469 
L 437.743971 158.228123 
L 438.750131 157.818919 
L 439.756292 157.697753 
L 440.762453 157.132414 
L 444.787096 155.221365 
L 445.793257 154.595597 
L 447.805579 153.981791 
L 449.8179 153.711852 
L 450.824061 153.177187 
L 451.830222 152.858475 
L 452.836382 152.845591 
L 457.867186 152.358473 
L 458.873347 151.518287 
L 462.89799 151.423808 
L 464.910312 151.120433 
L 465.916473 148.13116 
L 466.922633 147.568275 
L 467.928794 147.254164 
L 468.934955 146.585757 
L 470.947276 146.296492 
L 472.959598 145.467655 
L 474.97192 143.971638 
L 475.97808 143.683907 
L 476.984241 143.641883 
L 477.990402 143.244642 
L 480.002724 142.912433 
L 482.015045 141.989424 
L 483.021206 141.565803 
L 485.033527 141.301385 
L 487.045849 139.661503 
L 488.05201 139.555061 
L 489.058171 139.147084 
L 491.070492 138.937574 
L 498.113618 136.099222 
L 505.156743 132.913323 
L 512.199869 130.842764 
L 519.242994 128.003799 
L 526.286119 126.333548 
L 540.37237 123.670044 
L 547.415496 121.522184 
L 554.458621 114.082591 
L 562.507908 111.784425 
L 568.544872 109.586259 
L 575.587998 107.258338 
L 582.631123 104.644219 
L 589.674249 100.068746 
L 596.717374 96.568428 
L 603.7605 93.897868 
L 610.803625 90.322704 
L 624.889876 74.582779 
L 631.933002 71.95271 
L 638.976127 68.802087 
L 646.019252 65.160052 
L 653.062378 62.205135 
L 660.105503 56.721376 
L 667.148629 53.857564 
L 674.191754 50.402952 
L 681.23488 47.167359 
L 691.296488 44.590971 
L 695.321131 41.630226 
L 702.364256 38.386045 
L 709.407382 43.59649 
L 730.536758 39.730221 
L 744.623009 33.374066 
L 758.70926 28.296137 
L 765.752385 25.40165 
L 772.795511 22.020965 
L 779.838636 19.270957 
L 779.838636 19.270957 
" style="fill:none;stroke:#1f77b4;stroke-linecap:square;stroke-width:5;"/>
   </g>
   <g id="patch_3">
    <path d="M 140.675 274.254545 
L 140.675 7.2 
" style="fill:none;stroke:#000000;stroke-linecap:square;stroke-linejoin:miter;stroke-width:0.8;"/>
   </g>
   <g id="patch_4">
    <path d="M 140.675 274.254545 
L 810.275 274.254545 
" style="fill:none;stroke:#000000;stroke-linecap:square;stroke-linejoin:miter;stroke-width:0.8;"/>
   </g>
  </g>
  <g id="axes_2">
   <g id="patch_5">
    <path d="M 140.675 594.72 
L 810.275 594.72 
L 810.275 327.665455 
L 140.675 327.665455 
z
" style="fill:#ffffff;"/>
   </g>
   <g id="matplotlib.axis_3">
    <g id="xtick_12">
     <g id="line2d_34">
      <path clip-path="url(#p7805ab7628)" d="M 151.994309 594.72 
L 151.994309 327.665455 
" style="fill:none;stroke:#d3d3d3;stroke-linecap:square;stroke-width:0.8;"/>
     </g>
     <g id="line2d_35">
      <g>
       <use style="stroke:#000000;stroke-width:0.8;" x="151.994309" xlink:href="#m7ae73f1006" y="594.72"/>
      </g>
     </g>
     <g id="text_7">
      <!-- 2020-03 -->
      <defs>
       <path d="M 4.890625 31.390625 
L 31.203125 31.390625 
L 31.203125 23.390625 
L 4.890625 23.390625 
z
" id="DejaVuSans-45"/>
       <path d="M 40.578125 39.3125 
Q 47.65625 37.796875 51.625 33 
Q 55.609375 28.21875 55.609375 21.1875 
Q 55.609375 10.40625 48.1875 4.484375 
Q 40.765625 -1.421875 27.09375 -1.421875 
Q 22.515625 -1.421875 17.65625 -0.515625 
Q 12.796875 0.390625 7.625 2.203125 
L 7.625 11.71875 
Q 11.71875 9.328125 16.59375 8.109375 
Q 21.484375 6.890625 26.8125 6.890625 
Q 36.078125 6.890625 40.9375 10.546875 
Q 45.796875 14.203125 45.796875 21.1875 
Q 45.796875 27.640625 41.28125 31.265625 
Q 36.765625 34.90625 28.71875 34.90625 
L 20.21875 34.90625 
L 20.21875 43.015625 
L 29.109375 43.015625 
Q 36.375 43.015625 40.234375 45.921875 
Q 44.09375 48.828125 44.09375 54.296875 
Q 44.09375 59.90625 40.109375 62.90625 
Q 36.140625 65.921875 28.71875 65.921875 
Q 24.65625 65.921875 20.015625 65.03125 
Q 15.375 64.15625 9.8125 62.3125 
L 9.8125 71.09375 
Q 15.4375 72.65625 20.34375 73.4375 
Q 25.25 74.21875 29.59375 74.21875 
Q 40.828125 74.21875 47.359375 69.109375 
Q 53.90625 64.015625 53.90625 55.328125 
Q 53.90625 49.265625 50.4375 45.09375 
Q 46.96875 40.921875 40.578125 39.3125 
z
" id="DejaVuSans-51"/>
      </defs>
      <g transform="translate(62.654739 667.652431)rotate(-30)scale(0.24 -0.24)">
       <use xlink:href="#DejaVuSans-50"/>
       <use x="63.623047" xlink:href="#DejaVuSans-48"/>
       <use x="127.246094" xlink:href="#DejaVuSans-50"/>
       <use x="190.869141" xlink:href="#DejaVuSans-48"/>
       <use x="254.492188" xlink:href="#DejaVuSans-45"/>
       <use x="290.576172" xlink:href="#DejaVuSans-48"/>
       <use x="354.199219" xlink:href="#DejaVuSans-51"/>
      </g>
     </g>
    </g>
    <g id="xtick_13">
     <g id="line2d_36">
      <path clip-path="url(#p7805ab7628)" d="M 213.370116 594.72 
L 213.370116 327.665455 
" style="fill:none;stroke:#d3d3d3;stroke-linecap:square;stroke-width:0.8;"/>
     </g>
     <g id="line2d_37">
      <g>
       <use style="stroke:#000000;stroke-width:0.8;" x="213.370116" xlink:href="#m7ae73f1006" y="594.72"/>
      </g>
     </g>
     <g id="text_8">
      <!-- 2020-05 -->
      <defs>
       <path d="M 10.796875 72.90625 
L 49.515625 72.90625 
L 49.515625 64.59375 
L 19.828125 64.59375 
L 19.828125 46.734375 
Q 21.96875 47.46875 24.109375 47.828125 
Q 26.265625 48.1875 28.421875 48.1875 
Q 40.625 48.1875 47.75 41.5 
Q 54.890625 34.8125 54.890625 23.390625 
Q 54.890625 11.625 47.5625 5.09375 
Q 40.234375 -1.421875 26.90625 -1.421875 
Q 22.3125 -1.421875 17.546875 -0.640625 
Q 12.796875 0.140625 7.71875 1.703125 
L 7.71875 11.625 
Q 12.109375 9.234375 16.796875 8.0625 
Q 21.484375 6.890625 26.703125 6.890625 
Q 35.15625 6.890625 40.078125 11.328125 
Q 45.015625 15.765625 45.015625 23.390625 
Q 45.015625 31 40.078125 35.4375 
Q 35.15625 39.890625 26.703125 39.890625 
Q 22.75 39.890625 18.8125 39.015625 
Q 14.890625 38.140625 10.796875 36.28125 
z
" id="DejaVuSans-53"/>
      </defs>
      <g transform="translate(124.030546 667.652431)rotate(-30)scale(0.24 -0.24)">
       <use xlink:href="#DejaVuSans-50"/>
       <use x="63.623047" xlink:href="#DejaVuSans-48"/>
       <use x="127.246094" xlink:href="#DejaVuSans-50"/>
       <use x="190.869141" xlink:href="#DejaVuSans-48"/>
       <use x="254.492188" xlink:href="#DejaVuSans-45"/>
       <use x="290.576172" xlink:href="#DejaVuSans-48"/>
       <use x="354.199219" xlink:href="#DejaVuSans-53"/>
      </g>
     </g>
    </g>
    <g id="xtick_14">
     <g id="line2d_38">
      <path clip-path="url(#p7805ab7628)" d="M 274.745924 594.72 
L 274.745924 327.665455 
" style="fill:none;stroke:#d3d3d3;stroke-linecap:square;stroke-width:0.8;"/>
     </g>
     <g id="line2d_39">
      <g>
       <use style="stroke:#000000;stroke-width:0.8;" x="274.745924" xlink:href="#m7ae73f1006" y="594.72"/>
      </g>
     </g>
     <g id="text_9">
      <!-- 2020-07 -->
      <defs>
       <path d="M 8.203125 72.90625 
L 55.078125 72.90625 
L 55.078125 68.703125 
L 28.609375 0 
L 18.3125 0 
L 43.21875 64.59375 
L 8.203125 64.59375 
z
" id="DejaVuSans-55"/>
      </defs>
      <g transform="translate(185.406354 667.652431)rotate(-30)scale(0.24 -0.24)">
       <use xlink:href="#DejaVuSans-50"/>
       <use x="63.623047" xlink:href="#DejaVuSans-48"/>
       <use x="127.246094" xlink:href="#DejaVuSans-50"/>
       <use x="190.869141" xlink:href="#DejaVuSans-48"/>
       <use x="254.492188" xlink:href="#DejaVuSans-45"/>
       <use x="290.576172" xlink:href="#DejaVuSans-48"/>
       <use x="354.199219" xlink:href="#DejaVuSans-55"/>
      </g>
     </g>
    </g>
    <g id="xtick_15">
     <g id="line2d_40">
      <path clip-path="url(#p7805ab7628)" d="M 337.127893 594.72 
L 337.127893 327.665455 
" style="fill:none;stroke:#d3d3d3;stroke-linecap:square;stroke-width:0.8;"/>
     </g>
     <g id="line2d_41">
      <g>
       <use style="stroke:#000000;stroke-width:0.8;" x="337.127893" xlink:href="#m7ae73f1006" y="594.72"/>
      </g>
     </g>
     <g id="text_10">
      <!-- 2020-09 -->
      <defs>
       <path d="M 10.984375 1.515625 
L 10.984375 10.5 
Q 14.703125 8.734375 18.5 7.8125 
Q 22.3125 6.890625 25.984375 6.890625 
Q 35.75 6.890625 40.890625 13.453125 
Q 46.046875 20.015625 46.78125 33.40625 
Q 43.953125 29.203125 39.59375 26.953125 
Q 35.25 24.703125 29.984375 24.703125 
Q 19.046875 24.703125 12.671875 31.3125 
Q 6.296875 37.9375 6.296875 49.421875 
Q 6.296875 60.640625 12.9375 67.421875 
Q 19.578125 74.21875 30.609375 74.21875 
Q 43.265625 74.21875 49.921875 64.515625 
Q 56.59375 54.828125 56.59375 36.375 
Q 56.59375 19.140625 48.40625 8.859375 
Q 40.234375 -1.421875 26.421875 -1.421875 
Q 22.703125 -1.421875 18.890625 -0.6875 
Q 15.09375 0.046875 10.984375 1.515625 
z
M 30.609375 32.421875 
Q 37.25 32.421875 41.125 36.953125 
Q 45.015625 41.5 45.015625 49.421875 
Q 45.015625 57.28125 41.125 61.84375 
Q 37.25 66.40625 30.609375 66.40625 
Q 23.96875 66.40625 20.09375 61.84375 
Q 16.21875 57.28125 16.21875 49.421875 
Q 16.21875 41.5 20.09375 36.953125 
Q 23.96875 32.421875 30.609375 32.421875 
z
" id="DejaVuSans-57"/>
      </defs>
      <g transform="translate(247.788323 667.652431)rotate(-30)scale(0.24 -0.24)">
       <use xlink:href="#DejaVuSans-50"/>
       <use x="63.623047" xlink:href="#DejaVuSans-48"/>
       <use x="127.246094" xlink:href="#DejaVuSans-50"/>
       <use x="190.869141" xlink:href="#DejaVuSans-48"/>
       <use x="254.492188" xlink:href="#DejaVuSans-45"/>
       <use x="290.576172" xlink:href="#DejaVuSans-48"/>
       <use x="354.199219" xlink:href="#DejaVuSans-57"/>
      </g>
     </g>
    </g>
    <g id="xtick_16">
     <g id="line2d_42">
      <path clip-path="url(#p7805ab7628)" d="M 398.5037 594.72 
L 398.5037 327.665455 
" style="fill:none;stroke:#d3d3d3;stroke-linecap:square;stroke-width:0.8;"/>
     </g>
     <g id="line2d_43">
      <g>
       <use style="stroke:#000000;stroke-width:0.8;" x="398.5037" xlink:href="#m7ae73f1006" y="594.72"/>
      </g>
     </g>
     <g id="text_11">
      <!-- 2020-11 -->
      <defs>
       <path d="M 12.40625 8.296875 
L 28.515625 8.296875 
L 28.515625 63.921875 
L 10.984375 60.40625 
L 10.984375 69.390625 
L 28.421875 72.90625 
L 38.28125 72.90625 
L 38.28125 8.296875 
L 54.390625 8.296875 
L 54.390625 0 
L 12.40625 0 
z
" id="DejaVuSans-49"/>
      </defs>
      <g transform="translate(309.16413 667.652431)rotate(-30)scale(0.24 -0.24)">
       <use xlink:href="#DejaVuSans-50"/>
       <use x="63.623047" xlink:href="#DejaVuSans-48"/>
       <use x="127.246094" xlink:href="#DejaVuSans-50"/>
       <use x="190.869141" xlink:href="#DejaVuSans-48"/>
       <use x="254.492188" xlink:href="#DejaVuSans-45"/>
       <use x="290.576172" xlink:href="#DejaVuSans-49"/>
       <use x="354.199219" xlink:href="#DejaVuSans-49"/>
      </g>
     </g>
    </g>
    <g id="xtick_17">
     <g id="line2d_44">
      <path clip-path="url(#p7805ab7628)" d="M 459.879508 594.72 
L 459.879508 327.665455 
" style="fill:none;stroke:#d3d3d3;stroke-linecap:square;stroke-width:0.8;"/>
     </g>
     <g id="line2d_45">
      <g>
       <use style="stroke:#000000;stroke-width:0.8;" x="459.879508" xlink:href="#m7ae73f1006" y="594.72"/>
      </g>
     </g>
     <g id="text_12">
      <!-- 2021-01 -->
      <g transform="translate(370.539938 667.652431)rotate(-30)scale(0.24 -0.24)">
       <use xlink:href="#DejaVuSans-50"/>
       <use x="63.623047" xlink:href="#DejaVuSans-48"/>
       <use x="127.246094" xlink:href="#DejaVuSans-50"/>
       <use x="190.869141" xlink:href="#DejaVuSans-49"/>
       <use x="254.492188" xlink:href="#DejaVuSans-45"/>
       <use x="290.576172" xlink:href="#DejaVuSans-48"/>
       <use x="354.199219" xlink:href="#DejaVuSans-49"/>
      </g>
     </g>
    </g>
    <g id="xtick_18">
     <g id="line2d_46">
      <path clip-path="url(#p7805ab7628)" d="M 519.242994 594.72 
L 519.242994 327.665455 
" style="fill:none;stroke:#d3d3d3;stroke-linecap:square;stroke-width:0.8;"/>
     </g>
     <g id="line2d_47">
      <g>
       <use style="stroke:#000000;stroke-width:0.8;" x="519.242994" xlink:href="#m7ae73f1006" y="594.72"/>
      </g>
     </g>
     <g id="text_13">
      <!-- 2021-03 -->
      <g transform="translate(429.903424 667.652431)rotate(-30)scale(0.24 -0.24)">
       <use xlink:href="#DejaVuSans-50"/>
       <use x="63.623047" xlink:href="#DejaVuSans-48"/>
       <use x="127.246094" xlink:href="#DejaVuSans-50"/>
       <use x="190.869141" xlink:href="#DejaVuSans-49"/>
       <use x="254.492188" xlink:href="#DejaVuSans-45"/>
       <use x="290.576172" xlink:href="#DejaVuSans-48"/>
       <use x="354.199219" xlink:href="#DejaVuSans-51"/>
      </g>
     </g>
    </g>
    <g id="xtick_19">
     <g id="line2d_48">
      <path clip-path="url(#p7805ab7628)" d="M 580.618802 594.72 
L 580.618802 327.665455 
" style="fill:none;stroke:#d3d3d3;stroke-linecap:square;stroke-width:0.8;"/>
     </g>
     <g id="line2d_49">
      <g>
       <use style="stroke:#000000;stroke-width:0.8;" x="580.618802" xlink:href="#m7ae73f1006" y="594.72"/>
      </g>
     </g>
     <g id="text_14">
      <!-- 2021-05 -->
      <g transform="translate(491.279232 667.652431)rotate(-30)scale(0.24 -0.24)">
       <use xlink:href="#DejaVuSans-50"/>
       <use x="63.623047" xlink:href="#DejaVuSans-48"/>
       <use x="127.246094" xlink:href="#DejaVuSans-50"/>
       <use x="190.869141" xlink:href="#DejaVuSans-49"/>
       <use x="254.492188" xlink:href="#DejaVuSans-45"/>
       <use x="290.576172" xlink:href="#DejaVuSans-48"/>
       <use x="354.199219" xlink:href="#DejaVuSans-53"/>
      </g>
     </g>
    </g>
    <g id="xtick_20">
     <g id="line2d_50">
      <path clip-path="url(#p7805ab7628)" d="M 641.994609 594.72 
L 641.994609 327.665455 
" style="fill:none;stroke:#d3d3d3;stroke-linecap:square;stroke-width:0.8;"/>
     </g>
     <g id="line2d_51">
      <g>
       <use style="stroke:#000000;stroke-width:0.8;" x="641.994609" xlink:href="#m7ae73f1006" y="594.72"/>
      </g>
     </g>
     <g id="text_15">
      <!-- 2021-07 -->
      <g transform="translate(552.655039 667.652431)rotate(-30)scale(0.24 -0.24)">
       <use xlink:href="#DejaVuSans-50"/>
       <use x="63.623047" xlink:href="#DejaVuSans-48"/>
       <use x="127.246094" xlink:href="#DejaVuSans-50"/>
       <use x="190.869141" xlink:href="#DejaVuSans-49"/>
       <use x="254.492188" xlink:href="#DejaVuSans-45"/>
       <use x="290.576172" xlink:href="#DejaVuSans-48"/>
       <use x="354.199219" xlink:href="#DejaVuSans-55"/>
      </g>
     </g>
    </g>
    <g id="xtick_21">
     <g id="line2d_52">
      <path clip-path="url(#p7805ab7628)" d="M 704.376578 594.72 
L 704.376578 327.665455 
" style="fill:none;stroke:#d3d3d3;stroke-linecap:square;stroke-width:0.8;"/>
     </g>
     <g id="line2d_53">
      <g>
       <use style="stroke:#000000;stroke-width:0.8;" x="704.376578" xlink:href="#m7ae73f1006" y="594.72"/>
      </g>
     </g>
     <g id="text_16">
      <!-- 2021-09 -->
      <g transform="translate(615.037008 667.652431)rotate(-30)scale(0.24 -0.24)">
       <use xlink:href="#DejaVuSans-50"/>
       <use x="63.623047" xlink:href="#DejaVuSans-48"/>
       <use x="127.246094" xlink:href="#DejaVuSans-50"/>
       <use x="190.869141" xlink:href="#DejaVuSans-49"/>
       <use x="254.492188" xlink:href="#DejaVuSans-45"/>
       <use x="290.576172" xlink:href="#DejaVuSans-48"/>
       <use x="354.199219" xlink:href="#DejaVuSans-57"/>
      </g>
     </g>
    </g>
    <g id="xtick_22">
     <g id="line2d_54">
      <path clip-path="url(#p7805ab7628)" d="M 765.752385 594.72 
L 765.752385 327.665455 
" style="fill:none;stroke:#d3d3d3;stroke-linecap:square;stroke-width:0.8;"/>
     </g>
     <g id="line2d_55">
      <g>
       <use style="stroke:#000000;stroke-width:0.8;" x="765.752385" xlink:href="#m7ae73f1006" y="594.72"/>
      </g>
     </g>
     <g id="text_17">
      <!-- 2021-11 -->
      <g transform="translate(676.412815 667.652431)rotate(-30)scale(0.24 -0.24)">
       <use xlink:href="#DejaVuSans-50"/>
       <use x="63.623047" xlink:href="#DejaVuSans-48"/>
       <use x="127.246094" xlink:href="#DejaVuSans-50"/>
       <use x="190.869141" xlink:href="#DejaVuSans-49"/>
       <use x="254.492188" xlink:href="#DejaVuSans-45"/>
       <use x="290.576172" xlink:href="#DejaVuSans-49"/>
       <use x="354.199219" xlink:href="#DejaVuSans-49"/>
      </g>
     </g>
    </g>
   </g>
   <g id="matplotlib.axis_4">
    <g id="ytick_6">
     <g id="line2d_56">
      <path clip-path="url(#p7805ab7628)" d="M 140.675 594.72 
L 810.275 594.72 
" style="fill:none;stroke:#d3d3d3;stroke-linecap:square;stroke-width:0.8;"/>
     </g>
     <g id="line2d_57">
      <g>
       <use style="stroke:#000000;stroke-width:0.8;" x="140.675" xlink:href="#m1ff0747ef0" y="594.72"/>
      </g>
     </g>
     <g id="text_18">
      <!-- 0 -->
      <g transform="translate(118.405 603.838125)scale(0.24 -0.24)">
       <use xlink:href="#DejaVuSans-48"/>
      </g>
     </g>
    </g>
    <g id="ytick_7">
     <g id="line2d_58">
      <path clip-path="url(#p7805ab7628)" d="M 140.675 517.658879 
L 810.275 517.658879 
" style="fill:none;stroke:#d3d3d3;stroke-linecap:square;stroke-width:0.8;"/>
     </g>
     <g id="line2d_59">
      <g>
       <use style="stroke:#000000;stroke-width:0.8;" x="140.675" xlink:href="#m1ff0747ef0" y="517.658879"/>
      </g>
     </g>
     <g id="text_19">
      <!-- 5,000 -->
      <g transform="translate(64.9675 526.777004)scale(0.24 -0.24)">
       <use xlink:href="#DejaVuSans-53"/>
       <use x="63.623047" xlink:href="#DejaVuSans-44"/>
       <use x="95.410156" xlink:href="#DejaVuSans-48"/>
       <use x="159.033203" xlink:href="#DejaVuSans-48"/>
       <use x="222.65625" xlink:href="#DejaVuSans-48"/>
      </g>
     </g>
    </g>
    <g id="ytick_8">
     <g id="line2d_60">
      <path clip-path="url(#p7805ab7628)" d="M 140.675 440.597757 
L 810.275 440.597757 
" style="fill:none;stroke:#d3d3d3;stroke-linecap:square;stroke-width:0.8;"/>
     </g>
     <g id="line2d_61">
      <g>
       <use style="stroke:#000000;stroke-width:0.8;" x="140.675" xlink:href="#m1ff0747ef0" y="440.597757"/>
      </g>
     </g>
     <g id="text_20">
      <!-- 10,000 -->
      <g transform="translate(49.6975 449.715882)scale(0.24 -0.24)">
       <use xlink:href="#DejaVuSans-49"/>
       <use x="63.623047" xlink:href="#DejaVuSans-48"/>
       <use x="127.246094" xlink:href="#DejaVuSans-44"/>
       <use x="159.033203" xlink:href="#DejaVuSans-48"/>
       <use x="222.65625" xlink:href="#DejaVuSans-48"/>
       <use x="286.279297" xlink:href="#DejaVuSans-48"/>
      </g>
     </g>
    </g>
    <g id="ytick_9">
     <g id="line2d_62">
      <path clip-path="url(#p7805ab7628)" d="M 140.675 363.536636 
L 810.275 363.536636 
" style="fill:none;stroke:#d3d3d3;stroke-linecap:square;stroke-width:0.8;"/>
     </g>
     <g id="line2d_63">
      <g>
       <use style="stroke:#000000;stroke-width:0.8;" x="140.675" xlink:href="#m1ff0747ef0" y="363.536636"/>
      </g>
     </g>
     <g id="text_21">
      <!-- 15,000 -->
      <g transform="translate(49.6975 372.654761)scale(0.24 -0.24)">
       <use xlink:href="#DejaVuSans-49"/>
       <use x="63.623047" xlink:href="#DejaVuSans-53"/>
       <use x="127.246094" xlink:href="#DejaVuSans-44"/>
       <use x="159.033203" xlink:href="#DejaVuSans-48"/>
       <use x="222.65625" xlink:href="#DejaVuSans-48"/>
       <use x="286.279297" xlink:href="#DejaVuSans-48"/>
      </g>
     </g>
    </g>
    <g id="text_22">
     <!-- Preprints -->
     <defs>
      <path d="M 19.671875 64.796875 
L 19.671875 37.40625 
L 32.078125 37.40625 
Q 38.96875 37.40625 42.71875 40.96875 
Q 46.484375 44.53125 46.484375 51.125 
Q 46.484375 57.671875 42.71875 61.234375 
Q 38.96875 64.796875 32.078125 64.796875 
z
M 9.8125 72.90625 
L 32.078125 72.90625 
Q 44.34375 72.90625 50.609375 67.359375 
Q 56.890625 61.8125 56.890625 51.125 
Q 56.890625 40.328125 50.609375 34.8125 
Q 44.34375 29.296875 32.078125 29.296875 
L 19.671875 29.296875 
L 19.671875 0 
L 9.8125 0 
z
" id="DejaVuSans-80"/>
      <path d="M 56.203125 29.59375 
L 56.203125 25.203125 
L 14.890625 25.203125 
Q 15.484375 15.921875 20.484375 11.0625 
Q 25.484375 6.203125 34.421875 6.203125 
Q 39.59375 6.203125 44.453125 7.46875 
Q 49.3125 8.734375 54.109375 11.28125 
L 54.109375 2.78125 
Q 49.265625 0.734375 44.1875 -0.34375 
Q 39.109375 -1.421875 33.890625 -1.421875 
Q 20.796875 -1.421875 13.15625 6.1875 
Q 5.515625 13.8125 5.515625 26.8125 
Q 5.515625 40.234375 12.765625 48.109375 
Q 20.015625 56 32.328125 56 
Q 43.359375 56 49.78125 48.890625 
Q 56.203125 41.796875 56.203125 29.59375 
z
M 47.21875 32.234375 
Q 47.125 39.59375 43.09375 43.984375 
Q 39.0625 48.390625 32.421875 48.390625 
Q 24.90625 48.390625 20.390625 44.140625 
Q 15.875 39.890625 15.1875 32.171875 
z
" id="DejaVuSans-101"/>
     </defs>
     <g transform="translate(40.70625 515.185227)rotate(-90)scale(0.24 -0.24)">
      <use xlink:href="#DejaVuSans-80"/>
      <use x="60.287109" xlink:href="#DejaVuSans-114"/>
      <use x="101.369141" xlink:href="#DejaVuSans-101"/>
      <use x="162.892578" xlink:href="#DejaVuSans-112"/>
      <use x="226.369141" xlink:href="#DejaVuSans-114"/>
      <use x="267.482422" xlink:href="#DejaVuSans-105"/>
      <use x="295.265625" xlink:href="#DejaVuSans-110"/>
      <use x="358.644531" xlink:href="#DejaVuSans-116"/>
      <use x="397.853516" xlink:href="#DejaVuSans-115"/>
     </g>
    </g>
   </g>
   <g id="line2d_64">
    <path clip-path="url(#p7805ab7628)" d="M 171.111364 591.914975 
L 178.154489 590.373753 
L 185.197615 588.447225 
L 192.24074 586.212452 
L 206.326991 582.374808 
L 213.370116 579.924265 
L 224.437885 576.918881 
L 231.481011 574.545398 
L 242.548779 571.200946 
L 244.561101 570.908114 
L 245.567261 570.461159 
L 249.591905 569.228181 
L 251.604226 568.827463 
L 252.610387 568.365096 
L 256.63503 566.916347 
L 258.647352 566.669752 
L 260.659673 565.775843 
L 261.665834 565.544659 
L 263.678156 564.881934 
L 265.690477 564.666163 
L 266.696638 564.388743 
L 267.702799 563.895551 
L 271.727442 562.801284 
L 274.745924 562.184795 
L 277.764406 561.198412 
L 279.776728 560.782282 
L 280.782889 560.335328 
L 284.807532 559.086937 
L 288.832175 558.300914 
L 289.838336 557.915608 
L 294.86914 556.590157 
L 296.881461 555.973668 
L 297.887622 555.588363 
L 301.912265 554.679041 
L 303.924587 553.939255 
L 305.936908 553.168643 
L 307.94923 552.752513 
L 311.973873 551.457886 
L 312.980034 551.180466 
L 314.992355 551.041756 
L 317.004677 550.44068 
L 320.023159 549.577595 
L 323.041642 549.038167 
L 325.053963 548.591213 
L 327.066285 548.005548 
L 329.078606 547.789777 
L 332.097089 546.972929 
L 334.10941 546.263967 
L 339.140214 545.400882 
L 345.177179 543.982958 
L 347.1895 543.30482 
L 353.226465 542.19514 
L 355.238787 541.609475 
L 357.251108 541.378292 
L 359.26343 540.700154 
L 360.269591 540.345673 
L 364.294234 539.575062 
L 369.325038 538.403733 
L 371.337359 538.187961 
L 375.362002 536.924159 
L 376.368163 536.569678 
L 378.380485 536.199784 
L 380.392806 535.644944 
L 381.398967 535.490822 
L 382.405128 535.105517 
L 386.429771 534.257844 
L 387.435932 533.81089 
L 389.448253 533.240637 
L 390.454414 532.886156 
L 392.466736 532.577912 
L 398.5037 530.451025 
L 399.509861 530.28149 
L 400.516022 529.942421 
L 403.534504 529.295108 
L 404.540665 528.986863 
L 406.552986 528.647795 
L 412.589951 527.183633 
L 413.596112 527.060335 
L 416.614594 526.166426 
L 417.620755 525.919831 
L 419.633077 525.56535 
L 420.639237 525.519113 
L 421.645398 525.102983 
L 424.663881 524.363196 
L 426.676202 524.085776 
L 430.700845 523.14563 
L 432.713167 522.421256 
L 434.725488 522.205485 
L 436.73781 521.419461 
L 439.756292 520.540965 
L 440.762453 520.37143 
L 447.805579 518.676085 
L 448.811739 518.614437 
L 449.8179 518.337017 
L 450.824061 517.843825 
L 452.836382 517.227336 
L 455.854865 516.872855 
L 457.867186 516.48755 
L 461.891829 515.670702 
L 462.89799 515.593641 
L 465.916473 514.715144 
L 470.947276 513.605464 
L 473.965759 512.665318 
L 474.97192 512.418722 
L 476.984241 512.172127 
L 477.990402 511.894707 
L 478.996563 511.416928 
L 480.002724 511.062447 
L 484.027367 510.399721 
L 486.039688 509.783232 
L 487.045849 509.598285 
L 488.05201 509.120506 
L 489.058171 508.843086 
L 491.070492 508.51943 
L 498.113618 506.700787 
L 505.156743 504.666374 
L 519.242994 501.029089 
L 526.286119 498.948438 
L 540.37237 495.526925 
L 554.458621 492.321182 
L 575.587998 486.741957 
L 589.674249 483.443741 
L 596.717374 481.671335 
L 610.803625 477.741218 
L 624.889876 473.163787 
L 638.976127 469.110372 
L 646.019252 467.29173 
L 653.062378 465.673446 
L 660.105503 463.808567 
L 667.148629 462.23652 
L 674.191754 460.417878 
L 681.23488 458.321815 
L 691.296488 455.778798 
L 695.321131 454.376286 
L 702.364256 452.619292 
L 709.407382 450.646528 
L 723.493633 446.546876 
L 730.536758 444.928592 
L 744.623009 440.459047 
L 751.666134 438.455458 
L 758.70926 436.821762 
L 765.752385 434.941471 
L 772.795511 432.937882 
L 779.838636 431.766553 
L 779.838636 431.766553 
" style="fill:none;stroke:#1f77b4;stroke-linecap:square;stroke-width:5;"/>
   </g>
   <g id="line2d_65">
    <path clip-path="url(#p7805ab7628)" d="M 171.111364 585.734673 
L 178.154489 583.299542 
L 185.197615 579.354012 
L 192.24074 575.963323 
L 199.283866 571.570839 
L 206.326991 566.130324 
L 213.370116 561.337122 
L 224.437885 551.68907 
L 231.481011 546.91128 
L 238.524136 541.285818 
L 239.530297 538.758214 
L 240.536458 538.172549 
L 241.542618 537.941366 
L 242.548779 536.985808 
L 243.55494 536.276846 
L 244.561101 536.261433 
L 245.567261 535.906952 
L 246.573422 534.658562 
L 247.579583 533.703004 
L 248.585744 533.333111 
L 249.591905 531.946011 
L 250.598065 531.884362 
L 252.610387 530.83633 
L 253.616548 529.72665 
L 254.622708 529.695826 
L 255.628869 529.248871 
L 256.63503 527.522702 
L 257.641191 527.322343 
L 258.647352 526.875389 
L 259.653512 526.829152 
L 260.659673 525.70406 
L 261.665834 525.164632 
L 262.671995 524.794738 
L 264.684316 523.130218 
L 265.690477 523.099394 
L 266.696638 522.59079 
L 267.702799 521.542759 
L 268.708959 521.080392 
L 269.71512 520.941682 
L 270.721281 520.032361 
L 271.727442 520.016949 
L 272.733603 519.585407 
L 273.739763 518.599024 
L 274.745924 518.275368 
L 277.764406 516.980741 
L 278.770567 516.302603 
L 279.776728 516.148481 
L 280.782889 515.732351 
L 281.78905 514.930915 
L 282.79521 514.453136 
L 283.801371 514.283602 
L 284.807532 513.774998 
L 285.813693 512.850265 
L 287.826014 512.804028 
L 288.832175 511.817646 
L 289.838336 511.339867 
L 293.862979 509.166743 
L 294.86914 508.889323 
L 295.875301 508.396132 
L 296.881461 508.118712 
L 297.887622 508.057063 
L 298.893783 506.854909 
L 301.912265 505.313687 
L 302.918426 505.005443 
L 303.924587 504.065297 
L 304.930748 503.433396 
L 305.936908 503.233037 
L 306.943069 502.739846 
L 307.94923 502.49325 
L 308.955391 502.477838 
L 309.961551 500.890379 
L 310.967712 500.82873 
L 312.980034 499.534103 
L 315.998516 499.487866 
L 317.004677 498.686431 
L 319.016998 497.977468 
L 320.023159 496.636605 
L 321.02932 496.205062 
L 323.041642 495.619398 
L 324.047802 495.264917 
L 326.060124 495.018321 
L 328.072446 493.584984 
L 329.078606 493.384625 
L 330.084767 492.99932 
L 331.090928 492.367419 
L 332.097089 491.951289 
L 334.10941 491.88964 
L 337.127893 491.19609 
L 338.134053 489.839814 
L 339.140214 488.77637 
L 345.177179 486.741957 
L 347.1895 485.539803 
L 352.220304 483.659512 
L 354.232626 483.536214 
L 355.238787 481.702159 
L 357.251108 481.578862 
L 358.257269 481.470976 
L 359.26343 480.962373 
L 360.269591 479.945166 
L 361.275751 479.791044 
L 362.281912 479.066669 
L 363.288073 479.066669 
L 364.294234 478.7276 
L 367.312716 477.186378 
L 369.325038 476.78566 
L 370.331198 476.78566 
L 371.337359 476.50824 
L 372.34352 476.045873 
L 373.349681 475.429384 
L 376.368163 475.028666 
L 377.374324 475.028666 
L 378.380485 474.874544 
L 380.392806 474.01146 
L 381.398967 473.163787 
L 383.411289 472.778482 
L 384.417449 472.778482 
L 385.42361 472.56271 
L 386.429771 472.547298 
L 387.435932 471.699626 
L 388.442092 471.052312 
L 389.448253 470.959839 
L 390.454414 470.404999 
L 391.460575 470.404999 
L 392.466736 470.250877 
L 393.472896 469.973457 
L 394.479057 468.54012 
L 395.485218 468.432234 
L 398.5037 468.000692 
L 400.516022 467.800333 
L 401.522183 466.937249 
L 402.528343 465.719683 
L 403.534504 465.488499 
L 404.540665 465.010721 
L 405.546826 464.702476 
L 406.552986 464.671652 
L 409.571469 464.132224 
L 410.57763 463.546559 
L 411.58379 462.806772 
L 412.589951 462.79136 
L 413.596112 462.65265 
L 414.602273 461.943688 
L 415.608434 461.82039 
L 416.614594 460.957306 
L 417.620755 460.818596 
L 420.639237 460.263755 
L 421.645398 459.724328 
L 424.663881 459.123251 
L 426.676202 458.522174 
L 428.688524 457.104249 
L 430.700845 456.549409 
L 431.707006 456.148692 
L 432.713167 455.37808 
L 434.725488 455.347256 
L 435.731649 454.68453 
L 437.743971 454.098866 
L 438.750131 454.083454 
L 439.756292 453.035422 
L 440.762453 453.004598 
L 444.787096 451.555849 
L 445.793257 451.370902 
L 447.805579 450.569466 
L 448.811739 450.399932 
L 449.8179 450.38452 
L 450.824061 449.197778 
L 451.830222 449.028244 
L 452.836382 448.457992 
L 455.854865 448.026449 
L 457.867186 447.980213 
L 458.873347 447.779854 
L 459.879508 447.764442 
L 461.891829 447.27125 
L 462.89799 447.255838 
L 463.904151 446.16157 
L 464.910312 445.914975 
L 465.916473 445.360135 
L 466.922633 445.32931 
L 467.928794 444.681997 
L 468.934955 444.373752 
L 469.941116 444.342928 
L 471.953437 443.865149 
L 472.959598 443.371958 
L 473.965759 443.325721 
L 474.97192 442.046506 
L 476.984241 441.923209 
L 478.996563 441.876972 
L 480.002724 440.643994 
L 481.008884 440.566933 
L 482.015045 440.166215 
L 484.027367 440.119978 
L 485.033527 439.58055 
L 486.039688 438.362985 
L 487.045849 438.147214 
L 488.05201 438.05474 
L 489.058171 437.330366 
L 490.064331 437.253305 
L 491.070492 436.914236 
L 498.113618 433.924264 
L 505.156743 432.059385 
L 512.199869 429.146475 
L 519.242994 426.772992 
L 526.286119 423.783021 
L 540.37237 417.433184 
L 547.415496 413.302708 
L 554.458621 411.499478 
L 568.544872 406.444268 
L 575.587998 403.223113 
L 582.631123 400.479738 
L 589.674249 398.183316 
L 596.717374 395.671124 
L 603.7605 392.773625 
L 624.889876 385.930598 
L 631.933002 384.266078 
L 638.976127 381.414816 
L 646.019252 379.272517 
L 653.062378 375.866415 
L 660.105503 373.939887 
L 667.148629 370.549198 
L 681.23488 366.464959 
L 691.296488 363.952766 
L 695.321131 363.274628 
L 702.364256 360.978207 
L 709.407382 359.221213 
L 723.493633 356.030883 
L 730.536758 353.133385 
L 744.623009 349.110794 
L 751.666134 347.538747 
L 758.70926 345.704692 
L 765.752385 343.315798 
L 772.795511 342.159881 
L 779.838636 340.248765 
L 779.838636 340.248765 
" style="fill:none;stroke:#ff7f0e;stroke-linecap:square;stroke-width:5;"/>
   </g>
   <g id="line2d_66">
    <path clip-path="url(#p7805ab7628)" d="M 171.111364 591.498845 
L 178.154489 590.928593 
L 185.197615 590.08092 
L 192.24074 589.079126 
L 199.283866 587.892385 
L 206.326991 586.566933 
L 213.370116 585.50349 
L 224.437885 583.453664 
L 231.481011 581.789144 
L 240.536458 580.201685 
L 242.548779 579.508135 
L 250.598065 578.167271 
L 251.604226 578.121034 
L 252.610387 577.828202 
L 254.622708 577.381248 
L 255.628869 577.165477 
L 256.63503 576.780171 
L 258.647352 576.533575 
L 264.684316 574.807406 
L 266.696638 574.560811 
L 268.708959 574.005971 
L 270.721281 573.574428 
L 272.733603 573.435718 
L 273.739763 573.158298 
L 274.745924 572.665107 
L 276.758246 572.110267 
L 280.782889 571.632488 
L 284.807532 570.81564 
L 286.819853 570.723167 
L 289.838336 569.98338 
L 293.862979 569.505601 
L 294.86914 569.212769 
L 297.887622 568.627104 
L 298.893783 568.334272 
L 300.906104 568.164738 
L 301.912265 567.871905 
L 303.924587 567.471187 
L 305.936908 566.993409 
L 307.94923 566.870111 
L 309.961551 566.438568 
L 311.973873 565.991614 
L 312.980034 565.837492 
L 314.992355 565.837492 
L 317.004677 565.282652 
L 327.066285 563.479421 
L 329.078606 563.279062 
L 331.090928 562.955406 
L 334.10941 562.308092 
L 339.140214 561.568306 
L 345.177179 560.689809 
L 347.1895 560.258267 
L 353.226465 559.318121 
L 355.238787 558.96364 
L 357.251108 558.855754 
L 359.26343 558.470449 
L 361.275751 558.177616 
L 362.281912 557.99267 
L 364.294234 557.931021 
L 369.325038 557.037112 
L 372.34352 556.898402 
L 376.368163 556.035317 
L 378.380485 555.958256 
L 380.392806 555.588363 
L 382.405128 555.048935 
L 383.411289 554.786927 
L 385.42361 554.694454 
L 388.442092 554.155026 
L 390.454414 553.862193 
L 392.466736 553.76972 
L 397.497539 552.844987 
L 399.509861 552.690864 
L 401.522183 552.197673 
L 402.528343 552.089788 
L 404.540665 551.55036 
L 406.552986 551.427062 
L 407.559147 551.165054 
L 409.571469 550.872222 
L 410.57763 550.610214 
L 412.589951 550.394443 
L 413.596112 550.379031 
L 416.614594 549.670068 
L 417.620755 549.639244 
L 428.688524 548.467915 
L 431.707006 547.666479 
L 432.713167 547.450708 
L 434.725488 547.250349 
L 436.73781 546.91128 
L 439.756292 546.341028 
L 440.762453 546.294791 
L 445.793257 545.585829 
L 446.799418 545.231348 
L 447.805579 545.231348 
L 448.811739 545.077226 
L 451.830222 544.337439 
L 452.836382 544.13708 
L 455.854865 543.905897 
L 458.873347 543.289408 
L 462.89799 543.042812 
L 464.910312 542.47256 
L 467.928794 541.91772 
L 469.941116 541.886895 
L 470.947276 541.563238 
L 472.959598 541.239582 
L 474.97192 540.885101 
L 476.984241 540.823452 
L 477.990402 540.607681 
L 478.996563 540.206963 
L 483.021206 539.698359 
L 485.033527 539.436352 
L 488.05201 538.588679 
L 491.070492 538.265022 
L 498.113618 536.847098 
L 505.156743 535.89154 
L 512.199869 534.550676 
L 519.242994 533.379347 
L 547.415496 527.661412 
L 554.458621 526.567144 
L 562.507908 525.041334 
L 568.544872 524.394021 
L 575.587998 523.376814 
L 582.631123 521.835591 
L 589.674249 520.479316 
L 596.717374 519.338811 
L 603.7605 517.87465 
L 624.889876 514.144892 
L 631.933002 512.973562 
L 638.976127 512.064241 
L 646.019252 511.01621 
L 653.062378 509.829469 
L 660.105503 508.843086 
L 667.148629 507.656345 
L 674.191754 506.654551 
L 681.23488 505.467809 
L 691.296488 503.633755 
L 695.321131 503.109739 
L 702.364256 502.030883 
L 709.407382 500.705432 
L 730.536758 497.360979 
L 744.623009 495.203268 
L 751.666134 494.263122 
L 758.70926 493.199679 
L 765.752385 492.290357 
L 772.795511 491.149853 
L 779.838636 490.533364 
L 779.838636 490.533364 
" style="fill:none;stroke:#2ca02c;stroke-linecap:square;stroke-width:5;"/>
   </g>
   <g id="patch_6">
    <path d="M 140.675 594.72 
L 140.675 327.665455 
" style="fill:none;stroke:#000000;stroke-linecap:square;stroke-linejoin:miter;stroke-width:0.8;"/>
   </g>
   <g id="patch_7">
    <path d="M 140.675 594.72 
L 810.275 594.72 
" style="fill:none;stroke:#000000;stroke-linecap:square;stroke-linejoin:miter;stroke-width:0.8;"/>
   </g>
   <g id="legend_1">
    <g id="patch_8">
     <path d="M 157.475 452.547955 
L 339.41 452.547955 
Q 344.21 452.547955 344.21 447.747955 
L 344.21 344.465455 
Q 344.21 339.665455 339.41 339.665455 
L 157.475 339.665455 
Q 152.675 339.665455 152.675 344.465455 
L 152.675 447.747955 
Q 152.675 452.547955 157.475 452.547955 
z
" style="fill:#ffffff;opacity:0.8;stroke:#cccccc;stroke-linejoin:miter;"/>
    </g>
    <g id="line2d_67">
     <path d="M 162.275 359.101705 
L 210.275 359.101705 
" style="fill:none;stroke:#1f77b4;stroke-linecap:square;stroke-width:5;"/>
    </g>
    <g id="line2d_68"/>
    <g id="text_23">
     <!-- arXiv -->
     <defs>
      <path d="M 6.296875 72.90625 
L 16.890625 72.90625 
L 35.015625 45.796875 
L 53.21875 72.90625 
L 63.8125 72.90625 
L 40.375 37.890625 
L 65.375 0 
L 54.78125 0 
L 34.28125 31 
L 13.625 0 
L 2.984375 0 
L 29 38.921875 
z
" id="DejaVuSans-88"/>
      <path d="M 2.984375 54.6875 
L 12.5 54.6875 
L 29.59375 8.796875 
L 46.6875 54.6875 
L 56.203125 54.6875 
L 35.6875 0 
L 23.484375 0 
z
" id="DejaVuSans-118"/>
     </defs>
     <g transform="translate(229.475 367.501705)scale(0.24 -0.24)">
      <use xlink:href="#DejaVuSans-97"/>
      <use x="61.279297" xlink:href="#DejaVuSans-114"/>
      <use x="102.392578" xlink:href="#DejaVuSans-88"/>
      <use x="170.898438" xlink:href="#DejaVuSans-105"/>
      <use x="198.681641" xlink:href="#DejaVuSans-118"/>
     </g>
    </g>
    <g id="line2d_69">
     <path d="M 162.275 394.329205 
L 210.275 394.329205 
" style="fill:none;stroke:#ff7f0e;stroke-linecap:square;stroke-width:5;"/>
    </g>
    <g id="line2d_70"/>
    <g id="text_24">
     <!-- medRxiv -->
     <defs>
      <path d="M 45.40625 46.390625 
L 45.40625 75.984375 
L 54.390625 75.984375 
L 54.390625 0 
L 45.40625 0 
L 45.40625 8.203125 
Q 42.578125 3.328125 38.25 0.953125 
Q 33.9375 -1.421875 27.875 -1.421875 
Q 17.96875 -1.421875 11.734375 6.484375 
Q 5.515625 14.40625 5.515625 27.296875 
Q 5.515625 40.1875 11.734375 48.09375 
Q 17.96875 56 27.875 56 
Q 33.9375 56 38.25 53.625 
Q 42.578125 51.265625 45.40625 46.390625 
z
M 14.796875 27.296875 
Q 14.796875 17.390625 18.875 11.75 
Q 22.953125 6.109375 30.078125 6.109375 
Q 37.203125 6.109375 41.296875 11.75 
Q 45.40625 17.390625 45.40625 27.296875 
Q 45.40625 37.203125 41.296875 42.84375 
Q 37.203125 48.484375 30.078125 48.484375 
Q 22.953125 48.484375 18.875 42.84375 
Q 14.796875 37.203125 14.796875 27.296875 
z
" id="DejaVuSans-100"/>
      <path d="M 44.390625 34.1875 
Q 47.5625 33.109375 50.5625 29.59375 
Q 53.5625 26.078125 56.59375 19.921875 
L 66.609375 0 
L 56 0 
L 46.6875 18.703125 
Q 43.0625 26.03125 39.671875 28.421875 
Q 36.28125 30.8125 30.421875 30.8125 
L 19.671875 30.8125 
L 19.671875 0 
L 9.8125 0 
L 9.8125 72.90625 
L 32.078125 72.90625 
Q 44.578125 72.90625 50.734375 67.671875 
Q 56.890625 62.453125 56.890625 51.90625 
Q 56.890625 45.015625 53.6875 40.46875 
Q 50.484375 35.9375 44.390625 34.1875 
z
M 19.671875 64.796875 
L 19.671875 38.921875 
L 32.078125 38.921875 
Q 39.203125 38.921875 42.84375 42.21875 
Q 46.484375 45.515625 46.484375 51.90625 
Q 46.484375 58.296875 42.84375 61.546875 
Q 39.203125 64.796875 32.078125 64.796875 
z
" id="DejaVuSans-82"/>
      <path d="M 54.890625 54.6875 
L 35.109375 28.078125 
L 55.90625 0 
L 45.3125 0 
L 29.390625 21.484375 
L 13.484375 0 
L 2.875 0 
L 24.125 28.609375 
L 4.6875 54.6875 
L 15.28125 54.6875 
L 29.78125 35.203125 
L 44.28125 54.6875 
z
" id="DejaVuSans-120"/>
     </defs>
     <g transform="translate(229.475 402.729205)scale(0.24 -0.24)">
      <use xlink:href="#DejaVuSans-109"/>
      <use x="97.412109" xlink:href="#DejaVuSans-101"/>
      <use x="158.935547" xlink:href="#DejaVuSans-100"/>
      <use x="222.412109" xlink:href="#DejaVuSans-82"/>
      <use x="291.894531" xlink:href="#DejaVuSans-120"/>
      <use x="351.074219" xlink:href="#DejaVuSans-105"/>
      <use x="378.857422" xlink:href="#DejaVuSans-118"/>
     </g>
    </g>
    <g id="line2d_71">
     <path d="M 162.275 429.556705 
L 210.275 429.556705 
" style="fill:none;stroke:#2ca02c;stroke-linecap:square;stroke-width:5;"/>
    </g>
    <g id="line2d_72"/>
    <g id="text_25">
     <!-- bioRxiv -->
     <defs>
      <path d="M 48.6875 27.296875 
Q 48.6875 37.203125 44.609375 42.84375 
Q 40.53125 48.484375 33.40625 48.484375 
Q 26.265625 48.484375 22.1875 42.84375 
Q 18.109375 37.203125 18.109375 27.296875 
Q 18.109375 17.390625 22.1875 11.75 
Q 26.265625 6.109375 33.40625 6.109375 
Q 40.53125 6.109375 44.609375 11.75 
Q 48.6875 17.390625 48.6875 27.296875 
z
M 18.109375 46.390625 
Q 20.953125 51.265625 25.265625 53.625 
Q 29.59375 56 35.59375 56 
Q 45.5625 56 51.78125 48.09375 
Q 58.015625 40.1875 58.015625 27.296875 
Q 58.015625 14.40625 51.78125 6.484375 
Q 45.5625 -1.421875 35.59375 -1.421875 
Q 29.59375 -1.421875 25.265625 0.953125 
Q 20.953125 3.328125 18.109375 8.203125 
L 18.109375 0 
L 9.078125 0 
L 9.078125 75.984375 
L 18.109375 75.984375 
z
" id="DejaVuSans-98"/>
     </defs>
     <g transform="translate(229.475 437.956705)scale(0.24 -0.24)">
      <use xlink:href="#DejaVuSans-98"/>
      <use x="63.476562" xlink:href="#DejaVuSans-105"/>
      <use x="91.259766" xlink:href="#DejaVuSans-111"/>
      <use x="152.441406" xlink:href="#DejaVuSans-82"/>
      <use x="221.923828" xlink:href="#DejaVuSans-120"/>
      <use x="281.103516" xlink:href="#DejaVuSans-105"/>
      <use x="308.886719" xlink:href="#DejaVuSans-118"/>
     </g>
    </g>
   </g>
  </g>
 </g>
 <defs>
  <clipPath id="pa2ad159c21">
   <rect height="267.054545" width="669.6" x="140.675" y="7.2"/>
  </clipPath>
  <clipPath id="p7805ab7628">
   <rect height="267.054545" width="669.6" x="140.675" y="327.665455"/>
  </clipPath>
 </defs>
</svg>
