<?xml version="1.0" encoding="utf-8" standalone="no"?>
<!DOCTYPE svg PUBLIC "-//W3C//DTD SVG 1.1//EN"
  "http://www.w3.org/Graphics/SVG/1.1/DTD/svg11.dtd">
<!-- Created with matplotlib (https://matplotlib.org/) -->
<svg height="679.17498pt" version="1.1" viewBox="0 0 817.475 679.17498" width="817.475pt" xmlns="http://www.w3.org/2000/svg" xmlns:xlink="http://www.w3.org/1999/xlink">
 <defs>
  <style type="text/css">
*{stroke-linecap:butt;stroke-linejoin:round;}
  </style>
 </defs>
 <g id="figure_1">
  <g id="patch_1">
   <path d="M 0 679.17498 
L 817.475 679.17498 
L 817.475 0 
L 0 0 
z
" style="fill:#ffffff;"/>
  </g>
  <g id="axes_1">
   <g id="patch_2">
    <path d="M 140.675 274.254545 
L 810.275 274.254545 
L 810.275 7.2 
L 140.675 7.2 
z
" style="fill:#ffffff;"/>
   </g>
   <g id="matplotlib.axis_1">
    <g id="xtick_1">
     <g id="line2d_1">
      <path clip-path="url(#pb13b853307)" d="M 182.280671 274.254545 
L 182.280671 7.2 
" style="fill:none;stroke:#d3d3d3;stroke-linecap:square;stroke-width:0.8;"/>
     </g>
     <g id="line2d_2">
      <defs>
       <path d="M 0 0 
L 0 3.5 
" id="mf9f1ed486e" style="stroke:#000000;stroke-width:0.8;"/>
      </defs>
      <g>
       <use style="stroke:#000000;stroke-width:0.8;" x="182.280671" xlink:href="#mf9f1ed486e" y="274.254545"/>
      </g>
     </g>
    </g>
    <g id="xtick_2">
     <g id="line2d_3">
      <path clip-path="url(#pb13b853307)" d="M 266.981255 274.254545 
L 266.981255 7.2 
" style="fill:none;stroke:#d3d3d3;stroke-linecap:square;stroke-width:0.8;"/>
     </g>
     <g id="line2d_4">
      <g>
       <use style="stroke:#000000;stroke-width:0.8;" x="266.981255" xlink:href="#mf9f1ed486e" y="274.254545"/>
      </g>
     </g>
    </g>
    <g id="xtick_3">
     <g id="line2d_5">
      <path clip-path="url(#pb13b853307)" d="M 352.612615 274.254545 
L 352.612615 7.2 
" style="fill:none;stroke:#d3d3d3;stroke-linecap:square;stroke-width:0.8;"/>
     </g>
     <g id="line2d_6">
      <g>
       <use style="stroke:#000000;stroke-width:0.8;" x="352.612615" xlink:href="#mf9f1ed486e" y="274.254545"/>
      </g>
     </g>
    </g>
    <g id="xtick_4">
     <g id="line2d_7">
      <path clip-path="url(#pb13b853307)" d="M 438.243974 274.254545 
L 438.243974 7.2 
" style="fill:none;stroke:#d3d3d3;stroke-linecap:square;stroke-width:0.8;"/>
     </g>
     <g id="line2d_8">
      <g>
       <use style="stroke:#000000;stroke-width:0.8;" x="438.243974" xlink:href="#mf9f1ed486e" y="274.254545"/>
      </g>
     </g>
    </g>
    <g id="xtick_5">
     <g id="line2d_9">
      <path clip-path="url(#pb13b853307)" d="M 522.013782 274.254545 
L 522.013782 7.2 
" style="fill:none;stroke:#d3d3d3;stroke-linecap:square;stroke-width:0.8;"/>
     </g>
     <g id="line2d_10">
      <g>
       <use style="stroke:#000000;stroke-width:0.8;" x="522.013782" xlink:href="#mf9f1ed486e" y="274.254545"/>
      </g>
     </g>
    </g>
    <g id="xtick_6">
     <g id="line2d_11">
      <path clip-path="url(#pb13b853307)" d="M 606.714366 274.254545 
L 606.714366 7.2 
" style="fill:none;stroke:#d3d3d3;stroke-linecap:square;stroke-width:0.8;"/>
     </g>
     <g id="line2d_12">
      <g>
       <use style="stroke:#000000;stroke-width:0.8;" x="606.714366" xlink:href="#mf9f1ed486e" y="274.254545"/>
      </g>
     </g>
    </g>
    <g id="xtick_7">
     <g id="line2d_13">
      <path clip-path="url(#pb13b853307)" d="M 692.345726 274.254545 
L 692.345726 7.2 
" style="fill:none;stroke:#d3d3d3;stroke-linecap:square;stroke-width:0.8;"/>
     </g>
     <g id="line2d_14">
      <g>
       <use style="stroke:#000000;stroke-width:0.8;" x="692.345726" xlink:href="#mf9f1ed486e" y="274.254545"/>
      </g>
     </g>
    </g>
    <g id="xtick_8">
     <g id="line2d_15">
      <path clip-path="url(#pb13b853307)" d="M 777.977085 274.254545 
L 777.977085 7.2 
" style="fill:none;stroke:#d3d3d3;stroke-linecap:square;stroke-width:0.8;"/>
     </g>
     <g id="line2d_16">
      <g>
       <use style="stroke:#000000;stroke-width:0.8;" x="777.977085" xlink:href="#mf9f1ed486e" y="274.254545"/>
      </g>
     </g>
    </g>
   </g>
   <g id="matplotlib.axis_2">
    <g id="ytick_1">
     <g id="line2d_17">
      <path clip-path="url(#pb13b853307)" d="M 140.675 274.254545 
L 810.275 274.254545 
" style="fill:none;stroke:#d3d3d3;stroke-linecap:square;stroke-width:0.8;"/>
     </g>
     <g id="line2d_18">
      <defs>
       <path d="M 0 0 
L -3.5 0 
" id="m18d1081778" style="stroke:#000000;stroke-width:0.8;"/>
      </defs>
      <g>
       <use style="stroke:#000000;stroke-width:0.8;" x="140.675" xlink:href="#m18d1081778" y="274.254545"/>
      </g>
     </g>
     <g id="text_1">
      <!-- 0 -->
      <defs>
       <path d="M 31.78125 66.40625 
Q 24.171875 66.40625 20.328125 58.90625 
Q 16.5 51.421875 16.5 36.375 
Q 16.5 21.390625 20.328125 13.890625 
Q 24.171875 6.390625 31.78125 6.390625 
Q 39.453125 6.390625 43.28125 13.890625 
Q 47.125 21.390625 47.125 36.375 
Q 47.125 51.421875 43.28125 58.90625 
Q 39.453125 66.40625 31.78125 66.40625 
z
M 31.78125 74.21875 
Q 44.046875 74.21875 50.515625 64.515625 
Q 56.984375 54.828125 56.984375 36.375 
Q 56.984375 17.96875 50.515625 8.265625 
Q 44.046875 -1.421875 31.78125 -1.421875 
Q 19.53125 -1.421875 13.0625 8.265625 
Q 6.59375 17.96875 6.59375 36.375 
Q 6.59375 54.828125 13.0625 64.515625 
Q 19.53125 74.21875 31.78125 74.21875 
z
" id="DejaVuSans-48"/>
      </defs>
      <g transform="translate(118.405 283.37267)scale(0.24 -0.24)">
       <use xlink:href="#DejaVuSans-48"/>
      </g>
     </g>
    </g>
    <g id="ytick_2">
     <g id="line2d_19">
      <path clip-path="url(#pb13b853307)" d="M 140.675 215.964491 
L 810.275 215.964491 
" style="fill:none;stroke:#d3d3d3;stroke-linecap:square;stroke-width:0.8;"/>
     </g>
     <g id="line2d_20">
      <g>
       <use style="stroke:#000000;stroke-width:0.8;" x="140.675" xlink:href="#m18d1081778" y="215.964491"/>
      </g>
     </g>
     <g id="text_2">
      <!-- 200,000 -->
      <defs>
       <path d="M 19.1875 8.296875 
L 53.609375 8.296875 
L 53.609375 0 
L 7.328125 0 
L 7.328125 8.296875 
Q 12.9375 14.109375 22.625 23.890625 
Q 32.328125 33.6875 34.8125 36.53125 
Q 39.546875 41.84375 41.421875 45.53125 
Q 43.3125 49.21875 43.3125 52.78125 
Q 43.3125 58.59375 39.234375 62.25 
Q 35.15625 65.921875 28.609375 65.921875 
Q 23.96875 65.921875 18.8125 64.3125 
Q 13.671875 62.703125 7.8125 59.421875 
L 7.8125 69.390625 
Q 13.765625 71.78125 18.9375 73 
Q 24.125 74.21875 28.421875 74.21875 
Q 39.75 74.21875 46.484375 68.546875 
Q 53.21875 62.890625 53.21875 53.421875 
Q 53.21875 48.921875 51.53125 44.890625 
Q 49.859375 40.875 45.40625 35.40625 
Q 44.1875 33.984375 37.640625 27.21875 
Q 31.109375 20.453125 19.1875 8.296875 
z
" id="DejaVuSans-50"/>
       <path d="M 11.71875 12.40625 
L 22.015625 12.40625 
L 22.015625 4 
L 14.015625 -11.625 
L 7.71875 -11.625 
L 11.71875 4 
z
" id="DejaVuSans-44"/>
      </defs>
      <g transform="translate(34.4275 225.082616)scale(0.24 -0.24)">
       <use xlink:href="#DejaVuSans-50"/>
       <use x="63.623047" xlink:href="#DejaVuSans-48"/>
       <use x="127.246094" xlink:href="#DejaVuSans-48"/>
       <use x="190.869141" xlink:href="#DejaVuSans-44"/>
       <use x="222.65625" xlink:href="#DejaVuSans-48"/>
       <use x="286.279297" xlink:href="#DejaVuSans-48"/>
       <use x="349.902344" xlink:href="#DejaVuSans-48"/>
      </g>
     </g>
    </g>
    <g id="ytick_3">
     <g id="line2d_21">
      <path clip-path="url(#pb13b853307)" d="M 140.675 157.674436 
L 810.275 157.674436 
" style="fill:none;stroke:#d3d3d3;stroke-linecap:square;stroke-width:0.8;"/>
     </g>
     <g id="line2d_22">
      <g>
       <use style="stroke:#000000;stroke-width:0.8;" x="140.675" xlink:href="#m18d1081778" y="157.674436"/>
      </g>
     </g>
     <g id="text_3">
      <!-- 400,000 -->
      <defs>
       <path d="M 37.796875 64.3125 
L 12.890625 25.390625 
L 37.796875 25.390625 
z
M 35.203125 72.90625 
L 47.609375 72.90625 
L 47.609375 25.390625 
L 58.015625 25.390625 
L 58.015625 17.1875 
L 47.609375 17.1875 
L 47.609375 0 
L 37.796875 0 
L 37.796875 17.1875 
L 4.890625 17.1875 
L 4.890625 26.703125 
z
" id="DejaVuSans-52"/>
      </defs>
      <g transform="translate(34.4275 166.792561)scale(0.24 -0.24)">
       <use xlink:href="#DejaVuSans-52"/>
       <use x="63.623047" xlink:href="#DejaVuSans-48"/>
       <use x="127.246094" xlink:href="#DejaVuSans-48"/>
       <use x="190.869141" xlink:href="#DejaVuSans-44"/>
       <use x="222.65625" xlink:href="#DejaVuSans-48"/>
       <use x="286.279297" xlink:href="#DejaVuSans-48"/>
       <use x="349.902344" xlink:href="#DejaVuSans-48"/>
      </g>
     </g>
    </g>
    <g id="ytick_4">
     <g id="line2d_23">
      <path clip-path="url(#pb13b853307)" d="M 140.675 99.384381 
L 810.275 99.384381 
" style="fill:none;stroke:#d3d3d3;stroke-linecap:square;stroke-width:0.8;"/>
     </g>
     <g id="line2d_24">
      <g>
       <use style="stroke:#000000;stroke-width:0.8;" x="140.675" xlink:href="#m18d1081778" y="99.384381"/>
      </g>
     </g>
     <g id="text_4">
      <!-- 600,000 -->
      <defs>
       <path d="M 33.015625 40.375 
Q 26.375 40.375 22.484375 35.828125 
Q 18.609375 31.296875 18.609375 23.390625 
Q 18.609375 15.53125 22.484375 10.953125 
Q 26.375 6.390625 33.015625 6.390625 
Q 39.65625 6.390625 43.53125 10.953125 
Q 47.40625 15.53125 47.40625 23.390625 
Q 47.40625 31.296875 43.53125 35.828125 
Q 39.65625 40.375 33.015625 40.375 
z
M 52.59375 71.296875 
L 52.59375 62.3125 
Q 48.875 64.0625 45.09375 64.984375 
Q 41.3125 65.921875 37.59375 65.921875 
Q 27.828125 65.921875 22.671875 59.328125 
Q 17.53125 52.734375 16.796875 39.40625 
Q 19.671875 43.65625 24.015625 45.921875 
Q 28.375 48.1875 33.59375 48.1875 
Q 44.578125 48.1875 50.953125 41.515625 
Q 57.328125 34.859375 57.328125 23.390625 
Q 57.328125 12.15625 50.6875 5.359375 
Q 44.046875 -1.421875 33.015625 -1.421875 
Q 20.359375 -1.421875 13.671875 8.265625 
Q 6.984375 17.96875 6.984375 36.375 
Q 6.984375 53.65625 15.1875 63.9375 
Q 23.390625 74.21875 37.203125 74.21875 
Q 40.921875 74.21875 44.703125 73.484375 
Q 48.484375 72.75 52.59375 71.296875 
z
" id="DejaVuSans-54"/>
      </defs>
      <g transform="translate(34.4275 108.502506)scale(0.24 -0.24)">
       <use xlink:href="#DejaVuSans-54"/>
       <use x="63.623047" xlink:href="#DejaVuSans-48"/>
       <use x="127.246094" xlink:href="#DejaVuSans-48"/>
       <use x="190.869141" xlink:href="#DejaVuSans-44"/>
       <use x="222.65625" xlink:href="#DejaVuSans-48"/>
       <use x="286.279297" xlink:href="#DejaVuSans-48"/>
       <use x="349.902344" xlink:href="#DejaVuSans-48"/>
      </g>
     </g>
    </g>
    <g id="ytick_5">
     <g id="line2d_25">
      <path clip-path="url(#pb13b853307)" d="M 140.675 41.094326 
L 810.275 41.094326 
" style="fill:none;stroke:#d3d3d3;stroke-linecap:square;stroke-width:0.8;"/>
     </g>
     <g id="line2d_26">
      <g>
       <use style="stroke:#000000;stroke-width:0.8;" x="140.675" xlink:href="#m18d1081778" y="41.094326"/>
      </g>
     </g>
     <g id="text_5">
      <!-- 800,000 -->
      <defs>
       <path d="M 31.78125 34.625 
Q 24.75 34.625 20.71875 30.859375 
Q 16.703125 27.09375 16.703125 20.515625 
Q 16.703125 13.921875 20.71875 10.15625 
Q 24.75 6.390625 31.78125 6.390625 
Q 38.8125 6.390625 42.859375 10.171875 
Q 46.921875 13.96875 46.921875 20.515625 
Q 46.921875 27.09375 42.890625 30.859375 
Q 38.875 34.625 31.78125 34.625 
z
M 21.921875 38.8125 
Q 15.578125 40.375 12.03125 44.71875 
Q 8.5 49.078125 8.5 55.328125 
Q 8.5 64.0625 14.71875 69.140625 
Q 20.953125 74.21875 31.78125 74.21875 
Q 42.671875 74.21875 48.875 69.140625 
Q 55.078125 64.0625 55.078125 55.328125 
Q 55.078125 49.078125 51.53125 44.71875 
Q 48 40.375 41.703125 38.8125 
Q 48.828125 37.15625 52.796875 32.3125 
Q 56.78125 27.484375 56.78125 20.515625 
Q 56.78125 9.90625 50.3125 4.234375 
Q 43.84375 -1.421875 31.78125 -1.421875 
Q 19.734375 -1.421875 13.25 4.234375 
Q 6.78125 9.90625 6.78125 20.515625 
Q 6.78125 27.484375 10.78125 32.3125 
Q 14.796875 37.15625 21.921875 38.8125 
z
M 18.3125 54.390625 
Q 18.3125 48.734375 21.84375 45.5625 
Q 25.390625 42.390625 31.78125 42.390625 
Q 38.140625 42.390625 41.71875 45.5625 
Q 45.3125 48.734375 45.3125 54.390625 
Q 45.3125 60.0625 41.71875 63.234375 
Q 38.140625 66.40625 31.78125 66.40625 
Q 25.390625 66.40625 21.84375 63.234375 
Q 18.3125 60.0625 18.3125 54.390625 
z
" id="DejaVuSans-56"/>
      </defs>
      <g transform="translate(34.4275 50.212451)scale(0.24 -0.24)">
       <use xlink:href="#DejaVuSans-56"/>
       <use x="63.623047" xlink:href="#DejaVuSans-48"/>
       <use x="127.246094" xlink:href="#DejaVuSans-48"/>
       <use x="190.869141" xlink:href="#DejaVuSans-44"/>
       <use x="222.65625" xlink:href="#DejaVuSans-48"/>
       <use x="286.279297" xlink:href="#DejaVuSans-48"/>
       <use x="349.902344" xlink:href="#DejaVuSans-48"/>
      </g>
     </g>
    </g>
    <g id="text_6">
     <!-- Total manuscripts -->
     <defs>
      <path d="M -0.296875 72.90625 
L 61.375 72.90625 
L 61.375 64.59375 
L 35.5 64.59375 
L 35.5 0 
L 25.59375 0 
L 25.59375 64.59375 
L -0.296875 64.59375 
z
" id="DejaVuSans-84"/>
      <path d="M 30.609375 48.390625 
Q 23.390625 48.390625 19.1875 42.75 
Q 14.984375 37.109375 14.984375 27.296875 
Q 14.984375 17.484375 19.15625 11.84375 
Q 23.34375 6.203125 30.609375 6.203125 
Q 37.796875 6.203125 41.984375 11.859375 
Q 46.1875 17.53125 46.1875 27.296875 
Q 46.1875 37.015625 41.984375 42.703125 
Q 37.796875 48.390625 30.609375 48.390625 
z
M 30.609375 56 
Q 42.328125 56 49.015625 48.375 
Q 55.71875 40.765625 55.71875 27.296875 
Q 55.71875 13.875 49.015625 6.21875 
Q 42.328125 -1.421875 30.609375 -1.421875 
Q 18.84375 -1.421875 12.171875 6.21875 
Q 5.515625 13.875 5.515625 27.296875 
Q 5.515625 40.765625 12.171875 48.375 
Q 18.84375 56 30.609375 56 
z
" id="DejaVuSans-111"/>
      <path d="M 18.3125 70.21875 
L 18.3125 54.6875 
L 36.8125 54.6875 
L 36.8125 47.703125 
L 18.3125 47.703125 
L 18.3125 18.015625 
Q 18.3125 11.328125 20.140625 9.421875 
Q 21.96875 7.515625 27.59375 7.515625 
L 36.8125 7.515625 
L 36.8125 0 
L 27.59375 0 
Q 17.1875 0 13.234375 3.875 
Q 9.28125 7.765625 9.28125 18.015625 
L 9.28125 47.703125 
L 2.6875 47.703125 
L 2.6875 54.6875 
L 9.28125 54.6875 
L 9.28125 70.21875 
z
" id="DejaVuSans-116"/>
      <path d="M 34.28125 27.484375 
Q 23.390625 27.484375 19.1875 25 
Q 14.984375 22.515625 14.984375 16.5 
Q 14.984375 11.71875 18.140625 8.90625 
Q 21.296875 6.109375 26.703125 6.109375 
Q 34.1875 6.109375 38.703125 11.40625 
Q 43.21875 16.703125 43.21875 25.484375 
L 43.21875 27.484375 
z
M 52.203125 31.203125 
L 52.203125 0 
L 43.21875 0 
L 43.21875 8.296875 
Q 40.140625 3.328125 35.546875 0.953125 
Q 30.953125 -1.421875 24.3125 -1.421875 
Q 15.921875 -1.421875 10.953125 3.296875 
Q 6 8.015625 6 15.921875 
Q 6 25.140625 12.171875 29.828125 
Q 18.359375 34.515625 30.609375 34.515625 
L 43.21875 34.515625 
L 43.21875 35.40625 
Q 43.21875 41.609375 39.140625 45 
Q 35.0625 48.390625 27.6875 48.390625 
Q 23 48.390625 18.546875 47.265625 
Q 14.109375 46.140625 10.015625 43.890625 
L 10.015625 52.203125 
Q 14.9375 54.109375 19.578125 55.046875 
Q 24.21875 56 28.609375 56 
Q 40.484375 56 46.34375 49.84375 
Q 52.203125 43.703125 52.203125 31.203125 
z
" id="DejaVuSans-97"/>
      <path d="M 9.421875 75.984375 
L 18.40625 75.984375 
L 18.40625 0 
L 9.421875 0 
z
" id="DejaVuSans-108"/>
      <path id="DejaVuSans-32"/>
      <path d="M 52 44.1875 
Q 55.375 50.25 60.0625 53.125 
Q 64.75 56 71.09375 56 
Q 79.640625 56 84.28125 50.015625 
Q 88.921875 44.046875 88.921875 33.015625 
L 88.921875 0 
L 79.890625 0 
L 79.890625 32.71875 
Q 79.890625 40.578125 77.09375 44.375 
Q 74.3125 48.1875 68.609375 48.1875 
Q 61.625 48.1875 57.5625 43.546875 
Q 53.515625 38.921875 53.515625 30.90625 
L 53.515625 0 
L 44.484375 0 
L 44.484375 32.71875 
Q 44.484375 40.625 41.703125 44.40625 
Q 38.921875 48.1875 33.109375 48.1875 
Q 26.21875 48.1875 22.15625 43.53125 
Q 18.109375 38.875 18.109375 30.90625 
L 18.109375 0 
L 9.078125 0 
L 9.078125 54.6875 
L 18.109375 54.6875 
L 18.109375 46.1875 
Q 21.1875 51.21875 25.484375 53.609375 
Q 29.78125 56 35.6875 56 
Q 41.65625 56 45.828125 52.96875 
Q 50 49.953125 52 44.1875 
z
" id="DejaVuSans-109"/>
      <path d="M 54.890625 33.015625 
L 54.890625 0 
L 45.90625 0 
L 45.90625 32.71875 
Q 45.90625 40.484375 42.875 44.328125 
Q 39.84375 48.1875 33.796875 48.1875 
Q 26.515625 48.1875 22.3125 43.546875 
Q 18.109375 38.921875 18.109375 30.90625 
L 18.109375 0 
L 9.078125 0 
L 9.078125 54.6875 
L 18.109375 54.6875 
L 18.109375 46.1875 
Q 21.34375 51.125 25.703125 53.5625 
Q 30.078125 56 35.796875 56 
Q 45.21875 56 50.046875 50.171875 
Q 54.890625 44.34375 54.890625 33.015625 
z
" id="DejaVuSans-110"/>
      <path d="M 8.5 21.578125 
L 8.5 54.6875 
L 17.484375 54.6875 
L 17.484375 21.921875 
Q 17.484375 14.15625 20.5 10.265625 
Q 23.53125 6.390625 29.59375 6.390625 
Q 36.859375 6.390625 41.078125 11.03125 
Q 45.3125 15.671875 45.3125 23.6875 
L 45.3125 54.6875 
L 54.296875 54.6875 
L 54.296875 0 
L 45.3125 0 
L 45.3125 8.40625 
Q 42.046875 3.421875 37.71875 1 
Q 33.40625 -1.421875 27.6875 -1.421875 
Q 18.265625 -1.421875 13.375 4.4375 
Q 8.5 10.296875 8.5 21.578125 
z
M 31.109375 56 
z
" id="DejaVuSans-117"/>
      <path d="M 44.28125 53.078125 
L 44.28125 44.578125 
Q 40.484375 46.53125 36.375 47.5 
Q 32.28125 48.484375 27.875 48.484375 
Q 21.1875 48.484375 17.84375 46.4375 
Q 14.5 44.390625 14.5 40.28125 
Q 14.5 37.15625 16.890625 35.375 
Q 19.28125 33.59375 26.515625 31.984375 
L 29.59375 31.296875 
Q 39.15625 29.25 43.1875 25.515625 
Q 47.21875 21.78125 47.21875 15.09375 
Q 47.21875 7.46875 41.1875 3.015625 
Q 35.15625 -1.421875 24.609375 -1.421875 
Q 20.21875 -1.421875 15.453125 -0.5625 
Q 10.6875 0.296875 5.421875 2 
L 5.421875 11.28125 
Q 10.40625 8.6875 15.234375 7.390625 
Q 20.0625 6.109375 24.8125 6.109375 
Q 31.15625 6.109375 34.5625 8.28125 
Q 37.984375 10.453125 37.984375 14.40625 
Q 37.984375 18.0625 35.515625 20.015625 
Q 33.0625 21.96875 24.703125 23.78125 
L 21.578125 24.515625 
Q 13.234375 26.265625 9.515625 29.90625 
Q 5.8125 33.546875 5.8125 39.890625 
Q 5.8125 47.609375 11.28125 51.796875 
Q 16.75 56 26.8125 56 
Q 31.78125 56 36.171875 55.265625 
Q 40.578125 54.546875 44.28125 53.078125 
z
" id="DejaVuSans-115"/>
      <path d="M 48.78125 52.59375 
L 48.78125 44.1875 
Q 44.96875 46.296875 41.140625 47.34375 
Q 37.3125 48.390625 33.40625 48.390625 
Q 24.65625 48.390625 19.8125 42.84375 
Q 14.984375 37.3125 14.984375 27.296875 
Q 14.984375 17.28125 19.8125 11.734375 
Q 24.65625 6.203125 33.40625 6.203125 
Q 37.3125 6.203125 41.140625 7.25 
Q 44.96875 8.296875 48.78125 10.40625 
L 48.78125 2.09375 
Q 45.015625 0.34375 40.984375 -0.53125 
Q 36.96875 -1.421875 32.421875 -1.421875 
Q 20.0625 -1.421875 12.78125 6.34375 
Q 5.515625 14.109375 5.515625 27.296875 
Q 5.515625 40.671875 12.859375 48.328125 
Q 20.21875 56 33.015625 56 
Q 37.15625 56 41.109375 55.140625 
Q 45.0625 54.296875 48.78125 52.59375 
z
" id="DejaVuSans-99"/>
      <path d="M 41.109375 46.296875 
Q 39.59375 47.171875 37.8125 47.578125 
Q 36.03125 48 33.890625 48 
Q 26.265625 48 22.1875 43.046875 
Q 18.109375 38.09375 18.109375 28.8125 
L 18.109375 0 
L 9.078125 0 
L 9.078125 54.6875 
L 18.109375 54.6875 
L 18.109375 46.1875 
Q 20.953125 51.171875 25.484375 53.578125 
Q 30.03125 56 36.53125 56 
Q 37.453125 56 38.578125 55.875 
Q 39.703125 55.765625 41.0625 55.515625 
z
" id="DejaVuSans-114"/>
      <path d="M 9.421875 54.6875 
L 18.40625 54.6875 
L 18.40625 0 
L 9.421875 0 
z
M 9.421875 75.984375 
L 18.40625 75.984375 
L 18.40625 64.59375 
L 9.421875 64.59375 
z
" id="DejaVuSans-105"/>
      <path d="M 18.109375 8.203125 
L 18.109375 -20.796875 
L 9.078125 -20.796875 
L 9.078125 54.6875 
L 18.109375 54.6875 
L 18.109375 46.390625 
Q 20.953125 51.265625 25.265625 53.625 
Q 29.59375 56 35.59375 56 
Q 45.5625 56 51.78125 48.09375 
Q 58.015625 40.1875 58.015625 27.296875 
Q 58.015625 14.40625 51.78125 6.484375 
Q 45.5625 -1.421875 35.59375 -1.421875 
Q 29.59375 -1.421875 25.265625 0.953125 
Q 20.953125 3.328125 18.109375 8.203125 
z
M 48.6875 27.296875 
Q 48.6875 37.203125 44.609375 42.84375 
Q 40.53125 48.484375 33.40625 48.484375 
Q 26.265625 48.484375 22.1875 42.84375 
Q 18.109375 37.203125 18.109375 27.296875 
Q 18.109375 17.390625 22.1875 11.75 
Q 26.265625 6.109375 33.40625 6.109375 
Q 40.53125 6.109375 44.609375 11.75 
Q 48.6875 17.390625 48.6875 27.296875 
z
" id="DejaVuSans-112"/>
     </defs>
     <g transform="translate(25.43625 248.515398)rotate(-90)scale(0.24 -0.24)">
      <use xlink:href="#DejaVuSans-84"/>
      <use x="60.818359" xlink:href="#DejaVuSans-111"/>
      <use x="122" xlink:href="#DejaVuSans-116"/>
      <use x="161.208984" xlink:href="#DejaVuSans-97"/>
      <use x="222.488281" xlink:href="#DejaVuSans-108"/>
      <use x="250.271484" xlink:href="#DejaVuSans-32"/>
      <use x="282.058594" xlink:href="#DejaVuSans-109"/>
      <use x="379.470703" xlink:href="#DejaVuSans-97"/>
      <use x="440.75" xlink:href="#DejaVuSans-110"/>
      <use x="504.128906" xlink:href="#DejaVuSans-117"/>
      <use x="567.507812" xlink:href="#DejaVuSans-115"/>
      <use x="619.607422" xlink:href="#DejaVuSans-99"/>
      <use x="674.587891" xlink:href="#DejaVuSans-114"/>
      <use x="715.701172" xlink:href="#DejaVuSans-105"/>
      <use x="743.484375" xlink:href="#DejaVuSans-112"/>
      <use x="806.960938" xlink:href="#DejaVuSans-116"/>
      <use x="846.169922" xlink:href="#DejaVuSans-115"/>
     </g>
    </g>
   </g>
   <g id="line2d_27">
    <path clip-path="url(#pb13b853307)" d="M 171.111364 261.366614 
L 184.142223 260.46953 
L 190.657652 259.367848 
L 197.173082 258.983134 
L 203.688511 257.535209 
L 220.442473 255.72676 
L 226.957902 236.805517 
L 233.473332 235.14017 
L 234.404108 234.597781 
L 236.265659 233.799207 
L 237.196435 233.725179 
L 239.057986 233.296456 
L 239.988761 233.128289 
L 240.919537 234.865332 
L 242.781088 234.593409 
L 243.711864 234.577671 
L 245.573415 234.206072 
L 247.434967 233.512129 
L 248.365742 233.306073 
L 249.296518 233.224176 
L 252.088845 232.604844 
L 253.019621 231.549794 
L 253.950396 228.382021 
L 258.604274 227.929399 
L 259.53505 227.518745 
L 260.465826 227.598603 
L 261.396601 227.166673 
L 262.327377 226.589602 
L 263.258153 226.50479 
L 264.188928 225.445368 
L 265.119704 225.342778 
L 266.981255 224.760168 
L 268.842807 221.748904 
L 269.773582 221.369145 
L 271.635133 221.115 
L 272.565909 220.878051 
L 273.496685 220.356938 
L 275.358236 219.774037 
L 277.219787 219.479964 
L 279.081339 218.690425 
L 280.012114 218.484078 
L 280.94289 218.147745 
L 287.458319 216.509794 
L 291.181422 216.229127 
L 292.112198 215.341079 
L 293.042973 215.052834 
L 293.973749 214.938003 
L 294.904525 214.558826 
L 297.696852 213.833698 
L 298.627627 213.750926 
L 300.489178 212.931951 
L 301.419954 212.69063 
L 302.35073 212.893479 
L 306.073832 212.114433 
L 307.004608 211.439142 
L 307.935384 211.131371 
L 308.866159 208.779367 
L 309.796935 208.208416 
L 311.658486 207.964764 
L 313.520038 207.252459 
L 314.450813 207.126844 
L 316.312364 206.26386 
L 317.24314 206.18954 
L 318.173916 205.972409 
L 320.966243 204.692943 
L 321.897018 204.59793 
L 324.689345 203.675781 
L 326.550897 202.832616 
L 331.204775 201.343888 
L 332.13555 200.886894 
L 333.997102 200.385308 
L 336.789429 198.147261 
L 337.720204 197.744477 
L 338.65098 196.707497 
L 339.581756 196.677769 
L 340.512531 196.098074 
L 341.443307 195.290757 
L 342.374083 194.676963 
L 344.235634 194.387553 
L 345.16641 194.027029 
L 346.097185 193.517573 
L 347.027961 192.80148 
L 348.889512 192.058282 
L 352.612615 191.201418 
L 355.404942 190.490279 
L 356.335717 190.364664 
L 358.197269 189.78497 
L 359.128044 188.685328 
L 360.05882 188.410199 
L 360.989595 186.871633 
L 361.920371 186.333616 
L 364.712698 185.551655 
L 367.505025 184.675264 
L 368.435801 184.136955 
L 369.366576 184.101689 
L 370.297352 183.661891 
L 371.228128 183.433977 
L 373.089679 182.171414 
L 374.95123 181.53343 
L 376.812781 181.102666 
L 377.743557 180.839487 
L 378.674333 180.279028 
L 380.535884 177.842503 
L 381.46666 177.35957 
L 383.328211 177.060834 
L 384.258987 176.827965 
L 386.120538 175.385286 
L 387.982089 174.662198 
L 389.843641 174.355884 
L 391.705192 173.508055 
L 392.635967 173.337265 
L 393.566743 170.934257 
L 394.497519 170.629983 
L 396.35907 170.386331 
L 397.289846 170.010943 
L 399.151397 169.532382 
L 401.012948 168.891483 
L 402.8745 168.606444 
L 405.666827 167.223513 
L 406.597602 167.103727 
L 412.182256 165.381255 
L 413.113032 165.24952 
L 414.043807 164.992169 
L 414.974583 164.933296 
L 417.76691 164.014937 
L 418.697686 163.626142 
L 419.628461 163.511019 
L 420.559237 162.973876 
L 424.282339 161.158141 
L 425.213115 160.563582 
L 427.074666 159.98039 
L 428.936218 159.723914 
L 429.866993 159.215916 
L 430.797769 158.913099 
L 431.728545 158.900859 
L 436.382423 158.438036 
L 437.313198 157.639753 
L 441.036301 157.549987 
L 442.897852 157.261742 
L 443.828628 154.421559 
L 444.759404 153.886748 
L 445.690179 153.588303 
L 446.620955 152.953233 
L 448.482506 152.678395 
L 450.344058 151.890897 
L 452.205609 150.469494 
L 453.136384 150.196113 
L 454.06716 150.156185 
L 454.997936 149.778756 
L 456.859487 149.463116 
L 458.721038 148.586142 
L 459.651814 148.183649 
L 461.513365 147.932419 
L 463.374917 146.374326 
L 464.305692 146.273193 
L 465.236468 145.885564 
L 467.098019 145.686503 
L 473.613449 142.989714 
L 480.128878 139.962711 
L 486.644308 137.995422 
L 493.159737 135.29805 
L 499.675167 133.711103 
L 512.706026 131.18044 
L 519.221455 129.139705 
L 525.736885 122.071162 
L 533.18309 119.887616 
L 538.767744 117.799084 
L 545.283173 115.587268 
L 551.798603 113.103528 
L 558.314033 108.756256 
L 564.829462 105.430517 
L 571.344892 102.893151 
L 577.860321 99.496298 
L 590.89118 84.541401 
L 597.40661 82.042507 
L 603.922039 79.049021 
L 610.437469 75.588632 
L 616.952898 72.781091 
L 623.468328 67.570835 
L 629.983757 64.849855 
L 636.499187 61.567542 
L 643.014616 58.493325 
L 652.322373 56.045434 
L 656.045475 53.232356 
L 662.560905 50.149978 
L 669.076334 55.100552 
L 688.622623 51.427113 
L 701.653482 45.387972 
L 714.684341 40.563304 
L 721.199771 37.813179 
L 727.7152 34.601106 
L 734.23063 31.988254 
L 747.261489 27.81148 
L 760.292348 24.18817 
L 766.807777 21.682281 
L 779.838636 19.303172 
L 779.838636 19.303172 
" style="fill:none;stroke:#1f77b4;stroke-linecap:square;stroke-width:5;"/>
   </g>
   <g id="patch_3">
    <path d="M 140.675 274.254545 
L 140.675 7.2 
" style="fill:none;stroke:#000000;stroke-linecap:square;stroke-linejoin:miter;stroke-width:0.8;"/>
   </g>
   <g id="patch_4">
    <path d="M 140.675 274.254545 
L 810.275 274.254545 
" style="fill:none;stroke:#000000;stroke-linecap:square;stroke-linejoin:miter;stroke-width:0.8;"/>
   </g>
  </g>
  <g id="axes_2">
   <g id="patch_5">
    <path d="M 140.675 594.72 
L 810.275 594.72 
L 810.275 327.665455 
L 140.675 327.665455 
z
" style="fill:#ffffff;"/>
   </g>
   <g id="matplotlib.axis_3">
    <g id="xtick_9">
     <g id="line2d_28">
      <path clip-path="url(#pc6c9afb733)" d="M 182.280671 594.72 
L 182.280671 327.665455 
" style="fill:none;stroke:#d3d3d3;stroke-linecap:square;stroke-width:0.8;"/>
     </g>
     <g id="line2d_29">
      <g>
       <use style="stroke:#000000;stroke-width:0.8;" x="182.280671" xlink:href="#mf9f1ed486e" y="594.72"/>
      </g>
     </g>
     <g id="text_7">
      <!-- 2020-04 -->
      <defs>
       <path d="M 4.890625 31.390625 
L 31.203125 31.390625 
L 31.203125 23.390625 
L 4.890625 23.390625 
z
" id="DejaVuSans-45"/>
      </defs>
      <g transform="translate(92.941101 667.652431)rotate(-30)scale(0.24 -0.24)">
       <use xlink:href="#DejaVuSans-50"/>
       <use x="63.623047" xlink:href="#DejaVuSans-48"/>
       <use x="127.246094" xlink:href="#DejaVuSans-50"/>
       <use x="190.869141" xlink:href="#DejaVuSans-48"/>
       <use x="254.492188" xlink:href="#DejaVuSans-45"/>
       <use x="290.576172" xlink:href="#DejaVuSans-48"/>
       <use x="354.199219" xlink:href="#DejaVuSans-52"/>
      </g>
     </g>
    </g>
    <g id="xtick_10">
     <g id="line2d_30">
      <path clip-path="url(#pc6c9afb733)" d="M 266.981255 594.72 
L 266.981255 327.665455 
" style="fill:none;stroke:#d3d3d3;stroke-linecap:square;stroke-width:0.8;"/>
     </g>
     <g id="line2d_31">
      <g>
       <use style="stroke:#000000;stroke-width:0.8;" x="266.981255" xlink:href="#mf9f1ed486e" y="594.72"/>
      </g>
     </g>
     <g id="text_8">
      <!-- 2020-07 -->
      <defs>
       <path d="M 8.203125 72.90625 
L 55.078125 72.90625 
L 55.078125 68.703125 
L 28.609375 0 
L 18.3125 0 
L 43.21875 64.59375 
L 8.203125 64.59375 
z
" id="DejaVuSans-55"/>
      </defs>
      <g transform="translate(177.641685 667.652431)rotate(-30)scale(0.24 -0.24)">
       <use xlink:href="#DejaVuSans-50"/>
       <use x="63.623047" xlink:href="#DejaVuSans-48"/>
       <use x="127.246094" xlink:href="#DejaVuSans-50"/>
       <use x="190.869141" xlink:href="#DejaVuSans-48"/>
       <use x="254.492188" xlink:href="#DejaVuSans-45"/>
       <use x="290.576172" xlink:href="#DejaVuSans-48"/>
       <use x="354.199219" xlink:href="#DejaVuSans-55"/>
      </g>
     </g>
    </g>
    <g id="xtick_11">
     <g id="line2d_32">
      <path clip-path="url(#pc6c9afb733)" d="M 352.612615 594.72 
L 352.612615 327.665455 
" style="fill:none;stroke:#d3d3d3;stroke-linecap:square;stroke-width:0.8;"/>
     </g>
     <g id="line2d_33">
      <g>
       <use style="stroke:#000000;stroke-width:0.8;" x="352.612615" xlink:href="#mf9f1ed486e" y="594.72"/>
      </g>
     </g>
     <g id="text_9">
      <!-- 2020-10 -->
      <defs>
       <path d="M 12.40625 8.296875 
L 28.515625 8.296875 
L 28.515625 63.921875 
L 10.984375 60.40625 
L 10.984375 69.390625 
L 28.421875 72.90625 
L 38.28125 72.90625 
L 38.28125 8.296875 
L 54.390625 8.296875 
L 54.390625 0 
L 12.40625 0 
z
" id="DejaVuSans-49"/>
      </defs>
      <g transform="translate(263.273045 667.652431)rotate(-30)scale(0.24 -0.24)">
       <use xlink:href="#DejaVuSans-50"/>
       <use x="63.623047" xlink:href="#DejaVuSans-48"/>
       <use x="127.246094" xlink:href="#DejaVuSans-50"/>
       <use x="190.869141" xlink:href="#DejaVuSans-48"/>
       <use x="254.492188" xlink:href="#DejaVuSans-45"/>
       <use x="290.576172" xlink:href="#DejaVuSans-49"/>
       <use x="354.199219" xlink:href="#DejaVuSans-48"/>
      </g>
     </g>
    </g>
    <g id="xtick_12">
     <g id="line2d_34">
      <path clip-path="url(#pc6c9afb733)" d="M 438.243974 594.72 
L 438.243974 327.665455 
" style="fill:none;stroke:#d3d3d3;stroke-linecap:square;stroke-width:0.8;"/>
     </g>
     <g id="line2d_35">
      <g>
       <use style="stroke:#000000;stroke-width:0.8;" x="438.243974" xlink:href="#mf9f1ed486e" y="594.72"/>
      </g>
     </g>
     <g id="text_10">
      <!-- 2021-01 -->
      <g transform="translate(348.904404 667.652431)rotate(-30)scale(0.24 -0.24)">
       <use xlink:href="#DejaVuSans-50"/>
       <use x="63.623047" xlink:href="#DejaVuSans-48"/>
       <use x="127.246094" xlink:href="#DejaVuSans-50"/>
       <use x="190.869141" xlink:href="#DejaVuSans-49"/>
       <use x="254.492188" xlink:href="#DejaVuSans-45"/>
       <use x="290.576172" xlink:href="#DejaVuSans-48"/>
       <use x="354.199219" xlink:href="#DejaVuSans-49"/>
      </g>
     </g>
    </g>
    <g id="xtick_13">
     <g id="line2d_36">
      <path clip-path="url(#pc6c9afb733)" d="M 522.013782 594.72 
L 522.013782 327.665455 
" style="fill:none;stroke:#d3d3d3;stroke-linecap:square;stroke-width:0.8;"/>
     </g>
     <g id="line2d_37">
      <g>
       <use style="stroke:#000000;stroke-width:0.8;" x="522.013782" xlink:href="#mf9f1ed486e" y="594.72"/>
      </g>
     </g>
     <g id="text_11">
      <!-- 2021-04 -->
      <g transform="translate(432.674212 667.652431)rotate(-30)scale(0.24 -0.24)">
       <use xlink:href="#DejaVuSans-50"/>
       <use x="63.623047" xlink:href="#DejaVuSans-48"/>
       <use x="127.246094" xlink:href="#DejaVuSans-50"/>
       <use x="190.869141" xlink:href="#DejaVuSans-49"/>
       <use x="254.492188" xlink:href="#DejaVuSans-45"/>
       <use x="290.576172" xlink:href="#DejaVuSans-48"/>
       <use x="354.199219" xlink:href="#DejaVuSans-52"/>
      </g>
     </g>
    </g>
    <g id="xtick_14">
     <g id="line2d_38">
      <path clip-path="url(#pc6c9afb733)" d="M 606.714366 594.72 
L 606.714366 327.665455 
" style="fill:none;stroke:#d3d3d3;stroke-linecap:square;stroke-width:0.8;"/>
     </g>
     <g id="line2d_39">
      <g>
       <use style="stroke:#000000;stroke-width:0.8;" x="606.714366" xlink:href="#mf9f1ed486e" y="594.72"/>
      </g>
     </g>
     <g id="text_12">
      <!-- 2021-07 -->
      <g transform="translate(517.374796 667.652431)rotate(-30)scale(0.24 -0.24)">
       <use xlink:href="#DejaVuSans-50"/>
       <use x="63.623047" xlink:href="#DejaVuSans-48"/>
       <use x="127.246094" xlink:href="#DejaVuSans-50"/>
       <use x="190.869141" xlink:href="#DejaVuSans-49"/>
       <use x="254.492188" xlink:href="#DejaVuSans-45"/>
       <use x="290.576172" xlink:href="#DejaVuSans-48"/>
       <use x="354.199219" xlink:href="#DejaVuSans-55"/>
      </g>
     </g>
    </g>
    <g id="xtick_15">
     <g id="line2d_40">
      <path clip-path="url(#pc6c9afb733)" d="M 692.345726 594.72 
L 692.345726 327.665455 
" style="fill:none;stroke:#d3d3d3;stroke-linecap:square;stroke-width:0.8;"/>
     </g>
     <g id="line2d_41">
      <g>
       <use style="stroke:#000000;stroke-width:0.8;" x="692.345726" xlink:href="#mf9f1ed486e" y="594.72"/>
      </g>
     </g>
     <g id="text_13">
      <!-- 2021-10 -->
      <g transform="translate(603.006156 667.652431)rotate(-30)scale(0.24 -0.24)">
       <use xlink:href="#DejaVuSans-50"/>
       <use x="63.623047" xlink:href="#DejaVuSans-48"/>
       <use x="127.246094" xlink:href="#DejaVuSans-50"/>
       <use x="190.869141" xlink:href="#DejaVuSans-49"/>
       <use x="254.492188" xlink:href="#DejaVuSans-45"/>
       <use x="290.576172" xlink:href="#DejaVuSans-49"/>
       <use x="354.199219" xlink:href="#DejaVuSans-48"/>
      </g>
     </g>
    </g>
    <g id="xtick_16">
     <g id="line2d_42">
      <path clip-path="url(#pc6c9afb733)" d="M 777.977085 594.72 
L 777.977085 327.665455 
" style="fill:none;stroke:#d3d3d3;stroke-linecap:square;stroke-width:0.8;"/>
     </g>
     <g id="line2d_43">
      <g>
       <use style="stroke:#000000;stroke-width:0.8;" x="777.977085" xlink:href="#mf9f1ed486e" y="594.72"/>
      </g>
     </g>
     <g id="text_14">
      <!-- 2022-01 -->
      <g transform="translate(688.637515 667.652431)rotate(-30)scale(0.24 -0.24)">
       <use xlink:href="#DejaVuSans-50"/>
       <use x="63.623047" xlink:href="#DejaVuSans-48"/>
       <use x="127.246094" xlink:href="#DejaVuSans-50"/>
       <use x="190.869141" xlink:href="#DejaVuSans-50"/>
       <use x="254.492188" xlink:href="#DejaVuSans-45"/>
       <use x="290.576172" xlink:href="#DejaVuSans-48"/>
       <use x="354.199219" xlink:href="#DejaVuSans-49"/>
      </g>
     </g>
    </g>
   </g>
   <g id="matplotlib.axis_4">
    <g id="ytick_6">
     <g id="line2d_44">
      <path clip-path="url(#pc6c9afb733)" d="M 140.675 594.72 
L 810.275 594.72 
" style="fill:none;stroke:#d3d3d3;stroke-linecap:square;stroke-width:0.8;"/>
     </g>
     <g id="line2d_45">
      <g>
       <use style="stroke:#000000;stroke-width:0.8;" x="140.675" xlink:href="#m18d1081778" y="594.72"/>
      </g>
     </g>
     <g id="text_15">
      <!-- 0 -->
      <g transform="translate(118.405 603.838125)scale(0.24 -0.24)">
       <use xlink:href="#DejaVuSans-48"/>
      </g>
     </g>
    </g>
    <g id="ytick_7">
     <g id="line2d_46">
      <path clip-path="url(#pc6c9afb733)" d="M 140.675 521.744507 
L 810.275 521.744507 
" style="fill:none;stroke:#d3d3d3;stroke-linecap:square;stroke-width:0.8;"/>
     </g>
     <g id="line2d_47">
      <g>
       <use style="stroke:#000000;stroke-width:0.8;" x="140.675" xlink:href="#m18d1081778" y="521.744507"/>
      </g>
     </g>
     <g id="text_16">
      <!-- 5,000 -->
      <defs>
       <path d="M 10.796875 72.90625 
L 49.515625 72.90625 
L 49.515625 64.59375 
L 19.828125 64.59375 
L 19.828125 46.734375 
Q 21.96875 47.46875 24.109375 47.828125 
Q 26.265625 48.1875 28.421875 48.1875 
Q 40.625 48.1875 47.75 41.5 
Q 54.890625 34.8125 54.890625 23.390625 
Q 54.890625 11.625 47.5625 5.09375 
Q 40.234375 -1.421875 26.90625 -1.421875 
Q 22.3125 -1.421875 17.546875 -0.640625 
Q 12.796875 0.140625 7.71875 1.703125 
L 7.71875 11.625 
Q 12.109375 9.234375 16.796875 8.0625 
Q 21.484375 6.890625 26.703125 6.890625 
Q 35.15625 6.890625 40.078125 11.328125 
Q 45.015625 15.765625 45.015625 23.390625 
Q 45.015625 31 40.078125 35.4375 
Q 35.15625 39.890625 26.703125 39.890625 
Q 22.75 39.890625 18.8125 39.015625 
Q 14.890625 38.140625 10.796875 36.28125 
z
" id="DejaVuSans-53"/>
      </defs>
      <g transform="translate(64.9675 530.862632)scale(0.24 -0.24)">
       <use xlink:href="#DejaVuSans-53"/>
       <use x="63.623047" xlink:href="#DejaVuSans-44"/>
       <use x="95.410156" xlink:href="#DejaVuSans-48"/>
       <use x="159.033203" xlink:href="#DejaVuSans-48"/>
       <use x="222.65625" xlink:href="#DejaVuSans-48"/>
      </g>
     </g>
    </g>
    <g id="ytick_8">
     <g id="line2d_48">
      <path clip-path="url(#pc6c9afb733)" d="M 140.675 448.769015 
L 810.275 448.769015 
" style="fill:none;stroke:#d3d3d3;stroke-linecap:square;stroke-width:0.8;"/>
     </g>
     <g id="line2d_49">
      <g>
       <use style="stroke:#000000;stroke-width:0.8;" x="140.675" xlink:href="#m18d1081778" y="448.769015"/>
      </g>
     </g>
     <g id="text_17">
      <!-- 10,000 -->
      <g transform="translate(49.6975 457.88714)scale(0.24 -0.24)">
       <use xlink:href="#DejaVuSans-49"/>
       <use x="63.623047" xlink:href="#DejaVuSans-48"/>
       <use x="127.246094" xlink:href="#DejaVuSans-44"/>
       <use x="159.033203" xlink:href="#DejaVuSans-48"/>
       <use x="222.65625" xlink:href="#DejaVuSans-48"/>
       <use x="286.279297" xlink:href="#DejaVuSans-48"/>
      </g>
     </g>
    </g>
    <g id="ytick_9">
     <g id="line2d_50">
      <path clip-path="url(#pc6c9afb733)" d="M 140.675 375.793522 
L 810.275 375.793522 
" style="fill:none;stroke:#d3d3d3;stroke-linecap:square;stroke-width:0.8;"/>
     </g>
     <g id="line2d_51">
      <g>
       <use style="stroke:#000000;stroke-width:0.8;" x="140.675" xlink:href="#m18d1081778" y="375.793522"/>
      </g>
     </g>
     <g id="text_18">
      <!-- 15,000 -->
      <g transform="translate(49.6975 384.911647)scale(0.24 -0.24)">
       <use xlink:href="#DejaVuSans-49"/>
       <use x="63.623047" xlink:href="#DejaVuSans-53"/>
       <use x="127.246094" xlink:href="#DejaVuSans-44"/>
       <use x="159.033203" xlink:href="#DejaVuSans-48"/>
       <use x="222.65625" xlink:href="#DejaVuSans-48"/>
       <use x="286.279297" xlink:href="#DejaVuSans-48"/>
      </g>
     </g>
    </g>
    <g id="text_19">
     <!-- Preprints -->
     <defs>
      <path d="M 19.671875 64.796875 
L 19.671875 37.40625 
L 32.078125 37.40625 
Q 38.96875 37.40625 42.71875 40.96875 
Q 46.484375 44.53125 46.484375 51.125 
Q 46.484375 57.671875 42.71875 61.234375 
Q 38.96875 64.796875 32.078125 64.796875 
z
M 9.8125 72.90625 
L 32.078125 72.90625 
Q 44.34375 72.90625 50.609375 67.359375 
Q 56.890625 61.8125 56.890625 51.125 
Q 56.890625 40.328125 50.609375 34.8125 
Q 44.34375 29.296875 32.078125 29.296875 
L 19.671875 29.296875 
L 19.671875 0 
L 9.8125 0 
z
" id="DejaVuSans-80"/>
      <path d="M 56.203125 29.59375 
L 56.203125 25.203125 
L 14.890625 25.203125 
Q 15.484375 15.921875 20.484375 11.0625 
Q 25.484375 6.203125 34.421875 6.203125 
Q 39.59375 6.203125 44.453125 7.46875 
Q 49.3125 8.734375 54.109375 11.28125 
L 54.109375 2.78125 
Q 49.265625 0.734375 44.1875 -0.34375 
Q 39.109375 -1.421875 33.890625 -1.421875 
Q 20.796875 -1.421875 13.15625 6.1875 
Q 5.515625 13.8125 5.515625 26.8125 
Q 5.515625 40.234375 12.765625 48.109375 
Q 20.015625 56 32.328125 56 
Q 43.359375 56 49.78125 48.890625 
Q 56.203125 41.796875 56.203125 29.59375 
z
M 47.21875 32.234375 
Q 47.125 39.59375 43.09375 43.984375 
Q 39.0625 48.390625 32.421875 48.390625 
Q 24.90625 48.390625 20.390625 44.140625 
Q 15.875 39.890625 15.1875 32.171875 
z
" id="DejaVuSans-101"/>
     </defs>
     <g transform="translate(40.70625 515.185227)rotate(-90)scale(0.24 -0.24)">
      <use xlink:href="#DejaVuSans-80"/>
      <use x="60.287109" xlink:href="#DejaVuSans-114"/>
      <use x="101.369141" xlink:href="#DejaVuSans-101"/>
      <use x="162.892578" xlink:href="#DejaVuSans-112"/>
      <use x="226.369141" xlink:href="#DejaVuSans-114"/>
      <use x="267.482422" xlink:href="#DejaVuSans-105"/>
      <use x="295.265625" xlink:href="#DejaVuSans-110"/>
      <use x="358.644531" xlink:href="#DejaVuSans-116"/>
      <use x="397.853516" xlink:href="#DejaVuSans-115"/>
     </g>
    </g>
   </g>
   <g id="line2d_52">
    <path clip-path="url(#pc6c9afb733)" d="M 171.111364 592.034502 
L 177.626793 590.589587 
L 184.142223 588.7652 
L 190.657652 586.648911 
L 203.688511 583.014731 
L 210.203941 580.69411 
L 220.442473 577.848066 
L 226.957902 575.615016 
L 237.196435 572.47707 
L 239.057986 572.199763 
L 240.919537 571.470008 
L 243.711864 570.608897 
L 245.573415 570.229425 
L 247.434967 569.47048 
L 248.365742 569.207768 
L 249.296518 568.726129 
L 250.227294 568.419632 
L 252.088845 568.186111 
L 253.950396 567.339595 
L 254.881172 567.120669 
L 256.742723 566.493079 
L 258.604274 566.288748 
L 259.53505 566.026036 
L 260.465826 565.573588 
L 264.188928 564.566526 
L 266.981255 563.982722 
L 269.773582 563.063231 
L 271.635133 562.669164 
L 273.496685 561.939409 
L 274.42746 561.574531 
L 277.219787 560.903157 
L 279.081339 560.65504 
L 280.94289 559.93988 
L 285.596768 558.684702 
L 287.458319 558.100898 
L 288.389095 557.73602 
L 292.112198 556.874909 
L 293.973749 556.174345 
L 295.8353 555.44459 
L 297.696852 555.050522 
L 302.35073 553.547227 
L 304.212281 553.415871 
L 306.073832 552.832067 
L 308.866159 552.014742 
L 312.589262 551.328772 
L 316.312364 550.496851 
L 318.173916 550.102784 
L 320.966243 549.183293 
L 321.897018 548.8622 
L 326.550897 548.044875 
L 332.13555 546.687531 
L 333.997102 546.045346 
L 340.512531 544.673407 
L 342.374083 544.30853 
L 343.304858 544.206364 
L 345.16641 543.578775 
L 346.097185 543.257683 
L 349.820288 542.527928 
L 354.474166 541.433295 
L 357.266493 540.937062 
L 361.920371 539.492147 
L 362.851147 539.331601 
L 364.712698 538.806177 
L 365.643474 538.674822 
L 366.574249 538.309944 
L 368.435801 537.945067 
L 369.366576 537.813711 
L 374.95123 536.047704 
L 375.882006 535.916348 
L 381.46666 533.887629 
L 382.397435 533.727083 
L 383.328211 533.405991 
L 386.120538 532.792997 
L 387.051314 532.501095 
L 388.912865 532.180003 
L 394.497519 530.793468 
L 395.428294 530.676708 
L 399.151397 529.56748 
L 401.012948 529.231793 
L 401.943724 529.188008 
L 402.8745 528.79394 
L 405.666827 528.093375 
L 407.528378 527.845258 
L 411.25148 526.954957 
L 413.113032 526.268988 
L 414.974583 526.064656 
L 416.836134 525.320306 
L 419.628461 524.488386 
L 420.559237 524.32784 
L 427.074666 522.707784 
L 428.005442 522.649403 
L 428.936218 522.386692 
L 429.866993 521.919648 
L 431.728545 521.335844 
L 434.520872 521.000157 
L 436.382423 520.591494 
L 440.105525 519.832549 
L 441.036301 519.759574 
L 444.759404 518.752512 
L 447.551731 518.256279 
L 450.344058 517.249217 
L 452.205609 516.767579 
L 454.06716 516.534057 
L 454.997936 516.271345 
L 456.859487 515.48321 
L 460.58259 514.855621 
L 462.444141 514.271817 
L 463.374917 514.096676 
L 464.305692 513.644228 
L 465.236468 513.381516 
L 467.098019 513.075019 
L 473.613449 511.411177 
L 480.128878 509.49922 
L 493.159737 506.054776 
L 499.675167 504.099033 
L 512.706026 500.873516 
L 525.736885 497.837736 
L 551.798603 491.051015 
L 558.314033 489.503935 
L 564.829462 487.840093 
L 577.860321 484.132938 
L 590.89118 479.827384 
L 610.437469 474.281247 
L 616.952898 472.763357 
L 623.468328 471.02654 
L 629.983757 469.50865 
L 636.499187 467.830213 
L 643.014616 465.84528 
L 652.322373 463.422493 
L 656.045475 462.094339 
L 662.560905 460.415903 
L 669.076334 458.533135 
L 682.107193 454.592459 
L 688.622623 453.001593 
L 701.653482 448.754419 
L 708.168912 446.857057 
L 714.684341 445.309976 
L 721.199771 443.470994 
L 727.7152 441.442275 
L 734.23063 439.763839 
L 747.261489 436.538322 
L 760.292348 433.429566 
L 766.807777 431.415442 
L 779.838636 429.649435 
L 779.838636 429.649435 
" style="fill:none;stroke:#1f77b4;stroke-linecap:square;stroke-width:5;"/>
   </g>
   <g id="line2d_53">
    <path clip-path="url(#pc6c9afb733)" d="M 171.111364 586.211058 
L 177.626793 583.905032 
L 184.142223 580.183282 
L 190.657652 576.97236 
L 197.173082 572.812757 
L 203.688511 567.660687 
L 210.203941 563.121612 
L 220.442473 553.98508 
L 226.957902 549.460599 
L 233.473332 544.133388 
L 234.404108 541.739792 
L 235.334883 541.185179 
L 236.265659 540.966252 
L 237.196435 540.075951 
L 238.12721 539.404576 
L 239.057986 539.389981 
L 239.988761 539.054294 
L 240.919537 537.872091 
L 241.850313 536.967195 
L 242.781088 536.616913 
L 243.711864 535.303354 
L 244.64264 535.244973 
L 246.504191 534.252507 
L 247.434967 533.20166 
L 248.365742 533.172469 
L 249.296518 532.749212 
L 250.227294 531.114561 
L 251.158069 530.924824 
L 252.088845 530.501566 
L 253.019621 530.457781 
L 253.950396 529.392339 
L 254.881172 528.88151 
L 255.811947 528.531228 
L 257.673499 526.954957 
L 258.604274 526.925767 
L 259.53505 526.444129 
L 260.465826 525.451662 
L 261.396601 525.013809 
L 262.327377 524.882453 
L 263.258153 524.021343 
L 264.188928 524.006748 
L 265.119704 523.598085 
L 266.05048 522.663998 
L 266.981255 522.357501 
L 269.773582 521.131513 
L 270.704358 520.489329 
L 271.635133 520.343378 
L 272.565909 519.94931 
L 273.496685 519.190365 
L 274.42746 518.737917 
L 275.358236 518.577371 
L 276.289012 518.095733 
L 277.219787 517.220027 
L 279.081339 517.176241 
L 280.012114 516.242155 
L 280.94289 515.789707 
L 284.665992 513.731798 
L 285.596768 513.469086 
L 286.527544 513.002043 
L 287.458319 512.739331 
L 288.389095 512.680951 
L 289.319871 511.542533 
L 292.112198 510.083024 
L 293.042973 509.791122 
L 293.973749 508.900821 
L 294.904525 508.302421 
L 295.8353 508.112685 
L 296.766076 507.645642 
L 297.696852 507.41212 
L 298.627627 507.397525 
L 299.558403 505.908825 
L 300.489178 505.850445 
L 302.35073 504.624457 
L 305.143057 504.580671 
L 306.073832 503.821726 
L 307.935384 503.150352 
L 308.866159 501.880578 
L 309.796935 501.471915 
L 311.658486 500.917302 
L 312.589262 500.581614 
L 314.450813 500.348093 
L 316.312364 498.990749 
L 317.24314 498.801012 
L 318.173916 498.436135 
L 319.104691 497.837736 
L 320.035467 497.443668 
L 321.897018 497.385288 
L 324.689345 496.728508 
L 325.620121 495.44414 
L 326.550897 494.437078 
L 332.13555 492.510525 
L 333.997102 491.372107 
L 338.65098 489.591505 
L 340.512531 489.474744 
L 341.443307 487.737928 
L 343.304858 487.621167 
L 344.235634 487.519001 
L 345.16641 487.037363 
L 346.097185 486.074086 
L 347.027961 485.928135 
L 347.958736 485.242166 
L 348.889512 485.242166 
L 349.820288 484.921074 
L 352.612615 483.461564 
L 354.474166 483.082091 
L 355.404942 483.082091 
L 356.335717 482.819379 
L 357.266493 482.381526 
L 358.197269 481.797723 
L 360.989595 481.41825 
L 361.920371 481.41825 
L 362.851147 481.272299 
L 364.712698 480.469569 
L 365.643474 479.666838 
L 367.505025 479.301961 
L 368.435801 479.301961 
L 369.366576 479.097629 
L 370.297352 479.083034 
L 371.228128 478.280304 
L 372.158903 477.66731 
L 373.089679 477.579739 
L 374.020455 477.054315 
L 374.95123 477.054315 
L 375.882006 476.908365 
L 376.812781 476.645653 
L 377.743557 475.288309 
L 378.674333 475.186143 
L 381.46666 474.77748 
L 383.328211 474.587744 
L 384.258987 473.755823 
L 385.189762 472.60281 
L 386.120538 472.383884 
L 387.051314 471.931436 
L 387.982089 471.639534 
L 388.912865 471.610344 
L 391.705192 471.08492 
L 392.635967 470.530306 
L 393.566743 469.829742 
L 394.497519 469.815147 
L 395.428294 469.683791 
L 396.35907 469.012416 
L 397.289846 468.895655 
L 398.220621 468.07833 
L 399.151397 467.946974 
L 401.943724 467.42155 
L 402.8745 466.896127 
L 405.666827 466.312323 
L 407.528378 465.743114 
L 409.389929 464.400365 
L 411.25148 463.874942 
L 412.182256 463.495469 
L 413.113032 462.765714 
L 414.974583 462.736524 
L 415.905359 462.108935 
L 417.76691 461.554321 
L 418.697686 461.539726 
L 419.628461 460.547259 
L 420.559237 460.518069 
L 424.282339 459.14613 
L 425.213115 458.970988 
L 427.074666 458.212043 
L 428.005442 458.051497 
L 428.936218 458.036902 
L 429.866993 456.91308 
L 430.797769 456.752533 
L 431.728545 456.212515 
L 435.451647 455.774662 
L 436.382423 455.760067 
L 437.313198 455.57033 
L 438.243974 455.555735 
L 440.105525 455.088692 
L 441.036301 455.074097 
L 441.967077 454.037845 
L 442.897852 453.804324 
L 443.828628 453.2789 
L 444.759404 453.24971 
L 445.690179 452.636716 
L 446.620955 452.344814 
L 447.551731 452.315623 
L 449.413282 451.863175 
L 450.344058 451.396132 
L 451.274833 451.352347 
L 452.205609 450.140954 
L 454.06716 450.024193 
L 455.928711 449.980408 
L 456.859487 448.8128 
L 457.790263 448.739824 
L 458.721038 448.360352 
L 460.58259 448.316566 
L 461.513365 447.805738 
L 462.444141 446.652725 
L 463.374917 446.448394 
L 464.305692 446.360823 
L 465.236468 445.674854 
L 466.167244 445.601878 
L 467.098019 445.280786 
L 473.613449 442.449337 
L 480.128878 440.68333 
L 486.644308 437.924856 
L 493.159737 435.677211 
L 499.675167 432.845762 
L 512.706026 426.832581 
L 519.221455 422.921095 
L 525.736885 421.213468 
L 538.767744 416.426276 
L 545.283173 413.375901 
L 551.798603 410.792568 
L 558.314033 408.617898 
L 564.829462 406.238897 
L 571.344892 403.509614 
L 590.89118 397.014795 
L 597.40661 395.438524 
L 603.922039 392.738431 
L 610.437469 390.709712 
L 616.952898 387.484196 
L 623.468328 385.659808 
L 629.983757 382.463482 
L 636.499187 380.463953 
L 643.014616 378.595781 
L 652.322373 376.21678 
L 656.045475 375.574595 
L 662.560905 373.399926 
L 669.076334 371.736084 
L 682.107193 368.714899 
L 688.622623 365.985616 
L 701.653482 362.176295 
L 708.168912 360.687595 
L 714.684341 358.965373 
L 721.199771 356.688538 
L 727.7152 355.593905 
L 734.23063 353.521401 
L 747.261489 350.252099 
L 760.292348 346.428183 
L 766.807777 344.005397 
L 779.838636 340.254457 
L 779.838636 340.254457 
" style="fill:none;stroke:#ff7f0e;stroke-linecap:square;stroke-width:5;"/>
   </g>
   <g id="line2d_54">
    <path clip-path="url(#pc6c9afb733)" d="M 171.111364 591.669624 
L 177.626793 591.129606 
L 184.142223 590.326875 
L 190.657652 589.378194 
L 197.173082 588.254371 
L 203.688511 586.999193 
L 210.203941 585.992131 
L 220.442473 584.050983 
L 226.957902 582.474712 
L 235.334883 580.971417 
L 237.196435 580.314638 
L 244.64264 579.044864 
L 245.573415 579.001079 
L 246.504191 578.723772 
L 248.365742 578.300514 
L 249.296518 578.096183 
L 250.227294 577.731305 
L 252.088845 577.497784 
L 257.673499 575.863133 
L 259.53505 575.629611 
L 261.396601 575.104188 
L 263.258153 574.695525 
L 265.119704 574.564169 
L 266.05048 574.301457 
L 266.981255 573.834414 
L 268.842807 573.30899 
L 272.565909 572.856542 
L 276.289012 572.083002 
L 278.150563 571.995432 
L 280.94289 571.294867 
L 284.665992 570.842419 
L 285.596768 570.565112 
L 288.389095 570.010498 
L 289.319871 569.733191 
L 291.181422 569.572645 
L 292.112198 569.295338 
L 293.973749 568.915866 
L 295.8353 568.463418 
L 297.696852 568.346657 
L 299.558403 567.967184 
L 300.489178 567.704473 
L 302.35073 567.412571 
L 304.212281 567.412571 
L 306.073832 566.887147 
L 315.381589 565.179521 
L 317.24314 564.989784 
L 319.104691 564.683287 
L 321.897018 564.070293 
L 331.204775 562.698354 
L 342.374083 560.844776 
L 343.304858 560.800991 
L 345.16641 560.436114 
L 347.027961 560.158807 
L 347.958736 559.983665 
L 349.820288 559.925285 
L 354.474166 559.078769 
L 357.266493 558.947413 
L 360.989595 558.130088 
L 362.851147 558.057112 
L 364.712698 557.70683 
L 366.574249 557.210597 
L 367.505025 556.96248 
L 369.366576 556.874909 
L 372.158903 556.364081 
L 374.020455 556.086774 
L 375.882006 555.999204 
L 380.535884 555.123498 
L 382.397435 554.977547 
L 384.258987 554.510503 
L 385.189762 554.408338 
L 387.051314 553.897509 
L 388.912865 553.780749 
L 389.843641 553.532632 
L 397.289846 552.365024 
L 398.220621 552.116907 
L 399.151397 552.087717 
L 409.389929 550.97849 
L 412.182256 550.23414 
L 413.113032 550.029808 
L 414.974583 549.840072 
L 416.836134 549.51898 
L 419.628461 548.993556 
L 420.559237 548.949771 
L 425.213115 548.278396 
L 426.143891 547.942709 
L 427.074666 547.942709 
L 428.005442 547.796758 
L 430.797769 547.096193 
L 431.728545 546.906457 
L 434.520872 546.687531 
L 437.313198 546.103727 
L 441.036301 545.870205 
L 442.897852 545.330187 
L 445.690179 544.819358 
L 447.551731 544.790168 
L 448.482506 544.483671 
L 450.344058 544.177174 
L 452.205609 543.841486 
L 454.06716 543.783106 
L 454.997936 543.59337 
L 455.928711 543.213897 
L 459.651814 542.732259 
L 461.513365 542.484142 
L 464.305692 541.681412 
L 467.098019 541.36032 
L 473.613449 540.017571 
L 480.128878 539.112675 
L 486.644308 537.842901 
L 493.159737 536.733673 
L 519.221455 531.377272 
L 525.736885 530.34102 
L 533.18309 528.896106 
L 538.767744 528.297707 
L 545.283173 527.349025 
L 551.798603 525.90411 
L 558.314033 524.648932 
L 564.829462 523.568895 
L 571.344892 522.255336 
L 597.40661 517.68707 
L 603.922039 516.840554 
L 610.437469 515.862683 
L 616.952898 514.73886 
L 623.468328 513.819369 
L 629.983757 512.710141 
L 636.499187 511.805245 
L 656.045475 508.492158 
L 662.560905 507.528881 
L 669.076334 506.317488 
L 682.107193 504.186604 
L 688.622623 503.281708 
L 701.653482 501.311369 
L 708.168912 500.464854 
L 714.684341 499.472387 
L 721.199771 498.655061 
L 727.7152 497.67719 
L 747.261489 495.035477 
L 760.292348 492.5835 
L 766.807777 490.934254 
L 779.838636 488.423897 
L 779.838636 488.423897 
" style="fill:none;stroke:#2ca02c;stroke-linecap:square;stroke-width:5;"/>
   </g>
   <g id="patch_6">
    <path d="M 140.675 594.72 
L 140.675 327.665455 
" style="fill:none;stroke:#000000;stroke-linecap:square;stroke-linejoin:miter;stroke-width:0.8;"/>
   </g>
   <g id="patch_7">
    <path d="M 140.675 594.72 
L 810.275 594.72 
" style="fill:none;stroke:#000000;stroke-linecap:square;stroke-linejoin:miter;stroke-width:0.8;"/>
   </g>
   <g id="legend_1">
    <g id="patch_8">
     <path d="M 157.475 452.547955 
L 339.41 452.547955 
Q 344.21 452.547955 344.21 447.747955 
L 344.21 344.465455 
Q 344.21 339.665455 339.41 339.665455 
L 157.475 339.665455 
Q 152.675 339.665455 152.675 344.465455 
L 152.675 447.747955 
Q 152.675 452.547955 157.475 452.547955 
z
" style="fill:#ffffff;opacity:0.8;stroke:#cccccc;stroke-linejoin:miter;"/>
    </g>
    <g id="line2d_55">
     <path d="M 162.275 359.101705 
L 210.275 359.101705 
" style="fill:none;stroke:#1f77b4;stroke-linecap:square;stroke-width:5;"/>
    </g>
    <g id="line2d_56"/>
    <g id="text_20">
     <!-- arXiv -->
     <defs>
      <path d="M 6.296875 72.90625 
L 16.890625 72.90625 
L 35.015625 45.796875 
L 53.21875 72.90625 
L 63.8125 72.90625 
L 40.375 37.890625 
L 65.375 0 
L 54.78125 0 
L 34.28125 31 
L 13.625 0 
L 2.984375 0 
L 29 38.921875 
z
" id="DejaVuSans-88"/>
      <path d="M 2.984375 54.6875 
L 12.5 54.6875 
L 29.59375 8.796875 
L 46.6875 54.6875 
L 56.203125 54.6875 
L 35.6875 0 
L 23.484375 0 
z
" id="DejaVuSans-118"/>
     </defs>
     <g transform="translate(229.475 367.501705)scale(0.24 -0.24)">
      <use xlink:href="#DejaVuSans-97"/>
      <use x="61.279297" xlink:href="#DejaVuSans-114"/>
      <use x="102.392578" xlink:href="#DejaVuSans-88"/>
      <use x="170.898438" xlink:href="#DejaVuSans-105"/>
      <use x="198.681641" xlink:href="#DejaVuSans-118"/>
     </g>
    </g>
    <g id="line2d_57">
     <path d="M 162.275 394.329205 
L 210.275 394.329205 
" style="fill:none;stroke:#ff7f0e;stroke-linecap:square;stroke-width:5;"/>
    </g>
    <g id="line2d_58"/>
    <g id="text_21">
     <!-- medRxiv -->
     <defs>
      <path d="M 45.40625 46.390625 
L 45.40625 75.984375 
L 54.390625 75.984375 
L 54.390625 0 
L 45.40625 0 
L 45.40625 8.203125 
Q 42.578125 3.328125 38.25 0.953125 
Q 33.9375 -1.421875 27.875 -1.421875 
Q 17.96875 -1.421875 11.734375 6.484375 
Q 5.515625 14.40625 5.515625 27.296875 
Q 5.515625 40.1875 11.734375 48.09375 
Q 17.96875 56 27.875 56 
Q 33.9375 56 38.25 53.625 
Q 42.578125 51.265625 45.40625 46.390625 
z
M 14.796875 27.296875 
Q 14.796875 17.390625 18.875 11.75 
Q 22.953125 6.109375 30.078125 6.109375 
Q 37.203125 6.109375 41.296875 11.75 
Q 45.40625 17.390625 45.40625 27.296875 
Q 45.40625 37.203125 41.296875 42.84375 
Q 37.203125 48.484375 30.078125 48.484375 
Q 22.953125 48.484375 18.875 42.84375 
Q 14.796875 37.203125 14.796875 27.296875 
z
" id="DejaVuSans-100"/>
      <path d="M 44.390625 34.1875 
Q 47.5625 33.109375 50.5625 29.59375 
Q 53.5625 26.078125 56.59375 19.921875 
L 66.609375 0 
L 56 0 
L 46.6875 18.703125 
Q 43.0625 26.03125 39.671875 28.421875 
Q 36.28125 30.8125 30.421875 30.8125 
L 19.671875 30.8125 
L 19.671875 0 
L 9.8125 0 
L 9.8125 72.90625 
L 32.078125 72.90625 
Q 44.578125 72.90625 50.734375 67.671875 
Q 56.890625 62.453125 56.890625 51.90625 
Q 56.890625 45.015625 53.6875 40.46875 
Q 50.484375 35.9375 44.390625 34.1875 
z
M 19.671875 64.796875 
L 19.671875 38.921875 
L 32.078125 38.921875 
Q 39.203125 38.921875 42.84375 42.21875 
Q 46.484375 45.515625 46.484375 51.90625 
Q 46.484375 58.296875 42.84375 61.546875 
Q 39.203125 64.796875 32.078125 64.796875 
z
" id="DejaVuSans-82"/>
      <path d="M 54.890625 54.6875 
L 35.109375 28.078125 
L 55.90625 0 
L 45.3125 0 
L 29.390625 21.484375 
L 13.484375 0 
L 2.875 0 
L 24.125 28.609375 
L 4.6875 54.6875 
L 15.28125 54.6875 
L 29.78125 35.203125 
L 44.28125 54.6875 
z
" id="DejaVuSans-120"/>
     </defs>
     <g transform="translate(229.475 402.729205)scale(0.24 -0.24)">
      <use xlink:href="#DejaVuSans-109"/>
      <use x="97.412109" xlink:href="#DejaVuSans-101"/>
      <use x="158.935547" xlink:href="#DejaVuSans-100"/>
      <use x="222.412109" xlink:href="#DejaVuSans-82"/>
      <use x="291.894531" xlink:href="#DejaVuSans-120"/>
      <use x="351.074219" xlink:href="#DejaVuSans-105"/>
      <use x="378.857422" xlink:href="#DejaVuSans-118"/>
     </g>
    </g>
    <g id="line2d_59">
     <path d="M 162.275 429.556705 
L 210.275 429.556705 
" style="fill:none;stroke:#2ca02c;stroke-linecap:square;stroke-width:5;"/>
    </g>
    <g id="line2d_60"/>
    <g id="text_22">
     <!-- bioRxiv -->
     <defs>
      <path d="M 48.6875 27.296875 
Q 48.6875 37.203125 44.609375 42.84375 
Q 40.53125 48.484375 33.40625 48.484375 
Q 26.265625 48.484375 22.1875 42.84375 
Q 18.109375 37.203125 18.109375 27.296875 
Q 18.109375 17.390625 22.1875 11.75 
Q 26.265625 6.109375 33.40625 6.109375 
Q 40.53125 6.109375 44.609375 11.75 
Q 48.6875 17.390625 48.6875 27.296875 
z
M 18.109375 46.390625 
Q 20.953125 51.265625 25.265625 53.625 
Q 29.59375 56 35.59375 56 
Q 45.5625 56 51.78125 48.09375 
Q 58.015625 40.1875 58.015625 27.296875 
Q 58.015625 14.40625 51.78125 6.484375 
Q 45.5625 -1.421875 35.59375 -1.421875 
Q 29.59375 -1.421875 25.265625 0.953125 
Q 20.953125 3.328125 18.109375 8.203125 
L 18.109375 0 
L 9.078125 0 
L 9.078125 75.984375 
L 18.109375 75.984375 
z
" id="DejaVuSans-98"/>
     </defs>
     <g transform="translate(229.475 437.956705)scale(0.24 -0.24)">
      <use xlink:href="#DejaVuSans-98"/>
      <use x="63.476562" xlink:href="#DejaVuSans-105"/>
      <use x="91.259766" xlink:href="#DejaVuSans-111"/>
      <use x="152.441406" xlink:href="#DejaVuSans-82"/>
      <use x="221.923828" xlink:href="#DejaVuSans-120"/>
      <use x="281.103516" xlink:href="#DejaVuSans-105"/>
      <use x="308.886719" xlink:href="#DejaVuSans-118"/>
     </g>
    </g>
   </g>
  </g>
 </g>
 <defs>
  <clipPath id="pb13b853307">
   <rect height="267.054545" width="669.6" x="140.675" y="7.2"/>
  </clipPath>
  <clipPath id="pc6c9afb733">
   <rect height="267.054545" width="669.6" x="140.675" y="327.665455"/>
  </clipPath>
 </defs>
</svg>
