<?xml version="1.0" encoding="utf-8" standalone="no"?>
<!DOCTYPE svg PUBLIC "-//W3C//DTD SVG 1.1//EN"
  "http://www.w3.org/Graphics/SVG/1.1/DTD/svg11.dtd">
<!-- Created with matplotlib (https://matplotlib.org/) -->
<svg height="681.044392pt" version="1.1" viewBox="0 0 817.475 681.044392" width="817.475pt" xmlns="http://www.w3.org/2000/svg" xmlns:xlink="http://www.w3.org/1999/xlink">
 <defs>
  <style type="text/css">
*{stroke-linecap:butt;stroke-linejoin:round;}
  </style>
 </defs>
 <g id="figure_1">
  <g id="patch_1">
   <path d="M 0 681.044392 
L 817.475 681.044392 
L 817.475 0 
L 0 0 
z
" style="fill:#ffffff;"/>
  </g>
  <g id="axes_1">
   <g id="patch_2">
    <path d="M 140.675 276.123958 
L 810.275 276.123958 
L 810.275 9.069412 
L 140.675 9.069412 
z
" style="fill:#ffffff;"/>
   </g>
   <g id="matplotlib.axis_1">
    <g id="xtick_1">
     <g id="line2d_1">
      <path clip-path="url(#p424021b11a)" d="M 150.820455 276.123958 
L 150.820455 9.069412 
" style="fill:none;stroke:#d3d3d3;stroke-linecap:square;stroke-width:0.8;"/>
     </g>
     <g id="line2d_2">
      <defs>
       <path d="M 0 0 
L 0 3.5 
" id="m835c35ac03" style="stroke:#000000;stroke-width:0.8;"/>
      </defs>
      <g>
       <use style="stroke:#000000;stroke-width:0.8;" x="150.820455" xlink:href="#m835c35ac03" y="276.123958"/>
      </g>
     </g>
    </g>
    <g id="xtick_2">
     <g id="line2d_3">
      <path clip-path="url(#p424021b11a)" d="M 215.964952 276.123958 
L 215.964952 9.069412 
" style="fill:none;stroke:#d3d3d3;stroke-linecap:square;stroke-width:0.8;"/>
     </g>
     <g id="line2d_4">
      <g>
       <use style="stroke:#000000;stroke-width:0.8;" x="215.964952" xlink:href="#m835c35ac03" y="276.123958"/>
      </g>
     </g>
    </g>
    <g id="xtick_3">
     <g id="line2d_5">
      <path clip-path="url(#p424021b11a)" d="M 281.10945 276.123958 
L 281.10945 9.069412 
" style="fill:none;stroke:#d3d3d3;stroke-linecap:square;stroke-width:0.8;"/>
     </g>
     <g id="line2d_6">
      <g>
       <use style="stroke:#000000;stroke-width:0.8;" x="281.10945" xlink:href="#m835c35ac03" y="276.123958"/>
      </g>
     </g>
    </g>
    <g id="xtick_4">
     <g id="line2d_7">
      <path clip-path="url(#p424021b11a)" d="M 347.32189 276.123958 
L 347.32189 9.069412 
" style="fill:none;stroke:#d3d3d3;stroke-linecap:square;stroke-width:0.8;"/>
     </g>
     <g id="line2d_8">
      <g>
       <use style="stroke:#000000;stroke-width:0.8;" x="347.32189" xlink:href="#m835c35ac03" y="276.123958"/>
      </g>
     </g>
    </g>
    <g id="xtick_5">
     <g id="line2d_9">
      <path clip-path="url(#p424021b11a)" d="M 412.466388 276.123958 
L 412.466388 9.069412 
" style="fill:none;stroke:#d3d3d3;stroke-linecap:square;stroke-width:0.8;"/>
     </g>
     <g id="line2d_10">
      <g>
       <use style="stroke:#000000;stroke-width:0.8;" x="412.466388" xlink:href="#m835c35ac03" y="276.123958"/>
      </g>
     </g>
    </g>
    <g id="xtick_6">
     <g id="line2d_11">
      <path clip-path="url(#p424021b11a)" d="M 477.610885 276.123958 
L 477.610885 9.069412 
" style="fill:none;stroke:#d3d3d3;stroke-linecap:square;stroke-width:0.8;"/>
     </g>
     <g id="line2d_12">
      <g>
       <use style="stroke:#000000;stroke-width:0.8;" x="477.610885" xlink:href="#m835c35ac03" y="276.123958"/>
      </g>
     </g>
    </g>
    <g id="xtick_7">
     <g id="line2d_13">
      <path clip-path="url(#p424021b11a)" d="M 540.619498 276.123958 
L 540.619498 9.069412 
" style="fill:none;stroke:#d3d3d3;stroke-linecap:square;stroke-width:0.8;"/>
     </g>
     <g id="line2d_14">
      <g>
       <use style="stroke:#000000;stroke-width:0.8;" x="540.619498" xlink:href="#m835c35ac03" y="276.123958"/>
      </g>
     </g>
    </g>
    <g id="xtick_8">
     <g id="line2d_15">
      <path clip-path="url(#p424021b11a)" d="M 605.763995 276.123958 
L 605.763995 9.069412 
" style="fill:none;stroke:#d3d3d3;stroke-linecap:square;stroke-width:0.8;"/>
     </g>
     <g id="line2d_16">
      <g>
       <use style="stroke:#000000;stroke-width:0.8;" x="605.763995" xlink:href="#m835c35ac03" y="276.123958"/>
      </g>
     </g>
    </g>
    <g id="xtick_9">
     <g id="line2d_17">
      <path clip-path="url(#p424021b11a)" d="M 670.908493 276.123958 
L 670.908493 9.069412 
" style="fill:none;stroke:#d3d3d3;stroke-linecap:square;stroke-width:0.8;"/>
     </g>
     <g id="line2d_18">
      <g>
       <use style="stroke:#000000;stroke-width:0.8;" x="670.908493" xlink:href="#m835c35ac03" y="276.123958"/>
      </g>
     </g>
    </g>
    <g id="xtick_10">
     <g id="line2d_19">
      <path clip-path="url(#p424021b11a)" d="M 737.120933 276.123958 
L 737.120933 9.069412 
" style="fill:none;stroke:#d3d3d3;stroke-linecap:square;stroke-width:0.8;"/>
     </g>
     <g id="line2d_20">
      <g>
       <use style="stroke:#000000;stroke-width:0.8;" x="737.120933" xlink:href="#m835c35ac03" y="276.123958"/>
      </g>
     </g>
    </g>
    <g id="xtick_11">
     <g id="line2d_21">
      <path clip-path="url(#p424021b11a)" d="M 802.265431 276.123958 
L 802.265431 9.069412 
" style="fill:none;stroke:#d3d3d3;stroke-linecap:square;stroke-width:0.8;"/>
     </g>
     <g id="line2d_22">
      <g>
       <use style="stroke:#000000;stroke-width:0.8;" x="802.265431" xlink:href="#m835c35ac03" y="276.123958"/>
      </g>
     </g>
    </g>
   </g>
   <g id="matplotlib.axis_2">
    <g id="ytick_1">
     <g id="line2d_23">
      <path clip-path="url(#p424021b11a)" d="M 140.675 276.123958 
L 810.275 276.123958 
" style="fill:none;stroke:#d3d3d3;stroke-linecap:square;stroke-width:0.8;"/>
     </g>
     <g id="line2d_24">
      <defs>
       <path d="M 0 0 
L -3.5 0 
" id="m7ddd461b75" style="stroke:#000000;stroke-width:0.8;"/>
      </defs>
      <g>
       <use style="stroke:#000000;stroke-width:0.8;" x="140.675" xlink:href="#m7ddd461b75" y="276.123958"/>
      </g>
     </g>
     <g id="text_1">
      <!-- 0 -->
      <defs>
       <path d="M 31.78125 66.40625 
Q 24.171875 66.40625 20.328125 58.90625 
Q 16.5 51.421875 16.5 36.375 
Q 16.5 21.390625 20.328125 13.890625 
Q 24.171875 6.390625 31.78125 6.390625 
Q 39.453125 6.390625 43.28125 13.890625 
Q 47.125 21.390625 47.125 36.375 
Q 47.125 51.421875 43.28125 58.90625 
Q 39.453125 66.40625 31.78125 66.40625 
z
M 31.78125 74.21875 
Q 44.046875 74.21875 50.515625 64.515625 
Q 56.984375 54.828125 56.984375 36.375 
Q 56.984375 17.96875 50.515625 8.265625 
Q 44.046875 -1.421875 31.78125 -1.421875 
Q 19.53125 -1.421875 13.0625 8.265625 
Q 6.59375 17.96875 6.59375 36.375 
Q 6.59375 54.828125 13.0625 64.515625 
Q 19.53125 74.21875 31.78125 74.21875 
z
" id="DejaVuSans-48"/>
      </defs>
      <g transform="translate(118.405 285.242083)scale(0.24 -0.24)">
       <use xlink:href="#DejaVuSans-48"/>
      </g>
     </g>
    </g>
    <g id="ytick_2">
     <g id="line2d_25">
      <path clip-path="url(#p424021b11a)" d="M 140.675 211.1725 
L 810.275 211.1725 
" style="fill:none;stroke:#d3d3d3;stroke-linecap:square;stroke-width:0.8;"/>
     </g>
     <g id="line2d_26">
      <g>
       <use style="stroke:#000000;stroke-width:0.8;" x="140.675" xlink:href="#m7ddd461b75" y="211.1725"/>
      </g>
     </g>
     <g id="text_2">
      <!-- 200,000 -->
      <defs>
       <path d="M 19.1875 8.296875 
L 53.609375 8.296875 
L 53.609375 0 
L 7.328125 0 
L 7.328125 8.296875 
Q 12.9375 14.109375 22.625 23.890625 
Q 32.328125 33.6875 34.8125 36.53125 
Q 39.546875 41.84375 41.421875 45.53125 
Q 43.3125 49.21875 43.3125 52.78125 
Q 43.3125 58.59375 39.234375 62.25 
Q 35.15625 65.921875 28.609375 65.921875 
Q 23.96875 65.921875 18.8125 64.3125 
Q 13.671875 62.703125 7.8125 59.421875 
L 7.8125 69.390625 
Q 13.765625 71.78125 18.9375 73 
Q 24.125 74.21875 28.421875 74.21875 
Q 39.75 74.21875 46.484375 68.546875 
Q 53.21875 62.890625 53.21875 53.421875 
Q 53.21875 48.921875 51.53125 44.890625 
Q 49.859375 40.875 45.40625 35.40625 
Q 44.1875 33.984375 37.640625 27.21875 
Q 31.109375 20.453125 19.1875 8.296875 
z
" id="DejaVuSans-50"/>
       <path d="M 11.71875 12.40625 
L 22.015625 12.40625 
L 22.015625 4 
L 14.015625 -11.625 
L 7.71875 -11.625 
L 11.71875 4 
z
" id="DejaVuSans-44"/>
      </defs>
      <g transform="translate(34.4275 220.290625)scale(0.24 -0.24)">
       <use xlink:href="#DejaVuSans-50"/>
       <use x="63.623047" xlink:href="#DejaVuSans-48"/>
       <use x="127.246094" xlink:href="#DejaVuSans-48"/>
       <use x="190.869141" xlink:href="#DejaVuSans-44"/>
       <use x="222.65625" xlink:href="#DejaVuSans-48"/>
       <use x="286.279297" xlink:href="#DejaVuSans-48"/>
       <use x="349.902344" xlink:href="#DejaVuSans-48"/>
      </g>
     </g>
    </g>
    <g id="ytick_3">
     <g id="line2d_27">
      <path clip-path="url(#p424021b11a)" d="M 140.675 146.221041 
L 810.275 146.221041 
" style="fill:none;stroke:#d3d3d3;stroke-linecap:square;stroke-width:0.8;"/>
     </g>
     <g id="line2d_28">
      <g>
       <use style="stroke:#000000;stroke-width:0.8;" x="140.675" xlink:href="#m7ddd461b75" y="146.221041"/>
      </g>
     </g>
     <g id="text_3">
      <!-- 400,000 -->
      <defs>
       <path d="M 37.796875 64.3125 
L 12.890625 25.390625 
L 37.796875 25.390625 
z
M 35.203125 72.90625 
L 47.609375 72.90625 
L 47.609375 25.390625 
L 58.015625 25.390625 
L 58.015625 17.1875 
L 47.609375 17.1875 
L 47.609375 0 
L 37.796875 0 
L 37.796875 17.1875 
L 4.890625 17.1875 
L 4.890625 26.703125 
z
" id="DejaVuSans-52"/>
      </defs>
      <g transform="translate(34.4275 155.339166)scale(0.24 -0.24)">
       <use xlink:href="#DejaVuSans-52"/>
       <use x="63.623047" xlink:href="#DejaVuSans-48"/>
       <use x="127.246094" xlink:href="#DejaVuSans-48"/>
       <use x="190.869141" xlink:href="#DejaVuSans-44"/>
       <use x="222.65625" xlink:href="#DejaVuSans-48"/>
       <use x="286.279297" xlink:href="#DejaVuSans-48"/>
       <use x="349.902344" xlink:href="#DejaVuSans-48"/>
      </g>
     </g>
    </g>
    <g id="ytick_4">
     <g id="line2d_29">
      <path clip-path="url(#p424021b11a)" d="M 140.675 81.269583 
L 810.275 81.269583 
" style="fill:none;stroke:#d3d3d3;stroke-linecap:square;stroke-width:0.8;"/>
     </g>
     <g id="line2d_30">
      <g>
       <use style="stroke:#000000;stroke-width:0.8;" x="140.675" xlink:href="#m7ddd461b75" y="81.269583"/>
      </g>
     </g>
     <g id="text_4">
      <!-- 600,000 -->
      <defs>
       <path d="M 33.015625 40.375 
Q 26.375 40.375 22.484375 35.828125 
Q 18.609375 31.296875 18.609375 23.390625 
Q 18.609375 15.53125 22.484375 10.953125 
Q 26.375 6.390625 33.015625 6.390625 
Q 39.65625 6.390625 43.53125 10.953125 
Q 47.40625 15.53125 47.40625 23.390625 
Q 47.40625 31.296875 43.53125 35.828125 
Q 39.65625 40.375 33.015625 40.375 
z
M 52.59375 71.296875 
L 52.59375 62.3125 
Q 48.875 64.0625 45.09375 64.984375 
Q 41.3125 65.921875 37.59375 65.921875 
Q 27.828125 65.921875 22.671875 59.328125 
Q 17.53125 52.734375 16.796875 39.40625 
Q 19.671875 43.65625 24.015625 45.921875 
Q 28.375 48.1875 33.59375 48.1875 
Q 44.578125 48.1875 50.953125 41.515625 
Q 57.328125 34.859375 57.328125 23.390625 
Q 57.328125 12.15625 50.6875 5.359375 
Q 44.046875 -1.421875 33.015625 -1.421875 
Q 20.359375 -1.421875 13.671875 8.265625 
Q 6.984375 17.96875 6.984375 36.375 
Q 6.984375 53.65625 15.1875 63.9375 
Q 23.390625 74.21875 37.203125 74.21875 
Q 40.921875 74.21875 44.703125 73.484375 
Q 48.484375 72.75 52.59375 71.296875 
z
" id="DejaVuSans-54"/>
      </defs>
      <g transform="translate(34.4275 90.387708)scale(0.24 -0.24)">
       <use xlink:href="#DejaVuSans-54"/>
       <use x="63.623047" xlink:href="#DejaVuSans-48"/>
       <use x="127.246094" xlink:href="#DejaVuSans-48"/>
       <use x="190.869141" xlink:href="#DejaVuSans-44"/>
       <use x="222.65625" xlink:href="#DejaVuSans-48"/>
       <use x="286.279297" xlink:href="#DejaVuSans-48"/>
       <use x="349.902344" xlink:href="#DejaVuSans-48"/>
      </g>
     </g>
    </g>
    <g id="ytick_5">
     <g id="line2d_31">
      <path clip-path="url(#p424021b11a)" d="M 140.675 16.318125 
L 810.275 16.318125 
" style="fill:none;stroke:#d3d3d3;stroke-linecap:square;stroke-width:0.8;"/>
     </g>
     <g id="line2d_32">
      <g>
       <use style="stroke:#000000;stroke-width:0.8;" x="140.675" xlink:href="#m7ddd461b75" y="16.318125"/>
      </g>
     </g>
     <g id="text_5">
      <!-- 800,000 -->
      <defs>
       <path d="M 31.78125 34.625 
Q 24.75 34.625 20.71875 30.859375 
Q 16.703125 27.09375 16.703125 20.515625 
Q 16.703125 13.921875 20.71875 10.15625 
Q 24.75 6.390625 31.78125 6.390625 
Q 38.8125 6.390625 42.859375 10.171875 
Q 46.921875 13.96875 46.921875 20.515625 
Q 46.921875 27.09375 42.890625 30.859375 
Q 38.875 34.625 31.78125 34.625 
z
M 21.921875 38.8125 
Q 15.578125 40.375 12.03125 44.71875 
Q 8.5 49.078125 8.5 55.328125 
Q 8.5 64.0625 14.71875 69.140625 
Q 20.953125 74.21875 31.78125 74.21875 
Q 42.671875 74.21875 48.875 69.140625 
Q 55.078125 64.0625 55.078125 55.328125 
Q 55.078125 49.078125 51.53125 44.71875 
Q 48 40.375 41.703125 38.8125 
Q 48.828125 37.15625 52.796875 32.3125 
Q 56.78125 27.484375 56.78125 20.515625 
Q 56.78125 9.90625 50.3125 4.234375 
Q 43.84375 -1.421875 31.78125 -1.421875 
Q 19.734375 -1.421875 13.25 4.234375 
Q 6.78125 9.90625 6.78125 20.515625 
Q 6.78125 27.484375 10.78125 32.3125 
Q 14.796875 37.15625 21.921875 38.8125 
z
M 18.3125 54.390625 
Q 18.3125 48.734375 21.84375 45.5625 
Q 25.390625 42.390625 31.78125 42.390625 
Q 38.140625 42.390625 41.71875 45.5625 
Q 45.3125 48.734375 45.3125 54.390625 
Q 45.3125 60.0625 41.71875 63.234375 
Q 38.140625 66.40625 31.78125 66.40625 
Q 25.390625 66.40625 21.84375 63.234375 
Q 18.3125 60.0625 18.3125 54.390625 
z
" id="DejaVuSans-56"/>
      </defs>
      <g transform="translate(34.4275 25.43625)scale(0.24 -0.24)">
       <use xlink:href="#DejaVuSans-56"/>
       <use x="63.623047" xlink:href="#DejaVuSans-48"/>
       <use x="127.246094" xlink:href="#DejaVuSans-48"/>
       <use x="190.869141" xlink:href="#DejaVuSans-44"/>
       <use x="222.65625" xlink:href="#DejaVuSans-48"/>
       <use x="286.279297" xlink:href="#DejaVuSans-48"/>
       <use x="349.902344" xlink:href="#DejaVuSans-48"/>
      </g>
     </g>
    </g>
    <g id="text_6">
     <!-- Total manuscripts -->
     <defs>
      <path d="M -0.296875 72.90625 
L 61.375 72.90625 
L 61.375 64.59375 
L 35.5 64.59375 
L 35.5 0 
L 25.59375 0 
L 25.59375 64.59375 
L -0.296875 64.59375 
z
" id="DejaVuSans-84"/>
      <path d="M 30.609375 48.390625 
Q 23.390625 48.390625 19.1875 42.75 
Q 14.984375 37.109375 14.984375 27.296875 
Q 14.984375 17.484375 19.15625 11.84375 
Q 23.34375 6.203125 30.609375 6.203125 
Q 37.796875 6.203125 41.984375 11.859375 
Q 46.1875 17.53125 46.1875 27.296875 
Q 46.1875 37.015625 41.984375 42.703125 
Q 37.796875 48.390625 30.609375 48.390625 
z
M 30.609375 56 
Q 42.328125 56 49.015625 48.375 
Q 55.71875 40.765625 55.71875 27.296875 
Q 55.71875 13.875 49.015625 6.21875 
Q 42.328125 -1.421875 30.609375 -1.421875 
Q 18.84375 -1.421875 12.171875 6.21875 
Q 5.515625 13.875 5.515625 27.296875 
Q 5.515625 40.765625 12.171875 48.375 
Q 18.84375 56 30.609375 56 
z
" id="DejaVuSans-111"/>
      <path d="M 18.3125 70.21875 
L 18.3125 54.6875 
L 36.8125 54.6875 
L 36.8125 47.703125 
L 18.3125 47.703125 
L 18.3125 18.015625 
Q 18.3125 11.328125 20.140625 9.421875 
Q 21.96875 7.515625 27.59375 7.515625 
L 36.8125 7.515625 
L 36.8125 0 
L 27.59375 0 
Q 17.1875 0 13.234375 3.875 
Q 9.28125 7.765625 9.28125 18.015625 
L 9.28125 47.703125 
L 2.6875 47.703125 
L 2.6875 54.6875 
L 9.28125 54.6875 
L 9.28125 70.21875 
z
" id="DejaVuSans-116"/>
      <path d="M 34.28125 27.484375 
Q 23.390625 27.484375 19.1875 25 
Q 14.984375 22.515625 14.984375 16.5 
Q 14.984375 11.71875 18.140625 8.90625 
Q 21.296875 6.109375 26.703125 6.109375 
Q 34.1875 6.109375 38.703125 11.40625 
Q 43.21875 16.703125 43.21875 25.484375 
L 43.21875 27.484375 
z
M 52.203125 31.203125 
L 52.203125 0 
L 43.21875 0 
L 43.21875 8.296875 
Q 40.140625 3.328125 35.546875 0.953125 
Q 30.953125 -1.421875 24.3125 -1.421875 
Q 15.921875 -1.421875 10.953125 3.296875 
Q 6 8.015625 6 15.921875 
Q 6 25.140625 12.171875 29.828125 
Q 18.359375 34.515625 30.609375 34.515625 
L 43.21875 34.515625 
L 43.21875 35.40625 
Q 43.21875 41.609375 39.140625 45 
Q 35.0625 48.390625 27.6875 48.390625 
Q 23 48.390625 18.546875 47.265625 
Q 14.109375 46.140625 10.015625 43.890625 
L 10.015625 52.203125 
Q 14.9375 54.109375 19.578125 55.046875 
Q 24.21875 56 28.609375 56 
Q 40.484375 56 46.34375 49.84375 
Q 52.203125 43.703125 52.203125 31.203125 
z
" id="DejaVuSans-97"/>
      <path d="M 9.421875 75.984375 
L 18.40625 75.984375 
L 18.40625 0 
L 9.421875 0 
z
" id="DejaVuSans-108"/>
      <path id="DejaVuSans-32"/>
      <path d="M 52 44.1875 
Q 55.375 50.25 60.0625 53.125 
Q 64.75 56 71.09375 56 
Q 79.640625 56 84.28125 50.015625 
Q 88.921875 44.046875 88.921875 33.015625 
L 88.921875 0 
L 79.890625 0 
L 79.890625 32.71875 
Q 79.890625 40.578125 77.09375 44.375 
Q 74.3125 48.1875 68.609375 48.1875 
Q 61.625 48.1875 57.5625 43.546875 
Q 53.515625 38.921875 53.515625 30.90625 
L 53.515625 0 
L 44.484375 0 
L 44.484375 32.71875 
Q 44.484375 40.625 41.703125 44.40625 
Q 38.921875 48.1875 33.109375 48.1875 
Q 26.21875 48.1875 22.15625 43.53125 
Q 18.109375 38.875 18.109375 30.90625 
L 18.109375 0 
L 9.078125 0 
L 9.078125 54.6875 
L 18.109375 54.6875 
L 18.109375 46.1875 
Q 21.1875 51.21875 25.484375 53.609375 
Q 29.78125 56 35.6875 56 
Q 41.65625 56 45.828125 52.96875 
Q 50 49.953125 52 44.1875 
z
" id="DejaVuSans-109"/>
      <path d="M 54.890625 33.015625 
L 54.890625 0 
L 45.90625 0 
L 45.90625 32.71875 
Q 45.90625 40.484375 42.875 44.328125 
Q 39.84375 48.1875 33.796875 48.1875 
Q 26.515625 48.1875 22.3125 43.546875 
Q 18.109375 38.921875 18.109375 30.90625 
L 18.109375 0 
L 9.078125 0 
L 9.078125 54.6875 
L 18.109375 54.6875 
L 18.109375 46.1875 
Q 21.34375 51.125 25.703125 53.5625 
Q 30.078125 56 35.796875 56 
Q 45.21875 56 50.046875 50.171875 
Q 54.890625 44.34375 54.890625 33.015625 
z
" id="DejaVuSans-110"/>
      <path d="M 8.5 21.578125 
L 8.5 54.6875 
L 17.484375 54.6875 
L 17.484375 21.921875 
Q 17.484375 14.15625 20.5 10.265625 
Q 23.53125 6.390625 29.59375 6.390625 
Q 36.859375 6.390625 41.078125 11.03125 
Q 45.3125 15.671875 45.3125 23.6875 
L 45.3125 54.6875 
L 54.296875 54.6875 
L 54.296875 0 
L 45.3125 0 
L 45.3125 8.40625 
Q 42.046875 3.421875 37.71875 1 
Q 33.40625 -1.421875 27.6875 -1.421875 
Q 18.265625 -1.421875 13.375 4.4375 
Q 8.5 10.296875 8.5 21.578125 
z
M 31.109375 56 
z
" id="DejaVuSans-117"/>
      <path d="M 44.28125 53.078125 
L 44.28125 44.578125 
Q 40.484375 46.53125 36.375 47.5 
Q 32.28125 48.484375 27.875 48.484375 
Q 21.1875 48.484375 17.84375 46.4375 
Q 14.5 44.390625 14.5 40.28125 
Q 14.5 37.15625 16.890625 35.375 
Q 19.28125 33.59375 26.515625 31.984375 
L 29.59375 31.296875 
Q 39.15625 29.25 43.1875 25.515625 
Q 47.21875 21.78125 47.21875 15.09375 
Q 47.21875 7.46875 41.1875 3.015625 
Q 35.15625 -1.421875 24.609375 -1.421875 
Q 20.21875 -1.421875 15.453125 -0.5625 
Q 10.6875 0.296875 5.421875 2 
L 5.421875 11.28125 
Q 10.40625 8.6875 15.234375 7.390625 
Q 20.0625 6.109375 24.8125 6.109375 
Q 31.15625 6.109375 34.5625 8.28125 
Q 37.984375 10.453125 37.984375 14.40625 
Q 37.984375 18.0625 35.515625 20.015625 
Q 33.0625 21.96875 24.703125 23.78125 
L 21.578125 24.515625 
Q 13.234375 26.265625 9.515625 29.90625 
Q 5.8125 33.546875 5.8125 39.890625 
Q 5.8125 47.609375 11.28125 51.796875 
Q 16.75 56 26.8125 56 
Q 31.78125 56 36.171875 55.265625 
Q 40.578125 54.546875 44.28125 53.078125 
z
" id="DejaVuSans-115"/>
      <path d="M 48.78125 52.59375 
L 48.78125 44.1875 
Q 44.96875 46.296875 41.140625 47.34375 
Q 37.3125 48.390625 33.40625 48.390625 
Q 24.65625 48.390625 19.8125 42.84375 
Q 14.984375 37.3125 14.984375 27.296875 
Q 14.984375 17.28125 19.8125 11.734375 
Q 24.65625 6.203125 33.40625 6.203125 
Q 37.3125 6.203125 41.140625 7.25 
Q 44.96875 8.296875 48.78125 10.40625 
L 48.78125 2.09375 
Q 45.015625 0.34375 40.984375 -0.53125 
Q 36.96875 -1.421875 32.421875 -1.421875 
Q 20.0625 -1.421875 12.78125 6.34375 
Q 5.515625 14.109375 5.515625 27.296875 
Q 5.515625 40.671875 12.859375 48.328125 
Q 20.21875 56 33.015625 56 
Q 37.15625 56 41.109375 55.140625 
Q 45.0625 54.296875 48.78125 52.59375 
z
" id="DejaVuSans-99"/>
      <path d="M 41.109375 46.296875 
Q 39.59375 47.171875 37.8125 47.578125 
Q 36.03125 48 33.890625 48 
Q 26.265625 48 22.1875 43.046875 
Q 18.109375 38.09375 18.109375 28.8125 
L 18.109375 0 
L 9.078125 0 
L 9.078125 54.6875 
L 18.109375 54.6875 
L 18.109375 46.1875 
Q 20.953125 51.171875 25.484375 53.578125 
Q 30.03125 56 36.53125 56 
Q 37.453125 56 38.578125 55.875 
Q 39.703125 55.765625 41.0625 55.515625 
z
" id="DejaVuSans-114"/>
      <path d="M 9.421875 54.6875 
L 18.40625 54.6875 
L 18.40625 0 
L 9.421875 0 
z
M 9.421875 75.984375 
L 18.40625 75.984375 
L 18.40625 64.59375 
L 9.421875 64.59375 
z
" id="DejaVuSans-105"/>
      <path d="M 18.109375 8.203125 
L 18.109375 -20.796875 
L 9.078125 -20.796875 
L 9.078125 54.6875 
L 18.109375 54.6875 
L 18.109375 46.390625 
Q 20.953125 51.265625 25.265625 53.625 
Q 29.59375 56 35.59375 56 
Q 45.5625 56 51.78125 48.09375 
Q 58.015625 40.1875 58.015625 27.296875 
Q 58.015625 14.40625 51.78125 6.484375 
Q 45.5625 -1.421875 35.59375 -1.421875 
Q 29.59375 -1.421875 25.265625 0.953125 
Q 20.953125 3.328125 18.109375 8.203125 
z
M 48.6875 27.296875 
Q 48.6875 37.203125 44.609375 42.84375 
Q 40.53125 48.484375 33.40625 48.484375 
Q 26.265625 48.484375 22.1875 42.84375 
Q 18.109375 37.203125 18.109375 27.296875 
Q 18.109375 17.390625 22.1875 11.75 
Q 26.265625 6.109375 33.40625 6.109375 
Q 40.53125 6.109375 44.609375 11.75 
Q 48.6875 17.390625 48.6875 27.296875 
z
" id="DejaVuSans-112"/>
     </defs>
     <g transform="translate(25.43625 250.38481)rotate(-90)scale(0.24 -0.24)">
      <use xlink:href="#DejaVuSans-84"/>
      <use x="60.818359" xlink:href="#DejaVuSans-111"/>
      <use x="122" xlink:href="#DejaVuSans-116"/>
      <use x="161.208984" xlink:href="#DejaVuSans-97"/>
      <use x="222.488281" xlink:href="#DejaVuSans-108"/>
      <use x="250.271484" xlink:href="#DejaVuSans-32"/>
      <use x="282.058594" xlink:href="#DejaVuSans-109"/>
      <use x="379.470703" xlink:href="#DejaVuSans-97"/>
      <use x="440.75" xlink:href="#DejaVuSans-110"/>
      <use x="504.128906" xlink:href="#DejaVuSans-117"/>
      <use x="567.507812" xlink:href="#DejaVuSans-115"/>
      <use x="619.607422" xlink:href="#DejaVuSans-99"/>
      <use x="674.587891" xlink:href="#DejaVuSans-114"/>
      <use x="715.701172" xlink:href="#DejaVuSans-105"/>
      <use x="743.484375" xlink:href="#DejaVuSans-112"/>
      <use x="806.960938" xlink:href="#DejaVuSans-116"/>
      <use x="846.169922" xlink:href="#DejaVuSans-115"/>
     </g>
    </g>
   </g>
   <g id="line2d_33">
    <path clip-path="url(#p424021b11a)" d="M 171.111364 261.76319 
L 186.06256 260.763587 
L 193.538158 259.536005 
L 201.013756 259.107325 
L 208.489354 257.493931 
L 227.712321 255.478812 
L 235.187919 234.395244 
L 242.663517 232.539581 
L 243.731459 231.935207 
L 245.867344 231.045373 
L 246.935287 230.962884 
L 249.071172 230.485166 
L 250.139115 230.297781 
L 251.207057 232.233335 
L 252.275 232.020943 
L 255.478828 231.767633 
L 256.54677 231.498734 
L 257.614713 231.049594 
L 259.750598 230.495883 
L 260.818541 230.404626 
L 264.022368 229.714517 
L 265.090311 228.538896 
L 266.158254 225.009109 
L 268.294139 224.723322 
L 270.430024 224.537236 
L 271.497967 224.504761 
L 272.565909 224.047178 
L 273.633852 224.136161 
L 274.701794 223.654871 
L 275.769737 223.011851 
L 276.837679 222.917347 
L 277.905622 221.736854 
L 278.973565 221.62254 
L 281.10945 220.97335 
L 283.245335 217.617958 
L 284.313278 217.194799 
L 286.449163 216.91161 
L 287.517105 216.647583 
L 288.585048 216.066917 
L 290.720933 215.417402 
L 292.856818 215.089722 
L 294.992703 214.209955 
L 296.060646 213.980026 
L 297.128589 213.605256 
L 304.604187 211.780121 
L 308.875957 211.467379 
L 309.9439 210.477844 
L 311.011842 210.156659 
L 312.079785 210.028704 
L 313.147727 209.606195 
L 316.351555 208.798199 
L 317.419498 208.705968 
L 319.555383 207.7934 
L 320.623325 207.524501 
L 321.691268 207.750532 
L 325.963038 206.882456 
L 327.030981 206.129993 
L 328.098923 205.787049 
L 329.166866 203.166258 
L 330.234809 202.530059 
L 332.370694 202.258561 
L 334.506579 201.464855 
L 335.574522 201.324884 
L 337.710407 200.363278 
L 338.778349 200.280465 
L 339.846292 200.038521 
L 343.05012 198.612836 
L 344.118062 198.506965 
L 347.32189 197.479433 
L 348.389833 196.940986 
L 349.457775 196.53991 
L 354.797488 194.88105 
L 355.865431 194.371831 
L 358.001316 193.812923 
L 361.205144 191.319112 
L 362.273086 190.870298 
L 363.341029 189.714811 
L 364.408971 189.681686 
L 365.476914 189.035744 
L 366.544856 188.136166 
L 367.612799 187.452227 
L 369.748684 187.129743 
L 370.816627 186.728018 
L 371.884569 186.160343 
L 372.952512 185.362414 
L 375.088397 184.534283 
L 379.360167 183.579496 
L 382.563995 182.787089 
L 383.631938 182.647118 
L 385.767823 182.001176 
L 386.835766 180.775867 
L 387.903708 180.469296 
L 388.971651 178.754902 
L 390.039593 178.1554 
L 393.243421 177.284076 
L 394.311364 176.95802 
L 395.379306 176.511479 
L 396.447249 176.307531 
L 397.515191 175.707704 
L 398.583134 175.668409 
L 399.651077 175.17835 
L 400.719019 174.92439 
L 401.786962 174.149844 
L 402.854904 173.517541 
L 404.990789 172.806648 
L 407.126675 172.326656 
L 408.194617 172.0334 
L 409.26256 171.408892 
L 411.398445 168.693921 
L 412.466388 168.155798 
L 414.602273 167.822922 
L 415.670215 167.563441 
L 417.8061 165.955892 
L 419.941986 165.15017 
L 422.077871 164.80885 
L 424.213756 163.864131 
L 425.281699 163.673823 
L 426.349641 160.996199 
L 427.417584 160.657153 
L 428.485526 160.579211 
L 429.553469 160.385655 
L 430.621411 159.967368 
L 432.757297 159.434117 
L 434.893182 158.719975 
L 437.029067 158.402363 
L 440.232895 156.861389 
L 441.300837 156.727914 
L 447.708493 154.808598 
L 448.776435 154.661808 
L 449.844378 154.375047 
L 450.912321 154.309446 
L 454.116148 153.286136 
L 455.184091 152.85291 
L 456.252033 152.724631 
L 457.319976 152.126103 
L 461.591746 150.102865 
L 462.659689 149.44036 
L 464.795574 148.790521 
L 466.931459 148.504735 
L 467.999402 147.938683 
L 469.067344 147.60126 
L 470.135287 147.58762 
L 475.475 147.071906 
L 476.542943 146.182395 
L 480.814713 146.08237 
L 482.950598 145.761185 
L 484.018541 142.596425 
L 485.086483 142.000496 
L 486.154426 141.667944 
L 487.222368 140.960298 
L 489.358254 140.654052 
L 491.494139 139.776558 
L 493.630024 138.192716 
L 494.697967 137.888094 
L 495.765909 137.843602 
L 496.833852 137.423042 
L 498.969737 137.071329 
L 501.105622 136.094135 
L 502.173565 135.645645 
L 504.30945 135.365704 
L 506.445335 133.629552 
L 507.513278 133.516861 
L 508.58122 133.084934 
L 510.717105 132.863125 
L 518.192703 129.858145 
L 525.668301 126.485216 
L 533.1439 124.293104 
L 540.619498 121.287476 
L 548.095096 119.519172 
L 563.046292 116.699305 
L 570.52189 114.425354 
L 577.997488 106.549015 
L 586.541029 104.115934 
L 592.948684 101.788723 
L 600.424282 99.32414 
L 607.89988 96.556558 
L 615.375478 91.712479 
L 622.851077 88.006673 
L 630.326675 85.179336 
L 637.802273 81.39429 
L 652.753469 64.730344 
L 660.229067 61.945875 
L 667.704665 58.610293 
L 675.180263 54.754449 
L 682.655861 51.626062 
L 690.131459 45.820376 
L 697.607057 42.788442 
L 705.082656 39.131026 
L 712.558254 35.705486 
L 723.237679 32.977849 
L 727.50945 29.843292 
L 734.985048 26.408659 
L 742.460646 31.924986 
L 764.88744 27.831745 
L 779.838636 21.102449 
L 779.838636 21.102449 
" style="fill:none;stroke:#1f77b4;stroke-linecap:square;stroke-width:5;"/>
   </g>
   <g id="patch_3">
    <path d="M 140.675 276.123958 
L 140.675 9.069412 
" style="fill:none;stroke:#000000;stroke-linecap:square;stroke-linejoin:miter;stroke-width:0.8;"/>
   </g>
   <g id="patch_4">
    <path d="M 140.675 276.123958 
L 810.275 276.123958 
" style="fill:none;stroke:#000000;stroke-linecap:square;stroke-linejoin:miter;stroke-width:0.8;"/>
   </g>
  </g>
  <g id="axes_2">
   <g id="patch_5">
    <path d="M 140.675 596.589412 
L 810.275 596.589412 
L 810.275 329.534867 
L 140.675 329.534867 
z
" style="fill:#ffffff;"/>
   </g>
   <g id="matplotlib.axis_3">
    <g id="xtick_12">
     <g id="line2d_34">
      <path clip-path="url(#pe0c00bac0b)" d="M 150.820455 596.589412 
L 150.820455 329.534867 
" style="fill:none;stroke:#d3d3d3;stroke-linecap:square;stroke-width:0.8;"/>
     </g>
     <g id="line2d_35">
      <g>
       <use style="stroke:#000000;stroke-width:0.8;" x="150.820455" xlink:href="#m835c35ac03" y="596.589412"/>
      </g>
     </g>
     <g id="text_7">
      <!-- 2020-03 -->
      <defs>
       <path d="M 4.890625 31.390625 
L 31.203125 31.390625 
L 31.203125 23.390625 
L 4.890625 23.390625 
z
" id="DejaVuSans-45"/>
       <path d="M 40.578125 39.3125 
Q 47.65625 37.796875 51.625 33 
Q 55.609375 28.21875 55.609375 21.1875 
Q 55.609375 10.40625 48.1875 4.484375 
Q 40.765625 -1.421875 27.09375 -1.421875 
Q 22.515625 -1.421875 17.65625 -0.515625 
Q 12.796875 0.390625 7.625 2.203125 
L 7.625 11.71875 
Q 11.71875 9.328125 16.59375 8.109375 
Q 21.484375 6.890625 26.8125 6.890625 
Q 36.078125 6.890625 40.9375 10.546875 
Q 45.796875 14.203125 45.796875 21.1875 
Q 45.796875 27.640625 41.28125 31.265625 
Q 36.765625 34.90625 28.71875 34.90625 
L 20.21875 34.90625 
L 20.21875 43.015625 
L 29.109375 43.015625 
Q 36.375 43.015625 40.234375 45.921875 
Q 44.09375 48.828125 44.09375 54.296875 
Q 44.09375 59.90625 40.109375 62.90625 
Q 36.140625 65.921875 28.71875 65.921875 
Q 24.65625 65.921875 20.015625 65.03125 
Q 15.375 64.15625 9.8125 62.3125 
L 9.8125 71.09375 
Q 15.4375 72.65625 20.34375 73.4375 
Q 25.25 74.21875 29.59375 74.21875 
Q 40.828125 74.21875 47.359375 69.109375 
Q 53.90625 64.015625 53.90625 55.328125 
Q 53.90625 49.265625 50.4375 45.09375 
Q 46.96875 40.921875 40.578125 39.3125 
z
" id="DejaVuSans-51"/>
      </defs>
      <g transform="translate(61.480885 669.521843)rotate(-30)scale(0.24 -0.24)">
       <use xlink:href="#DejaVuSans-50"/>
       <use x="63.623047" xlink:href="#DejaVuSans-48"/>
       <use x="127.246094" xlink:href="#DejaVuSans-50"/>
       <use x="190.869141" xlink:href="#DejaVuSans-48"/>
       <use x="254.492188" xlink:href="#DejaVuSans-45"/>
       <use x="290.576172" xlink:href="#DejaVuSans-48"/>
       <use x="354.199219" xlink:href="#DejaVuSans-51"/>
      </g>
     </g>
    </g>
    <g id="xtick_13">
     <g id="line2d_36">
      <path clip-path="url(#pe0c00bac0b)" d="M 215.964952 596.589412 
L 215.964952 329.534867 
" style="fill:none;stroke:#d3d3d3;stroke-linecap:square;stroke-width:0.8;"/>
     </g>
     <g id="line2d_37">
      <g>
       <use style="stroke:#000000;stroke-width:0.8;" x="215.964952" xlink:href="#m835c35ac03" y="596.589412"/>
      </g>
     </g>
     <g id="text_8">
      <!-- 2020-05 -->
      <defs>
       <path d="M 10.796875 72.90625 
L 49.515625 72.90625 
L 49.515625 64.59375 
L 19.828125 64.59375 
L 19.828125 46.734375 
Q 21.96875 47.46875 24.109375 47.828125 
Q 26.265625 48.1875 28.421875 48.1875 
Q 40.625 48.1875 47.75 41.5 
Q 54.890625 34.8125 54.890625 23.390625 
Q 54.890625 11.625 47.5625 5.09375 
Q 40.234375 -1.421875 26.90625 -1.421875 
Q 22.3125 -1.421875 17.546875 -0.640625 
Q 12.796875 0.140625 7.71875 1.703125 
L 7.71875 11.625 
Q 12.109375 9.234375 16.796875 8.0625 
Q 21.484375 6.890625 26.703125 6.890625 
Q 35.15625 6.890625 40.078125 11.328125 
Q 45.015625 15.765625 45.015625 23.390625 
Q 45.015625 31 40.078125 35.4375 
Q 35.15625 39.890625 26.703125 39.890625 
Q 22.75 39.890625 18.8125 39.015625 
Q 14.890625 38.140625 10.796875 36.28125 
z
" id="DejaVuSans-53"/>
      </defs>
      <g transform="translate(126.625382 669.521843)rotate(-30)scale(0.24 -0.24)">
       <use xlink:href="#DejaVuSans-50"/>
       <use x="63.623047" xlink:href="#DejaVuSans-48"/>
       <use x="127.246094" xlink:href="#DejaVuSans-50"/>
       <use x="190.869141" xlink:href="#DejaVuSans-48"/>
       <use x="254.492188" xlink:href="#DejaVuSans-45"/>
       <use x="290.576172" xlink:href="#DejaVuSans-48"/>
       <use x="354.199219" xlink:href="#DejaVuSans-53"/>
      </g>
     </g>
    </g>
    <g id="xtick_14">
     <g id="line2d_38">
      <path clip-path="url(#pe0c00bac0b)" d="M 281.10945 596.589412 
L 281.10945 329.534867 
" style="fill:none;stroke:#d3d3d3;stroke-linecap:square;stroke-width:0.8;"/>
     </g>
     <g id="line2d_39">
      <g>
       <use style="stroke:#000000;stroke-width:0.8;" x="281.10945" xlink:href="#m835c35ac03" y="596.589412"/>
      </g>
     </g>
     <g id="text_9">
      <!-- 2020-07 -->
      <defs>
       <path d="M 8.203125 72.90625 
L 55.078125 72.90625 
L 55.078125 68.703125 
L 28.609375 0 
L 18.3125 0 
L 43.21875 64.59375 
L 8.203125 64.59375 
z
" id="DejaVuSans-55"/>
      </defs>
      <g transform="translate(191.76988 669.521843)rotate(-30)scale(0.24 -0.24)">
       <use xlink:href="#DejaVuSans-50"/>
       <use x="63.623047" xlink:href="#DejaVuSans-48"/>
       <use x="127.246094" xlink:href="#DejaVuSans-50"/>
       <use x="190.869141" xlink:href="#DejaVuSans-48"/>
       <use x="254.492188" xlink:href="#DejaVuSans-45"/>
       <use x="290.576172" xlink:href="#DejaVuSans-48"/>
       <use x="354.199219" xlink:href="#DejaVuSans-55"/>
      </g>
     </g>
    </g>
    <g id="xtick_15">
     <g id="line2d_40">
      <path clip-path="url(#pe0c00bac0b)" d="M 347.32189 596.589412 
L 347.32189 329.534867 
" style="fill:none;stroke:#d3d3d3;stroke-linecap:square;stroke-width:0.8;"/>
     </g>
     <g id="line2d_41">
      <g>
       <use style="stroke:#000000;stroke-width:0.8;" x="347.32189" xlink:href="#m835c35ac03" y="596.589412"/>
      </g>
     </g>
     <g id="text_10">
      <!-- 2020-09 -->
      <defs>
       <path d="M 10.984375 1.515625 
L 10.984375 10.5 
Q 14.703125 8.734375 18.5 7.8125 
Q 22.3125 6.890625 25.984375 6.890625 
Q 35.75 6.890625 40.890625 13.453125 
Q 46.046875 20.015625 46.78125 33.40625 
Q 43.953125 29.203125 39.59375 26.953125 
Q 35.25 24.703125 29.984375 24.703125 
Q 19.046875 24.703125 12.671875 31.3125 
Q 6.296875 37.9375 6.296875 49.421875 
Q 6.296875 60.640625 12.9375 67.421875 
Q 19.578125 74.21875 30.609375 74.21875 
Q 43.265625 74.21875 49.921875 64.515625 
Q 56.59375 54.828125 56.59375 36.375 
Q 56.59375 19.140625 48.40625 8.859375 
Q 40.234375 -1.421875 26.421875 -1.421875 
Q 22.703125 -1.421875 18.890625 -0.6875 
Q 15.09375 0.046875 10.984375 1.515625 
z
M 30.609375 32.421875 
Q 37.25 32.421875 41.125 36.953125 
Q 45.015625 41.5 45.015625 49.421875 
Q 45.015625 57.28125 41.125 61.84375 
Q 37.25 66.40625 30.609375 66.40625 
Q 23.96875 66.40625 20.09375 61.84375 
Q 16.21875 57.28125 16.21875 49.421875 
Q 16.21875 41.5 20.09375 36.953125 
Q 23.96875 32.421875 30.609375 32.421875 
z
" id="DejaVuSans-57"/>
      </defs>
      <g transform="translate(257.98232 669.521843)rotate(-30)scale(0.24 -0.24)">
       <use xlink:href="#DejaVuSans-50"/>
       <use x="63.623047" xlink:href="#DejaVuSans-48"/>
       <use x="127.246094" xlink:href="#DejaVuSans-50"/>
       <use x="190.869141" xlink:href="#DejaVuSans-48"/>
       <use x="254.492188" xlink:href="#DejaVuSans-45"/>
       <use x="290.576172" xlink:href="#DejaVuSans-48"/>
       <use x="354.199219" xlink:href="#DejaVuSans-57"/>
      </g>
     </g>
    </g>
    <g id="xtick_16">
     <g id="line2d_42">
      <path clip-path="url(#pe0c00bac0b)" d="M 412.466388 596.589412 
L 412.466388 329.534867 
" style="fill:none;stroke:#d3d3d3;stroke-linecap:square;stroke-width:0.8;"/>
     </g>
     <g id="line2d_43">
      <g>
       <use style="stroke:#000000;stroke-width:0.8;" x="412.466388" xlink:href="#m835c35ac03" y="596.589412"/>
      </g>
     </g>
     <g id="text_11">
      <!-- 2020-11 -->
      <defs>
       <path d="M 12.40625 8.296875 
L 28.515625 8.296875 
L 28.515625 63.921875 
L 10.984375 60.40625 
L 10.984375 69.390625 
L 28.421875 72.90625 
L 38.28125 72.90625 
L 38.28125 8.296875 
L 54.390625 8.296875 
L 54.390625 0 
L 12.40625 0 
z
" id="DejaVuSans-49"/>
      </defs>
      <g transform="translate(323.126818 669.521843)rotate(-30)scale(0.24 -0.24)">
       <use xlink:href="#DejaVuSans-50"/>
       <use x="63.623047" xlink:href="#DejaVuSans-48"/>
       <use x="127.246094" xlink:href="#DejaVuSans-50"/>
       <use x="190.869141" xlink:href="#DejaVuSans-48"/>
       <use x="254.492188" xlink:href="#DejaVuSans-45"/>
       <use x="290.576172" xlink:href="#DejaVuSans-49"/>
       <use x="354.199219" xlink:href="#DejaVuSans-49"/>
      </g>
     </g>
    </g>
    <g id="xtick_17">
     <g id="line2d_44">
      <path clip-path="url(#pe0c00bac0b)" d="M 477.610885 596.589412 
L 477.610885 329.534867 
" style="fill:none;stroke:#d3d3d3;stroke-linecap:square;stroke-width:0.8;"/>
     </g>
     <g id="line2d_45">
      <g>
       <use style="stroke:#000000;stroke-width:0.8;" x="477.610885" xlink:href="#m835c35ac03" y="596.589412"/>
      </g>
     </g>
     <g id="text_12">
      <!-- 2021-01 -->
      <g transform="translate(388.271315 669.521843)rotate(-30)scale(0.24 -0.24)">
       <use xlink:href="#DejaVuSans-50"/>
       <use x="63.623047" xlink:href="#DejaVuSans-48"/>
       <use x="127.246094" xlink:href="#DejaVuSans-50"/>
       <use x="190.869141" xlink:href="#DejaVuSans-49"/>
       <use x="254.492188" xlink:href="#DejaVuSans-45"/>
       <use x="290.576172" xlink:href="#DejaVuSans-48"/>
       <use x="354.199219" xlink:href="#DejaVuSans-49"/>
      </g>
     </g>
    </g>
    <g id="xtick_18">
     <g id="line2d_46">
      <path clip-path="url(#pe0c00bac0b)" d="M 540.619498 596.589412 
L 540.619498 329.534867 
" style="fill:none;stroke:#d3d3d3;stroke-linecap:square;stroke-width:0.8;"/>
     </g>
     <g id="line2d_47">
      <g>
       <use style="stroke:#000000;stroke-width:0.8;" x="540.619498" xlink:href="#m835c35ac03" y="596.589412"/>
      </g>
     </g>
     <g id="text_13">
      <!-- 2021-03 -->
      <g transform="translate(451.279928 669.521843)rotate(-30)scale(0.24 -0.24)">
       <use xlink:href="#DejaVuSans-50"/>
       <use x="63.623047" xlink:href="#DejaVuSans-48"/>
       <use x="127.246094" xlink:href="#DejaVuSans-50"/>
       <use x="190.869141" xlink:href="#DejaVuSans-49"/>
       <use x="254.492188" xlink:href="#DejaVuSans-45"/>
       <use x="290.576172" xlink:href="#DejaVuSans-48"/>
       <use x="354.199219" xlink:href="#DejaVuSans-51"/>
      </g>
     </g>
    </g>
    <g id="xtick_19">
     <g id="line2d_48">
      <path clip-path="url(#pe0c00bac0b)" d="M 605.763995 596.589412 
L 605.763995 329.534867 
" style="fill:none;stroke:#d3d3d3;stroke-linecap:square;stroke-width:0.8;"/>
     </g>
     <g id="line2d_49">
      <g>
       <use style="stroke:#000000;stroke-width:0.8;" x="605.763995" xlink:href="#m835c35ac03" y="596.589412"/>
      </g>
     </g>
     <g id="text_14">
      <!-- 2021-05 -->
      <g transform="translate(516.424425 669.521843)rotate(-30)scale(0.24 -0.24)">
       <use xlink:href="#DejaVuSans-50"/>
       <use x="63.623047" xlink:href="#DejaVuSans-48"/>
       <use x="127.246094" xlink:href="#DejaVuSans-50"/>
       <use x="190.869141" xlink:href="#DejaVuSans-49"/>
       <use x="254.492188" xlink:href="#DejaVuSans-45"/>
       <use x="290.576172" xlink:href="#DejaVuSans-48"/>
       <use x="354.199219" xlink:href="#DejaVuSans-53"/>
      </g>
     </g>
    </g>
    <g id="xtick_20">
     <g id="line2d_50">
      <path clip-path="url(#pe0c00bac0b)" d="M 670.908493 596.589412 
L 670.908493 329.534867 
" style="fill:none;stroke:#d3d3d3;stroke-linecap:square;stroke-width:0.8;"/>
     </g>
     <g id="line2d_51">
      <g>
       <use style="stroke:#000000;stroke-width:0.8;" x="670.908493" xlink:href="#m835c35ac03" y="596.589412"/>
      </g>
     </g>
     <g id="text_15">
      <!-- 2021-07 -->
      <g transform="translate(581.568923 669.521843)rotate(-30)scale(0.24 -0.24)">
       <use xlink:href="#DejaVuSans-50"/>
       <use x="63.623047" xlink:href="#DejaVuSans-48"/>
       <use x="127.246094" xlink:href="#DejaVuSans-50"/>
       <use x="190.869141" xlink:href="#DejaVuSans-49"/>
       <use x="254.492188" xlink:href="#DejaVuSans-45"/>
       <use x="290.576172" xlink:href="#DejaVuSans-48"/>
       <use x="354.199219" xlink:href="#DejaVuSans-55"/>
      </g>
     </g>
    </g>
    <g id="xtick_21">
     <g id="line2d_52">
      <path clip-path="url(#pe0c00bac0b)" d="M 737.120933 596.589412 
L 737.120933 329.534867 
" style="fill:none;stroke:#d3d3d3;stroke-linecap:square;stroke-width:0.8;"/>
     </g>
     <g id="line2d_53">
      <g>
       <use style="stroke:#000000;stroke-width:0.8;" x="737.120933" xlink:href="#m835c35ac03" y="596.589412"/>
      </g>
     </g>
     <g id="text_16">
      <!-- 2021-09 -->
      <g transform="translate(647.781363 669.521843)rotate(-30)scale(0.24 -0.24)">
       <use xlink:href="#DejaVuSans-50"/>
       <use x="63.623047" xlink:href="#DejaVuSans-48"/>
       <use x="127.246094" xlink:href="#DejaVuSans-50"/>
       <use x="190.869141" xlink:href="#DejaVuSans-49"/>
       <use x="254.492188" xlink:href="#DejaVuSans-45"/>
       <use x="290.576172" xlink:href="#DejaVuSans-48"/>
       <use x="354.199219" xlink:href="#DejaVuSans-57"/>
      </g>
     </g>
    </g>
    <g id="xtick_22">
     <g id="line2d_54">
      <path clip-path="url(#pe0c00bac0b)" d="M 802.265431 596.589412 
L 802.265431 329.534867 
" style="fill:none;stroke:#d3d3d3;stroke-linecap:square;stroke-width:0.8;"/>
     </g>
     <g id="line2d_55">
      <g>
       <use style="stroke:#000000;stroke-width:0.8;" x="802.265431" xlink:href="#m835c35ac03" y="596.589412"/>
      </g>
     </g>
     <g id="text_17">
      <!-- 2021-11 -->
      <g transform="translate(712.925861 669.521843)rotate(-30)scale(0.24 -0.24)">
       <use xlink:href="#DejaVuSans-50"/>
       <use x="63.623047" xlink:href="#DejaVuSans-48"/>
       <use x="127.246094" xlink:href="#DejaVuSans-50"/>
       <use x="190.869141" xlink:href="#DejaVuSans-49"/>
       <use x="254.492188" xlink:href="#DejaVuSans-45"/>
       <use x="290.576172" xlink:href="#DejaVuSans-49"/>
       <use x="354.199219" xlink:href="#DejaVuSans-49"/>
      </g>
     </g>
    </g>
   </g>
   <g id="matplotlib.axis_4">
    <g id="ytick_6">
     <g id="line2d_56">
      <path clip-path="url(#pe0c00bac0b)" d="M 140.675 596.589412 
L 810.275 596.589412 
" style="fill:none;stroke:#d3d3d3;stroke-linecap:square;stroke-width:0.8;"/>
     </g>
     <g id="line2d_57">
      <g>
       <use style="stroke:#000000;stroke-width:0.8;" x="140.675" xlink:href="#m7ddd461b75" y="596.589412"/>
      </g>
     </g>
     <g id="text_18">
      <!-- 0 -->
      <g transform="translate(118.405 605.707537)scale(0.24 -0.24)">
       <use xlink:href="#DejaVuSans-48"/>
      </g>
     </g>
    </g>
    <g id="ytick_7">
     <g id="line2d_58">
      <path clip-path="url(#pe0c00bac0b)" d="M 140.675 516.736961 
L 810.275 516.736961 
" style="fill:none;stroke:#d3d3d3;stroke-linecap:square;stroke-width:0.8;"/>
     </g>
     <g id="line2d_59">
      <g>
       <use style="stroke:#000000;stroke-width:0.8;" x="140.675" xlink:href="#m7ddd461b75" y="516.736961"/>
      </g>
     </g>
     <g id="text_19">
      <!-- 5,000 -->
      <g transform="translate(64.9675 525.855086)scale(0.24 -0.24)">
       <use xlink:href="#DejaVuSans-53"/>
       <use x="63.623047" xlink:href="#DejaVuSans-44"/>
       <use x="95.410156" xlink:href="#DejaVuSans-48"/>
       <use x="159.033203" xlink:href="#DejaVuSans-48"/>
       <use x="222.65625" xlink:href="#DejaVuSans-48"/>
      </g>
     </g>
    </g>
    <g id="ytick_8">
     <g id="line2d_60">
      <path clip-path="url(#pe0c00bac0b)" d="M 140.675 436.88451 
L 810.275 436.88451 
" style="fill:none;stroke:#d3d3d3;stroke-linecap:square;stroke-width:0.8;"/>
     </g>
     <g id="line2d_61">
      <g>
       <use style="stroke:#000000;stroke-width:0.8;" x="140.675" xlink:href="#m7ddd461b75" y="436.88451"/>
      </g>
     </g>
     <g id="text_20">
      <!-- 10,000 -->
      <g transform="translate(49.6975 446.002635)scale(0.24 -0.24)">
       <use xlink:href="#DejaVuSans-49"/>
       <use x="63.623047" xlink:href="#DejaVuSans-48"/>
       <use x="127.246094" xlink:href="#DejaVuSans-44"/>
       <use x="159.033203" xlink:href="#DejaVuSans-48"/>
       <use x="222.65625" xlink:href="#DejaVuSans-48"/>
       <use x="286.279297" xlink:href="#DejaVuSans-48"/>
      </g>
     </g>
    </g>
    <g id="ytick_9">
     <g id="line2d_62">
      <path clip-path="url(#pe0c00bac0b)" d="M 140.675 357.032059 
L 810.275 357.032059 
" style="fill:none;stroke:#d3d3d3;stroke-linecap:square;stroke-width:0.8;"/>
     </g>
     <g id="line2d_63">
      <g>
       <use style="stroke:#000000;stroke-width:0.8;" x="140.675" xlink:href="#m7ddd461b75" y="357.032059"/>
      </g>
     </g>
     <g id="text_21">
      <!-- 15,000 -->
      <g transform="translate(49.6975 366.150184)scale(0.24 -0.24)">
       <use xlink:href="#DejaVuSans-49"/>
       <use x="63.623047" xlink:href="#DejaVuSans-53"/>
       <use x="127.246094" xlink:href="#DejaVuSans-44"/>
       <use x="159.033203" xlink:href="#DejaVuSans-48"/>
       <use x="222.65625" xlink:href="#DejaVuSans-48"/>
       <use x="286.279297" xlink:href="#DejaVuSans-48"/>
      </g>
     </g>
    </g>
    <g id="text_22">
     <!-- Preprints -->
     <defs>
      <path d="M 19.671875 64.796875 
L 19.671875 37.40625 
L 32.078125 37.40625 
Q 38.96875 37.40625 42.71875 40.96875 
Q 46.484375 44.53125 46.484375 51.125 
Q 46.484375 57.671875 42.71875 61.234375 
Q 38.96875 64.796875 32.078125 64.796875 
z
M 9.8125 72.90625 
L 32.078125 72.90625 
Q 44.34375 72.90625 50.609375 67.359375 
Q 56.890625 61.8125 56.890625 51.125 
Q 56.890625 40.328125 50.609375 34.8125 
Q 44.34375 29.296875 32.078125 29.296875 
L 19.671875 29.296875 
L 19.671875 0 
L 9.8125 0 
z
" id="DejaVuSans-80"/>
      <path d="M 56.203125 29.59375 
L 56.203125 25.203125 
L 14.890625 25.203125 
Q 15.484375 15.921875 20.484375 11.0625 
Q 25.484375 6.203125 34.421875 6.203125 
Q 39.59375 6.203125 44.453125 7.46875 
Q 49.3125 8.734375 54.109375 11.28125 
L 54.109375 2.78125 
Q 49.265625 0.734375 44.1875 -0.34375 
Q 39.109375 -1.421875 33.890625 -1.421875 
Q 20.796875 -1.421875 13.15625 6.1875 
Q 5.515625 13.8125 5.515625 26.8125 
Q 5.515625 40.234375 12.765625 48.109375 
Q 20.015625 56 32.328125 56 
Q 43.359375 56 49.78125 48.890625 
Q 56.203125 41.796875 56.203125 29.59375 
z
M 47.21875 32.234375 
Q 47.125 39.59375 43.09375 43.984375 
Q 39.0625 48.390625 32.421875 48.390625 
Q 24.90625 48.390625 20.390625 44.140625 
Q 15.875 39.890625 15.1875 32.171875 
z
" id="DejaVuSans-101"/>
     </defs>
     <g transform="translate(40.70625 517.05464)rotate(-90)scale(0.24 -0.24)">
      <use xlink:href="#DejaVuSans-80"/>
      <use x="60.287109" xlink:href="#DejaVuSans-114"/>
      <use x="101.369141" xlink:href="#DejaVuSans-101"/>
      <use x="162.892578" xlink:href="#DejaVuSans-112"/>
      <use x="226.369141" xlink:href="#DejaVuSans-114"/>
      <use x="267.482422" xlink:href="#DejaVuSans-105"/>
      <use x="295.265625" xlink:href="#DejaVuSans-110"/>
      <use x="358.644531" xlink:href="#DejaVuSans-116"/>
      <use x="397.853516" xlink:href="#DejaVuSans-115"/>
     </g>
    </g>
   </g>
   <g id="line2d_64">
    <path clip-path="url(#pe0c00bac0b)" d="M 171.111364 593.730695 
L 178.586962 592.165587 
L 186.06256 590.169275 
L 193.538158 587.853554 
L 208.489354 583.876902 
L 215.964952 581.353565 
L 227.712321 578.223349 
L 235.187919 575.763893 
L 246.935287 572.314267 
L 249.071172 571.994857 
L 250.139115 571.531713 
L 255.478828 570.030487 
L 256.54677 569.854812 
L 257.614713 569.375697 
L 261.886483 567.890441 
L 264.022368 567.634914 
L 265.090311 567.107887 
L 266.158254 566.708625 
L 267.226196 566.469068 
L 269.362081 565.782337 
L 271.497967 565.55875 
L 272.565909 565.271281 
L 273.633852 564.760225 
L 277.905622 563.642291 
L 281.10945 563.003471 
L 284.313278 561.98136 
L 286.449163 561.550157 
L 288.585048 560.767603 
L 289.65299 560.36834 
L 293.924761 559.553845 
L 294.992703 559.37817 
L 297.128589 558.627557 
L 301.400359 557.621416 
L 303.536244 556.966626 
L 306.740072 555.976456 
L 308.875957 555.609134 
L 313.147727 554.107908 
L 314.21567 553.708646 
L 316.351555 553.277443 
L 320.623325 551.935922 
L 321.691268 551.648453 
L 323.827153 551.504718 
L 325.963038 550.881869 
L 329.166866 549.987522 
L 332.370694 549.428555 
L 334.506579 548.96541 
L 336.642464 548.358532 
L 338.778349 548.134945 
L 341.982177 547.272538 
L 344.118062 546.537896 
L 349.457775 545.643548 
L 355.865431 544.158293 
L 358.001316 543.439621 
L 364.408971 542.289745 
L 365.476914 541.922424 
L 367.612799 541.555103 
L 368.680742 541.44331 
L 370.816627 540.740608 
L 371.884569 540.373287 
L 376.15634 539.574762 
L 382.563995 538.21727 
L 383.631938 538.121448 
L 387.903708 536.811867 
L 388.971651 536.444546 
L 391.107536 536.061254 
L 393.243421 535.486317 
L 394.311364 535.326612 
L 395.379306 534.927349 
L 399.651077 534.064943 
L 400.719019 533.601799 
L 402.854904 532.99492 
L 403.922847 532.627599 
L 406.058732 532.308189 
L 407.126675 531.940868 
L 408.194617 531.445783 
L 412.466388 530.088291 
L 413.53433 529.912616 
L 414.602273 529.561265 
L 417.8061 528.874534 
L 418.874043 528.523183 
L 421.009928 528.171832 
L 426.349641 526.878222 
L 429.553469 526.207462 
L 430.621411 525.840141 
L 434.893182 524.993705 
L 435.961124 524.945793 
L 437.029067 524.498619 
L 440.232895 523.732036 
L 442.36878 523.444567 
L 446.64055 522.470367 
L 448.776435 521.719754 
L 450.912321 521.496167 
L 453.048206 520.665702 
L 456.252033 519.755384 
L 457.319976 519.579708 
L 464.795574 517.838925 
L 465.863517 517.775043 
L 466.931459 517.487574 
L 467.999402 516.976518 
L 470.135287 516.337699 
L 473.339115 515.970378 
L 475.475 515.571115 
L 479.74677 514.724679 
L 480.814713 514.644827 
L 484.018541 513.718538 
L 489.358254 512.568663 
L 492.562081 511.594463 
L 493.630024 511.338935 
L 495.765909 511.083408 
L 496.833852 510.811909 
L 497.901794 510.316824 
L 498.969737 509.949503 
L 503.241507 509.278742 
L 505.377392 508.639923 
L 506.445335 508.448277 
L 507.513278 507.953191 
L 508.58122 507.665723 
L 510.717105 507.330342 
L 518.192703 505.445824 
L 525.668301 503.305779 
L 540.619498 499.488832 
L 548.095096 497.284904 
L 570.52189 492.062554 
L 577.997488 490.353711 
L 600.424282 484.588364 
L 615.375478 481.138738 
L 622.851077 479.334073 
L 637.802273 475.245627 
L 652.753469 470.550303 
L 667.704665 466.334094 
L 675.180263 464.433605 
L 682.655861 462.772674 
L 690.131459 460.872186 
L 697.607057 459.243196 
L 705.082656 457.358678 
L 712.558254 455.202662 
L 723.237679 452.551561 
L 727.50945 451.098246 
L 734.985048 449.27761 
L 742.460646 447.281299 
L 757.411842 443.049119 
L 764.88744 441.4361 
L 779.838636 438.066326 
L 779.838636 438.066326 
" style="fill:none;stroke:#1f77b4;stroke-linecap:square;stroke-width:5;"/>
   </g>
   <g id="line2d_65">
    <path clip-path="url(#pe0c00bac0b)" d="M 171.111364 587.310558 
L 178.586962 584.78722 
L 186.06256 580.698775 
L 193.538158 577.169296 
L 201.013756 572.617706 
L 208.489354 566.980123 
L 215.964952 562.013301 
L 227.712321 552.015774 
L 235.187919 547.064922 
L 242.663517 541.219723 
L 243.731459 538.600562 
L 244.799402 537.993684 
L 245.867344 537.754126 
L 246.935287 536.763956 
L 248.00323 535.997372 
L 249.071172 535.981402 
L 250.139115 535.630051 
L 251.207057 534.352412 
L 252.275 533.378212 
L 253.342943 532.99492 
L 254.410885 531.557576 
L 255.478828 531.493694 
L 257.614713 530.407701 
L 258.682656 529.257825 
L 259.750598 529.225884 
L 260.818541 528.76274 
L 261.886483 526.974045 
L 262.954426 526.766429 
L 264.022368 526.303285 
L 265.090311 526.255373 
L 266.158254 525.089527 
L 267.226196 524.53056 
L 268.294139 524.147269 
L 270.430024 522.422456 
L 271.497967 522.390515 
L 272.565909 521.863488 
L 273.633852 520.777495 
L 274.701794 520.29838 
L 275.769737 520.154646 
L 276.837679 519.212387 
L 277.905622 519.196417 
L 278.973565 518.749243 
L 280.041507 517.727131 
L 281.10945 517.391751 
L 284.313278 516.05023 
L 285.38122 515.347528 
L 286.449163 515.187824 
L 287.517105 514.75662 
L 288.585048 513.926155 
L 289.65299 513.43107 
L 290.720933 513.255394 
L 291.788876 512.728368 
L 292.856818 511.770139 
L 294.992703 511.722227 
L 296.060646 510.700116 
L 297.128589 510.205031 
L 301.400359 507.953191 
L 302.468301 507.665723 
L 303.536244 507.154667 
L 304.604187 506.867198 
L 305.672129 506.803316 
L 306.740072 505.557618 
L 308.875957 504.407743 
L 309.9439 503.960569 
L 311.011842 503.641159 
L 312.079785 502.666959 
L 313.147727 502.012169 
L 314.21567 501.804553 
L 315.283612 501.293497 
L 316.351555 501.037969 
L 317.419498 501.021999 
L 318.48744 499.377038 
L 319.555383 499.313156 
L 321.691268 497.971635 
L 324.895096 497.923724 
L 325.963038 497.093258 
L 328.098923 496.358616 
L 329.166866 494.969183 
L 330.234809 494.522009 
L 332.370694 493.91513 
L 333.438636 493.547809 
L 335.574522 493.292281 
L 337.710407 491.807026 
L 338.778349 491.599409 
L 339.846292 491.200147 
L 340.914234 490.545357 
L 341.982177 490.114154 
L 344.118062 490.050272 
L 347.32189 489.3316 
L 348.389833 487.926197 
L 349.457775 486.824233 
L 355.865431 484.716128 
L 358.001316 483.47043 
L 363.341029 481.52203 
L 365.476914 481.394266 
L 366.544856 479.493778 
L 368.680742 479.366014 
L 369.748684 479.25422 
L 370.816627 478.727194 
L 371.884569 477.673142 
L 372.952512 477.513437 
L 374.020455 476.762824 
L 375.088397 476.762824 
L 376.15634 476.411473 
L 379.360167 474.814424 
L 381.496053 474.399191 
L 382.563995 474.399191 
L 383.631938 474.111723 
L 384.69988 473.632608 
L 385.767823 472.993788 
L 388.971651 472.578556 
L 390.039593 472.578556 
L 391.107536 472.418851 
L 393.243421 471.524503 
L 394.311364 470.646126 
L 396.447249 470.246864 
L 397.515191 470.246864 
L 398.583134 470.023277 
L 399.651077 470.007307 
L 400.719019 469.12893 
L 401.786962 468.47414 
L 402.854904 468.378317 
L 403.922847 467.819349 
L 404.990789 467.819349 
L 406.058732 467.659645 
L 407.126675 467.372176 
L 408.194617 465.88692 
L 409.26256 465.775127 
L 412.466388 465.327953 
L 414.602273 465.120337 
L 415.670215 464.225989 
L 416.738158 462.96432 
L 417.8061 462.724763 
L 418.874043 462.229678 
L 419.941986 461.910268 
L 421.009928 461.878327 
L 424.213756 461.303389 
L 425.281699 460.696511 
L 426.349641 459.929927 
L 427.417584 459.913957 
L 428.485526 459.770222 
L 429.553469 459.03558 
L 430.621411 458.907816 
L 431.689354 457.997498 
L 432.757297 457.853763 
L 435.961124 457.278826 
L 437.029067 456.687918 
L 440.232895 456.065069 
L 442.36878 455.442219 
L 444.504665 453.940993 
L 446.64055 453.366056 
L 447.708493 452.950823 
L 448.776435 452.152298 
L 450.912321 452.120357 
L 451.980263 451.433626 
L 454.116148 450.826748 
L 455.184091 450.810777 
L 456.252033 449.724784 
L 457.319976 449.692843 
L 461.591746 448.191617 
L 462.659689 447.999971 
L 464.795574 447.169506 
L 465.863517 446.99383 
L 466.931459 446.97786 
L 467.999402 445.748132 
L 469.067344 445.572456 
L 470.135287 444.997519 
L 473.339115 444.550345 
L 475.475 444.502434 
L 476.542943 444.294817 
L 477.610885 444.278847 
L 479.74677 443.767791 
L 480.814713 443.751821 
L 481.882656 442.617916 
L 482.950598 442.362388 
L 484.018541 441.78745 
L 485.086483 441.755509 
L 486.154426 441.084749 
L 487.222368 440.765339 
L 488.290311 440.733398 
L 490.426196 440.238313 
L 491.494139 439.727257 
L 492.562081 439.679346 
L 493.630024 438.353795 
L 495.765909 438.226031 
L 497.901794 438.17812 
L 498.969737 436.90048 
L 500.037679 436.820628 
L 501.105622 436.405395 
L 503.241507 436.357484 
L 504.30945 435.798516 
L 505.377392 434.536848 
L 506.445335 434.313261 
L 507.513278 434.217438 
L 508.58122 433.466825 
L 509.649163 433.386972 
L 510.717105 433.035622 
L 518.192703 429.937347 
L 525.668301 427.988947 
L 533.1439 424.986495 
L 540.619498 422.527039 
L 548.095096 419.428764 
L 563.046292 412.848922 
L 570.52189 408.568831 
L 577.997488 406.700283 
L 592.948684 401.461962 
L 600.424282 398.12413 
L 607.89988 395.265412 
L 615.375478 392.885809 
L 622.851077 390.282619 
L 630.326675 387.264197 
L 637.802273 384.948475 
L 652.753469 380.189269 
L 660.229067 378.464456 
L 667.704665 375.509916 
L 675.180263 373.290018 
L 682.655861 369.744569 
L 690.131459 367.748257 
L 697.607057 364.23475 
L 712.558254 360.00257 
L 723.237679 357.383409 
L 727.50945 356.680708 
L 734.985048 354.301105 
L 742.460646 352.480469 
L 757.411842 349.174577 
L 764.88744 346.188096 
L 779.838636 342.115621 
L 779.838636 342.115621 
" style="fill:none;stroke:#ff7f0e;stroke-linecap:square;stroke-width:5;"/>
   </g>
   <g id="line2d_66">
    <path clip-path="url(#pe0c00bac0b)" d="M 171.111364 593.283521 
L 178.586962 592.692613 
L 186.06256 591.814236 
L 193.538158 590.760183 
L 201.013756 589.530456 
L 208.489354 588.141023 
L 215.964952 587.039059 
L 227.712321 584.914984 
L 235.187919 583.174201 
L 244.799402 581.52924 
L 246.935287 580.810568 
L 255.478828 579.421135 
L 256.54677 579.373224 
L 257.614713 579.069785 
L 259.750598 578.60664 
L 260.818541 578.383053 
L 261.886483 577.983791 
L 264.022368 577.728263 
L 270.430024 575.939568 
L 272.565909 575.684041 
L 274.701794 575.109103 
L 276.837679 574.661929 
L 278.973565 574.518195 
L 280.041507 574.230726 
L 281.10945 573.71967 
L 283.245335 573.144733 
L 286.449163 572.905175 
L 288.585048 572.442031 
L 290.720933 572.058739 
L 291.788876 571.803211 
L 293.924761 571.707389 
L 297.128589 570.940805 
L 301.400359 570.44572 
L 302.468301 570.14228 
L 305.672129 569.535402 
L 306.740072 569.231963 
L 308.875957 569.056287 
L 309.9439 568.752848 
L 312.079785 568.337615 
L 314.21567 567.84253 
L 316.351555 567.714766 
L 318.48744 567.267592 
L 320.623325 566.804448 
L 321.691268 566.644743 
L 323.827153 566.644743 
L 325.963038 566.069805 
L 336.642464 564.201258 
L 338.778349 563.993642 
L 340.914234 563.658261 
L 344.118062 562.987501 
L 349.457775 562.220917 
L 355.865431 561.310599 
L 358.001316 560.863426 
L 364.408971 559.889226 
L 366.544856 559.521904 
L 368.680742 559.410111 
L 370.816627 559.010849 
L 372.952512 558.707409 
L 374.020455 558.515764 
L 376.15634 558.451882 
L 381.496053 557.525593 
L 384.69988 557.381859 
L 388.971651 556.471541 
L 391.107536 556.391688 
L 393.243421 556.008397 
L 395.379306 555.449429 
L 396.447249 555.177931 
L 398.583134 555.082108 
L 401.786962 554.523141 
L 403.922847 554.219702 
L 406.058732 554.123879 
L 411.398445 553.149679 
L 413.53433 552.974003 
L 415.670215 552.462948 
L 416.738158 552.351154 
L 418.874043 551.792187 
L 421.009928 551.664423 
L 422.077871 551.376954 
L 424.213756 551.073515 
L 425.281699 550.802017 
L 427.417584 550.57843 
L 428.485526 550.562459 
L 431.689354 549.827817 
L 432.757297 549.795876 
L 444.504665 548.566148 
L 447.708493 547.735683 
L 448.776435 547.512096 
L 450.912321 547.304479 
L 453.048206 546.953129 
L 456.252033 546.362221 
L 457.319976 546.314309 
L 462.659689 545.579666 
L 463.727632 545.212345 
L 464.795574 545.212345 
L 465.863517 545.05264 
L 469.067344 544.286057 
L 470.135287 544.07844 
L 473.339115 543.838883 
L 476.542943 543.200063 
L 480.814713 542.944536 
L 482.950598 542.353627 
L 486.154426 541.762719 
L 488.290311 541.730778 
L 489.358254 541.395398 
L 490.426196 541.283605 
L 493.630024 540.692696 
L 495.765909 540.628815 
L 496.833852 540.405228 
L 497.901794 539.974024 
L 502.173565 539.446998 
L 504.30945 539.1755 
L 507.513278 538.297123 
L 510.717105 537.961743 
L 518.192703 536.492458 
L 525.668301 535.502287 
L 533.1439 534.096884 
L 540.619498 532.883127 
L 570.52189 526.926134 
L 577.997488 525.760288 
L 586.541029 524.099357 
L 592.948684 523.412626 
L 600.424282 522.326633 
L 607.89988 520.697643 
L 615.375478 519.244328 
L 622.851077 518.046541 
L 630.326675 516.465463 
L 652.753469 512.504781 
L 660.229067 511.275053 
L 675.180263 509.135008 
L 682.655861 507.873339 
L 690.131459 506.803316 
L 697.607057 505.557618 
L 705.082656 504.503566 
L 727.50945 500.702589 
L 734.985048 499.552714 
L 742.460646 498.179251 
L 764.88744 494.665744 
L 779.838636 492.90899 
L 779.838636 492.90899 
" style="fill:none;stroke:#2ca02c;stroke-linecap:square;stroke-width:5;"/>
   </g>
   <g id="patch_6">
    <path d="M 140.675 596.589412 
L 140.675 329.534867 
" style="fill:none;stroke:#000000;stroke-linecap:square;stroke-linejoin:miter;stroke-width:0.8;"/>
   </g>
   <g id="patch_7">
    <path d="M 140.675 596.589412 
L 810.275 596.589412 
" style="fill:none;stroke:#000000;stroke-linecap:square;stroke-linejoin:miter;stroke-width:0.8;"/>
   </g>
   <g id="legend_1">
    <g id="patch_8">
     <path d="M 157.475 454.417367 
L 339.41 454.417367 
Q 344.21 454.417367 344.21 449.617367 
L 344.21 346.334867 
Q 344.21 341.534867 339.41 341.534867 
L 157.475 341.534867 
Q 152.675 341.534867 152.675 346.334867 
L 152.675 449.617367 
Q 152.675 454.417367 157.475 454.417367 
z
" style="fill:#ffffff;opacity:0.8;stroke:#cccccc;stroke-linejoin:miter;"/>
    </g>
    <g id="line2d_67">
     <path d="M 162.275 360.971117 
L 210.275 360.971117 
" style="fill:none;stroke:#1f77b4;stroke-linecap:square;stroke-width:5;"/>
    </g>
    <g id="line2d_68"/>
    <g id="text_23">
     <!-- arXiv -->
     <defs>
      <path d="M 6.296875 72.90625 
L 16.890625 72.90625 
L 35.015625 45.796875 
L 53.21875 72.90625 
L 63.8125 72.90625 
L 40.375 37.890625 
L 65.375 0 
L 54.78125 0 
L 34.28125 31 
L 13.625 0 
L 2.984375 0 
L 29 38.921875 
z
" id="DejaVuSans-88"/>
      <path d="M 2.984375 54.6875 
L 12.5 54.6875 
L 29.59375 8.796875 
L 46.6875 54.6875 
L 56.203125 54.6875 
L 35.6875 0 
L 23.484375 0 
z
" id="DejaVuSans-118"/>
     </defs>
     <g transform="translate(229.475 369.371117)scale(0.24 -0.24)">
      <use xlink:href="#DejaVuSans-97"/>
      <use x="61.279297" xlink:href="#DejaVuSans-114"/>
      <use x="102.392578" xlink:href="#DejaVuSans-88"/>
      <use x="170.898438" xlink:href="#DejaVuSans-105"/>
      <use x="198.681641" xlink:href="#DejaVuSans-118"/>
     </g>
    </g>
    <g id="line2d_69">
     <path d="M 162.275 396.198617 
L 210.275 396.198617 
" style="fill:none;stroke:#ff7f0e;stroke-linecap:square;stroke-width:5;"/>
    </g>
    <g id="line2d_70"/>
    <g id="text_24">
     <!-- medRxiv -->
     <defs>
      <path d="M 45.40625 46.390625 
L 45.40625 75.984375 
L 54.390625 75.984375 
L 54.390625 0 
L 45.40625 0 
L 45.40625 8.203125 
Q 42.578125 3.328125 38.25 0.953125 
Q 33.9375 -1.421875 27.875 -1.421875 
Q 17.96875 -1.421875 11.734375 6.484375 
Q 5.515625 14.40625 5.515625 27.296875 
Q 5.515625 40.1875 11.734375 48.09375 
Q 17.96875 56 27.875 56 
Q 33.9375 56 38.25 53.625 
Q 42.578125 51.265625 45.40625 46.390625 
z
M 14.796875 27.296875 
Q 14.796875 17.390625 18.875 11.75 
Q 22.953125 6.109375 30.078125 6.109375 
Q 37.203125 6.109375 41.296875 11.75 
Q 45.40625 17.390625 45.40625 27.296875 
Q 45.40625 37.203125 41.296875 42.84375 
Q 37.203125 48.484375 30.078125 48.484375 
Q 22.953125 48.484375 18.875 42.84375 
Q 14.796875 37.203125 14.796875 27.296875 
z
" id="DejaVuSans-100"/>
      <path d="M 44.390625 34.1875 
Q 47.5625 33.109375 50.5625 29.59375 
Q 53.5625 26.078125 56.59375 19.921875 
L 66.609375 0 
L 56 0 
L 46.6875 18.703125 
Q 43.0625 26.03125 39.671875 28.421875 
Q 36.28125 30.8125 30.421875 30.8125 
L 19.671875 30.8125 
L 19.671875 0 
L 9.8125 0 
L 9.8125 72.90625 
L 32.078125 72.90625 
Q 44.578125 72.90625 50.734375 67.671875 
Q 56.890625 62.453125 56.890625 51.90625 
Q 56.890625 45.015625 53.6875 40.46875 
Q 50.484375 35.9375 44.390625 34.1875 
z
M 19.671875 64.796875 
L 19.671875 38.921875 
L 32.078125 38.921875 
Q 39.203125 38.921875 42.84375 42.21875 
Q 46.484375 45.515625 46.484375 51.90625 
Q 46.484375 58.296875 42.84375 61.546875 
Q 39.203125 64.796875 32.078125 64.796875 
z
" id="DejaVuSans-82"/>
      <path d="M 54.890625 54.6875 
L 35.109375 28.078125 
L 55.90625 0 
L 45.3125 0 
L 29.390625 21.484375 
L 13.484375 0 
L 2.875 0 
L 24.125 28.609375 
L 4.6875 54.6875 
L 15.28125 54.6875 
L 29.78125 35.203125 
L 44.28125 54.6875 
z
" id="DejaVuSans-120"/>
     </defs>
     <g transform="translate(229.475 404.598617)scale(0.24 -0.24)">
      <use xlink:href="#DejaVuSans-109"/>
      <use x="97.412109" xlink:href="#DejaVuSans-101"/>
      <use x="158.935547" xlink:href="#DejaVuSans-100"/>
      <use x="222.412109" xlink:href="#DejaVuSans-82"/>
      <use x="291.894531" xlink:href="#DejaVuSans-120"/>
      <use x="351.074219" xlink:href="#DejaVuSans-105"/>
      <use x="378.857422" xlink:href="#DejaVuSans-118"/>
     </g>
    </g>
    <g id="line2d_71">
     <path d="M 162.275 431.426117 
L 210.275 431.426117 
" style="fill:none;stroke:#2ca02c;stroke-linecap:square;stroke-width:5;"/>
    </g>
    <g id="line2d_72"/>
    <g id="text_25">
     <!-- bioRxiv -->
     <defs>
      <path d="M 48.6875 27.296875 
Q 48.6875 37.203125 44.609375 42.84375 
Q 40.53125 48.484375 33.40625 48.484375 
Q 26.265625 48.484375 22.1875 42.84375 
Q 18.109375 37.203125 18.109375 27.296875 
Q 18.109375 17.390625 22.1875 11.75 
Q 26.265625 6.109375 33.40625 6.109375 
Q 40.53125 6.109375 44.609375 11.75 
Q 48.6875 17.390625 48.6875 27.296875 
z
M 18.109375 46.390625 
Q 20.953125 51.265625 25.265625 53.625 
Q 29.59375 56 35.59375 56 
Q 45.5625 56 51.78125 48.09375 
Q 58.015625 40.1875 58.015625 27.296875 
Q 58.015625 14.40625 51.78125 6.484375 
Q 45.5625 -1.421875 35.59375 -1.421875 
Q 29.59375 -1.421875 25.265625 0.953125 
Q 20.953125 3.328125 18.109375 8.203125 
L 18.109375 0 
L 9.078125 0 
L 9.078125 75.984375 
L 18.109375 75.984375 
z
" id="DejaVuSans-98"/>
     </defs>
     <g transform="translate(229.475 439.826117)scale(0.24 -0.24)">
      <use xlink:href="#DejaVuSans-98"/>
      <use x="63.476562" xlink:href="#DejaVuSans-105"/>
      <use x="91.259766" xlink:href="#DejaVuSans-111"/>
      <use x="152.441406" xlink:href="#DejaVuSans-82"/>
      <use x="221.923828" xlink:href="#DejaVuSans-120"/>
      <use x="281.103516" xlink:href="#DejaVuSans-105"/>
      <use x="308.886719" xlink:href="#DejaVuSans-118"/>
     </g>
    </g>
   </g>
  </g>
 </g>
 <defs>
  <clipPath id="p424021b11a">
   <rect height="267.054545" width="669.6" x="140.675" y="9.069412"/>
  </clipPath>
  <clipPath id="pe0c00bac0b">
   <rect height="267.054545" width="669.6" x="140.675" y="329.534867"/>
  </clipPath>
 </defs>
</svg>
