<?xml version="1.0" encoding="utf-8" standalone="no"?>
<!DOCTYPE svg PUBLIC "-//W3C//DTD SVG 1.1//EN"
  "http://www.w3.org/Graphics/SVG/1.1/DTD/svg11.dtd">
<!-- Created with matplotlib (https://matplotlib.org/) -->
<svg height="679.17498pt" version="1.1" viewBox="0 0 840.3725 679.17498" width="840.3725pt" xmlns="http://www.w3.org/2000/svg" xmlns:xlink="http://www.w3.org/1999/xlink">
 <defs>
  <style type="text/css">
*{stroke-linecap:butt;stroke-linejoin:round;}
  </style>
 </defs>
 <g id="figure_1">
  <g id="patch_1">
   <path d="M -0 679.17498 
L 840.3725 679.17498 
L 840.3725 0 
L -0 0 
z
" style="fill:#ffffff;"/>
  </g>
  <g id="axes_1">
   <g id="patch_2">
    <path d="M 163.5725 274.254545 
L 833.1725 274.254545 
L 833.1725 7.2 
L 163.5725 7.2 
z
" style="fill:#ffffff;"/>
   </g>
   <g id="matplotlib.axis_1">
    <g id="xtick_1">
     <g id="line2d_1">
      <path clip-path="url(#pff35d92031)" d="M 203.59512 274.254545 
L 203.59512 7.2 
" style="fill:none;stroke:#d3d3d3;stroke-linecap:square;stroke-width:0.8;"/>
     </g>
     <g id="line2d_2">
      <defs>
       <path d="M 0 0 
L 0 3.5 
" id="m471fbfe30b" style="stroke:#000000;stroke-width:0.8;"/>
      </defs>
      <g>
       <use style="stroke:#000000;stroke-width:0.8;" x="203.59512" xlink:href="#m471fbfe30b" y="274.254545"/>
      </g>
     </g>
    </g>
    <g id="xtick_2">
     <g id="line2d_3">
      <path clip-path="url(#pff35d92031)" d="M 276.290897 274.254545 
L 276.290897 7.2 
" style="fill:none;stroke:#d3d3d3;stroke-linecap:square;stroke-width:0.8;"/>
     </g>
     <g id="line2d_4">
      <g>
       <use style="stroke:#000000;stroke-width:0.8;" x="276.290897" xlink:href="#m471fbfe30b" y="274.254545"/>
      </g>
     </g>
    </g>
    <g id="xtick_3">
     <g id="line2d_5">
      <path clip-path="url(#pff35d92031)" d="M 349.785528 274.254545 
L 349.785528 7.2 
" style="fill:none;stroke:#d3d3d3;stroke-linecap:square;stroke-width:0.8;"/>
     </g>
     <g id="line2d_6">
      <g>
       <use style="stroke:#000000;stroke-width:0.8;" x="349.785528" xlink:href="#m471fbfe30b" y="274.254545"/>
      </g>
     </g>
    </g>
    <g id="xtick_4">
     <g id="line2d_7">
      <path clip-path="url(#pff35d92031)" d="M 423.280159 274.254545 
L 423.280159 7.2 
" style="fill:none;stroke:#d3d3d3;stroke-linecap:square;stroke-width:0.8;"/>
     </g>
     <g id="line2d_8">
      <g>
       <use style="stroke:#000000;stroke-width:0.8;" x="423.280159" xlink:href="#m471fbfe30b" y="274.254545"/>
      </g>
     </g>
    </g>
    <g id="xtick_5">
     <g id="line2d_9">
      <path clip-path="url(#pff35d92031)" d="M 495.177081 274.254545 
L 495.177081 7.2 
" style="fill:none;stroke:#d3d3d3;stroke-linecap:square;stroke-width:0.8;"/>
     </g>
     <g id="line2d_10">
      <g>
       <use style="stroke:#000000;stroke-width:0.8;" x="495.177081" xlink:href="#m471fbfe30b" y="274.254545"/>
      </g>
     </g>
    </g>
    <g id="xtick_6">
     <g id="line2d_11">
      <path clip-path="url(#pff35d92031)" d="M 567.872858 274.254545 
L 567.872858 7.2 
" style="fill:none;stroke:#d3d3d3;stroke-linecap:square;stroke-width:0.8;"/>
     </g>
     <g id="line2d_12">
      <g>
       <use style="stroke:#000000;stroke-width:0.8;" x="567.872858" xlink:href="#m471fbfe30b" y="274.254545"/>
      </g>
     </g>
    </g>
    <g id="xtick_7">
     <g id="line2d_13">
      <path clip-path="url(#pff35d92031)" d="M 641.367489 274.254545 
L 641.367489 7.2 
" style="fill:none;stroke:#d3d3d3;stroke-linecap:square;stroke-width:0.8;"/>
     </g>
     <g id="line2d_14">
      <g>
       <use style="stroke:#000000;stroke-width:0.8;" x="641.367489" xlink:href="#m471fbfe30b" y="274.254545"/>
      </g>
     </g>
    </g>
    <g id="xtick_8">
     <g id="line2d_15">
      <path clip-path="url(#pff35d92031)" d="M 714.862121 274.254545 
L 714.862121 7.2 
" style="fill:none;stroke:#d3d3d3;stroke-linecap:square;stroke-width:0.8;"/>
     </g>
     <g id="line2d_16">
      <g>
       <use style="stroke:#000000;stroke-width:0.8;" x="714.862121" xlink:href="#m471fbfe30b" y="274.254545"/>
      </g>
     </g>
    </g>
    <g id="xtick_9">
     <g id="line2d_17">
      <path clip-path="url(#pff35d92031)" d="M 786.759043 274.254545 
L 786.759043 7.2 
" style="fill:none;stroke:#d3d3d3;stroke-linecap:square;stroke-width:0.8;"/>
     </g>
     <g id="line2d_18">
      <g>
       <use style="stroke:#000000;stroke-width:0.8;" x="786.759043" xlink:href="#m471fbfe30b" y="274.254545"/>
      </g>
     </g>
    </g>
   </g>
   <g id="matplotlib.axis_2">
    <g id="ytick_1">
     <g id="line2d_19">
      <path clip-path="url(#pff35d92031)" d="M 163.5725 274.254545 
L 833.1725 274.254545 
" style="fill:none;stroke:#d3d3d3;stroke-linecap:square;stroke-width:0.8;"/>
     </g>
     <g id="line2d_20">
      <defs>
       <path d="M 0 0 
L -3.5 0 
" id="m21493925c0" style="stroke:#000000;stroke-width:0.8;"/>
      </defs>
      <g>
       <use style="stroke:#000000;stroke-width:0.8;" x="163.5725" xlink:href="#m21493925c0" y="274.254545"/>
      </g>
     </g>
     <g id="text_1">
      <!-- 0 -->
      <defs>
       <path d="M 31.78125 66.40625 
Q 24.171875 66.40625 20.328125 58.90625 
Q 16.5 51.421875 16.5 36.375 
Q 16.5 21.390625 20.328125 13.890625 
Q 24.171875 6.390625 31.78125 6.390625 
Q 39.453125 6.390625 43.28125 13.890625 
Q 47.125 21.390625 47.125 36.375 
Q 47.125 51.421875 43.28125 58.90625 
Q 39.453125 66.40625 31.78125 66.40625 
z
M 31.78125 74.21875 
Q 44.046875 74.21875 50.515625 64.515625 
Q 56.984375 54.828125 56.984375 36.375 
Q 56.984375 17.96875 50.515625 8.265625 
Q 44.046875 -1.421875 31.78125 -1.421875 
Q 19.53125 -1.421875 13.0625 8.265625 
Q 6.59375 17.96875 6.59375 36.375 
Q 6.59375 54.828125 13.0625 64.515625 
Q 19.53125 74.21875 31.78125 74.21875 
z
" id="DejaVuSans-48"/>
      </defs>
      <g transform="translate(141.3025 283.37267)scale(0.24 -0.24)">
       <use xlink:href="#DejaVuSans-48"/>
      </g>
     </g>
    </g>
    <g id="ytick_2">
     <g id="line2d_21">
      <path clip-path="url(#pff35d92031)" d="M 163.5725 211.52713 
L 833.1725 211.52713 
" style="fill:none;stroke:#d3d3d3;stroke-linecap:square;stroke-width:0.8;"/>
     </g>
     <g id="line2d_22">
      <g>
       <use style="stroke:#000000;stroke-width:0.8;" x="163.5725" xlink:href="#m21493925c0" y="211.52713"/>
      </g>
     </g>
     <g id="text_2">
      <!-- 250,000 -->
      <defs>
       <path d="M 19.1875 8.296875 
L 53.609375 8.296875 
L 53.609375 0 
L 7.328125 0 
L 7.328125 8.296875 
Q 12.9375 14.109375 22.625 23.890625 
Q 32.328125 33.6875 34.8125 36.53125 
Q 39.546875 41.84375 41.421875 45.53125 
Q 43.3125 49.21875 43.3125 52.78125 
Q 43.3125 58.59375 39.234375 62.25 
Q 35.15625 65.921875 28.609375 65.921875 
Q 23.96875 65.921875 18.8125 64.3125 
Q 13.671875 62.703125 7.8125 59.421875 
L 7.8125 69.390625 
Q 13.765625 71.78125 18.9375 73 
Q 24.125 74.21875 28.421875 74.21875 
Q 39.75 74.21875 46.484375 68.546875 
Q 53.21875 62.890625 53.21875 53.421875 
Q 53.21875 48.921875 51.53125 44.890625 
Q 49.859375 40.875 45.40625 35.40625 
Q 44.1875 33.984375 37.640625 27.21875 
Q 31.109375 20.453125 19.1875 8.296875 
z
" id="DejaVuSans-50"/>
       <path d="M 10.796875 72.90625 
L 49.515625 72.90625 
L 49.515625 64.59375 
L 19.828125 64.59375 
L 19.828125 46.734375 
Q 21.96875 47.46875 24.109375 47.828125 
Q 26.265625 48.1875 28.421875 48.1875 
Q 40.625 48.1875 47.75 41.5 
Q 54.890625 34.8125 54.890625 23.390625 
Q 54.890625 11.625 47.5625 5.09375 
Q 40.234375 -1.421875 26.90625 -1.421875 
Q 22.3125 -1.421875 17.546875 -0.640625 
Q 12.796875 0.140625 7.71875 1.703125 
L 7.71875 11.625 
Q 12.109375 9.234375 16.796875 8.0625 
Q 21.484375 6.890625 26.703125 6.890625 
Q 35.15625 6.890625 40.078125 11.328125 
Q 45.015625 15.765625 45.015625 23.390625 
Q 45.015625 31 40.078125 35.4375 
Q 35.15625 39.890625 26.703125 39.890625 
Q 22.75 39.890625 18.8125 39.015625 
Q 14.890625 38.140625 10.796875 36.28125 
z
" id="DejaVuSans-53"/>
       <path d="M 11.71875 12.40625 
L 22.015625 12.40625 
L 22.015625 4 
L 14.015625 -11.625 
L 7.71875 -11.625 
L 11.71875 4 
z
" id="DejaVuSans-44"/>
      </defs>
      <g transform="translate(57.325 220.645255)scale(0.24 -0.24)">
       <use xlink:href="#DejaVuSans-50"/>
       <use x="63.623047" xlink:href="#DejaVuSans-53"/>
       <use x="127.246094" xlink:href="#DejaVuSans-48"/>
       <use x="190.869141" xlink:href="#DejaVuSans-44"/>
       <use x="222.65625" xlink:href="#DejaVuSans-48"/>
       <use x="286.279297" xlink:href="#DejaVuSans-48"/>
       <use x="349.902344" xlink:href="#DejaVuSans-48"/>
      </g>
     </g>
    </g>
    <g id="ytick_3">
     <g id="line2d_23">
      <path clip-path="url(#pff35d92031)" d="M 163.5725 148.799714 
L 833.1725 148.799714 
" style="fill:none;stroke:#d3d3d3;stroke-linecap:square;stroke-width:0.8;"/>
     </g>
     <g id="line2d_24">
      <g>
       <use style="stroke:#000000;stroke-width:0.8;" x="163.5725" xlink:href="#m21493925c0" y="148.799714"/>
      </g>
     </g>
     <g id="text_3">
      <!-- 500,000 -->
      <g transform="translate(57.325 157.917839)scale(0.24 -0.24)">
       <use xlink:href="#DejaVuSans-53"/>
       <use x="63.623047" xlink:href="#DejaVuSans-48"/>
       <use x="127.246094" xlink:href="#DejaVuSans-48"/>
       <use x="190.869141" xlink:href="#DejaVuSans-44"/>
       <use x="222.65625" xlink:href="#DejaVuSans-48"/>
       <use x="286.279297" xlink:href="#DejaVuSans-48"/>
       <use x="349.902344" xlink:href="#DejaVuSans-48"/>
      </g>
     </g>
    </g>
    <g id="ytick_4">
     <g id="line2d_25">
      <path clip-path="url(#pff35d92031)" d="M 163.5725 86.072298 
L 833.1725 86.072298 
" style="fill:none;stroke:#d3d3d3;stroke-linecap:square;stroke-width:0.8;"/>
     </g>
     <g id="line2d_26">
      <g>
       <use style="stroke:#000000;stroke-width:0.8;" x="163.5725" xlink:href="#m21493925c0" y="86.072298"/>
      </g>
     </g>
     <g id="text_4">
      <!-- 750,000 -->
      <defs>
       <path d="M 8.203125 72.90625 
L 55.078125 72.90625 
L 55.078125 68.703125 
L 28.609375 0 
L 18.3125 0 
L 43.21875 64.59375 
L 8.203125 64.59375 
z
" id="DejaVuSans-55"/>
      </defs>
      <g transform="translate(57.325 95.190423)scale(0.24 -0.24)">
       <use xlink:href="#DejaVuSans-55"/>
       <use x="63.623047" xlink:href="#DejaVuSans-53"/>
       <use x="127.246094" xlink:href="#DejaVuSans-48"/>
       <use x="190.869141" xlink:href="#DejaVuSans-44"/>
       <use x="222.65625" xlink:href="#DejaVuSans-48"/>
       <use x="286.279297" xlink:href="#DejaVuSans-48"/>
       <use x="349.902344" xlink:href="#DejaVuSans-48"/>
      </g>
     </g>
    </g>
    <g id="ytick_5">
     <g id="line2d_27">
      <path clip-path="url(#pff35d92031)" d="M 163.5725 23.344883 
L 833.1725 23.344883 
" style="fill:none;stroke:#d3d3d3;stroke-linecap:square;stroke-width:0.8;"/>
     </g>
     <g id="line2d_28">
      <g>
       <use style="stroke:#000000;stroke-width:0.8;" x="163.5725" xlink:href="#m21493925c0" y="23.344883"/>
      </g>
     </g>
     <g id="text_5">
      <!-- 1,000,000 -->
      <defs>
       <path d="M 12.40625 8.296875 
L 28.515625 8.296875 
L 28.515625 63.921875 
L 10.984375 60.40625 
L 10.984375 69.390625 
L 28.421875 72.90625 
L 38.28125 72.90625 
L 38.28125 8.296875 
L 54.390625 8.296875 
L 54.390625 0 
L 12.40625 0 
z
" id="DejaVuSans-49"/>
      </defs>
      <g transform="translate(34.4275 32.463008)scale(0.24 -0.24)">
       <use xlink:href="#DejaVuSans-49"/>
       <use x="63.623047" xlink:href="#DejaVuSans-44"/>
       <use x="95.410156" xlink:href="#DejaVuSans-48"/>
       <use x="159.033203" xlink:href="#DejaVuSans-48"/>
       <use x="222.65625" xlink:href="#DejaVuSans-48"/>
       <use x="286.279297" xlink:href="#DejaVuSans-44"/>
       <use x="318.066406" xlink:href="#DejaVuSans-48"/>
       <use x="381.689453" xlink:href="#DejaVuSans-48"/>
       <use x="445.3125" xlink:href="#DejaVuSans-48"/>
      </g>
     </g>
    </g>
    <g id="text_6">
     <!-- Total manuscripts -->
     <defs>
      <path d="M -0.296875 72.90625 
L 61.375 72.90625 
L 61.375 64.59375 
L 35.5 64.59375 
L 35.5 0 
L 25.59375 0 
L 25.59375 64.59375 
L -0.296875 64.59375 
z
" id="DejaVuSans-84"/>
      <path d="M 30.609375 48.390625 
Q 23.390625 48.390625 19.1875 42.75 
Q 14.984375 37.109375 14.984375 27.296875 
Q 14.984375 17.484375 19.15625 11.84375 
Q 23.34375 6.203125 30.609375 6.203125 
Q 37.796875 6.203125 41.984375 11.859375 
Q 46.1875 17.53125 46.1875 27.296875 
Q 46.1875 37.015625 41.984375 42.703125 
Q 37.796875 48.390625 30.609375 48.390625 
z
M 30.609375 56 
Q 42.328125 56 49.015625 48.375 
Q 55.71875 40.765625 55.71875 27.296875 
Q 55.71875 13.875 49.015625 6.21875 
Q 42.328125 -1.421875 30.609375 -1.421875 
Q 18.84375 -1.421875 12.171875 6.21875 
Q 5.515625 13.875 5.515625 27.296875 
Q 5.515625 40.765625 12.171875 48.375 
Q 18.84375 56 30.609375 56 
z
" id="DejaVuSans-111"/>
      <path d="M 18.3125 70.21875 
L 18.3125 54.6875 
L 36.8125 54.6875 
L 36.8125 47.703125 
L 18.3125 47.703125 
L 18.3125 18.015625 
Q 18.3125 11.328125 20.140625 9.421875 
Q 21.96875 7.515625 27.59375 7.515625 
L 36.8125 7.515625 
L 36.8125 0 
L 27.59375 0 
Q 17.1875 0 13.234375 3.875 
Q 9.28125 7.765625 9.28125 18.015625 
L 9.28125 47.703125 
L 2.6875 47.703125 
L 2.6875 54.6875 
L 9.28125 54.6875 
L 9.28125 70.21875 
z
" id="DejaVuSans-116"/>
      <path d="M 34.28125 27.484375 
Q 23.390625 27.484375 19.1875 25 
Q 14.984375 22.515625 14.984375 16.5 
Q 14.984375 11.71875 18.140625 8.90625 
Q 21.296875 6.109375 26.703125 6.109375 
Q 34.1875 6.109375 38.703125 11.40625 
Q 43.21875 16.703125 43.21875 25.484375 
L 43.21875 27.484375 
z
M 52.203125 31.203125 
L 52.203125 0 
L 43.21875 0 
L 43.21875 8.296875 
Q 40.140625 3.328125 35.546875 0.953125 
Q 30.953125 -1.421875 24.3125 -1.421875 
Q 15.921875 -1.421875 10.953125 3.296875 
Q 6 8.015625 6 15.921875 
Q 6 25.140625 12.171875 29.828125 
Q 18.359375 34.515625 30.609375 34.515625 
L 43.21875 34.515625 
L 43.21875 35.40625 
Q 43.21875 41.609375 39.140625 45 
Q 35.0625 48.390625 27.6875 48.390625 
Q 23 48.390625 18.546875 47.265625 
Q 14.109375 46.140625 10.015625 43.890625 
L 10.015625 52.203125 
Q 14.9375 54.109375 19.578125 55.046875 
Q 24.21875 56 28.609375 56 
Q 40.484375 56 46.34375 49.84375 
Q 52.203125 43.703125 52.203125 31.203125 
z
" id="DejaVuSans-97"/>
      <path d="M 9.421875 75.984375 
L 18.40625 75.984375 
L 18.40625 0 
L 9.421875 0 
z
" id="DejaVuSans-108"/>
      <path id="DejaVuSans-32"/>
      <path d="M 52 44.1875 
Q 55.375 50.25 60.0625 53.125 
Q 64.75 56 71.09375 56 
Q 79.640625 56 84.28125 50.015625 
Q 88.921875 44.046875 88.921875 33.015625 
L 88.921875 0 
L 79.890625 0 
L 79.890625 32.71875 
Q 79.890625 40.578125 77.09375 44.375 
Q 74.3125 48.1875 68.609375 48.1875 
Q 61.625 48.1875 57.5625 43.546875 
Q 53.515625 38.921875 53.515625 30.90625 
L 53.515625 0 
L 44.484375 0 
L 44.484375 32.71875 
Q 44.484375 40.625 41.703125 44.40625 
Q 38.921875 48.1875 33.109375 48.1875 
Q 26.21875 48.1875 22.15625 43.53125 
Q 18.109375 38.875 18.109375 30.90625 
L 18.109375 0 
L 9.078125 0 
L 9.078125 54.6875 
L 18.109375 54.6875 
L 18.109375 46.1875 
Q 21.1875 51.21875 25.484375 53.609375 
Q 29.78125 56 35.6875 56 
Q 41.65625 56 45.828125 52.96875 
Q 50 49.953125 52 44.1875 
z
" id="DejaVuSans-109"/>
      <path d="M 54.890625 33.015625 
L 54.890625 0 
L 45.90625 0 
L 45.90625 32.71875 
Q 45.90625 40.484375 42.875 44.328125 
Q 39.84375 48.1875 33.796875 48.1875 
Q 26.515625 48.1875 22.3125 43.546875 
Q 18.109375 38.921875 18.109375 30.90625 
L 18.109375 0 
L 9.078125 0 
L 9.078125 54.6875 
L 18.109375 54.6875 
L 18.109375 46.1875 
Q 21.34375 51.125 25.703125 53.5625 
Q 30.078125 56 35.796875 56 
Q 45.21875 56 50.046875 50.171875 
Q 54.890625 44.34375 54.890625 33.015625 
z
" id="DejaVuSans-110"/>
      <path d="M 8.5 21.578125 
L 8.5 54.6875 
L 17.484375 54.6875 
L 17.484375 21.921875 
Q 17.484375 14.15625 20.5 10.265625 
Q 23.53125 6.390625 29.59375 6.390625 
Q 36.859375 6.390625 41.078125 11.03125 
Q 45.3125 15.671875 45.3125 23.6875 
L 45.3125 54.6875 
L 54.296875 54.6875 
L 54.296875 0 
L 45.3125 0 
L 45.3125 8.40625 
Q 42.046875 3.421875 37.71875 1 
Q 33.40625 -1.421875 27.6875 -1.421875 
Q 18.265625 -1.421875 13.375 4.4375 
Q 8.5 10.296875 8.5 21.578125 
z
M 31.109375 56 
z
" id="DejaVuSans-117"/>
      <path d="M 44.28125 53.078125 
L 44.28125 44.578125 
Q 40.484375 46.53125 36.375 47.5 
Q 32.28125 48.484375 27.875 48.484375 
Q 21.1875 48.484375 17.84375 46.4375 
Q 14.5 44.390625 14.5 40.28125 
Q 14.5 37.15625 16.890625 35.375 
Q 19.28125 33.59375 26.515625 31.984375 
L 29.59375 31.296875 
Q 39.15625 29.25 43.1875 25.515625 
Q 47.21875 21.78125 47.21875 15.09375 
Q 47.21875 7.46875 41.1875 3.015625 
Q 35.15625 -1.421875 24.609375 -1.421875 
Q 20.21875 -1.421875 15.453125 -0.5625 
Q 10.6875 0.296875 5.421875 2 
L 5.421875 11.28125 
Q 10.40625 8.6875 15.234375 7.390625 
Q 20.0625 6.109375 24.8125 6.109375 
Q 31.15625 6.109375 34.5625 8.28125 
Q 37.984375 10.453125 37.984375 14.40625 
Q 37.984375 18.0625 35.515625 20.015625 
Q 33.0625 21.96875 24.703125 23.78125 
L 21.578125 24.515625 
Q 13.234375 26.265625 9.515625 29.90625 
Q 5.8125 33.546875 5.8125 39.890625 
Q 5.8125 47.609375 11.28125 51.796875 
Q 16.75 56 26.8125 56 
Q 31.78125 56 36.171875 55.265625 
Q 40.578125 54.546875 44.28125 53.078125 
z
" id="DejaVuSans-115"/>
      <path d="M 48.78125 52.59375 
L 48.78125 44.1875 
Q 44.96875 46.296875 41.140625 47.34375 
Q 37.3125 48.390625 33.40625 48.390625 
Q 24.65625 48.390625 19.8125 42.84375 
Q 14.984375 37.3125 14.984375 27.296875 
Q 14.984375 17.28125 19.8125 11.734375 
Q 24.65625 6.203125 33.40625 6.203125 
Q 37.3125 6.203125 41.140625 7.25 
Q 44.96875 8.296875 48.78125 10.40625 
L 48.78125 2.09375 
Q 45.015625 0.34375 40.984375 -0.53125 
Q 36.96875 -1.421875 32.421875 -1.421875 
Q 20.0625 -1.421875 12.78125 6.34375 
Q 5.515625 14.109375 5.515625 27.296875 
Q 5.515625 40.671875 12.859375 48.328125 
Q 20.21875 56 33.015625 56 
Q 37.15625 56 41.109375 55.140625 
Q 45.0625 54.296875 48.78125 52.59375 
z
" id="DejaVuSans-99"/>
      <path d="M 41.109375 46.296875 
Q 39.59375 47.171875 37.8125 47.578125 
Q 36.03125 48 33.890625 48 
Q 26.265625 48 22.1875 43.046875 
Q 18.109375 38.09375 18.109375 28.8125 
L 18.109375 0 
L 9.078125 0 
L 9.078125 54.6875 
L 18.109375 54.6875 
L 18.109375 46.1875 
Q 20.953125 51.171875 25.484375 53.578125 
Q 30.03125 56 36.53125 56 
Q 37.453125 56 38.578125 55.875 
Q 39.703125 55.765625 41.0625 55.515625 
z
" id="DejaVuSans-114"/>
      <path d="M 9.421875 54.6875 
L 18.40625 54.6875 
L 18.40625 0 
L 9.421875 0 
z
M 9.421875 75.984375 
L 18.40625 75.984375 
L 18.40625 64.59375 
L 9.421875 64.59375 
z
" id="DejaVuSans-105"/>
      <path d="M 18.109375 8.203125 
L 18.109375 -20.796875 
L 9.078125 -20.796875 
L 9.078125 54.6875 
L 18.109375 54.6875 
L 18.109375 46.390625 
Q 20.953125 51.265625 25.265625 53.625 
Q 29.59375 56 35.59375 56 
Q 45.5625 56 51.78125 48.09375 
Q 58.015625 40.1875 58.015625 27.296875 
Q 58.015625 14.40625 51.78125 6.484375 
Q 45.5625 -1.421875 35.59375 -1.421875 
Q 29.59375 -1.421875 25.265625 0.953125 
Q 20.953125 3.328125 18.109375 8.203125 
z
M 48.6875 27.296875 
Q 48.6875 37.203125 44.609375 42.84375 
Q 40.53125 48.484375 33.40625 48.484375 
Q 26.265625 48.484375 22.1875 42.84375 
Q 18.109375 37.203125 18.109375 27.296875 
Q 18.109375 17.390625 22.1875 11.75 
Q 26.265625 6.109375 33.40625 6.109375 
Q 40.53125 6.109375 44.609375 11.75 
Q 48.6875 17.390625 48.6875 27.296875 
z
" id="DejaVuSans-112"/>
     </defs>
     <g transform="translate(25.43625 248.515398)rotate(-90)scale(0.24 -0.24)">
      <use xlink:href="#DejaVuSans-84"/>
      <use x="60.818359" xlink:href="#DejaVuSans-111"/>
      <use x="122" xlink:href="#DejaVuSans-116"/>
      <use x="161.208984" xlink:href="#DejaVuSans-97"/>
      <use x="222.488281" xlink:href="#DejaVuSans-108"/>
      <use x="250.271484" xlink:href="#DejaVuSans-32"/>
      <use x="282.058594" xlink:href="#DejaVuSans-109"/>
      <use x="379.470703" xlink:href="#DejaVuSans-97"/>
      <use x="440.75" xlink:href="#DejaVuSans-110"/>
      <use x="504.128906" xlink:href="#DejaVuSans-117"/>
      <use x="567.507812" xlink:href="#DejaVuSans-115"/>
      <use x="619.607422" xlink:href="#DejaVuSans-99"/>
      <use x="674.587891" xlink:href="#DejaVuSans-114"/>
      <use x="715.701172" xlink:href="#DejaVuSans-105"/>
      <use x="743.484375" xlink:href="#DejaVuSans-112"/>
      <use x="806.960938" xlink:href="#DejaVuSans-116"/>
      <use x="846.169922" xlink:href="#DejaVuSans-115"/>
     </g>
    </g>
   </g>
   <g id="line2d_29">
    <path clip-path="url(#pff35d92031)" d="M 194.008864 263.15932 
L 205.192829 262.38702 
L 210.784812 261.438582 
L 216.376795 261.107381 
L 221.968778 259.860862 
L 236.348162 258.303967 
L 241.940145 242.014661 
L 247.532128 240.580963 
L 248.330982 240.11402 
L 249.928692 239.426528 
L 250.727547 239.362797 
L 252.325256 238.993709 
L 253.124111 238.848934 
L 253.922965 240.344355 
L 255.520675 240.110257 
L 257.118384 239.984551 
L 257.917239 239.776798 
L 259.514948 239.179382 
L 263.509222 238.3983 
L 264.308076 237.490007 
L 265.106931 234.76287 
L 269.101204 234.373207 
L 269.900059 234.019676 
L 270.698914 234.088425 
L 271.497768 233.716577 
L 272.296623 233.219776 
L 273.095478 233.146761 
L 273.894332 232.234704 
L 274.693187 232.146384 
L 276.290897 231.644816 
L 277.888606 229.052417 
L 278.687461 228.725482 
L 280.28517 228.506688 
L 281.084025 228.302699 
L 281.882879 227.854072 
L 283.480589 227.352253 
L 285.078298 227.099085 
L 286.676008 226.419371 
L 288.273717 225.952177 
L 293.8657 224.542065 
L 297.061118 224.300439 
L 297.859973 223.535917 
L 298.658828 223.287767 
L 299.457683 223.188909 
L 301.055392 222.64017 
L 301.854247 222.380729 
L 303.451956 222.166954 
L 305.049665 221.461898 
L 305.84852 221.254145 
L 306.647375 221.428778 
L 309.842793 220.758096 
L 310.641648 220.176739 
L 311.440503 219.911778 
L 312.239358 217.886937 
L 313.038212 217.395405 
L 314.635922 217.185644 
L 316.233631 216.572421 
L 317.032486 216.464279 
L 318.630195 215.721336 
L 319.42905 215.657354 
L 320.227904 215.470426 
L 322.624469 214.368933 
L 323.423323 214.287136 
L 325.819887 213.493258 
L 327.417597 212.767376 
L 331.41187 211.48573 
L 332.210725 211.092303 
L 333.808434 210.660488 
L 336.204998 208.733752 
L 337.003853 208.386995 
L 337.802708 207.494259 
L 338.601562 207.468666 
L 339.400417 206.969607 
L 340.199272 206.274587 
L 340.998126 205.746171 
L 342.595836 205.497018 
L 343.39469 205.186643 
L 344.193545 204.748052 
L 344.9924 204.131567 
L 347.388964 203.318871 
L 354.578656 201.534652 
L 355.377511 200.58797 
L 356.176365 200.351112 
L 356.97522 199.026559 
L 357.774075 198.56338 
L 360.170639 197.89019 
L 362.567203 197.135704 
L 363.366058 196.672274 
L 364.164912 196.641914 
L 364.963767 196.263291 
L 365.762622 196.06708 
L 367.360331 194.980139 
L 368.95804 194.430898 
L 371.354605 193.833482 
L 372.153459 193.350983 
L 373.751169 191.253378 
L 374.550023 190.837621 
L 376.147733 190.580438 
L 376.946587 190.379962 
L 378.544297 189.137959 
L 380.142006 188.515452 
L 381.739715 188.251746 
L 383.337425 187.52185 
L 384.13628 187.374817 
L 384.935134 185.306066 
L 385.733989 185.044117 
L 387.331698 184.834356 
L 388.130553 184.511185 
L 389.728262 184.099191 
L 391.325972 183.547441 
L 392.923681 183.302051 
L 395.320245 182.111485 
L 396.1191 182.008361 
L 401.711083 180.412073 
L 402.509937 180.19052 
L 403.308792 180.139836 
L 405.705356 179.34922 
L 406.504211 179.014507 
L 407.303065 178.915397 
L 408.10192 178.452971 
L 412.895048 176.132056 
L 413.693903 175.875878 
L 415.291612 175.655077 
L 416.090467 175.217742 
L 416.889322 174.957046 
L 417.688176 174.946508 
L 421.68245 174.548064 
L 422.481305 173.860822 
L 425.676723 173.783542 
L 427.274433 173.535392 
L 428.073287 171.090278 
L 428.872142 170.629858 
L 429.670997 170.372927 
L 430.469851 169.826195 
L 432.067561 169.589587 
L 433.66527 168.911629 
L 435.26298 167.687943 
L 436.061834 167.452589 
L 436.860689 167.418215 
L 437.659544 167.093287 
L 439.257253 166.821551 
L 440.854962 166.066564 
L 441.653817 165.720058 
L 443.251526 165.503774 
L 444.849236 164.162411 
L 445.648091 164.075345 
L 446.446945 163.741635 
L 448.044655 163.570264 
L 453.636637 161.248597 
L 459.22862 158.642649 
L 464.820603 156.949009 
L 470.412586 154.62684 
L 476.004569 153.260637 
L 487.188534 151.081988 
L 492.780517 149.325119 
L 498.3725 143.239807 
L 504.763338 141.359992 
L 509.556466 139.561973 
L 515.148448 137.65782 
L 520.740431 135.519567 
L 526.332414 131.776999 
L 531.924397 128.913869 
L 537.51638 126.729449 
L 543.108363 123.805097 
L 554.292328 110.93042 
L 559.884311 108.779121 
L 565.476294 106.202028 
L 571.068277 103.222977 
L 576.660259 100.805965 
L 582.252242 96.320453 
L 587.844225 93.97796 
L 593.436208 91.152215 
L 599.028191 88.50562 
L 607.016738 86.39823 
L 610.212156 83.97645 
L 615.804139 81.322829 
L 621.396122 85.584781 
L 638.172071 82.422315 
L 649.356036 77.223216 
L 660.540002 73.069658 
L 666.131985 70.702074 
L 671.723967 67.936799 
L 677.31595 65.687394 
L 688.499916 62.091607 
L 699.683882 58.972298 
L 705.275864 56.814977 
L 716.45983 54.766802 
L 744.419744 46.027618 
L 765.189966 39.686127 
L 768.385385 37.32306 
L 785.960188 25.121072 
L 791.552171 23.255057 
L 802.736136 19.388539 
L 802.736136 19.388539 
" style="fill:none;stroke:#1f77b4;stroke-linecap:square;stroke-width:5;"/>
   </g>
   <g id="patch_3">
    <path d="M 163.5725 274.254545 
L 163.5725 7.2 
" style="fill:none;stroke:#000000;stroke-linecap:square;stroke-linejoin:miter;stroke-width:0.8;"/>
   </g>
   <g id="patch_4">
    <path d="M 163.5725 274.254545 
L 833.1725 274.254545 
" style="fill:none;stroke:#000000;stroke-linecap:square;stroke-linejoin:miter;stroke-width:0.8;"/>
   </g>
  </g>
  <g id="axes_2">
   <g id="patch_5">
    <path d="M 163.5725 594.72 
L 833.1725 594.72 
L 833.1725 327.665455 
L 163.5725 327.665455 
z
" style="fill:#ffffff;"/>
   </g>
   <g id="matplotlib.axis_3">
    <g id="xtick_10">
     <g id="line2d_30">
      <path clip-path="url(#p0d7b928d94)" d="M 203.59512 594.72 
L 203.59512 327.665455 
" style="fill:none;stroke:#d3d3d3;stroke-linecap:square;stroke-width:0.8;"/>
     </g>
     <g id="line2d_31">
      <g>
       <use style="stroke:#000000;stroke-width:0.8;" x="203.59512" xlink:href="#m471fbfe30b" y="594.72"/>
      </g>
     </g>
     <g id="text_7">
      <!-- 2020-04 -->
      <defs>
       <path d="M 4.890625 31.390625 
L 31.203125 31.390625 
L 31.203125 23.390625 
L 4.890625 23.390625 
z
" id="DejaVuSans-45"/>
       <path d="M 37.796875 64.3125 
L 12.890625 25.390625 
L 37.796875 25.390625 
z
M 35.203125 72.90625 
L 47.609375 72.90625 
L 47.609375 25.390625 
L 58.015625 25.390625 
L 58.015625 17.1875 
L 47.609375 17.1875 
L 47.609375 0 
L 37.796875 0 
L 37.796875 17.1875 
L 4.890625 17.1875 
L 4.890625 26.703125 
z
" id="DejaVuSans-52"/>
      </defs>
      <g transform="translate(114.25555 667.652431)rotate(-30)scale(0.24 -0.24)">
       <use xlink:href="#DejaVuSans-50"/>
       <use x="63.623047" xlink:href="#DejaVuSans-48"/>
       <use x="127.246094" xlink:href="#DejaVuSans-50"/>
       <use x="190.869141" xlink:href="#DejaVuSans-48"/>
       <use x="254.492188" xlink:href="#DejaVuSans-45"/>
       <use x="290.576172" xlink:href="#DejaVuSans-48"/>
       <use x="354.199219" xlink:href="#DejaVuSans-52"/>
      </g>
     </g>
    </g>
    <g id="xtick_11">
     <g id="line2d_32">
      <path clip-path="url(#p0d7b928d94)" d="M 276.290897 594.72 
L 276.290897 327.665455 
" style="fill:none;stroke:#d3d3d3;stroke-linecap:square;stroke-width:0.8;"/>
     </g>
     <g id="line2d_33">
      <g>
       <use style="stroke:#000000;stroke-width:0.8;" x="276.290897" xlink:href="#m471fbfe30b" y="594.72"/>
      </g>
     </g>
     <g id="text_8">
      <!-- 2020-07 -->
      <g transform="translate(186.951327 667.652431)rotate(-30)scale(0.24 -0.24)">
       <use xlink:href="#DejaVuSans-50"/>
       <use x="63.623047" xlink:href="#DejaVuSans-48"/>
       <use x="127.246094" xlink:href="#DejaVuSans-50"/>
       <use x="190.869141" xlink:href="#DejaVuSans-48"/>
       <use x="254.492188" xlink:href="#DejaVuSans-45"/>
       <use x="290.576172" xlink:href="#DejaVuSans-48"/>
       <use x="354.199219" xlink:href="#DejaVuSans-55"/>
      </g>
     </g>
    </g>
    <g id="xtick_12">
     <g id="line2d_34">
      <path clip-path="url(#p0d7b928d94)" d="M 349.785528 594.72 
L 349.785528 327.665455 
" style="fill:none;stroke:#d3d3d3;stroke-linecap:square;stroke-width:0.8;"/>
     </g>
     <g id="line2d_35">
      <g>
       <use style="stroke:#000000;stroke-width:0.8;" x="349.785528" xlink:href="#m471fbfe30b" y="594.72"/>
      </g>
     </g>
     <g id="text_9">
      <!-- 2020-10 -->
      <g transform="translate(260.445958 667.652431)rotate(-30)scale(0.24 -0.24)">
       <use xlink:href="#DejaVuSans-50"/>
       <use x="63.623047" xlink:href="#DejaVuSans-48"/>
       <use x="127.246094" xlink:href="#DejaVuSans-50"/>
       <use x="190.869141" xlink:href="#DejaVuSans-48"/>
       <use x="254.492188" xlink:href="#DejaVuSans-45"/>
       <use x="290.576172" xlink:href="#DejaVuSans-49"/>
       <use x="354.199219" xlink:href="#DejaVuSans-48"/>
      </g>
     </g>
    </g>
    <g id="xtick_13">
     <g id="line2d_36">
      <path clip-path="url(#p0d7b928d94)" d="M 423.280159 594.72 
L 423.280159 327.665455 
" style="fill:none;stroke:#d3d3d3;stroke-linecap:square;stroke-width:0.8;"/>
     </g>
     <g id="line2d_37">
      <g>
       <use style="stroke:#000000;stroke-width:0.8;" x="423.280159" xlink:href="#m471fbfe30b" y="594.72"/>
      </g>
     </g>
     <g id="text_10">
      <!-- 2021-01 -->
      <g transform="translate(333.940589 667.652431)rotate(-30)scale(0.24 -0.24)">
       <use xlink:href="#DejaVuSans-50"/>
       <use x="63.623047" xlink:href="#DejaVuSans-48"/>
       <use x="127.246094" xlink:href="#DejaVuSans-50"/>
       <use x="190.869141" xlink:href="#DejaVuSans-49"/>
       <use x="254.492188" xlink:href="#DejaVuSans-45"/>
       <use x="290.576172" xlink:href="#DejaVuSans-48"/>
       <use x="354.199219" xlink:href="#DejaVuSans-49"/>
      </g>
     </g>
    </g>
    <g id="xtick_14">
     <g id="line2d_38">
      <path clip-path="url(#p0d7b928d94)" d="M 495.177081 594.72 
L 495.177081 327.665455 
" style="fill:none;stroke:#d3d3d3;stroke-linecap:square;stroke-width:0.8;"/>
     </g>
     <g id="line2d_39">
      <g>
       <use style="stroke:#000000;stroke-width:0.8;" x="495.177081" xlink:href="#m471fbfe30b" y="594.72"/>
      </g>
     </g>
     <g id="text_11">
      <!-- 2021-04 -->
      <g transform="translate(405.837511 667.652431)rotate(-30)scale(0.24 -0.24)">
       <use xlink:href="#DejaVuSans-50"/>
       <use x="63.623047" xlink:href="#DejaVuSans-48"/>
       <use x="127.246094" xlink:href="#DejaVuSans-50"/>
       <use x="190.869141" xlink:href="#DejaVuSans-49"/>
       <use x="254.492188" xlink:href="#DejaVuSans-45"/>
       <use x="290.576172" xlink:href="#DejaVuSans-48"/>
       <use x="354.199219" xlink:href="#DejaVuSans-52"/>
      </g>
     </g>
    </g>
    <g id="xtick_15">
     <g id="line2d_40">
      <path clip-path="url(#p0d7b928d94)" d="M 567.872858 594.72 
L 567.872858 327.665455 
" style="fill:none;stroke:#d3d3d3;stroke-linecap:square;stroke-width:0.8;"/>
     </g>
     <g id="line2d_41">
      <g>
       <use style="stroke:#000000;stroke-width:0.8;" x="567.872858" xlink:href="#m471fbfe30b" y="594.72"/>
      </g>
     </g>
     <g id="text_12">
      <!-- 2021-07 -->
      <g transform="translate(478.533288 667.652431)rotate(-30)scale(0.24 -0.24)">
       <use xlink:href="#DejaVuSans-50"/>
       <use x="63.623047" xlink:href="#DejaVuSans-48"/>
       <use x="127.246094" xlink:href="#DejaVuSans-50"/>
       <use x="190.869141" xlink:href="#DejaVuSans-49"/>
       <use x="254.492188" xlink:href="#DejaVuSans-45"/>
       <use x="290.576172" xlink:href="#DejaVuSans-48"/>
       <use x="354.199219" xlink:href="#DejaVuSans-55"/>
      </g>
     </g>
    </g>
    <g id="xtick_16">
     <g id="line2d_42">
      <path clip-path="url(#p0d7b928d94)" d="M 641.367489 594.72 
L 641.367489 327.665455 
" style="fill:none;stroke:#d3d3d3;stroke-linecap:square;stroke-width:0.8;"/>
     </g>
     <g id="line2d_43">
      <g>
       <use style="stroke:#000000;stroke-width:0.8;" x="641.367489" xlink:href="#m471fbfe30b" y="594.72"/>
      </g>
     </g>
     <g id="text_13">
      <!-- 2021-10 -->
      <g transform="translate(552.027919 667.652431)rotate(-30)scale(0.24 -0.24)">
       <use xlink:href="#DejaVuSans-50"/>
       <use x="63.623047" xlink:href="#DejaVuSans-48"/>
       <use x="127.246094" xlink:href="#DejaVuSans-50"/>
       <use x="190.869141" xlink:href="#DejaVuSans-49"/>
       <use x="254.492188" xlink:href="#DejaVuSans-45"/>
       <use x="290.576172" xlink:href="#DejaVuSans-49"/>
       <use x="354.199219" xlink:href="#DejaVuSans-48"/>
      </g>
     </g>
    </g>
    <g id="xtick_17">
     <g id="line2d_44">
      <path clip-path="url(#p0d7b928d94)" d="M 714.862121 594.72 
L 714.862121 327.665455 
" style="fill:none;stroke:#d3d3d3;stroke-linecap:square;stroke-width:0.8;"/>
     </g>
     <g id="line2d_45">
      <g>
       <use style="stroke:#000000;stroke-width:0.8;" x="714.862121" xlink:href="#m471fbfe30b" y="594.72"/>
      </g>
     </g>
     <g id="text_14">
      <!-- 2022-01 -->
      <g transform="translate(625.522551 667.652431)rotate(-30)scale(0.24 -0.24)">
       <use xlink:href="#DejaVuSans-50"/>
       <use x="63.623047" xlink:href="#DejaVuSans-48"/>
       <use x="127.246094" xlink:href="#DejaVuSans-50"/>
       <use x="190.869141" xlink:href="#DejaVuSans-50"/>
       <use x="254.492188" xlink:href="#DejaVuSans-45"/>
       <use x="290.576172" xlink:href="#DejaVuSans-48"/>
       <use x="354.199219" xlink:href="#DejaVuSans-49"/>
      </g>
     </g>
    </g>
    <g id="xtick_18">
     <g id="line2d_46">
      <path clip-path="url(#p0d7b928d94)" d="M 786.759043 594.72 
L 786.759043 327.665455 
" style="fill:none;stroke:#d3d3d3;stroke-linecap:square;stroke-width:0.8;"/>
     </g>
     <g id="line2d_47">
      <g>
       <use style="stroke:#000000;stroke-width:0.8;" x="786.759043" xlink:href="#m471fbfe30b" y="594.72"/>
      </g>
     </g>
     <g id="text_15">
      <!-- 2022-04 -->
      <g transform="translate(697.419473 667.652431)rotate(-30)scale(0.24 -0.24)">
       <use xlink:href="#DejaVuSans-50"/>
       <use x="63.623047" xlink:href="#DejaVuSans-48"/>
       <use x="127.246094" xlink:href="#DejaVuSans-50"/>
       <use x="190.869141" xlink:href="#DejaVuSans-50"/>
       <use x="254.492188" xlink:href="#DejaVuSans-45"/>
       <use x="290.576172" xlink:href="#DejaVuSans-48"/>
       <use x="354.199219" xlink:href="#DejaVuSans-52"/>
      </g>
     </g>
    </g>
   </g>
   <g id="matplotlib.axis_4">
    <g id="ytick_6">
     <g id="line2d_48">
      <path clip-path="url(#p0d7b928d94)" d="M 163.5725 594.72 
L 833.1725 594.72 
" style="fill:none;stroke:#d3d3d3;stroke-linecap:square;stroke-width:0.8;"/>
     </g>
     <g id="line2d_49">
      <g>
       <use style="stroke:#000000;stroke-width:0.8;" x="163.5725" xlink:href="#m21493925c0" y="594.72"/>
      </g>
     </g>
     <g id="text_16">
      <!-- 0 -->
      <g transform="translate(141.3025 603.838125)scale(0.24 -0.24)">
       <use xlink:href="#DejaVuSans-48"/>
      </g>
     </g>
    </g>
    <g id="ytick_7">
     <g id="line2d_50">
      <path clip-path="url(#p0d7b928d94)" d="M 163.5725 528.985762 
L 833.1725 528.985762 
" style="fill:none;stroke:#d3d3d3;stroke-linecap:square;stroke-width:0.8;"/>
     </g>
     <g id="line2d_51">
      <g>
       <use style="stroke:#000000;stroke-width:0.8;" x="163.5725" xlink:href="#m21493925c0" y="528.985762"/>
      </g>
     </g>
     <g id="text_17">
      <!-- 5,000 -->
      <g transform="translate(87.865 538.103887)scale(0.24 -0.24)">
       <use xlink:href="#DejaVuSans-53"/>
       <use x="63.623047" xlink:href="#DejaVuSans-44"/>
       <use x="95.410156" xlink:href="#DejaVuSans-48"/>
       <use x="159.033203" xlink:href="#DejaVuSans-48"/>
       <use x="222.65625" xlink:href="#DejaVuSans-48"/>
      </g>
     </g>
    </g>
    <g id="ytick_8">
     <g id="line2d_52">
      <path clip-path="url(#p0d7b928d94)" d="M 163.5725 463.251524 
L 833.1725 463.251524 
" style="fill:none;stroke:#d3d3d3;stroke-linecap:square;stroke-width:0.8;"/>
     </g>
     <g id="line2d_53">
      <g>
       <use style="stroke:#000000;stroke-width:0.8;" x="163.5725" xlink:href="#m21493925c0" y="463.251524"/>
      </g>
     </g>
     <g id="text_18">
      <!-- 10,000 -->
      <g transform="translate(72.595 472.369649)scale(0.24 -0.24)">
       <use xlink:href="#DejaVuSans-49"/>
       <use x="63.623047" xlink:href="#DejaVuSans-48"/>
       <use x="127.246094" xlink:href="#DejaVuSans-44"/>
       <use x="159.033203" xlink:href="#DejaVuSans-48"/>
       <use x="222.65625" xlink:href="#DejaVuSans-48"/>
       <use x="286.279297" xlink:href="#DejaVuSans-48"/>
      </g>
     </g>
    </g>
    <g id="ytick_9">
     <g id="line2d_54">
      <path clip-path="url(#p0d7b928d94)" d="M 163.5725 397.517285 
L 833.1725 397.517285 
" style="fill:none;stroke:#d3d3d3;stroke-linecap:square;stroke-width:0.8;"/>
     </g>
     <g id="line2d_55">
      <g>
       <use style="stroke:#000000;stroke-width:0.8;" x="163.5725" xlink:href="#m21493925c0" y="397.517285"/>
      </g>
     </g>
     <g id="text_19">
      <!-- 15,000 -->
      <g transform="translate(72.595 406.63541)scale(0.24 -0.24)">
       <use xlink:href="#DejaVuSans-49"/>
       <use x="63.623047" xlink:href="#DejaVuSans-53"/>
       <use x="127.246094" xlink:href="#DejaVuSans-44"/>
       <use x="159.033203" xlink:href="#DejaVuSans-48"/>
       <use x="222.65625" xlink:href="#DejaVuSans-48"/>
       <use x="286.279297" xlink:href="#DejaVuSans-48"/>
      </g>
     </g>
    </g>
    <g id="ytick_10">
     <g id="line2d_56">
      <path clip-path="url(#p0d7b928d94)" d="M 163.5725 331.783047 
L 833.1725 331.783047 
" style="fill:none;stroke:#d3d3d3;stroke-linecap:square;stroke-width:0.8;"/>
     </g>
     <g id="line2d_57">
      <g>
       <use style="stroke:#000000;stroke-width:0.8;" x="163.5725" xlink:href="#m21493925c0" y="331.783047"/>
      </g>
     </g>
     <g id="text_20">
      <!-- 20,000 -->
      <g transform="translate(72.595 340.901172)scale(0.24 -0.24)">
       <use xlink:href="#DejaVuSans-50"/>
       <use x="63.623047" xlink:href="#DejaVuSans-48"/>
       <use x="127.246094" xlink:href="#DejaVuSans-44"/>
       <use x="159.033203" xlink:href="#DejaVuSans-48"/>
       <use x="222.65625" xlink:href="#DejaVuSans-48"/>
       <use x="286.279297" xlink:href="#DejaVuSans-48"/>
      </g>
     </g>
    </g>
    <g id="text_21">
     <!-- Preprints -->
     <defs>
      <path d="M 19.671875 64.796875 
L 19.671875 37.40625 
L 32.078125 37.40625 
Q 38.96875 37.40625 42.71875 40.96875 
Q 46.484375 44.53125 46.484375 51.125 
Q 46.484375 57.671875 42.71875 61.234375 
Q 38.96875 64.796875 32.078125 64.796875 
z
M 9.8125 72.90625 
L 32.078125 72.90625 
Q 44.34375 72.90625 50.609375 67.359375 
Q 56.890625 61.8125 56.890625 51.125 
Q 56.890625 40.328125 50.609375 34.8125 
Q 44.34375 29.296875 32.078125 29.296875 
L 19.671875 29.296875 
L 19.671875 0 
L 9.8125 0 
z
" id="DejaVuSans-80"/>
      <path d="M 56.203125 29.59375 
L 56.203125 25.203125 
L 14.890625 25.203125 
Q 15.484375 15.921875 20.484375 11.0625 
Q 25.484375 6.203125 34.421875 6.203125 
Q 39.59375 6.203125 44.453125 7.46875 
Q 49.3125 8.734375 54.109375 11.28125 
L 54.109375 2.78125 
Q 49.265625 0.734375 44.1875 -0.34375 
Q 39.109375 -1.421875 33.890625 -1.421875 
Q 20.796875 -1.421875 13.15625 6.1875 
Q 5.515625 13.8125 5.515625 26.8125 
Q 5.515625 40.234375 12.765625 48.109375 
Q 20.015625 56 32.328125 56 
Q 43.359375 56 49.78125 48.890625 
Q 56.203125 41.796875 56.203125 29.59375 
z
M 47.21875 32.234375 
Q 47.125 39.59375 43.09375 43.984375 
Q 39.0625 48.390625 32.421875 48.390625 
Q 24.90625 48.390625 20.390625 44.140625 
Q 15.875 39.890625 15.1875 32.171875 
z
" id="DejaVuSans-101"/>
     </defs>
     <g transform="translate(63.60375 515.185227)rotate(-90)scale(0.24 -0.24)">
      <use xlink:href="#DejaVuSans-80"/>
      <use x="60.287109" xlink:href="#DejaVuSans-114"/>
      <use x="101.369141" xlink:href="#DejaVuSans-101"/>
      <use x="162.892578" xlink:href="#DejaVuSans-112"/>
      <use x="226.369141" xlink:href="#DejaVuSans-114"/>
      <use x="267.482422" xlink:href="#DejaVuSans-105"/>
      <use x="295.265625" xlink:href="#DejaVuSans-110"/>
      <use x="358.644531" xlink:href="#DejaVuSans-116"/>
      <use x="397.853516" xlink:href="#DejaVuSans-115"/>
     </g>
    </g>
   </g>
   <g id="line2d_58">
    <path clip-path="url(#p0d7b928d94)" d="M 194.008864 592.208952 
L 199.600846 590.894267 
L 205.192829 589.264058 
L 210.784812 587.344618 
L 221.968778 584.018466 
L 227.560761 581.928117 
L 236.348162 579.311895 
L 241.940145 577.313574 
L 250.727547 574.500148 
L 252.325256 574.237211 
L 253.922965 573.579869 
L 256.319529 572.817352 
L 257.917239 572.462387 
L 259.514948 571.765604 
L 260.313803 571.542108 
L 261.112657 571.108262 
L 261.911512 570.832178 
L 263.509222 570.621828 
L 265.106931 569.859311 
L 266.70464 569.359731 
L 267.503495 569.096794 
L 269.101204 568.912738 
L 269.900059 568.689242 
L 270.698914 568.281689 
L 273.894332 567.374557 
L 276.290897 566.848683 
L 278.687461 566.007285 
L 280.28517 565.65232 
L 281.882879 564.994977 
L 283.480589 564.48225 
L 284.279443 564.219313 
L 287.474862 563.535677 
L 288.273717 563.207006 
L 292.26799 562.089524 
L 293.8657 561.56365 
L 294.664554 561.234979 
L 297.859973 560.459315 
L 299.457683 559.85456 
L 301.055392 559.197218 
L 302.653101 558.842253 
L 305.84852 557.711624 
L 306.647375 557.474981 
L 308.245084 557.356659 
L 309.842793 556.817638 
L 312.239358 556.094562 
L 315.434776 555.489807 
L 318.630195 554.740436 
L 320.227904 554.398618 
L 323.423323 553.294283 
L 327.417597 552.55806 
L 332.210725 551.309109 
L 333.808434 550.717501 
L 339.400417 549.455404 
L 340.998126 549.126732 
L 341.796981 549.034704 
L 344.193545 548.167013 
L 347.388964 547.50967 
L 351.383237 546.536803 
L 352.980947 546.352748 
L 356.176365 545.274706 
L 356.97522 544.972329 
L 358.572929 544.656804 
L 360.170639 544.170371 
L 360.969494 544.065196 
L 361.768348 543.736525 
L 364.963767 543.000301 
L 365.762622 542.605896 
L 367.360331 542.106316 
L 368.159186 541.817085 
L 369.756895 541.554148 
L 374.550023 539.713589 
L 375.348878 539.568974 
L 376.147733 539.266597 
L 378.544297 538.714429 
L 379.343151 538.451492 
L 380.940861 538.162261 
L 384.935134 537.08422 
L 387.331698 536.545199 
L 388.929408 536.032472 
L 389.728262 535.822123 
L 391.325972 535.532892 
L 392.124826 535.506598 
L 392.923681 535.151633 
L 396.1191 534.402263 
L 396.917955 534.283941 
L 400.113373 533.468837 
L 401.711083 532.850935 
L 403.308792 532.666879 
L 405.705356 531.720306 
L 407.303065 531.24702 
L 408.10192 531.102404 
L 413.693903 529.629957 
L 414.492758 529.57737 
L 415.291612 529.32758 
L 416.090467 528.933174 
L 417.688176 528.394154 
L 420.084741 528.104923 
L 423.280159 527.289818 
L 426.475578 526.711357 
L 427.274433 526.395833 
L 432.067561 525.317791 
L 433.66527 524.726183 
L 436.061834 524.160869 
L 436.860689 524.055694 
L 437.659544 523.819051 
L 439.257253 523.109121 
L 442.452672 522.543806 
L 444.050381 522.031079 
L 444.849236 521.873317 
L 445.648091 521.465765 
L 446.446945 521.215975 
L 448.044655 520.939891 
L 453.636637 519.44115 
L 459.22862 517.705767 
L 470.412586 514.616257 
L 476.004569 512.867727 
L 492.780517 508.529267 
L 498.3725 507.201435 
L 520.740431 501.153885 
L 531.924397 498.235285 
L 543.108363 494.909133 
L 554.292328 491.017666 
L 571.068277 486.021864 
L 576.660259 484.641445 
L 582.252242 483.050676 
L 587.844225 481.683404 
L 593.436208 480.184663 
L 599.028191 478.396692 
L 607.016738 476.266903 
L 610.212156 475.031099 
L 615.804139 473.558652 
L 621.396122 471.889003 
L 632.580088 468.339354 
L 638.172071 466.906347 
L 649.356036 463.106908 
L 654.948019 461.358378 
L 660.540002 459.925371 
L 666.131985 458.229428 
L 671.723967 456.349429 
L 688.499916 451.748032 
L 699.683882 448.803138 
L 705.275864 446.831111 
L 716.45983 444.569853 
L 744.419744 437.102444 
L 765.189966 430.81825 
L 768.385385 430.055733 
L 791.552171 423.561191 
L 802.736136 421.036996 
L 802.736136 421.036996 
" style="fill:none;stroke:#1f77b4;stroke-linecap:square;stroke-width:5;"/>
   </g>
   <g id="line2d_59">
    <path clip-path="url(#p0d7b928d94)" d="M 194.008864 587.015947 
L 199.600846 584.912452 
L 205.192829 581.560006 
L 210.784812 578.693993 
L 216.376795 574.973435 
L 221.968778 570.345744 
L 227.560761 566.243928 
L 236.348162 558.027148 
L 241.940145 553.951625 
L 247.532128 549.153026 
L 248.330982 546.996943 
L 249.129837 546.497363 
L 249.928692 546.30016 
L 250.727547 545.498202 
L 251.526401 544.893447 
L 252.325256 544.880301 
L 253.124111 544.59107 
L 253.922965 543.526175 
L 254.72182 542.711071 
L 255.520675 542.395546 
L 256.319529 541.21233 
L 257.118384 541.159743 
L 258.716093 540.265757 
L 259.514948 539.319184 
L 260.313803 539.29289 
L 261.112657 538.911632 
L 261.911512 537.439185 
L 262.710367 537.268276 
L 263.509222 536.887017 
L 264.308076 536.847577 
L 265.106931 535.887857 
L 265.905786 535.427717 
L 266.70464 535.112193 
L 268.30235 533.692333 
L 269.101204 533.66604 
L 269.900059 533.232194 
L 270.698914 532.338208 
L 271.497768 531.943803 
L 272.296623 531.825481 
L 273.095478 531.049817 
L 273.894332 531.03667 
L 274.693187 530.681705 
L 275.492042 529.840307 
L 276.290897 529.564223 
L 278.687461 528.459888 
L 279.486315 527.881427 
L 280.28517 527.749958 
L 281.084025 527.394993 
L 281.882879 526.711357 
L 282.681734 526.303805 
L 283.480589 526.15919 
L 284.279443 525.725344 
L 285.078298 524.936533 
L 286.676008 524.897092 
L 287.474862 524.055694 
L 288.273717 523.648142 
L 291.469136 521.794436 
L 292.26799 521.557793 
L 293.066845 521.137094 
L 293.8657 520.900451 
L 294.664554 520.847863 
L 295.463409 519.822409 
L 297.859973 518.507724 
L 298.658828 518.244787 
L 299.457683 517.44283 
L 300.256537 516.903809 
L 301.055392 516.7329 
L 301.854247 516.312201 
L 302.653101 516.101851 
L 303.451956 516.088704 
L 304.250811 514.747726 
L 305.049665 514.695138 
L 306.647375 513.590803 
L 309.043939 513.551363 
L 309.842793 512.867727 
L 311.440503 512.262972 
L 312.239358 511.119196 
L 313.038212 510.737937 
L 314.635922 510.238357 
L 315.434776 509.93598 
L 317.032486 509.72563 
L 318.630195 508.489826 
L 319.42905 508.318917 
L 320.227904 507.990246 
L 321.026759 507.451225 
L 321.825614 507.09626 
L 323.423323 507.043673 
L 325.819887 506.452065 
L 326.618742 505.295142 
L 327.417597 504.38801 
L 332.210725 502.652626 
L 333.808434 501.627172 
L 337.802708 500.01011 
L 339.400417 499.904935 
L 340.199272 498.34046 
L 341.796981 498.235285 
L 342.595836 498.143257 
L 343.39469 497.709411 
L 344.193545 496.841719 
L 344.9924 496.710251 
L 345.791254 496.092349 
L 346.590109 496.092349 
L 347.388964 495.803118 
L 349.785528 494.488434 
L 351.383237 494.146616 
L 352.182092 494.146616 
L 352.980947 493.909972 
L 353.779801 493.515567 
L 354.578656 492.989693 
L 356.97522 492.647875 
L 357.774075 492.647875 
L 358.572929 492.516406 
L 360.170639 491.780183 
L 360.969494 491.070253 
L 362.567203 490.741582 
L 363.366058 490.741582 
L 364.164912 490.557526 
L 364.963767 490.544379 
L 365.762622 489.83445 
L 366.561476 489.282282 
L 367.360331 489.203401 
L 368.159186 488.730114 
L 368.95804 488.730114 
L 370.55575 488.362003 
L 371.354605 487.139346 
L 372.153459 487.047318 
L 375.348878 486.547738 
L 376.147733 486.508297 
L 376.946587 485.772074 
L 377.745442 484.720326 
L 378.544297 484.523123 
L 379.343151 484.115571 
L 380.142006 483.852634 
L 380.940861 483.82634 
L 383.337425 483.353054 
L 384.13628 482.853473 
L 384.935134 482.222425 
L 386.532844 482.090956 
L 387.331698 481.459908 
L 388.130553 481.354733 
L 388.929408 480.579069 
L 391.325972 480.118929 
L 392.124826 479.987461 
L 392.923681 479.527321 
L 395.320245 479.001447 
L 396.917955 478.48872 
L 398.515664 477.27921 
L 400.912228 476.464105 
L 401.711083 475.806763 
L 403.308792 475.780469 
L 404.107647 475.215155 
L 405.705356 474.715575 
L 406.504211 474.702428 
L 407.303065 473.808442 
L 408.10192 473.782149 
L 411.297339 472.546345 
L 412.096194 472.388583 
L 413.693903 471.704947 
L 414.492758 471.560331 
L 415.291612 471.547184 
L 416.090467 470.534877 
L 416.889322 470.390262 
L 417.688176 469.903829 
L 420.883595 469.509423 
L 421.68245 469.496276 
L 422.481305 469.325367 
L 423.280159 469.31222 
L 424.877869 468.891521 
L 425.676723 468.878374 
L 426.475578 467.958095 
L 427.274433 467.747746 
L 428.073287 467.274459 
L 428.872142 467.248165 
L 429.670997 466.695998 
L 430.469851 466.433061 
L 431.268706 466.406767 
L 432.866416 465.999215 
L 433.66527 465.578516 
L 434.464125 465.539075 
L 435.26298 464.447887 
L 436.860689 464.342712 
L 438.458398 464.303271 
L 439.257253 463.251524 
L 440.056108 463.185789 
L 440.854962 462.843971 
L 442.452672 462.804531 
L 443.251526 462.344391 
L 444.050381 461.30579 
L 445.648091 461.042853 
L 446.446945 460.424951 
L 447.2458 460.359217 
L 448.044655 460.069986 
L 453.636637 457.519498 
L 459.22862 455.429149 
L 464.820603 452.904955 
L 470.412586 450.88034 
L 476.004569 448.329852 
L 487.188534 442.91335 
L 492.780517 439.389995 
L 498.3725 437.851814 
L 509.556466 433.539648 
L 515.148448 430.791957 
L 520.740431 428.478112 
L 526.332414 426.519231 
L 531.924397 424.363148 
L 537.51638 421.904688 
L 554.292328 416.054341 
L 559.884311 414.634481 
L 565.476294 412.202314 
L 571.068277 410.374902 
L 576.660259 407.482596 
L 582.252242 405.852387 
L 587.844225 402.973227 
L 593.436208 401.172109 
L 599.028191 399.489313 
L 607.016738 397.346376 
L 610.212156 396.767915 
L 615.804139 394.809035 
L 621.396122 393.310294 
L 632.580088 390.61519 
L 638.172071 388.169877 
L 649.356036 384.73855 
L 654.948019 383.410718 
L 660.540002 381.85939 
L 666.131985 379.808482 
L 671.723967 378.809321 
L 677.31595 376.942469 
L 688.499916 373.984428 
L 699.683882 370.526807 
L 705.275864 368.344431 
L 738.827761 358.063596 
L 744.419744 356.038981 
L 765.189966 350.136047 
L 768.385385 349.360383 
L 785.960188 344.640664 
L 791.552171 342.747518 
L 802.736136 340.262764 
L 802.736136 340.262764 
" style="fill:none;stroke:#ff7f0e;stroke-linecap:square;stroke-width:5;"/>
   </g>
   <g id="line2d_60">
    <path clip-path="url(#p0d7b928d94)" d="M 194.008864 591.893428 
L 199.600846 591.354407 
L 210.784812 589.908254 
L 227.560761 586.950213 
L 236.348162 585.188535 
L 241.940145 583.650354 
L 249.129837 582.151614 
L 250.727547 581.533712 
L 259.514948 580.20588 
L 262.710367 579.390776 
L 263.509222 579.298748 
L 265.106931 578.74658 
L 267.503495 578.03665 
L 269.101204 577.773713 
L 270.698914 577.431895 
L 273.095478 576.840287 
L 274.693187 576.735112 
L 275.492042 576.498469 
L 276.290897 576.064623 
L 277.888606 575.565043 
L 280.28517 575.36784 
L 281.882879 574.933994 
L 283.480589 574.605323 
L 284.279443 574.381827 
L 286.676008 574.11889 
L 288.273717 573.645603 
L 291.469136 573.238051 
L 293.066845 572.830499 
L 294.664554 572.475534 
L 295.463409 572.212597 
L 297.061118 572.067982 
L 299.457683 571.410639 
L 301.055392 571.029381 
L 302.653101 570.911059 
L 305.049665 570.332598 
L 306.647375 570.003926 
L 308.245084 570.003926 
L 309.842793 569.451759 
L 317.032486 567.953018 
L 318.630195 567.663788 
L 319.42905 567.57176 
L 321.026759 567.256235 
L 323.423323 566.664627 
L 327.417597 565.941551 
L 332.210725 565.073859 
L 333.808434 564.574278 
L 338.601562 563.680293 
L 340.199272 563.351622 
L 341.796981 563.220153 
L 343.39469 562.812601 
L 344.9924 562.52337 
L 345.791254 562.286727 
L 347.388964 562.234139 
L 351.383237 561.471622 
L 353.779801 561.340154 
L 356.176365 560.801133 
L 356.97522 560.590784 
L 358.572929 560.498756 
L 361.768348 559.749385 
L 362.567203 559.460155 
L 364.164912 559.368127 
L 365.762622 558.986868 
L 371.354605 558.092882 
L 373.751169 557.527568 
L 375.348878 557.369806 
L 376.946587 556.93596 
L 377.745442 556.870226 
L 379.343151 556.344352 
L 380.940861 556.212883 
L 381.739715 555.949946 
L 388.130553 554.635262 
L 388.929408 554.424912 
L 389.728262 554.372325 
L 395.320245 553.504633 
L 396.917955 553.294283 
L 398.515664 553.083934 
L 401.711083 552.387151 
L 403.308792 552.268829 
L 407.303065 551.585193 
L 408.10192 551.545752 
L 415.291612 550.467711 
L 417.688176 549.941837 
L 420.883595 549.6789 
L 422.481305 549.350229 
L 425.676723 549.166173 
L 430.469851 548.364215 
L 431.268706 548.351068 
L 432.067561 548.140719 
L 433.66527 547.904076 
L 435.26298 547.588551 
L 436.860689 547.535964 
L 437.659544 547.338761 
L 438.458398 547.023237 
L 444.050381 546.129251 
L 444.849236 545.787433 
L 447.2458 545.34044 
L 448.044655 545.314147 
L 453.636637 544.275546 
L 459.22862 543.539322 
L 476.004569 540.594428 
L 492.780517 537.202542 
L 498.3725 536.33485 
L 504.763338 535.151633 
L 509.556466 534.678347 
L 515.148448 533.902683 
L 526.332414 531.628278 
L 531.924397 530.629118 
L 543.108363 528.210098 
L 559.884311 525.462407 
L 571.068277 523.950519 
L 576.660259 522.898771 
L 582.252242 522.057373 
L 587.844225 521.07136 
L 593.436208 520.440311 
L 610.212156 517.298214 
L 638.172071 512.460174 
L 649.356036 510.711644 
L 666.131985 508.424092 
L 671.723967 507.451225 
L 677.31595 506.609827 
L 688.499916 505.071646 
L 699.683882 503.244234 
L 705.275864 502.047871 
L 716.45983 499.931229 
L 744.419744 495.080042 
L 765.189966 491.0834 
L 768.385385 490.728435 
L 785.960188 488.072772 
L 802.736136 485.929836 
L 802.736136 485.929836 
" style="fill:none;stroke:#2ca02c;stroke-linecap:square;stroke-width:5;"/>
   </g>
   <g id="patch_6">
    <path d="M 163.5725 594.72 
L 163.5725 327.665455 
" style="fill:none;stroke:#000000;stroke-linecap:square;stroke-linejoin:miter;stroke-width:0.8;"/>
   </g>
   <g id="patch_7">
    <path d="M 163.5725 594.72 
L 833.1725 594.72 
" style="fill:none;stroke:#000000;stroke-linecap:square;stroke-linejoin:miter;stroke-width:0.8;"/>
   </g>
   <g id="legend_1">
    <g id="patch_8">
     <path d="M 180.3725 452.547955 
L 362.3075 452.547955 
Q 367.1075 452.547955 367.1075 447.747955 
L 367.1075 344.465455 
Q 367.1075 339.665455 362.3075 339.665455 
L 180.3725 339.665455 
Q 175.5725 339.665455 175.5725 344.465455 
L 175.5725 447.747955 
Q 175.5725 452.547955 180.3725 452.547955 
z
" style="fill:#ffffff;opacity:0.8;stroke:#cccccc;stroke-linejoin:miter;"/>
    </g>
    <g id="line2d_61">
     <path d="M 185.1725 359.101705 
L 233.1725 359.101705 
" style="fill:none;stroke:#1f77b4;stroke-linecap:square;stroke-width:5;"/>
    </g>
    <g id="line2d_62"/>
    <g id="text_22">
     <!-- arXiv -->
     <defs>
      <path d="M 6.296875 72.90625 
L 16.890625 72.90625 
L 35.015625 45.796875 
L 53.21875 72.90625 
L 63.8125 72.90625 
L 40.375 37.890625 
L 65.375 0 
L 54.78125 0 
L 34.28125 31 
L 13.625 0 
L 2.984375 0 
L 29 38.921875 
z
" id="DejaVuSans-88"/>
      <path d="M 2.984375 54.6875 
L 12.5 54.6875 
L 29.59375 8.796875 
L 46.6875 54.6875 
L 56.203125 54.6875 
L 35.6875 0 
L 23.484375 0 
z
" id="DejaVuSans-118"/>
     </defs>
     <g transform="translate(252.3725 367.501705)scale(0.24 -0.24)">
      <use xlink:href="#DejaVuSans-97"/>
      <use x="61.279297" xlink:href="#DejaVuSans-114"/>
      <use x="102.392578" xlink:href="#DejaVuSans-88"/>
      <use x="170.898438" xlink:href="#DejaVuSans-105"/>
      <use x="198.681641" xlink:href="#DejaVuSans-118"/>
     </g>
    </g>
    <g id="line2d_63">
     <path d="M 185.1725 394.329205 
L 233.1725 394.329205 
" style="fill:none;stroke:#ff7f0e;stroke-linecap:square;stroke-width:5;"/>
    </g>
    <g id="line2d_64"/>
    <g id="text_23">
     <!-- medRxiv -->
     <defs>
      <path d="M 45.40625 46.390625 
L 45.40625 75.984375 
L 54.390625 75.984375 
L 54.390625 0 
L 45.40625 0 
L 45.40625 8.203125 
Q 42.578125 3.328125 38.25 0.953125 
Q 33.9375 -1.421875 27.875 -1.421875 
Q 17.96875 -1.421875 11.734375 6.484375 
Q 5.515625 14.40625 5.515625 27.296875 
Q 5.515625 40.1875 11.734375 48.09375 
Q 17.96875 56 27.875 56 
Q 33.9375 56 38.25 53.625 
Q 42.578125 51.265625 45.40625 46.390625 
z
M 14.796875 27.296875 
Q 14.796875 17.390625 18.875 11.75 
Q 22.953125 6.109375 30.078125 6.109375 
Q 37.203125 6.109375 41.296875 11.75 
Q 45.40625 17.390625 45.40625 27.296875 
Q 45.40625 37.203125 41.296875 42.84375 
Q 37.203125 48.484375 30.078125 48.484375 
Q 22.953125 48.484375 18.875 42.84375 
Q 14.796875 37.203125 14.796875 27.296875 
z
" id="DejaVuSans-100"/>
      <path d="M 44.390625 34.1875 
Q 47.5625 33.109375 50.5625 29.59375 
Q 53.5625 26.078125 56.59375 19.921875 
L 66.609375 0 
L 56 0 
L 46.6875 18.703125 
Q 43.0625 26.03125 39.671875 28.421875 
Q 36.28125 30.8125 30.421875 30.8125 
L 19.671875 30.8125 
L 19.671875 0 
L 9.8125 0 
L 9.8125 72.90625 
L 32.078125 72.90625 
Q 44.578125 72.90625 50.734375 67.671875 
Q 56.890625 62.453125 56.890625 51.90625 
Q 56.890625 45.015625 53.6875 40.46875 
Q 50.484375 35.9375 44.390625 34.1875 
z
M 19.671875 64.796875 
L 19.671875 38.921875 
L 32.078125 38.921875 
Q 39.203125 38.921875 42.84375 42.21875 
Q 46.484375 45.515625 46.484375 51.90625 
Q 46.484375 58.296875 42.84375 61.546875 
Q 39.203125 64.796875 32.078125 64.796875 
z
" id="DejaVuSans-82"/>
      <path d="M 54.890625 54.6875 
L 35.109375 28.078125 
L 55.90625 0 
L 45.3125 0 
L 29.390625 21.484375 
L 13.484375 0 
L 2.875 0 
L 24.125 28.609375 
L 4.6875 54.6875 
L 15.28125 54.6875 
L 29.78125 35.203125 
L 44.28125 54.6875 
z
" id="DejaVuSans-120"/>
     </defs>
     <g transform="translate(252.3725 402.729205)scale(0.24 -0.24)">
      <use xlink:href="#DejaVuSans-109"/>
      <use x="97.412109" xlink:href="#DejaVuSans-101"/>
      <use x="158.935547" xlink:href="#DejaVuSans-100"/>
      <use x="222.412109" xlink:href="#DejaVuSans-82"/>
      <use x="291.894531" xlink:href="#DejaVuSans-120"/>
      <use x="351.074219" xlink:href="#DejaVuSans-105"/>
      <use x="378.857422" xlink:href="#DejaVuSans-118"/>
     </g>
    </g>
    <g id="line2d_65">
     <path d="M 185.1725 429.556705 
L 233.1725 429.556705 
" style="fill:none;stroke:#2ca02c;stroke-linecap:square;stroke-width:5;"/>
    </g>
    <g id="line2d_66"/>
    <g id="text_24">
     <!-- bioRxiv -->
     <defs>
      <path d="M 48.6875 27.296875 
Q 48.6875 37.203125 44.609375 42.84375 
Q 40.53125 48.484375 33.40625 48.484375 
Q 26.265625 48.484375 22.1875 42.84375 
Q 18.109375 37.203125 18.109375 27.296875 
Q 18.109375 17.390625 22.1875 11.75 
Q 26.265625 6.109375 33.40625 6.109375 
Q 40.53125 6.109375 44.609375 11.75 
Q 48.6875 17.390625 48.6875 27.296875 
z
M 18.109375 46.390625 
Q 20.953125 51.265625 25.265625 53.625 
Q 29.59375 56 35.59375 56 
Q 45.5625 56 51.78125 48.09375 
Q 58.015625 40.1875 58.015625 27.296875 
Q 58.015625 14.40625 51.78125 6.484375 
Q 45.5625 -1.421875 35.59375 -1.421875 
Q 29.59375 -1.421875 25.265625 0.953125 
Q 20.953125 3.328125 18.109375 8.203125 
L 18.109375 0 
L 9.078125 0 
L 9.078125 75.984375 
L 18.109375 75.984375 
z
" id="DejaVuSans-98"/>
     </defs>
     <g transform="translate(252.3725 437.956705)scale(0.24 -0.24)">
      <use xlink:href="#DejaVuSans-98"/>
      <use x="63.476562" xlink:href="#DejaVuSans-105"/>
      <use x="91.259766" xlink:href="#DejaVuSans-111"/>
      <use x="152.441406" xlink:href="#DejaVuSans-82"/>
      <use x="221.923828" xlink:href="#DejaVuSans-120"/>
      <use x="281.103516" xlink:href="#DejaVuSans-105"/>
      <use x="308.886719" xlink:href="#DejaVuSans-118"/>
     </g>
    </g>
   </g>
  </g>
 </g>
 <defs>
  <clipPath id="pff35d92031">
   <rect height="267.054545" width="669.6" x="163.5725" y="7.2"/>
  </clipPath>
  <clipPath id="p0d7b928d94">
   <rect height="267.054545" width="669.6" x="163.5725" y="327.665455"/>
  </clipPath>
 </defs>
</svg>
