<?xml version="1.0" encoding="utf-8" standalone="no"?>
<!DOCTYPE svg PUBLIC "-//W3C//DTD SVG 1.1//EN"
  "http://www.w3.org/Graphics/SVG/1.1/DTD/svg11.dtd">
<!-- Created with matplotlib (https://matplotlib.org/) -->
<svg height="651.452533pt" version="1.1" viewBox="0 0 1212.84375 651.452533" width="1212.84375pt" xmlns="http://www.w3.org/2000/svg" xmlns:xlink="http://www.w3.org/1999/xlink">
 <defs>
  <style type="text/css">
*{stroke-linecap:butt;stroke-linejoin:round;}
  </style>
 </defs>
 <g id="figure_1">
  <g id="patch_1">
   <path d="M 0 651.452533 
L 1212.84375 651.452533 
L 1212.84375 0 
L 0 0 
z
" style="fill:#ffffff;"/>
  </g>
  <g id="axes_1">
   <g id="patch_2">
    <path d="M 89.64375 596.270462 
L 596.916477 596.270462 
L 596.916477 8.750462 
L 89.64375 8.750462 
z
" style="fill:#ffffff;"/>
   </g>
   <g id="matplotlib.axis_1">
    <g id="xtick_1">
     <g id="line2d_1">
      <path clip-path="url(#pf2e35d38ed)" d="M 96.106936 596.270462 
L 96.106936 8.750462 
" style="fill:none;stroke:#d3d3d3;stroke-linecap:square;stroke-width:0.8;"/>
     </g>
     <g id="line2d_2">
      <defs>
       <path d="M 0 0 
L 0 3.5 
" id="m92eefa56e2" style="stroke:#000000;stroke-width:0.8;"/>
      </defs>
      <g>
       <use style="stroke:#000000;stroke-width:0.8;" x="96.106936" xlink:href="#m92eefa56e2" y="596.270462"/>
      </g>
     </g>
     <g id="text_1">
      <!-- 2020-03 -->
      <defs>
       <path d="M 19.1875 8.296875 
L 53.609375 8.296875 
L 53.609375 0 
L 7.328125 0 
L 7.328125 8.296875 
Q 12.9375 14.109375 22.625 23.890625 
Q 32.328125 33.6875 34.8125 36.53125 
Q 39.546875 41.84375 41.421875 45.53125 
Q 43.3125 49.21875 43.3125 52.78125 
Q 43.3125 58.59375 39.234375 62.25 
Q 35.15625 65.921875 28.609375 65.921875 
Q 23.96875 65.921875 18.8125 64.3125 
Q 13.671875 62.703125 7.8125 59.421875 
L 7.8125 69.390625 
Q 13.765625 71.78125 18.9375 73 
Q 24.125 74.21875 28.421875 74.21875 
Q 39.75 74.21875 46.484375 68.546875 
Q 53.21875 62.890625 53.21875 53.421875 
Q 53.21875 48.921875 51.53125 44.890625 
Q 49.859375 40.875 45.40625 35.40625 
Q 44.1875 33.984375 37.640625 27.21875 
Q 31.109375 20.453125 19.1875 8.296875 
z
" id="DejaVuSans-50"/>
       <path d="M 31.78125 66.40625 
Q 24.171875 66.40625 20.328125 58.90625 
Q 16.5 51.421875 16.5 36.375 
Q 16.5 21.390625 20.328125 13.890625 
Q 24.171875 6.390625 31.78125 6.390625 
Q 39.453125 6.390625 43.28125 13.890625 
Q 47.125 21.390625 47.125 36.375 
Q 47.125 51.421875 43.28125 58.90625 
Q 39.453125 66.40625 31.78125 66.40625 
z
M 31.78125 74.21875 
Q 44.046875 74.21875 50.515625 64.515625 
Q 56.984375 54.828125 56.984375 36.375 
Q 56.984375 17.96875 50.515625 8.265625 
Q 44.046875 -1.421875 31.78125 -1.421875 
Q 19.53125 -1.421875 13.0625 8.265625 
Q 6.59375 17.96875 6.59375 36.375 
Q 6.59375 54.828125 13.0625 64.515625 
Q 19.53125 74.21875 31.78125 74.21875 
z
" id="DejaVuSans-48"/>
       <path d="M 4.890625 31.390625 
L 31.203125 31.390625 
L 31.203125 23.390625 
L 4.890625 23.390625 
z
" id="DejaVuSans-45"/>
       <path d="M 40.578125 39.3125 
Q 47.65625 37.796875 51.625 33 
Q 55.609375 28.21875 55.609375 21.1875 
Q 55.609375 10.40625 48.1875 4.484375 
Q 40.765625 -1.421875 27.09375 -1.421875 
Q 22.515625 -1.421875 17.65625 -0.515625 
Q 12.796875 0.390625 7.625 2.203125 
L 7.625 11.71875 
Q 11.71875 9.328125 16.59375 8.109375 
Q 21.484375 6.890625 26.8125 6.890625 
Q 36.078125 6.890625 40.9375 10.546875 
Q 45.796875 14.203125 45.796875 21.1875 
Q 45.796875 27.640625 41.28125 31.265625 
Q 36.765625 34.90625 28.71875 34.90625 
L 20.21875 34.90625 
L 20.21875 43.015625 
L 29.109375 43.015625 
Q 36.375 43.015625 40.234375 45.921875 
Q 44.09375 48.828125 44.09375 54.296875 
Q 44.09375 59.90625 40.109375 62.90625 
Q 36.140625 65.921875 28.71875 65.921875 
Q 24.65625 65.921875 20.015625 65.03125 
Q 15.375 64.15625 9.8125 62.3125 
L 9.8125 71.09375 
Q 15.4375 72.65625 20.34375 73.4375 
Q 25.25 74.21875 29.59375 74.21875 
Q 40.828125 74.21875 47.359375 69.109375 
Q 53.90625 64.015625 53.90625 55.328125 
Q 53.90625 49.265625 50.4375 45.09375 
Q 46.96875 40.921875 40.578125 39.3125 
z
" id="DejaVuSans-51"/>
      </defs>
      <g transform="translate(43.992186 641.731046)rotate(-30)scale(0.14 -0.14)">
       <use xlink:href="#DejaVuSans-50"/>
       <use x="63.623047" xlink:href="#DejaVuSans-48"/>
       <use x="127.246094" xlink:href="#DejaVuSans-50"/>
       <use x="190.869141" xlink:href="#DejaVuSans-48"/>
       <use x="254.492188" xlink:href="#DejaVuSans-45"/>
       <use x="290.576172" xlink:href="#DejaVuSans-48"/>
       <use x="354.199219" xlink:href="#DejaVuSans-51"/>
      </g>
     </g>
    </g>
    <g id="xtick_2">
     <g id="line2d_3">
      <path clip-path="url(#pf2e35d38ed)" d="M 149.384546 596.270462 
L 149.384546 8.750462 
" style="fill:none;stroke:#d3d3d3;stroke-linecap:square;stroke-width:0.8;"/>
     </g>
     <g id="line2d_4">
      <g>
       <use style="stroke:#000000;stroke-width:0.8;" x="149.384546" xlink:href="#m92eefa56e2" y="596.270462"/>
      </g>
     </g>
     <g id="text_2">
      <!-- 2020-05 -->
      <defs>
       <path d="M 10.796875 72.90625 
L 49.515625 72.90625 
L 49.515625 64.59375 
L 19.828125 64.59375 
L 19.828125 46.734375 
Q 21.96875 47.46875 24.109375 47.828125 
Q 26.265625 48.1875 28.421875 48.1875 
Q 40.625 48.1875 47.75 41.5 
Q 54.890625 34.8125 54.890625 23.390625 
Q 54.890625 11.625 47.5625 5.09375 
Q 40.234375 -1.421875 26.90625 -1.421875 
Q 22.3125 -1.421875 17.546875 -0.640625 
Q 12.796875 0.140625 7.71875 1.703125 
L 7.71875 11.625 
Q 12.109375 9.234375 16.796875 8.0625 
Q 21.484375 6.890625 26.703125 6.890625 
Q 35.15625 6.890625 40.078125 11.328125 
Q 45.015625 15.765625 45.015625 23.390625 
Q 45.015625 31 40.078125 35.4375 
Q 35.15625 39.890625 26.703125 39.890625 
Q 22.75 39.890625 18.8125 39.015625 
Q 14.890625 38.140625 10.796875 36.28125 
z
" id="DejaVuSans-53"/>
      </defs>
      <g transform="translate(97.269797 641.731046)rotate(-30)scale(0.14 -0.14)">
       <use xlink:href="#DejaVuSans-50"/>
       <use x="63.623047" xlink:href="#DejaVuSans-48"/>
       <use x="127.246094" xlink:href="#DejaVuSans-50"/>
       <use x="190.869141" xlink:href="#DejaVuSans-48"/>
       <use x="254.492188" xlink:href="#DejaVuSans-45"/>
       <use x="290.576172" xlink:href="#DejaVuSans-48"/>
       <use x="354.199219" xlink:href="#DejaVuSans-53"/>
      </g>
     </g>
    </g>
    <g id="xtick_3">
     <g id="line2d_5">
      <path clip-path="url(#pf2e35d38ed)" d="M 202.662157 596.270462 
L 202.662157 8.750462 
" style="fill:none;stroke:#d3d3d3;stroke-linecap:square;stroke-width:0.8;"/>
     </g>
     <g id="line2d_6">
      <g>
       <use style="stroke:#000000;stroke-width:0.8;" x="202.662157" xlink:href="#m92eefa56e2" y="596.270462"/>
      </g>
     </g>
     <g id="text_3">
      <!-- 2020-07 -->
      <defs>
       <path d="M 8.203125 72.90625 
L 55.078125 72.90625 
L 55.078125 68.703125 
L 28.609375 0 
L 18.3125 0 
L 43.21875 64.59375 
L 8.203125 64.59375 
z
" id="DejaVuSans-55"/>
      </defs>
      <g transform="translate(150.547408 641.731046)rotate(-30)scale(0.14 -0.14)">
       <use xlink:href="#DejaVuSans-50"/>
       <use x="63.623047" xlink:href="#DejaVuSans-48"/>
       <use x="127.246094" xlink:href="#DejaVuSans-50"/>
       <use x="190.869141" xlink:href="#DejaVuSans-48"/>
       <use x="254.492188" xlink:href="#DejaVuSans-45"/>
       <use x="290.576172" xlink:href="#DejaVuSans-48"/>
       <use x="354.199219" xlink:href="#DejaVuSans-55"/>
      </g>
     </g>
    </g>
    <g id="xtick_4">
     <g id="line2d_7">
      <path clip-path="url(#pf2e35d38ed)" d="M 256.813171 596.270462 
L 256.813171 8.750462 
" style="fill:none;stroke:#d3d3d3;stroke-linecap:square;stroke-width:0.8;"/>
     </g>
     <g id="line2d_8">
      <g>
       <use style="stroke:#000000;stroke-width:0.8;" x="256.813171" xlink:href="#m92eefa56e2" y="596.270462"/>
      </g>
     </g>
     <g id="text_4">
      <!-- 2020-09 -->
      <defs>
       <path d="M 10.984375 1.515625 
L 10.984375 10.5 
Q 14.703125 8.734375 18.5 7.8125 
Q 22.3125 6.890625 25.984375 6.890625 
Q 35.75 6.890625 40.890625 13.453125 
Q 46.046875 20.015625 46.78125 33.40625 
Q 43.953125 29.203125 39.59375 26.953125 
Q 35.25 24.703125 29.984375 24.703125 
Q 19.046875 24.703125 12.671875 31.3125 
Q 6.296875 37.9375 6.296875 49.421875 
Q 6.296875 60.640625 12.9375 67.421875 
Q 19.578125 74.21875 30.609375 74.21875 
Q 43.265625 74.21875 49.921875 64.515625 
Q 56.59375 54.828125 56.59375 36.375 
Q 56.59375 19.140625 48.40625 8.859375 
Q 40.234375 -1.421875 26.421875 -1.421875 
Q 22.703125 -1.421875 18.890625 -0.6875 
Q 15.09375 0.046875 10.984375 1.515625 
z
M 30.609375 32.421875 
Q 37.25 32.421875 41.125 36.953125 
Q 45.015625 41.5 45.015625 49.421875 
Q 45.015625 57.28125 41.125 61.84375 
Q 37.25 66.40625 30.609375 66.40625 
Q 23.96875 66.40625 20.09375 61.84375 
Q 16.21875 57.28125 16.21875 49.421875 
Q 16.21875 41.5 20.09375 36.953125 
Q 23.96875 32.421875 30.609375 32.421875 
z
" id="DejaVuSans-57"/>
      </defs>
      <g transform="translate(204.698422 641.731046)rotate(-30)scale(0.14 -0.14)">
       <use xlink:href="#DejaVuSans-50"/>
       <use x="63.623047" xlink:href="#DejaVuSans-48"/>
       <use x="127.246094" xlink:href="#DejaVuSans-50"/>
       <use x="190.869141" xlink:href="#DejaVuSans-48"/>
       <use x="254.492188" xlink:href="#DejaVuSans-45"/>
       <use x="290.576172" xlink:href="#DejaVuSans-48"/>
       <use x="354.199219" xlink:href="#DejaVuSans-57"/>
      </g>
     </g>
    </g>
    <g id="xtick_5">
     <g id="line2d_9">
      <path clip-path="url(#pf2e35d38ed)" d="M 310.090782 596.270462 
L 310.090782 8.750462 
" style="fill:none;stroke:#d3d3d3;stroke-linecap:square;stroke-width:0.8;"/>
     </g>
     <g id="line2d_10">
      <g>
       <use style="stroke:#000000;stroke-width:0.8;" x="310.090782" xlink:href="#m92eefa56e2" y="596.270462"/>
      </g>
     </g>
     <g id="text_5">
      <!-- 2020-11 -->
      <defs>
       <path d="M 12.40625 8.296875 
L 28.515625 8.296875 
L 28.515625 63.921875 
L 10.984375 60.40625 
L 10.984375 69.390625 
L 28.421875 72.90625 
L 38.28125 72.90625 
L 38.28125 8.296875 
L 54.390625 8.296875 
L 54.390625 0 
L 12.40625 0 
z
" id="DejaVuSans-49"/>
      </defs>
      <g transform="translate(257.976033 641.731046)rotate(-30)scale(0.14 -0.14)">
       <use xlink:href="#DejaVuSans-50"/>
       <use x="63.623047" xlink:href="#DejaVuSans-48"/>
       <use x="127.246094" xlink:href="#DejaVuSans-50"/>
       <use x="190.869141" xlink:href="#DejaVuSans-48"/>
       <use x="254.492188" xlink:href="#DejaVuSans-45"/>
       <use x="290.576172" xlink:href="#DejaVuSans-49"/>
       <use x="354.199219" xlink:href="#DejaVuSans-49"/>
      </g>
     </g>
    </g>
    <g id="xtick_6">
     <g id="line2d_11">
      <path clip-path="url(#pf2e35d38ed)" d="M 363.368393 596.270462 
L 363.368393 8.750462 
" style="fill:none;stroke:#d3d3d3;stroke-linecap:square;stroke-width:0.8;"/>
     </g>
     <g id="line2d_12">
      <g>
       <use style="stroke:#000000;stroke-width:0.8;" x="363.368393" xlink:href="#m92eefa56e2" y="596.270462"/>
      </g>
     </g>
     <g id="text_6">
      <!-- 2021-01 -->
      <g transform="translate(311.253644 641.731046)rotate(-30)scale(0.14 -0.14)">
       <use xlink:href="#DejaVuSans-50"/>
       <use x="63.623047" xlink:href="#DejaVuSans-48"/>
       <use x="127.246094" xlink:href="#DejaVuSans-50"/>
       <use x="190.869141" xlink:href="#DejaVuSans-49"/>
       <use x="254.492188" xlink:href="#DejaVuSans-45"/>
       <use x="290.576172" xlink:href="#DejaVuSans-48"/>
       <use x="354.199219" xlink:href="#DejaVuSans-49"/>
      </g>
     </g>
    </g>
    <g id="xtick_7">
     <g id="line2d_13">
      <path clip-path="url(#pf2e35d38ed)" d="M 414.899197 596.270462 
L 414.899197 8.750462 
" style="fill:none;stroke:#d3d3d3;stroke-linecap:square;stroke-width:0.8;"/>
     </g>
     <g id="line2d_14">
      <g>
       <use style="stroke:#000000;stroke-width:0.8;" x="414.899197" xlink:href="#m92eefa56e2" y="596.270462"/>
      </g>
     </g>
     <g id="text_7">
      <!-- 2021-03 -->
      <g transform="translate(362.784448 641.731046)rotate(-30)scale(0.14 -0.14)">
       <use xlink:href="#DejaVuSans-50"/>
       <use x="63.623047" xlink:href="#DejaVuSans-48"/>
       <use x="127.246094" xlink:href="#DejaVuSans-50"/>
       <use x="190.869141" xlink:href="#DejaVuSans-49"/>
       <use x="254.492188" xlink:href="#DejaVuSans-45"/>
       <use x="290.576172" xlink:href="#DejaVuSans-48"/>
       <use x="354.199219" xlink:href="#DejaVuSans-51"/>
      </g>
     </g>
    </g>
    <g id="xtick_8">
     <g id="line2d_15">
      <path clip-path="url(#pf2e35d38ed)" d="M 468.176808 596.270462 
L 468.176808 8.750462 
" style="fill:none;stroke:#d3d3d3;stroke-linecap:square;stroke-width:0.8;"/>
     </g>
     <g id="line2d_16">
      <g>
       <use style="stroke:#000000;stroke-width:0.8;" x="468.176808" xlink:href="#m92eefa56e2" y="596.270462"/>
      </g>
     </g>
     <g id="text_8">
      <!-- 2021-05 -->
      <g transform="translate(416.062059 641.731046)rotate(-30)scale(0.14 -0.14)">
       <use xlink:href="#DejaVuSans-50"/>
       <use x="63.623047" xlink:href="#DejaVuSans-48"/>
       <use x="127.246094" xlink:href="#DejaVuSans-50"/>
       <use x="190.869141" xlink:href="#DejaVuSans-49"/>
       <use x="254.492188" xlink:href="#DejaVuSans-45"/>
       <use x="290.576172" xlink:href="#DejaVuSans-48"/>
       <use x="354.199219" xlink:href="#DejaVuSans-53"/>
      </g>
     </g>
    </g>
    <g id="xtick_9">
     <g id="line2d_17">
      <path clip-path="url(#pf2e35d38ed)" d="M 521.454419 596.270462 
L 521.454419 8.750462 
" style="fill:none;stroke:#d3d3d3;stroke-linecap:square;stroke-width:0.8;"/>
     </g>
     <g id="line2d_18">
      <g>
       <use style="stroke:#000000;stroke-width:0.8;" x="521.454419" xlink:href="#m92eefa56e2" y="596.270462"/>
      </g>
     </g>
     <g id="text_9">
      <!-- 2021-07 -->
      <g transform="translate(469.33967 641.731046)rotate(-30)scale(0.14 -0.14)">
       <use xlink:href="#DejaVuSans-50"/>
       <use x="63.623047" xlink:href="#DejaVuSans-48"/>
       <use x="127.246094" xlink:href="#DejaVuSans-50"/>
       <use x="190.869141" xlink:href="#DejaVuSans-49"/>
       <use x="254.492188" xlink:href="#DejaVuSans-45"/>
       <use x="290.576172" xlink:href="#DejaVuSans-48"/>
       <use x="354.199219" xlink:href="#DejaVuSans-55"/>
      </g>
     </g>
    </g>
    <g id="xtick_10">
     <g id="line2d_19">
      <path clip-path="url(#pf2e35d38ed)" d="M 575.605433 596.270462 
L 575.605433 8.750462 
" style="fill:none;stroke:#d3d3d3;stroke-linecap:square;stroke-width:0.8;"/>
     </g>
     <g id="line2d_20">
      <g>
       <use style="stroke:#000000;stroke-width:0.8;" x="575.605433" xlink:href="#m92eefa56e2" y="596.270462"/>
      </g>
     </g>
     <g id="text_10">
      <!-- 2021-09 -->
      <g transform="translate(523.490684 641.731046)rotate(-30)scale(0.14 -0.14)">
       <use xlink:href="#DejaVuSans-50"/>
       <use x="63.623047" xlink:href="#DejaVuSans-48"/>
       <use x="127.246094" xlink:href="#DejaVuSans-50"/>
       <use x="190.869141" xlink:href="#DejaVuSans-49"/>
       <use x="254.492188" xlink:href="#DejaVuSans-45"/>
       <use x="290.576172" xlink:href="#DejaVuSans-48"/>
       <use x="354.199219" xlink:href="#DejaVuSans-57"/>
      </g>
     </g>
    </g>
   </g>
   <g id="matplotlib.axis_2">
    <g id="ytick_1">
     <g id="line2d_21">
      <path clip-path="url(#pf2e35d38ed)" d="M 89.64375 596.270462 
L 596.916477 596.270462 
" style="fill:none;stroke:#d3d3d3;stroke-linecap:square;stroke-width:0.8;"/>
     </g>
     <g id="line2d_22">
      <defs>
       <path d="M 0 0 
L -3.5 0 
" id="m4556c747a5" style="stroke:#000000;stroke-width:0.8;"/>
      </defs>
      <g>
       <use style="stroke:#000000;stroke-width:0.8;" x="89.64375" xlink:href="#m4556c747a5" y="596.270462"/>
      </g>
     </g>
     <g id="text_11">
      <!-- 0 -->
      <g transform="translate(73.73625 601.589368)scale(0.14 -0.14)">
       <use xlink:href="#DejaVuSans-48"/>
      </g>
     </g>
    </g>
    <g id="ytick_2">
     <g id="line2d_23">
      <path clip-path="url(#pf2e35d38ed)" d="M 89.64375 523.301517 
L 596.916477 523.301517 
" style="fill:none;stroke:#d3d3d3;stroke-linecap:square;stroke-width:0.8;"/>
     </g>
     <g id="line2d_24">
      <g>
       <use style="stroke:#000000;stroke-width:0.8;" x="89.64375" xlink:href="#m4556c747a5" y="523.301517"/>
      </g>
     </g>
     <g id="text_12">
      <!-- 100,000 -->
      <defs>
       <path d="M 11.71875 12.40625 
L 22.015625 12.40625 
L 22.015625 4 
L 14.015625 -11.625 
L 7.71875 -11.625 
L 11.71875 4 
z
" id="DejaVuSans-44"/>
      </defs>
      <g transform="translate(24.749375 528.620423)scale(0.14 -0.14)">
       <use xlink:href="#DejaVuSans-49"/>
       <use x="63.623047" xlink:href="#DejaVuSans-48"/>
       <use x="127.246094" xlink:href="#DejaVuSans-48"/>
       <use x="190.869141" xlink:href="#DejaVuSans-44"/>
       <use x="222.65625" xlink:href="#DejaVuSans-48"/>
       <use x="286.279297" xlink:href="#DejaVuSans-48"/>
       <use x="349.902344" xlink:href="#DejaVuSans-48"/>
      </g>
     </g>
    </g>
    <g id="ytick_3">
     <g id="line2d_25">
      <path clip-path="url(#pf2e35d38ed)" d="M 89.64375 450.332573 
L 596.916477 450.332573 
" style="fill:none;stroke:#d3d3d3;stroke-linecap:square;stroke-width:0.8;"/>
     </g>
     <g id="line2d_26">
      <g>
       <use style="stroke:#000000;stroke-width:0.8;" x="89.64375" xlink:href="#m4556c747a5" y="450.332573"/>
      </g>
     </g>
     <g id="text_13">
      <!-- 200,000 -->
      <g transform="translate(24.749375 455.651479)scale(0.14 -0.14)">
       <use xlink:href="#DejaVuSans-50"/>
       <use x="63.623047" xlink:href="#DejaVuSans-48"/>
       <use x="127.246094" xlink:href="#DejaVuSans-48"/>
       <use x="190.869141" xlink:href="#DejaVuSans-44"/>
       <use x="222.65625" xlink:href="#DejaVuSans-48"/>
       <use x="286.279297" xlink:href="#DejaVuSans-48"/>
       <use x="349.902344" xlink:href="#DejaVuSans-48"/>
      </g>
     </g>
    </g>
    <g id="ytick_4">
     <g id="line2d_27">
      <path clip-path="url(#pf2e35d38ed)" d="M 89.64375 377.363628 
L 596.916477 377.363628 
" style="fill:none;stroke:#d3d3d3;stroke-linecap:square;stroke-width:0.8;"/>
     </g>
     <g id="line2d_28">
      <g>
       <use style="stroke:#000000;stroke-width:0.8;" x="89.64375" xlink:href="#m4556c747a5" y="377.363628"/>
      </g>
     </g>
     <g id="text_14">
      <!-- 300,000 -->
      <g transform="translate(24.749375 382.682535)scale(0.14 -0.14)">
       <use xlink:href="#DejaVuSans-51"/>
       <use x="63.623047" xlink:href="#DejaVuSans-48"/>
       <use x="127.246094" xlink:href="#DejaVuSans-48"/>
       <use x="190.869141" xlink:href="#DejaVuSans-44"/>
       <use x="222.65625" xlink:href="#DejaVuSans-48"/>
       <use x="286.279297" xlink:href="#DejaVuSans-48"/>
       <use x="349.902344" xlink:href="#DejaVuSans-48"/>
      </g>
     </g>
    </g>
    <g id="ytick_5">
     <g id="line2d_29">
      <path clip-path="url(#pf2e35d38ed)" d="M 89.64375 304.394684 
L 596.916477 304.394684 
" style="fill:none;stroke:#d3d3d3;stroke-linecap:square;stroke-width:0.8;"/>
     </g>
     <g id="line2d_30">
      <g>
       <use style="stroke:#000000;stroke-width:0.8;" x="89.64375" xlink:href="#m4556c747a5" y="304.394684"/>
      </g>
     </g>
     <g id="text_15">
      <!-- 400,000 -->
      <defs>
       <path d="M 37.796875 64.3125 
L 12.890625 25.390625 
L 37.796875 25.390625 
z
M 35.203125 72.90625 
L 47.609375 72.90625 
L 47.609375 25.390625 
L 58.015625 25.390625 
L 58.015625 17.1875 
L 47.609375 17.1875 
L 47.609375 0 
L 37.796875 0 
L 37.796875 17.1875 
L 4.890625 17.1875 
L 4.890625 26.703125 
z
" id="DejaVuSans-52"/>
      </defs>
      <g transform="translate(24.749375 309.71359)scale(0.14 -0.14)">
       <use xlink:href="#DejaVuSans-52"/>
       <use x="63.623047" xlink:href="#DejaVuSans-48"/>
       <use x="127.246094" xlink:href="#DejaVuSans-48"/>
       <use x="190.869141" xlink:href="#DejaVuSans-44"/>
       <use x="222.65625" xlink:href="#DejaVuSans-48"/>
       <use x="286.279297" xlink:href="#DejaVuSans-48"/>
       <use x="349.902344" xlink:href="#DejaVuSans-48"/>
      </g>
     </g>
    </g>
    <g id="ytick_6">
     <g id="line2d_31">
      <path clip-path="url(#pf2e35d38ed)" d="M 89.64375 231.42574 
L 596.916477 231.42574 
" style="fill:none;stroke:#d3d3d3;stroke-linecap:square;stroke-width:0.8;"/>
     </g>
     <g id="line2d_32">
      <g>
       <use style="stroke:#000000;stroke-width:0.8;" x="89.64375" xlink:href="#m4556c747a5" y="231.42574"/>
      </g>
     </g>
     <g id="text_16">
      <!-- 500,000 -->
      <g transform="translate(24.749375 236.744646)scale(0.14 -0.14)">
       <use xlink:href="#DejaVuSans-53"/>
       <use x="63.623047" xlink:href="#DejaVuSans-48"/>
       <use x="127.246094" xlink:href="#DejaVuSans-48"/>
       <use x="190.869141" xlink:href="#DejaVuSans-44"/>
       <use x="222.65625" xlink:href="#DejaVuSans-48"/>
       <use x="286.279297" xlink:href="#DejaVuSans-48"/>
       <use x="349.902344" xlink:href="#DejaVuSans-48"/>
      </g>
     </g>
    </g>
    <g id="ytick_7">
     <g id="line2d_33">
      <path clip-path="url(#pf2e35d38ed)" d="M 89.64375 158.456795 
L 596.916477 158.456795 
" style="fill:none;stroke:#d3d3d3;stroke-linecap:square;stroke-width:0.8;"/>
     </g>
     <g id="line2d_34">
      <g>
       <use style="stroke:#000000;stroke-width:0.8;" x="89.64375" xlink:href="#m4556c747a5" y="158.456795"/>
      </g>
     </g>
     <g id="text_17">
      <!-- 600,000 -->
      <defs>
       <path d="M 33.015625 40.375 
Q 26.375 40.375 22.484375 35.828125 
Q 18.609375 31.296875 18.609375 23.390625 
Q 18.609375 15.53125 22.484375 10.953125 
Q 26.375 6.390625 33.015625 6.390625 
Q 39.65625 6.390625 43.53125 10.953125 
Q 47.40625 15.53125 47.40625 23.390625 
Q 47.40625 31.296875 43.53125 35.828125 
Q 39.65625 40.375 33.015625 40.375 
z
M 52.59375 71.296875 
L 52.59375 62.3125 
Q 48.875 64.0625 45.09375 64.984375 
Q 41.3125 65.921875 37.59375 65.921875 
Q 27.828125 65.921875 22.671875 59.328125 
Q 17.53125 52.734375 16.796875 39.40625 
Q 19.671875 43.65625 24.015625 45.921875 
Q 28.375 48.1875 33.59375 48.1875 
Q 44.578125 48.1875 50.953125 41.515625 
Q 57.328125 34.859375 57.328125 23.390625 
Q 57.328125 12.15625 50.6875 5.359375 
Q 44.046875 -1.421875 33.015625 -1.421875 
Q 20.359375 -1.421875 13.671875 8.265625 
Q 6.984375 17.96875 6.984375 36.375 
Q 6.984375 53.65625 15.1875 63.9375 
Q 23.390625 74.21875 37.203125 74.21875 
Q 40.921875 74.21875 44.703125 73.484375 
Q 48.484375 72.75 52.59375 71.296875 
z
" id="DejaVuSans-54"/>
      </defs>
      <g transform="translate(24.749375 163.775701)scale(0.14 -0.14)">
       <use xlink:href="#DejaVuSans-54"/>
       <use x="63.623047" xlink:href="#DejaVuSans-48"/>
       <use x="127.246094" xlink:href="#DejaVuSans-48"/>
       <use x="190.869141" xlink:href="#DejaVuSans-44"/>
       <use x="222.65625" xlink:href="#DejaVuSans-48"/>
       <use x="286.279297" xlink:href="#DejaVuSans-48"/>
       <use x="349.902344" xlink:href="#DejaVuSans-48"/>
      </g>
     </g>
    </g>
    <g id="ytick_8">
     <g id="line2d_35">
      <path clip-path="url(#pf2e35d38ed)" d="M 89.64375 85.487851 
L 596.916477 85.487851 
" style="fill:none;stroke:#d3d3d3;stroke-linecap:square;stroke-width:0.8;"/>
     </g>
     <g id="line2d_36">
      <g>
       <use style="stroke:#000000;stroke-width:0.8;" x="89.64375" xlink:href="#m4556c747a5" y="85.487851"/>
      </g>
     </g>
     <g id="text_18">
      <!-- 700,000 -->
      <g transform="translate(24.749375 90.806757)scale(0.14 -0.14)">
       <use xlink:href="#DejaVuSans-55"/>
       <use x="63.623047" xlink:href="#DejaVuSans-48"/>
       <use x="127.246094" xlink:href="#DejaVuSans-48"/>
       <use x="190.869141" xlink:href="#DejaVuSans-44"/>
       <use x="222.65625" xlink:href="#DejaVuSans-48"/>
       <use x="286.279297" xlink:href="#DejaVuSans-48"/>
       <use x="349.902344" xlink:href="#DejaVuSans-48"/>
      </g>
     </g>
    </g>
    <g id="ytick_9">
     <g id="line2d_37">
      <path clip-path="url(#pf2e35d38ed)" d="M 89.64375 12.518906 
L 596.916477 12.518906 
" style="fill:none;stroke:#d3d3d3;stroke-linecap:square;stroke-width:0.8;"/>
     </g>
     <g id="line2d_38">
      <g>
       <use style="stroke:#000000;stroke-width:0.8;" x="89.64375" xlink:href="#m4556c747a5" y="12.518906"/>
      </g>
     </g>
     <g id="text_19">
      <!-- 800,000 -->
      <defs>
       <path d="M 31.78125 34.625 
Q 24.75 34.625 20.71875 30.859375 
Q 16.703125 27.09375 16.703125 20.515625 
Q 16.703125 13.921875 20.71875 10.15625 
Q 24.75 6.390625 31.78125 6.390625 
Q 38.8125 6.390625 42.859375 10.171875 
Q 46.921875 13.96875 46.921875 20.515625 
Q 46.921875 27.09375 42.890625 30.859375 
Q 38.875 34.625 31.78125 34.625 
z
M 21.921875 38.8125 
Q 15.578125 40.375 12.03125 44.71875 
Q 8.5 49.078125 8.5 55.328125 
Q 8.5 64.0625 14.71875 69.140625 
Q 20.953125 74.21875 31.78125 74.21875 
Q 42.671875 74.21875 48.875 69.140625 
Q 55.078125 64.0625 55.078125 55.328125 
Q 55.078125 49.078125 51.53125 44.71875 
Q 48 40.375 41.703125 38.8125 
Q 48.828125 37.15625 52.796875 32.3125 
Q 56.78125 27.484375 56.78125 20.515625 
Q 56.78125 9.90625 50.3125 4.234375 
Q 43.84375 -1.421875 31.78125 -1.421875 
Q 19.734375 -1.421875 13.25 4.234375 
Q 6.78125 9.90625 6.78125 20.515625 
Q 6.78125 27.484375 10.78125 32.3125 
Q 14.796875 37.15625 21.921875 38.8125 
z
M 18.3125 54.390625 
Q 18.3125 48.734375 21.84375 45.5625 
Q 25.390625 42.390625 31.78125 42.390625 
Q 38.140625 42.390625 41.71875 45.5625 
Q 45.3125 48.734375 45.3125 54.390625 
Q 45.3125 60.0625 41.71875 63.234375 
Q 38.140625 66.40625 31.78125 66.40625 
Q 25.390625 66.40625 21.84375 63.234375 
Q 18.3125 60.0625 18.3125 54.390625 
z
" id="DejaVuSans-56"/>
      </defs>
      <g transform="translate(24.749375 17.837813)scale(0.14 -0.14)">
       <use xlink:href="#DejaVuSans-56"/>
       <use x="63.623047" xlink:href="#DejaVuSans-48"/>
       <use x="127.246094" xlink:href="#DejaVuSans-48"/>
       <use x="190.869141" xlink:href="#DejaVuSans-44"/>
       <use x="222.65625" xlink:href="#DejaVuSans-48"/>
       <use x="286.279297" xlink:href="#DejaVuSans-48"/>
       <use x="349.902344" xlink:href="#DejaVuSans-48"/>
      </g>
     </g>
    </g>
    <g id="text_20">
     <!-- Total manuscripts -->
     <defs>
      <path d="M -0.296875 72.90625 
L 61.375 72.90625 
L 61.375 64.59375 
L 35.5 64.59375 
L 35.5 0 
L 25.59375 0 
L 25.59375 64.59375 
L -0.296875 64.59375 
z
" id="DejaVuSans-84"/>
      <path d="M 30.609375 48.390625 
Q 23.390625 48.390625 19.1875 42.75 
Q 14.984375 37.109375 14.984375 27.296875 
Q 14.984375 17.484375 19.15625 11.84375 
Q 23.34375 6.203125 30.609375 6.203125 
Q 37.796875 6.203125 41.984375 11.859375 
Q 46.1875 17.53125 46.1875 27.296875 
Q 46.1875 37.015625 41.984375 42.703125 
Q 37.796875 48.390625 30.609375 48.390625 
z
M 30.609375 56 
Q 42.328125 56 49.015625 48.375 
Q 55.71875 40.765625 55.71875 27.296875 
Q 55.71875 13.875 49.015625 6.21875 
Q 42.328125 -1.421875 30.609375 -1.421875 
Q 18.84375 -1.421875 12.171875 6.21875 
Q 5.515625 13.875 5.515625 27.296875 
Q 5.515625 40.765625 12.171875 48.375 
Q 18.84375 56 30.609375 56 
z
" id="DejaVuSans-111"/>
      <path d="M 18.3125 70.21875 
L 18.3125 54.6875 
L 36.8125 54.6875 
L 36.8125 47.703125 
L 18.3125 47.703125 
L 18.3125 18.015625 
Q 18.3125 11.328125 20.140625 9.421875 
Q 21.96875 7.515625 27.59375 7.515625 
L 36.8125 7.515625 
L 36.8125 0 
L 27.59375 0 
Q 17.1875 0 13.234375 3.875 
Q 9.28125 7.765625 9.28125 18.015625 
L 9.28125 47.703125 
L 2.6875 47.703125 
L 2.6875 54.6875 
L 9.28125 54.6875 
L 9.28125 70.21875 
z
" id="DejaVuSans-116"/>
      <path d="M 34.28125 27.484375 
Q 23.390625 27.484375 19.1875 25 
Q 14.984375 22.515625 14.984375 16.5 
Q 14.984375 11.71875 18.140625 8.90625 
Q 21.296875 6.109375 26.703125 6.109375 
Q 34.1875 6.109375 38.703125 11.40625 
Q 43.21875 16.703125 43.21875 25.484375 
L 43.21875 27.484375 
z
M 52.203125 31.203125 
L 52.203125 0 
L 43.21875 0 
L 43.21875 8.296875 
Q 40.140625 3.328125 35.546875 0.953125 
Q 30.953125 -1.421875 24.3125 -1.421875 
Q 15.921875 -1.421875 10.953125 3.296875 
Q 6 8.015625 6 15.921875 
Q 6 25.140625 12.171875 29.828125 
Q 18.359375 34.515625 30.609375 34.515625 
L 43.21875 34.515625 
L 43.21875 35.40625 
Q 43.21875 41.609375 39.140625 45 
Q 35.0625 48.390625 27.6875 48.390625 
Q 23 48.390625 18.546875 47.265625 
Q 14.109375 46.140625 10.015625 43.890625 
L 10.015625 52.203125 
Q 14.9375 54.109375 19.578125 55.046875 
Q 24.21875 56 28.609375 56 
Q 40.484375 56 46.34375 49.84375 
Q 52.203125 43.703125 52.203125 31.203125 
z
" id="DejaVuSans-97"/>
      <path d="M 9.421875 75.984375 
L 18.40625 75.984375 
L 18.40625 0 
L 9.421875 0 
z
" id="DejaVuSans-108"/>
      <path id="DejaVuSans-32"/>
      <path d="M 52 44.1875 
Q 55.375 50.25 60.0625 53.125 
Q 64.75 56 71.09375 56 
Q 79.640625 56 84.28125 50.015625 
Q 88.921875 44.046875 88.921875 33.015625 
L 88.921875 0 
L 79.890625 0 
L 79.890625 32.71875 
Q 79.890625 40.578125 77.09375 44.375 
Q 74.3125 48.1875 68.609375 48.1875 
Q 61.625 48.1875 57.5625 43.546875 
Q 53.515625 38.921875 53.515625 30.90625 
L 53.515625 0 
L 44.484375 0 
L 44.484375 32.71875 
Q 44.484375 40.625 41.703125 44.40625 
Q 38.921875 48.1875 33.109375 48.1875 
Q 26.21875 48.1875 22.15625 43.53125 
Q 18.109375 38.875 18.109375 30.90625 
L 18.109375 0 
L 9.078125 0 
L 9.078125 54.6875 
L 18.109375 54.6875 
L 18.109375 46.1875 
Q 21.1875 51.21875 25.484375 53.609375 
Q 29.78125 56 35.6875 56 
Q 41.65625 56 45.828125 52.96875 
Q 50 49.953125 52 44.1875 
z
" id="DejaVuSans-109"/>
      <path d="M 54.890625 33.015625 
L 54.890625 0 
L 45.90625 0 
L 45.90625 32.71875 
Q 45.90625 40.484375 42.875 44.328125 
Q 39.84375 48.1875 33.796875 48.1875 
Q 26.515625 48.1875 22.3125 43.546875 
Q 18.109375 38.921875 18.109375 30.90625 
L 18.109375 0 
L 9.078125 0 
L 9.078125 54.6875 
L 18.109375 54.6875 
L 18.109375 46.1875 
Q 21.34375 51.125 25.703125 53.5625 
Q 30.078125 56 35.796875 56 
Q 45.21875 56 50.046875 50.171875 
Q 54.890625 44.34375 54.890625 33.015625 
z
" id="DejaVuSans-110"/>
      <path d="M 8.5 21.578125 
L 8.5 54.6875 
L 17.484375 54.6875 
L 17.484375 21.921875 
Q 17.484375 14.15625 20.5 10.265625 
Q 23.53125 6.390625 29.59375 6.390625 
Q 36.859375 6.390625 41.078125 11.03125 
Q 45.3125 15.671875 45.3125 23.6875 
L 45.3125 54.6875 
L 54.296875 54.6875 
L 54.296875 0 
L 45.3125 0 
L 45.3125 8.40625 
Q 42.046875 3.421875 37.71875 1 
Q 33.40625 -1.421875 27.6875 -1.421875 
Q 18.265625 -1.421875 13.375 4.4375 
Q 8.5 10.296875 8.5 21.578125 
z
M 31.109375 56 
z
" id="DejaVuSans-117"/>
      <path d="M 44.28125 53.078125 
L 44.28125 44.578125 
Q 40.484375 46.53125 36.375 47.5 
Q 32.28125 48.484375 27.875 48.484375 
Q 21.1875 48.484375 17.84375 46.4375 
Q 14.5 44.390625 14.5 40.28125 
Q 14.5 37.15625 16.890625 35.375 
Q 19.28125 33.59375 26.515625 31.984375 
L 29.59375 31.296875 
Q 39.15625 29.25 43.1875 25.515625 
Q 47.21875 21.78125 47.21875 15.09375 
Q 47.21875 7.46875 41.1875 3.015625 
Q 35.15625 -1.421875 24.609375 -1.421875 
Q 20.21875 -1.421875 15.453125 -0.5625 
Q 10.6875 0.296875 5.421875 2 
L 5.421875 11.28125 
Q 10.40625 8.6875 15.234375 7.390625 
Q 20.0625 6.109375 24.8125 6.109375 
Q 31.15625 6.109375 34.5625 8.28125 
Q 37.984375 10.453125 37.984375 14.40625 
Q 37.984375 18.0625 35.515625 20.015625 
Q 33.0625 21.96875 24.703125 23.78125 
L 21.578125 24.515625 
Q 13.234375 26.265625 9.515625 29.90625 
Q 5.8125 33.546875 5.8125 39.890625 
Q 5.8125 47.609375 11.28125 51.796875 
Q 16.75 56 26.8125 56 
Q 31.78125 56 36.171875 55.265625 
Q 40.578125 54.546875 44.28125 53.078125 
z
" id="DejaVuSans-115"/>
      <path d="M 48.78125 52.59375 
L 48.78125 44.1875 
Q 44.96875 46.296875 41.140625 47.34375 
Q 37.3125 48.390625 33.40625 48.390625 
Q 24.65625 48.390625 19.8125 42.84375 
Q 14.984375 37.3125 14.984375 27.296875 
Q 14.984375 17.28125 19.8125 11.734375 
Q 24.65625 6.203125 33.40625 6.203125 
Q 37.3125 6.203125 41.140625 7.25 
Q 44.96875 8.296875 48.78125 10.40625 
L 48.78125 2.09375 
Q 45.015625 0.34375 40.984375 -0.53125 
Q 36.96875 -1.421875 32.421875 -1.421875 
Q 20.0625 -1.421875 12.78125 6.34375 
Q 5.515625 14.109375 5.515625 27.296875 
Q 5.515625 40.671875 12.859375 48.328125 
Q 20.21875 56 33.015625 56 
Q 37.15625 56 41.109375 55.140625 
Q 45.0625 54.296875 48.78125 52.59375 
z
" id="DejaVuSans-99"/>
      <path d="M 41.109375 46.296875 
Q 39.59375 47.171875 37.8125 47.578125 
Q 36.03125 48 33.890625 48 
Q 26.265625 48 22.1875 43.046875 
Q 18.109375 38.09375 18.109375 28.8125 
L 18.109375 0 
L 9.078125 0 
L 9.078125 54.6875 
L 18.109375 54.6875 
L 18.109375 46.1875 
Q 20.953125 51.171875 25.484375 53.578125 
Q 30.03125 56 36.53125 56 
Q 37.453125 56 38.578125 55.875 
Q 39.703125 55.765625 41.0625 55.515625 
z
" id="DejaVuSans-114"/>
      <path d="M 9.421875 54.6875 
L 18.40625 54.6875 
L 18.40625 0 
L 9.421875 0 
z
M 9.421875 75.984375 
L 18.40625 75.984375 
L 18.40625 64.59375 
L 9.421875 64.59375 
z
" id="DejaVuSans-105"/>
      <path d="M 18.109375 8.203125 
L 18.109375 -20.796875 
L 9.078125 -20.796875 
L 9.078125 54.6875 
L 18.109375 54.6875 
L 18.109375 46.390625 
Q 20.953125 51.265625 25.265625 53.625 
Q 29.59375 56 35.59375 56 
Q 45.5625 56 51.78125 48.09375 
Q 58.015625 40.1875 58.015625 27.296875 
Q 58.015625 14.40625 51.78125 6.484375 
Q 45.5625 -1.421875 35.59375 -1.421875 
Q 29.59375 -1.421875 25.265625 0.953125 
Q 20.953125 3.328125 18.109375 8.203125 
z
M 48.6875 27.296875 
Q 48.6875 37.203125 44.609375 42.84375 
Q 40.53125 48.484375 33.40625 48.484375 
Q 26.265625 48.484375 22.1875 42.84375 
Q 18.109375 37.203125 18.109375 27.296875 
Q 18.109375 17.390625 22.1875 11.75 
Q 26.265625 6.109375 33.40625 6.109375 
Q 40.53125 6.109375 44.609375 11.75 
Q 48.6875 17.390625 48.6875 27.296875 
z
" id="DejaVuSans-112"/>
     </defs>
     <g transform="translate(17.837813 365.386868)rotate(-90)scale(0.14 -0.14)">
      <use xlink:href="#DejaVuSans-84"/>
      <use x="60.818359" xlink:href="#DejaVuSans-111"/>
      <use x="122" xlink:href="#DejaVuSans-116"/>
      <use x="161.208984" xlink:href="#DejaVuSans-97"/>
      <use x="222.488281" xlink:href="#DejaVuSans-108"/>
      <use x="250.271484" xlink:href="#DejaVuSans-32"/>
      <use x="282.058594" xlink:href="#DejaVuSans-109"/>
      <use x="379.470703" xlink:href="#DejaVuSans-97"/>
      <use x="440.75" xlink:href="#DejaVuSans-110"/>
      <use x="504.128906" xlink:href="#DejaVuSans-117"/>
      <use x="567.507812" xlink:href="#DejaVuSans-115"/>
      <use x="619.607422" xlink:href="#DejaVuSans-99"/>
      <use x="674.587891" xlink:href="#DejaVuSans-114"/>
      <use x="715.701172" xlink:href="#DejaVuSans-105"/>
      <use x="743.484375" xlink:href="#DejaVuSans-112"/>
      <use x="806.960938" xlink:href="#DejaVuSans-116"/>
      <use x="846.169922" xlink:href="#DejaVuSans-115"/>
     </g>
    </g>
   </g>
   <g id="line2d_39">
    <path clip-path="url(#pf2e35d38ed)" d="M 112.701601 564.003594 
L 124.92925 561.75761 
L 131.043074 558.999384 
L 137.156898 558.036194 
L 143.270722 554.411097 
L 149.384546 552.57155 
L 158.991984 549.883374 
L 165.105809 502.511206 
L 171.219633 498.34176 
L 172.093036 496.983808 
L 172.96644 496.065129 
L 173.839843 494.984459 
L 174.713247 494.799118 
L 175.58665 494.148965 
L 177.333457 493.304714 
L 178.20686 497.653663 
L 179.080264 497.176446 
L 179.953667 496.972863 
L 180.827071 496.933459 
L 181.700474 496.607288 
L 182.573878 496.003105 
L 183.447281 494.993945 
L 184.320685 494.265715 
L 185.194088 493.749824 
L 186.067492 493.544782 
L 187.814298 492.336416 
L 188.687702 491.994192 
L 189.561105 489.352716 
L 190.434509 481.421721 
L 191.307912 481.18968 
L 193.054719 480.453423 
L 194.801526 480.288514 
L 195.67493 479.260381 
L 196.548333 479.460316 
L 197.421736 478.378916 
L 198.29514 476.934131 
L 199.168543 476.721792 
L 200.041947 474.06937 
L 200.91535 473.81252 
L 201.788754 473.187176 
L 202.662157 472.35387 
L 204.408964 464.814719 
L 205.282368 463.863934 
L 206.155771 463.628974 
L 207.029174 463.227645 
L 207.902578 462.634407 
L 208.775981 461.329722 
L 209.649385 460.486931 
L 210.522788 459.870343 
L 211.396192 459.606196 
L 212.269595 459.134087 
L 214.016402 457.157358 
L 214.889806 456.640738 
L 215.763209 455.798676 
L 221.877033 451.697822 
L 225.370647 450.995131 
L 226.244051 448.771767 
L 227.117454 448.050104 
L 227.990857 447.762607 
L 228.864261 446.813281 
L 231.484471 444.997813 
L 232.357875 444.790581 
L 234.104682 442.740154 
L 234.978085 442.135971 
L 235.851489 442.643835 
L 239.345102 440.693375 
L 240.218506 439.002685 
L 241.091909 438.232133 
L 241.965313 432.343539 
L 242.838716 430.914077 
L 244.585523 430.304057 
L 246.33233 428.520696 
L 247.205733 428.2062 
L 248.95254 426.045589 
L 249.825944 425.859518 
L 250.699347 425.3159 
L 253.319558 422.112563 
L 254.192961 421.874684 
L 256.813171 419.565947 
L 257.686575 418.356122 
L 258.559978 417.454955 
L 262.926996 413.727702 
L 263.800399 412.583549 
L 265.547206 411.327753 
L 268.167416 405.724468 
L 269.04082 404.716037 
L 269.914223 402.119802 
L 270.787627 402.045374 
L 271.66103 400.594021 
L 272.534434 398.572782 
L 273.407837 397.036056 
L 274.281241 396.759503 
L 275.154644 396.311474 
L 276.028048 395.408848 
L 276.901451 394.133351 
L 277.774854 392.340504 
L 279.521661 390.479796 
L 280.395065 389.97704 
L 283.015275 388.334509 
L 284.762082 387.033473 
L 285.635486 386.554067 
L 286.508889 386.239571 
L 288.255696 384.788218 
L 289.129099 382.0351 
L 290.002503 381.346273 
L 290.875906 377.494243 
L 291.74931 376.147236 
L 292.622713 375.576619 
L 295.242924 373.456871 
L 296.116327 372.453548 
L 296.98973 371.995303 
L 297.863134 370.647567 
L 298.736537 370.559274 
L 299.609941 369.458173 
L 300.483344 368.887556 
L 301.356748 367.147246 
L 302.230151 365.726541 
L 303.103555 364.848725 
L 303.976958 364.129251 
L 304.850362 363.654953 
L 306.597168 362.39186 
L 307.470572 360.988668 
L 309.217379 354.888464 
L 310.090782 353.679368 
L 310.964186 353.388952 
L 311.837589 352.931437 
L 312.710993 352.348415 
L 314.4578 348.736452 
L 316.204606 346.926093 
L 317.07801 346.629109 
L 317.951413 346.159189 
L 319.69822 344.036522 
L 320.571624 343.608924 
L 321.445027 337.592635 
L 322.318431 336.830839 
L 323.191834 336.655714 
L 324.065238 336.220819 
L 324.938641 335.280979 
L 325.812045 334.787709 
L 326.685448 334.082829 
L 328.432255 332.478242 
L 329.305658 332.027293 
L 330.179062 331.764605 
L 332.799272 328.302229 
L 333.672676 328.002327 
L 334.546079 327.293798 
L 336.292886 326.06792 
L 338.039693 324.363365 
L 338.913096 323.689862 
L 339.7865 323.360042 
L 340.659903 322.715726 
L 341.533307 322.568329 
L 342.40671 321.86199 
L 343.280114 320.952797 
L 344.153517 320.269078 
L 345.026921 319.295672 
L 345.900324 319.007445 
L 346.773727 317.662627 
L 350.267341 313.116662 
L 351.140745 311.628095 
L 352.887552 310.167987 
L 353.760955 309.916974 
L 354.634359 309.52586 
L 355.507762 308.254011 
L 356.381165 307.495864 
L 357.254569 307.465217 
L 361.621586 306.30647 
L 362.49499 304.307851 
L 363.368393 304.307851 
L 364.241797 304.104268 
L 365.988603 304.083107 
L 367.73541 303.361444 
L 368.608814 296.25062 
L 369.482217 294.91164 
L 370.355621 294.164438 
L 371.229024 292.574445 
L 372.975831 291.886347 
L 374.722638 289.914727 
L 376.469445 286.356031 
L 377.342848 285.671582 
L 378.216252 285.571615 
L 379.089655 284.626667 
L 379.963059 284.142153 
L 380.836462 283.836414 
L 381.709866 282.633885 
L 383.456673 280.633077 
L 384.330076 280.204749 
L 385.20348 280.004085 
L 386.950286 276.103165 
L 387.82369 275.849963 
L 388.697093 274.879476 
L 389.570497 274.731349 
L 390.4439 274.381098 
L 396.557724 267.629281 
L 402.671549 260.050727 
L 408.785373 255.125323 
L 414.899197 248.372047 
L 421.013021 244.398888 
L 433.24067 238.062995 
L 439.354494 232.953709 
L 445.468318 215.256551 
L 452.455546 209.789718 
L 457.695966 204.560763 
L 463.809791 199.02315 
L 469.923615 192.804737 
L 476.037439 181.920689 
L 482.151263 173.594203 
L 488.265087 167.241526 
L 494.378912 158.736996 
L 506.60656 121.295171 
L 512.720384 115.038814 
L 518.834208 107.544173 
L 524.948032 98.880571 
L 531.061857 91.851472 
L 537.175681 78.806814 
L 543.289505 71.994433 
L 549.403329 63.776671 
L 555.517153 56.079907 
L 564.251188 49.951245 
L 567.744802 42.908283 
L 573.858626 35.191087 
L 573.858626 35.191087 
" style="fill:none;stroke:#1f77b4;stroke-linecap:square;stroke-width:3;"/>
   </g>
   <g id="patch_3">
    <path d="M 89.64375 596.270462 
L 89.64375 8.750462 
" style="fill:none;stroke:#000000;stroke-linecap:square;stroke-linejoin:miter;stroke-width:0.8;"/>
   </g>
   <g id="patch_4">
    <path d="M 89.64375 596.270462 
L 596.916477 596.270462 
" style="fill:none;stroke:#000000;stroke-linecap:square;stroke-linejoin:miter;stroke-width:0.8;"/>
   </g>
  </g>
  <g id="axes_2">
   <g id="patch_5">
    <path d="M 698.371023 596.270462 
L 1205.64375 596.270462 
L 1205.64375 8.750462 
L 698.371023 8.750462 
z
" style="fill:#ffffff;"/>
   </g>
   <g id="matplotlib.axis_3">
    <g id="xtick_11">
     <g id="line2d_40">
      <path clip-path="url(#pe080e51588)" d="M 704.834208 596.270462 
L 704.834208 8.750462 
" style="fill:none;stroke:#d3d3d3;stroke-linecap:square;stroke-width:0.8;"/>
     </g>
     <g id="line2d_41">
      <g>
       <use style="stroke:#000000;stroke-width:0.8;" x="704.834208" xlink:href="#m92eefa56e2" y="596.270462"/>
      </g>
     </g>
     <g id="text_21">
      <!-- 2020-03 -->
      <g transform="translate(652.719459 641.731046)rotate(-30)scale(0.14 -0.14)">
       <use xlink:href="#DejaVuSans-50"/>
       <use x="63.623047" xlink:href="#DejaVuSans-48"/>
       <use x="127.246094" xlink:href="#DejaVuSans-50"/>
       <use x="190.869141" xlink:href="#DejaVuSans-48"/>
       <use x="254.492188" xlink:href="#DejaVuSans-45"/>
       <use x="290.576172" xlink:href="#DejaVuSans-48"/>
       <use x="354.199219" xlink:href="#DejaVuSans-51"/>
      </g>
     </g>
    </g>
    <g id="xtick_12">
     <g id="line2d_42">
      <path clip-path="url(#pe080e51588)" d="M 758.111819 596.270462 
L 758.111819 8.750462 
" style="fill:none;stroke:#d3d3d3;stroke-linecap:square;stroke-width:0.8;"/>
     </g>
     <g id="line2d_43">
      <g>
       <use style="stroke:#000000;stroke-width:0.8;" x="758.111819" xlink:href="#m92eefa56e2" y="596.270462"/>
      </g>
     </g>
     <g id="text_22">
      <!-- 2020-05 -->
      <g transform="translate(705.99707 641.731046)rotate(-30)scale(0.14 -0.14)">
       <use xlink:href="#DejaVuSans-50"/>
       <use x="63.623047" xlink:href="#DejaVuSans-48"/>
       <use x="127.246094" xlink:href="#DejaVuSans-50"/>
       <use x="190.869141" xlink:href="#DejaVuSans-48"/>
       <use x="254.492188" xlink:href="#DejaVuSans-45"/>
       <use x="290.576172" xlink:href="#DejaVuSans-48"/>
       <use x="354.199219" xlink:href="#DejaVuSans-53"/>
      </g>
     </g>
    </g>
    <g id="xtick_13">
     <g id="line2d_44">
      <path clip-path="url(#pe080e51588)" d="M 811.38943 596.270462 
L 811.38943 8.750462 
" style="fill:none;stroke:#d3d3d3;stroke-linecap:square;stroke-width:0.8;"/>
     </g>
     <g id="line2d_45">
      <g>
       <use style="stroke:#000000;stroke-width:0.8;" x="811.38943" xlink:href="#m92eefa56e2" y="596.270462"/>
      </g>
     </g>
     <g id="text_23">
      <!-- 2020-07 -->
      <g transform="translate(759.274681 641.731046)rotate(-30)scale(0.14 -0.14)">
       <use xlink:href="#DejaVuSans-50"/>
       <use x="63.623047" xlink:href="#DejaVuSans-48"/>
       <use x="127.246094" xlink:href="#DejaVuSans-50"/>
       <use x="190.869141" xlink:href="#DejaVuSans-48"/>
       <use x="254.492188" xlink:href="#DejaVuSans-45"/>
       <use x="290.576172" xlink:href="#DejaVuSans-48"/>
       <use x="354.199219" xlink:href="#DejaVuSans-55"/>
      </g>
     </g>
    </g>
    <g id="xtick_14">
     <g id="line2d_46">
      <path clip-path="url(#pe080e51588)" d="M 865.540444 596.270462 
L 865.540444 8.750462 
" style="fill:none;stroke:#d3d3d3;stroke-linecap:square;stroke-width:0.8;"/>
     </g>
     <g id="line2d_47">
      <g>
       <use style="stroke:#000000;stroke-width:0.8;" x="865.540444" xlink:href="#m92eefa56e2" y="596.270462"/>
      </g>
     </g>
     <g id="text_24">
      <!-- 2020-09 -->
      <g transform="translate(813.425695 641.731046)rotate(-30)scale(0.14 -0.14)">
       <use xlink:href="#DejaVuSans-50"/>
       <use x="63.623047" xlink:href="#DejaVuSans-48"/>
       <use x="127.246094" xlink:href="#DejaVuSans-50"/>
       <use x="190.869141" xlink:href="#DejaVuSans-48"/>
       <use x="254.492188" xlink:href="#DejaVuSans-45"/>
       <use x="290.576172" xlink:href="#DejaVuSans-48"/>
       <use x="354.199219" xlink:href="#DejaVuSans-57"/>
      </g>
     </g>
    </g>
    <g id="xtick_15">
     <g id="line2d_48">
      <path clip-path="url(#pe080e51588)" d="M 918.818055 596.270462 
L 918.818055 8.750462 
" style="fill:none;stroke:#d3d3d3;stroke-linecap:square;stroke-width:0.8;"/>
     </g>
     <g id="line2d_49">
      <g>
       <use style="stroke:#000000;stroke-width:0.8;" x="918.818055" xlink:href="#m92eefa56e2" y="596.270462"/>
      </g>
     </g>
     <g id="text_25">
      <!-- 2020-11 -->
      <g transform="translate(866.703306 641.731046)rotate(-30)scale(0.14 -0.14)">
       <use xlink:href="#DejaVuSans-50"/>
       <use x="63.623047" xlink:href="#DejaVuSans-48"/>
       <use x="127.246094" xlink:href="#DejaVuSans-50"/>
       <use x="190.869141" xlink:href="#DejaVuSans-48"/>
       <use x="254.492188" xlink:href="#DejaVuSans-45"/>
       <use x="290.576172" xlink:href="#DejaVuSans-49"/>
       <use x="354.199219" xlink:href="#DejaVuSans-49"/>
      </g>
     </g>
    </g>
    <g id="xtick_16">
     <g id="line2d_50">
      <path clip-path="url(#pe080e51588)" d="M 972.095666 596.270462 
L 972.095666 8.750462 
" style="fill:none;stroke:#d3d3d3;stroke-linecap:square;stroke-width:0.8;"/>
     </g>
     <g id="line2d_51">
      <g>
       <use style="stroke:#000000;stroke-width:0.8;" x="972.095666" xlink:href="#m92eefa56e2" y="596.270462"/>
      </g>
     </g>
     <g id="text_26">
      <!-- 2021-01 -->
      <g transform="translate(919.980917 641.731046)rotate(-30)scale(0.14 -0.14)">
       <use xlink:href="#DejaVuSans-50"/>
       <use x="63.623047" xlink:href="#DejaVuSans-48"/>
       <use x="127.246094" xlink:href="#DejaVuSans-50"/>
       <use x="190.869141" xlink:href="#DejaVuSans-49"/>
       <use x="254.492188" xlink:href="#DejaVuSans-45"/>
       <use x="290.576172" xlink:href="#DejaVuSans-48"/>
       <use x="354.199219" xlink:href="#DejaVuSans-49"/>
      </g>
     </g>
    </g>
    <g id="xtick_17">
     <g id="line2d_52">
      <path clip-path="url(#pe080e51588)" d="M 1023.62647 596.270462 
L 1023.62647 8.750462 
" style="fill:none;stroke:#d3d3d3;stroke-linecap:square;stroke-width:0.8;"/>
     </g>
     <g id="line2d_53">
      <g>
       <use style="stroke:#000000;stroke-width:0.8;" x="1023.62647" xlink:href="#m92eefa56e2" y="596.270462"/>
      </g>
     </g>
     <g id="text_27">
      <!-- 2021-03 -->
      <g transform="translate(971.511721 641.731046)rotate(-30)scale(0.14 -0.14)">
       <use xlink:href="#DejaVuSans-50"/>
       <use x="63.623047" xlink:href="#DejaVuSans-48"/>
       <use x="127.246094" xlink:href="#DejaVuSans-50"/>
       <use x="190.869141" xlink:href="#DejaVuSans-49"/>
       <use x="254.492188" xlink:href="#DejaVuSans-45"/>
       <use x="290.576172" xlink:href="#DejaVuSans-48"/>
       <use x="354.199219" xlink:href="#DejaVuSans-51"/>
      </g>
     </g>
    </g>
    <g id="xtick_18">
     <g id="line2d_54">
      <path clip-path="url(#pe080e51588)" d="M 1076.904081 596.270462 
L 1076.904081 8.750462 
" style="fill:none;stroke:#d3d3d3;stroke-linecap:square;stroke-width:0.8;"/>
     </g>
     <g id="line2d_55">
      <g>
       <use style="stroke:#000000;stroke-width:0.8;" x="1076.904081" xlink:href="#m92eefa56e2" y="596.270462"/>
      </g>
     </g>
     <g id="text_28">
      <!-- 2021-05 -->
      <g transform="translate(1024.789331 641.731046)rotate(-30)scale(0.14 -0.14)">
       <use xlink:href="#DejaVuSans-50"/>
       <use x="63.623047" xlink:href="#DejaVuSans-48"/>
       <use x="127.246094" xlink:href="#DejaVuSans-50"/>
       <use x="190.869141" xlink:href="#DejaVuSans-49"/>
       <use x="254.492188" xlink:href="#DejaVuSans-45"/>
       <use x="290.576172" xlink:href="#DejaVuSans-48"/>
       <use x="354.199219" xlink:href="#DejaVuSans-53"/>
      </g>
     </g>
    </g>
    <g id="xtick_19">
     <g id="line2d_56">
      <path clip-path="url(#pe080e51588)" d="M 1130.181691 596.270462 
L 1130.181691 8.750462 
" style="fill:none;stroke:#d3d3d3;stroke-linecap:square;stroke-width:0.8;"/>
     </g>
     <g id="line2d_57">
      <g>
       <use style="stroke:#000000;stroke-width:0.8;" x="1130.181691" xlink:href="#m92eefa56e2" y="596.270462"/>
      </g>
     </g>
     <g id="text_29">
      <!-- 2021-07 -->
      <g transform="translate(1078.066942 641.731046)rotate(-30)scale(0.14 -0.14)">
       <use xlink:href="#DejaVuSans-50"/>
       <use x="63.623047" xlink:href="#DejaVuSans-48"/>
       <use x="127.246094" xlink:href="#DejaVuSans-50"/>
       <use x="190.869141" xlink:href="#DejaVuSans-49"/>
       <use x="254.492188" xlink:href="#DejaVuSans-45"/>
       <use x="290.576172" xlink:href="#DejaVuSans-48"/>
       <use x="354.199219" xlink:href="#DejaVuSans-55"/>
      </g>
     </g>
    </g>
    <g id="xtick_20">
     <g id="line2d_58">
      <path clip-path="url(#pe080e51588)" d="M 1184.332706 596.270462 
L 1184.332706 8.750462 
" style="fill:none;stroke:#d3d3d3;stroke-linecap:square;stroke-width:0.8;"/>
     </g>
     <g id="line2d_59">
      <g>
       <use style="stroke:#000000;stroke-width:0.8;" x="1184.332706" xlink:href="#m92eefa56e2" y="596.270462"/>
      </g>
     </g>
     <g id="text_30">
      <!-- 2021-09 -->
      <g transform="translate(1132.217957 641.731046)rotate(-30)scale(0.14 -0.14)">
       <use xlink:href="#DejaVuSans-50"/>
       <use x="63.623047" xlink:href="#DejaVuSans-48"/>
       <use x="127.246094" xlink:href="#DejaVuSans-50"/>
       <use x="190.869141" xlink:href="#DejaVuSans-49"/>
       <use x="254.492188" xlink:href="#DejaVuSans-45"/>
       <use x="290.576172" xlink:href="#DejaVuSans-48"/>
       <use x="354.199219" xlink:href="#DejaVuSans-57"/>
      </g>
     </g>
    </g>
   </g>
   <g id="matplotlib.axis_4">
    <g id="ytick_10">
     <g id="line2d_60">
      <path clip-path="url(#pe080e51588)" d="M 698.371023 596.270462 
L 1205.64375 596.270462 
" style="fill:none;stroke:#d3d3d3;stroke-linecap:square;stroke-width:0.8;"/>
     </g>
     <g id="line2d_61">
      <g>
       <use style="stroke:#000000;stroke-width:0.8;" x="698.371023" xlink:href="#m4556c747a5" y="596.270462"/>
      </g>
     </g>
     <g id="text_31">
      <!-- 0 -->
      <g transform="translate(682.463523 601.589368)scale(0.14 -0.14)">
       <use xlink:href="#DejaVuSans-48"/>
      </g>
     </g>
    </g>
    <g id="ytick_11">
     <g id="line2d_62">
      <path clip-path="url(#pe080e51588)" d="M 698.371023 522.371828 
L 1205.64375 522.371828 
" style="fill:none;stroke:#d3d3d3;stroke-linecap:square;stroke-width:0.8;"/>
     </g>
     <g id="line2d_63">
      <g>
       <use style="stroke:#000000;stroke-width:0.8;" x="698.371023" xlink:href="#m4556c747a5" y="522.371828"/>
      </g>
     </g>
     <g id="text_32">
      <!-- 2,000 -->
      <g transform="translate(651.291648 527.690734)scale(0.14 -0.14)">
       <use xlink:href="#DejaVuSans-50"/>
       <use x="63.623047" xlink:href="#DejaVuSans-44"/>
       <use x="95.410156" xlink:href="#DejaVuSans-48"/>
       <use x="159.033203" xlink:href="#DejaVuSans-48"/>
       <use x="222.65625" xlink:href="#DejaVuSans-48"/>
      </g>
     </g>
    </g>
    <g id="ytick_12">
     <g id="line2d_64">
      <path clip-path="url(#pe080e51588)" d="M 698.371023 448.473195 
L 1205.64375 448.473195 
" style="fill:none;stroke:#d3d3d3;stroke-linecap:square;stroke-width:0.8;"/>
     </g>
     <g id="line2d_65">
      <g>
       <use style="stroke:#000000;stroke-width:0.8;" x="698.371023" xlink:href="#m4556c747a5" y="448.473195"/>
      </g>
     </g>
     <g id="text_33">
      <!-- 4,000 -->
      <g transform="translate(651.291648 453.792101)scale(0.14 -0.14)">
       <use xlink:href="#DejaVuSans-52"/>
       <use x="63.623047" xlink:href="#DejaVuSans-44"/>
       <use x="95.410156" xlink:href="#DejaVuSans-48"/>
       <use x="159.033203" xlink:href="#DejaVuSans-48"/>
       <use x="222.65625" xlink:href="#DejaVuSans-48"/>
      </g>
     </g>
    </g>
    <g id="ytick_13">
     <g id="line2d_66">
      <path clip-path="url(#pe080e51588)" d="M 698.371023 374.574561 
L 1205.64375 374.574561 
" style="fill:none;stroke:#d3d3d3;stroke-linecap:square;stroke-width:0.8;"/>
     </g>
     <g id="line2d_67">
      <g>
       <use style="stroke:#000000;stroke-width:0.8;" x="698.371023" xlink:href="#m4556c747a5" y="374.574561"/>
      </g>
     </g>
     <g id="text_34">
      <!-- 6,000 -->
      <g transform="translate(651.291648 379.893468)scale(0.14 -0.14)">
       <use xlink:href="#DejaVuSans-54"/>
       <use x="63.623047" xlink:href="#DejaVuSans-44"/>
       <use x="95.410156" xlink:href="#DejaVuSans-48"/>
       <use x="159.033203" xlink:href="#DejaVuSans-48"/>
       <use x="222.65625" xlink:href="#DejaVuSans-48"/>
      </g>
     </g>
    </g>
    <g id="ytick_14">
     <g id="line2d_68">
      <path clip-path="url(#pe080e51588)" d="M 698.371023 300.675928 
L 1205.64375 300.675928 
" style="fill:none;stroke:#d3d3d3;stroke-linecap:square;stroke-width:0.8;"/>
     </g>
     <g id="line2d_69">
      <g>
       <use style="stroke:#000000;stroke-width:0.8;" x="698.371023" xlink:href="#m4556c747a5" y="300.675928"/>
      </g>
     </g>
     <g id="text_35">
      <!-- 8,000 -->
      <g transform="translate(651.291648 305.994834)scale(0.14 -0.14)">
       <use xlink:href="#DejaVuSans-56"/>
       <use x="63.623047" xlink:href="#DejaVuSans-44"/>
       <use x="95.410156" xlink:href="#DejaVuSans-48"/>
       <use x="159.033203" xlink:href="#DejaVuSans-48"/>
       <use x="222.65625" xlink:href="#DejaVuSans-48"/>
      </g>
     </g>
    </g>
    <g id="ytick_15">
     <g id="line2d_70">
      <path clip-path="url(#pe080e51588)" d="M 698.371023 226.777295 
L 1205.64375 226.777295 
" style="fill:none;stroke:#d3d3d3;stroke-linecap:square;stroke-width:0.8;"/>
     </g>
     <g id="line2d_71">
      <g>
       <use style="stroke:#000000;stroke-width:0.8;" x="698.371023" xlink:href="#m4556c747a5" y="226.777295"/>
      </g>
     </g>
     <g id="text_36">
      <!-- 10,000 -->
      <g transform="translate(642.384148 232.096201)scale(0.14 -0.14)">
       <use xlink:href="#DejaVuSans-49"/>
       <use x="63.623047" xlink:href="#DejaVuSans-48"/>
       <use x="127.246094" xlink:href="#DejaVuSans-44"/>
       <use x="159.033203" xlink:href="#DejaVuSans-48"/>
       <use x="222.65625" xlink:href="#DejaVuSans-48"/>
       <use x="286.279297" xlink:href="#DejaVuSans-48"/>
      </g>
     </g>
    </g>
    <g id="ytick_16">
     <g id="line2d_72">
      <path clip-path="url(#pe080e51588)" d="M 698.371023 152.878661 
L 1205.64375 152.878661 
" style="fill:none;stroke:#d3d3d3;stroke-linecap:square;stroke-width:0.8;"/>
     </g>
     <g id="line2d_73">
      <g>
       <use style="stroke:#000000;stroke-width:0.8;" x="698.371023" xlink:href="#m4556c747a5" y="152.878661"/>
      </g>
     </g>
     <g id="text_37">
      <!-- 12,000 -->
      <g transform="translate(642.384148 158.197567)scale(0.14 -0.14)">
       <use xlink:href="#DejaVuSans-49"/>
       <use x="63.623047" xlink:href="#DejaVuSans-50"/>
       <use x="127.246094" xlink:href="#DejaVuSans-44"/>
       <use x="159.033203" xlink:href="#DejaVuSans-48"/>
       <use x="222.65625" xlink:href="#DejaVuSans-48"/>
       <use x="286.279297" xlink:href="#DejaVuSans-48"/>
      </g>
     </g>
    </g>
    <g id="ytick_17">
     <g id="line2d_74">
      <path clip-path="url(#pe080e51588)" d="M 698.371023 78.980028 
L 1205.64375 78.980028 
" style="fill:none;stroke:#d3d3d3;stroke-linecap:square;stroke-width:0.8;"/>
     </g>
     <g id="line2d_75">
      <g>
       <use style="stroke:#000000;stroke-width:0.8;" x="698.371023" xlink:href="#m4556c747a5" y="78.980028"/>
      </g>
     </g>
     <g id="text_38">
      <!-- 14,000 -->
      <g transform="translate(642.384148 84.298934)scale(0.14 -0.14)">
       <use xlink:href="#DejaVuSans-49"/>
       <use x="63.623047" xlink:href="#DejaVuSans-52"/>
       <use x="127.246094" xlink:href="#DejaVuSans-44"/>
       <use x="159.033203" xlink:href="#DejaVuSans-48"/>
       <use x="222.65625" xlink:href="#DejaVuSans-48"/>
       <use x="286.279297" xlink:href="#DejaVuSans-48"/>
      </g>
     </g>
    </g>
    <g id="text_39">
     <!-- Preprints -->
     <defs>
      <path d="M 19.671875 64.796875 
L 19.671875 37.40625 
L 32.078125 37.40625 
Q 38.96875 37.40625 42.71875 40.96875 
Q 46.484375 44.53125 46.484375 51.125 
Q 46.484375 57.671875 42.71875 61.234375 
Q 38.96875 64.796875 32.078125 64.796875 
z
M 9.8125 72.90625 
L 32.078125 72.90625 
Q 44.34375 72.90625 50.609375 67.359375 
Q 56.890625 61.8125 56.890625 51.125 
Q 56.890625 40.328125 50.609375 34.8125 
Q 44.34375 29.296875 32.078125 29.296875 
L 19.671875 29.296875 
L 19.671875 0 
L 9.8125 0 
z
" id="DejaVuSans-80"/>
      <path d="M 56.203125 29.59375 
L 56.203125 25.203125 
L 14.890625 25.203125 
Q 15.484375 15.921875 20.484375 11.0625 
Q 25.484375 6.203125 34.421875 6.203125 
Q 39.59375 6.203125 44.453125 7.46875 
Q 49.3125 8.734375 54.109375 11.28125 
L 54.109375 2.78125 
Q 49.265625 0.734375 44.1875 -0.34375 
Q 39.109375 -1.421875 33.890625 -1.421875 
Q 20.796875 -1.421875 13.15625 6.1875 
Q 5.515625 13.8125 5.515625 26.8125 
Q 5.515625 40.234375 12.765625 48.109375 
Q 20.015625 56 32.328125 56 
Q 43.359375 56 49.78125 48.890625 
Q 56.203125 41.796875 56.203125 29.59375 
z
M 47.21875 32.234375 
Q 47.125 39.59375 43.09375 43.984375 
Q 39.0625 48.390625 32.421875 48.390625 
Q 24.90625 48.390625 20.390625 44.140625 
Q 15.875 39.890625 15.1875 32.171875 
z
" id="DejaVuSans-101"/>
     </defs>
     <g transform="translate(635.472585 334.006087)rotate(-90)scale(0.14 -0.14)">
      <use xlink:href="#DejaVuSans-80"/>
      <use x="60.287109" xlink:href="#DejaVuSans-114"/>
      <use x="101.369141" xlink:href="#DejaVuSans-101"/>
      <use x="162.892578" xlink:href="#DejaVuSans-112"/>
      <use x="226.369141" xlink:href="#DejaVuSans-114"/>
      <use x="267.482422" xlink:href="#DejaVuSans-105"/>
      <use x="295.265625" xlink:href="#DejaVuSans-110"/>
      <use x="358.644531" xlink:href="#DejaVuSans-116"/>
      <use x="397.853516" xlink:href="#DejaVuSans-115"/>
     </g>
    </g>
   </g>
   <g id="line2d_76">
    <path clip-path="url(#pe080e51588)" d="M 721.428874 589.693483 
L 727.542698 586.035501 
L 733.656522 581.416836 
L 739.770347 576.059185 
L 751.997995 566.821856 
L 758.111819 560.873016 
L 767.719257 553.594001 
L 773.833081 547.940755 
L 783.440519 539.959703 
L 785.187326 539.257666 
L 786.06073 538.186136 
L 787.807537 536.671214 
L 788.68094 535.821379 
L 791.30115 534.269508 
L 792.174554 533.161029 
L 793.921361 531.683056 
L 794.794764 530.500678 
L 795.668168 529.687793 
L 797.414975 529.096604 
L 798.288378 527.914226 
L 799.161782 526.990493 
L 800.035185 526.436253 
L 801.781992 524.810483 
L 803.528799 524.293193 
L 804.402202 523.665054 
L 805.275606 522.482676 
L 807.022413 521.004703 
L 807.895816 520.228768 
L 809.642623 519.489782 
L 811.38943 518.418251 
L 813.136237 516.755532 
L 814.00964 516.127394 
L 815.756447 515.129762 
L 816.629851 514.095181 
L 820.123465 511.139236 
L 820.996868 510.732793 
L 821.870271 510.511098 
L 822.743675 510.104655 
L 824.490482 508.404986 
L 827.984096 506.114129 
L 828.857499 505.227345 
L 829.730903 504.599207 
L 831.477709 502.82564 
L 832.351113 502.308349 
L 834.09792 501.458515 
L 836.71813 498.909012 
L 838.464937 497.098496 
L 840.211744 496.137813 
L 841.958551 494.548993 
L 842.831954 493.920854 
L 843.705358 493.07102 
L 844.578761 492.405932 
L 846.325568 492.073389 
L 847.198972 491.223554 
L 848.945779 489.85643 
L 849.819182 488.932697 
L 851.565989 488.082862 
L 852.439392 487.861166 
L 853.312796 487.159129 
L 855.059603 486.087599 
L 856.80641 484.646576 
L 857.679813 484.498779 
L 858.553217 484.166235 
L 861.173427 482.170972 
L 862.920234 480.471303 
L 865.540444 479.362824 
L 866.413848 478.771635 
L 867.287251 478.365192 
L 871.654268 475.630943 
L 872.527672 474.928906 
L 874.274479 473.229237 
L 877.768093 471.45567 
L 878.641496 471.086177 
L 879.5149 470.494988 
L 880.388303 469.645153 
L 881.261706 469.090914 
L 883.008513 468.499724 
L 883.881917 467.575992 
L 884.75532 466.873955 
L 885.628724 466.02412 
L 887.375531 465.211235 
L 888.248934 464.583097 
L 889.122338 464.176654 
L 893.489355 461.368506 
L 895.236162 460.814267 
L 899.603179 456.82374 
L 901.349986 455.900007 
L 903.096793 454.569832 
L 903.970196 454.200339 
L 904.8436 453.239657 
L 906.590407 452.389822 
L 907.46381 452.020329 
L 908.337214 451.244394 
L 909.210617 450.172863 
L 910.08402 449.581674 
L 911.830827 447.918955 
L 913.577634 447.179969 
L 914.451038 446.330134 
L 915.324441 445.184706 
L 918.818055 442.007064 
L 919.691458 441.600622 
L 920.564862 440.713838 
L 922.311669 439.753156 
L 923.185072 439.125018 
L 924.058476 438.312133 
L 925.805283 437.536197 
L 926.678686 436.871109 
L 931.045703 434.062961 
L 931.919107 433.767367 
L 933.665914 432.141597 
L 935.412721 431.033117 
L 937.159528 430.220232 
L 938.032931 430.109384 
L 938.906335 429.037854 
L 941.526545 427.264287 
L 943.273352 426.599199 
L 945.020159 425.379872 
L 946.766966 424.308342 
L 947.640369 423.31071 
L 948.513773 422.571724 
L 950.260579 422.054433 
L 952.007386 420.05917 
L 953.754193 418.47035 
L 954.627597 417.879161 
L 955.501 417.509667 
L 958.994614 415.107962 
L 959.868017 414.332026 
L 960.741421 413.777786 
L 961.614824 413.482192 
L 962.488228 413.334395 
L 963.361631 412.669307 
L 964.235035 411.486929 
L 965.108438 410.821841 
L 965.981842 410.008956 
L 968.602052 409.159122 
L 969.475455 408.567933 
L 970.348859 408.235389 
L 972.969069 406.683518 
L 973.842473 406.277075 
L 974.715876 406.092329 
L 975.58928 405.390292 
L 976.462683 404.503508 
L 979.082894 403.062485 
L 980.8297 402.2496 
L 982.576507 400.512982 
L 983.449911 399.700097 
L 985.196718 398.517719 
L 986.943525 397.88958 
L 987.816928 397.261442 
L 988.690332 396.079064 
L 989.563735 395.229229 
L 990.437138 394.822787 
L 991.310542 394.268547 
L 993.057349 393.640409 
L 994.804156 392.162436 
L 995.677559 391.755994 
L 996.550963 390.610565 
L 997.424366 389.945477 
L 998.29777 389.649883 
L 999.171173 389.169542 
L 1005.284997 384.735624 
L 1011.398821 379.673567 
L 1017.512646 375.16575 
L 1023.62647 370.84268 
L 1029.740294 365.780624 
L 1041.967942 357.467028 
L 1054.195591 349.670722 
L 1072.537063 335.962525 
L 1084.764712 328.055372 
L 1090.878536 323.84315 
L 1103.106184 314.273277 
L 1115.333833 303.484076 
L 1127.561481 293.951152 
L 1133.675305 289.701981 
L 1139.789129 286.007049 
L 1145.902954 281.720929 
L 1152.016778 277.915149 
L 1158.130602 273.702927 
L 1164.244426 268.862566 
L 1172.978461 263.431017 
L 1176.472075 260.290325 
L 1182.585899 257.777771 
L 1182.585899 257.777771 
" style="fill:none;stroke:#1f77b4;stroke-linecap:square;stroke-width:3;"/>
   </g>
   <g id="line2d_77">
    <path clip-path="url(#pe080e51588)" d="M 721.428874 574.72901 
L 727.542698 568.891018 
L 733.656522 559.431993 
L 739.770347 551.340092 
L 745.884171 540.809537 
L 751.997995 527.877276 
L 758.111819 516.386039 
L 767.719257 493.292716 
L 773.833081 481.838428 
L 779.946906 468.314978 
L 780.820309 462.25529 
L 781.693712 460.851216 
L 782.567116 460.296976 
L 783.440519 458.006119 
L 784.313923 456.232551 
L 785.187326 456.195602 
L 786.06073 455.382717 
L 786.934133 452.426772 
L 787.807537 450.172863 
L 788.68094 449.28608 
L 789.554344 445.960641 
L 790.427747 445.812844 
L 792.174554 443.30029 
L 793.047957 440.63994 
L 793.921361 440.566041 
L 794.794764 439.494511 
L 795.668168 435.356187 
L 796.541571 434.875846 
L 797.414975 433.804316 
L 798.288378 433.693468 
L 799.161782 430.996168 
L 800.035185 429.702942 
L 800.908588 428.816158 
L 802.655395 424.825632 
L 803.528799 424.751733 
L 804.402202 423.532406 
L 805.275606 421.019853 
L 806.149009 419.911373 
L 807.022413 419.578829 
L 807.895816 417.398819 
L 808.76922 417.36187 
L 809.642623 416.327289 
L 810.516026 413.962533 
L 811.38943 413.186597 
L 814.00964 410.119804 
L 814.883044 408.494034 
L 815.756447 408.124541 
L 816.629851 407.126909 
L 817.503254 405.205545 
L 818.376658 404.060116 
L 819.250061 403.653674 
L 820.123465 402.434346 
L 820.996868 400.217387 
L 822.743675 400.106539 
L 823.617078 397.741783 
L 824.490482 396.596354 
L 827.984096 391.386501 
L 828.857499 390.721413 
L 829.730903 389.539035 
L 830.604306 388.873947 
L 831.477709 388.72615 
L 832.351113 385.844103 
L 834.09792 383.183752 
L 834.971323 382.149171 
L 835.844727 381.410185 
L 836.71813 379.156277 
L 837.591534 377.641355 
L 838.464937 377.161014 
L 839.338341 375.978635 
L 840.211744 375.387446 
L 841.085147 375.350497 
L 841.958551 371.544717 
L 842.831954 371.39692 
L 844.578761 368.293178 
L 847.198972 368.18233 
L 848.072375 366.260965 
L 849.819182 364.561297 
L 850.692585 361.346706 
L 851.565989 360.312125 
L 852.439392 359.720936 
L 854.186199 358.058217 
L 855.059603 357.651774 
L 855.933006 357.467028 
L 857.679813 354.030741 
L 858.553217 353.5504 
L 859.42662 352.626667 
L 860.300023 351.111745 
L 861.173427 350.114114 
L 862.920234 349.966316 
L 865.540444 348.303597 
L 866.413848 345.052057 
L 867.287251 342.502555 
L 872.527672 337.588295 
L 874.274479 334.706249 
L 877.768093 330.937418 
L 878.641496 330.198432 
L 879.5149 329.939787 
L 880.388303 329.902838 
L 881.261706 325.505869 
L 882.13511 325.46892 
L 883.881917 324.951629 
L 884.75532 323.732302 
L 885.628724 321.293647 
L 886.502127 320.924154 
L 887.375531 319.187536 
L 888.248934 319.187536 
L 889.122338 318.374651 
L 891.742548 314.679719 
L 893.489355 313.719037 
L 894.362758 313.719037 
L 895.236162 313.053949 
L 896.109565 311.94547 
L 896.982969 310.467497 
L 897.856372 310.061054 
L 901.349986 309.137322 
L 903.096793 307.06816 
L 903.970196 305.035947 
L 905.717003 304.112214 
L 906.590407 304.112214 
L 907.46381 303.557975 
L 908.337214 303.521025 
L 909.210617 301.488813 
L 910.08402 299.973891 
L 910.957424 299.752195 
L 911.830827 298.42202 
L 912.704231 298.42202 
L 913.577634 298.052527 
L 914.451038 297.387439 
L 915.324441 293.988102 
L 916.197845 293.729456 
L 917.944652 292.879622 
L 918.818055 292.694876 
L 919.691458 292.325382 
L 920.564862 292.214535 
L 921.438265 290.108423 
L 922.311669 287.152478 
L 923.185072 286.598238 
L 924.058476 285.41586 
L 924.931879 284.676874 
L 925.805283 284.602975 
L 926.678686 284.233482 
L 928.425493 283.309749 
L 929.298897 281.905675 
L 930.1723 280.132108 
L 931.045703 280.095159 
L 931.919107 279.762615 
L 932.79251 278.025997 
L 933.665914 277.730402 
L 934.539317 275.661241 
L 935.412721 275.328697 
L 938.032931 273.998521 
L 938.906335 272.668346 
L 941.526545 271.227323 
L 942.399948 270.377488 
L 943.273352 269.786299 
L 945.020159 266.313063 
L 946.766966 265.019837 
L 947.640369 264.059155 
L 948.513773 262.211689 
L 950.260579 262.137791 
L 951.133983 260.54897 
L 952.88079 259.144896 
L 953.754193 259.107947 
L 954.627597 256.558444 
L 955.501 256.484545 
L 958.994614 253.011309 
L 959.868017 252.567918 
L 960.741421 251.496388 
L 961.614824 250.646553 
L 962.488228 250.240111 
L 963.361631 250.203161 
L 964.235035 247.358064 
L 965.108438 246.951622 
L 965.981842 245.621446 
L 968.602052 244.586865 
L 970.348859 244.476017 
L 971.222262 243.995676 
L 972.095666 243.958727 
L 973.842473 242.776349 
L 974.715876 242.739399 
L 975.58928 240.152947 
L 976.462683 239.561758 
L 977.336087 238.231583 
L 978.20949 238.157684 
L 979.082894 236.605813 
L 979.956297 235.866827 
L 980.8297 235.792928 
L 981.703104 235.349536 
L 982.576507 234.647499 
L 983.449911 233.465121 
L 984.323314 233.354273 
L 985.196718 230.28748 
L 986.070121 230.028835 
L 988.690332 229.881037 
L 989.563735 226.925092 
L 990.437138 226.740345 
L 991.310542 225.779663 
L 993.057349 225.668815 
L 993.930752 224.375589 
L 994.804156 221.456593 
L 995.677559 220.939303 
L 996.550963 220.717607 
L 997.424366 218.980989 
L 998.29777 218.796242 
L 999.171173 217.983357 
L 1005.284997 210.81519 
L 1011.398821 206.307373 
L 1017.512646 199.360902 
L 1023.62647 193.670707 
L 1029.740294 186.502539 
L 1041.967942 171.279421 
L 1048.081767 161.377004 
L 1054.195591 157.053934 
L 1061.182818 150.21831 
L 1066.423239 144.934558 
L 1072.537063 137.212151 
L 1078.650887 130.635173 
L 1084.764712 125.092775 
L 1090.878536 119.070036 
L 1096.99236 112.086616 
L 1103.106184 106.692015 
L 1115.333833 95.681119 
L 1121.447657 91.690593 
L 1127.561481 84.854969 
L 1133.675305 79.719014 
L 1139.789129 71.516266 
L 1145.902954 66.897601 
L 1152.016778 58.768752 
L 1158.130602 53.743645 
L 1164.244426 48.977183 
L 1172.978461 42.880545 
L 1176.472075 41.291725 
L 1182.585899 36.414415 
L 1182.585899 36.414415 
" style="fill:none;stroke:#ff7f0e;stroke-linecap:square;stroke-width:3;"/>
   </g>
   <g id="line2d_78">
    <path clip-path="url(#pe080e51588)" d="M 721.428874 588.437206 
L 727.542698 587.033132 
L 733.656522 585.00092 
L 739.770347 582.636164 
L 745.884171 579.791066 
L 751.997995 576.613425 
L 758.111819 574.063922 
L 767.719257 569.186612 
L 773.833081 565.159137 
L 781.693712 561.353357 
L 782.567116 560.392675 
L 783.440519 559.690638 
L 788.68094 557.178085 
L 789.554344 556.549946 
L 791.30115 556.32825 
L 792.174554 555.626213 
L 793.047957 555.219771 
L 793.921361 554.554683 
L 794.794764 554.037393 
L 795.668168 553.11366 
L 797.414975 552.522471 
L 798.288378 551.820434 
L 799.161782 550.859751 
L 800.035185 550.157714 
L 800.908588 549.640424 
L 801.781992 548.864488 
L 802.655395 548.384147 
L 804.402202 547.756009 
L 805.275606 547.017022 
L 807.022413 545.871594 
L 807.895816 545.391253 
L 809.642623 545.058709 
L 810.516026 544.393621 
L 811.38943 543.211243 
L 813.136237 541.881067 
L 815.756447 541.326828 
L 817.503254 540.255297 
L 818.376658 539.885804 
L 820.123465 538.777325 
L 821.870271 538.555629 
L 822.743675 537.96444 
L 823.617078 537.521048 
L 824.490482 536.782062 
L 827.984096 535.636633 
L 828.857499 534.934596 
L 830.604306 534.121711 
L 832.351113 532.791536 
L 834.09792 532.385093 
L 834.971323 531.683056 
L 835.844727 531.276614 
L 838.464937 529.576945 
L 840.211744 529.28135 
L 841.085147 528.874908 
L 842.831954 527.581682 
L 844.578761 526.805746 
L 846.325568 526.805746 
L 847.198972 526.06676 
L 848.072375 525.475571 
L 849.819182 524.625737 
L 850.692585 523.9237 
L 851.565989 523.775902 
L 854.186199 522.556575 
L 856.80641 521.152501 
L 858.553217 520.67216 
L 859.42662 520.154869 
L 860.300023 519.896224 
L 862.920234 518.307403 
L 866.413848 516.977228 
L 867.287251 516.533836 
L 872.527672 514.390776 
L 874.274479 513.356195 
L 877.768093 511.841273 
L 881.261706 510.215503 
L 883.008513 509.919908 
L 883.881917 509.328719 
L 886.502127 508.294139 
L 887.375531 507.850747 
L 889.122338 507.702949 
L 893.489355 505.48599 
L 895.236162 505.301244 
L 896.109565 505.153447 
L 899.603179 503.010386 
L 901.349986 502.82564 
L 903.096793 501.901907 
L 903.970196 501.125971 
L 904.8436 500.608681 
L 905.717003 499.943593 
L 907.46381 499.721897 
L 909.210617 498.761215 
L 911.830827 497.726634 
L 913.577634 497.504938 
L 916.197845 496.100864 
L 917.944652 495.25103 
L 919.691458 494.844587 
L 921.438265 493.662209 
L 922.311669 493.403564 
L 924.058476 492.110338 
L 924.931879 492.073389 
L 925.805283 491.851693 
L 926.678686 491.186605 
L 928.425493 490.447619 
L 929.298897 489.81948 
L 930.1723 489.486936 
L 931.045703 489.30219 
L 931.919107 489.26524 
L 932.79251 488.637102 
L 933.665914 488.156761 
L 934.539317 487.528623 
L 935.412721 487.454724 
L 937.159528 486.937433 
L 938.032931 486.900484 
L 941.526545 485.533359 
L 942.399948 485.237765 
L 943.273352 485.200816 
L 945.020159 484.609627 
L 946.766966 483.205553 
L 948.513773 482.134022 
L 950.260579 481.653681 
L 951.133983 481.136391 
L 952.007386 480.840796 
L 954.627597 479.473672 
L 955.501 479.362824 
L 958.994614 477.847902 
L 959.868017 477.626206 
L 960.741421 476.776371 
L 961.614824 476.776371 
L 962.488228 476.406878 
L 964.235035 475.113652 
L 965.981842 474.116021 
L 968.602052 473.561781 
L 971.222262 472.083808 
L 972.969069 471.788214 
L 974.715876 471.492619 
L 975.58928 470.716683 
L 977.336087 469.682103 
L 979.082894 468.795319 
L 980.8297 468.72142 
L 981.703104 467.945485 
L 982.576507 467.686839 
L 984.323314 466.763107 
L 985.196718 466.282765 
L 986.943525 466.134968 
L 987.816928 465.617678 
L 988.690332 464.546148 
L 991.310542 463.363769 
L 992.183945 463.289871 
L 993.930752 462.661732 
L 994.804156 461.959695 
L 995.677559 461.072912 
L 996.550963 460.62952 
L 997.424366 460.333925 
L 998.29777 459.890534 
L 999.171173 459.816635 
L 1005.284997 456.417298 
L 1011.398821 454.12644 
L 1017.512646 450.764052 
L 1023.62647 447.918955 
L 1048.081767 434.026012 
L 1054.195591 431.328712 
L 1061.182818 427.485983 
L 1066.423239 425.860213 
L 1072.537063 423.31071 
L 1078.650887 419.467981 
L 1084.764712 415.957796 
L 1090.878536 413.075749 
L 1096.99236 409.23302 
L 1115.333833 399.810945 
L 1121.447657 396.81805 
L 1127.561481 394.305497 
L 1133.675305 391.608196 
L 1139.789129 388.652251 
L 1145.902954 386.102748 
L 1152.016778 383.220702 
L 1158.130602 380.745097 
L 1164.244426 377.604405 
L 1172.978461 372.874893 
L 1176.472075 371.43387 
L 1182.585899 370.029795 
L 1182.585899 370.029795 
" style="fill:none;stroke:#2ca02c;stroke-linecap:square;stroke-width:3;"/>
   </g>
   <g id="patch_6">
    <path d="M 698.371023 596.270462 
L 698.371023 8.750462 
" style="fill:none;stroke:#000000;stroke-linecap:square;stroke-linejoin:miter;stroke-width:0.8;"/>
   </g>
   <g id="patch_7">
    <path d="M 698.371023 596.270462 
L 1205.64375 596.270462 
" style="fill:none;stroke:#000000;stroke-linecap:square;stroke-linejoin:miter;stroke-width:0.8;"/>
   </g>
   <g id="legend_1">
    <g id="patch_8">
     <path d="M 708.171023 81.598587 
L 814.299773 81.598587 
Q 817.099773 81.598587 817.099773 78.798587 
L 817.099773 18.550462 
Q 817.099773 15.750462 814.299773 15.750462 
L 708.171023 15.750462 
Q 705.371023 15.750462 705.371023 18.550462 
L 705.371023 78.798587 
Q 705.371023 81.598587 708.171023 81.598587 
z
" style="fill:#ffffff;opacity:0.8;stroke:#cccccc;stroke-linejoin:miter;"/>
    </g>
    <g id="line2d_79">
     <path d="M 710.971023 27.088274 
L 738.971023 27.088274 
" style="fill:none;stroke:#1f77b4;stroke-linecap:square;stroke-width:3;"/>
    </g>
    <g id="line2d_80"/>
    <g id="text_40">
     <!-- arXiv -->
     <defs>
      <path d="M 6.296875 72.90625 
L 16.890625 72.90625 
L 35.015625 45.796875 
L 53.21875 72.90625 
L 63.8125 72.90625 
L 40.375 37.890625 
L 65.375 0 
L 54.78125 0 
L 34.28125 31 
L 13.625 0 
L 2.984375 0 
L 29 38.921875 
z
" id="DejaVuSans-88"/>
      <path d="M 2.984375 54.6875 
L 12.5 54.6875 
L 29.59375 8.796875 
L 46.6875 54.6875 
L 56.203125 54.6875 
L 35.6875 0 
L 23.484375 0 
z
" id="DejaVuSans-118"/>
     </defs>
     <g transform="translate(750.171023 31.988274)scale(0.14 -0.14)">
      <use xlink:href="#DejaVuSans-97"/>
      <use x="61.279297" xlink:href="#DejaVuSans-114"/>
      <use x="102.392578" xlink:href="#DejaVuSans-88"/>
      <use x="170.898438" xlink:href="#DejaVuSans-105"/>
      <use x="198.681641" xlink:href="#DejaVuSans-118"/>
     </g>
    </g>
    <g id="line2d_81">
     <path d="M 710.971023 47.637649 
L 738.971023 47.637649 
" style="fill:none;stroke:#ff7f0e;stroke-linecap:square;stroke-width:3;"/>
    </g>
    <g id="line2d_82"/>
    <g id="text_41">
     <!-- medRxiv -->
     <defs>
      <path d="M 45.40625 46.390625 
L 45.40625 75.984375 
L 54.390625 75.984375 
L 54.390625 0 
L 45.40625 0 
L 45.40625 8.203125 
Q 42.578125 3.328125 38.25 0.953125 
Q 33.9375 -1.421875 27.875 -1.421875 
Q 17.96875 -1.421875 11.734375 6.484375 
Q 5.515625 14.40625 5.515625 27.296875 
Q 5.515625 40.1875 11.734375 48.09375 
Q 17.96875 56 27.875 56 
Q 33.9375 56 38.25 53.625 
Q 42.578125 51.265625 45.40625 46.390625 
z
M 14.796875 27.296875 
Q 14.796875 17.390625 18.875 11.75 
Q 22.953125 6.109375 30.078125 6.109375 
Q 37.203125 6.109375 41.296875 11.75 
Q 45.40625 17.390625 45.40625 27.296875 
Q 45.40625 37.203125 41.296875 42.84375 
Q 37.203125 48.484375 30.078125 48.484375 
Q 22.953125 48.484375 18.875 42.84375 
Q 14.796875 37.203125 14.796875 27.296875 
z
" id="DejaVuSans-100"/>
      <path d="M 44.390625 34.1875 
Q 47.5625 33.109375 50.5625 29.59375 
Q 53.5625 26.078125 56.59375 19.921875 
L 66.609375 0 
L 56 0 
L 46.6875 18.703125 
Q 43.0625 26.03125 39.671875 28.421875 
Q 36.28125 30.8125 30.421875 30.8125 
L 19.671875 30.8125 
L 19.671875 0 
L 9.8125 0 
L 9.8125 72.90625 
L 32.078125 72.90625 
Q 44.578125 72.90625 50.734375 67.671875 
Q 56.890625 62.453125 56.890625 51.90625 
Q 56.890625 45.015625 53.6875 40.46875 
Q 50.484375 35.9375 44.390625 34.1875 
z
M 19.671875 64.796875 
L 19.671875 38.921875 
L 32.078125 38.921875 
Q 39.203125 38.921875 42.84375 42.21875 
Q 46.484375 45.515625 46.484375 51.90625 
Q 46.484375 58.296875 42.84375 61.546875 
Q 39.203125 64.796875 32.078125 64.796875 
z
" id="DejaVuSans-82"/>
      <path d="M 54.890625 54.6875 
L 35.109375 28.078125 
L 55.90625 0 
L 45.3125 0 
L 29.390625 21.484375 
L 13.484375 0 
L 2.875 0 
L 24.125 28.609375 
L 4.6875 54.6875 
L 15.28125 54.6875 
L 29.78125 35.203125 
L 44.28125 54.6875 
z
" id="DejaVuSans-120"/>
     </defs>
     <g transform="translate(750.171023 52.537649)scale(0.14 -0.14)">
      <use xlink:href="#DejaVuSans-109"/>
      <use x="97.412109" xlink:href="#DejaVuSans-101"/>
      <use x="158.935547" xlink:href="#DejaVuSans-100"/>
      <use x="222.412109" xlink:href="#DejaVuSans-82"/>
      <use x="291.894531" xlink:href="#DejaVuSans-120"/>
      <use x="351.074219" xlink:href="#DejaVuSans-105"/>
      <use x="378.857422" xlink:href="#DejaVuSans-118"/>
     </g>
    </g>
    <g id="line2d_83">
     <path d="M 710.971023 68.187024 
L 738.971023 68.187024 
" style="fill:none;stroke:#2ca02c;stroke-linecap:square;stroke-width:3;"/>
    </g>
    <g id="line2d_84"/>
    <g id="text_42">
     <!-- bioRxiv -->
     <defs>
      <path d="M 48.6875 27.296875 
Q 48.6875 37.203125 44.609375 42.84375 
Q 40.53125 48.484375 33.40625 48.484375 
Q 26.265625 48.484375 22.1875 42.84375 
Q 18.109375 37.203125 18.109375 27.296875 
Q 18.109375 17.390625 22.1875 11.75 
Q 26.265625 6.109375 33.40625 6.109375 
Q 40.53125 6.109375 44.609375 11.75 
Q 48.6875 17.390625 48.6875 27.296875 
z
M 18.109375 46.390625 
Q 20.953125 51.265625 25.265625 53.625 
Q 29.59375 56 35.59375 56 
Q 45.5625 56 51.78125 48.09375 
Q 58.015625 40.1875 58.015625 27.296875 
Q 58.015625 14.40625 51.78125 6.484375 
Q 45.5625 -1.421875 35.59375 -1.421875 
Q 29.59375 -1.421875 25.265625 0.953125 
Q 20.953125 3.328125 18.109375 8.203125 
L 18.109375 0 
L 9.078125 0 
L 9.078125 75.984375 
L 18.109375 75.984375 
z
" id="DejaVuSans-98"/>
     </defs>
     <g transform="translate(750.171023 73.087024)scale(0.14 -0.14)">
      <use xlink:href="#DejaVuSans-98"/>
      <use x="63.476562" xlink:href="#DejaVuSans-105"/>
      <use x="91.259766" xlink:href="#DejaVuSans-111"/>
      <use x="152.441406" xlink:href="#DejaVuSans-82"/>
      <use x="221.923828" xlink:href="#DejaVuSans-120"/>
      <use x="281.103516" xlink:href="#DejaVuSans-105"/>
      <use x="308.886719" xlink:href="#DejaVuSans-118"/>
     </g>
    </g>
   </g>
  </g>
 </g>
 <defs>
  <clipPath id="pf2e35d38ed">
   <rect height="587.52" width="507.272727" x="89.64375" y="8.750462"/>
  </clipPath>
  <clipPath id="pe080e51588">
   <rect height="587.52" width="507.272727" x="698.371023" y="8.750462"/>
  </clipPath>
 </defs>
</svg>
