<?xml version="1.0" encoding="utf-8" standalone="no"?>
<!DOCTYPE svg PUBLIC "-//W3C//DTD SVG 1.1//EN"
  "http://www.w3.org/Graphics/SVG/1.1/DTD/svg11.dtd">
<!-- Created with matplotlib (https://matplotlib.org/) -->
<svg height="649.902072pt" version="1.1" viewBox="0 0 1212.84375 649.902072" width="1212.84375pt" xmlns="http://www.w3.org/2000/svg" xmlns:xlink="http://www.w3.org/1999/xlink">
 <defs>
  <style type="text/css">
*{stroke-linecap:butt;stroke-linejoin:round;}
  </style>
 </defs>
 <g id="figure_1">
  <g id="patch_1">
   <path d="M 0 649.902072 
L 1212.84375 649.902072 
L 1212.84375 0 
L 0 0 
z
" style="fill:#ffffff;"/>
  </g>
  <g id="axes_1">
   <g id="patch_2">
    <path d="M 89.64375 594.72 
L 596.916477 594.72 
L 596.916477 7.2 
L 89.64375 7.2 
z
" style="fill:#ffffff;"/>
   </g>
   <g id="matplotlib.axis_1">
    <g id="xtick_1">
     <g id="line2d_1">
      <path clip-path="url(#p254196b5dd)" d="M 95.883975 594.72 
L 95.883975 7.2 
" style="fill:none;stroke:#d3d3d3;stroke-linecap:square;stroke-width:0.8;"/>
     </g>
     <g id="line2d_2">
      <defs>
       <path d="M 0 0 
L 0 3.5 
" id="m4d4b9d6fc6" style="stroke:#000000;stroke-width:0.8;"/>
      </defs>
      <g>
       <use style="stroke:#000000;stroke-width:0.8;" x="95.883975" xlink:href="#m4d4b9d6fc6" y="594.72"/>
      </g>
     </g>
     <g id="text_1">
      <!-- 2020-03 -->
      <defs>
       <path d="M 19.1875 8.296875 
L 53.609375 8.296875 
L 53.609375 0 
L 7.328125 0 
L 7.328125 8.296875 
Q 12.9375 14.109375 22.625 23.890625 
Q 32.328125 33.6875 34.8125 36.53125 
Q 39.546875 41.84375 41.421875 45.53125 
Q 43.3125 49.21875 43.3125 52.78125 
Q 43.3125 58.59375 39.234375 62.25 
Q 35.15625 65.921875 28.609375 65.921875 
Q 23.96875 65.921875 18.8125 64.3125 
Q 13.671875 62.703125 7.8125 59.421875 
L 7.8125 69.390625 
Q 13.765625 71.78125 18.9375 73 
Q 24.125 74.21875 28.421875 74.21875 
Q 39.75 74.21875 46.484375 68.546875 
Q 53.21875 62.890625 53.21875 53.421875 
Q 53.21875 48.921875 51.53125 44.890625 
Q 49.859375 40.875 45.40625 35.40625 
Q 44.1875 33.984375 37.640625 27.21875 
Q 31.109375 20.453125 19.1875 8.296875 
z
" id="DejaVuSans-50"/>
       <path d="M 31.78125 66.40625 
Q 24.171875 66.40625 20.328125 58.90625 
Q 16.5 51.421875 16.5 36.375 
Q 16.5 21.390625 20.328125 13.890625 
Q 24.171875 6.390625 31.78125 6.390625 
Q 39.453125 6.390625 43.28125 13.890625 
Q 47.125 21.390625 47.125 36.375 
Q 47.125 51.421875 43.28125 58.90625 
Q 39.453125 66.40625 31.78125 66.40625 
z
M 31.78125 74.21875 
Q 44.046875 74.21875 50.515625 64.515625 
Q 56.984375 54.828125 56.984375 36.375 
Q 56.984375 17.96875 50.515625 8.265625 
Q 44.046875 -1.421875 31.78125 -1.421875 
Q 19.53125 -1.421875 13.0625 8.265625 
Q 6.59375 17.96875 6.59375 36.375 
Q 6.59375 54.828125 13.0625 64.515625 
Q 19.53125 74.21875 31.78125 74.21875 
z
" id="DejaVuSans-48"/>
       <path d="M 4.890625 31.390625 
L 31.203125 31.390625 
L 31.203125 23.390625 
L 4.890625 23.390625 
z
" id="DejaVuSans-45"/>
       <path d="M 40.578125 39.3125 
Q 47.65625 37.796875 51.625 33 
Q 55.609375 28.21875 55.609375 21.1875 
Q 55.609375 10.40625 48.1875 4.484375 
Q 40.765625 -1.421875 27.09375 -1.421875 
Q 22.515625 -1.421875 17.65625 -0.515625 
Q 12.796875 0.390625 7.625 2.203125 
L 7.625 11.71875 
Q 11.71875 9.328125 16.59375 8.109375 
Q 21.484375 6.890625 26.8125 6.890625 
Q 36.078125 6.890625 40.9375 10.546875 
Q 45.796875 14.203125 45.796875 21.1875 
Q 45.796875 27.640625 41.28125 31.265625 
Q 36.765625 34.90625 28.71875 34.90625 
L 20.21875 34.90625 
L 20.21875 43.015625 
L 29.109375 43.015625 
Q 36.375 43.015625 40.234375 45.921875 
Q 44.09375 48.828125 44.09375 54.296875 
Q 44.09375 59.90625 40.109375 62.90625 
Q 36.140625 65.921875 28.71875 65.921875 
Q 24.65625 65.921875 20.015625 65.03125 
Q 15.375 64.15625 9.8125 62.3125 
L 9.8125 71.09375 
Q 15.4375 72.65625 20.34375 73.4375 
Q 25.25 74.21875 29.59375 74.21875 
Q 40.828125 74.21875 47.359375 69.109375 
Q 53.90625 64.015625 53.90625 55.328125 
Q 53.90625 49.265625 50.4375 45.09375 
Q 46.96875 40.921875 40.578125 39.3125 
z
" id="DejaVuSans-51"/>
      </defs>
      <g transform="translate(43.769225 640.180585)rotate(-30)scale(0.14 -0.14)">
       <use xlink:href="#DejaVuSans-50"/>
       <use x="63.623047" xlink:href="#DejaVuSans-48"/>
       <use x="127.246094" xlink:href="#DejaVuSans-50"/>
       <use x="190.869141" xlink:href="#DejaVuSans-48"/>
       <use x="254.492188" xlink:href="#DejaVuSans-45"/>
       <use x="290.576172" xlink:href="#DejaVuSans-48"/>
       <use x="354.199219" xlink:href="#DejaVuSans-51"/>
      </g>
     </g>
    </g>
    <g id="xtick_2">
     <g id="line2d_3">
      <path clip-path="url(#p254196b5dd)" d="M 149.877407 594.72 
L 149.877407 7.2 
" style="fill:none;stroke:#d3d3d3;stroke-linecap:square;stroke-width:0.8;"/>
     </g>
     <g id="line2d_4">
      <g>
       <use style="stroke:#000000;stroke-width:0.8;" x="149.877407" xlink:href="#m4d4b9d6fc6" y="594.72"/>
      </g>
     </g>
     <g id="text_2">
      <!-- 2020-05 -->
      <defs>
       <path d="M 10.796875 72.90625 
L 49.515625 72.90625 
L 49.515625 64.59375 
L 19.828125 64.59375 
L 19.828125 46.734375 
Q 21.96875 47.46875 24.109375 47.828125 
Q 26.265625 48.1875 28.421875 48.1875 
Q 40.625 48.1875 47.75 41.5 
Q 54.890625 34.8125 54.890625 23.390625 
Q 54.890625 11.625 47.5625 5.09375 
Q 40.234375 -1.421875 26.90625 -1.421875 
Q 22.3125 -1.421875 17.546875 -0.640625 
Q 12.796875 0.140625 7.71875 1.703125 
L 7.71875 11.625 
Q 12.109375 9.234375 16.796875 8.0625 
Q 21.484375 6.890625 26.703125 6.890625 
Q 35.15625 6.890625 40.078125 11.328125 
Q 45.015625 15.765625 45.015625 23.390625 
Q 45.015625 31 40.078125 35.4375 
Q 35.15625 39.890625 26.703125 39.890625 
Q 22.75 39.890625 18.8125 39.015625 
Q 14.890625 38.140625 10.796875 36.28125 
z
" id="DejaVuSans-53"/>
      </defs>
      <g transform="translate(97.762658 640.180585)rotate(-30)scale(0.14 -0.14)">
       <use xlink:href="#DejaVuSans-50"/>
       <use x="63.623047" xlink:href="#DejaVuSans-48"/>
       <use x="127.246094" xlink:href="#DejaVuSans-50"/>
       <use x="190.869141" xlink:href="#DejaVuSans-48"/>
       <use x="254.492188" xlink:href="#DejaVuSans-45"/>
       <use x="290.576172" xlink:href="#DejaVuSans-48"/>
       <use x="354.199219" xlink:href="#DejaVuSans-53"/>
      </g>
     </g>
    </g>
    <g id="xtick_3">
     <g id="line2d_5">
      <path clip-path="url(#p254196b5dd)" d="M 203.87084 594.72 
L 203.87084 7.2 
" style="fill:none;stroke:#d3d3d3;stroke-linecap:square;stroke-width:0.8;"/>
     </g>
     <g id="line2d_6">
      <g>
       <use style="stroke:#000000;stroke-width:0.8;" x="203.87084" xlink:href="#m4d4b9d6fc6" y="594.72"/>
      </g>
     </g>
     <g id="text_3">
      <!-- 2020-07 -->
      <defs>
       <path d="M 8.203125 72.90625 
L 55.078125 72.90625 
L 55.078125 68.703125 
L 28.609375 0 
L 18.3125 0 
L 43.21875 64.59375 
L 8.203125 64.59375 
z
" id="DejaVuSans-55"/>
      </defs>
      <g transform="translate(151.756091 640.180585)rotate(-30)scale(0.14 -0.14)">
       <use xlink:href="#DejaVuSans-50"/>
       <use x="63.623047" xlink:href="#DejaVuSans-48"/>
       <use x="127.246094" xlink:href="#DejaVuSans-50"/>
       <use x="190.869141" xlink:href="#DejaVuSans-48"/>
       <use x="254.492188" xlink:href="#DejaVuSans-45"/>
       <use x="290.576172" xlink:href="#DejaVuSans-48"/>
       <use x="354.199219" xlink:href="#DejaVuSans-55"/>
      </g>
     </g>
    </g>
    <g id="xtick_4">
     <g id="line2d_7">
      <path clip-path="url(#p254196b5dd)" d="M 258.749411 594.72 
L 258.749411 7.2 
" style="fill:none;stroke:#d3d3d3;stroke-linecap:square;stroke-width:0.8;"/>
     </g>
     <g id="line2d_8">
      <g>
       <use style="stroke:#000000;stroke-width:0.8;" x="258.749411" xlink:href="#m4d4b9d6fc6" y="594.72"/>
      </g>
     </g>
     <g id="text_4">
      <!-- 2020-09 -->
      <defs>
       <path d="M 10.984375 1.515625 
L 10.984375 10.5 
Q 14.703125 8.734375 18.5 7.8125 
Q 22.3125 6.890625 25.984375 6.890625 
Q 35.75 6.890625 40.890625 13.453125 
Q 46.046875 20.015625 46.78125 33.40625 
Q 43.953125 29.203125 39.59375 26.953125 
Q 35.25 24.703125 29.984375 24.703125 
Q 19.046875 24.703125 12.671875 31.3125 
Q 6.296875 37.9375 6.296875 49.421875 
Q 6.296875 60.640625 12.9375 67.421875 
Q 19.578125 74.21875 30.609375 74.21875 
Q 43.265625 74.21875 49.921875 64.515625 
Q 56.59375 54.828125 56.59375 36.375 
Q 56.59375 19.140625 48.40625 8.859375 
Q 40.234375 -1.421875 26.421875 -1.421875 
Q 22.703125 -1.421875 18.890625 -0.6875 
Q 15.09375 0.046875 10.984375 1.515625 
z
M 30.609375 32.421875 
Q 37.25 32.421875 41.125 36.953125 
Q 45.015625 41.5 45.015625 49.421875 
Q 45.015625 57.28125 41.125 61.84375 
Q 37.25 66.40625 30.609375 66.40625 
Q 23.96875 66.40625 20.09375 61.84375 
Q 16.21875 57.28125 16.21875 49.421875 
Q 16.21875 41.5 20.09375 36.953125 
Q 23.96875 32.421875 30.609375 32.421875 
z
" id="DejaVuSans-57"/>
      </defs>
      <g transform="translate(206.634662 640.180585)rotate(-30)scale(0.14 -0.14)">
       <use xlink:href="#DejaVuSans-50"/>
       <use x="63.623047" xlink:href="#DejaVuSans-48"/>
       <use x="127.246094" xlink:href="#DejaVuSans-50"/>
       <use x="190.869141" xlink:href="#DejaVuSans-48"/>
       <use x="254.492188" xlink:href="#DejaVuSans-45"/>
       <use x="290.576172" xlink:href="#DejaVuSans-48"/>
       <use x="354.199219" xlink:href="#DejaVuSans-57"/>
      </g>
     </g>
    </g>
    <g id="xtick_5">
     <g id="line2d_9">
      <path clip-path="url(#p254196b5dd)" d="M 312.742844 594.72 
L 312.742844 7.2 
" style="fill:none;stroke:#d3d3d3;stroke-linecap:square;stroke-width:0.8;"/>
     </g>
     <g id="line2d_10">
      <g>
       <use style="stroke:#000000;stroke-width:0.8;" x="312.742844" xlink:href="#m4d4b9d6fc6" y="594.72"/>
      </g>
     </g>
     <g id="text_5">
      <!-- 2020-11 -->
      <defs>
       <path d="M 12.40625 8.296875 
L 28.515625 8.296875 
L 28.515625 63.921875 
L 10.984375 60.40625 
L 10.984375 69.390625 
L 28.421875 72.90625 
L 38.28125 72.90625 
L 38.28125 8.296875 
L 54.390625 8.296875 
L 54.390625 0 
L 12.40625 0 
z
" id="DejaVuSans-49"/>
      </defs>
      <g transform="translate(260.628095 640.180585)rotate(-30)scale(0.14 -0.14)">
       <use xlink:href="#DejaVuSans-50"/>
       <use x="63.623047" xlink:href="#DejaVuSans-48"/>
       <use x="127.246094" xlink:href="#DejaVuSans-50"/>
       <use x="190.869141" xlink:href="#DejaVuSans-48"/>
       <use x="254.492188" xlink:href="#DejaVuSans-45"/>
       <use x="290.576172" xlink:href="#DejaVuSans-49"/>
       <use x="354.199219" xlink:href="#DejaVuSans-49"/>
      </g>
     </g>
    </g>
    <g id="xtick_6">
     <g id="line2d_11">
      <path clip-path="url(#p254196b5dd)" d="M 366.736277 594.72 
L 366.736277 7.2 
" style="fill:none;stroke:#d3d3d3;stroke-linecap:square;stroke-width:0.8;"/>
     </g>
     <g id="line2d_12">
      <g>
       <use style="stroke:#000000;stroke-width:0.8;" x="366.736277" xlink:href="#m4d4b9d6fc6" y="594.72"/>
      </g>
     </g>
     <g id="text_6">
      <!-- 2021-01 -->
      <g transform="translate(314.621528 640.180585)rotate(-30)scale(0.14 -0.14)">
       <use xlink:href="#DejaVuSans-50"/>
       <use x="63.623047" xlink:href="#DejaVuSans-48"/>
       <use x="127.246094" xlink:href="#DejaVuSans-50"/>
       <use x="190.869141" xlink:href="#DejaVuSans-49"/>
       <use x="254.492188" xlink:href="#DejaVuSans-45"/>
       <use x="290.576172" xlink:href="#DejaVuSans-48"/>
       <use x="354.199219" xlink:href="#DejaVuSans-49"/>
      </g>
     </g>
    </g>
    <g id="xtick_7">
     <g id="line2d_13">
      <path clip-path="url(#p254196b5dd)" d="M 418.959433 594.72 
L 418.959433 7.2 
" style="fill:none;stroke:#d3d3d3;stroke-linecap:square;stroke-width:0.8;"/>
     </g>
     <g id="line2d_14">
      <g>
       <use style="stroke:#000000;stroke-width:0.8;" x="418.959433" xlink:href="#m4d4b9d6fc6" y="594.72"/>
      </g>
     </g>
     <g id="text_7">
      <!-- 2021-03 -->
      <g transform="translate(366.844684 640.180585)rotate(-30)scale(0.14 -0.14)">
       <use xlink:href="#DejaVuSans-50"/>
       <use x="63.623047" xlink:href="#DejaVuSans-48"/>
       <use x="127.246094" xlink:href="#DejaVuSans-50"/>
       <use x="190.869141" xlink:href="#DejaVuSans-49"/>
       <use x="254.492188" xlink:href="#DejaVuSans-45"/>
       <use x="290.576172" xlink:href="#DejaVuSans-48"/>
       <use x="354.199219" xlink:href="#DejaVuSans-51"/>
      </g>
     </g>
    </g>
    <g id="xtick_8">
     <g id="line2d_15">
      <path clip-path="url(#p254196b5dd)" d="M 472.952866 594.72 
L 472.952866 7.2 
" style="fill:none;stroke:#d3d3d3;stroke-linecap:square;stroke-width:0.8;"/>
     </g>
     <g id="line2d_16">
      <g>
       <use style="stroke:#000000;stroke-width:0.8;" x="472.952866" xlink:href="#m4d4b9d6fc6" y="594.72"/>
      </g>
     </g>
     <g id="text_8">
      <!-- 2021-05 -->
      <g transform="translate(420.838117 640.180585)rotate(-30)scale(0.14 -0.14)">
       <use xlink:href="#DejaVuSans-50"/>
       <use x="63.623047" xlink:href="#DejaVuSans-48"/>
       <use x="127.246094" xlink:href="#DejaVuSans-50"/>
       <use x="190.869141" xlink:href="#DejaVuSans-49"/>
       <use x="254.492188" xlink:href="#DejaVuSans-45"/>
       <use x="290.576172" xlink:href="#DejaVuSans-48"/>
       <use x="354.199219" xlink:href="#DejaVuSans-53"/>
      </g>
     </g>
    </g>
    <g id="xtick_9">
     <g id="line2d_17">
      <path clip-path="url(#p254196b5dd)" d="M 526.946299 594.72 
L 526.946299 7.2 
" style="fill:none;stroke:#d3d3d3;stroke-linecap:square;stroke-width:0.8;"/>
     </g>
     <g id="line2d_18">
      <g>
       <use style="stroke:#000000;stroke-width:0.8;" x="526.946299" xlink:href="#m4d4b9d6fc6" y="594.72"/>
      </g>
     </g>
     <g id="text_9">
      <!-- 2021-07 -->
      <g transform="translate(474.83155 640.180585)rotate(-30)scale(0.14 -0.14)">
       <use xlink:href="#DejaVuSans-50"/>
       <use x="63.623047" xlink:href="#DejaVuSans-48"/>
       <use x="127.246094" xlink:href="#DejaVuSans-50"/>
       <use x="190.869141" xlink:href="#DejaVuSans-49"/>
       <use x="254.492188" xlink:href="#DejaVuSans-45"/>
       <use x="290.576172" xlink:href="#DejaVuSans-48"/>
       <use x="354.199219" xlink:href="#DejaVuSans-55"/>
      </g>
     </g>
    </g>
    <g id="xtick_10">
     <g id="line2d_19">
      <path clip-path="url(#p254196b5dd)" d="M 581.82487 594.72 
L 581.82487 7.2 
" style="fill:none;stroke:#d3d3d3;stroke-linecap:square;stroke-width:0.8;"/>
     </g>
     <g id="line2d_20">
      <g>
       <use style="stroke:#000000;stroke-width:0.8;" x="581.82487" xlink:href="#m4d4b9d6fc6" y="594.72"/>
      </g>
     </g>
     <g id="text_10">
      <!-- 2021-09 -->
      <g transform="translate(529.710121 640.180585)rotate(-30)scale(0.14 -0.14)">
       <use xlink:href="#DejaVuSans-50"/>
       <use x="63.623047" xlink:href="#DejaVuSans-48"/>
       <use x="127.246094" xlink:href="#DejaVuSans-50"/>
       <use x="190.869141" xlink:href="#DejaVuSans-49"/>
       <use x="254.492188" xlink:href="#DejaVuSans-45"/>
       <use x="290.576172" xlink:href="#DejaVuSans-48"/>
       <use x="354.199219" xlink:href="#DejaVuSans-57"/>
      </g>
     </g>
    </g>
   </g>
   <g id="matplotlib.axis_2">
    <g id="ytick_1">
     <g id="line2d_21">
      <path clip-path="url(#p254196b5dd)" d="M 89.64375 594.72 
L 596.916477 594.72 
" style="fill:none;stroke:#d3d3d3;stroke-linecap:square;stroke-width:0.8;"/>
     </g>
     <g id="line2d_22">
      <defs>
       <path d="M 0 0 
L -3.5 0 
" id="m061afe1d37" style="stroke:#000000;stroke-width:0.8;"/>
      </defs>
      <g>
       <use style="stroke:#000000;stroke-width:0.8;" x="89.64375" xlink:href="#m061afe1d37" y="594.72"/>
      </g>
     </g>
     <g id="text_11">
      <!-- 0 -->
      <g transform="translate(73.73625 600.038906)scale(0.14 -0.14)">
       <use xlink:href="#DejaVuSans-48"/>
      </g>
     </g>
    </g>
    <g id="ytick_2">
     <g id="line2d_23">
      <path clip-path="url(#p254196b5dd)" d="M 89.64375 520.730596 
L 596.916477 520.730596 
" style="fill:none;stroke:#d3d3d3;stroke-linecap:square;stroke-width:0.8;"/>
     </g>
     <g id="line2d_24">
      <g>
       <use style="stroke:#000000;stroke-width:0.8;" x="89.64375" xlink:href="#m061afe1d37" y="520.730596"/>
      </g>
     </g>
     <g id="text_12">
      <!-- 100,000 -->
      <defs>
       <path d="M 11.71875 12.40625 
L 22.015625 12.40625 
L 22.015625 4 
L 14.015625 -11.625 
L 7.71875 -11.625 
L 11.71875 4 
z
" id="DejaVuSans-44"/>
      </defs>
      <g transform="translate(24.749375 526.049503)scale(0.14 -0.14)">
       <use xlink:href="#DejaVuSans-49"/>
       <use x="63.623047" xlink:href="#DejaVuSans-48"/>
       <use x="127.246094" xlink:href="#DejaVuSans-48"/>
       <use x="190.869141" xlink:href="#DejaVuSans-44"/>
       <use x="222.65625" xlink:href="#DejaVuSans-48"/>
       <use x="286.279297" xlink:href="#DejaVuSans-48"/>
       <use x="349.902344" xlink:href="#DejaVuSans-48"/>
      </g>
     </g>
    </g>
    <g id="ytick_3">
     <g id="line2d_25">
      <path clip-path="url(#p254196b5dd)" d="M 89.64375 446.741193 
L 596.916477 446.741193 
" style="fill:none;stroke:#d3d3d3;stroke-linecap:square;stroke-width:0.8;"/>
     </g>
     <g id="line2d_26">
      <g>
       <use style="stroke:#000000;stroke-width:0.8;" x="89.64375" xlink:href="#m061afe1d37" y="446.741193"/>
      </g>
     </g>
     <g id="text_13">
      <!-- 200,000 -->
      <g transform="translate(24.749375 452.060099)scale(0.14 -0.14)">
       <use xlink:href="#DejaVuSans-50"/>
       <use x="63.623047" xlink:href="#DejaVuSans-48"/>
       <use x="127.246094" xlink:href="#DejaVuSans-48"/>
       <use x="190.869141" xlink:href="#DejaVuSans-44"/>
       <use x="222.65625" xlink:href="#DejaVuSans-48"/>
       <use x="286.279297" xlink:href="#DejaVuSans-48"/>
       <use x="349.902344" xlink:href="#DejaVuSans-48"/>
      </g>
     </g>
    </g>
    <g id="ytick_4">
     <g id="line2d_27">
      <path clip-path="url(#p254196b5dd)" d="M 89.64375 372.751789 
L 596.916477 372.751789 
" style="fill:none;stroke:#d3d3d3;stroke-linecap:square;stroke-width:0.8;"/>
     </g>
     <g id="line2d_28">
      <g>
       <use style="stroke:#000000;stroke-width:0.8;" x="89.64375" xlink:href="#m061afe1d37" y="372.751789"/>
      </g>
     </g>
     <g id="text_14">
      <!-- 300,000 -->
      <g transform="translate(24.749375 378.070695)scale(0.14 -0.14)">
       <use xlink:href="#DejaVuSans-51"/>
       <use x="63.623047" xlink:href="#DejaVuSans-48"/>
       <use x="127.246094" xlink:href="#DejaVuSans-48"/>
       <use x="190.869141" xlink:href="#DejaVuSans-44"/>
       <use x="222.65625" xlink:href="#DejaVuSans-48"/>
       <use x="286.279297" xlink:href="#DejaVuSans-48"/>
       <use x="349.902344" xlink:href="#DejaVuSans-48"/>
      </g>
     </g>
    </g>
    <g id="ytick_5">
     <g id="line2d_29">
      <path clip-path="url(#p254196b5dd)" d="M 89.64375 298.762385 
L 596.916477 298.762385 
" style="fill:none;stroke:#d3d3d3;stroke-linecap:square;stroke-width:0.8;"/>
     </g>
     <g id="line2d_30">
      <g>
       <use style="stroke:#000000;stroke-width:0.8;" x="89.64375" xlink:href="#m061afe1d37" y="298.762385"/>
      </g>
     </g>
     <g id="text_15">
      <!-- 400,000 -->
      <defs>
       <path d="M 37.796875 64.3125 
L 12.890625 25.390625 
L 37.796875 25.390625 
z
M 35.203125 72.90625 
L 47.609375 72.90625 
L 47.609375 25.390625 
L 58.015625 25.390625 
L 58.015625 17.1875 
L 47.609375 17.1875 
L 47.609375 0 
L 37.796875 0 
L 37.796875 17.1875 
L 4.890625 17.1875 
L 4.890625 26.703125 
z
" id="DejaVuSans-52"/>
      </defs>
      <g transform="translate(24.749375 304.081291)scale(0.14 -0.14)">
       <use xlink:href="#DejaVuSans-52"/>
       <use x="63.623047" xlink:href="#DejaVuSans-48"/>
       <use x="127.246094" xlink:href="#DejaVuSans-48"/>
       <use x="190.869141" xlink:href="#DejaVuSans-44"/>
       <use x="222.65625" xlink:href="#DejaVuSans-48"/>
       <use x="286.279297" xlink:href="#DejaVuSans-48"/>
       <use x="349.902344" xlink:href="#DejaVuSans-48"/>
      </g>
     </g>
    </g>
    <g id="ytick_6">
     <g id="line2d_31">
      <path clip-path="url(#p254196b5dd)" d="M 89.64375 224.772982 
L 596.916477 224.772982 
" style="fill:none;stroke:#d3d3d3;stroke-linecap:square;stroke-width:0.8;"/>
     </g>
     <g id="line2d_32">
      <g>
       <use style="stroke:#000000;stroke-width:0.8;" x="89.64375" xlink:href="#m061afe1d37" y="224.772982"/>
      </g>
     </g>
     <g id="text_16">
      <!-- 500,000 -->
      <g transform="translate(24.749375 230.091888)scale(0.14 -0.14)">
       <use xlink:href="#DejaVuSans-53"/>
       <use x="63.623047" xlink:href="#DejaVuSans-48"/>
       <use x="127.246094" xlink:href="#DejaVuSans-48"/>
       <use x="190.869141" xlink:href="#DejaVuSans-44"/>
       <use x="222.65625" xlink:href="#DejaVuSans-48"/>
       <use x="286.279297" xlink:href="#DejaVuSans-48"/>
       <use x="349.902344" xlink:href="#DejaVuSans-48"/>
      </g>
     </g>
    </g>
    <g id="ytick_7">
     <g id="line2d_33">
      <path clip-path="url(#p254196b5dd)" d="M 89.64375 150.783578 
L 596.916477 150.783578 
" style="fill:none;stroke:#d3d3d3;stroke-linecap:square;stroke-width:0.8;"/>
     </g>
     <g id="line2d_34">
      <g>
       <use style="stroke:#000000;stroke-width:0.8;" x="89.64375" xlink:href="#m061afe1d37" y="150.783578"/>
      </g>
     </g>
     <g id="text_17">
      <!-- 600,000 -->
      <defs>
       <path d="M 33.015625 40.375 
Q 26.375 40.375 22.484375 35.828125 
Q 18.609375 31.296875 18.609375 23.390625 
Q 18.609375 15.53125 22.484375 10.953125 
Q 26.375 6.390625 33.015625 6.390625 
Q 39.65625 6.390625 43.53125 10.953125 
Q 47.40625 15.53125 47.40625 23.390625 
Q 47.40625 31.296875 43.53125 35.828125 
Q 39.65625 40.375 33.015625 40.375 
z
M 52.59375 71.296875 
L 52.59375 62.3125 
Q 48.875 64.0625 45.09375 64.984375 
Q 41.3125 65.921875 37.59375 65.921875 
Q 27.828125 65.921875 22.671875 59.328125 
Q 17.53125 52.734375 16.796875 39.40625 
Q 19.671875 43.65625 24.015625 45.921875 
Q 28.375 48.1875 33.59375 48.1875 
Q 44.578125 48.1875 50.953125 41.515625 
Q 57.328125 34.859375 57.328125 23.390625 
Q 57.328125 12.15625 50.6875 5.359375 
Q 44.046875 -1.421875 33.015625 -1.421875 
Q 20.359375 -1.421875 13.671875 8.265625 
Q 6.984375 17.96875 6.984375 36.375 
Q 6.984375 53.65625 15.1875 63.9375 
Q 23.390625 74.21875 37.203125 74.21875 
Q 40.921875 74.21875 44.703125 73.484375 
Q 48.484375 72.75 52.59375 71.296875 
z
" id="DejaVuSans-54"/>
      </defs>
      <g transform="translate(24.749375 156.102484)scale(0.14 -0.14)">
       <use xlink:href="#DejaVuSans-54"/>
       <use x="63.623047" xlink:href="#DejaVuSans-48"/>
       <use x="127.246094" xlink:href="#DejaVuSans-48"/>
       <use x="190.869141" xlink:href="#DejaVuSans-44"/>
       <use x="222.65625" xlink:href="#DejaVuSans-48"/>
       <use x="286.279297" xlink:href="#DejaVuSans-48"/>
       <use x="349.902344" xlink:href="#DejaVuSans-48"/>
      </g>
     </g>
    </g>
    <g id="ytick_8">
     <g id="line2d_35">
      <path clip-path="url(#p254196b5dd)" d="M 89.64375 76.794174 
L 596.916477 76.794174 
" style="fill:none;stroke:#d3d3d3;stroke-linecap:square;stroke-width:0.8;"/>
     </g>
     <g id="line2d_36">
      <g>
       <use style="stroke:#000000;stroke-width:0.8;" x="89.64375" xlink:href="#m061afe1d37" y="76.794174"/>
      </g>
     </g>
     <g id="text_18">
      <!-- 700,000 -->
      <g transform="translate(24.749375 82.11308)scale(0.14 -0.14)">
       <use xlink:href="#DejaVuSans-55"/>
       <use x="63.623047" xlink:href="#DejaVuSans-48"/>
       <use x="127.246094" xlink:href="#DejaVuSans-48"/>
       <use x="190.869141" xlink:href="#DejaVuSans-44"/>
       <use x="222.65625" xlink:href="#DejaVuSans-48"/>
       <use x="286.279297" xlink:href="#DejaVuSans-48"/>
       <use x="349.902344" xlink:href="#DejaVuSans-48"/>
      </g>
     </g>
    </g>
    <g id="text_19">
     <!-- Total manuscripts -->
     <defs>
      <path d="M -0.296875 72.90625 
L 61.375 72.90625 
L 61.375 64.59375 
L 35.5 64.59375 
L 35.5 0 
L 25.59375 0 
L 25.59375 64.59375 
L -0.296875 64.59375 
z
" id="DejaVuSans-84"/>
      <path d="M 30.609375 48.390625 
Q 23.390625 48.390625 19.1875 42.75 
Q 14.984375 37.109375 14.984375 27.296875 
Q 14.984375 17.484375 19.15625 11.84375 
Q 23.34375 6.203125 30.609375 6.203125 
Q 37.796875 6.203125 41.984375 11.859375 
Q 46.1875 17.53125 46.1875 27.296875 
Q 46.1875 37.015625 41.984375 42.703125 
Q 37.796875 48.390625 30.609375 48.390625 
z
M 30.609375 56 
Q 42.328125 56 49.015625 48.375 
Q 55.71875 40.765625 55.71875 27.296875 
Q 55.71875 13.875 49.015625 6.21875 
Q 42.328125 -1.421875 30.609375 -1.421875 
Q 18.84375 -1.421875 12.171875 6.21875 
Q 5.515625 13.875 5.515625 27.296875 
Q 5.515625 40.765625 12.171875 48.375 
Q 18.84375 56 30.609375 56 
z
" id="DejaVuSans-111"/>
      <path d="M 18.3125 70.21875 
L 18.3125 54.6875 
L 36.8125 54.6875 
L 36.8125 47.703125 
L 18.3125 47.703125 
L 18.3125 18.015625 
Q 18.3125 11.328125 20.140625 9.421875 
Q 21.96875 7.515625 27.59375 7.515625 
L 36.8125 7.515625 
L 36.8125 0 
L 27.59375 0 
Q 17.1875 0 13.234375 3.875 
Q 9.28125 7.765625 9.28125 18.015625 
L 9.28125 47.703125 
L 2.6875 47.703125 
L 2.6875 54.6875 
L 9.28125 54.6875 
L 9.28125 70.21875 
z
" id="DejaVuSans-116"/>
      <path d="M 34.28125 27.484375 
Q 23.390625 27.484375 19.1875 25 
Q 14.984375 22.515625 14.984375 16.5 
Q 14.984375 11.71875 18.140625 8.90625 
Q 21.296875 6.109375 26.703125 6.109375 
Q 34.1875 6.109375 38.703125 11.40625 
Q 43.21875 16.703125 43.21875 25.484375 
L 43.21875 27.484375 
z
M 52.203125 31.203125 
L 52.203125 0 
L 43.21875 0 
L 43.21875 8.296875 
Q 40.140625 3.328125 35.546875 0.953125 
Q 30.953125 -1.421875 24.3125 -1.421875 
Q 15.921875 -1.421875 10.953125 3.296875 
Q 6 8.015625 6 15.921875 
Q 6 25.140625 12.171875 29.828125 
Q 18.359375 34.515625 30.609375 34.515625 
L 43.21875 34.515625 
L 43.21875 35.40625 
Q 43.21875 41.609375 39.140625 45 
Q 35.0625 48.390625 27.6875 48.390625 
Q 23 48.390625 18.546875 47.265625 
Q 14.109375 46.140625 10.015625 43.890625 
L 10.015625 52.203125 
Q 14.9375 54.109375 19.578125 55.046875 
Q 24.21875 56 28.609375 56 
Q 40.484375 56 46.34375 49.84375 
Q 52.203125 43.703125 52.203125 31.203125 
z
" id="DejaVuSans-97"/>
      <path d="M 9.421875 75.984375 
L 18.40625 75.984375 
L 18.40625 0 
L 9.421875 0 
z
" id="DejaVuSans-108"/>
      <path id="DejaVuSans-32"/>
      <path d="M 52 44.1875 
Q 55.375 50.25 60.0625 53.125 
Q 64.75 56 71.09375 56 
Q 79.640625 56 84.28125 50.015625 
Q 88.921875 44.046875 88.921875 33.015625 
L 88.921875 0 
L 79.890625 0 
L 79.890625 32.71875 
Q 79.890625 40.578125 77.09375 44.375 
Q 74.3125 48.1875 68.609375 48.1875 
Q 61.625 48.1875 57.5625 43.546875 
Q 53.515625 38.921875 53.515625 30.90625 
L 53.515625 0 
L 44.484375 0 
L 44.484375 32.71875 
Q 44.484375 40.625 41.703125 44.40625 
Q 38.921875 48.1875 33.109375 48.1875 
Q 26.21875 48.1875 22.15625 43.53125 
Q 18.109375 38.875 18.109375 30.90625 
L 18.109375 0 
L 9.078125 0 
L 9.078125 54.6875 
L 18.109375 54.6875 
L 18.109375 46.1875 
Q 21.1875 51.21875 25.484375 53.609375 
Q 29.78125 56 35.6875 56 
Q 41.65625 56 45.828125 52.96875 
Q 50 49.953125 52 44.1875 
z
" id="DejaVuSans-109"/>
      <path d="M 54.890625 33.015625 
L 54.890625 0 
L 45.90625 0 
L 45.90625 32.71875 
Q 45.90625 40.484375 42.875 44.328125 
Q 39.84375 48.1875 33.796875 48.1875 
Q 26.515625 48.1875 22.3125 43.546875 
Q 18.109375 38.921875 18.109375 30.90625 
L 18.109375 0 
L 9.078125 0 
L 9.078125 54.6875 
L 18.109375 54.6875 
L 18.109375 46.1875 
Q 21.34375 51.125 25.703125 53.5625 
Q 30.078125 56 35.796875 56 
Q 45.21875 56 50.046875 50.171875 
Q 54.890625 44.34375 54.890625 33.015625 
z
" id="DejaVuSans-110"/>
      <path d="M 8.5 21.578125 
L 8.5 54.6875 
L 17.484375 54.6875 
L 17.484375 21.921875 
Q 17.484375 14.15625 20.5 10.265625 
Q 23.53125 6.390625 29.59375 6.390625 
Q 36.859375 6.390625 41.078125 11.03125 
Q 45.3125 15.671875 45.3125 23.6875 
L 45.3125 54.6875 
L 54.296875 54.6875 
L 54.296875 0 
L 45.3125 0 
L 45.3125 8.40625 
Q 42.046875 3.421875 37.71875 1 
Q 33.40625 -1.421875 27.6875 -1.421875 
Q 18.265625 -1.421875 13.375 4.4375 
Q 8.5 10.296875 8.5 21.578125 
z
M 31.109375 56 
z
" id="DejaVuSans-117"/>
      <path d="M 44.28125 53.078125 
L 44.28125 44.578125 
Q 40.484375 46.53125 36.375 47.5 
Q 32.28125 48.484375 27.875 48.484375 
Q 21.1875 48.484375 17.84375 46.4375 
Q 14.5 44.390625 14.5 40.28125 
Q 14.5 37.15625 16.890625 35.375 
Q 19.28125 33.59375 26.515625 31.984375 
L 29.59375 31.296875 
Q 39.15625 29.25 43.1875 25.515625 
Q 47.21875 21.78125 47.21875 15.09375 
Q 47.21875 7.46875 41.1875 3.015625 
Q 35.15625 -1.421875 24.609375 -1.421875 
Q 20.21875 -1.421875 15.453125 -0.5625 
Q 10.6875 0.296875 5.421875 2 
L 5.421875 11.28125 
Q 10.40625 8.6875 15.234375 7.390625 
Q 20.0625 6.109375 24.8125 6.109375 
Q 31.15625 6.109375 34.5625 8.28125 
Q 37.984375 10.453125 37.984375 14.40625 
Q 37.984375 18.0625 35.515625 20.015625 
Q 33.0625 21.96875 24.703125 23.78125 
L 21.578125 24.515625 
Q 13.234375 26.265625 9.515625 29.90625 
Q 5.8125 33.546875 5.8125 39.890625 
Q 5.8125 47.609375 11.28125 51.796875 
Q 16.75 56 26.8125 56 
Q 31.78125 56 36.171875 55.265625 
Q 40.578125 54.546875 44.28125 53.078125 
z
" id="DejaVuSans-115"/>
      <path d="M 48.78125 52.59375 
L 48.78125 44.1875 
Q 44.96875 46.296875 41.140625 47.34375 
Q 37.3125 48.390625 33.40625 48.390625 
Q 24.65625 48.390625 19.8125 42.84375 
Q 14.984375 37.3125 14.984375 27.296875 
Q 14.984375 17.28125 19.8125 11.734375 
Q 24.65625 6.203125 33.40625 6.203125 
Q 37.3125 6.203125 41.140625 7.25 
Q 44.96875 8.296875 48.78125 10.40625 
L 48.78125 2.09375 
Q 45.015625 0.34375 40.984375 -0.53125 
Q 36.96875 -1.421875 32.421875 -1.421875 
Q 20.0625 -1.421875 12.78125 6.34375 
Q 5.515625 14.109375 5.515625 27.296875 
Q 5.515625 40.671875 12.859375 48.328125 
Q 20.21875 56 33.015625 56 
Q 37.15625 56 41.109375 55.140625 
Q 45.0625 54.296875 48.78125 52.59375 
z
" id="DejaVuSans-99"/>
      <path d="M 41.109375 46.296875 
Q 39.59375 47.171875 37.8125 47.578125 
Q 36.03125 48 33.890625 48 
Q 26.265625 48 22.1875 43.046875 
Q 18.109375 38.09375 18.109375 28.8125 
L 18.109375 0 
L 9.078125 0 
L 9.078125 54.6875 
L 18.109375 54.6875 
L 18.109375 46.1875 
Q 20.953125 51.171875 25.484375 53.578125 
Q 30.03125 56 36.53125 56 
Q 37.453125 56 38.578125 55.875 
Q 39.703125 55.765625 41.0625 55.515625 
z
" id="DejaVuSans-114"/>
      <path d="M 9.421875 54.6875 
L 18.40625 54.6875 
L 18.40625 0 
L 9.421875 0 
z
M 9.421875 75.984375 
L 18.40625 75.984375 
L 18.40625 64.59375 
L 9.421875 64.59375 
z
" id="DejaVuSans-105"/>
      <path d="M 18.109375 8.203125 
L 18.109375 -20.796875 
L 9.078125 -20.796875 
L 9.078125 54.6875 
L 18.109375 54.6875 
L 18.109375 46.390625 
Q 20.953125 51.265625 25.265625 53.625 
Q 29.59375 56 35.59375 56 
Q 45.5625 56 51.78125 48.09375 
Q 58.015625 40.1875 58.015625 27.296875 
Q 58.015625 14.40625 51.78125 6.484375 
Q 45.5625 -1.421875 35.59375 -1.421875 
Q 29.59375 -1.421875 25.265625 0.953125 
Q 20.953125 3.328125 18.109375 8.203125 
z
M 48.6875 27.296875 
Q 48.6875 37.203125 44.609375 42.84375 
Q 40.53125 48.484375 33.40625 48.484375 
Q 26.265625 48.484375 22.1875 42.84375 
Q 18.109375 37.203125 18.109375 27.296875 
Q 18.109375 17.390625 22.1875 11.75 
Q 26.265625 6.109375 33.40625 6.109375 
Q 40.53125 6.109375 44.609375 11.75 
Q 48.6875 17.390625 48.6875 27.296875 
z
" id="DejaVuSans-112"/>
     </defs>
     <g transform="translate(17.837813 363.836406)rotate(-90)scale(0.14 -0.14)">
      <use xlink:href="#DejaVuSans-84"/>
      <use x="60.818359" xlink:href="#DejaVuSans-111"/>
      <use x="122" xlink:href="#DejaVuSans-116"/>
      <use x="161.208984" xlink:href="#DejaVuSans-97"/>
      <use x="222.488281" xlink:href="#DejaVuSans-108"/>
      <use x="250.271484" xlink:href="#DejaVuSans-32"/>
      <use x="282.058594" xlink:href="#DejaVuSans-109"/>
      <use x="379.470703" xlink:href="#DejaVuSans-97"/>
      <use x="440.75" xlink:href="#DejaVuSans-110"/>
      <use x="504.128906" xlink:href="#DejaVuSans-117"/>
      <use x="567.507812" xlink:href="#DejaVuSans-115"/>
      <use x="619.607422" xlink:href="#DejaVuSans-99"/>
      <use x="674.587891" xlink:href="#DejaVuSans-114"/>
      <use x="715.701172" xlink:href="#DejaVuSans-105"/>
      <use x="743.484375" xlink:href="#DejaVuSans-112"/>
      <use x="806.960938" xlink:href="#DejaVuSans-116"/>
      <use x="846.169922" xlink:href="#DejaVuSans-115"/>
     </g>
    </g>
   </g>
   <g id="line2d_37">
    <path clip-path="url(#p254196b5dd)" d="M 112.701601 562.001886 
L 125.093537 559.724492 
L 131.289504 556.927692 
L 137.485472 555.951032 
L 143.68144 552.275239 
L 149.877407 550.409966 
L 159.613928 547.684196 
L 165.809896 499.649535 
L 172.005864 495.421781 
L 172.891002 494.044838 
L 173.77614 493.113311 
L 174.661278 492.017528 
L 175.546417 491.829595 
L 176.431555 491.17035 
L 178.201831 490.314292 
L 179.086969 494.724061 
L 179.972108 494.24017 
L 180.857246 494.03374 
L 181.742384 493.993785 
L 182.627522 493.663053 
L 183.512661 493.05042 
L 184.397799 492.027147 
L 185.282937 491.288733 
L 186.168075 490.765628 
L 187.053214 490.557717 
L 188.82349 489.332453 
L 189.708628 488.985443 
L 190.593767 486.307026 
L 191.478905 478.265118 
L 192.364043 478.029832 
L 194.13432 477.283279 
L 195.904596 477.116063 
L 196.789734 476.073552 
L 197.674873 476.276283 
L 198.560011 475.17976 
L 199.445149 473.71477 
L 200.330287 473.49946 
L 201.215426 470.809946 
L 202.100564 470.549503 
L 202.985702 469.915414 
L 203.87084 469.070455 
L 205.641117 461.42587 
L 206.526255 460.461788 
L 207.411393 460.223542 
L 208.296532 459.8166 
L 209.18167 459.215066 
L 210.066808 457.892136 
L 210.951946 457.037558 
L 211.837084 456.412348 
L 212.722223 456.144506 
L 213.607361 455.665794 
L 215.377637 453.661422 
L 216.262776 453.137577 
L 217.147914 452.283739 
L 223.343882 448.125534 
L 226.884435 447.413016 
L 227.769573 445.158559 
L 228.654711 444.426804 
L 229.539849 444.135286 
L 230.424988 443.172684 
L 233.080402 441.331827 
L 233.965541 441.121697 
L 235.735817 439.042595 
L 236.620955 438.429963 
L 237.506094 438.944929 
L 241.046647 436.967192 
L 241.931785 435.252858 
L 242.816923 434.47153 
L 243.702061 428.500585 
L 244.5872 427.051133 
L 246.357476 426.432581 
L 248.127752 424.62428 
L 249.012891 424.305386 
L 250.783167 422.114559 
L 251.668305 421.925887 
L 252.553444 421.374665 
L 255.208858 418.126531 
L 256.093997 417.885325 
L 258.749411 415.5443 
L 259.63455 414.317556 
L 260.519688 413.403787 
L 264.945379 409.624408 
L 265.830517 408.464254 
L 267.600794 407.190897 
L 270.256209 401.50925 
L 271.141347 400.486717 
L 272.026485 397.854174 
L 272.911623 397.778705 
L 273.796762 396.307055 
L 274.6819 394.257549 
L 275.567038 392.699332 
L 276.452176 392.418912 
L 277.337315 391.964617 
L 278.222453 391.049368 
L 279.107591 389.756034 
L 279.992729 387.938114 
L 281.763006 386.051384 
L 282.648144 385.541597 
L 285.303559 383.876096 
L 287.073835 382.556865 
L 287.958973 382.070754 
L 288.844112 381.75186 
L 290.614388 380.280211 
L 291.499526 377.488591 
L 292.384665 376.790131 
L 293.269803 372.88423 
L 294.154941 371.518386 
L 295.040079 370.939788 
L 297.695494 368.790396 
L 298.580632 367.773042 
L 299.465771 367.308388 
L 300.350909 365.941804 
L 301.236047 365.852277 
L 302.121185 364.735777 
L 303.006324 364.15718 
L 303.891462 362.392533 
L 304.7766 360.951959 
L 305.661738 360.061866 
L 306.546877 359.332331 
L 307.432015 358.8514 
L 309.202291 357.570643 
L 310.08743 356.147827 
L 311.857706 349.962313 
L 312.742844 348.736308 
L 313.627982 348.44183 
L 314.513121 347.977917 
L 315.398259 347.386742 
L 317.168535 343.724266 
L 318.938812 341.888589 
L 319.82395 341.587452 
L 320.709088 341.11096 
L 322.479365 338.958609 
L 323.364503 338.525031 
L 324.249641 332.424604 
L 325.13478 331.652155 
L 326.019918 331.47458 
L 326.905056 331.033604 
L 327.790194 330.08062 
L 328.675333 329.580452 
L 329.560471 328.865714 
L 331.330747 327.238687 
L 332.215886 326.781433 
L 333.101024 326.515071 
L 335.756439 323.004273 
L 336.641577 322.700177 
L 337.526715 321.98174 
L 339.296992 320.738718 
L 341.067268 319.010325 
L 341.952406 318.327403 
L 342.837545 317.992971 
L 343.722683 317.339645 
L 344.607821 317.190186 
L 345.492959 316.473969 
L 346.378097 315.552061 
L 347.263236 314.85878 
L 348.148374 313.871761 
L 349.033512 313.579503 
L 349.91865 312.215879 
L 353.459203 307.606339 
L 354.344342 306.096955 
L 356.114618 304.616427 
L 356.999756 304.361903 
L 357.884895 303.96532 
L 358.770033 302.675685 
L 359.655171 301.906935 
L 360.540309 301.875859 
L 364.966001 300.700908 
L 365.851139 298.674338 
L 366.736277 298.674338 
L 367.621415 298.467907 
L 369.391692 298.44645 
L 371.161968 297.714695 
L 372.047107 290.504428 
L 372.932245 289.146722 
L 373.817383 288.389071 
L 374.702521 286.776842 
L 376.472798 286.079122 
L 378.243074 284.079928 
L 380.013351 280.471465 
L 380.898489 279.777444 
L 381.783627 279.676079 
L 382.668765 278.717916 
L 383.553904 278.226626 
L 384.439042 277.916611 
L 385.32418 276.697265 
L 387.094457 274.668476 
L 387.979595 274.234158 
L 388.864733 274.030687 
L 390.63501 270.075214 
L 391.520148 269.81847 
L 392.405286 268.834411 
L 393.290424 268.684213 
L 394.175563 268.329064 
L 400.37153 261.482824 
L 406.567498 253.798285 
L 412.763466 248.804 
L 418.959433 241.956281 
L 425.155401 237.927558 
L 437.547337 231.503058 
L 443.743304 226.32232 
L 449.939272 208.37767 
L 457.020378 202.834383 
L 462.331207 197.532303 
L 468.527175 191.917247 
L 474.723143 185.61187 
L 480.91911 174.57561 
L 487.115078 166.13268 
L 493.311046 159.691162 
L 499.507014 151.067697 
L 511.898949 113.102254 
L 518.094917 106.758403 
L 524.290884 99.158951 
L 530.486852 90.374189 
L 536.68282 83.24679 
L 542.878788 70.019704 
L 549.074755 63.112054 
L 555.270723 54.779367 
L 561.466691 46.974965 
L 570.318073 40.760595 
L 573.858626 33.619137 
L 573.858626 33.619137 
" style="fill:none;stroke:#1f77b4;stroke-linecap:square;stroke-width:3;"/>
   </g>
   <g id="patch_3">
    <path d="M 89.64375 594.72 
L 89.64375 7.2 
" style="fill:none;stroke:#000000;stroke-linecap:square;stroke-linejoin:miter;stroke-width:0.8;"/>
   </g>
   <g id="patch_4">
    <path d="M 89.64375 594.72 
L 596.916477 594.72 
" style="fill:none;stroke:#000000;stroke-linecap:square;stroke-linejoin:miter;stroke-width:0.8;"/>
   </g>
  </g>
  <g id="axes_2">
   <g id="patch_5">
    <path d="M 698.371023 594.72 
L 1205.64375 594.72 
L 1205.64375 7.2 
L 698.371023 7.2 
z
" style="fill:#ffffff;"/>
   </g>
   <g id="matplotlib.axis_3">
    <g id="xtick_11">
     <g id="line2d_38">
      <path clip-path="url(#p485b23e85f)" d="M 704.611247 594.72 
L 704.611247 7.2 
" style="fill:none;stroke:#d3d3d3;stroke-linecap:square;stroke-width:0.8;"/>
     </g>
     <g id="line2d_39">
      <g>
       <use style="stroke:#000000;stroke-width:0.8;" x="704.611247" xlink:href="#m4d4b9d6fc6" y="594.72"/>
      </g>
     </g>
     <g id="text_20">
      <!-- 2020-03 -->
      <g transform="translate(652.496498 640.180585)rotate(-30)scale(0.14 -0.14)">
       <use xlink:href="#DejaVuSans-50"/>
       <use x="63.623047" xlink:href="#DejaVuSans-48"/>
       <use x="127.246094" xlink:href="#DejaVuSans-50"/>
       <use x="190.869141" xlink:href="#DejaVuSans-48"/>
       <use x="254.492188" xlink:href="#DejaVuSans-45"/>
       <use x="290.576172" xlink:href="#DejaVuSans-48"/>
       <use x="354.199219" xlink:href="#DejaVuSans-51"/>
      </g>
     </g>
    </g>
    <g id="xtick_12">
     <g id="line2d_40">
      <path clip-path="url(#p485b23e85f)" d="M 758.60468 594.72 
L 758.60468 7.2 
" style="fill:none;stroke:#d3d3d3;stroke-linecap:square;stroke-width:0.8;"/>
     </g>
     <g id="line2d_41">
      <g>
       <use style="stroke:#000000;stroke-width:0.8;" x="758.60468" xlink:href="#m4d4b9d6fc6" y="594.72"/>
      </g>
     </g>
     <g id="text_21">
      <!-- 2020-05 -->
      <g transform="translate(706.489931 640.180585)rotate(-30)scale(0.14 -0.14)">
       <use xlink:href="#DejaVuSans-50"/>
       <use x="63.623047" xlink:href="#DejaVuSans-48"/>
       <use x="127.246094" xlink:href="#DejaVuSans-50"/>
       <use x="190.869141" xlink:href="#DejaVuSans-48"/>
       <use x="254.492188" xlink:href="#DejaVuSans-45"/>
       <use x="290.576172" xlink:href="#DejaVuSans-48"/>
       <use x="354.199219" xlink:href="#DejaVuSans-53"/>
      </g>
     </g>
    </g>
    <g id="xtick_13">
     <g id="line2d_42">
      <path clip-path="url(#p485b23e85f)" d="M 812.598113 594.72 
L 812.598113 7.2 
" style="fill:none;stroke:#d3d3d3;stroke-linecap:square;stroke-width:0.8;"/>
     </g>
     <g id="line2d_43">
      <g>
       <use style="stroke:#000000;stroke-width:0.8;" x="812.598113" xlink:href="#m4d4b9d6fc6" y="594.72"/>
      </g>
     </g>
     <g id="text_22">
      <!-- 2020-07 -->
      <g transform="translate(760.483364 640.180585)rotate(-30)scale(0.14 -0.14)">
       <use xlink:href="#DejaVuSans-50"/>
       <use x="63.623047" xlink:href="#DejaVuSans-48"/>
       <use x="127.246094" xlink:href="#DejaVuSans-50"/>
       <use x="190.869141" xlink:href="#DejaVuSans-48"/>
       <use x="254.492188" xlink:href="#DejaVuSans-45"/>
       <use x="290.576172" xlink:href="#DejaVuSans-48"/>
       <use x="354.199219" xlink:href="#DejaVuSans-55"/>
      </g>
     </g>
    </g>
    <g id="xtick_14">
     <g id="line2d_44">
      <path clip-path="url(#p485b23e85f)" d="M 867.476684 594.72 
L 867.476684 7.2 
" style="fill:none;stroke:#d3d3d3;stroke-linecap:square;stroke-width:0.8;"/>
     </g>
     <g id="line2d_45">
      <g>
       <use style="stroke:#000000;stroke-width:0.8;" x="867.476684" xlink:href="#m4d4b9d6fc6" y="594.72"/>
      </g>
     </g>
     <g id="text_23">
      <!-- 2020-09 -->
      <g transform="translate(815.361935 640.180585)rotate(-30)scale(0.14 -0.14)">
       <use xlink:href="#DejaVuSans-50"/>
       <use x="63.623047" xlink:href="#DejaVuSans-48"/>
       <use x="127.246094" xlink:href="#DejaVuSans-50"/>
       <use x="190.869141" xlink:href="#DejaVuSans-48"/>
       <use x="254.492188" xlink:href="#DejaVuSans-45"/>
       <use x="290.576172" xlink:href="#DejaVuSans-48"/>
       <use x="354.199219" xlink:href="#DejaVuSans-57"/>
      </g>
     </g>
    </g>
    <g id="xtick_15">
     <g id="line2d_46">
      <path clip-path="url(#p485b23e85f)" d="M 921.470117 594.72 
L 921.470117 7.2 
" style="fill:none;stroke:#d3d3d3;stroke-linecap:square;stroke-width:0.8;"/>
     </g>
     <g id="line2d_47">
      <g>
       <use style="stroke:#000000;stroke-width:0.8;" x="921.470117" xlink:href="#m4d4b9d6fc6" y="594.72"/>
      </g>
     </g>
     <g id="text_24">
      <!-- 2020-11 -->
      <g transform="translate(869.355368 640.180585)rotate(-30)scale(0.14 -0.14)">
       <use xlink:href="#DejaVuSans-50"/>
       <use x="63.623047" xlink:href="#DejaVuSans-48"/>
       <use x="127.246094" xlink:href="#DejaVuSans-50"/>
       <use x="190.869141" xlink:href="#DejaVuSans-48"/>
       <use x="254.492188" xlink:href="#DejaVuSans-45"/>
       <use x="290.576172" xlink:href="#DejaVuSans-49"/>
       <use x="354.199219" xlink:href="#DejaVuSans-49"/>
      </g>
     </g>
    </g>
    <g id="xtick_16">
     <g id="line2d_48">
      <path clip-path="url(#p485b23e85f)" d="M 975.46355 594.72 
L 975.46355 7.2 
" style="fill:none;stroke:#d3d3d3;stroke-linecap:square;stroke-width:0.8;"/>
     </g>
     <g id="line2d_49">
      <g>
       <use style="stroke:#000000;stroke-width:0.8;" x="975.46355" xlink:href="#m4d4b9d6fc6" y="594.72"/>
      </g>
     </g>
     <g id="text_25">
      <!-- 2021-01 -->
      <g transform="translate(923.348801 640.180585)rotate(-30)scale(0.14 -0.14)">
       <use xlink:href="#DejaVuSans-50"/>
       <use x="63.623047" xlink:href="#DejaVuSans-48"/>
       <use x="127.246094" xlink:href="#DejaVuSans-50"/>
       <use x="190.869141" xlink:href="#DejaVuSans-49"/>
       <use x="254.492188" xlink:href="#DejaVuSans-45"/>
       <use x="290.576172" xlink:href="#DejaVuSans-48"/>
       <use x="354.199219" xlink:href="#DejaVuSans-49"/>
      </g>
     </g>
    </g>
    <g id="xtick_17">
     <g id="line2d_50">
      <path clip-path="url(#p485b23e85f)" d="M 1027.686706 594.72 
L 1027.686706 7.2 
" style="fill:none;stroke:#d3d3d3;stroke-linecap:square;stroke-width:0.8;"/>
     </g>
     <g id="line2d_51">
      <g>
       <use style="stroke:#000000;stroke-width:0.8;" x="1027.686706" xlink:href="#m4d4b9d6fc6" y="594.72"/>
      </g>
     </g>
     <g id="text_26">
      <!-- 2021-03 -->
      <g transform="translate(975.571957 640.180585)rotate(-30)scale(0.14 -0.14)">
       <use xlink:href="#DejaVuSans-50"/>
       <use x="63.623047" xlink:href="#DejaVuSans-48"/>
       <use x="127.246094" xlink:href="#DejaVuSans-50"/>
       <use x="190.869141" xlink:href="#DejaVuSans-49"/>
       <use x="254.492188" xlink:href="#DejaVuSans-45"/>
       <use x="290.576172" xlink:href="#DejaVuSans-48"/>
       <use x="354.199219" xlink:href="#DejaVuSans-51"/>
      </g>
     </g>
    </g>
    <g id="xtick_18">
     <g id="line2d_52">
      <path clip-path="url(#p485b23e85f)" d="M 1081.680139 594.72 
L 1081.680139 7.2 
" style="fill:none;stroke:#d3d3d3;stroke-linecap:square;stroke-width:0.8;"/>
     </g>
     <g id="line2d_53">
      <g>
       <use style="stroke:#000000;stroke-width:0.8;" x="1081.680139" xlink:href="#m4d4b9d6fc6" y="594.72"/>
      </g>
     </g>
     <g id="text_27">
      <!-- 2021-05 -->
      <g transform="translate(1029.56539 640.180585)rotate(-30)scale(0.14 -0.14)">
       <use xlink:href="#DejaVuSans-50"/>
       <use x="63.623047" xlink:href="#DejaVuSans-48"/>
       <use x="127.246094" xlink:href="#DejaVuSans-50"/>
       <use x="190.869141" xlink:href="#DejaVuSans-49"/>
       <use x="254.492188" xlink:href="#DejaVuSans-45"/>
       <use x="290.576172" xlink:href="#DejaVuSans-48"/>
       <use x="354.199219" xlink:href="#DejaVuSans-53"/>
      </g>
     </g>
    </g>
    <g id="xtick_19">
     <g id="line2d_54">
      <path clip-path="url(#p485b23e85f)" d="M 1135.673572 594.72 
L 1135.673572 7.2 
" style="fill:none;stroke:#d3d3d3;stroke-linecap:square;stroke-width:0.8;"/>
     </g>
     <g id="line2d_55">
      <g>
       <use style="stroke:#000000;stroke-width:0.8;" x="1135.673572" xlink:href="#m4d4b9d6fc6" y="594.72"/>
      </g>
     </g>
     <g id="text_28">
      <!-- 2021-07 -->
      <g transform="translate(1083.558823 640.180585)rotate(-30)scale(0.14 -0.14)">
       <use xlink:href="#DejaVuSans-50"/>
       <use x="63.623047" xlink:href="#DejaVuSans-48"/>
       <use x="127.246094" xlink:href="#DejaVuSans-50"/>
       <use x="190.869141" xlink:href="#DejaVuSans-49"/>
       <use x="254.492188" xlink:href="#DejaVuSans-45"/>
       <use x="290.576172" xlink:href="#DejaVuSans-48"/>
       <use x="354.199219" xlink:href="#DejaVuSans-55"/>
      </g>
     </g>
    </g>
    <g id="xtick_20">
     <g id="line2d_56">
      <path clip-path="url(#p485b23e85f)" d="M 1190.552143 594.72 
L 1190.552143 7.2 
" style="fill:none;stroke:#d3d3d3;stroke-linecap:square;stroke-width:0.8;"/>
     </g>
     <g id="line2d_57">
      <g>
       <use style="stroke:#000000;stroke-width:0.8;" x="1190.552143" xlink:href="#m4d4b9d6fc6" y="594.72"/>
      </g>
     </g>
     <g id="text_29">
      <!-- 2021-09 -->
      <g transform="translate(1138.437394 640.180585)rotate(-30)scale(0.14 -0.14)">
       <use xlink:href="#DejaVuSans-50"/>
       <use x="63.623047" xlink:href="#DejaVuSans-48"/>
       <use x="127.246094" xlink:href="#DejaVuSans-50"/>
       <use x="190.869141" xlink:href="#DejaVuSans-49"/>
       <use x="254.492188" xlink:href="#DejaVuSans-45"/>
       <use x="290.576172" xlink:href="#DejaVuSans-48"/>
       <use x="354.199219" xlink:href="#DejaVuSans-57"/>
      </g>
     </g>
    </g>
   </g>
   <g id="matplotlib.axis_4">
    <g id="ytick_9">
     <g id="line2d_58">
      <path clip-path="url(#p485b23e85f)" d="M 698.371023 594.72 
L 1205.64375 594.72 
" style="fill:none;stroke:#d3d3d3;stroke-linecap:square;stroke-width:0.8;"/>
     </g>
     <g id="line2d_59">
      <g>
       <use style="stroke:#000000;stroke-width:0.8;" x="698.371023" xlink:href="#m061afe1d37" y="594.72"/>
      </g>
     </g>
     <g id="text_30">
      <!-- 0 -->
      <g transform="translate(682.463523 600.038906)scale(0.14 -0.14)">
       <use xlink:href="#DejaVuSans-48"/>
      </g>
     </g>
    </g>
    <g id="ytick_10">
     <g id="line2d_60">
      <path clip-path="url(#p485b23e85f)" d="M 698.371023 519.997814 
L 1205.64375 519.997814 
" style="fill:none;stroke:#d3d3d3;stroke-linecap:square;stroke-width:0.8;"/>
     </g>
     <g id="line2d_61">
      <g>
       <use style="stroke:#000000;stroke-width:0.8;" x="698.371023" xlink:href="#m061afe1d37" y="519.997814"/>
      </g>
     </g>
     <g id="text_31">
      <!-- 2,000 -->
      <g transform="translate(651.291648 525.31672)scale(0.14 -0.14)">
       <use xlink:href="#DejaVuSans-50"/>
       <use x="63.623047" xlink:href="#DejaVuSans-44"/>
       <use x="95.410156" xlink:href="#DejaVuSans-48"/>
       <use x="159.033203" xlink:href="#DejaVuSans-48"/>
       <use x="222.65625" xlink:href="#DejaVuSans-48"/>
      </g>
     </g>
    </g>
    <g id="ytick_11">
     <g id="line2d_62">
      <path clip-path="url(#p485b23e85f)" d="M 698.371023 445.275628 
L 1205.64375 445.275628 
" style="fill:none;stroke:#d3d3d3;stroke-linecap:square;stroke-width:0.8;"/>
     </g>
     <g id="line2d_63">
      <g>
       <use style="stroke:#000000;stroke-width:0.8;" x="698.371023" xlink:href="#m061afe1d37" y="445.275628"/>
      </g>
     </g>
     <g id="text_32">
      <!-- 4,000 -->
      <g transform="translate(651.291648 450.594534)scale(0.14 -0.14)">
       <use xlink:href="#DejaVuSans-52"/>
       <use x="63.623047" xlink:href="#DejaVuSans-44"/>
       <use x="95.410156" xlink:href="#DejaVuSans-48"/>
       <use x="159.033203" xlink:href="#DejaVuSans-48"/>
       <use x="222.65625" xlink:href="#DejaVuSans-48"/>
      </g>
     </g>
    </g>
    <g id="ytick_12">
     <g id="line2d_64">
      <path clip-path="url(#p485b23e85f)" d="M 698.371023 370.553442 
L 1205.64375 370.553442 
" style="fill:none;stroke:#d3d3d3;stroke-linecap:square;stroke-width:0.8;"/>
     </g>
     <g id="line2d_65">
      <g>
       <use style="stroke:#000000;stroke-width:0.8;" x="698.371023" xlink:href="#m061afe1d37" y="370.553442"/>
      </g>
     </g>
     <g id="text_33">
      <!-- 6,000 -->
      <g transform="translate(651.291648 375.872348)scale(0.14 -0.14)">
       <use xlink:href="#DejaVuSans-54"/>
       <use x="63.623047" xlink:href="#DejaVuSans-44"/>
       <use x="95.410156" xlink:href="#DejaVuSans-48"/>
       <use x="159.033203" xlink:href="#DejaVuSans-48"/>
       <use x="222.65625" xlink:href="#DejaVuSans-48"/>
      </g>
     </g>
    </g>
    <g id="ytick_13">
     <g id="line2d_66">
      <path clip-path="url(#p485b23e85f)" d="M 698.371023 295.831256 
L 1205.64375 295.831256 
" style="fill:none;stroke:#d3d3d3;stroke-linecap:square;stroke-width:0.8;"/>
     </g>
     <g id="line2d_67">
      <g>
       <use style="stroke:#000000;stroke-width:0.8;" x="698.371023" xlink:href="#m061afe1d37" y="295.831256"/>
      </g>
     </g>
     <g id="text_34">
      <!-- 8,000 -->
      <defs>
       <path d="M 31.78125 34.625 
Q 24.75 34.625 20.71875 30.859375 
Q 16.703125 27.09375 16.703125 20.515625 
Q 16.703125 13.921875 20.71875 10.15625 
Q 24.75 6.390625 31.78125 6.390625 
Q 38.8125 6.390625 42.859375 10.171875 
Q 46.921875 13.96875 46.921875 20.515625 
Q 46.921875 27.09375 42.890625 30.859375 
Q 38.875 34.625 31.78125 34.625 
z
M 21.921875 38.8125 
Q 15.578125 40.375 12.03125 44.71875 
Q 8.5 49.078125 8.5 55.328125 
Q 8.5 64.0625 14.71875 69.140625 
Q 20.953125 74.21875 31.78125 74.21875 
Q 42.671875 74.21875 48.875 69.140625 
Q 55.078125 64.0625 55.078125 55.328125 
Q 55.078125 49.078125 51.53125 44.71875 
Q 48 40.375 41.703125 38.8125 
Q 48.828125 37.15625 52.796875 32.3125 
Q 56.78125 27.484375 56.78125 20.515625 
Q 56.78125 9.90625 50.3125 4.234375 
Q 43.84375 -1.421875 31.78125 -1.421875 
Q 19.734375 -1.421875 13.25 4.234375 
Q 6.78125 9.90625 6.78125 20.515625 
Q 6.78125 27.484375 10.78125 32.3125 
Q 14.796875 37.15625 21.921875 38.8125 
z
M 18.3125 54.390625 
Q 18.3125 48.734375 21.84375 45.5625 
Q 25.390625 42.390625 31.78125 42.390625 
Q 38.140625 42.390625 41.71875 45.5625 
Q 45.3125 48.734375 45.3125 54.390625 
Q 45.3125 60.0625 41.71875 63.234375 
Q 38.140625 66.40625 31.78125 66.40625 
Q 25.390625 66.40625 21.84375 63.234375 
Q 18.3125 60.0625 18.3125 54.390625 
z
" id="DejaVuSans-56"/>
      </defs>
      <g transform="translate(651.291648 301.150162)scale(0.14 -0.14)">
       <use xlink:href="#DejaVuSans-56"/>
       <use x="63.623047" xlink:href="#DejaVuSans-44"/>
       <use x="95.410156" xlink:href="#DejaVuSans-48"/>
       <use x="159.033203" xlink:href="#DejaVuSans-48"/>
       <use x="222.65625" xlink:href="#DejaVuSans-48"/>
      </g>
     </g>
    </g>
    <g id="ytick_14">
     <g id="line2d_68">
      <path clip-path="url(#p485b23e85f)" d="M 698.371023 221.10907 
L 1205.64375 221.10907 
" style="fill:none;stroke:#d3d3d3;stroke-linecap:square;stroke-width:0.8;"/>
     </g>
     <g id="line2d_69">
      <g>
       <use style="stroke:#000000;stroke-width:0.8;" x="698.371023" xlink:href="#m061afe1d37" y="221.10907"/>
      </g>
     </g>
     <g id="text_35">
      <!-- 10,000 -->
      <g transform="translate(642.384148 226.427976)scale(0.14 -0.14)">
       <use xlink:href="#DejaVuSans-49"/>
       <use x="63.623047" xlink:href="#DejaVuSans-48"/>
       <use x="127.246094" xlink:href="#DejaVuSans-44"/>
       <use x="159.033203" xlink:href="#DejaVuSans-48"/>
       <use x="222.65625" xlink:href="#DejaVuSans-48"/>
       <use x="286.279297" xlink:href="#DejaVuSans-48"/>
      </g>
     </g>
    </g>
    <g id="ytick_15">
     <g id="line2d_70">
      <path clip-path="url(#p485b23e85f)" d="M 698.371023 146.386884 
L 1205.64375 146.386884 
" style="fill:none;stroke:#d3d3d3;stroke-linecap:square;stroke-width:0.8;"/>
     </g>
     <g id="line2d_71">
      <g>
       <use style="stroke:#000000;stroke-width:0.8;" x="698.371023" xlink:href="#m061afe1d37" y="146.386884"/>
      </g>
     </g>
     <g id="text_36">
      <!-- 12,000 -->
      <g transform="translate(642.384148 151.70579)scale(0.14 -0.14)">
       <use xlink:href="#DejaVuSans-49"/>
       <use x="63.623047" xlink:href="#DejaVuSans-50"/>
       <use x="127.246094" xlink:href="#DejaVuSans-44"/>
       <use x="159.033203" xlink:href="#DejaVuSans-48"/>
       <use x="222.65625" xlink:href="#DejaVuSans-48"/>
       <use x="286.279297" xlink:href="#DejaVuSans-48"/>
      </g>
     </g>
    </g>
    <g id="ytick_16">
     <g id="line2d_72">
      <path clip-path="url(#p485b23e85f)" d="M 698.371023 71.664698 
L 1205.64375 71.664698 
" style="fill:none;stroke:#d3d3d3;stroke-linecap:square;stroke-width:0.8;"/>
     </g>
     <g id="line2d_73">
      <g>
       <use style="stroke:#000000;stroke-width:0.8;" x="698.371023" xlink:href="#m061afe1d37" y="71.664698"/>
      </g>
     </g>
     <g id="text_37">
      <!-- 14,000 -->
      <g transform="translate(642.384148 76.983604)scale(0.14 -0.14)">
       <use xlink:href="#DejaVuSans-49"/>
       <use x="63.623047" xlink:href="#DejaVuSans-52"/>
       <use x="127.246094" xlink:href="#DejaVuSans-44"/>
       <use x="159.033203" xlink:href="#DejaVuSans-48"/>
       <use x="222.65625" xlink:href="#DejaVuSans-48"/>
       <use x="286.279297" xlink:href="#DejaVuSans-48"/>
      </g>
     </g>
    </g>
    <g id="text_38">
     <!-- Preprints -->
     <defs>
      <path d="M 19.671875 64.796875 
L 19.671875 37.40625 
L 32.078125 37.40625 
Q 38.96875 37.40625 42.71875 40.96875 
Q 46.484375 44.53125 46.484375 51.125 
Q 46.484375 57.671875 42.71875 61.234375 
Q 38.96875 64.796875 32.078125 64.796875 
z
M 9.8125 72.90625 
L 32.078125 72.90625 
Q 44.34375 72.90625 50.609375 67.359375 
Q 56.890625 61.8125 56.890625 51.125 
Q 56.890625 40.328125 50.609375 34.8125 
Q 44.34375 29.296875 32.078125 29.296875 
L 19.671875 29.296875 
L 19.671875 0 
L 9.8125 0 
z
" id="DejaVuSans-80"/>
      <path d="M 56.203125 29.59375 
L 56.203125 25.203125 
L 14.890625 25.203125 
Q 15.484375 15.921875 20.484375 11.0625 
Q 25.484375 6.203125 34.421875 6.203125 
Q 39.59375 6.203125 44.453125 7.46875 
Q 49.3125 8.734375 54.109375 11.28125 
L 54.109375 2.78125 
Q 49.265625 0.734375 44.1875 -0.34375 
Q 39.109375 -1.421875 33.890625 -1.421875 
Q 20.796875 -1.421875 13.15625 6.1875 
Q 5.515625 13.8125 5.515625 26.8125 
Q 5.515625 40.234375 12.765625 48.109375 
Q 20.015625 56 32.328125 56 
Q 43.359375 56 49.78125 48.890625 
Q 56.203125 41.796875 56.203125 29.59375 
z
M 47.21875 32.234375 
Q 47.125 39.59375 43.09375 43.984375 
Q 39.0625 48.390625 32.421875 48.390625 
Q 24.90625 48.390625 20.390625 44.140625 
Q 15.875 39.890625 15.1875 32.171875 
z
" id="DejaVuSans-101"/>
     </defs>
     <g transform="translate(635.472585 332.455625)rotate(-90)scale(0.14 -0.14)">
      <use xlink:href="#DejaVuSans-80"/>
      <use x="60.287109" xlink:href="#DejaVuSans-114"/>
      <use x="101.369141" xlink:href="#DejaVuSans-101"/>
      <use x="162.892578" xlink:href="#DejaVuSans-112"/>
      <use x="226.369141" xlink:href="#DejaVuSans-114"/>
      <use x="267.482422" xlink:href="#DejaVuSans-105"/>
      <use x="295.265625" xlink:href="#DejaVuSans-110"/>
      <use x="358.644531" xlink:href="#DejaVuSans-116"/>
      <use x="397.853516" xlink:href="#DejaVuSans-115"/>
     </g>
    </g>
   </g>
   <g id="line2d_74">
    <path clip-path="url(#p485b23e85f)" d="M 721.428874 588.144448 
L 727.624842 584.445699 
L 733.820809 579.775563 
L 740.016777 574.358204 
L 752.408712 564.98057 
L 758.60468 558.965434 
L 768.341201 551.605299 
L 774.537169 545.889051 
L 784.273689 537.819055 
L 786.043966 537.109195 
L 786.929104 536.025723 
L 788.69938 534.493918 
L 789.584519 533.634613 
L 792.239933 532.065447 
L 793.125072 530.944614 
L 794.895348 529.450171 
L 795.780486 528.254616 
L 796.665625 527.432671 
L 798.435901 526.834894 
L 799.321039 525.639339 
L 800.206178 524.705312 
L 801.091316 524.144895 
L 802.861592 522.501007 
L 804.631869 521.977952 
L 805.517007 521.342813 
L 806.402145 520.147258 
L 808.172422 518.652815 
L 809.05756 517.868232 
L 810.827837 517.12101 
L 812.598113 516.000177 
L 814.36839 514.318928 
L 815.253528 513.683789 
L 817.023804 512.67504 
L 817.908942 511.628929 
L 818.794081 510.881707 
L 819.679219 509.94768 
L 820.564357 509.424625 
L 821.449495 508.677403 
L 822.334634 508.266431 
L 823.219772 508.042264 
L 824.10491 507.631292 
L 824.990048 506.846709 
L 825.875187 505.912682 
L 829.41574 503.596294 
L 830.300878 502.699628 
L 831.186016 502.064489 
L 832.956293 500.271157 
L 833.841431 499.748102 
L 835.611707 498.888796 
L 838.267122 496.310881 
L 840.037399 494.480187 
L 841.807675 493.508799 
L 843.577952 491.902272 
L 844.46309 491.267133 
L 845.348228 490.407828 
L 846.233366 489.735329 
L 848.003643 489.399079 
L 848.888781 488.539774 
L 850.659057 487.157413 
L 851.544196 486.223386 
L 853.314472 485.364081 
L 854.19961 485.139914 
L 855.084749 484.430053 
L 856.855025 483.346582 
L 858.625302 481.889499 
L 859.51044 481.740055 
L 860.395578 481.403805 
L 863.050993 479.386306 
L 864.821269 477.667696 
L 867.476684 476.546863 
L 868.361822 475.949085 
L 869.246961 475.538113 
L 873.672652 472.773392 
L 874.55779 472.063532 
L 876.328067 470.344921 
L 879.86862 468.551589 
L 880.753758 468.177978 
L 881.638896 467.580201 
L 882.524034 466.720895 
L 883.409173 466.160479 
L 885.179449 465.562701 
L 886.064587 464.628674 
L 886.949725 463.918813 
L 887.834864 463.059508 
L 889.60514 462.237564 
L 890.490278 461.602426 
L 891.375417 461.191454 
L 895.801108 458.352011 
L 897.571384 457.791594 
L 901.997076 453.793957 
L 903.767352 452.85993 
L 905.537629 451.514931 
L 906.422767 451.14132 
L 907.307905 450.169931 
L 909.078182 449.310626 
L 909.96332 448.937015 
L 910.848458 448.152432 
L 911.733596 447.06896 
L 912.618735 446.471183 
L 914.389011 444.789934 
L 916.159288 444.042712 
L 917.044426 443.183407 
L 917.929564 442.025213 
L 921.470117 438.812159 
L 922.355255 438.401187 
L 923.240393 437.504521 
L 925.01067 436.533132 
L 925.895808 435.897994 
L 926.780946 435.07605 
L 928.551223 434.291467 
L 929.436361 433.618967 
L 933.862052 430.779524 
L 934.747191 430.480635 
L 936.517467 428.836747 
L 938.287744 427.715914 
L 940.05802 426.89397 
L 940.943158 426.781887 
L 941.828297 425.698415 
L 944.483711 423.905083 
L 946.253988 423.232583 
L 948.024264 421.999667 
L 949.794541 420.916195 
L 950.679679 419.907446 
L 951.564817 419.160224 
L 953.335094 418.637169 
L 955.10537 416.61967 
L 956.875647 415.013143 
L 957.760785 414.415365 
L 958.645923 414.041754 
L 962.186476 411.613283 
L 963.071614 410.8287 
L 963.956753 410.268284 
L 964.841891 409.969395 
L 965.727029 409.819951 
L 966.612167 409.147451 
L 967.497306 407.951896 
L 968.382444 407.279396 
L 969.267582 406.457452 
L 971.922997 405.598147 
L 972.808135 405.00037 
L 973.693273 404.66412 
L 975.46355 403.468565 
L 978.118965 402.534538 
L 979.004103 401.824677 
L 979.889241 400.928011 
L 982.544656 399.470928 
L 984.314932 398.648984 
L 986.085209 396.893013 
L 986.970347 396.071068 
L 988.740623 394.875514 
L 990.5109 394.240375 
L 991.396038 393.605236 
L 992.281176 392.409681 
L 993.166315 391.550376 
L 994.051453 391.139404 
L 994.936591 390.578988 
L 996.706868 389.943849 
L 998.477144 388.449406 
L 999.362282 388.038433 
L 1000.247421 386.88024 
L 1001.132559 386.20774 
L 1002.017697 385.908851 
L 1002.902835 385.423157 
L 1009.098803 380.939826 
L 1015.294771 375.821356 
L 1021.490738 371.300664 
L 1027.686706 366.929416 
L 1033.882674 361.810946 
L 1046.274609 353.367339 
L 1058.666545 345.52151 
L 1077.254448 331.623183 
L 1089.646383 323.627909 
L 1095.842351 319.368745 
L 1108.234286 309.692221 
L 1120.626222 298.820143 
L 1133.018157 289.218342 
L 1139.214125 284.884456 
L 1145.410093 281.110985 
L 1151.60606 276.851821 
L 1157.802028 273.040989 
L 1163.997996 268.781825 
L 1170.193963 263.962244 
L 1179.045346 258.656968 
L 1182.585899 258.02183 
L 1182.585899 258.02183 
" style="fill:none;stroke:#1f77b4;stroke-linecap:square;stroke-width:3;"/>
   </g>
   <g id="line2d_75">
    <path clip-path="url(#p485b23e85f)" d="M 721.428874 572.975844 
L 727.624842 567.072791 
L 733.820809 557.508351 
L 740.016777 549.326272 
L 746.212745 538.67836 
L 752.408712 525.601978 
L 758.60468 513.982678 
L 768.341201 490.631995 
L 774.537169 479.050056 
L 780.733136 465.375896 
L 781.618275 459.248677 
L 782.503413 457.828955 
L 783.388551 457.268539 
L 784.273689 454.952151 
L 785.158827 453.158819 
L 786.043966 453.121458 
L 786.929104 452.299513 
L 787.814242 449.310626 
L 788.69938 447.031599 
L 789.584519 446.134933 
L 790.469657 442.772435 
L 791.354795 442.62299 
L 793.125072 440.082436 
L 794.01021 437.392437 
L 794.895348 437.317715 
L 795.780486 436.234243 
L 796.665625 432.049801 
L 797.550763 431.564107 
L 798.435901 430.480635 
L 799.321039 430.368552 
L 800.206178 427.641192 
L 801.091316 426.333554 
L 801.976454 425.436888 
L 803.746731 421.40189 
L 804.631869 421.327167 
L 805.517007 420.094251 
L 806.402145 417.553697 
L 807.287284 416.432864 
L 808.172422 416.096614 
L 809.05756 413.89231 
L 809.942698 413.854949 
L 810.827837 412.808838 
L 811.712975 410.417728 
L 812.598113 409.633145 
L 815.253528 406.532175 
L 816.138666 404.888286 
L 817.023804 404.514676 
L 817.908942 403.505926 
L 818.794081 401.563149 
L 819.679219 400.404955 
L 820.564357 399.993983 
L 821.449495 398.761067 
L 822.334634 396.519402 
L 824.10491 396.407318 
L 824.990048 394.016208 
L 825.875187 392.858014 
L 829.41574 387.5901 
L 830.300878 386.917601 
L 831.186016 385.722046 
L 832.071154 385.049546 
L 832.956293 384.900102 
L 833.841431 381.985936 
L 835.611707 379.295938 
L 836.496846 378.249827 
L 837.381984 377.502605 
L 838.267122 375.223579 
L 839.15226 373.691774 
L 840.037399 373.20608 
L 840.922537 372.010525 
L 841.807675 371.412747 
L 842.692813 371.375386 
L 843.577952 367.527193 
L 844.46309 367.377749 
L 846.233366 364.239417 
L 848.003643 364.239417 
L 848.888781 364.127334 
L 849.773919 362.184557 
L 851.544196 360.465947 
L 852.429334 357.215532 
L 853.314472 356.169421 
L 854.19961 355.571644 
L 855.969887 353.890394 
L 856.855025 353.479422 
L 857.740163 353.292617 
L 859.51044 349.818035 
L 860.395578 349.332341 
L 861.280716 348.398314 
L 862.165855 346.866509 
L 863.050993 345.857759 
L 864.821269 345.708315 
L 867.476684 344.027066 
L 868.361822 340.73929 
L 869.246961 338.161374 
L 874.55779 333.192349 
L 876.328067 330.278184 
L 879.86862 326.467352 
L 880.753758 325.72013 
L 881.638896 325.458603 
L 882.524034 325.421242 
L 883.409173 320.975272 
L 884.294311 320.93791 
L 886.064587 320.414855 
L 886.949725 319.181939 
L 887.834864 316.716107 
L 888.720002 316.342496 
L 889.60514 314.586525 
L 890.490278 314.586525 
L 891.375417 313.764581 
L 894.030831 310.028471 
L 895.801108 309.057083 
L 896.686246 309.057083 
L 897.571384 308.384583 
L 898.456523 307.26375 
L 899.341661 305.769307 
L 900.226799 305.358335 
L 903.767352 304.424307 
L 905.537629 302.332086 
L 906.422767 300.277226 
L 908.193043 299.343199 
L 909.078182 299.343199 
L 909.96332 298.782782 
L 910.848458 298.745421 
L 911.733596 296.690561 
L 912.618735 295.158756 
L 913.503873 294.93459 
L 914.389011 293.58959 
L 915.274149 293.58959 
L 916.159288 293.215979 
L 917.044426 292.54348 
L 917.929564 289.106259 
L 918.814702 288.844732 
L 920.584979 287.985426 
L 921.470117 287.798621 
L 922.355255 287.42501 
L 923.240393 287.312927 
L 924.125532 285.183344 
L 925.01067 282.194457 
L 925.895808 281.634041 
L 926.780946 280.438486 
L 927.666085 279.691264 
L 928.551223 279.616542 
L 929.436361 279.242931 
L 931.206638 278.308903 
L 932.091776 276.889182 
L 932.976914 275.095849 
L 933.862052 275.058488 
L 934.747191 274.722238 
L 935.632329 272.966267 
L 936.517467 272.667378 
L 937.402605 270.537796 
L 938.287744 270.201546 
L 940.943158 268.856547 
L 941.828297 267.511547 
L 944.483711 266.054465 
L 945.36885 265.19516 
L 946.253988 264.597382 
L 948.024264 261.085439 
L 949.794541 259.777801 
L 950.679679 258.806413 
L 951.564817 256.938358 
L 953.335094 256.863636 
L 954.220232 255.257109 
L 955.10537 254.472526 
L 955.990508 253.837387 
L 956.875647 253.800026 
L 957.760785 251.259472 
L 958.645923 251.18475 
L 962.186476 247.672807 
L 963.071614 247.224474 
L 963.956753 246.141002 
L 964.841891 245.281697 
L 965.727029 244.870725 
L 966.612167 244.833364 
L 967.497306 241.95656 
L 968.382444 241.545588 
L 969.267582 240.23795 
L 971.922997 239.191839 
L 973.693273 239.079756 
L 974.578412 238.594061 
L 975.46355 238.5567 
L 977.233826 237.361145 
L 978.118965 237.323784 
L 979.004103 234.671147 
L 979.889241 234.073369 
L 980.774379 232.72837 
L 981.659518 232.653648 
L 982.544656 231.084482 
L 983.429794 230.33726 
L 984.314932 230.262538 
L 985.20007 229.814205 
L 986.085209 229.104344 
L 986.970347 227.908789 
L 987.855485 227.796706 
L 988.740623 224.695735 
L 989.625762 224.471568 
L 992.281176 224.322124 
L 993.166315 221.333237 
L 994.051453 221.146431 
L 994.936591 220.175043 
L 995.821729 220.175043 
L 996.706868 220.062959 
L 997.592006 218.755321 
L 998.477144 215.841156 
L 999.362282 215.318101 
L 1000.247421 215.093934 
L 1001.132559 213.337963 
L 1002.017697 213.151157 
L 1002.902835 212.329213 
L 1009.098803 205.081161 
L 1015.294771 200.560469 
L 1021.490738 193.536583 
L 1027.686706 187.782975 
L 1033.882674 180.534923 
L 1046.274609 165.179514 
L 1052.470577 155.166741 
L 1058.666545 150.795493 
L 1065.747651 143.883691 
L 1071.05848 138.541054 
L 1077.254448 130.732586 
L 1083.450416 124.04495 
L 1089.646383 118.440786 
L 1095.842351 112.350928 
L 1102.038319 105.289682 
L 1108.234286 99.872323 
L 1120.626222 88.738717 
L 1126.822189 84.703719 
L 1133.018157 77.791917 
L 1139.214125 72.598725 
L 1145.410093 64.304563 
L 1151.60606 59.634426 
L 1157.802028 51.414986 
L 1163.997996 46.333877 
L 1170.193963 41.476935 
L 1179.045346 35.387077 
L 1182.585899 34.864021 
L 1182.585899 34.864021 
" style="fill:none;stroke:#ff7f0e;stroke-linecap:square;stroke-width:3;"/>
   </g>
   <g id="line2d_76">
    <path clip-path="url(#p485b23e85f)" d="M 721.428874 586.836809 
L 727.624842 585.417088 
L 733.820809 583.362228 
L 740.016777 580.971118 
L 746.212745 578.094314 
L 752.408712 574.88126 
L 758.60468 572.303344 
L 768.341201 567.37168 
L 774.537169 563.299321 
L 782.503413 559.451128 
L 783.388551 558.47974 
L 784.273689 557.769879 
L 789.584519 555.229325 
L 790.469657 554.594186 
L 792.239933 554.37002 
L 793.125072 553.660159 
L 794.01021 553.249187 
L 794.895348 552.576687 
L 795.780486 552.053632 
L 796.665625 551.119604 
L 798.435901 550.521827 
L 799.321039 549.811966 
L 800.206178 548.840578 
L 801.091316 548.130717 
L 801.976454 547.607662 
L 802.861592 546.823079 
L 803.746731 546.337385 
L 805.517007 545.702246 
L 806.402145 544.955024 
L 808.172422 543.79683 
L 809.05756 543.311136 
L 810.827837 542.974886 
L 811.712975 542.302387 
L 812.598113 541.106832 
L 814.36839 539.761832 
L 817.023804 539.201416 
L 818.794081 538.117944 
L 819.679219 537.744333 
L 821.449495 536.6235 
L 823.219772 536.399334 
L 824.10491 535.801556 
L 824.990048 535.353223 
L 825.875187 534.606001 
L 829.41574 533.410446 
L 830.300878 532.700586 
L 832.071154 531.878642 
L 833.841431 530.533642 
L 835.611707 530.12267 
L 836.496846 529.412809 
L 837.381984 529.001837 
L 840.037399 527.283227 
L 841.807675 526.984338 
L 842.692813 526.573366 
L 844.46309 525.265728 
L 846.233366 524.481145 
L 848.003643 524.481145 
L 848.888781 523.733923 
L 849.773919 523.136146 
L 851.544196 522.276841 
L 852.429334 521.56698 
L 853.314472 521.417536 
L 855.969887 520.184619 
L 858.625302 518.764898 
L 860.395578 518.279204 
L 861.280716 517.756148 
L 862.165855 517.494621 
L 864.821269 515.888094 
L 868.361822 514.543094 
L 869.246961 514.094761 
L 874.55779 511.927818 
L 876.328067 510.881707 
L 879.86862 509.349902 
L 883.409173 507.706014 
L 885.179449 507.407126 
L 886.064587 506.809348 
L 888.720002 505.763238 
L 889.60514 505.314904 
L 891.375417 505.16546 
L 895.801108 502.923794 
L 896.686246 502.886433 
L 898.456523 502.587545 
L 901.997076 500.420601 
L 903.767352 500.233796 
L 905.537629 499.299768 
L 906.422767 498.515186 
L 907.307905 497.99213 
L 908.193043 497.319631 
L 909.96332 497.095464 
L 911.733596 496.124076 
L 914.389011 495.040604 
L 916.159288 494.816437 
L 918.814702 493.396716 
L 920.584979 492.574772 
L 922.355255 492.1638 
L 924.125532 490.968245 
L 925.01067 490.706717 
L 926.780946 489.399079 
L 927.666085 489.361718 
L 928.551223 489.137551 
L 929.436361 488.465051 
L 931.206638 487.71783 
L 932.091776 487.082691 
L 932.976914 486.746441 
L 933.862052 486.559636 
L 934.747191 486.522275 
L 935.632329 485.887136 
L 936.517467 485.401442 
L 937.402605 484.766303 
L 938.287744 484.691581 
L 940.05802 484.168526 
L 940.943158 484.131165 
L 944.483711 482.748804 
L 945.36885 482.449916 
L 946.253988 482.412554 
L 948.024264 481.814777 
L 949.794541 480.395055 
L 951.564817 479.311584 
L 953.335094 478.825889 
L 954.220232 478.302834 
L 955.10537 478.003945 
L 957.760785 476.621585 
L 958.645923 476.509502 
L 962.186476 474.977697 
L 963.071614 474.75353 
L 963.956753 473.894225 
L 964.841891 473.894225 
L 965.727029 473.520614 
L 967.497306 472.212976 
L 969.267582 471.204227 
L 971.922997 470.64381 
L 974.578412 469.149366 
L 976.348688 468.850478 
L 978.118965 468.514228 
L 979.004103 467.729645 
L 980.774379 466.683534 
L 982.544656 465.786868 
L 984.314932 465.712146 
L 985.20007 464.927563 
L 986.085209 464.666035 
L 988.740623 463.208953 
L 990.5109 463.059508 
L 991.396038 462.536453 
L 992.281176 461.452981 
L 994.936591 460.257426 
L 995.821729 460.182704 
L 997.592006 459.547566 
L 998.477144 458.837705 
L 999.362282 457.941039 
L 1000.247421 457.492705 
L 1002.902835 456.708122 
L 1009.098803 453.270902 
L 1015.294771 450.954514 
L 1021.490738 447.554655 
L 1027.686706 444.715212 
L 1052.470577 430.592718 
L 1058.666545 427.865359 
L 1065.747651 423.905083 
L 1071.05848 422.261195 
L 1077.254448 419.683279 
L 1083.450416 415.760365 
L 1089.646383 412.211061 
L 1095.842351 409.259534 
L 1102.038319 405.373981 
L 1108.234286 402.123566 
L 1120.626222 395.77218 
L 1126.822189 392.745931 
L 1133.018157 390.205377 
L 1139.214125 387.478017 
L 1145.410093 384.377046 
L 1151.60606 381.799131 
L 1157.802028 378.847605 
L 1163.997996 376.269689 
L 1170.193963 373.093996 
L 1179.045346 368.012888 
L 1182.585899 367.639277 
L 1182.585899 367.639277 
" style="fill:none;stroke:#2ca02c;stroke-linecap:square;stroke-width:3;"/>
   </g>
   <g id="patch_6">
    <path d="M 698.371023 594.72 
L 698.371023 7.2 
" style="fill:none;stroke:#000000;stroke-linecap:square;stroke-linejoin:miter;stroke-width:0.8;"/>
   </g>
   <g id="patch_7">
    <path d="M 698.371023 594.72 
L 1205.64375 594.72 
" style="fill:none;stroke:#000000;stroke-linecap:square;stroke-linejoin:miter;stroke-width:0.8;"/>
   </g>
   <g id="legend_1">
    <g id="patch_8">
     <path d="M 708.171023 80.048125 
L 814.299773 80.048125 
Q 817.099773 80.048125 817.099773 77.248125 
L 817.099773 17 
Q 817.099773 14.2 814.299773 14.2 
L 708.171023 14.2 
Q 705.371023 14.2 705.371023 17 
L 705.371023 77.248125 
Q 705.371023 80.048125 708.171023 80.048125 
z
" style="fill:#ffffff;opacity:0.8;stroke:#cccccc;stroke-linejoin:miter;"/>
    </g>
    <g id="line2d_77">
     <path d="M 710.971023 25.537813 
L 738.971023 25.537813 
" style="fill:none;stroke:#1f77b4;stroke-linecap:square;stroke-width:3;"/>
    </g>
    <g id="line2d_78"/>
    <g id="text_39">
     <!-- arXiv -->
     <defs>
      <path d="M 6.296875 72.90625 
L 16.890625 72.90625 
L 35.015625 45.796875 
L 53.21875 72.90625 
L 63.8125 72.90625 
L 40.375 37.890625 
L 65.375 0 
L 54.78125 0 
L 34.28125 31 
L 13.625 0 
L 2.984375 0 
L 29 38.921875 
z
" id="DejaVuSans-88"/>
      <path d="M 2.984375 54.6875 
L 12.5 54.6875 
L 29.59375 8.796875 
L 46.6875 54.6875 
L 56.203125 54.6875 
L 35.6875 0 
L 23.484375 0 
z
" id="DejaVuSans-118"/>
     </defs>
     <g transform="translate(750.171023 30.437813)scale(0.14 -0.14)">
      <use xlink:href="#DejaVuSans-97"/>
      <use x="61.279297" xlink:href="#DejaVuSans-114"/>
      <use x="102.392578" xlink:href="#DejaVuSans-88"/>
      <use x="170.898438" xlink:href="#DejaVuSans-105"/>
      <use x="198.681641" xlink:href="#DejaVuSans-118"/>
     </g>
    </g>
    <g id="line2d_79">
     <path d="M 710.971023 46.087188 
L 738.971023 46.087188 
" style="fill:none;stroke:#ff7f0e;stroke-linecap:square;stroke-width:3;"/>
    </g>
    <g id="line2d_80"/>
    <g id="text_40">
     <!-- medRxiv -->
     <defs>
      <path d="M 45.40625 46.390625 
L 45.40625 75.984375 
L 54.390625 75.984375 
L 54.390625 0 
L 45.40625 0 
L 45.40625 8.203125 
Q 42.578125 3.328125 38.25 0.953125 
Q 33.9375 -1.421875 27.875 -1.421875 
Q 17.96875 -1.421875 11.734375 6.484375 
Q 5.515625 14.40625 5.515625 27.296875 
Q 5.515625 40.1875 11.734375 48.09375 
Q 17.96875 56 27.875 56 
Q 33.9375 56 38.25 53.625 
Q 42.578125 51.265625 45.40625 46.390625 
z
M 14.796875 27.296875 
Q 14.796875 17.390625 18.875 11.75 
Q 22.953125 6.109375 30.078125 6.109375 
Q 37.203125 6.109375 41.296875 11.75 
Q 45.40625 17.390625 45.40625 27.296875 
Q 45.40625 37.203125 41.296875 42.84375 
Q 37.203125 48.484375 30.078125 48.484375 
Q 22.953125 48.484375 18.875 42.84375 
Q 14.796875 37.203125 14.796875 27.296875 
z
" id="DejaVuSans-100"/>
      <path d="M 44.390625 34.1875 
Q 47.5625 33.109375 50.5625 29.59375 
Q 53.5625 26.078125 56.59375 19.921875 
L 66.609375 0 
L 56 0 
L 46.6875 18.703125 
Q 43.0625 26.03125 39.671875 28.421875 
Q 36.28125 30.8125 30.421875 30.8125 
L 19.671875 30.8125 
L 19.671875 0 
L 9.8125 0 
L 9.8125 72.90625 
L 32.078125 72.90625 
Q 44.578125 72.90625 50.734375 67.671875 
Q 56.890625 62.453125 56.890625 51.90625 
Q 56.890625 45.015625 53.6875 40.46875 
Q 50.484375 35.9375 44.390625 34.1875 
z
M 19.671875 64.796875 
L 19.671875 38.921875 
L 32.078125 38.921875 
Q 39.203125 38.921875 42.84375 42.21875 
Q 46.484375 45.515625 46.484375 51.90625 
Q 46.484375 58.296875 42.84375 61.546875 
Q 39.203125 64.796875 32.078125 64.796875 
z
" id="DejaVuSans-82"/>
      <path d="M 54.890625 54.6875 
L 35.109375 28.078125 
L 55.90625 0 
L 45.3125 0 
L 29.390625 21.484375 
L 13.484375 0 
L 2.875 0 
L 24.125 28.609375 
L 4.6875 54.6875 
L 15.28125 54.6875 
L 29.78125 35.203125 
L 44.28125 54.6875 
z
" id="DejaVuSans-120"/>
     </defs>
     <g transform="translate(750.171023 50.987188)scale(0.14 -0.14)">
      <use xlink:href="#DejaVuSans-109"/>
      <use x="97.412109" xlink:href="#DejaVuSans-101"/>
      <use x="158.935547" xlink:href="#DejaVuSans-100"/>
      <use x="222.412109" xlink:href="#DejaVuSans-82"/>
      <use x="291.894531" xlink:href="#DejaVuSans-120"/>
      <use x="351.074219" xlink:href="#DejaVuSans-105"/>
      <use x="378.857422" xlink:href="#DejaVuSans-118"/>
     </g>
    </g>
    <g id="line2d_81">
     <path d="M 710.971023 66.636563 
L 738.971023 66.636563 
" style="fill:none;stroke:#2ca02c;stroke-linecap:square;stroke-width:3;"/>
    </g>
    <g id="line2d_82"/>
    <g id="text_41">
     <!-- bioRxiv -->
     <defs>
      <path d="M 48.6875 27.296875 
Q 48.6875 37.203125 44.609375 42.84375 
Q 40.53125 48.484375 33.40625 48.484375 
Q 26.265625 48.484375 22.1875 42.84375 
Q 18.109375 37.203125 18.109375 27.296875 
Q 18.109375 17.390625 22.1875 11.75 
Q 26.265625 6.109375 33.40625 6.109375 
Q 40.53125 6.109375 44.609375 11.75 
Q 48.6875 17.390625 48.6875 27.296875 
z
M 18.109375 46.390625 
Q 20.953125 51.265625 25.265625 53.625 
Q 29.59375 56 35.59375 56 
Q 45.5625 56 51.78125 48.09375 
Q 58.015625 40.1875 58.015625 27.296875 
Q 58.015625 14.40625 51.78125 6.484375 
Q 45.5625 -1.421875 35.59375 -1.421875 
Q 29.59375 -1.421875 25.265625 0.953125 
Q 20.953125 3.328125 18.109375 8.203125 
L 18.109375 0 
L 9.078125 0 
L 9.078125 75.984375 
L 18.109375 75.984375 
z
" id="DejaVuSans-98"/>
     </defs>
     <g transform="translate(750.171023 71.536563)scale(0.14 -0.14)">
      <use xlink:href="#DejaVuSans-98"/>
      <use x="63.476562" xlink:href="#DejaVuSans-105"/>
      <use x="91.259766" xlink:href="#DejaVuSans-111"/>
      <use x="152.441406" xlink:href="#DejaVuSans-82"/>
      <use x="221.923828" xlink:href="#DejaVuSans-120"/>
      <use x="281.103516" xlink:href="#DejaVuSans-105"/>
      <use x="308.886719" xlink:href="#DejaVuSans-118"/>
     </g>
    </g>
   </g>
  </g>
 </g>
 <defs>
  <clipPath id="p254196b5dd">
   <rect height="587.52" width="507.272727" x="89.64375" y="7.2"/>
  </clipPath>
  <clipPath id="p485b23e85f">
   <rect height="587.52" width="507.272727" x="698.371023" y="7.2"/>
  </clipPath>
 </defs>
</svg>
