<?xml version="1.0" encoding="utf-8" standalone="no"?>
<!DOCTYPE svg PUBLIC "-//W3C//DTD SVG 1.1//EN"
  "http://www.w3.org/Graphics/SVG/1.1/DTD/svg11.dtd">
<!-- Created with matplotlib (https://matplotlib.org/) -->
<svg height="686.580176pt" version="1.1" viewBox="0 0 817.475 686.580176" width="817.475pt" xmlns="http://www.w3.org/2000/svg" xmlns:xlink="http://www.w3.org/1999/xlink">
 <defs>
  <style type="text/css">
*{stroke-linecap:butt;stroke-linejoin:round;}
  </style>
 </defs>
 <g id="figure_1">
  <g id="patch_1">
   <path d="M 0 686.580176 
L 817.475 686.580176 
L 817.475 0 
L 0 0 
z
" style="fill:#ffffff;"/>
  </g>
  <g id="axes_1">
   <g id="patch_2">
    <path d="M 140.675 281.659741 
L 810.275 281.659741 
L 810.275 14.605196 
L 140.675 14.605196 
z
" style="fill:#ffffff;"/>
   </g>
   <g id="matplotlib.axis_1">
    <g id="xtick_1">
     <g id="line2d_1">
      <path clip-path="url(#p8791c25ef0)" d="M 150.309532 281.659741 
L 150.309532 14.605196 
" style="fill:none;stroke:#d3d3d3;stroke-linecap:square;stroke-width:0.8;"/>
     </g>
     <g id="line2d_2">
      <defs>
       <path d="M 0 0 
L 0 3.5 
" id="m9366c2213c" style="stroke:#000000;stroke-width:0.8;"/>
      </defs>
      <g>
       <use style="stroke:#000000;stroke-width:0.8;" x="150.309532" xlink:href="#m9366c2213c" y="281.659741"/>
      </g>
     </g>
    </g>
    <g id="xtick_2">
     <g id="line2d_3">
      <path clip-path="url(#p8791c25ef0)" d="M 217.094359 281.659741 
L 217.094359 14.605196 
" style="fill:none;stroke:#d3d3d3;stroke-linecap:square;stroke-width:0.8;"/>
     </g>
     <g id="line2d_4">
      <g>
       <use style="stroke:#000000;stroke-width:0.8;" x="217.094359" xlink:href="#m9366c2213c" y="281.659741"/>
      </g>
     </g>
    </g>
    <g id="xtick_3">
     <g id="line2d_5">
      <path clip-path="url(#p8791c25ef0)" d="M 283.879186 281.659741 
L 283.879186 14.605196 
" style="fill:none;stroke:#d3d3d3;stroke-linecap:square;stroke-width:0.8;"/>
     </g>
     <g id="line2d_6">
      <g>
       <use style="stroke:#000000;stroke-width:0.8;" x="283.879186" xlink:href="#m9366c2213c" y="281.659741"/>
      </g>
     </g>
    </g>
    <g id="xtick_4">
     <g id="line2d_7">
      <path clip-path="url(#p8791c25ef0)" d="M 351.758846 281.659741 
L 351.758846 14.605196 
" style="fill:none;stroke:#d3d3d3;stroke-linecap:square;stroke-width:0.8;"/>
     </g>
     <g id="line2d_8">
      <g>
       <use style="stroke:#000000;stroke-width:0.8;" x="351.758846" xlink:href="#m9366c2213c" y="281.659741"/>
      </g>
     </g>
    </g>
    <g id="xtick_5">
     <g id="line2d_9">
      <path clip-path="url(#p8791c25ef0)" d="M 418.543672 281.659741 
L 418.543672 14.605196 
" style="fill:none;stroke:#d3d3d3;stroke-linecap:square;stroke-width:0.8;"/>
     </g>
     <g id="line2d_10">
      <g>
       <use style="stroke:#000000;stroke-width:0.8;" x="418.543672" xlink:href="#m9366c2213c" y="281.659741"/>
      </g>
     </g>
    </g>
    <g id="xtick_6">
     <g id="line2d_11">
      <path clip-path="url(#p8791c25ef0)" d="M 485.328499 281.659741 
L 485.328499 14.605196 
" style="fill:none;stroke:#d3d3d3;stroke-linecap:square;stroke-width:0.8;"/>
     </g>
     <g id="line2d_12">
      <g>
       <use style="stroke:#000000;stroke-width:0.8;" x="485.328499" xlink:href="#m9366c2213c" y="281.659741"/>
      </g>
     </g>
    </g>
    <g id="xtick_7">
     <g id="line2d_13">
      <path clip-path="url(#p8791c25ef0)" d="M 549.923659 281.659741 
L 549.923659 14.605196 
" style="fill:none;stroke:#d3d3d3;stroke-linecap:square;stroke-width:0.8;"/>
     </g>
     <g id="line2d_14">
      <g>
       <use style="stroke:#000000;stroke-width:0.8;" x="549.923659" xlink:href="#m9366c2213c" y="281.659741"/>
      </g>
     </g>
    </g>
    <g id="xtick_8">
     <g id="line2d_15">
      <path clip-path="url(#p8791c25ef0)" d="M 616.708486 281.659741 
L 616.708486 14.605196 
" style="fill:none;stroke:#d3d3d3;stroke-linecap:square;stroke-width:0.8;"/>
     </g>
     <g id="line2d_16">
      <g>
       <use style="stroke:#000000;stroke-width:0.8;" x="616.708486" xlink:href="#m9366c2213c" y="281.659741"/>
      </g>
     </g>
    </g>
    <g id="xtick_9">
     <g id="line2d_17">
      <path clip-path="url(#p8791c25ef0)" d="M 683.493313 281.659741 
L 683.493313 14.605196 
" style="fill:none;stroke:#d3d3d3;stroke-linecap:square;stroke-width:0.8;"/>
     </g>
     <g id="line2d_18">
      <g>
       <use style="stroke:#000000;stroke-width:0.8;" x="683.493313" xlink:href="#m9366c2213c" y="281.659741"/>
      </g>
     </g>
    </g>
    <g id="xtick_10">
     <g id="line2d_19">
      <path clip-path="url(#p8791c25ef0)" d="M 751.372973 281.659741 
L 751.372973 14.605196 
" style="fill:none;stroke:#d3d3d3;stroke-linecap:square;stroke-width:0.8;"/>
     </g>
     <g id="line2d_20">
      <g>
       <use style="stroke:#000000;stroke-width:0.8;" x="751.372973" xlink:href="#m9366c2213c" y="281.659741"/>
      </g>
     </g>
    </g>
   </g>
   <g id="matplotlib.axis_2">
    <g id="ytick_1">
     <g id="line2d_21">
      <path clip-path="url(#p8791c25ef0)" d="M 140.675 281.659741 
L 810.275 281.659741 
" style="fill:none;stroke:#d3d3d3;stroke-linecap:square;stroke-width:0.8;"/>
     </g>
     <g id="line2d_22">
      <defs>
       <path d="M 0 0 
L -3.5 0 
" id="m7385a89a56" style="stroke:#000000;stroke-width:0.8;"/>
      </defs>
      <g>
       <use style="stroke:#000000;stroke-width:0.8;" x="140.675" xlink:href="#m7385a89a56" y="281.659741"/>
      </g>
     </g>
     <g id="text_1">
      <!-- 0 -->
      <defs>
       <path d="M 31.78125 66.40625 
Q 24.171875 66.40625 20.328125 58.90625 
Q 16.5 51.421875 16.5 36.375 
Q 16.5 21.390625 20.328125 13.890625 
Q 24.171875 6.390625 31.78125 6.390625 
Q 39.453125 6.390625 43.28125 13.890625 
Q 47.125 21.390625 47.125 36.375 
Q 47.125 51.421875 43.28125 58.90625 
Q 39.453125 66.40625 31.78125 66.40625 
z
M 31.78125 74.21875 
Q 44.046875 74.21875 50.515625 64.515625 
Q 56.984375 54.828125 56.984375 36.375 
Q 56.984375 17.96875 50.515625 8.265625 
Q 44.046875 -1.421875 31.78125 -1.421875 
Q 19.53125 -1.421875 13.0625 8.265625 
Q 6.59375 17.96875 6.59375 36.375 
Q 6.59375 54.828125 13.0625 64.515625 
Q 19.53125 74.21875 31.78125 74.21875 
z
" id="DejaVuSans-48"/>
      </defs>
      <g transform="translate(118.405 290.777866)scale(0.24 -0.24)">
       <use xlink:href="#DejaVuSans-48"/>
      </g>
     </g>
    </g>
    <g id="ytick_2">
     <g id="line2d_23">
      <path clip-path="url(#p8791c25ef0)" d="M 140.675 215.324337 
L 810.275 215.324337 
" style="fill:none;stroke:#d3d3d3;stroke-linecap:square;stroke-width:0.8;"/>
     </g>
     <g id="line2d_24">
      <g>
       <use style="stroke:#000000;stroke-width:0.8;" x="140.675" xlink:href="#m7385a89a56" y="215.324337"/>
      </g>
     </g>
     <g id="text_2">
      <!-- 200,000 -->
      <defs>
       <path d="M 19.1875 8.296875 
L 53.609375 8.296875 
L 53.609375 0 
L 7.328125 0 
L 7.328125 8.296875 
Q 12.9375 14.109375 22.625 23.890625 
Q 32.328125 33.6875 34.8125 36.53125 
Q 39.546875 41.84375 41.421875 45.53125 
Q 43.3125 49.21875 43.3125 52.78125 
Q 43.3125 58.59375 39.234375 62.25 
Q 35.15625 65.921875 28.609375 65.921875 
Q 23.96875 65.921875 18.8125 64.3125 
Q 13.671875 62.703125 7.8125 59.421875 
L 7.8125 69.390625 
Q 13.765625 71.78125 18.9375 73 
Q 24.125 74.21875 28.421875 74.21875 
Q 39.75 74.21875 46.484375 68.546875 
Q 53.21875 62.890625 53.21875 53.421875 
Q 53.21875 48.921875 51.53125 44.890625 
Q 49.859375 40.875 45.40625 35.40625 
Q 44.1875 33.984375 37.640625 27.21875 
Q 31.109375 20.453125 19.1875 8.296875 
z
" id="DejaVuSans-50"/>
       <path d="M 11.71875 12.40625 
L 22.015625 12.40625 
L 22.015625 4 
L 14.015625 -11.625 
L 7.71875 -11.625 
L 11.71875 4 
z
" id="DejaVuSans-44"/>
      </defs>
      <g transform="translate(34.4275 224.442462)scale(0.24 -0.24)">
       <use xlink:href="#DejaVuSans-50"/>
       <use x="63.623047" xlink:href="#DejaVuSans-48"/>
       <use x="127.246094" xlink:href="#DejaVuSans-48"/>
       <use x="190.869141" xlink:href="#DejaVuSans-44"/>
       <use x="222.65625" xlink:href="#DejaVuSans-48"/>
       <use x="286.279297" xlink:href="#DejaVuSans-48"/>
       <use x="349.902344" xlink:href="#DejaVuSans-48"/>
      </g>
     </g>
    </g>
    <g id="ytick_3">
     <g id="line2d_25">
      <path clip-path="url(#p8791c25ef0)" d="M 140.675 148.988933 
L 810.275 148.988933 
" style="fill:none;stroke:#d3d3d3;stroke-linecap:square;stroke-width:0.8;"/>
     </g>
     <g id="line2d_26">
      <g>
       <use style="stroke:#000000;stroke-width:0.8;" x="140.675" xlink:href="#m7385a89a56" y="148.988933"/>
      </g>
     </g>
     <g id="text_3">
      <!-- 400,000 -->
      <defs>
       <path d="M 37.796875 64.3125 
L 12.890625 25.390625 
L 37.796875 25.390625 
z
M 35.203125 72.90625 
L 47.609375 72.90625 
L 47.609375 25.390625 
L 58.015625 25.390625 
L 58.015625 17.1875 
L 47.609375 17.1875 
L 47.609375 0 
L 37.796875 0 
L 37.796875 17.1875 
L 4.890625 17.1875 
L 4.890625 26.703125 
z
" id="DejaVuSans-52"/>
      </defs>
      <g transform="translate(34.4275 158.107058)scale(0.24 -0.24)">
       <use xlink:href="#DejaVuSans-52"/>
       <use x="63.623047" xlink:href="#DejaVuSans-48"/>
       <use x="127.246094" xlink:href="#DejaVuSans-48"/>
       <use x="190.869141" xlink:href="#DejaVuSans-44"/>
       <use x="222.65625" xlink:href="#DejaVuSans-48"/>
       <use x="286.279297" xlink:href="#DejaVuSans-48"/>
       <use x="349.902344" xlink:href="#DejaVuSans-48"/>
      </g>
     </g>
    </g>
    <g id="ytick_4">
     <g id="line2d_27">
      <path clip-path="url(#p8791c25ef0)" d="M 140.675 82.653529 
L 810.275 82.653529 
" style="fill:none;stroke:#d3d3d3;stroke-linecap:square;stroke-width:0.8;"/>
     </g>
     <g id="line2d_28">
      <g>
       <use style="stroke:#000000;stroke-width:0.8;" x="140.675" xlink:href="#m7385a89a56" y="82.653529"/>
      </g>
     </g>
     <g id="text_4">
      <!-- 600,000 -->
      <defs>
       <path d="M 33.015625 40.375 
Q 26.375 40.375 22.484375 35.828125 
Q 18.609375 31.296875 18.609375 23.390625 
Q 18.609375 15.53125 22.484375 10.953125 
Q 26.375 6.390625 33.015625 6.390625 
Q 39.65625 6.390625 43.53125 10.953125 
Q 47.40625 15.53125 47.40625 23.390625 
Q 47.40625 31.296875 43.53125 35.828125 
Q 39.65625 40.375 33.015625 40.375 
z
M 52.59375 71.296875 
L 52.59375 62.3125 
Q 48.875 64.0625 45.09375 64.984375 
Q 41.3125 65.921875 37.59375 65.921875 
Q 27.828125 65.921875 22.671875 59.328125 
Q 17.53125 52.734375 16.796875 39.40625 
Q 19.671875 43.65625 24.015625 45.921875 
Q 28.375 48.1875 33.59375 48.1875 
Q 44.578125 48.1875 50.953125 41.515625 
Q 57.328125 34.859375 57.328125 23.390625 
Q 57.328125 12.15625 50.6875 5.359375 
Q 44.046875 -1.421875 33.015625 -1.421875 
Q 20.359375 -1.421875 13.671875 8.265625 
Q 6.984375 17.96875 6.984375 36.375 
Q 6.984375 53.65625 15.1875 63.9375 
Q 23.390625 74.21875 37.203125 74.21875 
Q 40.921875 74.21875 44.703125 73.484375 
Q 48.484375 72.75 52.59375 71.296875 
z
" id="DejaVuSans-54"/>
      </defs>
      <g transform="translate(34.4275 91.771654)scale(0.24 -0.24)">
       <use xlink:href="#DejaVuSans-54"/>
       <use x="63.623047" xlink:href="#DejaVuSans-48"/>
       <use x="127.246094" xlink:href="#DejaVuSans-48"/>
       <use x="190.869141" xlink:href="#DejaVuSans-44"/>
       <use x="222.65625" xlink:href="#DejaVuSans-48"/>
       <use x="286.279297" xlink:href="#DejaVuSans-48"/>
       <use x="349.902344" xlink:href="#DejaVuSans-48"/>
      </g>
     </g>
    </g>
    <g id="ytick_5">
     <g id="line2d_29">
      <path clip-path="url(#p8791c25ef0)" d="M 140.675 16.318125 
L 810.275 16.318125 
" style="fill:none;stroke:#d3d3d3;stroke-linecap:square;stroke-width:0.8;"/>
     </g>
     <g id="line2d_30">
      <g>
       <use style="stroke:#000000;stroke-width:0.8;" x="140.675" xlink:href="#m7385a89a56" y="16.318125"/>
      </g>
     </g>
     <g id="text_5">
      <!-- 800,000 -->
      <defs>
       <path d="M 31.78125 34.625 
Q 24.75 34.625 20.71875 30.859375 
Q 16.703125 27.09375 16.703125 20.515625 
Q 16.703125 13.921875 20.71875 10.15625 
Q 24.75 6.390625 31.78125 6.390625 
Q 38.8125 6.390625 42.859375 10.171875 
Q 46.921875 13.96875 46.921875 20.515625 
Q 46.921875 27.09375 42.890625 30.859375 
Q 38.875 34.625 31.78125 34.625 
z
M 21.921875 38.8125 
Q 15.578125 40.375 12.03125 44.71875 
Q 8.5 49.078125 8.5 55.328125 
Q 8.5 64.0625 14.71875 69.140625 
Q 20.953125 74.21875 31.78125 74.21875 
Q 42.671875 74.21875 48.875 69.140625 
Q 55.078125 64.0625 55.078125 55.328125 
Q 55.078125 49.078125 51.53125 44.71875 
Q 48 40.375 41.703125 38.8125 
Q 48.828125 37.15625 52.796875 32.3125 
Q 56.78125 27.484375 56.78125 20.515625 
Q 56.78125 9.90625 50.3125 4.234375 
Q 43.84375 -1.421875 31.78125 -1.421875 
Q 19.734375 -1.421875 13.25 4.234375 
Q 6.78125 9.90625 6.78125 20.515625 
Q 6.78125 27.484375 10.78125 32.3125 
Q 14.796875 37.15625 21.921875 38.8125 
z
M 18.3125 54.390625 
Q 18.3125 48.734375 21.84375 45.5625 
Q 25.390625 42.390625 31.78125 42.390625 
Q 38.140625 42.390625 41.71875 45.5625 
Q 45.3125 48.734375 45.3125 54.390625 
Q 45.3125 60.0625 41.71875 63.234375 
Q 38.140625 66.40625 31.78125 66.40625 
Q 25.390625 66.40625 21.84375 63.234375 
Q 18.3125 60.0625 18.3125 54.390625 
z
" id="DejaVuSans-56"/>
      </defs>
      <g transform="translate(34.4275 25.43625)scale(0.24 -0.24)">
       <use xlink:href="#DejaVuSans-56"/>
       <use x="63.623047" xlink:href="#DejaVuSans-48"/>
       <use x="127.246094" xlink:href="#DejaVuSans-48"/>
       <use x="190.869141" xlink:href="#DejaVuSans-44"/>
       <use x="222.65625" xlink:href="#DejaVuSans-48"/>
       <use x="286.279297" xlink:href="#DejaVuSans-48"/>
       <use x="349.902344" xlink:href="#DejaVuSans-48"/>
      </g>
     </g>
    </g>
    <g id="text_6">
     <!-- Total manuscripts -->
     <defs>
      <path d="M -0.296875 72.90625 
L 61.375 72.90625 
L 61.375 64.59375 
L 35.5 64.59375 
L 35.5 0 
L 25.59375 0 
L 25.59375 64.59375 
L -0.296875 64.59375 
z
" id="DejaVuSans-84"/>
      <path d="M 30.609375 48.390625 
Q 23.390625 48.390625 19.1875 42.75 
Q 14.984375 37.109375 14.984375 27.296875 
Q 14.984375 17.484375 19.15625 11.84375 
Q 23.34375 6.203125 30.609375 6.203125 
Q 37.796875 6.203125 41.984375 11.859375 
Q 46.1875 17.53125 46.1875 27.296875 
Q 46.1875 37.015625 41.984375 42.703125 
Q 37.796875 48.390625 30.609375 48.390625 
z
M 30.609375 56 
Q 42.328125 56 49.015625 48.375 
Q 55.71875 40.765625 55.71875 27.296875 
Q 55.71875 13.875 49.015625 6.21875 
Q 42.328125 -1.421875 30.609375 -1.421875 
Q 18.84375 -1.421875 12.171875 6.21875 
Q 5.515625 13.875 5.515625 27.296875 
Q 5.515625 40.765625 12.171875 48.375 
Q 18.84375 56 30.609375 56 
z
" id="DejaVuSans-111"/>
      <path d="M 18.3125 70.21875 
L 18.3125 54.6875 
L 36.8125 54.6875 
L 36.8125 47.703125 
L 18.3125 47.703125 
L 18.3125 18.015625 
Q 18.3125 11.328125 20.140625 9.421875 
Q 21.96875 7.515625 27.59375 7.515625 
L 36.8125 7.515625 
L 36.8125 0 
L 27.59375 0 
Q 17.1875 0 13.234375 3.875 
Q 9.28125 7.765625 9.28125 18.015625 
L 9.28125 47.703125 
L 2.6875 47.703125 
L 2.6875 54.6875 
L 9.28125 54.6875 
L 9.28125 70.21875 
z
" id="DejaVuSans-116"/>
      <path d="M 34.28125 27.484375 
Q 23.390625 27.484375 19.1875 25 
Q 14.984375 22.515625 14.984375 16.5 
Q 14.984375 11.71875 18.140625 8.90625 
Q 21.296875 6.109375 26.703125 6.109375 
Q 34.1875 6.109375 38.703125 11.40625 
Q 43.21875 16.703125 43.21875 25.484375 
L 43.21875 27.484375 
z
M 52.203125 31.203125 
L 52.203125 0 
L 43.21875 0 
L 43.21875 8.296875 
Q 40.140625 3.328125 35.546875 0.953125 
Q 30.953125 -1.421875 24.3125 -1.421875 
Q 15.921875 -1.421875 10.953125 3.296875 
Q 6 8.015625 6 15.921875 
Q 6 25.140625 12.171875 29.828125 
Q 18.359375 34.515625 30.609375 34.515625 
L 43.21875 34.515625 
L 43.21875 35.40625 
Q 43.21875 41.609375 39.140625 45 
Q 35.0625 48.390625 27.6875 48.390625 
Q 23 48.390625 18.546875 47.265625 
Q 14.109375 46.140625 10.015625 43.890625 
L 10.015625 52.203125 
Q 14.9375 54.109375 19.578125 55.046875 
Q 24.21875 56 28.609375 56 
Q 40.484375 56 46.34375 49.84375 
Q 52.203125 43.703125 52.203125 31.203125 
z
" id="DejaVuSans-97"/>
      <path d="M 9.421875 75.984375 
L 18.40625 75.984375 
L 18.40625 0 
L 9.421875 0 
z
" id="DejaVuSans-108"/>
      <path id="DejaVuSans-32"/>
      <path d="M 52 44.1875 
Q 55.375 50.25 60.0625 53.125 
Q 64.75 56 71.09375 56 
Q 79.640625 56 84.28125 50.015625 
Q 88.921875 44.046875 88.921875 33.015625 
L 88.921875 0 
L 79.890625 0 
L 79.890625 32.71875 
Q 79.890625 40.578125 77.09375 44.375 
Q 74.3125 48.1875 68.609375 48.1875 
Q 61.625 48.1875 57.5625 43.546875 
Q 53.515625 38.921875 53.515625 30.90625 
L 53.515625 0 
L 44.484375 0 
L 44.484375 32.71875 
Q 44.484375 40.625 41.703125 44.40625 
Q 38.921875 48.1875 33.109375 48.1875 
Q 26.21875 48.1875 22.15625 43.53125 
Q 18.109375 38.875 18.109375 30.90625 
L 18.109375 0 
L 9.078125 0 
L 9.078125 54.6875 
L 18.109375 54.6875 
L 18.109375 46.1875 
Q 21.1875 51.21875 25.484375 53.609375 
Q 29.78125 56 35.6875 56 
Q 41.65625 56 45.828125 52.96875 
Q 50 49.953125 52 44.1875 
z
" id="DejaVuSans-109"/>
      <path d="M 54.890625 33.015625 
L 54.890625 0 
L 45.90625 0 
L 45.90625 32.71875 
Q 45.90625 40.484375 42.875 44.328125 
Q 39.84375 48.1875 33.796875 48.1875 
Q 26.515625 48.1875 22.3125 43.546875 
Q 18.109375 38.921875 18.109375 30.90625 
L 18.109375 0 
L 9.078125 0 
L 9.078125 54.6875 
L 18.109375 54.6875 
L 18.109375 46.1875 
Q 21.34375 51.125 25.703125 53.5625 
Q 30.078125 56 35.796875 56 
Q 45.21875 56 50.046875 50.171875 
Q 54.890625 44.34375 54.890625 33.015625 
z
" id="DejaVuSans-110"/>
      <path d="M 8.5 21.578125 
L 8.5 54.6875 
L 17.484375 54.6875 
L 17.484375 21.921875 
Q 17.484375 14.15625 20.5 10.265625 
Q 23.53125 6.390625 29.59375 6.390625 
Q 36.859375 6.390625 41.078125 11.03125 
Q 45.3125 15.671875 45.3125 23.6875 
L 45.3125 54.6875 
L 54.296875 54.6875 
L 54.296875 0 
L 45.3125 0 
L 45.3125 8.40625 
Q 42.046875 3.421875 37.71875 1 
Q 33.40625 -1.421875 27.6875 -1.421875 
Q 18.265625 -1.421875 13.375 4.4375 
Q 8.5 10.296875 8.5 21.578125 
z
M 31.109375 56 
z
" id="DejaVuSans-117"/>
      <path d="M 44.28125 53.078125 
L 44.28125 44.578125 
Q 40.484375 46.53125 36.375 47.5 
Q 32.28125 48.484375 27.875 48.484375 
Q 21.1875 48.484375 17.84375 46.4375 
Q 14.5 44.390625 14.5 40.28125 
Q 14.5 37.15625 16.890625 35.375 
Q 19.28125 33.59375 26.515625 31.984375 
L 29.59375 31.296875 
Q 39.15625 29.25 43.1875 25.515625 
Q 47.21875 21.78125 47.21875 15.09375 
Q 47.21875 7.46875 41.1875 3.015625 
Q 35.15625 -1.421875 24.609375 -1.421875 
Q 20.21875 -1.421875 15.453125 -0.5625 
Q 10.6875 0.296875 5.421875 2 
L 5.421875 11.28125 
Q 10.40625 8.6875 15.234375 7.390625 
Q 20.0625 6.109375 24.8125 6.109375 
Q 31.15625 6.109375 34.5625 8.28125 
Q 37.984375 10.453125 37.984375 14.40625 
Q 37.984375 18.0625 35.515625 20.015625 
Q 33.0625 21.96875 24.703125 23.78125 
L 21.578125 24.515625 
Q 13.234375 26.265625 9.515625 29.90625 
Q 5.8125 33.546875 5.8125 39.890625 
Q 5.8125 47.609375 11.28125 51.796875 
Q 16.75 56 26.8125 56 
Q 31.78125 56 36.171875 55.265625 
Q 40.578125 54.546875 44.28125 53.078125 
z
" id="DejaVuSans-115"/>
      <path d="M 48.78125 52.59375 
L 48.78125 44.1875 
Q 44.96875 46.296875 41.140625 47.34375 
Q 37.3125 48.390625 33.40625 48.390625 
Q 24.65625 48.390625 19.8125 42.84375 
Q 14.984375 37.3125 14.984375 27.296875 
Q 14.984375 17.28125 19.8125 11.734375 
Q 24.65625 6.203125 33.40625 6.203125 
Q 37.3125 6.203125 41.140625 7.25 
Q 44.96875 8.296875 48.78125 10.40625 
L 48.78125 2.09375 
Q 45.015625 0.34375 40.984375 -0.53125 
Q 36.96875 -1.421875 32.421875 -1.421875 
Q 20.0625 -1.421875 12.78125 6.34375 
Q 5.515625 14.109375 5.515625 27.296875 
Q 5.515625 40.671875 12.859375 48.328125 
Q 20.21875 56 33.015625 56 
Q 37.15625 56 41.109375 55.140625 
Q 45.0625 54.296875 48.78125 52.59375 
z
" id="DejaVuSans-99"/>
      <path d="M 41.109375 46.296875 
Q 39.59375 47.171875 37.8125 47.578125 
Q 36.03125 48 33.890625 48 
Q 26.265625 48 22.1875 43.046875 
Q 18.109375 38.09375 18.109375 28.8125 
L 18.109375 0 
L 9.078125 0 
L 9.078125 54.6875 
L 18.109375 54.6875 
L 18.109375 46.1875 
Q 20.953125 51.171875 25.484375 53.578125 
Q 30.03125 56 36.53125 56 
Q 37.453125 56 38.578125 55.875 
Q 39.703125 55.765625 41.0625 55.515625 
z
" id="DejaVuSans-114"/>
      <path d="M 9.421875 54.6875 
L 18.40625 54.6875 
L 18.40625 0 
L 9.421875 0 
z
M 9.421875 75.984375 
L 18.40625 75.984375 
L 18.40625 64.59375 
L 9.421875 64.59375 
z
" id="DejaVuSans-105"/>
      <path d="M 18.109375 8.203125 
L 18.109375 -20.796875 
L 9.078125 -20.796875 
L 9.078125 54.6875 
L 18.109375 54.6875 
L 18.109375 46.390625 
Q 20.953125 51.265625 25.265625 53.625 
Q 29.59375 56 35.59375 56 
Q 45.5625 56 51.78125 48.09375 
Q 58.015625 40.1875 58.015625 27.296875 
Q 58.015625 14.40625 51.78125 6.484375 
Q 45.5625 -1.421875 35.59375 -1.421875 
Q 29.59375 -1.421875 25.265625 0.953125 
Q 20.953125 3.328125 18.109375 8.203125 
z
M 48.6875 27.296875 
Q 48.6875 37.203125 44.609375 42.84375 
Q 40.53125 48.484375 33.40625 48.484375 
Q 26.265625 48.484375 22.1875 42.84375 
Q 18.109375 37.203125 18.109375 27.296875 
Q 18.109375 17.390625 22.1875 11.75 
Q 26.265625 6.109375 33.40625 6.109375 
Q 40.53125 6.109375 44.609375 11.75 
Q 48.6875 17.390625 48.6875 27.296875 
z
" id="DejaVuSans-112"/>
     </defs>
     <g transform="translate(25.43625 255.920593)rotate(-90)scale(0.24 -0.24)">
      <use xlink:href="#DejaVuSans-84"/>
      <use x="60.818359" xlink:href="#DejaVuSans-111"/>
      <use x="122" xlink:href="#DejaVuSans-116"/>
      <use x="161.208984" xlink:href="#DejaVuSans-97"/>
      <use x="222.488281" xlink:href="#DejaVuSans-108"/>
      <use x="250.271484" xlink:href="#DejaVuSans-32"/>
      <use x="282.058594" xlink:href="#DejaVuSans-109"/>
      <use x="379.470703" xlink:href="#DejaVuSans-97"/>
      <use x="440.75" xlink:href="#DejaVuSans-110"/>
      <use x="504.128906" xlink:href="#DejaVuSans-117"/>
      <use x="567.507812" xlink:href="#DejaVuSans-115"/>
      <use x="619.607422" xlink:href="#DejaVuSans-99"/>
      <use x="674.587891" xlink:href="#DejaVuSans-114"/>
      <use x="715.701172" xlink:href="#DejaVuSans-105"/>
      <use x="743.484375" xlink:href="#DejaVuSans-112"/>
      <use x="806.960938" xlink:href="#DejaVuSans-116"/>
      <use x="846.169922" xlink:href="#DejaVuSans-115"/>
     </g>
    </g>
   </g>
   <g id="line2d_31">
    <path clip-path="url(#p8791c25ef0)" d="M 171.111364 266.992983 
L 186.439029 265.972081 
L 194.102861 264.718342 
L 201.766694 264.280529 
L 209.430526 262.632757 
L 229.137525 260.574701 
L 236.801357 239.041897 
L 244.46519 237.146695 
L 245.560023 236.529444 
L 247.749689 235.620649 
L 248.844523 235.536403 
L 251.034189 235.048506 
L 252.129022 234.857128 
L 253.223855 236.833923 
L 254.318689 236.617007 
L 257.603188 236.358299 
L 258.698022 236.08367 
L 259.792855 235.624961 
L 261.982521 235.059451 
L 263.077354 234.96625 
L 266.361854 234.261437 
L 267.456687 233.060766 
L 268.551521 229.455768 
L 270.741187 229.163892 
L 272.930853 228.973841 
L 274.025687 228.940674 
L 275.12052 228.473341 
L 276.215353 228.56422 
L 277.310186 228.072675 
L 278.40502 227.415954 
L 279.499853 227.319436 
L 280.594686 226.113791 
L 281.689519 225.99704 
L 283.879186 225.334018 
L 286.068852 221.907131 
L 287.163685 221.474956 
L 289.353352 221.185733 
L 290.448185 220.91608 
L 291.543018 220.323041 
L 293.732685 219.659687 
L 295.922351 219.325025 
L 298.112018 218.426512 
L 299.206851 218.191685 
L 300.301684 217.80893 
L 307.965517 215.944905 
L 312.34485 215.6255 
L 313.439683 214.61488 
L 314.534516 214.286851 
L 315.629349 214.156171 
L 316.724182 213.724659 
L 320.008682 212.899446 
L 321.103515 212.80525 
L 323.293182 211.873238 
L 324.388015 211.598609 
L 325.482848 211.829456 
L 329.862181 210.942884 
L 330.957014 210.174388 
L 332.051848 209.824137 
L 333.146681 207.147503 
L 334.241514 206.497748 
L 336.431181 206.220466 
L 338.620847 205.409848 
L 339.71568 205.266895 
L 341.905347 204.284799 
L 343.00018 204.200221 
L 344.095013 203.953122 
L 347.379513 202.49706 
L 348.474346 202.388933 
L 351.758846 201.339507 
L 352.853679 200.789587 
L 353.948512 200.379966 
L 359.422678 198.685759 
L 360.517511 198.16569 
L 362.707178 197.594874 
L 365.991678 195.047926 
L 367.086511 194.589548 
L 368.181344 193.409441 
L 369.276177 193.37561 
L 370.37101 192.715905 
L 371.465844 191.797159 
L 372.560677 191.098648 
L 374.750343 190.769292 
L 375.845177 190.359008 
L 376.94001 189.779236 
L 378.034843 188.964306 
L 380.224509 188.118529 
L 384.603842 187.143399 
L 387.888342 186.334107 
L 388.983175 186.191154 
L 391.172842 185.531449 
L 392.267675 184.280031 
L 393.362508 183.966928 
L 394.457341 182.216005 
L 395.552175 181.603729 
L 398.836674 180.71384 
L 399.931508 180.380836 
L 401.026341 179.92478 
L 402.121174 179.716487 
L 403.216007 179.10388 
L 404.31084 179.063747 
L 405.405674 178.563246 
L 406.500507 178.303875 
L 407.59534 177.512825 
L 408.690173 176.86705 
L 410.87984 176.141009 
L 413.069506 175.65079 
L 414.164339 175.351286 
L 415.259173 174.713471 
L 417.448839 171.940651 
L 418.543672 171.391062 
L 420.733339 171.051093 
L 421.828172 170.786083 
L 424.017838 169.144282 
L 426.207505 168.321392 
L 428.397171 167.972799 
L 430.586838 167.007951 
L 431.681671 166.813588 
L 432.776504 164.078911 
L 433.871337 163.73264 
L 434.966171 163.653037 
L 436.061004 163.455358 
L 437.155837 163.028158 
L 439.345504 162.483544 
L 441.53517 161.754187 
L 443.724836 161.429806 
L 447.009336 159.855999 
L 448.104169 159.71968 
L 454.673169 157.759468 
L 455.768002 157.60955 
L 456.862835 157.31668 
L 457.957668 157.249681 
L 461.242168 156.204567 
L 462.337001 155.762109 
L 463.431835 155.631097 
L 464.526668 155.019816 
L 468.906001 152.953468 
L 470.000834 152.276847 
L 472.1905 151.613162 
L 474.380167 151.321286 
L 475.475 150.743173 
L 476.569833 150.39856 
L 477.664666 150.38463 
L 483.138833 149.857927 
L 484.233666 148.949463 
L 488.612999 148.847307 
L 490.802665 148.519278 
L 491.897498 145.287086 
L 492.992332 144.678458 
L 494.087165 144.338821 
L 495.181998 143.616097 
L 497.371664 143.303326 
L 499.561331 142.407134 
L 501.750997 140.789545 
L 502.845831 140.478432 
L 503.940664 140.432993 
L 505.035497 140.003471 
L 507.225164 139.644265 
L 509.41483 138.646249 
L 510.509663 138.188203 
L 512.69933 137.902297 
L 514.888996 136.129152 
L 515.983829 136.01406 
L 517.078663 135.572929 
L 519.268329 135.346394 
L 526.932162 132.277386 
L 534.595994 128.832589 
L 542.259827 126.593769 
L 549.923659 123.524098 
L 557.587492 121.718117 
L 572.915157 118.838165 
L 580.57899 116.515763 
L 588.242822 108.4716 
L 597.001488 105.986676 
L 603.570487 103.609878 
L 611.23432 101.092781 
L 618.898152 98.26623 
L 626.561985 93.318935 
L 634.225818 89.534169 
L 641.88965 86.646589 
L 649.553483 82.780893 
L 664.881148 65.761882 
L 672.54498 62.918083 
L 680.208813 59.511428 
L 687.872646 55.573427 
L 695.536478 52.378382 
L 703.200311 46.448992 
L 710.864143 43.352456 
L 718.527976 39.617109 
L 726.191808 36.11858 
L 737.140141 33.332824 
L 741.519474 30.131478 
L 749.183306 26.623662 
L 756.847139 32.257528 
L 772.174804 29.394823 
L 779.838636 28.07707 
L 779.838636 28.07707 
" style="fill:none;stroke:#1f77b4;stroke-linecap:square;stroke-width:5;"/>
   </g>
   <g id="patch_3">
    <path d="M 140.675 281.659741 
L 140.675 14.605196 
" style="fill:none;stroke:#000000;stroke-linecap:square;stroke-linejoin:miter;stroke-width:0.8;"/>
   </g>
   <g id="patch_4">
    <path d="M 140.675 281.659741 
L 810.275 281.659741 
" style="fill:none;stroke:#000000;stroke-linecap:square;stroke-linejoin:miter;stroke-width:0.8;"/>
   </g>
  </g>
  <g id="axes_2">
   <g id="patch_5">
    <path d="M 140.675 602.125196 
L 810.275 602.125196 
L 810.275 335.07065 
L 140.675 335.07065 
z
" style="fill:#ffffff;"/>
   </g>
   <g id="matplotlib.axis_3">
    <g id="xtick_11">
     <g id="line2d_32">
      <path clip-path="url(#pae751ca6d8)" d="M 150.309532 602.125196 
L 150.309532 335.07065 
" style="fill:none;stroke:#d3d3d3;stroke-linecap:square;stroke-width:0.8;"/>
     </g>
     <g id="line2d_33">
      <g>
       <use style="stroke:#000000;stroke-width:0.8;" x="150.309532" xlink:href="#m9366c2213c" y="602.125196"/>
      </g>
     </g>
     <g id="text_7">
      <!-- 2020-03 -->
      <defs>
       <path d="M 4.890625 31.390625 
L 31.203125 31.390625 
L 31.203125 23.390625 
L 4.890625 23.390625 
z
" id="DejaVuSans-45"/>
       <path d="M 40.578125 39.3125 
Q 47.65625 37.796875 51.625 33 
Q 55.609375 28.21875 55.609375 21.1875 
Q 55.609375 10.40625 48.1875 4.484375 
Q 40.765625 -1.421875 27.09375 -1.421875 
Q 22.515625 -1.421875 17.65625 -0.515625 
Q 12.796875 0.390625 7.625 2.203125 
L 7.625 11.71875 
Q 11.71875 9.328125 16.59375 8.109375 
Q 21.484375 6.890625 26.8125 6.890625 
Q 36.078125 6.890625 40.9375 10.546875 
Q 45.796875 14.203125 45.796875 21.1875 
Q 45.796875 27.640625 41.28125 31.265625 
Q 36.765625 34.90625 28.71875 34.90625 
L 20.21875 34.90625 
L 20.21875 43.015625 
L 29.109375 43.015625 
Q 36.375 43.015625 40.234375 45.921875 
Q 44.09375 48.828125 44.09375 54.296875 
Q 44.09375 59.90625 40.109375 62.90625 
Q 36.140625 65.921875 28.71875 65.921875 
Q 24.65625 65.921875 20.015625 65.03125 
Q 15.375 64.15625 9.8125 62.3125 
L 9.8125 71.09375 
Q 15.4375 72.65625 20.34375 73.4375 
Q 25.25 74.21875 29.59375 74.21875 
Q 40.828125 74.21875 47.359375 69.109375 
Q 53.90625 64.015625 53.90625 55.328125 
Q 53.90625 49.265625 50.4375 45.09375 
Q 46.96875 40.921875 40.578125 39.3125 
z
" id="DejaVuSans-51"/>
      </defs>
      <g transform="translate(60.969962 675.057626)rotate(-30)scale(0.24 -0.24)">
       <use xlink:href="#DejaVuSans-50"/>
       <use x="63.623047" xlink:href="#DejaVuSans-48"/>
       <use x="127.246094" xlink:href="#DejaVuSans-50"/>
       <use x="190.869141" xlink:href="#DejaVuSans-48"/>
       <use x="254.492188" xlink:href="#DejaVuSans-45"/>
       <use x="290.576172" xlink:href="#DejaVuSans-48"/>
       <use x="354.199219" xlink:href="#DejaVuSans-51"/>
      </g>
     </g>
    </g>
    <g id="xtick_12">
     <g id="line2d_34">
      <path clip-path="url(#pae751ca6d8)" d="M 217.094359 602.125196 
L 217.094359 335.07065 
" style="fill:none;stroke:#d3d3d3;stroke-linecap:square;stroke-width:0.8;"/>
     </g>
     <g id="line2d_35">
      <g>
       <use style="stroke:#000000;stroke-width:0.8;" x="217.094359" xlink:href="#m9366c2213c" y="602.125196"/>
      </g>
     </g>
     <g id="text_8">
      <!-- 2020-05 -->
      <defs>
       <path d="M 10.796875 72.90625 
L 49.515625 72.90625 
L 49.515625 64.59375 
L 19.828125 64.59375 
L 19.828125 46.734375 
Q 21.96875 47.46875 24.109375 47.828125 
Q 26.265625 48.1875 28.421875 48.1875 
Q 40.625 48.1875 47.75 41.5 
Q 54.890625 34.8125 54.890625 23.390625 
Q 54.890625 11.625 47.5625 5.09375 
Q 40.234375 -1.421875 26.90625 -1.421875 
Q 22.3125 -1.421875 17.546875 -0.640625 
Q 12.796875 0.140625 7.71875 1.703125 
L 7.71875 11.625 
Q 12.109375 9.234375 16.796875 8.0625 
Q 21.484375 6.890625 26.703125 6.890625 
Q 35.15625 6.890625 40.078125 11.328125 
Q 45.015625 15.765625 45.015625 23.390625 
Q 45.015625 31 40.078125 35.4375 
Q 35.15625 39.890625 26.703125 39.890625 
Q 22.75 39.890625 18.8125 39.015625 
Q 14.890625 38.140625 10.796875 36.28125 
z
" id="DejaVuSans-53"/>
      </defs>
      <g transform="translate(127.754789 675.057626)rotate(-30)scale(0.24 -0.24)">
       <use xlink:href="#DejaVuSans-50"/>
       <use x="63.623047" xlink:href="#DejaVuSans-48"/>
       <use x="127.246094" xlink:href="#DejaVuSans-50"/>
       <use x="190.869141" xlink:href="#DejaVuSans-48"/>
       <use x="254.492188" xlink:href="#DejaVuSans-45"/>
       <use x="290.576172" xlink:href="#DejaVuSans-48"/>
       <use x="354.199219" xlink:href="#DejaVuSans-53"/>
      </g>
     </g>
    </g>
    <g id="xtick_13">
     <g id="line2d_36">
      <path clip-path="url(#pae751ca6d8)" d="M 283.879186 602.125196 
L 283.879186 335.07065 
" style="fill:none;stroke:#d3d3d3;stroke-linecap:square;stroke-width:0.8;"/>
     </g>
     <g id="line2d_37">
      <g>
       <use style="stroke:#000000;stroke-width:0.8;" x="283.879186" xlink:href="#m9366c2213c" y="602.125196"/>
      </g>
     </g>
     <g id="text_9">
      <!-- 2020-07 -->
      <defs>
       <path d="M 8.203125 72.90625 
L 55.078125 72.90625 
L 55.078125 68.703125 
L 28.609375 0 
L 18.3125 0 
L 43.21875 64.59375 
L 8.203125 64.59375 
z
" id="DejaVuSans-55"/>
      </defs>
      <g transform="translate(194.539616 675.057626)rotate(-30)scale(0.24 -0.24)">
       <use xlink:href="#DejaVuSans-50"/>
       <use x="63.623047" xlink:href="#DejaVuSans-48"/>
       <use x="127.246094" xlink:href="#DejaVuSans-50"/>
       <use x="190.869141" xlink:href="#DejaVuSans-48"/>
       <use x="254.492188" xlink:href="#DejaVuSans-45"/>
       <use x="290.576172" xlink:href="#DejaVuSans-48"/>
       <use x="354.199219" xlink:href="#DejaVuSans-55"/>
      </g>
     </g>
    </g>
    <g id="xtick_14">
     <g id="line2d_38">
      <path clip-path="url(#pae751ca6d8)" d="M 351.758846 602.125196 
L 351.758846 335.07065 
" style="fill:none;stroke:#d3d3d3;stroke-linecap:square;stroke-width:0.8;"/>
     </g>
     <g id="line2d_39">
      <g>
       <use style="stroke:#000000;stroke-width:0.8;" x="351.758846" xlink:href="#m9366c2213c" y="602.125196"/>
      </g>
     </g>
     <g id="text_10">
      <!-- 2020-09 -->
      <defs>
       <path d="M 10.984375 1.515625 
L 10.984375 10.5 
Q 14.703125 8.734375 18.5 7.8125 
Q 22.3125 6.890625 25.984375 6.890625 
Q 35.75 6.890625 40.890625 13.453125 
Q 46.046875 20.015625 46.78125 33.40625 
Q 43.953125 29.203125 39.59375 26.953125 
Q 35.25 24.703125 29.984375 24.703125 
Q 19.046875 24.703125 12.671875 31.3125 
Q 6.296875 37.9375 6.296875 49.421875 
Q 6.296875 60.640625 12.9375 67.421875 
Q 19.578125 74.21875 30.609375 74.21875 
Q 43.265625 74.21875 49.921875 64.515625 
Q 56.59375 54.828125 56.59375 36.375 
Q 56.59375 19.140625 48.40625 8.859375 
Q 40.234375 -1.421875 26.421875 -1.421875 
Q 22.703125 -1.421875 18.890625 -0.6875 
Q 15.09375 0.046875 10.984375 1.515625 
z
M 30.609375 32.421875 
Q 37.25 32.421875 41.125 36.953125 
Q 45.015625 41.5 45.015625 49.421875 
Q 45.015625 57.28125 41.125 61.84375 
Q 37.25 66.40625 30.609375 66.40625 
Q 23.96875 66.40625 20.09375 61.84375 
Q 16.21875 57.28125 16.21875 49.421875 
Q 16.21875 41.5 20.09375 36.953125 
Q 23.96875 32.421875 30.609375 32.421875 
z
" id="DejaVuSans-57"/>
      </defs>
      <g transform="translate(262.419276 675.057626)rotate(-30)scale(0.24 -0.24)">
       <use xlink:href="#DejaVuSans-50"/>
       <use x="63.623047" xlink:href="#DejaVuSans-48"/>
       <use x="127.246094" xlink:href="#DejaVuSans-50"/>
       <use x="190.869141" xlink:href="#DejaVuSans-48"/>
       <use x="254.492188" xlink:href="#DejaVuSans-45"/>
       <use x="290.576172" xlink:href="#DejaVuSans-48"/>
       <use x="354.199219" xlink:href="#DejaVuSans-57"/>
      </g>
     </g>
    </g>
    <g id="xtick_15">
     <g id="line2d_40">
      <path clip-path="url(#pae751ca6d8)" d="M 418.543672 602.125196 
L 418.543672 335.07065 
" style="fill:none;stroke:#d3d3d3;stroke-linecap:square;stroke-width:0.8;"/>
     </g>
     <g id="line2d_41">
      <g>
       <use style="stroke:#000000;stroke-width:0.8;" x="418.543672" xlink:href="#m9366c2213c" y="602.125196"/>
      </g>
     </g>
     <g id="text_11">
      <!-- 2020-11 -->
      <defs>
       <path d="M 12.40625 8.296875 
L 28.515625 8.296875 
L 28.515625 63.921875 
L 10.984375 60.40625 
L 10.984375 69.390625 
L 28.421875 72.90625 
L 38.28125 72.90625 
L 38.28125 8.296875 
L 54.390625 8.296875 
L 54.390625 0 
L 12.40625 0 
z
" id="DejaVuSans-49"/>
      </defs>
      <g transform="translate(329.204102 675.057626)rotate(-30)scale(0.24 -0.24)">
       <use xlink:href="#DejaVuSans-50"/>
       <use x="63.623047" xlink:href="#DejaVuSans-48"/>
       <use x="127.246094" xlink:href="#DejaVuSans-50"/>
       <use x="190.869141" xlink:href="#DejaVuSans-48"/>
       <use x="254.492188" xlink:href="#DejaVuSans-45"/>
       <use x="290.576172" xlink:href="#DejaVuSans-49"/>
       <use x="354.199219" xlink:href="#DejaVuSans-49"/>
      </g>
     </g>
    </g>
    <g id="xtick_16">
     <g id="line2d_42">
      <path clip-path="url(#pae751ca6d8)" d="M 485.328499 602.125196 
L 485.328499 335.07065 
" style="fill:none;stroke:#d3d3d3;stroke-linecap:square;stroke-width:0.8;"/>
     </g>
     <g id="line2d_43">
      <g>
       <use style="stroke:#000000;stroke-width:0.8;" x="485.328499" xlink:href="#m9366c2213c" y="602.125196"/>
      </g>
     </g>
     <g id="text_12">
      <!-- 2021-01 -->
      <g transform="translate(395.988929 675.057626)rotate(-30)scale(0.24 -0.24)">
       <use xlink:href="#DejaVuSans-50"/>
       <use x="63.623047" xlink:href="#DejaVuSans-48"/>
       <use x="127.246094" xlink:href="#DejaVuSans-50"/>
       <use x="190.869141" xlink:href="#DejaVuSans-49"/>
       <use x="254.492188" xlink:href="#DejaVuSans-45"/>
       <use x="290.576172" xlink:href="#DejaVuSans-48"/>
       <use x="354.199219" xlink:href="#DejaVuSans-49"/>
      </g>
     </g>
    </g>
    <g id="xtick_17">
     <g id="line2d_44">
      <path clip-path="url(#pae751ca6d8)" d="M 549.923659 602.125196 
L 549.923659 335.07065 
" style="fill:none;stroke:#d3d3d3;stroke-linecap:square;stroke-width:0.8;"/>
     </g>
     <g id="line2d_45">
      <g>
       <use style="stroke:#000000;stroke-width:0.8;" x="549.923659" xlink:href="#m9366c2213c" y="602.125196"/>
      </g>
     </g>
     <g id="text_13">
      <!-- 2021-03 -->
      <g transform="translate(460.584089 675.057626)rotate(-30)scale(0.24 -0.24)">
       <use xlink:href="#DejaVuSans-50"/>
       <use x="63.623047" xlink:href="#DejaVuSans-48"/>
       <use x="127.246094" xlink:href="#DejaVuSans-50"/>
       <use x="190.869141" xlink:href="#DejaVuSans-49"/>
       <use x="254.492188" xlink:href="#DejaVuSans-45"/>
       <use x="290.576172" xlink:href="#DejaVuSans-48"/>
       <use x="354.199219" xlink:href="#DejaVuSans-51"/>
      </g>
     </g>
    </g>
    <g id="xtick_18">
     <g id="line2d_46">
      <path clip-path="url(#pae751ca6d8)" d="M 616.708486 602.125196 
L 616.708486 335.07065 
" style="fill:none;stroke:#d3d3d3;stroke-linecap:square;stroke-width:0.8;"/>
     </g>
     <g id="line2d_47">
      <g>
       <use style="stroke:#000000;stroke-width:0.8;" x="616.708486" xlink:href="#m9366c2213c" y="602.125196"/>
      </g>
     </g>
     <g id="text_14">
      <!-- 2021-05 -->
      <g transform="translate(527.368916 675.057626)rotate(-30)scale(0.24 -0.24)">
       <use xlink:href="#DejaVuSans-50"/>
       <use x="63.623047" xlink:href="#DejaVuSans-48"/>
       <use x="127.246094" xlink:href="#DejaVuSans-50"/>
       <use x="190.869141" xlink:href="#DejaVuSans-49"/>
       <use x="254.492188" xlink:href="#DejaVuSans-45"/>
       <use x="290.576172" xlink:href="#DejaVuSans-48"/>
       <use x="354.199219" xlink:href="#DejaVuSans-53"/>
      </g>
     </g>
    </g>
    <g id="xtick_19">
     <g id="line2d_48">
      <path clip-path="url(#pae751ca6d8)" d="M 683.493313 602.125196 
L 683.493313 335.07065 
" style="fill:none;stroke:#d3d3d3;stroke-linecap:square;stroke-width:0.8;"/>
     </g>
     <g id="line2d_49">
      <g>
       <use style="stroke:#000000;stroke-width:0.8;" x="683.493313" xlink:href="#m9366c2213c" y="602.125196"/>
      </g>
     </g>
     <g id="text_15">
      <!-- 2021-07 -->
      <g transform="translate(594.153743 675.057626)rotate(-30)scale(0.24 -0.24)">
       <use xlink:href="#DejaVuSans-50"/>
       <use x="63.623047" xlink:href="#DejaVuSans-48"/>
       <use x="127.246094" xlink:href="#DejaVuSans-50"/>
       <use x="190.869141" xlink:href="#DejaVuSans-49"/>
       <use x="254.492188" xlink:href="#DejaVuSans-45"/>
       <use x="290.576172" xlink:href="#DejaVuSans-48"/>
       <use x="354.199219" xlink:href="#DejaVuSans-55"/>
      </g>
     </g>
    </g>
    <g id="xtick_20">
     <g id="line2d_50">
      <path clip-path="url(#pae751ca6d8)" d="M 751.372973 602.125196 
L 751.372973 335.07065 
" style="fill:none;stroke:#d3d3d3;stroke-linecap:square;stroke-width:0.8;"/>
     </g>
     <g id="line2d_51">
      <g>
       <use style="stroke:#000000;stroke-width:0.8;" x="751.372973" xlink:href="#m9366c2213c" y="602.125196"/>
      </g>
     </g>
     <g id="text_16">
      <!-- 2021-09 -->
      <g transform="translate(662.033403 675.057626)rotate(-30)scale(0.24 -0.24)">
       <use xlink:href="#DejaVuSans-50"/>
       <use x="63.623047" xlink:href="#DejaVuSans-48"/>
       <use x="127.246094" xlink:href="#DejaVuSans-50"/>
       <use x="190.869141" xlink:href="#DejaVuSans-49"/>
       <use x="254.492188" xlink:href="#DejaVuSans-45"/>
       <use x="290.576172" xlink:href="#DejaVuSans-48"/>
       <use x="354.199219" xlink:href="#DejaVuSans-57"/>
      </g>
     </g>
    </g>
   </g>
   <g id="matplotlib.axis_4">
    <g id="ytick_6">
     <g id="line2d_52">
      <path clip-path="url(#pae751ca6d8)" d="M 140.675 602.125196 
L 810.275 602.125196 
" style="fill:none;stroke:#d3d3d3;stroke-linecap:square;stroke-width:0.8;"/>
     </g>
     <g id="line2d_53">
      <g>
       <use style="stroke:#000000;stroke-width:0.8;" x="140.675" xlink:href="#m7385a89a56" y="602.125196"/>
      </g>
     </g>
     <g id="text_17">
      <!-- 0 -->
      <g transform="translate(118.405 611.243321)scale(0.24 -0.24)">
       <use xlink:href="#DejaVuSans-48"/>
      </g>
     </g>
    </g>
    <g id="ytick_7">
     <g id="line2d_54">
      <path clip-path="url(#pae751ca6d8)" d="M 140.675 520.812973 
L 810.275 520.812973 
" style="fill:none;stroke:#d3d3d3;stroke-linecap:square;stroke-width:0.8;"/>
     </g>
     <g id="line2d_55">
      <g>
       <use style="stroke:#000000;stroke-width:0.8;" x="140.675" xlink:href="#m7385a89a56" y="520.812973"/>
      </g>
     </g>
     <g id="text_18">
      <!-- 5,000 -->
      <g transform="translate(64.9675 529.931098)scale(0.24 -0.24)">
       <use xlink:href="#DejaVuSans-53"/>
       <use x="63.623047" xlink:href="#DejaVuSans-44"/>
       <use x="95.410156" xlink:href="#DejaVuSans-48"/>
       <use x="159.033203" xlink:href="#DejaVuSans-48"/>
       <use x="222.65625" xlink:href="#DejaVuSans-48"/>
      </g>
     </g>
    </g>
    <g id="ytick_8">
     <g id="line2d_56">
      <path clip-path="url(#pae751ca6d8)" d="M 140.675 439.500751 
L 810.275 439.500751 
" style="fill:none;stroke:#d3d3d3;stroke-linecap:square;stroke-width:0.8;"/>
     </g>
     <g id="line2d_57">
      <g>
       <use style="stroke:#000000;stroke-width:0.8;" x="140.675" xlink:href="#m7385a89a56" y="439.500751"/>
      </g>
     </g>
     <g id="text_19">
      <!-- 10,000 -->
      <g transform="translate(49.6975 448.618876)scale(0.24 -0.24)">
       <use xlink:href="#DejaVuSans-49"/>
       <use x="63.623047" xlink:href="#DejaVuSans-48"/>
       <use x="127.246094" xlink:href="#DejaVuSans-44"/>
       <use x="159.033203" xlink:href="#DejaVuSans-48"/>
       <use x="222.65625" xlink:href="#DejaVuSans-48"/>
       <use x="286.279297" xlink:href="#DejaVuSans-48"/>
      </g>
     </g>
    </g>
    <g id="ytick_9">
     <g id="line2d_58">
      <path clip-path="url(#pae751ca6d8)" d="M 140.675 358.188528 
L 810.275 358.188528 
" style="fill:none;stroke:#d3d3d3;stroke-linecap:square;stroke-width:0.8;"/>
     </g>
     <g id="line2d_59">
      <g>
       <use style="stroke:#000000;stroke-width:0.8;" x="140.675" xlink:href="#m7385a89a56" y="358.188528"/>
      </g>
     </g>
     <g id="text_20">
      <!-- 15,000 -->
      <g transform="translate(49.6975 367.306653)scale(0.24 -0.24)">
       <use xlink:href="#DejaVuSans-49"/>
       <use x="63.623047" xlink:href="#DejaVuSans-53"/>
       <use x="127.246094" xlink:href="#DejaVuSans-44"/>
       <use x="159.033203" xlink:href="#DejaVuSans-48"/>
       <use x="222.65625" xlink:href="#DejaVuSans-48"/>
       <use x="286.279297" xlink:href="#DejaVuSans-48"/>
      </g>
     </g>
    </g>
    <g id="text_21">
     <!-- Preprints -->
     <defs>
      <path d="M 19.671875 64.796875 
L 19.671875 37.40625 
L 32.078125 37.40625 
Q 38.96875 37.40625 42.71875 40.96875 
Q 46.484375 44.53125 46.484375 51.125 
Q 46.484375 57.671875 42.71875 61.234375 
Q 38.96875 64.796875 32.078125 64.796875 
z
M 9.8125 72.90625 
L 32.078125 72.90625 
Q 44.34375 72.90625 50.609375 67.359375 
Q 56.890625 61.8125 56.890625 51.125 
Q 56.890625 40.328125 50.609375 34.8125 
Q 44.34375 29.296875 32.078125 29.296875 
L 19.671875 29.296875 
L 19.671875 0 
L 9.8125 0 
z
" id="DejaVuSans-80"/>
      <path d="M 56.203125 29.59375 
L 56.203125 25.203125 
L 14.890625 25.203125 
Q 15.484375 15.921875 20.484375 11.0625 
Q 25.484375 6.203125 34.421875 6.203125 
Q 39.59375 6.203125 44.453125 7.46875 
Q 49.3125 8.734375 54.109375 11.28125 
L 54.109375 2.78125 
Q 49.265625 0.734375 44.1875 -0.34375 
Q 39.109375 -1.421875 33.890625 -1.421875 
Q 20.796875 -1.421875 13.15625 6.1875 
Q 5.515625 13.8125 5.515625 26.8125 
Q 5.515625 40.234375 12.765625 48.109375 
Q 20.015625 56 32.328125 56 
Q 43.359375 56 49.78125 48.890625 
Q 56.203125 41.796875 56.203125 29.59375 
z
M 47.21875 32.234375 
Q 47.125 39.59375 43.09375 43.984375 
Q 39.0625 48.390625 32.421875 48.390625 
Q 24.90625 48.390625 20.390625 44.140625 
Q 15.875 39.890625 15.1875 32.171875 
z
" id="DejaVuSans-101"/>
     </defs>
     <g transform="translate(40.70625 522.590423)rotate(-90)scale(0.24 -0.24)">
      <use xlink:href="#DejaVuSans-80"/>
      <use x="60.287109" xlink:href="#DejaVuSans-114"/>
      <use x="101.369141" xlink:href="#DejaVuSans-101"/>
      <use x="162.892578" xlink:href="#DejaVuSans-112"/>
      <use x="226.369141" xlink:href="#DejaVuSans-114"/>
      <use x="267.482422" xlink:href="#DejaVuSans-105"/>
      <use x="295.265625" xlink:href="#DejaVuSans-110"/>
      <use x="358.644531" xlink:href="#DejaVuSans-116"/>
      <use x="397.853516" xlink:href="#DejaVuSans-115"/>
     </g>
    </g>
   </g>
   <g id="line2d_60">
    <path clip-path="url(#pae751ca6d8)" d="M 171.111364 599.246743 
L 178.775196 597.653023 
L 186.439029 595.620218 
L 194.102861 593.262163 
L 209.430526 589.212815 
L 217.094359 586.610824 
L 229.137525 583.423384 
L 236.801357 580.918968 
L 248.844523 577.422542 
L 251.034189 577.097294 
L 252.129022 576.625683 
L 257.603188 575.097013 
L 258.698022 574.918126 
L 259.792855 574.430253 
L 264.172188 572.917845 
L 266.361854 572.657646 
L 267.456687 572.120986 
L 268.551521 571.714424 
L 269.646354 571.470488 
L 271.83602 570.771203 
L 274.025687 570.543528 
L 275.12052 570.250804 
L 276.215353 569.730406 
L 280.594686 568.592035 
L 282.784353 568.201736 
L 283.879186 567.941537 
L 287.163685 566.917003 
L 289.353352 566.477917 
L 291.543018 565.681057 
L 292.637852 565.274496 
L 297.017184 564.445112 
L 298.112018 564.266225 
L 300.301684 563.518152 
L 304.681017 562.509881 
L 306.870683 561.843121 
L 310.155183 560.818587 
L 312.34485 560.44455 
L 316.724182 558.915881 
L 317.819016 558.509319 
L 320.008682 558.086496 
L 324.388015 556.720451 
L 325.482848 556.427727 
L 327.672515 556.281365 
L 329.862181 555.630867 
L 333.146681 554.72017 
L 336.431181 554.150984 
L 338.620847 553.679373 
L 340.810513 553.061401 
L 343.00018 552.833726 
L 346.28468 551.955554 
L 348.474346 551.207482 
L 353.948512 550.296785 
L 360.517511 548.784378 
L 362.707178 548.052568 
L 369.276177 546.865409 
L 370.37101 546.491373 
L 371.465844 546.247436 
L 373.65551 546.0035 
L 375.845177 545.287952 
L 376.94001 544.913916 
L 381.319343 544.100794 
L 387.888342 542.718486 
L 388.983175 542.620911 
L 393.362508 541.287391 
L 394.457341 540.913355 
L 396.647008 540.523056 
L 398.836674 539.937608 
L 399.931508 539.774983 
L 401.026341 539.368422 
L 405.405674 538.49025 
L 406.500507 538.018639 
L 408.690173 537.400667 
L 409.785007 537.02663 
L 411.974673 536.701381 
L 413.069506 536.327345 
L 414.164339 535.823209 
L 418.543672 534.424639 
L 419.638506 534.245752 
L 420.733339 533.871716 
L 422.923005 533.448892 
L 426.207505 532.652033 
L 428.397171 532.196684 
L 433.871337 530.944476 
L 434.966171 530.814376 
L 438.25067 529.871155 
L 439.345504 529.610956 
L 441.53517 529.253182 
L 442.630003 529.204394 
L 443.724836 528.749046 
L 447.009336 527.968449 
L 449.199003 527.675725 
L 454.673169 526.260892 
L 455.768002 525.935643 
L 457.957668 525.707969 
L 460.147335 524.862322 
L 463.431835 523.935362 
L 464.526668 523.772738 
L 472.1905 522.000132 
L 473.285334 521.935082 
L 474.380167 521.642358 
L 475.475 521.12196 
L 477.664666 520.471462 
L 480.949166 520.097426 
L 483.138833 519.690864 
L 486.423332 519.007842 
L 489.707832 518.422394 
L 490.802665 518.032095 
L 494.087165 517.414122 
L 496.276831 517.056348 
L 499.561331 515.93424 
L 501.750997 515.397579 
L 503.940664 515.121118 
L 505.035497 514.844656 
L 506.13033 514.34052 
L 507.225164 513.966484 
L 511.604496 513.283461 
L 513.794163 512.632964 
L 514.888996 512.437814 
L 515.983829 511.933678 
L 517.078663 511.640954 
L 519.268329 511.299443 
L 526.932162 509.364212 
L 534.595994 507.168782 
L 549.923659 503.29832 
L 557.587492 501.054103 
L 580.57899 495.720021 
L 588.242822 493.996202 
L 611.23432 488.092935 
L 626.561985 484.596509 
L 634.225818 482.758853 
L 649.553483 478.595667 
L 664.881148 473.814509 
L 680.208813 469.537486 
L 687.872646 467.602255 
L 695.536478 465.91096 
L 703.200311 463.97573 
L 710.864143 462.31696 
L 718.527976 460.397992 
L 726.191808 458.186299 
L 737.140141 455.502996 
L 741.519474 454.039376 
L 749.183306 452.234245 
L 772.174804 446.070778 
L 779.838636 445.029982 
L 779.838636 445.029982 
" style="fill:none;stroke:#1f77b4;stroke-linecap:square;stroke-width:5;"/>
   </g>
   <g id="line2d_61">
    <path clip-path="url(#pae751ca6d8)" d="M 171.111364 592.676715 
L 178.775196 590.107249 
L 186.439029 585.944063 
L 194.102861 582.350063 
L 201.766694 577.715266 
L 209.430526 571.974624 
L 217.094359 566.917003 
L 229.137525 556.736713 
L 236.801357 551.695355 
L 244.46519 545.743301 
L 245.560023 543.07626 
L 246.654856 542.458287 
L 247.749689 542.21435 
L 248.844523 541.206079 
L 249.939356 540.425481 
L 251.034189 540.409219 
L 252.129022 540.051445 
L 253.223855 538.750449 
L 254.318689 537.75844 
L 255.413522 537.368142 
L 256.508355 535.904522 
L 257.603188 535.839472 
L 259.792855 534.733626 
L 260.887688 533.56273 
L 261.982521 533.530205 
L 263.077354 533.058594 
L 264.172188 531.2372 
L 265.267021 531.025788 
L 266.361854 530.554177 
L 267.456687 530.50539 
L 268.551521 529.318232 
L 269.646354 528.749046 
L 270.741187 528.358747 
L 272.930853 526.602403 
L 274.025687 526.569878 
L 275.12052 526.033218 
L 276.215353 524.927372 
L 277.310186 524.439498 
L 278.40502 524.293136 
L 279.499853 523.333652 
L 280.594686 523.31739 
L 281.689519 522.862041 
L 282.784353 521.821245 
L 283.879186 521.479733 
L 287.163685 520.113688 
L 288.258519 519.39814 
L 289.353352 519.235516 
L 290.448185 518.79643 
L 291.543018 517.950783 
L 292.637852 517.446647 
L 293.732685 517.26776 
L 294.827518 516.7311 
L 295.922351 515.755353 
L 298.112018 515.706566 
L 299.206851 514.665769 
L 300.301684 514.161633 
L 304.681017 511.868629 
L 305.77585 511.575905 
L 306.870683 511.055506 
L 307.965517 510.762782 
L 309.06035 510.697733 
L 310.155183 509.429262 
L 312.34485 508.258366 
L 313.439683 507.803018 
L 314.534516 507.477769 
L 315.629349 506.48576 
L 316.724182 505.818999 
L 317.819016 505.607588 
L 318.913849 505.087189 
L 320.008682 504.82699 
L 321.103515 504.810728 
L 322.198349 503.135696 
L 323.293182 503.070646 
L 325.482848 501.704601 
L 328.767348 501.655814 
L 329.862181 500.810166 
L 332.051848 500.062094 
L 333.146681 498.647261 
L 334.241514 498.191913 
L 336.431181 497.57394 
L 337.526014 497.199904 
L 339.71568 496.939705 
L 341.905347 495.427297 
L 343.00018 495.215885 
L 344.095013 494.809324 
L 345.189846 494.142564 
L 346.28468 493.703478 
L 348.474346 493.638428 
L 351.758846 492.906618 
L 352.853679 491.475523 
L 353.948512 490.353415 
L 360.517511 488.206772 
L 362.707178 486.938301 
L 368.181344 484.954283 
L 370.37101 484.824183 
L 371.465844 482.888953 
L 373.65551 482.758853 
L 374.750343 482.645016 
L 375.845177 482.108355 
L 376.94001 481.035034 
L 378.034843 480.872409 
L 379.129676 480.108075 
L 380.224509 480.108075 
L 381.319343 479.750301 
L 384.603842 478.124056 
L 386.793509 477.701233 
L 387.888342 477.701233 
L 388.983175 477.408509 
L 390.078009 476.920635 
L 391.172842 476.270138 
L 393.362508 475.993676 
L 394.457341 475.847314 
L 395.552175 475.847314 
L 396.647008 475.68469 
L 398.836674 474.773993 
L 399.931508 473.879558 
L 402.121174 473.472997 
L 403.216007 473.472997 
L 404.31084 473.245323 
L 405.405674 473.229061 
L 406.500507 472.350889 
L 407.59534 471.684128 
L 408.690173 471.586554 
L 409.785007 471.017368 
L 410.87984 471.017368 
L 411.974673 470.854744 
L 413.069506 470.56202 
L 414.164339 469.049612 
L 415.259173 468.935775 
L 418.543672 468.480427 
L 419.638506 468.317802 
L 420.733339 468.269015 
L 421.828172 467.358318 
L 422.923005 466.073585 
L 424.017838 465.829648 
L 425.112672 465.30925 
L 426.207505 464.984001 
L 427.302338 464.951476 
L 430.586838 464.366028 
L 431.681671 463.748055 
L 432.776504 462.967458 
L 433.871337 462.951196 
L 434.966171 462.804834 
L 436.061004 462.040499 
L 437.155837 461.910399 
L 438.25067 460.98344 
L 439.345504 460.837078 
L 442.630003 460.25163 
L 443.724836 459.649919 
L 447.009336 459.015684 
L 449.199003 458.381449 
L 451.388669 456.852779 
L 453.578336 456.267331 
L 454.673169 455.844507 
L 455.768002 455.015123 
L 457.957668 454.982598 
L 459.052502 454.283313 
L 461.242168 453.66534 
L 462.337001 453.649077 
L 463.431835 452.543231 
L 464.526668 452.510706 
L 468.906001 450.982036 
L 470.000834 450.786887 
L 472.1905 449.94124 
L 473.285334 449.762353 
L 474.380167 449.746091 
L 475.475 448.493882 
L 476.569833 448.314996 
L 477.664666 447.729548 
L 480.949166 447.274199 
L 483.138833 447.225412 
L 484.233666 447.014 
L 485.328499 446.997738 
L 487.518165 446.477339 
L 488.612999 446.461077 
L 489.707832 445.306443 
L 490.802665 445.046244 
L 491.897498 444.460796 
L 492.992332 444.428271 
L 494.087165 443.745249 
L 495.181998 443.42 
L 496.276831 443.387475 
L 497.371664 443.192326 
L 498.466498 442.883339 
L 499.561331 442.362941 
L 500.656164 442.314154 
L 501.750997 440.964371 
L 503.940664 440.834271 
L 506.13033 440.785484 
L 507.225164 439.484488 
L 508.319997 439.403176 
L 509.41483 438.980352 
L 511.604496 438.931565 
L 512.69933 438.36238 
L 513.794163 437.077646 
L 514.888996 436.849972 
L 515.983829 436.752398 
L 517.078663 435.988063 
L 518.173496 435.90675 
L 519.268329 435.548977 
L 526.932162 432.394062 
L 534.595994 430.410044 
L 542.259827 427.352705 
L 549.923659 424.848288 
L 557.587492 421.693374 
L 572.915157 414.993247 
L 580.57899 410.634912 
L 588.242822 408.732206 
L 603.570487 403.398124 
L 611.23432 399.999273 
L 618.898152 397.088295 
L 626.561985 394.665191 
L 634.225818 392.014413 
L 641.88965 388.940811 
L 649.553483 386.582756 
L 664.881148 381.736548 
L 672.54498 379.980204 
L 680.208813 376.971652 
L 687.872646 374.727434 
L 695.536478 371.133434 
L 703.200311 369.100628 
L 710.864143 365.522891 
L 726.191808 361.213343 
L 737.140141 358.546302 
L 741.519474 357.830754 
L 749.183306 355.40765 
L 756.847139 353.553731 
L 772.174804 350.203668 
L 779.838636 347.650464 
L 779.838636 347.650464 
" style="fill:none;stroke:#ff7f0e;stroke-linecap:square;stroke-width:5;"/>
   </g>
   <g id="line2d_62">
    <path clip-path="url(#pae751ca6d8)" d="M 171.111364 598.75887 
L 178.775196 598.157159 
L 186.439029 597.262725 
L 194.102861 596.189403 
L 201.766694 594.937195 
L 209.430526 593.522362 
L 217.094359 592.400254 
L 229.137525 590.237349 
L 236.801357 588.464742 
L 246.654856 586.78971 
L 248.844523 586.0579 
L 255.413522 584.968317 
L 256.508355 584.691855 
L 258.698022 584.59428 
L 259.792855 584.285294 
L 260.887688 584.106407 
L 265.267021 583.033086 
L 266.361854 582.919249 
L 272.930853 581.097855 
L 275.12052 580.837656 
L 277.310186 580.252208 
L 279.499853 579.796859 
L 281.689519 579.650497 
L 282.784353 579.357773 
L 283.879186 578.837375 
L 286.068852 578.251927 
L 289.353352 578.00799 
L 291.543018 577.53638 
L 293.732685 577.146081 
L 294.827518 576.885882 
L 297.017184 576.788307 
L 300.301684 576.00771 
L 304.681017 575.503574 
L 305.77585 575.194588 
L 309.06035 574.576615 
L 310.155183 574.267628 
L 312.34485 574.088741 
L 313.439683 573.779755 
L 315.629349 573.356931 
L 317.819016 572.852796 
L 320.008682 572.722696 
L 322.198349 572.267348 
L 324.388015 571.795737 
L 325.482848 571.633112 
L 327.672515 571.633112 
L 329.862181 571.047664 
L 335.336347 570.136967 
L 337.526014 569.762931 
L 340.810513 569.144958 
L 343.00018 568.933546 
L 344.095013 568.705872 
L 346.28468 568.380623 
L 348.474346 567.909012 
L 353.948512 567.128415 
L 360.517511 566.201456 
L 362.707178 565.746107 
L 369.276177 564.754098 
L 371.465844 564.380062 
L 373.65551 564.266225 
L 375.845177 563.859664 
L 378.034843 563.550677 
L 379.129676 563.355528 
L 381.319343 563.290478 
L 386.793509 562.330994 
L 390.078009 562.184632 
L 394.457341 561.257673 
L 396.647008 561.17636 
L 398.836674 560.786062 
L 401.026341 560.216876 
L 402.121174 559.940415 
L 404.31084 559.84284 
L 406.500507 559.420016 
L 410.87984 558.915881 
L 411.974673 558.867093 
L 417.448839 557.875084 
L 419.638506 557.696197 
L 421.828172 557.175799 
L 422.923005 557.061962 
L 425.112672 556.492776 
L 427.302338 556.362677 
L 428.397171 556.069953 
L 430.586838 555.760966 
L 431.681671 555.484505 
L 433.871337 555.256831 
L 434.966171 555.240568 
L 438.25067 554.492496 
L 439.345504 554.459971 
L 451.388669 553.207763 
L 454.673169 552.362115 
L 455.768002 552.134441 
L 457.957668 551.923029 
L 460.147335 551.565256 
L 463.431835 550.963545 
L 464.526668 550.914758 
L 470.000834 550.166685 
L 471.095667 549.792649 
L 472.1905 549.792649 
L 473.285334 549.630025 
L 476.569833 548.849427 
L 477.664666 548.638016 
L 480.949166 548.394079 
L 484.233666 547.743581 
L 488.612999 547.483382 
L 490.802665 546.881672 
L 494.087165 546.279961 
L 496.276831 546.247436 
L 497.371664 545.905925 
L 498.466498 545.792088 
L 501.750997 545.190377 
L 503.940664 545.125328 
L 505.035497 544.897653 
L 506.13033 544.442305 
L 509.41483 543.938169 
L 511.604496 543.775545 
L 512.69933 543.629183 
L 515.983829 542.734748 
L 519.268329 542.393237 
L 526.932162 540.897092 
L 534.595994 539.888821 
L 542.259827 538.441463 
L 549.923659 537.205517 
L 580.57899 531.1071 
L 588.242822 529.919942 
L 597.001488 528.228648 
L 603.570487 527.529363 
L 611.23432 526.423516 
L 618.898152 524.71596 
L 626.561985 523.236077 
L 634.225818 521.967607 
L 641.88965 520.341362 
L 664.881148 516.259489 
L 672.54498 515.00728 
L 687.872646 512.81185 
L 695.536478 511.527117 
L 703.200311 510.437534 
L 710.864143 509.185325 
L 718.527976 508.112004 
L 741.519474 504.209017 
L 749.183306 503.054384 
L 756.847139 501.655814 
L 772.174804 499.200184 
L 779.838636 498.679786 
L 779.838636 498.679786 
" style="fill:none;stroke:#2ca02c;stroke-linecap:square;stroke-width:5;"/>
   </g>
   <g id="patch_6">
    <path d="M 140.675 602.125196 
L 140.675 335.07065 
" style="fill:none;stroke:#000000;stroke-linecap:square;stroke-linejoin:miter;stroke-width:0.8;"/>
   </g>
   <g id="patch_7">
    <path d="M 140.675 602.125196 
L 810.275 602.125196 
" style="fill:none;stroke:#000000;stroke-linecap:square;stroke-linejoin:miter;stroke-width:0.8;"/>
   </g>
   <g id="legend_1">
    <g id="patch_8">
     <path d="M 157.475 459.95315 
L 339.41 459.95315 
Q 344.21 459.95315 344.21 455.15315 
L 344.21 351.87065 
Q 344.21 347.07065 339.41 347.07065 
L 157.475 347.07065 
Q 152.675 347.07065 152.675 351.87065 
L 152.675 455.15315 
Q 152.675 459.95315 157.475 459.95315 
z
" style="fill:#ffffff;opacity:0.8;stroke:#cccccc;stroke-linejoin:miter;"/>
    </g>
    <g id="line2d_63">
     <path d="M 162.275 366.5069 
L 210.275 366.5069 
" style="fill:none;stroke:#1f77b4;stroke-linecap:square;stroke-width:5;"/>
    </g>
    <g id="line2d_64"/>
    <g id="text_22">
     <!-- arXiv -->
     <defs>
      <path d="M 6.296875 72.90625 
L 16.890625 72.90625 
L 35.015625 45.796875 
L 53.21875 72.90625 
L 63.8125 72.90625 
L 40.375 37.890625 
L 65.375 0 
L 54.78125 0 
L 34.28125 31 
L 13.625 0 
L 2.984375 0 
L 29 38.921875 
z
" id="DejaVuSans-88"/>
      <path d="M 2.984375 54.6875 
L 12.5 54.6875 
L 29.59375 8.796875 
L 46.6875 54.6875 
L 56.203125 54.6875 
L 35.6875 0 
L 23.484375 0 
z
" id="DejaVuSans-118"/>
     </defs>
     <g transform="translate(229.475 374.9069)scale(0.24 -0.24)">
      <use xlink:href="#DejaVuSans-97"/>
      <use x="61.279297" xlink:href="#DejaVuSans-114"/>
      <use x="102.392578" xlink:href="#DejaVuSans-88"/>
      <use x="170.898438" xlink:href="#DejaVuSans-105"/>
      <use x="198.681641" xlink:href="#DejaVuSans-118"/>
     </g>
    </g>
    <g id="line2d_65">
     <path d="M 162.275 401.7344 
L 210.275 401.7344 
" style="fill:none;stroke:#ff7f0e;stroke-linecap:square;stroke-width:5;"/>
    </g>
    <g id="line2d_66"/>
    <g id="text_23">
     <!-- medRxiv -->
     <defs>
      <path d="M 45.40625 46.390625 
L 45.40625 75.984375 
L 54.390625 75.984375 
L 54.390625 0 
L 45.40625 0 
L 45.40625 8.203125 
Q 42.578125 3.328125 38.25 0.953125 
Q 33.9375 -1.421875 27.875 -1.421875 
Q 17.96875 -1.421875 11.734375 6.484375 
Q 5.515625 14.40625 5.515625 27.296875 
Q 5.515625 40.1875 11.734375 48.09375 
Q 17.96875 56 27.875 56 
Q 33.9375 56 38.25 53.625 
Q 42.578125 51.265625 45.40625 46.390625 
z
M 14.796875 27.296875 
Q 14.796875 17.390625 18.875 11.75 
Q 22.953125 6.109375 30.078125 6.109375 
Q 37.203125 6.109375 41.296875 11.75 
Q 45.40625 17.390625 45.40625 27.296875 
Q 45.40625 37.203125 41.296875 42.84375 
Q 37.203125 48.484375 30.078125 48.484375 
Q 22.953125 48.484375 18.875 42.84375 
Q 14.796875 37.203125 14.796875 27.296875 
z
" id="DejaVuSans-100"/>
      <path d="M 44.390625 34.1875 
Q 47.5625 33.109375 50.5625 29.59375 
Q 53.5625 26.078125 56.59375 19.921875 
L 66.609375 0 
L 56 0 
L 46.6875 18.703125 
Q 43.0625 26.03125 39.671875 28.421875 
Q 36.28125 30.8125 30.421875 30.8125 
L 19.671875 30.8125 
L 19.671875 0 
L 9.8125 0 
L 9.8125 72.90625 
L 32.078125 72.90625 
Q 44.578125 72.90625 50.734375 67.671875 
Q 56.890625 62.453125 56.890625 51.90625 
Q 56.890625 45.015625 53.6875 40.46875 
Q 50.484375 35.9375 44.390625 34.1875 
z
M 19.671875 64.796875 
L 19.671875 38.921875 
L 32.078125 38.921875 
Q 39.203125 38.921875 42.84375 42.21875 
Q 46.484375 45.515625 46.484375 51.90625 
Q 46.484375 58.296875 42.84375 61.546875 
Q 39.203125 64.796875 32.078125 64.796875 
z
" id="DejaVuSans-82"/>
      <path d="M 54.890625 54.6875 
L 35.109375 28.078125 
L 55.90625 0 
L 45.3125 0 
L 29.390625 21.484375 
L 13.484375 0 
L 2.875 0 
L 24.125 28.609375 
L 4.6875 54.6875 
L 15.28125 54.6875 
L 29.78125 35.203125 
L 44.28125 54.6875 
z
" id="DejaVuSans-120"/>
     </defs>
     <g transform="translate(229.475 410.1344)scale(0.24 -0.24)">
      <use xlink:href="#DejaVuSans-109"/>
      <use x="97.412109" xlink:href="#DejaVuSans-101"/>
      <use x="158.935547" xlink:href="#DejaVuSans-100"/>
      <use x="222.412109" xlink:href="#DejaVuSans-82"/>
      <use x="291.894531" xlink:href="#DejaVuSans-120"/>
      <use x="351.074219" xlink:href="#DejaVuSans-105"/>
      <use x="378.857422" xlink:href="#DejaVuSans-118"/>
     </g>
    </g>
    <g id="line2d_67">
     <path d="M 162.275 436.9619 
L 210.275 436.9619 
" style="fill:none;stroke:#2ca02c;stroke-linecap:square;stroke-width:5;"/>
    </g>
    <g id="line2d_68"/>
    <g id="text_24">
     <!-- bioRxiv -->
     <defs>
      <path d="M 48.6875 27.296875 
Q 48.6875 37.203125 44.609375 42.84375 
Q 40.53125 48.484375 33.40625 48.484375 
Q 26.265625 48.484375 22.1875 42.84375 
Q 18.109375 37.203125 18.109375 27.296875 
Q 18.109375 17.390625 22.1875 11.75 
Q 26.265625 6.109375 33.40625 6.109375 
Q 40.53125 6.109375 44.609375 11.75 
Q 48.6875 17.390625 48.6875 27.296875 
z
M 18.109375 46.390625 
Q 20.953125 51.265625 25.265625 53.625 
Q 29.59375 56 35.59375 56 
Q 45.5625 56 51.78125 48.09375 
Q 58.015625 40.1875 58.015625 27.296875 
Q 58.015625 14.40625 51.78125 6.484375 
Q 45.5625 -1.421875 35.59375 -1.421875 
Q 29.59375 -1.421875 25.265625 0.953125 
Q 20.953125 3.328125 18.109375 8.203125 
L 18.109375 0 
L 9.078125 0 
L 9.078125 75.984375 
L 18.109375 75.984375 
z
" id="DejaVuSans-98"/>
     </defs>
     <g transform="translate(229.475 445.3619)scale(0.24 -0.24)">
      <use xlink:href="#DejaVuSans-98"/>
      <use x="63.476562" xlink:href="#DejaVuSans-105"/>
      <use x="91.259766" xlink:href="#DejaVuSans-111"/>
      <use x="152.441406" xlink:href="#DejaVuSans-82"/>
      <use x="221.923828" xlink:href="#DejaVuSans-120"/>
      <use x="281.103516" xlink:href="#DejaVuSans-105"/>
      <use x="308.886719" xlink:href="#DejaVuSans-118"/>
     </g>
    </g>
   </g>
  </g>
 </g>
 <defs>
  <clipPath id="p8791c25ef0">
   <rect height="267.054545" width="669.6" x="140.675" y="14.605196"/>
  </clipPath>
  <clipPath id="pae751ca6d8">
   <rect height="267.054545" width="669.6" x="140.675" y="335.07065"/>
  </clipPath>
 </defs>
</svg>
