<?xml version="1.0" encoding="utf-8" standalone="no"?>
<!DOCTYPE svg PUBLIC "-//W3C//DTD SVG 1.1//EN"
  "http://www.w3.org/Graphics/SVG/1.1/DTD/svg11.dtd">
<!-- Created with matplotlib (https://matplotlib.org/) -->
<svg height="679.17498pt" version="1.1" viewBox="0 0 817.475 679.17498" width="817.475pt" xmlns="http://www.w3.org/2000/svg" xmlns:xlink="http://www.w3.org/1999/xlink">
 <defs>
  <style type="text/css">
*{stroke-linecap:butt;stroke-linejoin:round;}
  </style>
 </defs>
 <g id="figure_1">
  <g id="patch_1">
   <path d="M 0 679.17498 
L 817.475 679.17498 
L 817.475 0 
L 0 0 
z
" style="fill:#ffffff;"/>
  </g>
  <g id="axes_1">
   <g id="patch_2">
    <path d="M 140.675 274.254545 
L 810.275 274.254545 
L 810.275 7.2 
L 140.675 7.2 
z
" style="fill:#ffffff;"/>
   </g>
   <g id="matplotlib.axis_1">
    <g id="xtick_1">
     <g id="line2d_1">
      <path clip-path="url(#p48d02de7e1)" d="M 182.525 274.254545 
L 182.525 7.2 
" style="fill:none;stroke:#d3d3d3;stroke-linecap:square;stroke-width:0.8;"/>
     </g>
     <g id="line2d_2">
      <defs>
       <path d="M 0 0 
L 0 3.5 
" id="m9ed83ef269" style="stroke:#000000;stroke-width:0.8;"/>
      </defs>
      <g>
       <use style="stroke:#000000;stroke-width:0.8;" x="182.525" xlink:href="#m9ed83ef269" y="274.254545"/>
      </g>
     </g>
    </g>
    <g id="xtick_2">
     <g id="line2d_3">
      <path clip-path="url(#p48d02de7e1)" d="M 269.078409 274.254545 
L 269.078409 7.2 
" style="fill:none;stroke:#d3d3d3;stroke-linecap:square;stroke-width:0.8;"/>
     </g>
     <g id="line2d_4">
      <g>
       <use style="stroke:#000000;stroke-width:0.8;" x="269.078409" xlink:href="#m9ed83ef269" y="274.254545"/>
      </g>
     </g>
    </g>
    <g id="xtick_3">
     <g id="line2d_5">
      <path clip-path="url(#p48d02de7e1)" d="M 356.582955 274.254545 
L 356.582955 7.2 
" style="fill:none;stroke:#d3d3d3;stroke-linecap:square;stroke-width:0.8;"/>
     </g>
     <g id="line2d_6">
      <g>
       <use style="stroke:#000000;stroke-width:0.8;" x="356.582955" xlink:href="#m9ed83ef269" y="274.254545"/>
      </g>
     </g>
    </g>
    <g id="xtick_4">
     <g id="line2d_7">
      <path clip-path="url(#p48d02de7e1)" d="M 444.0875 274.254545 
L 444.0875 7.2 
" style="fill:none;stroke:#d3d3d3;stroke-linecap:square;stroke-width:0.8;"/>
     </g>
     <g id="line2d_8">
      <g>
       <use style="stroke:#000000;stroke-width:0.8;" x="444.0875" xlink:href="#m9ed83ef269" y="274.254545"/>
      </g>
     </g>
    </g>
    <g id="xtick_5">
     <g id="line2d_9">
      <path clip-path="url(#p48d02de7e1)" d="M 529.689773 274.254545 
L 529.689773 7.2 
" style="fill:none;stroke:#d3d3d3;stroke-linecap:square;stroke-width:0.8;"/>
     </g>
     <g id="line2d_10">
      <g>
       <use style="stroke:#000000;stroke-width:0.8;" x="529.689773" xlink:href="#m9ed83ef269" y="274.254545"/>
      </g>
     </g>
    </g>
    <g id="xtick_6">
     <g id="line2d_11">
      <path clip-path="url(#p48d02de7e1)" d="M 616.243182 274.254545 
L 616.243182 7.2 
" style="fill:none;stroke:#d3d3d3;stroke-linecap:square;stroke-width:0.8;"/>
     </g>
     <g id="line2d_12">
      <g>
       <use style="stroke:#000000;stroke-width:0.8;" x="616.243182" xlink:href="#m9ed83ef269" y="274.254545"/>
      </g>
     </g>
    </g>
    <g id="xtick_7">
     <g id="line2d_13">
      <path clip-path="url(#p48d02de7e1)" d="M 703.747727 274.254545 
L 703.747727 7.2 
" style="fill:none;stroke:#d3d3d3;stroke-linecap:square;stroke-width:0.8;"/>
     </g>
     <g id="line2d_14">
      <g>
       <use style="stroke:#000000;stroke-width:0.8;" x="703.747727" xlink:href="#m9ed83ef269" y="274.254545"/>
      </g>
     </g>
    </g>
    <g id="xtick_8">
     <g id="line2d_15">
      <path clip-path="url(#p48d02de7e1)" d="M 791.252273 274.254545 
L 791.252273 7.2 
" style="fill:none;stroke:#d3d3d3;stroke-linecap:square;stroke-width:0.8;"/>
     </g>
     <g id="line2d_16">
      <g>
       <use style="stroke:#000000;stroke-width:0.8;" x="791.252273" xlink:href="#m9ed83ef269" y="274.254545"/>
      </g>
     </g>
    </g>
   </g>
   <g id="matplotlib.axis_2">
    <g id="ytick_1">
     <g id="line2d_17">
      <path clip-path="url(#p48d02de7e1)" d="M 140.675 274.254545 
L 810.275 274.254545 
" style="fill:none;stroke:#d3d3d3;stroke-linecap:square;stroke-width:0.8;"/>
     </g>
     <g id="line2d_18">
      <defs>
       <path d="M 0 0 
L -3.5 0 
" id="m5f3414b53a" style="stroke:#000000;stroke-width:0.8;"/>
      </defs>
      <g>
       <use style="stroke:#000000;stroke-width:0.8;" x="140.675" xlink:href="#m5f3414b53a" y="274.254545"/>
      </g>
     </g>
     <g id="text_1">
      <!-- 0 -->
      <defs>
       <path d="M 31.78125 66.40625 
Q 24.171875 66.40625 20.328125 58.90625 
Q 16.5 51.421875 16.5 36.375 
Q 16.5 21.390625 20.328125 13.890625 
Q 24.171875 6.390625 31.78125 6.390625 
Q 39.453125 6.390625 43.28125 13.890625 
Q 47.125 21.390625 47.125 36.375 
Q 47.125 51.421875 43.28125 58.90625 
Q 39.453125 66.40625 31.78125 66.40625 
z
M 31.78125 74.21875 
Q 44.046875 74.21875 50.515625 64.515625 
Q 56.984375 54.828125 56.984375 36.375 
Q 56.984375 17.96875 50.515625 8.265625 
Q 44.046875 -1.421875 31.78125 -1.421875 
Q 19.53125 -1.421875 13.0625 8.265625 
Q 6.59375 17.96875 6.59375 36.375 
Q 6.59375 54.828125 13.0625 64.515625 
Q 19.53125 74.21875 31.78125 74.21875 
z
" id="DejaVuSans-48"/>
      </defs>
      <g transform="translate(118.405 283.37267)scale(0.24 -0.24)">
       <use xlink:href="#DejaVuSans-48"/>
      </g>
     </g>
    </g>
    <g id="ytick_2">
     <g id="line2d_19">
      <path clip-path="url(#p48d02de7e1)" d="M 140.675 215.414089 
L 810.275 215.414089 
" style="fill:none;stroke:#d3d3d3;stroke-linecap:square;stroke-width:0.8;"/>
     </g>
     <g id="line2d_20">
      <g>
       <use style="stroke:#000000;stroke-width:0.8;" x="140.675" xlink:href="#m5f3414b53a" y="215.414089"/>
      </g>
     </g>
     <g id="text_2">
      <!-- 200,000 -->
      <defs>
       <path d="M 19.1875 8.296875 
L 53.609375 8.296875 
L 53.609375 0 
L 7.328125 0 
L 7.328125 8.296875 
Q 12.9375 14.109375 22.625 23.890625 
Q 32.328125 33.6875 34.8125 36.53125 
Q 39.546875 41.84375 41.421875 45.53125 
Q 43.3125 49.21875 43.3125 52.78125 
Q 43.3125 58.59375 39.234375 62.25 
Q 35.15625 65.921875 28.609375 65.921875 
Q 23.96875 65.921875 18.8125 64.3125 
Q 13.671875 62.703125 7.8125 59.421875 
L 7.8125 69.390625 
Q 13.765625 71.78125 18.9375 73 
Q 24.125 74.21875 28.421875 74.21875 
Q 39.75 74.21875 46.484375 68.546875 
Q 53.21875 62.890625 53.21875 53.421875 
Q 53.21875 48.921875 51.53125 44.890625 
Q 49.859375 40.875 45.40625 35.40625 
Q 44.1875 33.984375 37.640625 27.21875 
Q 31.109375 20.453125 19.1875 8.296875 
z
" id="DejaVuSans-50"/>
       <path d="M 11.71875 12.40625 
L 22.015625 12.40625 
L 22.015625 4 
L 14.015625 -11.625 
L 7.71875 -11.625 
L 11.71875 4 
z
" id="DejaVuSans-44"/>
      </defs>
      <g transform="translate(34.4275 224.532214)scale(0.24 -0.24)">
       <use xlink:href="#DejaVuSans-50"/>
       <use x="63.623047" xlink:href="#DejaVuSans-48"/>
       <use x="127.246094" xlink:href="#DejaVuSans-48"/>
       <use x="190.869141" xlink:href="#DejaVuSans-44"/>
       <use x="222.65625" xlink:href="#DejaVuSans-48"/>
       <use x="286.279297" xlink:href="#DejaVuSans-48"/>
       <use x="349.902344" xlink:href="#DejaVuSans-48"/>
      </g>
     </g>
    </g>
    <g id="ytick_3">
     <g id="line2d_21">
      <path clip-path="url(#p48d02de7e1)" d="M 140.675 156.573633 
L 810.275 156.573633 
" style="fill:none;stroke:#d3d3d3;stroke-linecap:square;stroke-width:0.8;"/>
     </g>
     <g id="line2d_22">
      <g>
       <use style="stroke:#000000;stroke-width:0.8;" x="140.675" xlink:href="#m5f3414b53a" y="156.573633"/>
      </g>
     </g>
     <g id="text_3">
      <!-- 400,000 -->
      <defs>
       <path d="M 37.796875 64.3125 
L 12.890625 25.390625 
L 37.796875 25.390625 
z
M 35.203125 72.90625 
L 47.609375 72.90625 
L 47.609375 25.390625 
L 58.015625 25.390625 
L 58.015625 17.1875 
L 47.609375 17.1875 
L 47.609375 0 
L 37.796875 0 
L 37.796875 17.1875 
L 4.890625 17.1875 
L 4.890625 26.703125 
z
" id="DejaVuSans-52"/>
      </defs>
      <g transform="translate(34.4275 165.691758)scale(0.24 -0.24)">
       <use xlink:href="#DejaVuSans-52"/>
       <use x="63.623047" xlink:href="#DejaVuSans-48"/>
       <use x="127.246094" xlink:href="#DejaVuSans-48"/>
       <use x="190.869141" xlink:href="#DejaVuSans-44"/>
       <use x="222.65625" xlink:href="#DejaVuSans-48"/>
       <use x="286.279297" xlink:href="#DejaVuSans-48"/>
       <use x="349.902344" xlink:href="#DejaVuSans-48"/>
      </g>
     </g>
    </g>
    <g id="ytick_4">
     <g id="line2d_23">
      <path clip-path="url(#p48d02de7e1)" d="M 140.675 97.733176 
L 810.275 97.733176 
" style="fill:none;stroke:#d3d3d3;stroke-linecap:square;stroke-width:0.8;"/>
     </g>
     <g id="line2d_24">
      <g>
       <use style="stroke:#000000;stroke-width:0.8;" x="140.675" xlink:href="#m5f3414b53a" y="97.733176"/>
      </g>
     </g>
     <g id="text_4">
      <!-- 600,000 -->
      <defs>
       <path d="M 33.015625 40.375 
Q 26.375 40.375 22.484375 35.828125 
Q 18.609375 31.296875 18.609375 23.390625 
Q 18.609375 15.53125 22.484375 10.953125 
Q 26.375 6.390625 33.015625 6.390625 
Q 39.65625 6.390625 43.53125 10.953125 
Q 47.40625 15.53125 47.40625 23.390625 
Q 47.40625 31.296875 43.53125 35.828125 
Q 39.65625 40.375 33.015625 40.375 
z
M 52.59375 71.296875 
L 52.59375 62.3125 
Q 48.875 64.0625 45.09375 64.984375 
Q 41.3125 65.921875 37.59375 65.921875 
Q 27.828125 65.921875 22.671875 59.328125 
Q 17.53125 52.734375 16.796875 39.40625 
Q 19.671875 43.65625 24.015625 45.921875 
Q 28.375 48.1875 33.59375 48.1875 
Q 44.578125 48.1875 50.953125 41.515625 
Q 57.328125 34.859375 57.328125 23.390625 
Q 57.328125 12.15625 50.6875 5.359375 
Q 44.046875 -1.421875 33.015625 -1.421875 
Q 20.359375 -1.421875 13.671875 8.265625 
Q 6.984375 17.96875 6.984375 36.375 
Q 6.984375 53.65625 15.1875 63.9375 
Q 23.390625 74.21875 37.203125 74.21875 
Q 40.921875 74.21875 44.703125 73.484375 
Q 48.484375 72.75 52.59375 71.296875 
z
" id="DejaVuSans-54"/>
      </defs>
      <g transform="translate(34.4275 106.851301)scale(0.24 -0.24)">
       <use xlink:href="#DejaVuSans-54"/>
       <use x="63.623047" xlink:href="#DejaVuSans-48"/>
       <use x="127.246094" xlink:href="#DejaVuSans-48"/>
       <use x="190.869141" xlink:href="#DejaVuSans-44"/>
       <use x="222.65625" xlink:href="#DejaVuSans-48"/>
       <use x="286.279297" xlink:href="#DejaVuSans-48"/>
       <use x="349.902344" xlink:href="#DejaVuSans-48"/>
      </g>
     </g>
    </g>
    <g id="ytick_5">
     <g id="line2d_25">
      <path clip-path="url(#p48d02de7e1)" d="M 140.675 38.89272 
L 810.275 38.89272 
" style="fill:none;stroke:#d3d3d3;stroke-linecap:square;stroke-width:0.8;"/>
     </g>
     <g id="line2d_26">
      <g>
       <use style="stroke:#000000;stroke-width:0.8;" x="140.675" xlink:href="#m5f3414b53a" y="38.89272"/>
      </g>
     </g>
     <g id="text_5">
      <!-- 800,000 -->
      <defs>
       <path d="M 31.78125 34.625 
Q 24.75 34.625 20.71875 30.859375 
Q 16.703125 27.09375 16.703125 20.515625 
Q 16.703125 13.921875 20.71875 10.15625 
Q 24.75 6.390625 31.78125 6.390625 
Q 38.8125 6.390625 42.859375 10.171875 
Q 46.921875 13.96875 46.921875 20.515625 
Q 46.921875 27.09375 42.890625 30.859375 
Q 38.875 34.625 31.78125 34.625 
z
M 21.921875 38.8125 
Q 15.578125 40.375 12.03125 44.71875 
Q 8.5 49.078125 8.5 55.328125 
Q 8.5 64.0625 14.71875 69.140625 
Q 20.953125 74.21875 31.78125 74.21875 
Q 42.671875 74.21875 48.875 69.140625 
Q 55.078125 64.0625 55.078125 55.328125 
Q 55.078125 49.078125 51.53125 44.71875 
Q 48 40.375 41.703125 38.8125 
Q 48.828125 37.15625 52.796875 32.3125 
Q 56.78125 27.484375 56.78125 20.515625 
Q 56.78125 9.90625 50.3125 4.234375 
Q 43.84375 -1.421875 31.78125 -1.421875 
Q 19.734375 -1.421875 13.25 4.234375 
Q 6.78125 9.90625 6.78125 20.515625 
Q 6.78125 27.484375 10.78125 32.3125 
Q 14.796875 37.15625 21.921875 38.8125 
z
M 18.3125 54.390625 
Q 18.3125 48.734375 21.84375 45.5625 
Q 25.390625 42.390625 31.78125 42.390625 
Q 38.140625 42.390625 41.71875 45.5625 
Q 45.3125 48.734375 45.3125 54.390625 
Q 45.3125 60.0625 41.71875 63.234375 
Q 38.140625 66.40625 31.78125 66.40625 
Q 25.390625 66.40625 21.84375 63.234375 
Q 18.3125 60.0625 18.3125 54.390625 
z
" id="DejaVuSans-56"/>
      </defs>
      <g transform="translate(34.4275 48.010845)scale(0.24 -0.24)">
       <use xlink:href="#DejaVuSans-56"/>
       <use x="63.623047" xlink:href="#DejaVuSans-48"/>
       <use x="127.246094" xlink:href="#DejaVuSans-48"/>
       <use x="190.869141" xlink:href="#DejaVuSans-44"/>
       <use x="222.65625" xlink:href="#DejaVuSans-48"/>
       <use x="286.279297" xlink:href="#DejaVuSans-48"/>
       <use x="349.902344" xlink:href="#DejaVuSans-48"/>
      </g>
     </g>
    </g>
    <g id="text_6">
     <!-- Total manuscripts -->
     <defs>
      <path d="M -0.296875 72.90625 
L 61.375 72.90625 
L 61.375 64.59375 
L 35.5 64.59375 
L 35.5 0 
L 25.59375 0 
L 25.59375 64.59375 
L -0.296875 64.59375 
z
" id="DejaVuSans-84"/>
      <path d="M 30.609375 48.390625 
Q 23.390625 48.390625 19.1875 42.75 
Q 14.984375 37.109375 14.984375 27.296875 
Q 14.984375 17.484375 19.15625 11.84375 
Q 23.34375 6.203125 30.609375 6.203125 
Q 37.796875 6.203125 41.984375 11.859375 
Q 46.1875 17.53125 46.1875 27.296875 
Q 46.1875 37.015625 41.984375 42.703125 
Q 37.796875 48.390625 30.609375 48.390625 
z
M 30.609375 56 
Q 42.328125 56 49.015625 48.375 
Q 55.71875 40.765625 55.71875 27.296875 
Q 55.71875 13.875 49.015625 6.21875 
Q 42.328125 -1.421875 30.609375 -1.421875 
Q 18.84375 -1.421875 12.171875 6.21875 
Q 5.515625 13.875 5.515625 27.296875 
Q 5.515625 40.765625 12.171875 48.375 
Q 18.84375 56 30.609375 56 
z
" id="DejaVuSans-111"/>
      <path d="M 18.3125 70.21875 
L 18.3125 54.6875 
L 36.8125 54.6875 
L 36.8125 47.703125 
L 18.3125 47.703125 
L 18.3125 18.015625 
Q 18.3125 11.328125 20.140625 9.421875 
Q 21.96875 7.515625 27.59375 7.515625 
L 36.8125 7.515625 
L 36.8125 0 
L 27.59375 0 
Q 17.1875 0 13.234375 3.875 
Q 9.28125 7.765625 9.28125 18.015625 
L 9.28125 47.703125 
L 2.6875 47.703125 
L 2.6875 54.6875 
L 9.28125 54.6875 
L 9.28125 70.21875 
z
" id="DejaVuSans-116"/>
      <path d="M 34.28125 27.484375 
Q 23.390625 27.484375 19.1875 25 
Q 14.984375 22.515625 14.984375 16.5 
Q 14.984375 11.71875 18.140625 8.90625 
Q 21.296875 6.109375 26.703125 6.109375 
Q 34.1875 6.109375 38.703125 11.40625 
Q 43.21875 16.703125 43.21875 25.484375 
L 43.21875 27.484375 
z
M 52.203125 31.203125 
L 52.203125 0 
L 43.21875 0 
L 43.21875 8.296875 
Q 40.140625 3.328125 35.546875 0.953125 
Q 30.953125 -1.421875 24.3125 -1.421875 
Q 15.921875 -1.421875 10.953125 3.296875 
Q 6 8.015625 6 15.921875 
Q 6 25.140625 12.171875 29.828125 
Q 18.359375 34.515625 30.609375 34.515625 
L 43.21875 34.515625 
L 43.21875 35.40625 
Q 43.21875 41.609375 39.140625 45 
Q 35.0625 48.390625 27.6875 48.390625 
Q 23 48.390625 18.546875 47.265625 
Q 14.109375 46.140625 10.015625 43.890625 
L 10.015625 52.203125 
Q 14.9375 54.109375 19.578125 55.046875 
Q 24.21875 56 28.609375 56 
Q 40.484375 56 46.34375 49.84375 
Q 52.203125 43.703125 52.203125 31.203125 
z
" id="DejaVuSans-97"/>
      <path d="M 9.421875 75.984375 
L 18.40625 75.984375 
L 18.40625 0 
L 9.421875 0 
z
" id="DejaVuSans-108"/>
      <path id="DejaVuSans-32"/>
      <path d="M 52 44.1875 
Q 55.375 50.25 60.0625 53.125 
Q 64.75 56 71.09375 56 
Q 79.640625 56 84.28125 50.015625 
Q 88.921875 44.046875 88.921875 33.015625 
L 88.921875 0 
L 79.890625 0 
L 79.890625 32.71875 
Q 79.890625 40.578125 77.09375 44.375 
Q 74.3125 48.1875 68.609375 48.1875 
Q 61.625 48.1875 57.5625 43.546875 
Q 53.515625 38.921875 53.515625 30.90625 
L 53.515625 0 
L 44.484375 0 
L 44.484375 32.71875 
Q 44.484375 40.625 41.703125 44.40625 
Q 38.921875 48.1875 33.109375 48.1875 
Q 26.21875 48.1875 22.15625 43.53125 
Q 18.109375 38.875 18.109375 30.90625 
L 18.109375 0 
L 9.078125 0 
L 9.078125 54.6875 
L 18.109375 54.6875 
L 18.109375 46.1875 
Q 21.1875 51.21875 25.484375 53.609375 
Q 29.78125 56 35.6875 56 
Q 41.65625 56 45.828125 52.96875 
Q 50 49.953125 52 44.1875 
z
" id="DejaVuSans-109"/>
      <path d="M 54.890625 33.015625 
L 54.890625 0 
L 45.90625 0 
L 45.90625 32.71875 
Q 45.90625 40.484375 42.875 44.328125 
Q 39.84375 48.1875 33.796875 48.1875 
Q 26.515625 48.1875 22.3125 43.546875 
Q 18.109375 38.921875 18.109375 30.90625 
L 18.109375 0 
L 9.078125 0 
L 9.078125 54.6875 
L 18.109375 54.6875 
L 18.109375 46.1875 
Q 21.34375 51.125 25.703125 53.5625 
Q 30.078125 56 35.796875 56 
Q 45.21875 56 50.046875 50.171875 
Q 54.890625 44.34375 54.890625 33.015625 
z
" id="DejaVuSans-110"/>
      <path d="M 8.5 21.578125 
L 8.5 54.6875 
L 17.484375 54.6875 
L 17.484375 21.921875 
Q 17.484375 14.15625 20.5 10.265625 
Q 23.53125 6.390625 29.59375 6.390625 
Q 36.859375 6.390625 41.078125 11.03125 
Q 45.3125 15.671875 45.3125 23.6875 
L 45.3125 54.6875 
L 54.296875 54.6875 
L 54.296875 0 
L 45.3125 0 
L 45.3125 8.40625 
Q 42.046875 3.421875 37.71875 1 
Q 33.40625 -1.421875 27.6875 -1.421875 
Q 18.265625 -1.421875 13.375 4.4375 
Q 8.5 10.296875 8.5 21.578125 
z
M 31.109375 56 
z
" id="DejaVuSans-117"/>
      <path d="M 44.28125 53.078125 
L 44.28125 44.578125 
Q 40.484375 46.53125 36.375 47.5 
Q 32.28125 48.484375 27.875 48.484375 
Q 21.1875 48.484375 17.84375 46.4375 
Q 14.5 44.390625 14.5 40.28125 
Q 14.5 37.15625 16.890625 35.375 
Q 19.28125 33.59375 26.515625 31.984375 
L 29.59375 31.296875 
Q 39.15625 29.25 43.1875 25.515625 
Q 47.21875 21.78125 47.21875 15.09375 
Q 47.21875 7.46875 41.1875 3.015625 
Q 35.15625 -1.421875 24.609375 -1.421875 
Q 20.21875 -1.421875 15.453125 -0.5625 
Q 10.6875 0.296875 5.421875 2 
L 5.421875 11.28125 
Q 10.40625 8.6875 15.234375 7.390625 
Q 20.0625 6.109375 24.8125 6.109375 
Q 31.15625 6.109375 34.5625 8.28125 
Q 37.984375 10.453125 37.984375 14.40625 
Q 37.984375 18.0625 35.515625 20.015625 
Q 33.0625 21.96875 24.703125 23.78125 
L 21.578125 24.515625 
Q 13.234375 26.265625 9.515625 29.90625 
Q 5.8125 33.546875 5.8125 39.890625 
Q 5.8125 47.609375 11.28125 51.796875 
Q 16.75 56 26.8125 56 
Q 31.78125 56 36.171875 55.265625 
Q 40.578125 54.546875 44.28125 53.078125 
z
" id="DejaVuSans-115"/>
      <path d="M 48.78125 52.59375 
L 48.78125 44.1875 
Q 44.96875 46.296875 41.140625 47.34375 
Q 37.3125 48.390625 33.40625 48.390625 
Q 24.65625 48.390625 19.8125 42.84375 
Q 14.984375 37.3125 14.984375 27.296875 
Q 14.984375 17.28125 19.8125 11.734375 
Q 24.65625 6.203125 33.40625 6.203125 
Q 37.3125 6.203125 41.140625 7.25 
Q 44.96875 8.296875 48.78125 10.40625 
L 48.78125 2.09375 
Q 45.015625 0.34375 40.984375 -0.53125 
Q 36.96875 -1.421875 32.421875 -1.421875 
Q 20.0625 -1.421875 12.78125 6.34375 
Q 5.515625 14.109375 5.515625 27.296875 
Q 5.515625 40.671875 12.859375 48.328125 
Q 20.21875 56 33.015625 56 
Q 37.15625 56 41.109375 55.140625 
Q 45.0625 54.296875 48.78125 52.59375 
z
" id="DejaVuSans-99"/>
      <path d="M 41.109375 46.296875 
Q 39.59375 47.171875 37.8125 47.578125 
Q 36.03125 48 33.890625 48 
Q 26.265625 48 22.1875 43.046875 
Q 18.109375 38.09375 18.109375 28.8125 
L 18.109375 0 
L 9.078125 0 
L 9.078125 54.6875 
L 18.109375 54.6875 
L 18.109375 46.1875 
Q 20.953125 51.171875 25.484375 53.578125 
Q 30.03125 56 36.53125 56 
Q 37.453125 56 38.578125 55.875 
Q 39.703125 55.765625 41.0625 55.515625 
z
" id="DejaVuSans-114"/>
      <path d="M 9.421875 54.6875 
L 18.40625 54.6875 
L 18.40625 0 
L 9.421875 0 
z
M 9.421875 75.984375 
L 18.40625 75.984375 
L 18.40625 64.59375 
L 9.421875 64.59375 
z
" id="DejaVuSans-105"/>
      <path d="M 18.109375 8.203125 
L 18.109375 -20.796875 
L 9.078125 -20.796875 
L 9.078125 54.6875 
L 18.109375 54.6875 
L 18.109375 46.390625 
Q 20.953125 51.265625 25.265625 53.625 
Q 29.59375 56 35.59375 56 
Q 45.5625 56 51.78125 48.09375 
Q 58.015625 40.1875 58.015625 27.296875 
Q 58.015625 14.40625 51.78125 6.484375 
Q 45.5625 -1.421875 35.59375 -1.421875 
Q 29.59375 -1.421875 25.265625 0.953125 
Q 20.953125 3.328125 18.109375 8.203125 
z
M 48.6875 27.296875 
Q 48.6875 37.203125 44.609375 42.84375 
Q 40.53125 48.484375 33.40625 48.484375 
Q 26.265625 48.484375 22.1875 42.84375 
Q 18.109375 37.203125 18.109375 27.296875 
Q 18.109375 17.390625 22.1875 11.75 
Q 26.265625 6.109375 33.40625 6.109375 
Q 40.53125 6.109375 44.609375 11.75 
Q 48.6875 17.390625 48.6875 27.296875 
z
" id="DejaVuSans-112"/>
     </defs>
     <g transform="translate(25.43625 248.515398)rotate(-90)scale(0.24 -0.24)">
      <use xlink:href="#DejaVuSans-84"/>
      <use x="60.818359" xlink:href="#DejaVuSans-111"/>
      <use x="122" xlink:href="#DejaVuSans-116"/>
      <use x="161.208984" xlink:href="#DejaVuSans-97"/>
      <use x="222.488281" xlink:href="#DejaVuSans-108"/>
      <use x="250.271484" xlink:href="#DejaVuSans-32"/>
      <use x="282.058594" xlink:href="#DejaVuSans-109"/>
      <use x="379.470703" xlink:href="#DejaVuSans-97"/>
      <use x="440.75" xlink:href="#DejaVuSans-110"/>
      <use x="504.128906" xlink:href="#DejaVuSans-117"/>
      <use x="567.507812" xlink:href="#DejaVuSans-115"/>
      <use x="619.607422" xlink:href="#DejaVuSans-99"/>
      <use x="674.587891" xlink:href="#DejaVuSans-114"/>
      <use x="715.701172" xlink:href="#DejaVuSans-105"/>
      <use x="743.484375" xlink:href="#DejaVuSans-112"/>
      <use x="806.960938" xlink:href="#DejaVuSans-116"/>
      <use x="846.169922" xlink:href="#DejaVuSans-115"/>
     </g>
    </g>
   </g>
   <g id="line2d_27">
    <path clip-path="url(#p48d02de7e1)" d="M 171.111364 261.244921 
L 184.427273 260.339366 
L 191.085227 259.227281 
L 197.743182 258.838934 
L 204.401136 257.377337 
L 221.521591 255.551812 
L 228.179545 236.451906 
L 234.8375 234.770834 
L 235.788636 234.223324 
L 237.690909 233.417209 
L 238.642045 233.342482 
L 240.544318 232.90971 
L 241.495455 232.739956 
L 242.446591 234.493401 
L 244.348864 234.218911 
L 245.3 234.203024 
L 247.202273 233.827916 
L 249.104545 233.12742 
L 250.055682 232.919419 
L 251.006818 232.836748 
L 253.860227 232.211568 
L 254.811364 231.146556 
L 255.7625 227.948872 
L 260.518182 227.491975 
L 261.469318 227.077444 
L 262.420455 227.158056 
L 263.371591 226.722048 
L 264.322727 226.139528 
L 265.273864 226.053915 
L 266.225 224.984489 
L 267.176136 224.88093 
L 269.078409 224.29282 
L 270.980682 221.253122 
L 271.931818 220.869776 
L 273.834091 220.613232 
L 274.785227 220.374045 
L 275.736364 219.848012 
L 277.638636 219.259607 
L 279.540909 218.962757 
L 281.443182 218.165763 
L 282.394318 217.957468 
L 283.345455 217.617958 
L 290.003409 215.964542 
L 293.807955 215.681225 
L 294.759091 214.78479 
L 295.710227 214.493824 
L 296.661364 214.377909 
L 297.6125 213.995152 
L 300.465909 213.263176 
L 301.417045 213.179623 
L 303.319318 212.352914 
L 304.270455 212.109315 
L 305.221591 212.31408 
L 309.026136 211.527677 
L 309.977273 210.84601 
L 310.928409 210.535333 
L 311.879545 208.16112 
L 312.830682 207.584778 
L 314.732955 207.338825 
L 316.635227 206.619795 
L 317.586364 206.492993 
L 319.488636 205.62186 
L 320.439773 205.546839 
L 321.390909 205.327658 
L 324.244318 204.03611 
L 325.195455 203.9402 
L 328.048864 203.009344 
L 329.951136 202.158217 
L 334.706818 200.655432 
L 335.657955 200.194122 
L 337.560227 199.6878 
L 340.413636 197.428621 
L 341.364773 197.022033 
L 342.315909 195.975262 
L 343.267045 195.945253 
L 344.218182 195.360085 
L 345.169318 194.545144 
L 346.120455 193.925554 
L 348.022727 193.633412 
L 348.973864 193.269483 
L 349.925 192.755218 
L 350.876136 192.032363 
L 352.778409 191.282147 
L 356.582955 190.417192 
L 359.436364 189.699339 
L 360.3875 189.572538 
L 362.289773 188.987369 
L 363.240909 187.877344 
L 364.192045 187.599617 
L 365.143182 186.046523 
L 366.094318 185.503426 
L 368.947727 184.714081 
L 371.801136 183.829415 
L 372.752273 183.286023 
L 373.703409 183.250425 
L 374.654545 182.806473 
L 375.605682 182.576407 
L 377.507955 181.301923 
L 379.410227 180.657914 
L 381.3125 180.223083 
L 382.263636 179.957419 
L 383.214773 179.391668 
L 385.117045 176.932136 
L 386.068182 176.444643 
L 387.970455 176.143086 
L 388.921591 175.908018 
L 390.823864 174.451717 
L 392.726136 173.721801 
L 394.628409 173.412595 
L 396.530682 172.55676 
L 397.481818 172.384358 
L 398.432955 169.95866 
L 399.384091 169.651513 
L 401.286364 169.40556 
L 402.2375 169.026627 
L 404.139773 168.543547 
L 406.042045 167.896596 
L 407.944318 167.608866 
L 410.797727 166.212876 
L 411.748864 166.091959 
L 417.455682 164.353224 
L 418.406818 164.220244 
L 419.357955 163.960464 
L 420.309091 163.901035 
L 423.1625 162.974003 
L 424.113636 162.581538 
L 425.064773 162.465328 
L 426.015909 161.923113 
L 429.820455 160.090233 
L 430.771591 159.49006 
L 432.673864 158.901361 
L 434.576136 158.642463 
L 435.527273 158.129669 
L 436.478409 157.823992 
L 437.429545 157.811636 
L 442.185227 157.344443 
L 443.136364 156.538623 
L 446.940909 156.448008 
L 448.843182 156.157042 
L 449.794318 153.290041 
L 450.745455 152.75018 
L 451.696591 152.448917 
L 452.647727 151.80785 
L 454.55 151.530417 
L 456.452273 150.735483 
L 458.354545 149.300658 
L 459.305682 149.024696 
L 460.256818 148.984391 
L 461.207955 148.603399 
L 463.110227 148.284778 
L 465.0125 147.399523 
L 465.963636 146.99323 
L 467.865909 146.739627 
L 469.768182 145.166822 
L 470.719318 145.064734 
L 471.670455 144.673445 
L 473.572727 144.472505 
L 480.230682 141.750251 
L 486.888636 138.694666 
L 493.546591 136.708801 
L 500.204545 133.985958 
L 506.8625 132.384027 
L 520.178409 129.829469 
L 526.836364 127.769464 
L 533.494318 120.634176 
L 541.103409 118.430013 
L 546.810227 116.321759 
L 553.468182 114.089058 
L 560.126136 111.581866 
L 566.784091 107.193545 
L 573.442045 103.836403 
L 580.1 101.275078 
L 586.757955 97.84615 
L 600.073864 82.750043 
L 606.731818 80.227552 
L 613.389773 77.205801 
L 620.047727 73.712737 
L 626.705682 70.878686 
L 633.363636 65.619232 
L 640.021591 62.87256 
L 646.679545 59.559254 
L 653.3375 56.456008 
L 662.848864 53.985003 
L 666.653409 51.145363 
L 673.311364 48.033879 
L 679.969318 53.031199 
L 699.943182 49.323074 
L 713.259091 43.226908 
L 726.575 38.356684 
L 733.232955 35.580591 
L 739.890909 32.338188 
L 746.548864 29.700664 
L 759.864773 25.484451 
L 773.180682 21.826928 
L 779.838636 19.297377 
L 779.838636 19.297377 
" style="fill:none;stroke:#1f77b4;stroke-linecap:square;stroke-width:5;"/>
   </g>
   <g id="patch_3">
    <path d="M 140.675 274.254545 
L 140.675 7.2 
" style="fill:none;stroke:#000000;stroke-linecap:square;stroke-linejoin:miter;stroke-width:0.8;"/>
   </g>
   <g id="patch_4">
    <path d="M 140.675 274.254545 
L 810.275 274.254545 
" style="fill:none;stroke:#000000;stroke-linecap:square;stroke-linejoin:miter;stroke-width:0.8;"/>
   </g>
  </g>
  <g id="axes_2">
   <g id="patch_5">
    <path d="M 140.675 594.72 
L 810.275 594.72 
L 810.275 327.665455 
L 140.675 327.665455 
z
" style="fill:#ffffff;"/>
   </g>
   <g id="matplotlib.axis_3">
    <g id="xtick_9">
     <g id="line2d_28">
      <path clip-path="url(#pd25aeaf7e1)" d="M 182.525 594.72 
L 182.525 327.665455 
" style="fill:none;stroke:#d3d3d3;stroke-linecap:square;stroke-width:0.8;"/>
     </g>
     <g id="line2d_29">
      <g>
       <use style="stroke:#000000;stroke-width:0.8;" x="182.525" xlink:href="#m9ed83ef269" y="594.72"/>
      </g>
     </g>
     <g id="text_7">
      <!-- 2020-04 -->
      <defs>
       <path d="M 4.890625 31.390625 
L 31.203125 31.390625 
L 31.203125 23.390625 
L 4.890625 23.390625 
z
" id="DejaVuSans-45"/>
      </defs>
      <g transform="translate(93.18543 667.652431)rotate(-30)scale(0.24 -0.24)">
       <use xlink:href="#DejaVuSans-50"/>
       <use x="63.623047" xlink:href="#DejaVuSans-48"/>
       <use x="127.246094" xlink:href="#DejaVuSans-50"/>
       <use x="190.869141" xlink:href="#DejaVuSans-48"/>
       <use x="254.492188" xlink:href="#DejaVuSans-45"/>
       <use x="290.576172" xlink:href="#DejaVuSans-48"/>
       <use x="354.199219" xlink:href="#DejaVuSans-52"/>
      </g>
     </g>
    </g>
    <g id="xtick_10">
     <g id="line2d_30">
      <path clip-path="url(#pd25aeaf7e1)" d="M 269.078409 594.72 
L 269.078409 327.665455 
" style="fill:none;stroke:#d3d3d3;stroke-linecap:square;stroke-width:0.8;"/>
     </g>
     <g id="line2d_31">
      <g>
       <use style="stroke:#000000;stroke-width:0.8;" x="269.078409" xlink:href="#m9ed83ef269" y="594.72"/>
      </g>
     </g>
     <g id="text_8">
      <!-- 2020-07 -->
      <defs>
       <path d="M 8.203125 72.90625 
L 55.078125 72.90625 
L 55.078125 68.703125 
L 28.609375 0 
L 18.3125 0 
L 43.21875 64.59375 
L 8.203125 64.59375 
z
" id="DejaVuSans-55"/>
      </defs>
      <g transform="translate(179.738839 667.652431)rotate(-30)scale(0.24 -0.24)">
       <use xlink:href="#DejaVuSans-50"/>
       <use x="63.623047" xlink:href="#DejaVuSans-48"/>
       <use x="127.246094" xlink:href="#DejaVuSans-50"/>
       <use x="190.869141" xlink:href="#DejaVuSans-48"/>
       <use x="254.492188" xlink:href="#DejaVuSans-45"/>
       <use x="290.576172" xlink:href="#DejaVuSans-48"/>
       <use x="354.199219" xlink:href="#DejaVuSans-55"/>
      </g>
     </g>
    </g>
    <g id="xtick_11">
     <g id="line2d_32">
      <path clip-path="url(#pd25aeaf7e1)" d="M 356.582955 594.72 
L 356.582955 327.665455 
" style="fill:none;stroke:#d3d3d3;stroke-linecap:square;stroke-width:0.8;"/>
     </g>
     <g id="line2d_33">
      <g>
       <use style="stroke:#000000;stroke-width:0.8;" x="356.582955" xlink:href="#m9ed83ef269" y="594.72"/>
      </g>
     </g>
     <g id="text_9">
      <!-- 2020-10 -->
      <defs>
       <path d="M 12.40625 8.296875 
L 28.515625 8.296875 
L 28.515625 63.921875 
L 10.984375 60.40625 
L 10.984375 69.390625 
L 28.421875 72.90625 
L 38.28125 72.90625 
L 38.28125 8.296875 
L 54.390625 8.296875 
L 54.390625 0 
L 12.40625 0 
z
" id="DejaVuSans-49"/>
      </defs>
      <g transform="translate(267.243385 667.652431)rotate(-30)scale(0.24 -0.24)">
       <use xlink:href="#DejaVuSans-50"/>
       <use x="63.623047" xlink:href="#DejaVuSans-48"/>
       <use x="127.246094" xlink:href="#DejaVuSans-50"/>
       <use x="190.869141" xlink:href="#DejaVuSans-48"/>
       <use x="254.492188" xlink:href="#DejaVuSans-45"/>
       <use x="290.576172" xlink:href="#DejaVuSans-49"/>
       <use x="354.199219" xlink:href="#DejaVuSans-48"/>
      </g>
     </g>
    </g>
    <g id="xtick_12">
     <g id="line2d_34">
      <path clip-path="url(#pd25aeaf7e1)" d="M 444.0875 594.72 
L 444.0875 327.665455 
" style="fill:none;stroke:#d3d3d3;stroke-linecap:square;stroke-width:0.8;"/>
     </g>
     <g id="line2d_35">
      <g>
       <use style="stroke:#000000;stroke-width:0.8;" x="444.0875" xlink:href="#m9ed83ef269" y="594.72"/>
      </g>
     </g>
     <g id="text_10">
      <!-- 2021-01 -->
      <g transform="translate(354.74793 667.652431)rotate(-30)scale(0.24 -0.24)">
       <use xlink:href="#DejaVuSans-50"/>
       <use x="63.623047" xlink:href="#DejaVuSans-48"/>
       <use x="127.246094" xlink:href="#DejaVuSans-50"/>
       <use x="190.869141" xlink:href="#DejaVuSans-49"/>
       <use x="254.492188" xlink:href="#DejaVuSans-45"/>
       <use x="290.576172" xlink:href="#DejaVuSans-48"/>
       <use x="354.199219" xlink:href="#DejaVuSans-49"/>
      </g>
     </g>
    </g>
    <g id="xtick_13">
     <g id="line2d_36">
      <path clip-path="url(#pd25aeaf7e1)" d="M 529.689773 594.72 
L 529.689773 327.665455 
" style="fill:none;stroke:#d3d3d3;stroke-linecap:square;stroke-width:0.8;"/>
     </g>
     <g id="line2d_37">
      <g>
       <use style="stroke:#000000;stroke-width:0.8;" x="529.689773" xlink:href="#m9ed83ef269" y="594.72"/>
      </g>
     </g>
     <g id="text_11">
      <!-- 2021-04 -->
      <g transform="translate(440.350203 667.652431)rotate(-30)scale(0.24 -0.24)">
       <use xlink:href="#DejaVuSans-50"/>
       <use x="63.623047" xlink:href="#DejaVuSans-48"/>
       <use x="127.246094" xlink:href="#DejaVuSans-50"/>
       <use x="190.869141" xlink:href="#DejaVuSans-49"/>
       <use x="254.492188" xlink:href="#DejaVuSans-45"/>
       <use x="290.576172" xlink:href="#DejaVuSans-48"/>
       <use x="354.199219" xlink:href="#DejaVuSans-52"/>
      </g>
     </g>
    </g>
    <g id="xtick_14">
     <g id="line2d_38">
      <path clip-path="url(#pd25aeaf7e1)" d="M 616.243182 594.72 
L 616.243182 327.665455 
" style="fill:none;stroke:#d3d3d3;stroke-linecap:square;stroke-width:0.8;"/>
     </g>
     <g id="line2d_39">
      <g>
       <use style="stroke:#000000;stroke-width:0.8;" x="616.243182" xlink:href="#m9ed83ef269" y="594.72"/>
      </g>
     </g>
     <g id="text_12">
      <!-- 2021-07 -->
      <g transform="translate(526.903612 667.652431)rotate(-30)scale(0.24 -0.24)">
       <use xlink:href="#DejaVuSans-50"/>
       <use x="63.623047" xlink:href="#DejaVuSans-48"/>
       <use x="127.246094" xlink:href="#DejaVuSans-50"/>
       <use x="190.869141" xlink:href="#DejaVuSans-49"/>
       <use x="254.492188" xlink:href="#DejaVuSans-45"/>
       <use x="290.576172" xlink:href="#DejaVuSans-48"/>
       <use x="354.199219" xlink:href="#DejaVuSans-55"/>
      </g>
     </g>
    </g>
    <g id="xtick_15">
     <g id="line2d_40">
      <path clip-path="url(#pd25aeaf7e1)" d="M 703.747727 594.72 
L 703.747727 327.665455 
" style="fill:none;stroke:#d3d3d3;stroke-linecap:square;stroke-width:0.8;"/>
     </g>
     <g id="line2d_41">
      <g>
       <use style="stroke:#000000;stroke-width:0.8;" x="703.747727" xlink:href="#m9ed83ef269" y="594.72"/>
      </g>
     </g>
     <g id="text_13">
      <!-- 2021-10 -->
      <g transform="translate(614.408157 667.652431)rotate(-30)scale(0.24 -0.24)">
       <use xlink:href="#DejaVuSans-50"/>
       <use x="63.623047" xlink:href="#DejaVuSans-48"/>
       <use x="127.246094" xlink:href="#DejaVuSans-50"/>
       <use x="190.869141" xlink:href="#DejaVuSans-49"/>
       <use x="254.492188" xlink:href="#DejaVuSans-45"/>
       <use x="290.576172" xlink:href="#DejaVuSans-49"/>
       <use x="354.199219" xlink:href="#DejaVuSans-48"/>
      </g>
     </g>
    </g>
    <g id="xtick_16">
     <g id="line2d_42">
      <path clip-path="url(#pd25aeaf7e1)" d="M 791.252273 594.72 
L 791.252273 327.665455 
" style="fill:none;stroke:#d3d3d3;stroke-linecap:square;stroke-width:0.8;"/>
     </g>
     <g id="line2d_43">
      <g>
       <use style="stroke:#000000;stroke-width:0.8;" x="791.252273" xlink:href="#m9ed83ef269" y="594.72"/>
      </g>
     </g>
     <g id="text_14">
      <!-- 2022-01 -->
      <g transform="translate(701.912703 667.652431)rotate(-30)scale(0.24 -0.24)">
       <use xlink:href="#DejaVuSans-50"/>
       <use x="63.623047" xlink:href="#DejaVuSans-48"/>
       <use x="127.246094" xlink:href="#DejaVuSans-50"/>
       <use x="190.869141" xlink:href="#DejaVuSans-50"/>
       <use x="254.492188" xlink:href="#DejaVuSans-45"/>
       <use x="290.576172" xlink:href="#DejaVuSans-48"/>
       <use x="354.199219" xlink:href="#DejaVuSans-49"/>
      </g>
     </g>
    </g>
   </g>
   <g id="matplotlib.axis_4">
    <g id="ytick_6">
     <g id="line2d_44">
      <path clip-path="url(#pd25aeaf7e1)" d="M 140.675 594.72 
L 810.275 594.72 
" style="fill:none;stroke:#d3d3d3;stroke-linecap:square;stroke-width:0.8;"/>
     </g>
     <g id="line2d_45">
      <g>
       <use style="stroke:#000000;stroke-width:0.8;" x="140.675" xlink:href="#m5f3414b53a" y="594.72"/>
      </g>
     </g>
     <g id="text_15">
      <!-- 0 -->
      <g transform="translate(118.405 603.838125)scale(0.24 -0.24)">
       <use xlink:href="#DejaVuSans-48"/>
      </g>
     </g>
    </g>
    <g id="ytick_7">
     <g id="line2d_46">
      <path clip-path="url(#pd25aeaf7e1)" d="M 140.675 520.600566 
L 810.275 520.600566 
" style="fill:none;stroke:#d3d3d3;stroke-linecap:square;stroke-width:0.8;"/>
     </g>
     <g id="line2d_47">
      <g>
       <use style="stroke:#000000;stroke-width:0.8;" x="140.675" xlink:href="#m5f3414b53a" y="520.600566"/>
      </g>
     </g>
     <g id="text_16">
      <!-- 5,000 -->
      <defs>
       <path d="M 10.796875 72.90625 
L 49.515625 72.90625 
L 49.515625 64.59375 
L 19.828125 64.59375 
L 19.828125 46.734375 
Q 21.96875 47.46875 24.109375 47.828125 
Q 26.265625 48.1875 28.421875 48.1875 
Q 40.625 48.1875 47.75 41.5 
Q 54.890625 34.8125 54.890625 23.390625 
Q 54.890625 11.625 47.5625 5.09375 
Q 40.234375 -1.421875 26.90625 -1.421875 
Q 22.3125 -1.421875 17.546875 -0.640625 
Q 12.796875 0.140625 7.71875 1.703125 
L 7.71875 11.625 
Q 12.109375 9.234375 16.796875 8.0625 
Q 21.484375 6.890625 26.703125 6.890625 
Q 35.15625 6.890625 40.078125 11.328125 
Q 45.015625 15.765625 45.015625 23.390625 
Q 45.015625 31 40.078125 35.4375 
Q 35.15625 39.890625 26.703125 39.890625 
Q 22.75 39.890625 18.8125 39.015625 
Q 14.890625 38.140625 10.796875 36.28125 
z
" id="DejaVuSans-53"/>
      </defs>
      <g transform="translate(64.9675 529.718691)scale(0.24 -0.24)">
       <use xlink:href="#DejaVuSans-53"/>
       <use x="63.623047" xlink:href="#DejaVuSans-44"/>
       <use x="95.410156" xlink:href="#DejaVuSans-48"/>
       <use x="159.033203" xlink:href="#DejaVuSans-48"/>
       <use x="222.65625" xlink:href="#DejaVuSans-48"/>
      </g>
     </g>
    </g>
    <g id="ytick_8">
     <g id="line2d_48">
      <path clip-path="url(#pd25aeaf7e1)" d="M 140.675 446.481131 
L 810.275 446.481131 
" style="fill:none;stroke:#d3d3d3;stroke-linecap:square;stroke-width:0.8;"/>
     </g>
     <g id="line2d_49">
      <g>
       <use style="stroke:#000000;stroke-width:0.8;" x="140.675" xlink:href="#m5f3414b53a" y="446.481131"/>
      </g>
     </g>
     <g id="text_17">
      <!-- 10,000 -->
      <g transform="translate(49.6975 455.599256)scale(0.24 -0.24)">
       <use xlink:href="#DejaVuSans-49"/>
       <use x="63.623047" xlink:href="#DejaVuSans-48"/>
       <use x="127.246094" xlink:href="#DejaVuSans-44"/>
       <use x="159.033203" xlink:href="#DejaVuSans-48"/>
       <use x="222.65625" xlink:href="#DejaVuSans-48"/>
       <use x="286.279297" xlink:href="#DejaVuSans-48"/>
      </g>
     </g>
    </g>
    <g id="ytick_9">
     <g id="line2d_50">
      <path clip-path="url(#pd25aeaf7e1)" d="M 140.675 372.361697 
L 810.275 372.361697 
" style="fill:none;stroke:#d3d3d3;stroke-linecap:square;stroke-width:0.8;"/>
     </g>
     <g id="line2d_51">
      <g>
       <use style="stroke:#000000;stroke-width:0.8;" x="140.675" xlink:href="#m5f3414b53a" y="372.361697"/>
      </g>
     </g>
     <g id="text_18">
      <!-- 15,000 -->
      <g transform="translate(49.6975 381.479822)scale(0.24 -0.24)">
       <use xlink:href="#DejaVuSans-49"/>
       <use x="63.623047" xlink:href="#DejaVuSans-53"/>
       <use x="127.246094" xlink:href="#DejaVuSans-44"/>
       <use x="159.033203" xlink:href="#DejaVuSans-48"/>
       <use x="222.65625" xlink:href="#DejaVuSans-48"/>
       <use x="286.279297" xlink:href="#DejaVuSans-48"/>
      </g>
     </g>
    </g>
    <g id="text_19">
     <!-- Preprints -->
     <defs>
      <path d="M 19.671875 64.796875 
L 19.671875 37.40625 
L 32.078125 37.40625 
Q 38.96875 37.40625 42.71875 40.96875 
Q 46.484375 44.53125 46.484375 51.125 
Q 46.484375 57.671875 42.71875 61.234375 
Q 38.96875 64.796875 32.078125 64.796875 
z
M 9.8125 72.90625 
L 32.078125 72.90625 
Q 44.34375 72.90625 50.609375 67.359375 
Q 56.890625 61.8125 56.890625 51.125 
Q 56.890625 40.328125 50.609375 34.8125 
Q 44.34375 29.296875 32.078125 29.296875 
L 19.671875 29.296875 
L 19.671875 0 
L 9.8125 0 
z
" id="DejaVuSans-80"/>
      <path d="M 56.203125 29.59375 
L 56.203125 25.203125 
L 14.890625 25.203125 
Q 15.484375 15.921875 20.484375 11.0625 
Q 25.484375 6.203125 34.421875 6.203125 
Q 39.59375 6.203125 44.453125 7.46875 
Q 49.3125 8.734375 54.109375 11.28125 
L 54.109375 2.78125 
Q 49.265625 0.734375 44.1875 -0.34375 
Q 39.109375 -1.421875 33.890625 -1.421875 
Q 20.796875 -1.421875 13.15625 6.1875 
Q 5.515625 13.8125 5.515625 26.8125 
Q 5.515625 40.234375 12.765625 48.109375 
Q 20.015625 56 32.328125 56 
Q 43.359375 56 49.78125 48.890625 
Q 56.203125 41.796875 56.203125 29.59375 
z
M 47.21875 32.234375 
Q 47.125 39.59375 43.09375 43.984375 
Q 39.0625 48.390625 32.421875 48.390625 
Q 24.90625 48.390625 20.390625 44.140625 
Q 15.875 39.890625 15.1875 32.171875 
z
" id="DejaVuSans-101"/>
     </defs>
     <g transform="translate(40.70625 515.185227)rotate(-90)scale(0.24 -0.24)">
      <use xlink:href="#DejaVuSans-80"/>
      <use x="60.287109" xlink:href="#DejaVuSans-114"/>
      <use x="101.369141" xlink:href="#DejaVuSans-101"/>
      <use x="162.892578" xlink:href="#DejaVuSans-112"/>
      <use x="226.369141" xlink:href="#DejaVuSans-114"/>
      <use x="267.482422" xlink:href="#DejaVuSans-105"/>
      <use x="295.265625" xlink:href="#DejaVuSans-110"/>
      <use x="358.644531" xlink:href="#DejaVuSans-116"/>
      <use x="397.853516" xlink:href="#DejaVuSans-115"/>
     </g>
    </g>
   </g>
   <g id="line2d_52">
    <path clip-path="url(#pd25aeaf7e1)" d="M 171.111364 592.007229 
L 177.769318 590.539664 
L 184.427273 588.686678 
L 191.085227 586.537214 
L 204.401136 582.846067 
L 211.059091 580.489069 
L 221.521591 577.598411 
L 228.179545 575.330356 
L 238.642045 572.158044 
L 240.544318 571.87639 
L 242.446591 571.135196 
L 245.3 570.260587 
L 247.202273 569.875166 
L 249.104545 569.104323 
L 250.055682 568.837494 
L 251.006818 568.348305 
L 251.957955 568.037004 
L 253.860227 567.799821 
L 255.7625 566.940036 
L 256.713636 566.717678 
L 258.615909 566.080251 
L 260.518182 565.872716 
L 261.469318 565.605886 
L 262.420455 565.146346 
L 266.225 564.123498 
L 269.078409 563.530542 
L 271.931818 562.596637 
L 273.834091 562.196392 
L 275.736364 561.455198 
L 276.6875 561.084601 
L 279.540909 560.402702 
L 281.443182 560.150696 
L 283.345455 559.424325 
L 288.101136 558.149471 
L 290.003409 557.556516 
L 290.954545 557.185918 
L 294.759091 556.311309 
L 296.661364 555.599763 
L 298.563636 554.858568 
L 300.465909 554.458323 
L 304.270455 553.213117 
L 305.221591 552.946287 
L 307.123864 552.812872 
L 309.026136 552.219916 
L 311.879545 551.404603 
L 315.684091 550.70788 
L 319.488636 549.862918 
L 321.390909 549.462673 
L 324.244318 548.528769 
L 325.195455 548.202643 
L 329.951136 547.372505 
L 335.657955 545.993884 
L 337.560227 545.341633 
L 343.267045 544.274313 
L 345.169318 543.711005 
L 347.071591 543.473823 
L 348.973864 542.836396 
L 349.925 542.51027 
L 353.729545 541.769076 
L 358.485227 540.657285 
L 360.3875 540.44975 
L 364.192045 539.234191 
L 365.143182 538.893242 
L 367.045455 538.537469 
L 368.947727 538.003809 
L 369.898864 537.870394 
L 370.85 537.499797 
L 374.654545 536.684483 
L 375.605682 536.239766 
L 377.507955 535.691283 
L 378.459091 535.350333 
L 380.361364 535.053855 
L 386.068182 532.993335 
L 387.019318 532.830272 
L 387.970455 532.504147 
L 390.823864 531.86672 
L 391.775 531.570242 
L 393.677273 531.244116 
L 399.384091 529.835847 
L 400.335227 529.717256 
L 403.188636 528.827823 
L 404.139773 528.590641 
L 406.042045 528.249691 
L 406.993182 528.20522 
L 407.944318 527.804975 
L 410.797727 527.093428 
L 412.7 526.841422 
L 416.504545 525.937165 
L 418.406818 525.240442 
L 420.309091 525.032908 
L 422.211364 524.27689 
L 425.064773 523.431928 
L 426.015909 523.268865 
L 432.673864 521.623414 
L 433.625 521.564118 
L 434.576136 521.297288 
L 435.527273 520.822924 
L 437.429545 520.229969 
L 440.282955 519.889019 
L 444.0875 519.01441 
L 446.940909 518.643813 
L 450.745455 517.620964 
L 453.598864 517.116952 
L 456.452273 516.094104 
L 458.354545 515.604916 
L 460.256818 515.367734 
L 461.207955 515.100904 
L 463.110227 514.300414 
L 466.914773 513.662987 
L 468.817045 513.070031 
L 469.768182 512.892145 
L 470.719318 512.432604 
L 471.670455 512.165774 
L 473.572727 511.854472 
L 480.230682 510.164549 
L 486.888636 508.207796 
L 500.204545 504.694535 
L 506.8625 502.708134 
L 520.178409 499.432055 
L 533.494318 496.348687 
L 553.468182 490.997264 
L 566.784091 487.839776 
L 573.442045 486.149853 
L 586.757955 482.354938 
L 600.073864 477.981891 
L 620.047727 472.33399 
L 626.705682 470.80713 
L 633.363636 469.043087 
L 640.021591 467.501403 
L 646.679545 465.781832 
L 653.3375 463.765783 
L 662.848864 461.319842 
L 666.653409 459.970868 
L 673.311364 458.266121 
L 679.969318 456.339016 
L 693.285227 452.351391 
L 699.943182 450.750411 
L 713.259091 446.421836 
L 719.917045 444.509554 
L 726.575 442.938222 
L 733.232955 441.055589 
L 739.890909 439.024716 
L 746.548864 437.319969 
L 759.864773 434.11801 
L 779.838636 429.567076 
L 779.838636 429.567076 
" style="fill:none;stroke:#1f77b4;stroke-linecap:square;stroke-width:5;"/>
   </g>
   <g id="line2d_53">
    <path clip-path="url(#pd25aeaf7e1)" d="M 171.111364 586.077674 
L 177.769318 583.7355 
L 184.427273 579.955409 
L 191.085227 576.694154 
L 197.743182 572.469346 
L 204.401136 567.236514 
L 211.059091 562.626285 
L 221.521591 553.346532 
L 228.179545 548.751127 
L 234.8375 543.340408 
L 235.788636 540.909291 
L 236.739773 540.345983 
L 237.690909 540.123625 
L 238.642045 539.219368 
L 239.593182 538.537469 
L 240.544318 538.522645 
L 241.495455 538.181695 
L 242.446591 536.980961 
L 243.397727 536.06188 
L 244.348864 535.706106 
L 245.3 534.371957 
L 246.251136 534.312661 
L 248.153409 533.304637 
L 249.104545 532.237317 
L 250.055682 532.207669 
L 251.006818 531.777776 
L 251.957955 530.117501 
L 252.909091 529.924791 
L 253.860227 529.494898 
L 254.811364 529.450426 
L 255.7625 528.368282 
L 256.713636 527.849446 
L 257.664773 527.493673 
L 259.567045 525.892693 
L 260.518182 525.863046 
L 261.469318 525.373857 
L 262.420455 524.365833 
L 263.371591 523.921116 
L 264.322727 523.787701 
L 265.273864 522.913092 
L 266.225 522.898268 
L 267.176136 522.483199 
L 268.127273 521.534471 
L 269.078409 521.223169 
L 271.931818 519.977962 
L 272.882955 519.325711 
L 273.834091 519.177473 
L 274.785227 518.777228 
L 275.736364 518.006385 
L 276.6875 517.546845 
L 277.638636 517.383782 
L 278.589773 516.894594 
L 279.540909 516.005161 
L 281.443182 515.960689 
L 282.394318 515.01196 
L 283.345455 514.55242 
L 287.15 512.462252 
L 288.101136 512.195422 
L 289.052273 511.721057 
L 290.003409 511.454227 
L 290.954545 511.394932 
L 291.905682 510.238669 
L 294.759091 508.75628 
L 295.710227 508.459802 
L 296.661364 507.555545 
L 297.6125 506.947766 
L 298.563636 506.755055 
L 299.514773 506.280691 
L 300.465909 506.043509 
L 301.417045 506.028685 
L 302.368182 504.516648 
L 303.319318 504.457353 
L 305.221591 503.212146 
L 308.075 503.167675 
L 309.026136 502.396833 
L 310.928409 501.714934 
L 311.879545 500.425256 
L 312.830682 500.010187 
L 314.732955 499.446879 
L 315.684091 499.10593 
L 317.586364 498.868748 
L 319.488636 497.490126 
L 320.439773 497.297416 
L 321.390909 496.926818 
L 322.342045 496.319039 
L 323.293182 495.918794 
L 325.195455 495.859498 
L 328.048864 495.192424 
L 329 493.887922 
L 329.951136 492.865073 
L 335.657955 490.90832 
L 337.560227 489.752057 
L 342.315909 487.943543 
L 344.218182 487.824952 
L 345.169318 486.060909 
L 347.071591 485.942318 
L 348.022727 485.838551 
L 348.973864 485.349363 
L 349.925 484.370986 
L 350.876136 484.222747 
L 351.827273 483.526025 
L 352.778409 483.526025 
L 353.729545 483.199899 
L 356.582955 481.71751 
L 358.485227 481.332089 
L 359.436364 481.332089 
L 360.3875 481.065259 
L 361.338636 480.620543 
L 362.289773 480.027587 
L 365.143182 479.642166 
L 366.094318 479.642166 
L 367.045455 479.493927 
L 368.947727 478.678614 
L 369.898864 477.8633 
L 371.801136 477.492703 
L 372.752273 477.492703 
L 373.703409 477.285168 
L 374.654545 477.270344 
L 375.605682 476.455031 
L 376.556818 475.832427 
L 377.507955 475.743484 
L 378.459091 475.209824 
L 379.410227 475.209824 
L 380.361364 475.061585 
L 381.3125 474.794755 
L 382.263636 473.416134 
L 383.214773 473.312367 
L 386.068182 472.897298 
L 387.970455 472.704587 
L 388.921591 471.859626 
L 389.872727 470.688539 
L 390.823864 470.46618 
L 391.775 470.00664 
L 392.726136 469.710162 
L 393.677273 469.680514 
L 396.530682 469.146854 
L 397.481818 468.583547 
L 398.432955 467.872 
L 399.384091 467.857176 
L 400.335227 467.723761 
L 401.286364 467.041862 
L 402.2375 466.923271 
L 403.188636 466.093134 
L 404.139773 465.959719 
L 406.993182 465.426059 
L 407.944318 464.907223 
L 410.797727 464.314267 
L 412.7 463.736136 
L 414.602273 462.372338 
L 416.504545 461.838678 
L 417.455682 461.453257 
L 418.406818 460.712063 
L 420.309091 460.682415 
L 421.260227 460.044988 
L 423.1625 459.48168 
L 424.113636 459.466856 
L 425.064773 458.458832 
L 426.015909 458.429184 
L 429.820455 457.035739 
L 430.771591 456.857852 
L 432.673864 456.08701 
L 433.625 455.923947 
L 434.576136 455.909123 
L 435.527273 454.767684 
L 436.478409 454.604621 
L 437.429545 454.056138 
L 441.234091 453.611421 
L 442.185227 453.596597 
L 443.136364 453.403887 
L 444.0875 453.389063 
L 445.989773 452.914698 
L 446.940909 452.899874 
L 447.892045 451.847378 
L 448.843182 451.610196 
L 449.794318 451.076536 
L 450.745455 451.046889 
L 451.696591 450.424285 
L 452.647727 450.127808 
L 453.598864 450.09816 
L 455.501136 449.638619 
L 456.452273 449.164255 
L 457.403409 449.119783 
L 458.354545 447.889401 
L 460.256818 447.77081 
L 462.159091 447.726338 
L 463.110227 446.540427 
L 464.061364 446.466307 
L 465.0125 446.080886 
L 466.914773 446.036415 
L 467.865909 445.517579 
L 468.817045 444.346492 
L 469.768182 444.138957 
L 470.719318 444.050014 
L 471.670455 443.353291 
L 472.621591 443.279172 
L 473.572727 442.953046 
L 480.230682 440.077212 
L 486.888636 438.283522 
L 493.546591 435.481807 
L 500.204545 433.198929 
L 506.8625 430.323095 
L 520.178409 424.215653 
L 526.836364 420.242852 
L 533.494318 418.508457 
L 546.810227 413.646222 
L 553.468182 410.54803 
L 560.126136 407.924202 
L 566.784091 405.715442 
L 573.442045 403.299149 
L 580.1 400.512258 
L 600.073864 393.915629 
L 606.731818 392.314649 
L 613.389773 389.57223 
L 620.047727 387.511709 
L 626.705682 384.23563 
L 633.363636 382.382645 
L 640.021591 379.136213 
L 646.679545 377.105341 
L 653.3375 375.207883 
L 662.848864 372.79159 
L 666.653409 372.139339 
L 673.311364 369.93058 
L 679.969318 368.240656 
L 693.285227 365.172112 
L 699.943182 362.400045 
L 713.259091 358.531011 
L 719.917045 357.018974 
L 726.575 355.269755 
L 733.232955 352.957229 
L 739.890909 351.845438 
L 746.548864 349.740446 
L 759.864773 346.419895 
L 773.180682 342.521213 
L 779.838636 340.253158 
L 779.838636 340.253158 
" style="fill:none;stroke:#ff7f0e;stroke-linecap:square;stroke-width:5;"/>
   </g>
   <g id="line2d_54">
    <path clip-path="url(#pd25aeaf7e1)" d="M 171.111364 591.621808 
L 177.769318 591.073324 
L 184.427273 590.25801 
L 191.085227 589.294457 
L 197.743182 588.153018 
L 204.401136 586.878164 
L 211.059091 585.855316 
L 221.521591 583.883739 
L 228.179545 582.282759 
L 236.739773 580.755899 
L 238.642045 580.088824 
L 246.251136 578.799146 
L 247.202273 578.754674 
L 248.153409 578.47302 
L 250.055682 578.043127 
L 251.006818 577.835593 
L 251.957955 577.464996 
L 253.860227 577.227813 
L 259.567045 575.567538 
L 261.469318 575.330356 
L 263.371591 574.796696 
L 265.273864 574.381627 
L 267.176136 574.248212 
L 268.127273 573.981382 
L 269.078409 573.507018 
L 270.980682 572.973358 
L 274.785227 572.513817 
L 278.589773 571.728151 
L 280.492045 571.639208 
L 283.345455 570.927662 
L 287.15 570.468121 
L 288.101136 570.186467 
L 290.954545 569.62316 
L 291.905682 569.341506 
L 293.807955 569.178443 
L 294.759091 568.896789 
L 296.661364 568.511368 
L 298.563636 568.051828 
L 300.465909 567.933236 
L 302.368182 567.547815 
L 303.319318 567.280985 
L 305.221591 566.984508 
L 307.123864 566.984508 
L 309.026136 566.450848 
L 318.5375 564.716453 
L 320.439773 564.523742 
L 322.342045 564.212441 
L 325.195455 563.589838 
L 334.706818 562.196392 
L 346.120455 560.313759 
L 347.071591 560.269287 
L 348.973864 559.89869 
L 350.876136 559.617036 
L 351.827273 559.439149 
L 353.729545 559.379854 
L 358.485227 558.520068 
L 361.338636 558.386653 
L 365.143182 557.556516 
L 367.045455 557.482396 
L 368.947727 557.126623 
L 370.85 556.622611 
L 371.801136 556.370605 
L 373.703409 556.281661 
L 376.556818 555.762825 
L 378.459091 555.481171 
L 380.361364 555.392228 
L 385.117045 554.502795 
L 387.019318 554.354556 
L 388.921591 553.880192 
L 389.872727 553.776424 
L 391.775 553.257588 
L 393.677273 553.138997 
L 394.628409 552.886991 
L 402.2375 551.70108 
L 403.188636 551.449074 
L 404.139773 551.419426 
L 414.602273 550.292811 
L 417.455682 549.536793 
L 418.406818 549.329258 
L 420.309091 549.136548 
L 422.211364 548.810422 
L 425.064773 548.276762 
L 426.015909 548.232291 
L 430.771591 547.550392 
L 431.722727 547.209443 
L 432.673864 547.209443 
L 433.625 547.061204 
L 436.478409 546.349657 
L 437.429545 546.156947 
L 440.282955 545.934588 
L 443.136364 545.341633 
L 446.940909 545.104451 
L 448.843182 544.555967 
L 451.696591 544.022307 
L 453.598864 543.992659 
L 454.55 543.681358 
L 456.452273 543.370056 
L 458.354545 543.029107 
L 460.256818 542.969811 
L 461.207955 542.7771 
L 462.159091 542.391679 
L 465.963636 541.902491 
L 467.865909 541.650485 
L 470.719318 540.835171 
L 473.572727 540.509046 
L 480.230682 539.145248 
L 486.888636 538.226167 
L 493.546591 536.936489 
L 500.204545 535.809874 
L 526.836364 530.369507 
L 533.494318 529.317011 
L 541.103409 527.849446 
L 546.810227 527.241667 
L 553.468182 526.278114 
L 560.126136 524.81055 
L 566.784091 523.535695 
L 573.442045 522.438728 
L 580.1 521.07493 
L 600.073864 517.487549 
L 606.731818 516.375758 
L 613.389773 515.515972 
L 620.047727 514.522772 
L 626.705682 513.381333 
L 633.363636 512.447428 
L 640.021591 511.305989 
L 646.679545 510.386908 
L 666.653409 507.021885 
L 673.311364 506.013861 
L 679.969318 504.783478 
L 693.285227 502.604367 
L 699.943182 501.655638 
L 713.259091 499.624766 
L 719.917045 498.750156 
L 726.575 497.742132 
L 733.232955 496.897171 
L 739.890909 495.889146 
L 746.548864 494.999713 
L 759.864773 493.087432 
L 773.180682 490.433956 
L 779.838636 489.411108 
L 779.838636 489.411108 
" style="fill:none;stroke:#2ca02c;stroke-linecap:square;stroke-width:5;"/>
   </g>
   <g id="patch_6">
    <path d="M 140.675 594.72 
L 140.675 327.665455 
" style="fill:none;stroke:#000000;stroke-linecap:square;stroke-linejoin:miter;stroke-width:0.8;"/>
   </g>
   <g id="patch_7">
    <path d="M 140.675 594.72 
L 810.275 594.72 
" style="fill:none;stroke:#000000;stroke-linecap:square;stroke-linejoin:miter;stroke-width:0.8;"/>
   </g>
   <g id="legend_1">
    <g id="patch_8">
     <path d="M 157.475 452.547955 
L 339.41 452.547955 
Q 344.21 452.547955 344.21 447.747955 
L 344.21 344.465455 
Q 344.21 339.665455 339.41 339.665455 
L 157.475 339.665455 
Q 152.675 339.665455 152.675 344.465455 
L 152.675 447.747955 
Q 152.675 452.547955 157.475 452.547955 
z
" style="fill:#ffffff;opacity:0.8;stroke:#cccccc;stroke-linejoin:miter;"/>
    </g>
    <g id="line2d_55">
     <path d="M 162.275 359.101705 
L 210.275 359.101705 
" style="fill:none;stroke:#1f77b4;stroke-linecap:square;stroke-width:5;"/>
    </g>
    <g id="line2d_56"/>
    <g id="text_20">
     <!-- arXiv -->
     <defs>
      <path d="M 6.296875 72.90625 
L 16.890625 72.90625 
L 35.015625 45.796875 
L 53.21875 72.90625 
L 63.8125 72.90625 
L 40.375 37.890625 
L 65.375 0 
L 54.78125 0 
L 34.28125 31 
L 13.625 0 
L 2.984375 0 
L 29 38.921875 
z
" id="DejaVuSans-88"/>
      <path d="M 2.984375 54.6875 
L 12.5 54.6875 
L 29.59375 8.796875 
L 46.6875 54.6875 
L 56.203125 54.6875 
L 35.6875 0 
L 23.484375 0 
z
" id="DejaVuSans-118"/>
     </defs>
     <g transform="translate(229.475 367.501705)scale(0.24 -0.24)">
      <use xlink:href="#DejaVuSans-97"/>
      <use x="61.279297" xlink:href="#DejaVuSans-114"/>
      <use x="102.392578" xlink:href="#DejaVuSans-88"/>
      <use x="170.898438" xlink:href="#DejaVuSans-105"/>
      <use x="198.681641" xlink:href="#DejaVuSans-118"/>
     </g>
    </g>
    <g id="line2d_57">
     <path d="M 162.275 394.329205 
L 210.275 394.329205 
" style="fill:none;stroke:#ff7f0e;stroke-linecap:square;stroke-width:5;"/>
    </g>
    <g id="line2d_58"/>
    <g id="text_21">
     <!-- medRxiv -->
     <defs>
      <path d="M 45.40625 46.390625 
L 45.40625 75.984375 
L 54.390625 75.984375 
L 54.390625 0 
L 45.40625 0 
L 45.40625 8.203125 
Q 42.578125 3.328125 38.25 0.953125 
Q 33.9375 -1.421875 27.875 -1.421875 
Q 17.96875 -1.421875 11.734375 6.484375 
Q 5.515625 14.40625 5.515625 27.296875 
Q 5.515625 40.1875 11.734375 48.09375 
Q 17.96875 56 27.875 56 
Q 33.9375 56 38.25 53.625 
Q 42.578125 51.265625 45.40625 46.390625 
z
M 14.796875 27.296875 
Q 14.796875 17.390625 18.875 11.75 
Q 22.953125 6.109375 30.078125 6.109375 
Q 37.203125 6.109375 41.296875 11.75 
Q 45.40625 17.390625 45.40625 27.296875 
Q 45.40625 37.203125 41.296875 42.84375 
Q 37.203125 48.484375 30.078125 48.484375 
Q 22.953125 48.484375 18.875 42.84375 
Q 14.796875 37.203125 14.796875 27.296875 
z
" id="DejaVuSans-100"/>
      <path d="M 44.390625 34.1875 
Q 47.5625 33.109375 50.5625 29.59375 
Q 53.5625 26.078125 56.59375 19.921875 
L 66.609375 0 
L 56 0 
L 46.6875 18.703125 
Q 43.0625 26.03125 39.671875 28.421875 
Q 36.28125 30.8125 30.421875 30.8125 
L 19.671875 30.8125 
L 19.671875 0 
L 9.8125 0 
L 9.8125 72.90625 
L 32.078125 72.90625 
Q 44.578125 72.90625 50.734375 67.671875 
Q 56.890625 62.453125 56.890625 51.90625 
Q 56.890625 45.015625 53.6875 40.46875 
Q 50.484375 35.9375 44.390625 34.1875 
z
M 19.671875 64.796875 
L 19.671875 38.921875 
L 32.078125 38.921875 
Q 39.203125 38.921875 42.84375 42.21875 
Q 46.484375 45.515625 46.484375 51.90625 
Q 46.484375 58.296875 42.84375 61.546875 
Q 39.203125 64.796875 32.078125 64.796875 
z
" id="DejaVuSans-82"/>
      <path d="M 54.890625 54.6875 
L 35.109375 28.078125 
L 55.90625 0 
L 45.3125 0 
L 29.390625 21.484375 
L 13.484375 0 
L 2.875 0 
L 24.125 28.609375 
L 4.6875 54.6875 
L 15.28125 54.6875 
L 29.78125 35.203125 
L 44.28125 54.6875 
z
" id="DejaVuSans-120"/>
     </defs>
     <g transform="translate(229.475 402.729205)scale(0.24 -0.24)">
      <use xlink:href="#DejaVuSans-109"/>
      <use x="97.412109" xlink:href="#DejaVuSans-101"/>
      <use x="158.935547" xlink:href="#DejaVuSans-100"/>
      <use x="222.412109" xlink:href="#DejaVuSans-82"/>
      <use x="291.894531" xlink:href="#DejaVuSans-120"/>
      <use x="351.074219" xlink:href="#DejaVuSans-105"/>
      <use x="378.857422" xlink:href="#DejaVuSans-118"/>
     </g>
    </g>
    <g id="line2d_59">
     <path d="M 162.275 429.556705 
L 210.275 429.556705 
" style="fill:none;stroke:#2ca02c;stroke-linecap:square;stroke-width:5;"/>
    </g>
    <g id="line2d_60"/>
    <g id="text_22">
     <!-- bioRxiv -->
     <defs>
      <path d="M 48.6875 27.296875 
Q 48.6875 37.203125 44.609375 42.84375 
Q 40.53125 48.484375 33.40625 48.484375 
Q 26.265625 48.484375 22.1875 42.84375 
Q 18.109375 37.203125 18.109375 27.296875 
Q 18.109375 17.390625 22.1875 11.75 
Q 26.265625 6.109375 33.40625 6.109375 
Q 40.53125 6.109375 44.609375 11.75 
Q 48.6875 17.390625 48.6875 27.296875 
z
M 18.109375 46.390625 
Q 20.953125 51.265625 25.265625 53.625 
Q 29.59375 56 35.59375 56 
Q 45.5625 56 51.78125 48.09375 
Q 58.015625 40.1875 58.015625 27.296875 
Q 58.015625 14.40625 51.78125 6.484375 
Q 45.5625 -1.421875 35.59375 -1.421875 
Q 29.59375 -1.421875 25.265625 0.953125 
Q 20.953125 3.328125 18.109375 8.203125 
L 18.109375 0 
L 9.078125 0 
L 9.078125 75.984375 
L 18.109375 75.984375 
z
" id="DejaVuSans-98"/>
     </defs>
     <g transform="translate(229.475 437.956705)scale(0.24 -0.24)">
      <use xlink:href="#DejaVuSans-98"/>
      <use x="63.476562" xlink:href="#DejaVuSans-105"/>
      <use x="91.259766" xlink:href="#DejaVuSans-111"/>
      <use x="152.441406" xlink:href="#DejaVuSans-82"/>
      <use x="221.923828" xlink:href="#DejaVuSans-120"/>
      <use x="281.103516" xlink:href="#DejaVuSans-105"/>
      <use x="308.886719" xlink:href="#DejaVuSans-118"/>
     </g>
    </g>
   </g>
  </g>
 </g>
 <defs>
  <clipPath id="p48d02de7e1">
   <rect height="267.054545" width="669.6" x="140.675" y="7.2"/>
  </clipPath>
  <clipPath id="pd25aeaf7e1">
   <rect height="267.054545" width="669.6" x="140.675" y="327.665455"/>
  </clipPath>
 </defs>
</svg>
