<?xml version="1.0" encoding="utf-8" standalone="no"?>
<!DOCTYPE svg PUBLIC "-//W3C//DTD SVG 1.1//EN"
  "http://www.w3.org/Graphics/SVG/1.1/DTD/svg11.dtd">
<!-- Created with matplotlib (https://matplotlib.org/) -->
<svg height="649.902072pt" version="1.1" viewBox="0 0 1212.84375 649.902072" width="1212.84375pt" xmlns="http://www.w3.org/2000/svg" xmlns:xlink="http://www.w3.org/1999/xlink">
 <defs>
  <style type="text/css">
*{stroke-linecap:butt;stroke-linejoin:round;}
  </style>
 </defs>
 <g id="figure_1">
  <g id="patch_1">
   <path d="M 0 649.902072 
L 1212.84375 649.902072 
L 1212.84375 0 
L 0 0 
z
" style="fill:#ffffff;"/>
  </g>
  <g id="axes_1">
   <g id="patch_2">
    <path d="M 89.64375 594.72 
L 596.916477 594.72 
L 596.916477 7.2 
L 89.64375 7.2 
z
" style="fill:#ffffff;"/>
   </g>
   <g id="matplotlib.axis_1">
    <g id="xtick_1">
     <g id="line2d_1">
      <path clip-path="url(#pf37249c74f)" d="M 95.177634 594.72 
L 95.177634 7.2 
" style="fill:none;stroke:#d3d3d3;stroke-linecap:square;stroke-width:0.8;"/>
     </g>
     <g id="line2d_2">
      <defs>
       <path d="M 0 0 
L 0 3.5 
" id="mc18a998e9f" style="stroke:#000000;stroke-width:0.8;"/>
      </defs>
      <g>
       <use style="stroke:#000000;stroke-width:0.8;" x="95.177634" xlink:href="#mc18a998e9f" y="594.72"/>
      </g>
     </g>
     <g id="text_1">
      <!-- 2020-03 -->
      <defs>
       <path d="M 19.1875 8.296875 
L 53.609375 8.296875 
L 53.609375 0 
L 7.328125 0 
L 7.328125 8.296875 
Q 12.9375 14.109375 22.625 23.890625 
Q 32.328125 33.6875 34.8125 36.53125 
Q 39.546875 41.84375 41.421875 45.53125 
Q 43.3125 49.21875 43.3125 52.78125 
Q 43.3125 58.59375 39.234375 62.25 
Q 35.15625 65.921875 28.609375 65.921875 
Q 23.96875 65.921875 18.8125 64.3125 
Q 13.671875 62.703125 7.8125 59.421875 
L 7.8125 69.390625 
Q 13.765625 71.78125 18.9375 73 
Q 24.125 74.21875 28.421875 74.21875 
Q 39.75 74.21875 46.484375 68.546875 
Q 53.21875 62.890625 53.21875 53.421875 
Q 53.21875 48.921875 51.53125 44.890625 
Q 49.859375 40.875 45.40625 35.40625 
Q 44.1875 33.984375 37.640625 27.21875 
Q 31.109375 20.453125 19.1875 8.296875 
z
" id="DejaVuSans-50"/>
       <path d="M 31.78125 66.40625 
Q 24.171875 66.40625 20.328125 58.90625 
Q 16.5 51.421875 16.5 36.375 
Q 16.5 21.390625 20.328125 13.890625 
Q 24.171875 6.390625 31.78125 6.390625 
Q 39.453125 6.390625 43.28125 13.890625 
Q 47.125 21.390625 47.125 36.375 
Q 47.125 51.421875 43.28125 58.90625 
Q 39.453125 66.40625 31.78125 66.40625 
z
M 31.78125 74.21875 
Q 44.046875 74.21875 50.515625 64.515625 
Q 56.984375 54.828125 56.984375 36.375 
Q 56.984375 17.96875 50.515625 8.265625 
Q 44.046875 -1.421875 31.78125 -1.421875 
Q 19.53125 -1.421875 13.0625 8.265625 
Q 6.59375 17.96875 6.59375 36.375 
Q 6.59375 54.828125 13.0625 64.515625 
Q 19.53125 74.21875 31.78125 74.21875 
z
" id="DejaVuSans-48"/>
       <path d="M 4.890625 31.390625 
L 31.203125 31.390625 
L 31.203125 23.390625 
L 4.890625 23.390625 
z
" id="DejaVuSans-45"/>
       <path d="M 40.578125 39.3125 
Q 47.65625 37.796875 51.625 33 
Q 55.609375 28.21875 55.609375 21.1875 
Q 55.609375 10.40625 48.1875 4.484375 
Q 40.765625 -1.421875 27.09375 -1.421875 
Q 22.515625 -1.421875 17.65625 -0.515625 
Q 12.796875 0.390625 7.625 2.203125 
L 7.625 11.71875 
Q 11.71875 9.328125 16.59375 8.109375 
Q 21.484375 6.890625 26.8125 6.890625 
Q 36.078125 6.890625 40.9375 10.546875 
Q 45.796875 14.203125 45.796875 21.1875 
Q 45.796875 27.640625 41.28125 31.265625 
Q 36.765625 34.90625 28.71875 34.90625 
L 20.21875 34.90625 
L 20.21875 43.015625 
L 29.109375 43.015625 
Q 36.375 43.015625 40.234375 45.921875 
Q 44.09375 48.828125 44.09375 54.296875 
Q 44.09375 59.90625 40.109375 62.90625 
Q 36.140625 65.921875 28.71875 65.921875 
Q 24.65625 65.921875 20.015625 65.03125 
Q 15.375 64.15625 9.8125 62.3125 
L 9.8125 71.09375 
Q 15.4375 72.65625 20.34375 73.4375 
Q 25.25 74.21875 29.59375 74.21875 
Q 40.828125 74.21875 47.359375 69.109375 
Q 53.90625 64.015625 53.90625 55.328125 
Q 53.90625 49.265625 50.4375 45.09375 
Q 46.96875 40.921875 40.578125 39.3125 
z
" id="DejaVuSans-51"/>
      </defs>
      <g transform="translate(43.062885 640.180585)rotate(-30)scale(0.14 -0.14)">
       <use xlink:href="#DejaVuSans-50"/>
       <use x="63.623047" xlink:href="#DejaVuSans-48"/>
       <use x="127.246094" xlink:href="#DejaVuSans-50"/>
       <use x="190.869141" xlink:href="#DejaVuSans-48"/>
       <use x="254.492188" xlink:href="#DejaVuSans-45"/>
       <use x="290.576172" xlink:href="#DejaVuSans-48"/>
       <use x="354.199219" xlink:href="#DejaVuSans-51"/>
      </g>
     </g>
    </g>
    <g id="xtick_2">
     <g id="line2d_3">
      <path clip-path="url(#pf37249c74f)" d="M 151.438791 594.72 
L 151.438791 7.2 
" style="fill:none;stroke:#d3d3d3;stroke-linecap:square;stroke-width:0.8;"/>
     </g>
     <g id="line2d_4">
      <g>
       <use style="stroke:#000000;stroke-width:0.8;" x="151.438791" xlink:href="#mc18a998e9f" y="594.72"/>
      </g>
     </g>
     <g id="text_2">
      <!-- 2020-05 -->
      <defs>
       <path d="M 10.796875 72.90625 
L 49.515625 72.90625 
L 49.515625 64.59375 
L 19.828125 64.59375 
L 19.828125 46.734375 
Q 21.96875 47.46875 24.109375 47.828125 
Q 26.265625 48.1875 28.421875 48.1875 
Q 40.625 48.1875 47.75 41.5 
Q 54.890625 34.8125 54.890625 23.390625 
Q 54.890625 11.625 47.5625 5.09375 
Q 40.234375 -1.421875 26.90625 -1.421875 
Q 22.3125 -1.421875 17.546875 -0.640625 
Q 12.796875 0.140625 7.71875 1.703125 
L 7.71875 11.625 
Q 12.109375 9.234375 16.796875 8.0625 
Q 21.484375 6.890625 26.703125 6.890625 
Q 35.15625 6.890625 40.078125 11.328125 
Q 45.015625 15.765625 45.015625 23.390625 
Q 45.015625 31 40.078125 35.4375 
Q 35.15625 39.890625 26.703125 39.890625 
Q 22.75 39.890625 18.8125 39.015625 
Q 14.890625 38.140625 10.796875 36.28125 
z
" id="DejaVuSans-53"/>
      </defs>
      <g transform="translate(99.324042 640.180585)rotate(-30)scale(0.14 -0.14)">
       <use xlink:href="#DejaVuSans-50"/>
       <use x="63.623047" xlink:href="#DejaVuSans-48"/>
       <use x="127.246094" xlink:href="#DejaVuSans-50"/>
       <use x="190.869141" xlink:href="#DejaVuSans-48"/>
       <use x="254.492188" xlink:href="#DejaVuSans-45"/>
       <use x="290.576172" xlink:href="#DejaVuSans-48"/>
       <use x="354.199219" xlink:href="#DejaVuSans-53"/>
      </g>
     </g>
    </g>
    <g id="xtick_3">
     <g id="line2d_5">
      <path clip-path="url(#pf37249c74f)" d="M 207.699948 594.72 
L 207.699948 7.2 
" style="fill:none;stroke:#d3d3d3;stroke-linecap:square;stroke-width:0.8;"/>
     </g>
     <g id="line2d_6">
      <g>
       <use style="stroke:#000000;stroke-width:0.8;" x="207.699948" xlink:href="#mc18a998e9f" y="594.72"/>
      </g>
     </g>
     <g id="text_3">
      <!-- 2020-07 -->
      <defs>
       <path d="M 8.203125 72.90625 
L 55.078125 72.90625 
L 55.078125 68.703125 
L 28.609375 0 
L 18.3125 0 
L 43.21875 64.59375 
L 8.203125 64.59375 
z
" id="DejaVuSans-55"/>
      </defs>
      <g transform="translate(155.585199 640.180585)rotate(-30)scale(0.14 -0.14)">
       <use xlink:href="#DejaVuSans-50"/>
       <use x="63.623047" xlink:href="#DejaVuSans-48"/>
       <use x="127.246094" xlink:href="#DejaVuSans-50"/>
       <use x="190.869141" xlink:href="#DejaVuSans-48"/>
       <use x="254.492188" xlink:href="#DejaVuSans-45"/>
       <use x="290.576172" xlink:href="#DejaVuSans-48"/>
       <use x="354.199219" xlink:href="#DejaVuSans-55"/>
      </g>
     </g>
    </g>
    <g id="xtick_4">
     <g id="line2d_7">
      <path clip-path="url(#pf37249c74f)" d="M 264.883419 594.72 
L 264.883419 7.2 
" style="fill:none;stroke:#d3d3d3;stroke-linecap:square;stroke-width:0.8;"/>
     </g>
     <g id="line2d_8">
      <g>
       <use style="stroke:#000000;stroke-width:0.8;" x="264.883419" xlink:href="#mc18a998e9f" y="594.72"/>
      </g>
     </g>
     <g id="text_4">
      <!-- 2020-09 -->
      <defs>
       <path d="M 10.984375 1.515625 
L 10.984375 10.5 
Q 14.703125 8.734375 18.5 7.8125 
Q 22.3125 6.890625 25.984375 6.890625 
Q 35.75 6.890625 40.890625 13.453125 
Q 46.046875 20.015625 46.78125 33.40625 
Q 43.953125 29.203125 39.59375 26.953125 
Q 35.25 24.703125 29.984375 24.703125 
Q 19.046875 24.703125 12.671875 31.3125 
Q 6.296875 37.9375 6.296875 49.421875 
Q 6.296875 60.640625 12.9375 67.421875 
Q 19.578125 74.21875 30.609375 74.21875 
Q 43.265625 74.21875 49.921875 64.515625 
Q 56.59375 54.828125 56.59375 36.375 
Q 56.59375 19.140625 48.40625 8.859375 
Q 40.234375 -1.421875 26.421875 -1.421875 
Q 22.703125 -1.421875 18.890625 -0.6875 
Q 15.09375 0.046875 10.984375 1.515625 
z
M 30.609375 32.421875 
Q 37.25 32.421875 41.125 36.953125 
Q 45.015625 41.5 45.015625 49.421875 
Q 45.015625 57.28125 41.125 61.84375 
Q 37.25 66.40625 30.609375 66.40625 
Q 23.96875 66.40625 20.09375 61.84375 
Q 16.21875 57.28125 16.21875 49.421875 
Q 16.21875 41.5 20.09375 36.953125 
Q 23.96875 32.421875 30.609375 32.421875 
z
" id="DejaVuSans-57"/>
      </defs>
      <g transform="translate(212.76867 640.180585)rotate(-30)scale(0.14 -0.14)">
       <use xlink:href="#DejaVuSans-50"/>
       <use x="63.623047" xlink:href="#DejaVuSans-48"/>
       <use x="127.246094" xlink:href="#DejaVuSans-50"/>
       <use x="190.869141" xlink:href="#DejaVuSans-48"/>
       <use x="254.492188" xlink:href="#DejaVuSans-45"/>
       <use x="290.576172" xlink:href="#DejaVuSans-48"/>
       <use x="354.199219" xlink:href="#DejaVuSans-57"/>
      </g>
     </g>
    </g>
    <g id="xtick_5">
     <g id="line2d_9">
      <path clip-path="url(#pf37249c74f)" d="M 321.144576 594.72 
L 321.144576 7.2 
" style="fill:none;stroke:#d3d3d3;stroke-linecap:square;stroke-width:0.8;"/>
     </g>
     <g id="line2d_10">
      <g>
       <use style="stroke:#000000;stroke-width:0.8;" x="321.144576" xlink:href="#mc18a998e9f" y="594.72"/>
      </g>
     </g>
     <g id="text_5">
      <!-- 2020-11 -->
      <defs>
       <path d="M 12.40625 8.296875 
L 28.515625 8.296875 
L 28.515625 63.921875 
L 10.984375 60.40625 
L 10.984375 69.390625 
L 28.421875 72.90625 
L 38.28125 72.90625 
L 38.28125 8.296875 
L 54.390625 8.296875 
L 54.390625 0 
L 12.40625 0 
z
" id="DejaVuSans-49"/>
      </defs>
      <g transform="translate(269.029827 640.180585)rotate(-30)scale(0.14 -0.14)">
       <use xlink:href="#DejaVuSans-50"/>
       <use x="63.623047" xlink:href="#DejaVuSans-48"/>
       <use x="127.246094" xlink:href="#DejaVuSans-50"/>
       <use x="190.869141" xlink:href="#DejaVuSans-48"/>
       <use x="254.492188" xlink:href="#DejaVuSans-45"/>
       <use x="290.576172" xlink:href="#DejaVuSans-49"/>
       <use x="354.199219" xlink:href="#DejaVuSans-49"/>
      </g>
     </g>
    </g>
    <g id="xtick_6">
     <g id="line2d_11">
      <path clip-path="url(#pf37249c74f)" d="M 377.405733 594.72 
L 377.405733 7.2 
" style="fill:none;stroke:#d3d3d3;stroke-linecap:square;stroke-width:0.8;"/>
     </g>
     <g id="line2d_12">
      <g>
       <use style="stroke:#000000;stroke-width:0.8;" x="377.405733" xlink:href="#mc18a998e9f" y="594.72"/>
      </g>
     </g>
     <g id="text_6">
      <!-- 2021-01 -->
      <g transform="translate(325.290984 640.180585)rotate(-30)scale(0.14 -0.14)">
       <use xlink:href="#DejaVuSans-50"/>
       <use x="63.623047" xlink:href="#DejaVuSans-48"/>
       <use x="127.246094" xlink:href="#DejaVuSans-50"/>
       <use x="190.869141" xlink:href="#DejaVuSans-49"/>
       <use x="254.492188" xlink:href="#DejaVuSans-45"/>
       <use x="290.576172" xlink:href="#DejaVuSans-48"/>
       <use x="354.199219" xlink:href="#DejaVuSans-49"/>
      </g>
     </g>
    </g>
    <g id="xtick_7">
     <g id="line2d_13">
      <path clip-path="url(#pf37249c74f)" d="M 431.822262 594.72 
L 431.822262 7.2 
" style="fill:none;stroke:#d3d3d3;stroke-linecap:square;stroke-width:0.8;"/>
     </g>
     <g id="line2d_14">
      <g>
       <use style="stroke:#000000;stroke-width:0.8;" x="431.822262" xlink:href="#mc18a998e9f" y="594.72"/>
      </g>
     </g>
     <g id="text_7">
      <!-- 2021-03 -->
      <g transform="translate(379.707513 640.180585)rotate(-30)scale(0.14 -0.14)">
       <use xlink:href="#DejaVuSans-50"/>
       <use x="63.623047" xlink:href="#DejaVuSans-48"/>
       <use x="127.246094" xlink:href="#DejaVuSans-50"/>
       <use x="190.869141" xlink:href="#DejaVuSans-49"/>
       <use x="254.492188" xlink:href="#DejaVuSans-45"/>
       <use x="290.576172" xlink:href="#DejaVuSans-48"/>
       <use x="354.199219" xlink:href="#DejaVuSans-51"/>
      </g>
     </g>
    </g>
    <g id="xtick_8">
     <g id="line2d_15">
      <path clip-path="url(#pf37249c74f)" d="M 488.083419 594.72 
L 488.083419 7.2 
" style="fill:none;stroke:#d3d3d3;stroke-linecap:square;stroke-width:0.8;"/>
     </g>
     <g id="line2d_16">
      <g>
       <use style="stroke:#000000;stroke-width:0.8;" x="488.083419" xlink:href="#mc18a998e9f" y="594.72"/>
      </g>
     </g>
     <g id="text_8">
      <!-- 2021-05 -->
      <g transform="translate(435.96867 640.180585)rotate(-30)scale(0.14 -0.14)">
       <use xlink:href="#DejaVuSans-50"/>
       <use x="63.623047" xlink:href="#DejaVuSans-48"/>
       <use x="127.246094" xlink:href="#DejaVuSans-50"/>
       <use x="190.869141" xlink:href="#DejaVuSans-49"/>
       <use x="254.492188" xlink:href="#DejaVuSans-45"/>
       <use x="290.576172" xlink:href="#DejaVuSans-48"/>
       <use x="354.199219" xlink:href="#DejaVuSans-53"/>
      </g>
     </g>
    </g>
    <g id="xtick_9">
     <g id="line2d_17">
      <path clip-path="url(#pf37249c74f)" d="M 544.344576 594.72 
L 544.344576 7.2 
" style="fill:none;stroke:#d3d3d3;stroke-linecap:square;stroke-width:0.8;"/>
     </g>
     <g id="line2d_18">
      <g>
       <use style="stroke:#000000;stroke-width:0.8;" x="544.344576" xlink:href="#mc18a998e9f" y="594.72"/>
      </g>
     </g>
     <g id="text_9">
      <!-- 2021-07 -->
      <g transform="translate(492.229827 640.180585)rotate(-30)scale(0.14 -0.14)">
       <use xlink:href="#DejaVuSans-50"/>
       <use x="63.623047" xlink:href="#DejaVuSans-48"/>
       <use x="127.246094" xlink:href="#DejaVuSans-50"/>
       <use x="190.869141" xlink:href="#DejaVuSans-49"/>
       <use x="254.492188" xlink:href="#DejaVuSans-45"/>
       <use x="290.576172" xlink:href="#DejaVuSans-48"/>
       <use x="354.199219" xlink:href="#DejaVuSans-55"/>
      </g>
     </g>
    </g>
   </g>
   <g id="matplotlib.axis_2">
    <g id="ytick_1">
     <g id="line2d_19">
      <path clip-path="url(#pf37249c74f)" d="M 89.64375 594.72 
L 596.916477 594.72 
" style="fill:none;stroke:#d3d3d3;stroke-linecap:square;stroke-width:0.8;"/>
     </g>
     <g id="line2d_20">
      <defs>
       <path d="M 0 0 
L -3.5 0 
" id="mf0bffc4b93" style="stroke:#000000;stroke-width:0.8;"/>
      </defs>
      <g>
       <use style="stroke:#000000;stroke-width:0.8;" x="89.64375" xlink:href="#mf0bffc4b93" y="594.72"/>
      </g>
     </g>
     <g id="text_10">
      <!-- 0 -->
      <g transform="translate(73.73625 600.038906)scale(0.14 -0.14)">
       <use xlink:href="#DejaVuSans-48"/>
      </g>
     </g>
    </g>
    <g id="ytick_2">
     <g id="line2d_21">
      <path clip-path="url(#pf37249c74f)" d="M 89.64375 517.822566 
L 596.916477 517.822566 
" style="fill:none;stroke:#d3d3d3;stroke-linecap:square;stroke-width:0.8;"/>
     </g>
     <g id="line2d_22">
      <g>
       <use style="stroke:#000000;stroke-width:0.8;" x="89.64375" xlink:href="#mf0bffc4b93" y="517.822566"/>
      </g>
     </g>
     <g id="text_11">
      <!-- 100,000 -->
      <defs>
       <path d="M 11.71875 12.40625 
L 22.015625 12.40625 
L 22.015625 4 
L 14.015625 -11.625 
L 7.71875 -11.625 
L 11.71875 4 
z
" id="DejaVuSans-44"/>
      </defs>
      <g transform="translate(24.749375 523.141473)scale(0.14 -0.14)">
       <use xlink:href="#DejaVuSans-49"/>
       <use x="63.623047" xlink:href="#DejaVuSans-48"/>
       <use x="127.246094" xlink:href="#DejaVuSans-48"/>
       <use x="190.869141" xlink:href="#DejaVuSans-44"/>
       <use x="222.65625" xlink:href="#DejaVuSans-48"/>
       <use x="286.279297" xlink:href="#DejaVuSans-48"/>
       <use x="349.902344" xlink:href="#DejaVuSans-48"/>
      </g>
     </g>
    </g>
    <g id="ytick_3">
     <g id="line2d_23">
      <path clip-path="url(#pf37249c74f)" d="M 89.64375 440.925133 
L 596.916477 440.925133 
" style="fill:none;stroke:#d3d3d3;stroke-linecap:square;stroke-width:0.8;"/>
     </g>
     <g id="line2d_24">
      <g>
       <use style="stroke:#000000;stroke-width:0.8;" x="89.64375" xlink:href="#mf0bffc4b93" y="440.925133"/>
      </g>
     </g>
     <g id="text_12">
      <!-- 200,000 -->
      <g transform="translate(24.749375 446.244039)scale(0.14 -0.14)">
       <use xlink:href="#DejaVuSans-50"/>
       <use x="63.623047" xlink:href="#DejaVuSans-48"/>
       <use x="127.246094" xlink:href="#DejaVuSans-48"/>
       <use x="190.869141" xlink:href="#DejaVuSans-44"/>
       <use x="222.65625" xlink:href="#DejaVuSans-48"/>
       <use x="286.279297" xlink:href="#DejaVuSans-48"/>
       <use x="349.902344" xlink:href="#DejaVuSans-48"/>
      </g>
     </g>
    </g>
    <g id="ytick_4">
     <g id="line2d_25">
      <path clip-path="url(#pf37249c74f)" d="M 89.64375 364.027699 
L 596.916477 364.027699 
" style="fill:none;stroke:#d3d3d3;stroke-linecap:square;stroke-width:0.8;"/>
     </g>
     <g id="line2d_26">
      <g>
       <use style="stroke:#000000;stroke-width:0.8;" x="89.64375" xlink:href="#mf0bffc4b93" y="364.027699"/>
      </g>
     </g>
     <g id="text_13">
      <!-- 300,000 -->
      <g transform="translate(24.749375 369.346606)scale(0.14 -0.14)">
       <use xlink:href="#DejaVuSans-51"/>
       <use x="63.623047" xlink:href="#DejaVuSans-48"/>
       <use x="127.246094" xlink:href="#DejaVuSans-48"/>
       <use x="190.869141" xlink:href="#DejaVuSans-44"/>
       <use x="222.65625" xlink:href="#DejaVuSans-48"/>
       <use x="286.279297" xlink:href="#DejaVuSans-48"/>
       <use x="349.902344" xlink:href="#DejaVuSans-48"/>
      </g>
     </g>
    </g>
    <g id="ytick_5">
     <g id="line2d_27">
      <path clip-path="url(#pf37249c74f)" d="M 89.64375 287.130266 
L 596.916477 287.130266 
" style="fill:none;stroke:#d3d3d3;stroke-linecap:square;stroke-width:0.8;"/>
     </g>
     <g id="line2d_28">
      <g>
       <use style="stroke:#000000;stroke-width:0.8;" x="89.64375" xlink:href="#mf0bffc4b93" y="287.130266"/>
      </g>
     </g>
     <g id="text_14">
      <!-- 400,000 -->
      <defs>
       <path d="M 37.796875 64.3125 
L 12.890625 25.390625 
L 37.796875 25.390625 
z
M 35.203125 72.90625 
L 47.609375 72.90625 
L 47.609375 25.390625 
L 58.015625 25.390625 
L 58.015625 17.1875 
L 47.609375 17.1875 
L 47.609375 0 
L 37.796875 0 
L 37.796875 17.1875 
L 4.890625 17.1875 
L 4.890625 26.703125 
z
" id="DejaVuSans-52"/>
      </defs>
      <g transform="translate(24.749375 292.449172)scale(0.14 -0.14)">
       <use xlink:href="#DejaVuSans-52"/>
       <use x="63.623047" xlink:href="#DejaVuSans-48"/>
       <use x="127.246094" xlink:href="#DejaVuSans-48"/>
       <use x="190.869141" xlink:href="#DejaVuSans-44"/>
       <use x="222.65625" xlink:href="#DejaVuSans-48"/>
       <use x="286.279297" xlink:href="#DejaVuSans-48"/>
       <use x="349.902344" xlink:href="#DejaVuSans-48"/>
      </g>
     </g>
    </g>
    <g id="ytick_6">
     <g id="line2d_29">
      <path clip-path="url(#pf37249c74f)" d="M 89.64375 210.232832 
L 596.916477 210.232832 
" style="fill:none;stroke:#d3d3d3;stroke-linecap:square;stroke-width:0.8;"/>
     </g>
     <g id="line2d_30">
      <g>
       <use style="stroke:#000000;stroke-width:0.8;" x="89.64375" xlink:href="#mf0bffc4b93" y="210.232832"/>
      </g>
     </g>
     <g id="text_15">
      <!-- 500,000 -->
      <g transform="translate(24.749375 215.551738)scale(0.14 -0.14)">
       <use xlink:href="#DejaVuSans-53"/>
       <use x="63.623047" xlink:href="#DejaVuSans-48"/>
       <use x="127.246094" xlink:href="#DejaVuSans-48"/>
       <use x="190.869141" xlink:href="#DejaVuSans-44"/>
       <use x="222.65625" xlink:href="#DejaVuSans-48"/>
       <use x="286.279297" xlink:href="#DejaVuSans-48"/>
       <use x="349.902344" xlink:href="#DejaVuSans-48"/>
      </g>
     </g>
    </g>
    <g id="ytick_7">
     <g id="line2d_31">
      <path clip-path="url(#pf37249c74f)" d="M 89.64375 133.335399 
L 596.916477 133.335399 
" style="fill:none;stroke:#d3d3d3;stroke-linecap:square;stroke-width:0.8;"/>
     </g>
     <g id="line2d_32">
      <g>
       <use style="stroke:#000000;stroke-width:0.8;" x="89.64375" xlink:href="#mf0bffc4b93" y="133.335399"/>
      </g>
     </g>
     <g id="text_16">
      <!-- 600,000 -->
      <defs>
       <path d="M 33.015625 40.375 
Q 26.375 40.375 22.484375 35.828125 
Q 18.609375 31.296875 18.609375 23.390625 
Q 18.609375 15.53125 22.484375 10.953125 
Q 26.375 6.390625 33.015625 6.390625 
Q 39.65625 6.390625 43.53125 10.953125 
Q 47.40625 15.53125 47.40625 23.390625 
Q 47.40625 31.296875 43.53125 35.828125 
Q 39.65625 40.375 33.015625 40.375 
z
M 52.59375 71.296875 
L 52.59375 62.3125 
Q 48.875 64.0625 45.09375 64.984375 
Q 41.3125 65.921875 37.59375 65.921875 
Q 27.828125 65.921875 22.671875 59.328125 
Q 17.53125 52.734375 16.796875 39.40625 
Q 19.671875 43.65625 24.015625 45.921875 
Q 28.375 48.1875 33.59375 48.1875 
Q 44.578125 48.1875 50.953125 41.515625 
Q 57.328125 34.859375 57.328125 23.390625 
Q 57.328125 12.15625 50.6875 5.359375 
Q 44.046875 -1.421875 33.015625 -1.421875 
Q 20.359375 -1.421875 13.671875 8.265625 
Q 6.984375 17.96875 6.984375 36.375 
Q 6.984375 53.65625 15.1875 63.9375 
Q 23.390625 74.21875 37.203125 74.21875 
Q 40.921875 74.21875 44.703125 73.484375 
Q 48.484375 72.75 52.59375 71.296875 
z
" id="DejaVuSans-54"/>
      </defs>
      <g transform="translate(24.749375 138.654305)scale(0.14 -0.14)">
       <use xlink:href="#DejaVuSans-54"/>
       <use x="63.623047" xlink:href="#DejaVuSans-48"/>
       <use x="127.246094" xlink:href="#DejaVuSans-48"/>
       <use x="190.869141" xlink:href="#DejaVuSans-44"/>
       <use x="222.65625" xlink:href="#DejaVuSans-48"/>
       <use x="286.279297" xlink:href="#DejaVuSans-48"/>
       <use x="349.902344" xlink:href="#DejaVuSans-48"/>
      </g>
     </g>
    </g>
    <g id="ytick_8">
     <g id="line2d_33">
      <path clip-path="url(#pf37249c74f)" d="M 89.64375 56.437965 
L 596.916477 56.437965 
" style="fill:none;stroke:#d3d3d3;stroke-linecap:square;stroke-width:0.8;"/>
     </g>
     <g id="line2d_34">
      <g>
       <use style="stroke:#000000;stroke-width:0.8;" x="89.64375" xlink:href="#mf0bffc4b93" y="56.437965"/>
      </g>
     </g>
     <g id="text_17">
      <!-- 700,000 -->
      <g transform="translate(24.749375 61.756871)scale(0.14 -0.14)">
       <use xlink:href="#DejaVuSans-55"/>
       <use x="63.623047" xlink:href="#DejaVuSans-48"/>
       <use x="127.246094" xlink:href="#DejaVuSans-48"/>
       <use x="190.869141" xlink:href="#DejaVuSans-44"/>
       <use x="222.65625" xlink:href="#DejaVuSans-48"/>
       <use x="286.279297" xlink:href="#DejaVuSans-48"/>
       <use x="349.902344" xlink:href="#DejaVuSans-48"/>
      </g>
     </g>
    </g>
    <g id="text_18">
     <!-- Total manuscripts -->
     <defs>
      <path d="M -0.296875 72.90625 
L 61.375 72.90625 
L 61.375 64.59375 
L 35.5 64.59375 
L 35.5 0 
L 25.59375 0 
L 25.59375 64.59375 
L -0.296875 64.59375 
z
" id="DejaVuSans-84"/>
      <path d="M 30.609375 48.390625 
Q 23.390625 48.390625 19.1875 42.75 
Q 14.984375 37.109375 14.984375 27.296875 
Q 14.984375 17.484375 19.15625 11.84375 
Q 23.34375 6.203125 30.609375 6.203125 
Q 37.796875 6.203125 41.984375 11.859375 
Q 46.1875 17.53125 46.1875 27.296875 
Q 46.1875 37.015625 41.984375 42.703125 
Q 37.796875 48.390625 30.609375 48.390625 
z
M 30.609375 56 
Q 42.328125 56 49.015625 48.375 
Q 55.71875 40.765625 55.71875 27.296875 
Q 55.71875 13.875 49.015625 6.21875 
Q 42.328125 -1.421875 30.609375 -1.421875 
Q 18.84375 -1.421875 12.171875 6.21875 
Q 5.515625 13.875 5.515625 27.296875 
Q 5.515625 40.765625 12.171875 48.375 
Q 18.84375 56 30.609375 56 
z
" id="DejaVuSans-111"/>
      <path d="M 18.3125 70.21875 
L 18.3125 54.6875 
L 36.8125 54.6875 
L 36.8125 47.703125 
L 18.3125 47.703125 
L 18.3125 18.015625 
Q 18.3125 11.328125 20.140625 9.421875 
Q 21.96875 7.515625 27.59375 7.515625 
L 36.8125 7.515625 
L 36.8125 0 
L 27.59375 0 
Q 17.1875 0 13.234375 3.875 
Q 9.28125 7.765625 9.28125 18.015625 
L 9.28125 47.703125 
L 2.6875 47.703125 
L 2.6875 54.6875 
L 9.28125 54.6875 
L 9.28125 70.21875 
z
" id="DejaVuSans-116"/>
      <path d="M 34.28125 27.484375 
Q 23.390625 27.484375 19.1875 25 
Q 14.984375 22.515625 14.984375 16.5 
Q 14.984375 11.71875 18.140625 8.90625 
Q 21.296875 6.109375 26.703125 6.109375 
Q 34.1875 6.109375 38.703125 11.40625 
Q 43.21875 16.703125 43.21875 25.484375 
L 43.21875 27.484375 
z
M 52.203125 31.203125 
L 52.203125 0 
L 43.21875 0 
L 43.21875 8.296875 
Q 40.140625 3.328125 35.546875 0.953125 
Q 30.953125 -1.421875 24.3125 -1.421875 
Q 15.921875 -1.421875 10.953125 3.296875 
Q 6 8.015625 6 15.921875 
Q 6 25.140625 12.171875 29.828125 
Q 18.359375 34.515625 30.609375 34.515625 
L 43.21875 34.515625 
L 43.21875 35.40625 
Q 43.21875 41.609375 39.140625 45 
Q 35.0625 48.390625 27.6875 48.390625 
Q 23 48.390625 18.546875 47.265625 
Q 14.109375 46.140625 10.015625 43.890625 
L 10.015625 52.203125 
Q 14.9375 54.109375 19.578125 55.046875 
Q 24.21875 56 28.609375 56 
Q 40.484375 56 46.34375 49.84375 
Q 52.203125 43.703125 52.203125 31.203125 
z
" id="DejaVuSans-97"/>
      <path d="M 9.421875 75.984375 
L 18.40625 75.984375 
L 18.40625 0 
L 9.421875 0 
z
" id="DejaVuSans-108"/>
      <path id="DejaVuSans-32"/>
      <path d="M 52 44.1875 
Q 55.375 50.25 60.0625 53.125 
Q 64.75 56 71.09375 56 
Q 79.640625 56 84.28125 50.015625 
Q 88.921875 44.046875 88.921875 33.015625 
L 88.921875 0 
L 79.890625 0 
L 79.890625 32.71875 
Q 79.890625 40.578125 77.09375 44.375 
Q 74.3125 48.1875 68.609375 48.1875 
Q 61.625 48.1875 57.5625 43.546875 
Q 53.515625 38.921875 53.515625 30.90625 
L 53.515625 0 
L 44.484375 0 
L 44.484375 32.71875 
Q 44.484375 40.625 41.703125 44.40625 
Q 38.921875 48.1875 33.109375 48.1875 
Q 26.21875 48.1875 22.15625 43.53125 
Q 18.109375 38.875 18.109375 30.90625 
L 18.109375 0 
L 9.078125 0 
L 9.078125 54.6875 
L 18.109375 54.6875 
L 18.109375 46.1875 
Q 21.1875 51.21875 25.484375 53.609375 
Q 29.78125 56 35.6875 56 
Q 41.65625 56 45.828125 52.96875 
Q 50 49.953125 52 44.1875 
z
" id="DejaVuSans-109"/>
      <path d="M 54.890625 33.015625 
L 54.890625 0 
L 45.90625 0 
L 45.90625 32.71875 
Q 45.90625 40.484375 42.875 44.328125 
Q 39.84375 48.1875 33.796875 48.1875 
Q 26.515625 48.1875 22.3125 43.546875 
Q 18.109375 38.921875 18.109375 30.90625 
L 18.109375 0 
L 9.078125 0 
L 9.078125 54.6875 
L 18.109375 54.6875 
L 18.109375 46.1875 
Q 21.34375 51.125 25.703125 53.5625 
Q 30.078125 56 35.796875 56 
Q 45.21875 56 50.046875 50.171875 
Q 54.890625 44.34375 54.890625 33.015625 
z
" id="DejaVuSans-110"/>
      <path d="M 8.5 21.578125 
L 8.5 54.6875 
L 17.484375 54.6875 
L 17.484375 21.921875 
Q 17.484375 14.15625 20.5 10.265625 
Q 23.53125 6.390625 29.59375 6.390625 
Q 36.859375 6.390625 41.078125 11.03125 
Q 45.3125 15.671875 45.3125 23.6875 
L 45.3125 54.6875 
L 54.296875 54.6875 
L 54.296875 0 
L 45.3125 0 
L 45.3125 8.40625 
Q 42.046875 3.421875 37.71875 1 
Q 33.40625 -1.421875 27.6875 -1.421875 
Q 18.265625 -1.421875 13.375 4.4375 
Q 8.5 10.296875 8.5 21.578125 
z
M 31.109375 56 
z
" id="DejaVuSans-117"/>
      <path d="M 44.28125 53.078125 
L 44.28125 44.578125 
Q 40.484375 46.53125 36.375 47.5 
Q 32.28125 48.484375 27.875 48.484375 
Q 21.1875 48.484375 17.84375 46.4375 
Q 14.5 44.390625 14.5 40.28125 
Q 14.5 37.15625 16.890625 35.375 
Q 19.28125 33.59375 26.515625 31.984375 
L 29.59375 31.296875 
Q 39.15625 29.25 43.1875 25.515625 
Q 47.21875 21.78125 47.21875 15.09375 
Q 47.21875 7.46875 41.1875 3.015625 
Q 35.15625 -1.421875 24.609375 -1.421875 
Q 20.21875 -1.421875 15.453125 -0.5625 
Q 10.6875 0.296875 5.421875 2 
L 5.421875 11.28125 
Q 10.40625 8.6875 15.234375 7.390625 
Q 20.0625 6.109375 24.8125 6.109375 
Q 31.15625 6.109375 34.5625 8.28125 
Q 37.984375 10.453125 37.984375 14.40625 
Q 37.984375 18.0625 35.515625 20.015625 
Q 33.0625 21.96875 24.703125 23.78125 
L 21.578125 24.515625 
Q 13.234375 26.265625 9.515625 29.90625 
Q 5.8125 33.546875 5.8125 39.890625 
Q 5.8125 47.609375 11.28125 51.796875 
Q 16.75 56 26.8125 56 
Q 31.78125 56 36.171875 55.265625 
Q 40.578125 54.546875 44.28125 53.078125 
z
" id="DejaVuSans-115"/>
      <path d="M 48.78125 52.59375 
L 48.78125 44.1875 
Q 44.96875 46.296875 41.140625 47.34375 
Q 37.3125 48.390625 33.40625 48.390625 
Q 24.65625 48.390625 19.8125 42.84375 
Q 14.984375 37.3125 14.984375 27.296875 
Q 14.984375 17.28125 19.8125 11.734375 
Q 24.65625 6.203125 33.40625 6.203125 
Q 37.3125 6.203125 41.140625 7.25 
Q 44.96875 8.296875 48.78125 10.40625 
L 48.78125 2.09375 
Q 45.015625 0.34375 40.984375 -0.53125 
Q 36.96875 -1.421875 32.421875 -1.421875 
Q 20.0625 -1.421875 12.78125 6.34375 
Q 5.515625 14.109375 5.515625 27.296875 
Q 5.515625 40.671875 12.859375 48.328125 
Q 20.21875 56 33.015625 56 
Q 37.15625 56 41.109375 55.140625 
Q 45.0625 54.296875 48.78125 52.59375 
z
" id="DejaVuSans-99"/>
      <path d="M 41.109375 46.296875 
Q 39.59375 47.171875 37.8125 47.578125 
Q 36.03125 48 33.890625 48 
Q 26.265625 48 22.1875 43.046875 
Q 18.109375 38.09375 18.109375 28.8125 
L 18.109375 0 
L 9.078125 0 
L 9.078125 54.6875 
L 18.109375 54.6875 
L 18.109375 46.1875 
Q 20.953125 51.171875 25.484375 53.578125 
Q 30.03125 56 36.53125 56 
Q 37.453125 56 38.578125 55.875 
Q 39.703125 55.765625 41.0625 55.515625 
z
" id="DejaVuSans-114"/>
      <path d="M 9.421875 54.6875 
L 18.40625 54.6875 
L 18.40625 0 
L 9.421875 0 
z
M 9.421875 75.984375 
L 18.40625 75.984375 
L 18.40625 64.59375 
L 9.421875 64.59375 
z
" id="DejaVuSans-105"/>
      <path d="M 18.109375 8.203125 
L 18.109375 -20.796875 
L 9.078125 -20.796875 
L 9.078125 54.6875 
L 18.109375 54.6875 
L 18.109375 46.390625 
Q 20.953125 51.265625 25.265625 53.625 
Q 29.59375 56 35.59375 56 
Q 45.5625 56 51.78125 48.09375 
Q 58.015625 40.1875 58.015625 27.296875 
Q 58.015625 14.40625 51.78125 6.484375 
Q 45.5625 -1.421875 35.59375 -1.421875 
Q 29.59375 -1.421875 25.265625 0.953125 
Q 20.953125 3.328125 18.109375 8.203125 
z
M 48.6875 27.296875 
Q 48.6875 37.203125 44.609375 42.84375 
Q 40.53125 48.484375 33.40625 48.484375 
Q 26.265625 48.484375 22.1875 42.84375 
Q 18.109375 37.203125 18.109375 27.296875 
Q 18.109375 17.390625 22.1875 11.75 
Q 26.265625 6.109375 33.40625 6.109375 
Q 40.53125 6.109375 44.609375 11.75 
Q 48.6875 17.390625 48.6875 27.296875 
z
" id="DejaVuSans-112"/>
     </defs>
     <g transform="translate(17.837813 363.836406)rotate(-90)scale(0.14 -0.14)">
      <use xlink:href="#DejaVuSans-84"/>
      <use x="60.818359" xlink:href="#DejaVuSans-111"/>
      <use x="122" xlink:href="#DejaVuSans-116"/>
      <use x="161.208984" xlink:href="#DejaVuSans-97"/>
      <use x="222.488281" xlink:href="#DejaVuSans-108"/>
      <use x="250.271484" xlink:href="#DejaVuSans-32"/>
      <use x="282.058594" xlink:href="#DejaVuSans-109"/>
      <use x="379.470703" xlink:href="#DejaVuSans-97"/>
      <use x="440.75" xlink:href="#DejaVuSans-110"/>
      <use x="504.128906" xlink:href="#DejaVuSans-117"/>
      <use x="567.507812" xlink:href="#DejaVuSans-115"/>
      <use x="619.607422" xlink:href="#DejaVuSans-99"/>
      <use x="674.587891" xlink:href="#DejaVuSans-114"/>
      <use x="715.701172" xlink:href="#DejaVuSans-105"/>
      <use x="743.484375" xlink:href="#DejaVuSans-112"/>
      <use x="806.960938" xlink:href="#DejaVuSans-116"/>
      <use x="846.169922" xlink:href="#DejaVuSans-115"/>
     </g>
    </g>
   </g>
   <g id="line2d_35">
    <path clip-path="url(#pf37249c74f)" d="M 112.701601 560.715955 
L 125.613998 558.349052 
L 132.070196 555.442329 
L 138.526395 554.427283 
L 144.982593 550.607018 
L 151.438791 548.668434 
L 161.584246 545.835533 
L 168.040444 495.91295 
L 174.496643 491.51903 
L 175.418957 490.087969 
L 176.341271 489.11983 
L 177.263585 487.980979 
L 178.185899 487.78566 
L 179.108213 487.100504 
L 180.952841 486.2108 
L 181.875155 490.793888 
L 182.797469 490.290978 
L 183.719783 490.076434 
L 184.642097 490.03491 
L 185.564411 489.691178 
L 186.486725 489.054468 
L 187.409039 487.990976 
L 188.331353 487.22354 
L 189.253667 486.679875 
L 190.175981 486.463793 
L 192.02061 485.190372 
L 192.942924 484.829723 
L 193.865238 482.046035 
L 194.787552 473.688053 
L 195.709866 473.44352 
L 197.554494 472.667624 
L 199.399122 472.493836 
L 200.321436 471.410351 
L 201.24375 471.62105 
L 202.166064 470.48143 
L 203.088378 468.958861 
L 204.010692 468.73509 
L 204.933006 465.939868 
L 205.85532 465.669189 
L 206.777634 465.010178 
L 207.699948 464.132009 
L 209.544576 456.186966 
L 210.46689 455.184993 
L 211.389205 454.937383 
L 212.311519 454.514447 
L 213.233833 453.889271 
L 214.156147 452.514345 
L 215.078461 451.62618 
L 216.000775 450.976396 
L 216.923089 450.698028 
L 217.845403 450.200501 
L 219.690031 448.11735 
L 220.612345 447.572916 
L 221.534659 446.68552 
L 227.990857 442.363884 
L 231.680114 441.623362 
L 232.602428 439.280297 
L 233.524742 438.519781 
L 234.447056 438.216805 
L 235.36937 437.21637 
L 238.136312 435.303161 
L 239.058626 435.084773 
L 240.903254 432.923955 
L 241.825568 432.287244 
L 242.747882 432.82245 
L 246.437138 430.766982 
L 247.359452 428.985268 
L 248.281767 428.173231 
L 249.204081 421.967609 
L 250.126395 420.461188 
L 251.971023 419.818325 
L 253.815651 417.938952 
L 254.737965 417.607524 
L 256.582593 415.330591 
L 257.504907 415.134503 
L 258.427221 414.561617 
L 261.194163 411.185819 
L 262.116477 410.935134 
L 264.883419 408.502099 
L 265.805733 407.22714 
L 266.728048 406.277456 
L 271.339618 402.349535 
L 272.261932 401.143784 
L 274.10656 399.820379 
L 276.873502 393.915425 
L 277.795816 392.852702 
L 278.71813 390.116692 
L 279.640444 390.038256 
L 280.562758 388.508766 
L 281.485072 386.378707 
L 282.407386 384.759247 
L 283.3297 384.467806 
L 284.252014 383.995656 
L 285.174329 383.044435 
L 286.096643 381.700267 
L 287.018957 379.810898 
L 288.863585 377.850013 
L 289.785899 377.32019 
L 292.552841 375.589228 
L 294.397469 374.218147 
L 295.319783 373.712931 
L 296.242097 373.381503 
L 298.086725 371.852013 
L 299.009039 368.950673 
L 299.931353 368.224761 
L 300.853667 364.165346 
L 301.775981 362.745819 
L 302.698295 362.144481 
L 305.465238 359.910611 
L 306.387552 358.853271 
L 307.309866 358.370355 
L 308.23218 356.950059 
L 309.154494 356.857014 
L 310.076808 355.696631 
L 310.999122 355.095293 
L 311.921436 353.26129 
L 312.84375 351.764097 
L 313.766064 350.83902 
L 314.688378 350.080812 
L 315.610692 349.580978 
L 317.45532 348.249884 
L 318.377634 346.771146 
L 320.222262 340.342521 
L 321.144576 339.06833 
L 322.06689 338.762279 
L 322.989205 338.280132 
L 323.911519 337.665721 
L 324.833833 335.886314 
L 325.756147 333.859298 
L 327.600775 331.951473 
L 328.523089 331.6385 
L 329.445403 331.143281 
L 331.290031 328.906334 
L 332.212345 328.455715 
L 333.134659 322.115522 
L 334.056973 321.312713 
L 334.979287 321.128159 
L 335.901601 320.66985 
L 336.823915 319.679411 
L 337.746229 319.159585 
L 338.668543 318.416756 
L 340.513171 316.725781 
L 341.435486 316.250555 
L 342.3578 315.973724 
L 345.124742 312.324941 
L 346.047056 312.008892 
L 346.96937 311.262218 
L 348.813998 309.970341 
L 350.658626 308.174017 
L 351.58094 307.464254 
L 352.503254 307.116678 
L 353.425568 306.437673 
L 354.347882 306.282341 
L 355.270196 305.537973 
L 356.19251 304.579831 
L 357.114824 303.859302 
L 358.037138 302.833491 
L 358.959452 302.529746 
L 359.881767 301.112526 
L 363.571023 296.321816 
L 364.493337 294.753108 
L 366.337965 293.214391 
L 367.260279 292.949863 
L 368.182593 292.537693 
L 369.104907 291.197371 
L 370.027221 290.398407 
L 370.949535 290.36611 
L 375.561105 289.144978 
L 376.483419 287.038758 
L 377.405733 287.038758 
L 378.328048 286.824214 
L 380.172676 286.801914 
L 382.017304 286.041398 
L 382.939618 278.547743 
L 383.861932 277.136675 
L 384.784246 276.349246 
L 385.70656 274.67365 
L 387.551188 273.948508 
L 389.395816 271.870739 
L 391.240444 268.120451 
L 392.162758 267.399153 
L 393.085072 267.293804 
L 394.007386 266.297982 
L 394.9297 265.787383 
L 395.852014 265.465183 
L 396.774329 264.197913 
L 398.618957 262.089385 
L 399.541271 261.637998 
L 400.463585 261.42653 
L 402.308213 257.315593 
L 403.230527 257.048759 
L 404.152841 256.026023 
L 405.075155 255.869921 
L 405.997469 255.500813 
L 412.453667 248.385494 
L 418.909866 240.398926 
L 425.366064 235.20835 
L 431.822262 228.091492 
L 438.278461 223.904427 
L 451.190857 217.227423 
L 457.647056 211.843064 
L 464.103254 193.19313 
L 471.481767 187.431974 
L 477.015651 181.921504 
L 483.471849 176.085758 
L 489.928048 169.532559 
L 496.384246 158.062537 
L 502.840444 149.287771 
L 509.296643 142.593081 
L 515.752841 133.630685 
L 528.665238 94.173074 
L 535.121436 87.579888 
L 541.577634 79.681752 
L 548.033833 70.55172 
L 554.490031 63.14419 
L 560.946229 49.397236 
L 567.402428 42.218092 
L 573.858626 33.557903 
L 573.858626 33.557903 
" style="fill:none;stroke:#1f77b4;stroke-linecap:square;stroke-width:3;"/>
   </g>
   <g id="patch_3">
    <path d="M 89.64375 594.72 
L 89.64375 7.2 
" style="fill:none;stroke:#000000;stroke-linecap:square;stroke-linejoin:miter;stroke-width:0.8;"/>
   </g>
   <g id="patch_4">
    <path d="M 89.64375 594.72 
L 596.916477 594.72 
" style="fill:none;stroke:#000000;stroke-linecap:square;stroke-linejoin:miter;stroke-width:0.8;"/>
   </g>
  </g>
  <g id="axes_2">
   <g id="patch_5">
    <path d="M 698.371023 594.72 
L 1205.64375 594.72 
L 1205.64375 7.2 
L 698.371023 7.2 
z
" style="fill:#ffffff;"/>
   </g>
   <g id="matplotlib.axis_3">
    <g id="xtick_10">
     <g id="line2d_36">
      <path clip-path="url(#p1c72b95cc4)" d="M 703.904907 594.72 
L 703.904907 7.2 
" style="fill:none;stroke:#d3d3d3;stroke-linecap:square;stroke-width:0.8;"/>
     </g>
     <g id="line2d_37">
      <g>
       <use style="stroke:#000000;stroke-width:0.8;" x="703.904907" xlink:href="#mc18a998e9f" y="594.72"/>
      </g>
     </g>
     <g id="text_19">
      <!-- 2020-03 -->
      <g transform="translate(651.790158 640.180585)rotate(-30)scale(0.14 -0.14)">
       <use xlink:href="#DejaVuSans-50"/>
       <use x="63.623047" xlink:href="#DejaVuSans-48"/>
       <use x="127.246094" xlink:href="#DejaVuSans-50"/>
       <use x="190.869141" xlink:href="#DejaVuSans-48"/>
       <use x="254.492188" xlink:href="#DejaVuSans-45"/>
       <use x="290.576172" xlink:href="#DejaVuSans-48"/>
       <use x="354.199219" xlink:href="#DejaVuSans-51"/>
      </g>
     </g>
    </g>
    <g id="xtick_11">
     <g id="line2d_38">
      <path clip-path="url(#p1c72b95cc4)" d="M 760.166064 594.72 
L 760.166064 7.2 
" style="fill:none;stroke:#d3d3d3;stroke-linecap:square;stroke-width:0.8;"/>
     </g>
     <g id="line2d_39">
      <g>
       <use style="stroke:#000000;stroke-width:0.8;" x="760.166064" xlink:href="#mc18a998e9f" y="594.72"/>
      </g>
     </g>
     <g id="text_20">
      <!-- 2020-05 -->
      <g transform="translate(708.051315 640.180585)rotate(-30)scale(0.14 -0.14)">
       <use xlink:href="#DejaVuSans-50"/>
       <use x="63.623047" xlink:href="#DejaVuSans-48"/>
       <use x="127.246094" xlink:href="#DejaVuSans-50"/>
       <use x="190.869141" xlink:href="#DejaVuSans-48"/>
       <use x="254.492188" xlink:href="#DejaVuSans-45"/>
       <use x="290.576172" xlink:href="#DejaVuSans-48"/>
       <use x="354.199219" xlink:href="#DejaVuSans-53"/>
      </g>
     </g>
    </g>
    <g id="xtick_12">
     <g id="line2d_40">
      <path clip-path="url(#p1c72b95cc4)" d="M 816.427221 594.72 
L 816.427221 7.2 
" style="fill:none;stroke:#d3d3d3;stroke-linecap:square;stroke-width:0.8;"/>
     </g>
     <g id="line2d_41">
      <g>
       <use style="stroke:#000000;stroke-width:0.8;" x="816.427221" xlink:href="#mc18a998e9f" y="594.72"/>
      </g>
     </g>
     <g id="text_21">
      <!-- 2020-07 -->
      <g transform="translate(764.312472 640.180585)rotate(-30)scale(0.14 -0.14)">
       <use xlink:href="#DejaVuSans-50"/>
       <use x="63.623047" xlink:href="#DejaVuSans-48"/>
       <use x="127.246094" xlink:href="#DejaVuSans-50"/>
       <use x="190.869141" xlink:href="#DejaVuSans-48"/>
       <use x="254.492188" xlink:href="#DejaVuSans-45"/>
       <use x="290.576172" xlink:href="#DejaVuSans-48"/>
       <use x="354.199219" xlink:href="#DejaVuSans-55"/>
      </g>
     </g>
    </g>
    <g id="xtick_13">
     <g id="line2d_42">
      <path clip-path="url(#p1c72b95cc4)" d="M 873.610692 594.72 
L 873.610692 7.2 
" style="fill:none;stroke:#d3d3d3;stroke-linecap:square;stroke-width:0.8;"/>
     </g>
     <g id="line2d_43">
      <g>
       <use style="stroke:#000000;stroke-width:0.8;" x="873.610692" xlink:href="#mc18a998e9f" y="594.72"/>
      </g>
     </g>
     <g id="text_22">
      <!-- 2020-09 -->
      <g transform="translate(821.495943 640.180585)rotate(-30)scale(0.14 -0.14)">
       <use xlink:href="#DejaVuSans-50"/>
       <use x="63.623047" xlink:href="#DejaVuSans-48"/>
       <use x="127.246094" xlink:href="#DejaVuSans-50"/>
       <use x="190.869141" xlink:href="#DejaVuSans-48"/>
       <use x="254.492188" xlink:href="#DejaVuSans-45"/>
       <use x="290.576172" xlink:href="#DejaVuSans-48"/>
       <use x="354.199219" xlink:href="#DejaVuSans-57"/>
      </g>
     </g>
    </g>
    <g id="xtick_14">
     <g id="line2d_44">
      <path clip-path="url(#p1c72b95cc4)" d="M 929.871849 594.72 
L 929.871849 7.2 
" style="fill:none;stroke:#d3d3d3;stroke-linecap:square;stroke-width:0.8;"/>
     </g>
     <g id="line2d_45">
      <g>
       <use style="stroke:#000000;stroke-width:0.8;" x="929.871849" xlink:href="#mc18a998e9f" y="594.72"/>
      </g>
     </g>
     <g id="text_23">
      <!-- 2020-11 -->
      <g transform="translate(877.7571 640.180585)rotate(-30)scale(0.14 -0.14)">
       <use xlink:href="#DejaVuSans-50"/>
       <use x="63.623047" xlink:href="#DejaVuSans-48"/>
       <use x="127.246094" xlink:href="#DejaVuSans-50"/>
       <use x="190.869141" xlink:href="#DejaVuSans-48"/>
       <use x="254.492188" xlink:href="#DejaVuSans-45"/>
       <use x="290.576172" xlink:href="#DejaVuSans-49"/>
       <use x="354.199219" xlink:href="#DejaVuSans-49"/>
      </g>
     </g>
    </g>
    <g id="xtick_15">
     <g id="line2d_46">
      <path clip-path="url(#p1c72b95cc4)" d="M 986.133006 594.72 
L 986.133006 7.2 
" style="fill:none;stroke:#d3d3d3;stroke-linecap:square;stroke-width:0.8;"/>
     </g>
     <g id="line2d_47">
      <g>
       <use style="stroke:#000000;stroke-width:0.8;" x="986.133006" xlink:href="#mc18a998e9f" y="594.72"/>
      </g>
     </g>
     <g id="text_24">
      <!-- 2021-01 -->
      <g transform="translate(934.018257 640.180585)rotate(-30)scale(0.14 -0.14)">
       <use xlink:href="#DejaVuSans-50"/>
       <use x="63.623047" xlink:href="#DejaVuSans-48"/>
       <use x="127.246094" xlink:href="#DejaVuSans-50"/>
       <use x="190.869141" xlink:href="#DejaVuSans-49"/>
       <use x="254.492188" xlink:href="#DejaVuSans-45"/>
       <use x="290.576172" xlink:href="#DejaVuSans-48"/>
       <use x="354.199219" xlink:href="#DejaVuSans-49"/>
      </g>
     </g>
    </g>
    <g id="xtick_16">
     <g id="line2d_48">
      <path clip-path="url(#p1c72b95cc4)" d="M 1040.549535 594.72 
L 1040.549535 7.2 
" style="fill:none;stroke:#d3d3d3;stroke-linecap:square;stroke-width:0.8;"/>
     </g>
     <g id="line2d_49">
      <g>
       <use style="stroke:#000000;stroke-width:0.8;" x="1040.549535" xlink:href="#mc18a998e9f" y="594.72"/>
      </g>
     </g>
     <g id="text_25">
      <!-- 2021-03 -->
      <g transform="translate(988.434786 640.180585)rotate(-30)scale(0.14 -0.14)">
       <use xlink:href="#DejaVuSans-50"/>
       <use x="63.623047" xlink:href="#DejaVuSans-48"/>
       <use x="127.246094" xlink:href="#DejaVuSans-50"/>
       <use x="190.869141" xlink:href="#DejaVuSans-49"/>
       <use x="254.492188" xlink:href="#DejaVuSans-45"/>
       <use x="290.576172" xlink:href="#DejaVuSans-48"/>
       <use x="354.199219" xlink:href="#DejaVuSans-51"/>
      </g>
     </g>
    </g>
    <g id="xtick_17">
     <g id="line2d_50">
      <path clip-path="url(#p1c72b95cc4)" d="M 1096.810692 594.72 
L 1096.810692 7.2 
" style="fill:none;stroke:#d3d3d3;stroke-linecap:square;stroke-width:0.8;"/>
     </g>
     <g id="line2d_51">
      <g>
       <use style="stroke:#000000;stroke-width:0.8;" x="1096.810692" xlink:href="#mc18a998e9f" y="594.72"/>
      </g>
     </g>
     <g id="text_26">
      <!-- 2021-05 -->
      <g transform="translate(1044.695943 640.180585)rotate(-30)scale(0.14 -0.14)">
       <use xlink:href="#DejaVuSans-50"/>
       <use x="63.623047" xlink:href="#DejaVuSans-48"/>
       <use x="127.246094" xlink:href="#DejaVuSans-50"/>
       <use x="190.869141" xlink:href="#DejaVuSans-49"/>
       <use x="254.492188" xlink:href="#DejaVuSans-45"/>
       <use x="290.576172" xlink:href="#DejaVuSans-48"/>
       <use x="354.199219" xlink:href="#DejaVuSans-53"/>
      </g>
     </g>
    </g>
    <g id="xtick_18">
     <g id="line2d_52">
      <path clip-path="url(#p1c72b95cc4)" d="M 1153.071849 594.72 
L 1153.071849 7.2 
" style="fill:none;stroke:#d3d3d3;stroke-linecap:square;stroke-width:0.8;"/>
     </g>
     <g id="line2d_53">
      <g>
       <use style="stroke:#000000;stroke-width:0.8;" x="1153.071849" xlink:href="#mc18a998e9f" y="594.72"/>
      </g>
     </g>
     <g id="text_27">
      <!-- 2021-07 -->
      <g transform="translate(1100.9571 640.180585)rotate(-30)scale(0.14 -0.14)">
       <use xlink:href="#DejaVuSans-50"/>
       <use x="63.623047" xlink:href="#DejaVuSans-48"/>
       <use x="127.246094" xlink:href="#DejaVuSans-50"/>
       <use x="190.869141" xlink:href="#DejaVuSans-49"/>
       <use x="254.492188" xlink:href="#DejaVuSans-45"/>
       <use x="290.576172" xlink:href="#DejaVuSans-48"/>
       <use x="354.199219" xlink:href="#DejaVuSans-55"/>
      </g>
     </g>
    </g>
   </g>
   <g id="matplotlib.axis_4">
    <g id="ytick_9">
     <g id="line2d_54">
      <path clip-path="url(#p1c72b95cc4)" d="M 698.371023 594.72 
L 1205.64375 594.72 
" style="fill:none;stroke:#d3d3d3;stroke-linecap:square;stroke-width:0.8;"/>
     </g>
     <g id="line2d_55">
      <g>
       <use style="stroke:#000000;stroke-width:0.8;" x="698.371023" xlink:href="#mf0bffc4b93" y="594.72"/>
      </g>
     </g>
     <g id="text_28">
      <!-- 0 -->
      <g transform="translate(682.463523 600.038906)scale(0.14 -0.14)">
       <use xlink:href="#DejaVuSans-48"/>
      </g>
     </g>
    </g>
    <g id="ytick_10">
     <g id="line2d_56">
      <path clip-path="url(#p1c72b95cc4)" d="M 698.371023 518.147465 
L 1205.64375 518.147465 
" style="fill:none;stroke:#d3d3d3;stroke-linecap:square;stroke-width:0.8;"/>
     </g>
     <g id="line2d_57">
      <g>
       <use style="stroke:#000000;stroke-width:0.8;" x="698.371023" xlink:href="#mf0bffc4b93" y="518.147465"/>
      </g>
     </g>
     <g id="text_29">
      <!-- 2,000 -->
      <g transform="translate(651.291648 523.466372)scale(0.14 -0.14)">
       <use xlink:href="#DejaVuSans-50"/>
       <use x="63.623047" xlink:href="#DejaVuSans-44"/>
       <use x="95.410156" xlink:href="#DejaVuSans-48"/>
       <use x="159.033203" xlink:href="#DejaVuSans-48"/>
       <use x="222.65625" xlink:href="#DejaVuSans-48"/>
      </g>
     </g>
    </g>
    <g id="ytick_11">
     <g id="line2d_58">
      <path clip-path="url(#p1c72b95cc4)" d="M 698.371023 441.574931 
L 1205.64375 441.574931 
" style="fill:none;stroke:#d3d3d3;stroke-linecap:square;stroke-width:0.8;"/>
     </g>
     <g id="line2d_59">
      <g>
       <use style="stroke:#000000;stroke-width:0.8;" x="698.371023" xlink:href="#mf0bffc4b93" y="441.574931"/>
      </g>
     </g>
     <g id="text_30">
      <!-- 4,000 -->
      <g transform="translate(651.291648 446.893837)scale(0.14 -0.14)">
       <use xlink:href="#DejaVuSans-52"/>
       <use x="63.623047" xlink:href="#DejaVuSans-44"/>
       <use x="95.410156" xlink:href="#DejaVuSans-48"/>
       <use x="159.033203" xlink:href="#DejaVuSans-48"/>
       <use x="222.65625" xlink:href="#DejaVuSans-48"/>
      </g>
     </g>
    </g>
    <g id="ytick_12">
     <g id="line2d_60">
      <path clip-path="url(#p1c72b95cc4)" d="M 698.371023 365.002396 
L 1205.64375 365.002396 
" style="fill:none;stroke:#d3d3d3;stroke-linecap:square;stroke-width:0.8;"/>
     </g>
     <g id="line2d_61">
      <g>
       <use style="stroke:#000000;stroke-width:0.8;" x="698.371023" xlink:href="#mf0bffc4b93" y="365.002396"/>
      </g>
     </g>
     <g id="text_31">
      <!-- 6,000 -->
      <g transform="translate(651.291648 370.321303)scale(0.14 -0.14)">
       <use xlink:href="#DejaVuSans-54"/>
       <use x="63.623047" xlink:href="#DejaVuSans-44"/>
       <use x="95.410156" xlink:href="#DejaVuSans-48"/>
       <use x="159.033203" xlink:href="#DejaVuSans-48"/>
       <use x="222.65625" xlink:href="#DejaVuSans-48"/>
      </g>
     </g>
    </g>
    <g id="ytick_13">
     <g id="line2d_62">
      <path clip-path="url(#p1c72b95cc4)" d="M 698.371023 288.429862 
L 1205.64375 288.429862 
" style="fill:none;stroke:#d3d3d3;stroke-linecap:square;stroke-width:0.8;"/>
     </g>
     <g id="line2d_63">
      <g>
       <use style="stroke:#000000;stroke-width:0.8;" x="698.371023" xlink:href="#mf0bffc4b93" y="288.429862"/>
      </g>
     </g>
     <g id="text_32">
      <!-- 8,000 -->
      <defs>
       <path d="M 31.78125 34.625 
Q 24.75 34.625 20.71875 30.859375 
Q 16.703125 27.09375 16.703125 20.515625 
Q 16.703125 13.921875 20.71875 10.15625 
Q 24.75 6.390625 31.78125 6.390625 
Q 38.8125 6.390625 42.859375 10.171875 
Q 46.921875 13.96875 46.921875 20.515625 
Q 46.921875 27.09375 42.890625 30.859375 
Q 38.875 34.625 31.78125 34.625 
z
M 21.921875 38.8125 
Q 15.578125 40.375 12.03125 44.71875 
Q 8.5 49.078125 8.5 55.328125 
Q 8.5 64.0625 14.71875 69.140625 
Q 20.953125 74.21875 31.78125 74.21875 
Q 42.671875 74.21875 48.875 69.140625 
Q 55.078125 64.0625 55.078125 55.328125 
Q 55.078125 49.078125 51.53125 44.71875 
Q 48 40.375 41.703125 38.8125 
Q 48.828125 37.15625 52.796875 32.3125 
Q 56.78125 27.484375 56.78125 20.515625 
Q 56.78125 9.90625 50.3125 4.234375 
Q 43.84375 -1.421875 31.78125 -1.421875 
Q 19.734375 -1.421875 13.25 4.234375 
Q 6.78125 9.90625 6.78125 20.515625 
Q 6.78125 27.484375 10.78125 32.3125 
Q 14.796875 37.15625 21.921875 38.8125 
z
M 18.3125 54.390625 
Q 18.3125 48.734375 21.84375 45.5625 
Q 25.390625 42.390625 31.78125 42.390625 
Q 38.140625 42.390625 41.71875 45.5625 
Q 45.3125 48.734375 45.3125 54.390625 
Q 45.3125 60.0625 41.71875 63.234375 
Q 38.140625 66.40625 31.78125 66.40625 
Q 25.390625 66.40625 21.84375 63.234375 
Q 18.3125 60.0625 18.3125 54.390625 
z
" id="DejaVuSans-56"/>
      </defs>
      <g transform="translate(651.291648 293.748768)scale(0.14 -0.14)">
       <use xlink:href="#DejaVuSans-56"/>
       <use x="63.623047" xlink:href="#DejaVuSans-44"/>
       <use x="95.410156" xlink:href="#DejaVuSans-48"/>
       <use x="159.033203" xlink:href="#DejaVuSans-48"/>
       <use x="222.65625" xlink:href="#DejaVuSans-48"/>
      </g>
     </g>
    </g>
    <g id="ytick_14">
     <g id="line2d_64">
      <path clip-path="url(#p1c72b95cc4)" d="M 698.371023 211.857327 
L 1205.64375 211.857327 
" style="fill:none;stroke:#d3d3d3;stroke-linecap:square;stroke-width:0.8;"/>
     </g>
     <g id="line2d_65">
      <g>
       <use style="stroke:#000000;stroke-width:0.8;" x="698.371023" xlink:href="#mf0bffc4b93" y="211.857327"/>
      </g>
     </g>
     <g id="text_33">
      <!-- 10,000 -->
      <g transform="translate(642.384148 217.176234)scale(0.14 -0.14)">
       <use xlink:href="#DejaVuSans-49"/>
       <use x="63.623047" xlink:href="#DejaVuSans-48"/>
       <use x="127.246094" xlink:href="#DejaVuSans-44"/>
       <use x="159.033203" xlink:href="#DejaVuSans-48"/>
       <use x="222.65625" xlink:href="#DejaVuSans-48"/>
       <use x="286.279297" xlink:href="#DejaVuSans-48"/>
      </g>
     </g>
    </g>
    <g id="ytick_15">
     <g id="line2d_66">
      <path clip-path="url(#p1c72b95cc4)" d="M 698.371023 135.284793 
L 1205.64375 135.284793 
" style="fill:none;stroke:#d3d3d3;stroke-linecap:square;stroke-width:0.8;"/>
     </g>
     <g id="line2d_67">
      <g>
       <use style="stroke:#000000;stroke-width:0.8;" x="698.371023" xlink:href="#mf0bffc4b93" y="135.284793"/>
      </g>
     </g>
     <g id="text_34">
      <!-- 12,000 -->
      <g transform="translate(642.384148 140.603699)scale(0.14 -0.14)">
       <use xlink:href="#DejaVuSans-49"/>
       <use x="63.623047" xlink:href="#DejaVuSans-50"/>
       <use x="127.246094" xlink:href="#DejaVuSans-44"/>
       <use x="159.033203" xlink:href="#DejaVuSans-48"/>
       <use x="222.65625" xlink:href="#DejaVuSans-48"/>
       <use x="286.279297" xlink:href="#DejaVuSans-48"/>
      </g>
     </g>
    </g>
    <g id="ytick_16">
     <g id="line2d_68">
      <path clip-path="url(#p1c72b95cc4)" d="M 698.371023 58.712258 
L 1205.64375 58.712258 
" style="fill:none;stroke:#d3d3d3;stroke-linecap:square;stroke-width:0.8;"/>
     </g>
     <g id="line2d_69">
      <g>
       <use style="stroke:#000000;stroke-width:0.8;" x="698.371023" xlink:href="#mf0bffc4b93" y="58.712258"/>
      </g>
     </g>
     <g id="text_35">
      <!-- 14,000 -->
      <g transform="translate(642.384148 64.031165)scale(0.14 -0.14)">
       <use xlink:href="#DejaVuSans-49"/>
       <use x="63.623047" xlink:href="#DejaVuSans-52"/>
       <use x="127.246094" xlink:href="#DejaVuSans-44"/>
       <use x="159.033203" xlink:href="#DejaVuSans-48"/>
       <use x="222.65625" xlink:href="#DejaVuSans-48"/>
       <use x="286.279297" xlink:href="#DejaVuSans-48"/>
      </g>
     </g>
    </g>
    <g id="text_36">
     <!-- Preprints -->
     <defs>
      <path d="M 19.671875 64.796875 
L 19.671875 37.40625 
L 32.078125 37.40625 
Q 38.96875 37.40625 42.71875 40.96875 
Q 46.484375 44.53125 46.484375 51.125 
Q 46.484375 57.671875 42.71875 61.234375 
Q 38.96875 64.796875 32.078125 64.796875 
z
M 9.8125 72.90625 
L 32.078125 72.90625 
Q 44.34375 72.90625 50.609375 67.359375 
Q 56.890625 61.8125 56.890625 51.125 
Q 56.890625 40.328125 50.609375 34.8125 
Q 44.34375 29.296875 32.078125 29.296875 
L 19.671875 29.296875 
L 19.671875 0 
L 9.8125 0 
z
" id="DejaVuSans-80"/>
      <path d="M 56.203125 29.59375 
L 56.203125 25.203125 
L 14.890625 25.203125 
Q 15.484375 15.921875 20.484375 11.0625 
Q 25.484375 6.203125 34.421875 6.203125 
Q 39.59375 6.203125 44.453125 7.46875 
Q 49.3125 8.734375 54.109375 11.28125 
L 54.109375 2.78125 
Q 49.265625 0.734375 44.1875 -0.34375 
Q 39.109375 -1.421875 33.890625 -1.421875 
Q 20.796875 -1.421875 13.15625 6.1875 
Q 5.515625 13.8125 5.515625 26.8125 
Q 5.515625 40.234375 12.765625 48.109375 
Q 20.015625 56 32.328125 56 
Q 43.359375 56 49.78125 48.890625 
Q 56.203125 41.796875 56.203125 29.59375 
z
M 47.21875 32.234375 
Q 47.125 39.59375 43.09375 43.984375 
Q 39.0625 48.390625 32.421875 48.390625 
Q 24.90625 48.390625 20.390625 44.140625 
Q 15.875 39.890625 15.1875 32.171875 
z
" id="DejaVuSans-101"/>
     </defs>
     <g transform="translate(635.472585 332.455625)rotate(-90)scale(0.14 -0.14)">
      <use xlink:href="#DejaVuSans-80"/>
      <use x="60.287109" xlink:href="#DejaVuSans-114"/>
      <use x="101.369141" xlink:href="#DejaVuSans-101"/>
      <use x="162.892578" xlink:href="#DejaVuSans-112"/>
      <use x="226.369141" xlink:href="#DejaVuSans-114"/>
      <use x="267.482422" xlink:href="#DejaVuSans-105"/>
      <use x="295.265625" xlink:href="#DejaVuSans-110"/>
      <use x="358.644531" xlink:href="#DejaVuSans-116"/>
      <use x="397.853516" xlink:href="#DejaVuSans-115"/>
     </g>
    </g>
   </g>
   <g id="line2d_70">
    <path clip-path="url(#p1c72b95cc4)" d="M 721.428874 588.058189 
L 727.885072 584.306135 
L 734.341271 579.520352 
L 740.797469 573.968843 
L 753.709866 564.320704 
L 760.166064 558.156615 
L 770.311519 550.61422 
L 776.767717 544.756421 
L 786.913171 536.448301 
L 788.7578 535.682576 
L 789.680114 534.572274 
L 791.524742 533.002537 
L 792.447056 532.121953 
L 795.213998 530.51393 
L 796.136312 529.327056 
L 797.058626 528.446471 
L 797.98094 527.757319 
L 798.903254 526.570444 
L 799.825568 525.728146 
L 801.670196 525.115566 
L 802.59251 523.890406 
L 803.514824 522.971535 
L 804.437138 522.358955 
L 806.281767 520.674359 
L 808.126395 520.138351 
L 809.048709 519.487485 
L 809.971023 518.224038 
L 812.737965 515.850289 
L 814.582593 515.084564 
L 816.427221 513.935976 
L 818.271849 512.213094 
L 819.194163 511.562228 
L 821.038791 510.528498 
L 821.961105 509.456483 
L 822.883419 508.690757 
L 823.805733 507.733601 
L 824.728048 507.197593 
L 825.650362 506.431868 
L 826.572676 506.010719 
L 827.49499 505.781001 
L 828.417304 505.359852 
L 829.339618 504.555841 
L 830.261932 503.598684 
L 833.951188 501.224935 
L 834.873502 500.306065 
L 835.795816 499.655198 
L 837.640444 497.817458 
L 840.407386 496.324293 
L 843.174329 493.720827 
L 845.018957 491.806514 
L 846.863585 490.811071 
L 848.708213 489.164761 
L 849.630527 488.513895 
L 850.552841 487.63331 
L 851.475155 486.982444 
L 853.319783 486.637868 
L 854.242097 485.757283 
L 855.164411 485.144703 
L 856.086725 484.378978 
L 857.009039 483.421821 
L 858.853667 482.541237 
L 859.775981 482.311519 
L 860.698295 481.58408 
L 862.542924 480.473778 
L 864.387552 478.980614 
L 865.309866 478.827469 
L 866.23218 478.482893 
L 868.999122 476.45372 
L 870.84375 474.692552 
L 873.610692 473.543964 
L 874.533006 472.931384 
L 875.45532 472.510235 
L 880.06689 469.715337 
L 880.989205 468.987898 
L 882.833833 467.22673 
L 886.523089 465.388989 
L 887.445403 465.006127 
L 888.367717 464.393546 
L 889.290031 463.512962 
L 890.212345 462.938668 
L 892.056973 462.326088 
L 892.979287 461.407217 
L 893.901601 460.679778 
L 894.823915 459.799194 
L 896.668543 458.956896 
L 897.590857 458.30603 
L 898.513171 457.884881 
L 903.124742 454.936838 
L 904.96937 454.362544 
L 909.58094 450.3042 
L 911.425568 449.347043 
L 913.270196 447.968738 
L 914.19251 447.585875 
L 915.114824 446.590432 
L 916.959452 445.709848 
L 917.881767 445.326985 
L 918.804081 444.522974 
L 919.726395 443.412672 
L 920.648709 442.800091 
L 922.493337 441.038923 
L 924.337965 440.273198 
L 925.260279 439.392614 
L 926.182593 438.205739 
L 929.871849 434.91312 
L 930.794163 434.491971 
L 931.716477 433.534815 
L 933.561105 432.539372 
L 935.405733 431.12278 
L 937.250362 430.318768 
L 938.172676 429.629616 
L 942.784246 426.758146 
L 943.70656 426.451855 
L 945.551188 424.76726 
L 947.395816 423.618672 
L 949.240444 422.776374 
L 950.162758 422.661515 
L 951.085072 421.512927 
L 953.852014 419.675186 
L 955.696643 418.986033 
L 957.541271 417.760873 
L 959.385899 416.688857 
L 960.308213 415.655128 
L 961.230527 414.889403 
L 963.075155 414.353395 
L 964.919783 412.285936 
L 966.764411 410.639627 
L 967.686725 410.027047 
L 968.609039 409.644184 
L 972.298295 407.232149 
L 973.22061 406.428138 
L 974.142924 405.853844 
L 975.065238 405.547553 
L 975.987552 405.394408 
L 976.909866 404.743542 
L 977.83218 403.518381 
L 978.754494 402.829228 
L 979.676808 401.986931 
L 982.44375 401.106346 
L 983.366064 400.493766 
L 984.288378 400.14919 
L 987.05532 398.541167 
L 987.977634 398.120018 
L 988.899948 397.928586 
L 989.822262 397.201147 
L 990.744576 396.282277 
L 993.511519 394.789112 
L 995.356147 393.985101 
L 997.200775 392.185646 
L 998.123089 391.343348 
L 999.967717 390.118188 
L 1001.812345 389.505607 
L 1002.734659 388.893027 
L 1003.656973 387.667867 
L 1004.579287 386.787282 
L 1005.501601 386.366134 
L 1006.423915 385.79184 
L 1008.268543 385.140973 
L 1010.113171 383.571236 
L 1011.035486 383.150087 
L 1011.9578 381.924927 
L 1012.880114 381.235774 
L 1013.802428 380.929484 
L 1014.724742 380.431762 
L 1021.18094 375.83741 
L 1027.637138 370.630478 
L 1034.093337 365.959553 
L 1040.549535 361.441774 
L 1047.005733 356.196555 
L 1059.91813 347.582145 
L 1072.830527 339.503742 
L 1092.199122 325.261251 
L 1105.111519 317.182849 
L 1111.567717 312.779928 
L 1124.480114 302.940357 
L 1137.39251 291.952198 
L 1150.304907 282.227487 
L 1156.761105 277.824566 
L 1163.217304 274.110798 
L 1169.673502 270.052454 
L 1176.1297 267.870136 
L 1182.585899 267.066125 
L 1182.585899 267.066125 
" style="fill:none;stroke:#1f77b4;stroke-linecap:square;stroke-width:3;"/>
   </g>
   <g id="line2d_71">
    <path clip-path="url(#p1c72b95cc4)" d="M 721.428874 572.437392 
L 727.885072 566.388162 
L 734.341271 556.586878 
L 740.797469 548.202185 
L 747.253667 537.290599 
L 753.709866 523.890406 
L 760.166064 511.983376 
L 770.311519 488.054459 
L 776.767717 476.185717 
L 783.223915 462.172943 
L 784.146229 455.893995 
L 785.068543 454.439117 
L 785.990857 453.864823 
L 786.913171 451.491074 
L 787.835486 449.653333 
L 788.7578 449.615047 
L 789.680114 448.772749 
L 790.602428 445.709848 
L 791.524742 443.374386 
L 792.447056 442.455515 
L 793.36937 439.009751 
L 794.291684 438.856606 
L 796.136312 436.25314 
L 797.058626 433.496529 
L 797.98094 433.419956 
L 798.903254 432.309654 
L 799.825568 428.021592 
L 800.747882 427.523871 
L 801.670196 426.413569 
L 802.59251 426.29871 
L 803.514824 423.503813 
L 804.437138 422.163793 
L 805.359452 421.244923 
L 807.204081 417.110006 
L 808.126395 417.033434 
L 809.048709 415.769987 
L 809.971023 413.166521 
L 810.893337 412.017933 
L 811.815651 411.673356 
L 812.737965 409.414466 
L 813.660279 409.37618 
L 814.582593 408.304165 
L 815.504907 405.853844 
L 816.427221 405.049832 
L 819.194163 401.872072 
L 820.116477 400.187476 
L 821.038791 399.804613 
L 821.961105 398.770884 
L 822.883419 396.779998 
L 823.805733 395.593124 
L 824.728048 395.171975 
L 825.650362 393.908528 
L 826.572676 391.611352 
L 828.417304 391.496493 
L 829.339618 389.046172 
L 830.261932 387.859298 
L 833.951188 382.460934 
L 834.873502 381.771781 
L 835.795816 380.546621 
L 836.71813 379.857468 
L 837.640444 379.704323 
L 838.562758 376.717994 
L 840.407386 373.961383 
L 841.3297 372.889367 
L 842.252014 372.123642 
L 843.174329 369.78818 
L 844.096643 368.218443 
L 845.018957 367.720721 
L 845.941271 366.495561 
L 846.863585 365.882981 
L 847.785899 365.844694 
L 848.708213 361.901209 
L 849.630527 361.748064 
L 851.475155 358.532017 
L 853.319783 358.532017 
L 854.242097 358.417158 
L 855.164411 356.426273 
L 857.009039 354.665104 
L 857.931353 351.334199 
L 858.853667 350.262184 
L 859.775981 349.649603 
L 861.62061 347.926721 
L 862.542924 347.505572 
L 863.465238 347.314141 
L 865.309866 343.753518 
L 866.23218 343.255797 
L 867.154494 342.29864 
L 868.076808 340.728903 
L 868.999122 339.695174 
L 870.84375 339.542029 
L 873.610692 337.819147 
L 874.533006 334.449955 
L 875.45532 331.808203 
L 880.989205 326.716129 
L 882.833833 323.7298 
L 886.523089 319.824601 
L 887.445403 319.058876 
L 888.367717 318.790872 
L 889.290031 318.752586 
L 890.212345 314.19652 
L 891.134659 314.158233 
L 892.979287 313.622226 
L 893.901601 312.358779 
L 894.823915 309.831885 
L 895.746229 309.449023 
L 896.668543 307.649568 
L 897.590857 307.649568 
L 898.513171 306.80727 
L 901.280114 302.978643 
L 903.124742 301.9832 
L 904.047056 301.9832 
L 904.96937 301.294048 
L 905.891684 300.14546 
L 906.813998 298.614009 
L 907.736312 298.19286 
L 908.658626 297.963142 
L 909.58094 297.618566 
L 910.503254 297.618566 
L 911.425568 297.235703 
L 913.270196 295.091672 
L 914.19251 292.985928 
L 916.037138 292.028771 
L 916.959452 292.028771 
L 917.881767 291.53105 
L 918.804081 291.492763 
L 919.726395 289.387019 
L 920.648709 287.817282 
L 921.571023 287.587564 
L 922.493337 286.209258 
L 923.415651 286.209258 
L 924.337965 285.826396 
L 925.260279 285.137243 
L 926.182593 281.614906 
L 927.104907 281.346902 
L 928.949535 280.466318 
L 929.871849 280.274887 
L 930.794163 279.892024 
L 931.716477 279.777165 
L 932.638791 277.594848 
L 933.561105 274.531947 
L 934.483419 273.957653 
L 935.405733 272.732492 
L 936.328048 271.966767 
L 937.250362 271.890194 
L 938.172676 271.507332 
L 940.017304 270.550175 
L 940.939618 269.095297 
L 941.861932 267.21927 
L 942.784246 267.180984 
L 943.70656 266.836407 
L 944.628874 265.036953 
L 945.551188 264.730662 
L 946.473502 262.548345 
L 947.395816 262.203769 
L 950.162758 260.825463 
L 951.085072 259.447158 
L 953.852014 257.953993 
L 954.774329 257.073409 
L 955.696643 256.460829 
L 957.541271 252.86192 
L 959.385899 251.5219 
L 960.308213 250.526457 
L 961.230527 248.612144 
L 963.075155 248.535571 
L 963.997469 246.889262 
L 964.919783 246.08525 
L 965.842097 245.434384 
L 966.764411 245.396097 
L 967.686725 242.830918 
L 968.609039 242.754345 
L 972.298295 239.155436 
L 973.22061 238.696001 
L 974.142924 237.585699 
L 975.065238 236.705115 
L 975.987552 236.283966 
L 976.909866 236.24568 
L 977.83218 233.297637 
L 978.754494 232.876488 
L 979.676808 231.536469 
L 982.44375 230.464453 
L 984.288378 230.349594 
L 985.210692 229.851873 
L 986.133006 229.813587 
L 987.977634 228.588426 
L 988.899948 228.55014 
L 989.822262 225.831815 
L 990.744576 225.219235 
L 991.66689 223.840929 
L 992.589205 223.764356 
L 993.511519 222.156333 
L 994.433833 221.390608 
L 995.356147 221.314035 
L 996.278461 220.8546 
L 997.200775 220.127161 
L 998.123089 218.902001 
L 999.045403 218.787142 
L 999.967717 215.647668 
L 1000.890031 215.41795 
L 1003.656973 215.264805 
L 1004.579287 212.201904 
L 1005.501601 212.010472 
L 1006.423915 211.015029 
L 1007.346229 211.015029 
L 1008.268543 210.900171 
L 1009.190857 209.560151 
L 1010.113171 206.573822 
L 1011.035486 206.037815 
L 1011.9578 205.808097 
L 1012.880114 204.008643 
L 1013.802428 203.817211 
L 1014.724742 202.974913 
L 1021.18094 195.547377 
L 1027.637138 190.914739 
L 1034.093337 183.716921 
L 1040.549535 177.820836 
L 1047.005733 170.355014 
L 1059.91813 154.581072 
L 1066.374329 144.320352 
L 1072.830527 139.840859 
L 1080.209039 132.757899 
L 1085.742924 127.282963 
L 1092.199122 119.281133 
L 1098.65532 112.427891 
L 1105.111519 106.684951 
L 1111.567717 100.44429 
L 1118.023915 93.208185 
L 1124.480114 87.656676 
L 1137.39251 76.285655 
L 1143.848709 72.150738 
L 1150.304907 65.067779 
L 1156.761105 59.745988 
L 1163.217304 51.246436 
L 1169.673502 46.422366 
L 1176.1297 38.688541 
L 1182.585899 34.859914 
L 1182.585899 34.859914 
" style="fill:none;stroke:#ff7f0e;stroke-linecap:square;stroke-width:3;"/>
   </g>
   <g id="line2d_72">
    <path clip-path="url(#p1c72b95cc4)" d="M 721.428874 586.641598 
L 727.885072 585.186719 
L 734.341271 583.080975 
L 740.797469 580.630654 
L 747.253667 577.682611 
L 753.709866 574.389992 
L 760.166064 571.74824 
L 770.311519 566.694452 
L 776.767717 562.521249 
L 785.068543 558.577764 
L 785.990857 557.582321 
L 786.913171 556.854882 
L 792.447056 554.251416 
L 793.36937 553.600549 
L 795.213998 553.370831 
L 796.136312 552.643392 
L 797.058626 552.222243 
L 797.98094 551.494804 
L 798.903254 550.958797 
L 799.825568 550.00164 
L 801.670196 549.38906 
L 802.59251 548.66162 
L 803.514824 547.666178 
L 804.437138 546.938738 
L 805.359452 546.402731 
L 806.281767 545.598719 
L 807.204081 545.100998 
L 809.048709 544.450131 
L 809.971023 543.684406 
L 811.815651 542.497531 
L 812.737965 541.99981 
L 814.582593 541.655234 
L 815.504907 540.966081 
L 816.427221 539.74092 
L 818.271849 538.362615 
L 820.116477 537.941466 
L 821.038791 537.788321 
L 822.883419 536.678019 
L 823.805733 536.295156 
L 825.650362 535.146568 
L 827.49499 534.916851 
L 828.417304 534.30427 
L 829.339618 533.844835 
L 830.261932 533.07911 
L 833.951188 531.853949 
L 834.873502 531.12651 
L 836.71813 530.284212 
L 838.562758 528.905907 
L 840.407386 528.484758 
L 841.3297 527.757319 
L 842.252014 527.33617 
L 845.018957 525.575001 
L 846.863585 525.268711 
L 847.785899 524.847562 
L 849.630527 523.507543 
L 851.475155 522.741818 
L 853.319783 522.741818 
L 854.242097 521.976092 
L 855.164411 521.363512 
L 857.009039 520.482928 
L 857.931353 519.755489 
L 858.853667 519.602344 
L 861.62061 518.338897 
L 864.387552 516.884019 
L 866.23218 516.386297 
L 867.154494 515.850289 
L 868.076808 515.582286 
L 870.84375 513.935976 
L 874.533006 512.55767 
L 875.45532 512.098235 
L 880.989205 509.877632 
L 882.833833 508.76733 
L 886.523089 507.197593 
L 890.212345 505.512997 
L 892.056973 505.206707 
L 892.979287 504.594127 
L 895.746229 503.522111 
L 896.668543 503.062676 
L 898.513171 502.909531 
L 901.280114 501.454653 
L 903.124742 500.612355 
L 904.047056 500.574069 
L 905.891684 500.267779 
L 909.58094 498.047175 
L 911.425568 497.855744 
L 913.270196 496.898587 
L 914.19251 496.094576 
L 915.114824 495.558568 
L 916.037138 494.869415 
L 916.959452 494.831129 
L 917.881767 494.677984 
L 919.726395 493.682541 
L 922.493337 492.572239 
L 924.337965 492.342521 
L 925.260279 491.806514 
L 926.182593 491.423651 
L 927.104907 490.849357 
L 928.949535 490.007059 
L 929.871849 489.853914 
L 930.794163 489.58591 
L 932.638791 488.36075 
L 933.561105 488.092746 
L 935.405733 486.752726 
L 936.328048 486.71444 
L 937.250362 486.446436 
L 938.172676 485.757283 
L 940.017304 484.991558 
L 940.939618 484.302405 
L 941.861932 483.957829 
L 942.784246 483.766397 
L 943.70656 483.728111 
L 944.628874 483.077245 
L 945.551188 482.579523 
L 946.473502 481.928657 
L 947.395816 481.852084 
L 949.240444 481.316076 
L 950.162758 481.27779 
L 953.852014 479.861198 
L 954.774329 479.554908 
L 955.696643 479.516622 
L 957.541271 478.904042 
L 959.385899 477.48745 
L 961.230527 476.415434 
L 963.075155 475.917713 
L 963.997469 475.381705 
L 964.919783 475.075415 
L 967.686725 473.658823 
L 968.609039 473.543964 
L 972.298295 472.012513 
L 973.22061 471.782796 
L 974.142924 470.902212 
L 975.065238 470.902212 
L 975.987552 470.519349 
L 977.83218 469.17933 
L 979.676808 468.069028 
L 982.44375 467.494734 
L 985.210692 465.924997 
L 987.05532 465.656993 
L 988.899948 465.27413 
L 989.822262 464.470119 
L 991.66689 463.398103 
L 993.511519 462.479233 
L 995.356147 462.40266 
L 996.278461 461.636935 
L 997.200775 461.368931 
L 999.967717 459.875767 
L 1001.812345 459.722622 
L 1002.734659 459.186614 
L 1003.656973 458.038026 
L 1006.423915 456.812865 
L 1007.346229 456.736293 
L 1009.190857 456.085426 
L 1010.113171 455.319701 
L 1011.035486 454.40083 
L 1011.9578 453.941395 
L 1012.880114 453.635105 
L 1013.802428 453.17567 
L 1014.724742 453.099097 
L 1021.18094 449.576761 
L 1027.637138 447.12644 
L 1034.093337 443.642389 
L 1040.549535 440.732633 
L 1066.374329 426.260424 
L 1072.830527 423.42724 
L 1080.209039 419.292323 
L 1085.742924 417.569441 
L 1092.199122 414.927689 
L 1098.65532 410.831058 
L 1105.111519 407.11729 
L 1111.567717 404.054389 
L 1118.023915 400.110903 
L 1137.39251 390.003329 
L 1143.848709 386.863855 
L 1150.304907 384.14553 
L 1156.761105 381.159201 
L 1163.217304 377.943155 
L 1169.673502 375.148257 
L 1176.1297 371.932211 
L 1182.585899 370.171042 
L 1182.585899 370.171042 
" style="fill:none;stroke:#2ca02c;stroke-linecap:square;stroke-width:3;"/>
   </g>
   <g id="patch_6">
    <path d="M 698.371023 594.72 
L 698.371023 7.2 
" style="fill:none;stroke:#000000;stroke-linecap:square;stroke-linejoin:miter;stroke-width:0.8;"/>
   </g>
   <g id="patch_7">
    <path d="M 698.371023 594.72 
L 1205.64375 594.72 
" style="fill:none;stroke:#000000;stroke-linecap:square;stroke-linejoin:miter;stroke-width:0.8;"/>
   </g>
   <g id="legend_1">
    <g id="patch_8">
     <path d="M 708.171023 80.048125 
L 814.299773 80.048125 
Q 817.099773 80.048125 817.099773 77.248125 
L 817.099773 17 
Q 817.099773 14.2 814.299773 14.2 
L 708.171023 14.2 
Q 705.371023 14.2 705.371023 17 
L 705.371023 77.248125 
Q 705.371023 80.048125 708.171023 80.048125 
z
" style="fill:#ffffff;opacity:0.8;stroke:#cccccc;stroke-linejoin:miter;"/>
    </g>
    <g id="line2d_73">
     <path d="M 710.971023 25.537813 
L 738.971023 25.537813 
" style="fill:none;stroke:#1f77b4;stroke-linecap:square;stroke-width:3;"/>
    </g>
    <g id="line2d_74"/>
    <g id="text_37">
     <!-- arXiv -->
     <defs>
      <path d="M 6.296875 72.90625 
L 16.890625 72.90625 
L 35.015625 45.796875 
L 53.21875 72.90625 
L 63.8125 72.90625 
L 40.375 37.890625 
L 65.375 0 
L 54.78125 0 
L 34.28125 31 
L 13.625 0 
L 2.984375 0 
L 29 38.921875 
z
" id="DejaVuSans-88"/>
      <path d="M 2.984375 54.6875 
L 12.5 54.6875 
L 29.59375 8.796875 
L 46.6875 54.6875 
L 56.203125 54.6875 
L 35.6875 0 
L 23.484375 0 
z
" id="DejaVuSans-118"/>
     </defs>
     <g transform="translate(750.171023 30.437813)scale(0.14 -0.14)">
      <use xlink:href="#DejaVuSans-97"/>
      <use x="61.279297" xlink:href="#DejaVuSans-114"/>
      <use x="102.392578" xlink:href="#DejaVuSans-88"/>
      <use x="170.898438" xlink:href="#DejaVuSans-105"/>
      <use x="198.681641" xlink:href="#DejaVuSans-118"/>
     </g>
    </g>
    <g id="line2d_75">
     <path d="M 710.971023 46.087188 
L 738.971023 46.087188 
" style="fill:none;stroke:#ff7f0e;stroke-linecap:square;stroke-width:3;"/>
    </g>
    <g id="line2d_76"/>
    <g id="text_38">
     <!-- medRxiv -->
     <defs>
      <path d="M 45.40625 46.390625 
L 45.40625 75.984375 
L 54.390625 75.984375 
L 54.390625 0 
L 45.40625 0 
L 45.40625 8.203125 
Q 42.578125 3.328125 38.25 0.953125 
Q 33.9375 -1.421875 27.875 -1.421875 
Q 17.96875 -1.421875 11.734375 6.484375 
Q 5.515625 14.40625 5.515625 27.296875 
Q 5.515625 40.1875 11.734375 48.09375 
Q 17.96875 56 27.875 56 
Q 33.9375 56 38.25 53.625 
Q 42.578125 51.265625 45.40625 46.390625 
z
M 14.796875 27.296875 
Q 14.796875 17.390625 18.875 11.75 
Q 22.953125 6.109375 30.078125 6.109375 
Q 37.203125 6.109375 41.296875 11.75 
Q 45.40625 17.390625 45.40625 27.296875 
Q 45.40625 37.203125 41.296875 42.84375 
Q 37.203125 48.484375 30.078125 48.484375 
Q 22.953125 48.484375 18.875 42.84375 
Q 14.796875 37.203125 14.796875 27.296875 
z
" id="DejaVuSans-100"/>
      <path d="M 44.390625 34.1875 
Q 47.5625 33.109375 50.5625 29.59375 
Q 53.5625 26.078125 56.59375 19.921875 
L 66.609375 0 
L 56 0 
L 46.6875 18.703125 
Q 43.0625 26.03125 39.671875 28.421875 
Q 36.28125 30.8125 30.421875 30.8125 
L 19.671875 30.8125 
L 19.671875 0 
L 9.8125 0 
L 9.8125 72.90625 
L 32.078125 72.90625 
Q 44.578125 72.90625 50.734375 67.671875 
Q 56.890625 62.453125 56.890625 51.90625 
Q 56.890625 45.015625 53.6875 40.46875 
Q 50.484375 35.9375 44.390625 34.1875 
z
M 19.671875 64.796875 
L 19.671875 38.921875 
L 32.078125 38.921875 
Q 39.203125 38.921875 42.84375 42.21875 
Q 46.484375 45.515625 46.484375 51.90625 
Q 46.484375 58.296875 42.84375 61.546875 
Q 39.203125 64.796875 32.078125 64.796875 
z
" id="DejaVuSans-82"/>
      <path d="M 54.890625 54.6875 
L 35.109375 28.078125 
L 55.90625 0 
L 45.3125 0 
L 29.390625 21.484375 
L 13.484375 0 
L 2.875 0 
L 24.125 28.609375 
L 4.6875 54.6875 
L 15.28125 54.6875 
L 29.78125 35.203125 
L 44.28125 54.6875 
z
" id="DejaVuSans-120"/>
     </defs>
     <g transform="translate(750.171023 50.987188)scale(0.14 -0.14)">
      <use xlink:href="#DejaVuSans-109"/>
      <use x="97.412109" xlink:href="#DejaVuSans-101"/>
      <use x="158.935547" xlink:href="#DejaVuSans-100"/>
      <use x="222.412109" xlink:href="#DejaVuSans-82"/>
      <use x="291.894531" xlink:href="#DejaVuSans-120"/>
      <use x="351.074219" xlink:href="#DejaVuSans-105"/>
      <use x="378.857422" xlink:href="#DejaVuSans-118"/>
     </g>
    </g>
    <g id="line2d_77">
     <path d="M 710.971023 66.636563 
L 738.971023 66.636563 
" style="fill:none;stroke:#2ca02c;stroke-linecap:square;stroke-width:3;"/>
    </g>
    <g id="line2d_78"/>
    <g id="text_39">
     <!-- bioRxiv -->
     <defs>
      <path d="M 48.6875 27.296875 
Q 48.6875 37.203125 44.609375 42.84375 
Q 40.53125 48.484375 33.40625 48.484375 
Q 26.265625 48.484375 22.1875 42.84375 
Q 18.109375 37.203125 18.109375 27.296875 
Q 18.109375 17.390625 22.1875 11.75 
Q 26.265625 6.109375 33.40625 6.109375 
Q 40.53125 6.109375 44.609375 11.75 
Q 48.6875 17.390625 48.6875 27.296875 
z
M 18.109375 46.390625 
Q 20.953125 51.265625 25.265625 53.625 
Q 29.59375 56 35.59375 56 
Q 45.5625 56 51.78125 48.09375 
Q 58.015625 40.1875 58.015625 27.296875 
Q 58.015625 14.40625 51.78125 6.484375 
Q 45.5625 -1.421875 35.59375 -1.421875 
Q 29.59375 -1.421875 25.265625 0.953125 
Q 20.953125 3.328125 18.109375 8.203125 
L 18.109375 0 
L 9.078125 0 
L 9.078125 75.984375 
L 18.109375 75.984375 
z
" id="DejaVuSans-98"/>
     </defs>
     <g transform="translate(750.171023 71.536563)scale(0.14 -0.14)">
      <use xlink:href="#DejaVuSans-98"/>
      <use x="63.476562" xlink:href="#DejaVuSans-105"/>
      <use x="91.259766" xlink:href="#DejaVuSans-111"/>
      <use x="152.441406" xlink:href="#DejaVuSans-82"/>
      <use x="221.923828" xlink:href="#DejaVuSans-120"/>
      <use x="281.103516" xlink:href="#DejaVuSans-105"/>
      <use x="308.886719" xlink:href="#DejaVuSans-118"/>
     </g>
    </g>
   </g>
  </g>
 </g>
 <defs>
  <clipPath id="pf37249c74f">
   <rect height="587.52" width="507.272727" x="89.64375" y="7.2"/>
  </clipPath>
  <clipPath id="p1c72b95cc4">
   <rect height="587.52" width="507.272727" x="698.371023" y="7.2"/>
  </clipPath>
 </defs>
</svg>
