<?xml version="1.0" encoding="utf-8" standalone="no"?>
<!DOCTYPE svg PUBLIC "-//W3C//DTD SVG 1.1//EN"
  "http://www.w3.org/Graphics/SVG/1.1/DTD/svg11.dtd">
<!-- Created with matplotlib (https://matplotlib.org/) -->
<svg height="686.580176pt" version="1.1" viewBox="0 0 817.475 686.580176" width="817.475pt" xmlns="http://www.w3.org/2000/svg" xmlns:xlink="http://www.w3.org/1999/xlink">
 <defs>
  <style type="text/css">
*{stroke-linecap:butt;stroke-linejoin:round;}
  </style>
 </defs>
 <g id="figure_1">
  <g id="patch_1">
   <path d="M 0 686.580176 
L 817.475 686.580176 
L 817.475 0 
L 0 0 
z
" style="fill:#ffffff;"/>
  </g>
  <g id="axes_1">
   <g id="patch_2">
    <path d="M 140.675 281.659741 
L 810.275 281.659741 
L 810.275 14.605196 
L 140.675 14.605196 
z
" style="fill:#ffffff;"/>
   </g>
   <g id="matplotlib.axis_1">
    <g id="xtick_1">
     <g id="line2d_1">
      <path clip-path="url(#p26d78b539c)" d="M 149.493012 281.659741 
L 149.493012 14.605196 
" style="fill:none;stroke:#d3d3d3;stroke-linecap:square;stroke-width:0.8;"/>
     </g>
     <g id="line2d_2">
      <defs>
       <path d="M 0 0 
L 0 3.5 
" id="me69372d2ac" style="stroke:#000000;stroke-width:0.8;"/>
      </defs>
      <g>
       <use style="stroke:#000000;stroke-width:0.8;" x="149.493012" xlink:href="#me69372d2ac" y="281.659741"/>
      </g>
     </g>
    </g>
    <g id="xtick_2">
     <g id="line2d_3">
      <path clip-path="url(#p26d78b539c)" d="M 218.899299 281.659741 
L 218.899299 14.605196 
" style="fill:none;stroke:#d3d3d3;stroke-linecap:square;stroke-width:0.8;"/>
     </g>
     <g id="line2d_4">
      <g>
       <use style="stroke:#000000;stroke-width:0.8;" x="218.899299" xlink:href="#me69372d2ac" y="281.659741"/>
      </g>
     </g>
    </g>
    <g id="xtick_3">
     <g id="line2d_5">
      <path clip-path="url(#p26d78b539c)" d="M 288.305586 281.659741 
L 288.305586 14.605196 
" style="fill:none;stroke:#d3d3d3;stroke-linecap:square;stroke-width:0.8;"/>
     </g>
     <g id="line2d_6">
      <g>
       <use style="stroke:#000000;stroke-width:0.8;" x="288.305586" xlink:href="#me69372d2ac" y="281.659741"/>
      </g>
     </g>
    </g>
    <g id="xtick_4">
     <g id="line2d_7">
      <path clip-path="url(#p26d78b539c)" d="M 358.849681 281.659741 
L 358.849681 14.605196 
" style="fill:none;stroke:#d3d3d3;stroke-linecap:square;stroke-width:0.8;"/>
     </g>
     <g id="line2d_8">
      <g>
       <use style="stroke:#000000;stroke-width:0.8;" x="358.849681" xlink:href="#me69372d2ac" y="281.659741"/>
      </g>
     </g>
    </g>
    <g id="xtick_5">
     <g id="line2d_9">
      <path clip-path="url(#p26d78b539c)" d="M 428.255969 281.659741 
L 428.255969 14.605196 
" style="fill:none;stroke:#d3d3d3;stroke-linecap:square;stroke-width:0.8;"/>
     </g>
     <g id="line2d_10">
      <g>
       <use style="stroke:#000000;stroke-width:0.8;" x="428.255969" xlink:href="#me69372d2ac" y="281.659741"/>
      </g>
     </g>
    </g>
    <g id="xtick_6">
     <g id="line2d_11">
      <path clip-path="url(#p26d78b539c)" d="M 497.662256 281.659741 
L 497.662256 14.605196 
" style="fill:none;stroke:#d3d3d3;stroke-linecap:square;stroke-width:0.8;"/>
     </g>
     <g id="line2d_12">
      <g>
       <use style="stroke:#000000;stroke-width:0.8;" x="497.662256" xlink:href="#me69372d2ac" y="281.659741"/>
      </g>
     </g>
    </g>
    <g id="xtick_7">
     <g id="line2d_13">
      <path clip-path="url(#p26d78b539c)" d="M 564.792927 281.659741 
L 564.792927 14.605196 
" style="fill:none;stroke:#d3d3d3;stroke-linecap:square;stroke-width:0.8;"/>
     </g>
     <g id="line2d_14">
      <g>
       <use style="stroke:#000000;stroke-width:0.8;" x="564.792927" xlink:href="#me69372d2ac" y="281.659741"/>
      </g>
     </g>
    </g>
    <g id="xtick_8">
     <g id="line2d_15">
      <path clip-path="url(#p26d78b539c)" d="M 634.199214 281.659741 
L 634.199214 14.605196 
" style="fill:none;stroke:#d3d3d3;stroke-linecap:square;stroke-width:0.8;"/>
     </g>
     <g id="line2d_16">
      <g>
       <use style="stroke:#000000;stroke-width:0.8;" x="634.199214" xlink:href="#me69372d2ac" y="281.659741"/>
      </g>
     </g>
    </g>
    <g id="xtick_9">
     <g id="line2d_17">
      <path clip-path="url(#p26d78b539c)" d="M 703.605501 281.659741 
L 703.605501 14.605196 
" style="fill:none;stroke:#d3d3d3;stroke-linecap:square;stroke-width:0.8;"/>
     </g>
     <g id="line2d_18">
      <g>
       <use style="stroke:#000000;stroke-width:0.8;" x="703.605501" xlink:href="#me69372d2ac" y="281.659741"/>
      </g>
     </g>
    </g>
    <g id="xtick_10">
     <g id="line2d_19">
      <path clip-path="url(#p26d78b539c)" d="M 774.149596 281.659741 
L 774.149596 14.605196 
" style="fill:none;stroke:#d3d3d3;stroke-linecap:square;stroke-width:0.8;"/>
     </g>
     <g id="line2d_20">
      <g>
       <use style="stroke:#000000;stroke-width:0.8;" x="774.149596" xlink:href="#me69372d2ac" y="281.659741"/>
      </g>
     </g>
    </g>
   </g>
   <g id="matplotlib.axis_2">
    <g id="ytick_1">
     <g id="line2d_21">
      <path clip-path="url(#p26d78b539c)" d="M 140.675 281.659741 
L 810.275 281.659741 
" style="fill:none;stroke:#d3d3d3;stroke-linecap:square;stroke-width:0.8;"/>
     </g>
     <g id="line2d_22">
      <defs>
       <path d="M 0 0 
L -3.5 0 
" id="m5fe626e8a1" style="stroke:#000000;stroke-width:0.8;"/>
      </defs>
      <g>
       <use style="stroke:#000000;stroke-width:0.8;" x="140.675" xlink:href="#m5fe626e8a1" y="281.659741"/>
      </g>
     </g>
     <g id="text_1">
      <!-- 0 -->
      <defs>
       <path d="M 31.78125 66.40625 
Q 24.171875 66.40625 20.328125 58.90625 
Q 16.5 51.421875 16.5 36.375 
Q 16.5 21.390625 20.328125 13.890625 
Q 24.171875 6.390625 31.78125 6.390625 
Q 39.453125 6.390625 43.28125 13.890625 
Q 47.125 21.390625 47.125 36.375 
Q 47.125 51.421875 43.28125 58.90625 
Q 39.453125 66.40625 31.78125 66.40625 
z
M 31.78125 74.21875 
Q 44.046875 74.21875 50.515625 64.515625 
Q 56.984375 54.828125 56.984375 36.375 
Q 56.984375 17.96875 50.515625 8.265625 
Q 44.046875 -1.421875 31.78125 -1.421875 
Q 19.53125 -1.421875 13.0625 8.265625 
Q 6.59375 17.96875 6.59375 36.375 
Q 6.59375 54.828125 13.0625 64.515625 
Q 19.53125 74.21875 31.78125 74.21875 
z
" id="DejaVuSans-48"/>
      </defs>
      <g transform="translate(118.405 290.777866)scale(0.24 -0.24)">
       <use xlink:href="#DejaVuSans-48"/>
      </g>
     </g>
    </g>
    <g id="ytick_2">
     <g id="line2d_23">
      <path clip-path="url(#p26d78b539c)" d="M 140.675 215.324337 
L 810.275 215.324337 
" style="fill:none;stroke:#d3d3d3;stroke-linecap:square;stroke-width:0.8;"/>
     </g>
     <g id="line2d_24">
      <g>
       <use style="stroke:#000000;stroke-width:0.8;" x="140.675" xlink:href="#m5fe626e8a1" y="215.324337"/>
      </g>
     </g>
     <g id="text_2">
      <!-- 200,000 -->
      <defs>
       <path d="M 19.1875 8.296875 
L 53.609375 8.296875 
L 53.609375 0 
L 7.328125 0 
L 7.328125 8.296875 
Q 12.9375 14.109375 22.625 23.890625 
Q 32.328125 33.6875 34.8125 36.53125 
Q 39.546875 41.84375 41.421875 45.53125 
Q 43.3125 49.21875 43.3125 52.78125 
Q 43.3125 58.59375 39.234375 62.25 
Q 35.15625 65.921875 28.609375 65.921875 
Q 23.96875 65.921875 18.8125 64.3125 
Q 13.671875 62.703125 7.8125 59.421875 
L 7.8125 69.390625 
Q 13.765625 71.78125 18.9375 73 
Q 24.125 74.21875 28.421875 74.21875 
Q 39.75 74.21875 46.484375 68.546875 
Q 53.21875 62.890625 53.21875 53.421875 
Q 53.21875 48.921875 51.53125 44.890625 
Q 49.859375 40.875 45.40625 35.40625 
Q 44.1875 33.984375 37.640625 27.21875 
Q 31.109375 20.453125 19.1875 8.296875 
z
" id="DejaVuSans-50"/>
       <path d="M 11.71875 12.40625 
L 22.015625 12.40625 
L 22.015625 4 
L 14.015625 -11.625 
L 7.71875 -11.625 
L 11.71875 4 
z
" id="DejaVuSans-44"/>
      </defs>
      <g transform="translate(34.4275 224.442462)scale(0.24 -0.24)">
       <use xlink:href="#DejaVuSans-50"/>
       <use x="63.623047" xlink:href="#DejaVuSans-48"/>
       <use x="127.246094" xlink:href="#DejaVuSans-48"/>
       <use x="190.869141" xlink:href="#DejaVuSans-44"/>
       <use x="222.65625" xlink:href="#DejaVuSans-48"/>
       <use x="286.279297" xlink:href="#DejaVuSans-48"/>
       <use x="349.902344" xlink:href="#DejaVuSans-48"/>
      </g>
     </g>
    </g>
    <g id="ytick_3">
     <g id="line2d_25">
      <path clip-path="url(#p26d78b539c)" d="M 140.675 148.988933 
L 810.275 148.988933 
" style="fill:none;stroke:#d3d3d3;stroke-linecap:square;stroke-width:0.8;"/>
     </g>
     <g id="line2d_26">
      <g>
       <use style="stroke:#000000;stroke-width:0.8;" x="140.675" xlink:href="#m5fe626e8a1" y="148.988933"/>
      </g>
     </g>
     <g id="text_3">
      <!-- 400,000 -->
      <defs>
       <path d="M 37.796875 64.3125 
L 12.890625 25.390625 
L 37.796875 25.390625 
z
M 35.203125 72.90625 
L 47.609375 72.90625 
L 47.609375 25.390625 
L 58.015625 25.390625 
L 58.015625 17.1875 
L 47.609375 17.1875 
L 47.609375 0 
L 37.796875 0 
L 37.796875 17.1875 
L 4.890625 17.1875 
L 4.890625 26.703125 
z
" id="DejaVuSans-52"/>
      </defs>
      <g transform="translate(34.4275 158.107058)scale(0.24 -0.24)">
       <use xlink:href="#DejaVuSans-52"/>
       <use x="63.623047" xlink:href="#DejaVuSans-48"/>
       <use x="127.246094" xlink:href="#DejaVuSans-48"/>
       <use x="190.869141" xlink:href="#DejaVuSans-44"/>
       <use x="222.65625" xlink:href="#DejaVuSans-48"/>
       <use x="286.279297" xlink:href="#DejaVuSans-48"/>
       <use x="349.902344" xlink:href="#DejaVuSans-48"/>
      </g>
     </g>
    </g>
    <g id="ytick_4">
     <g id="line2d_27">
      <path clip-path="url(#p26d78b539c)" d="M 140.675 82.653529 
L 810.275 82.653529 
" style="fill:none;stroke:#d3d3d3;stroke-linecap:square;stroke-width:0.8;"/>
     </g>
     <g id="line2d_28">
      <g>
       <use style="stroke:#000000;stroke-width:0.8;" x="140.675" xlink:href="#m5fe626e8a1" y="82.653529"/>
      </g>
     </g>
     <g id="text_4">
      <!-- 600,000 -->
      <defs>
       <path d="M 33.015625 40.375 
Q 26.375 40.375 22.484375 35.828125 
Q 18.609375 31.296875 18.609375 23.390625 
Q 18.609375 15.53125 22.484375 10.953125 
Q 26.375 6.390625 33.015625 6.390625 
Q 39.65625 6.390625 43.53125 10.953125 
Q 47.40625 15.53125 47.40625 23.390625 
Q 47.40625 31.296875 43.53125 35.828125 
Q 39.65625 40.375 33.015625 40.375 
z
M 52.59375 71.296875 
L 52.59375 62.3125 
Q 48.875 64.0625 45.09375 64.984375 
Q 41.3125 65.921875 37.59375 65.921875 
Q 27.828125 65.921875 22.671875 59.328125 
Q 17.53125 52.734375 16.796875 39.40625 
Q 19.671875 43.65625 24.015625 45.921875 
Q 28.375 48.1875 33.59375 48.1875 
Q 44.578125 48.1875 50.953125 41.515625 
Q 57.328125 34.859375 57.328125 23.390625 
Q 57.328125 12.15625 50.6875 5.359375 
Q 44.046875 -1.421875 33.015625 -1.421875 
Q 20.359375 -1.421875 13.671875 8.265625 
Q 6.984375 17.96875 6.984375 36.375 
Q 6.984375 53.65625 15.1875 63.9375 
Q 23.390625 74.21875 37.203125 74.21875 
Q 40.921875 74.21875 44.703125 73.484375 
Q 48.484375 72.75 52.59375 71.296875 
z
" id="DejaVuSans-54"/>
      </defs>
      <g transform="translate(34.4275 91.771654)scale(0.24 -0.24)">
       <use xlink:href="#DejaVuSans-54"/>
       <use x="63.623047" xlink:href="#DejaVuSans-48"/>
       <use x="127.246094" xlink:href="#DejaVuSans-48"/>
       <use x="190.869141" xlink:href="#DejaVuSans-44"/>
       <use x="222.65625" xlink:href="#DejaVuSans-48"/>
       <use x="286.279297" xlink:href="#DejaVuSans-48"/>
       <use x="349.902344" xlink:href="#DejaVuSans-48"/>
      </g>
     </g>
    </g>
    <g id="ytick_5">
     <g id="line2d_29">
      <path clip-path="url(#p26d78b539c)" d="M 140.675 16.318125 
L 810.275 16.318125 
" style="fill:none;stroke:#d3d3d3;stroke-linecap:square;stroke-width:0.8;"/>
     </g>
     <g id="line2d_30">
      <g>
       <use style="stroke:#000000;stroke-width:0.8;" x="140.675" xlink:href="#m5fe626e8a1" y="16.318125"/>
      </g>
     </g>
     <g id="text_5">
      <!-- 800,000 -->
      <defs>
       <path d="M 31.78125 34.625 
Q 24.75 34.625 20.71875 30.859375 
Q 16.703125 27.09375 16.703125 20.515625 
Q 16.703125 13.921875 20.71875 10.15625 
Q 24.75 6.390625 31.78125 6.390625 
Q 38.8125 6.390625 42.859375 10.171875 
Q 46.921875 13.96875 46.921875 20.515625 
Q 46.921875 27.09375 42.890625 30.859375 
Q 38.875 34.625 31.78125 34.625 
z
M 21.921875 38.8125 
Q 15.578125 40.375 12.03125 44.71875 
Q 8.5 49.078125 8.5 55.328125 
Q 8.5 64.0625 14.71875 69.140625 
Q 20.953125 74.21875 31.78125 74.21875 
Q 42.671875 74.21875 48.875 69.140625 
Q 55.078125 64.0625 55.078125 55.328125 
Q 55.078125 49.078125 51.53125 44.71875 
Q 48 40.375 41.703125 38.8125 
Q 48.828125 37.15625 52.796875 32.3125 
Q 56.78125 27.484375 56.78125 20.515625 
Q 56.78125 9.90625 50.3125 4.234375 
Q 43.84375 -1.421875 31.78125 -1.421875 
Q 19.734375 -1.421875 13.25 4.234375 
Q 6.78125 9.90625 6.78125 20.515625 
Q 6.78125 27.484375 10.78125 32.3125 
Q 14.796875 37.15625 21.921875 38.8125 
z
M 18.3125 54.390625 
Q 18.3125 48.734375 21.84375 45.5625 
Q 25.390625 42.390625 31.78125 42.390625 
Q 38.140625 42.390625 41.71875 45.5625 
Q 45.3125 48.734375 45.3125 54.390625 
Q 45.3125 60.0625 41.71875 63.234375 
Q 38.140625 66.40625 31.78125 66.40625 
Q 25.390625 66.40625 21.84375 63.234375 
Q 18.3125 60.0625 18.3125 54.390625 
z
" id="DejaVuSans-56"/>
      </defs>
      <g transform="translate(34.4275 25.43625)scale(0.24 -0.24)">
       <use xlink:href="#DejaVuSans-56"/>
       <use x="63.623047" xlink:href="#DejaVuSans-48"/>
       <use x="127.246094" xlink:href="#DejaVuSans-48"/>
       <use x="190.869141" xlink:href="#DejaVuSans-44"/>
       <use x="222.65625" xlink:href="#DejaVuSans-48"/>
       <use x="286.279297" xlink:href="#DejaVuSans-48"/>
       <use x="349.902344" xlink:href="#DejaVuSans-48"/>
      </g>
     </g>
    </g>
    <g id="text_6">
     <!-- Total manuscripts -->
     <defs>
      <path d="M -0.296875 72.90625 
L 61.375 72.90625 
L 61.375 64.59375 
L 35.5 64.59375 
L 35.5 0 
L 25.59375 0 
L 25.59375 64.59375 
L -0.296875 64.59375 
z
" id="DejaVuSans-84"/>
      <path d="M 30.609375 48.390625 
Q 23.390625 48.390625 19.1875 42.75 
Q 14.984375 37.109375 14.984375 27.296875 
Q 14.984375 17.484375 19.15625 11.84375 
Q 23.34375 6.203125 30.609375 6.203125 
Q 37.796875 6.203125 41.984375 11.859375 
Q 46.1875 17.53125 46.1875 27.296875 
Q 46.1875 37.015625 41.984375 42.703125 
Q 37.796875 48.390625 30.609375 48.390625 
z
M 30.609375 56 
Q 42.328125 56 49.015625 48.375 
Q 55.71875 40.765625 55.71875 27.296875 
Q 55.71875 13.875 49.015625 6.21875 
Q 42.328125 -1.421875 30.609375 -1.421875 
Q 18.84375 -1.421875 12.171875 6.21875 
Q 5.515625 13.875 5.515625 27.296875 
Q 5.515625 40.765625 12.171875 48.375 
Q 18.84375 56 30.609375 56 
z
" id="DejaVuSans-111"/>
      <path d="M 18.3125 70.21875 
L 18.3125 54.6875 
L 36.8125 54.6875 
L 36.8125 47.703125 
L 18.3125 47.703125 
L 18.3125 18.015625 
Q 18.3125 11.328125 20.140625 9.421875 
Q 21.96875 7.515625 27.59375 7.515625 
L 36.8125 7.515625 
L 36.8125 0 
L 27.59375 0 
Q 17.1875 0 13.234375 3.875 
Q 9.28125 7.765625 9.28125 18.015625 
L 9.28125 47.703125 
L 2.6875 47.703125 
L 2.6875 54.6875 
L 9.28125 54.6875 
L 9.28125 70.21875 
z
" id="DejaVuSans-116"/>
      <path d="M 34.28125 27.484375 
Q 23.390625 27.484375 19.1875 25 
Q 14.984375 22.515625 14.984375 16.5 
Q 14.984375 11.71875 18.140625 8.90625 
Q 21.296875 6.109375 26.703125 6.109375 
Q 34.1875 6.109375 38.703125 11.40625 
Q 43.21875 16.703125 43.21875 25.484375 
L 43.21875 27.484375 
z
M 52.203125 31.203125 
L 52.203125 0 
L 43.21875 0 
L 43.21875 8.296875 
Q 40.140625 3.328125 35.546875 0.953125 
Q 30.953125 -1.421875 24.3125 -1.421875 
Q 15.921875 -1.421875 10.953125 3.296875 
Q 6 8.015625 6 15.921875 
Q 6 25.140625 12.171875 29.828125 
Q 18.359375 34.515625 30.609375 34.515625 
L 43.21875 34.515625 
L 43.21875 35.40625 
Q 43.21875 41.609375 39.140625 45 
Q 35.0625 48.390625 27.6875 48.390625 
Q 23 48.390625 18.546875 47.265625 
Q 14.109375 46.140625 10.015625 43.890625 
L 10.015625 52.203125 
Q 14.9375 54.109375 19.578125 55.046875 
Q 24.21875 56 28.609375 56 
Q 40.484375 56 46.34375 49.84375 
Q 52.203125 43.703125 52.203125 31.203125 
z
" id="DejaVuSans-97"/>
      <path d="M 9.421875 75.984375 
L 18.40625 75.984375 
L 18.40625 0 
L 9.421875 0 
z
" id="DejaVuSans-108"/>
      <path id="DejaVuSans-32"/>
      <path d="M 52 44.1875 
Q 55.375 50.25 60.0625 53.125 
Q 64.75 56 71.09375 56 
Q 79.640625 56 84.28125 50.015625 
Q 88.921875 44.046875 88.921875 33.015625 
L 88.921875 0 
L 79.890625 0 
L 79.890625 32.71875 
Q 79.890625 40.578125 77.09375 44.375 
Q 74.3125 48.1875 68.609375 48.1875 
Q 61.625 48.1875 57.5625 43.546875 
Q 53.515625 38.921875 53.515625 30.90625 
L 53.515625 0 
L 44.484375 0 
L 44.484375 32.71875 
Q 44.484375 40.625 41.703125 44.40625 
Q 38.921875 48.1875 33.109375 48.1875 
Q 26.21875 48.1875 22.15625 43.53125 
Q 18.109375 38.875 18.109375 30.90625 
L 18.109375 0 
L 9.078125 0 
L 9.078125 54.6875 
L 18.109375 54.6875 
L 18.109375 46.1875 
Q 21.1875 51.21875 25.484375 53.609375 
Q 29.78125 56 35.6875 56 
Q 41.65625 56 45.828125 52.96875 
Q 50 49.953125 52 44.1875 
z
" id="DejaVuSans-109"/>
      <path d="M 54.890625 33.015625 
L 54.890625 0 
L 45.90625 0 
L 45.90625 32.71875 
Q 45.90625 40.484375 42.875 44.328125 
Q 39.84375 48.1875 33.796875 48.1875 
Q 26.515625 48.1875 22.3125 43.546875 
Q 18.109375 38.921875 18.109375 30.90625 
L 18.109375 0 
L 9.078125 0 
L 9.078125 54.6875 
L 18.109375 54.6875 
L 18.109375 46.1875 
Q 21.34375 51.125 25.703125 53.5625 
Q 30.078125 56 35.796875 56 
Q 45.21875 56 50.046875 50.171875 
Q 54.890625 44.34375 54.890625 33.015625 
z
" id="DejaVuSans-110"/>
      <path d="M 8.5 21.578125 
L 8.5 54.6875 
L 17.484375 54.6875 
L 17.484375 21.921875 
Q 17.484375 14.15625 20.5 10.265625 
Q 23.53125 6.390625 29.59375 6.390625 
Q 36.859375 6.390625 41.078125 11.03125 
Q 45.3125 15.671875 45.3125 23.6875 
L 45.3125 54.6875 
L 54.296875 54.6875 
L 54.296875 0 
L 45.3125 0 
L 45.3125 8.40625 
Q 42.046875 3.421875 37.71875 1 
Q 33.40625 -1.421875 27.6875 -1.421875 
Q 18.265625 -1.421875 13.375 4.4375 
Q 8.5 10.296875 8.5 21.578125 
z
M 31.109375 56 
z
" id="DejaVuSans-117"/>
      <path d="M 44.28125 53.078125 
L 44.28125 44.578125 
Q 40.484375 46.53125 36.375 47.5 
Q 32.28125 48.484375 27.875 48.484375 
Q 21.1875 48.484375 17.84375 46.4375 
Q 14.5 44.390625 14.5 40.28125 
Q 14.5 37.15625 16.890625 35.375 
Q 19.28125 33.59375 26.515625 31.984375 
L 29.59375 31.296875 
Q 39.15625 29.25 43.1875 25.515625 
Q 47.21875 21.78125 47.21875 15.09375 
Q 47.21875 7.46875 41.1875 3.015625 
Q 35.15625 -1.421875 24.609375 -1.421875 
Q 20.21875 -1.421875 15.453125 -0.5625 
Q 10.6875 0.296875 5.421875 2 
L 5.421875 11.28125 
Q 10.40625 8.6875 15.234375 7.390625 
Q 20.0625 6.109375 24.8125 6.109375 
Q 31.15625 6.109375 34.5625 8.28125 
Q 37.984375 10.453125 37.984375 14.40625 
Q 37.984375 18.0625 35.515625 20.015625 
Q 33.0625 21.96875 24.703125 23.78125 
L 21.578125 24.515625 
Q 13.234375 26.265625 9.515625 29.90625 
Q 5.8125 33.546875 5.8125 39.890625 
Q 5.8125 47.609375 11.28125 51.796875 
Q 16.75 56 26.8125 56 
Q 31.78125 56 36.171875 55.265625 
Q 40.578125 54.546875 44.28125 53.078125 
z
" id="DejaVuSans-115"/>
      <path d="M 48.78125 52.59375 
L 48.78125 44.1875 
Q 44.96875 46.296875 41.140625 47.34375 
Q 37.3125 48.390625 33.40625 48.390625 
Q 24.65625 48.390625 19.8125 42.84375 
Q 14.984375 37.3125 14.984375 27.296875 
Q 14.984375 17.28125 19.8125 11.734375 
Q 24.65625 6.203125 33.40625 6.203125 
Q 37.3125 6.203125 41.140625 7.25 
Q 44.96875 8.296875 48.78125 10.40625 
L 48.78125 2.09375 
Q 45.015625 0.34375 40.984375 -0.53125 
Q 36.96875 -1.421875 32.421875 -1.421875 
Q 20.0625 -1.421875 12.78125 6.34375 
Q 5.515625 14.109375 5.515625 27.296875 
Q 5.515625 40.671875 12.859375 48.328125 
Q 20.21875 56 33.015625 56 
Q 37.15625 56 41.109375 55.140625 
Q 45.0625 54.296875 48.78125 52.59375 
z
" id="DejaVuSans-99"/>
      <path d="M 41.109375 46.296875 
Q 39.59375 47.171875 37.8125 47.578125 
Q 36.03125 48 33.890625 48 
Q 26.265625 48 22.1875 43.046875 
Q 18.109375 38.09375 18.109375 28.8125 
L 18.109375 0 
L 9.078125 0 
L 9.078125 54.6875 
L 18.109375 54.6875 
L 18.109375 46.1875 
Q 20.953125 51.171875 25.484375 53.578125 
Q 30.03125 56 36.53125 56 
Q 37.453125 56 38.578125 55.875 
Q 39.703125 55.765625 41.0625 55.515625 
z
" id="DejaVuSans-114"/>
      <path d="M 9.421875 54.6875 
L 18.40625 54.6875 
L 18.40625 0 
L 9.421875 0 
z
M 9.421875 75.984375 
L 18.40625 75.984375 
L 18.40625 64.59375 
L 9.421875 64.59375 
z
" id="DejaVuSans-105"/>
      <path d="M 18.109375 8.203125 
L 18.109375 -20.796875 
L 9.078125 -20.796875 
L 9.078125 54.6875 
L 18.109375 54.6875 
L 18.109375 46.390625 
Q 20.953125 51.265625 25.265625 53.625 
Q 29.59375 56 35.59375 56 
Q 45.5625 56 51.78125 48.09375 
Q 58.015625 40.1875 58.015625 27.296875 
Q 58.015625 14.40625 51.78125 6.484375 
Q 45.5625 -1.421875 35.59375 -1.421875 
Q 29.59375 -1.421875 25.265625 0.953125 
Q 20.953125 3.328125 18.109375 8.203125 
z
M 48.6875 27.296875 
Q 48.6875 37.203125 44.609375 42.84375 
Q 40.53125 48.484375 33.40625 48.484375 
Q 26.265625 48.484375 22.1875 42.84375 
Q 18.109375 37.203125 18.109375 27.296875 
Q 18.109375 17.390625 22.1875 11.75 
Q 26.265625 6.109375 33.40625 6.109375 
Q 40.53125 6.109375 44.609375 11.75 
Q 48.6875 17.390625 48.6875 27.296875 
z
" id="DejaVuSans-112"/>
     </defs>
     <g transform="translate(25.43625 255.920593)rotate(-90)scale(0.24 -0.24)">
      <use xlink:href="#DejaVuSans-84"/>
      <use x="60.818359" xlink:href="#DejaVuSans-111"/>
      <use x="122" xlink:href="#DejaVuSans-116"/>
      <use x="161.208984" xlink:href="#DejaVuSans-97"/>
      <use x="222.488281" xlink:href="#DejaVuSans-108"/>
      <use x="250.271484" xlink:href="#DejaVuSans-32"/>
      <use x="282.058594" xlink:href="#DejaVuSans-109"/>
      <use x="379.470703" xlink:href="#DejaVuSans-97"/>
      <use x="440.75" xlink:href="#DejaVuSans-110"/>
      <use x="504.128906" xlink:href="#DejaVuSans-117"/>
      <use x="567.507812" xlink:href="#DejaVuSans-115"/>
      <use x="619.607422" xlink:href="#DejaVuSans-99"/>
      <use x="674.587891" xlink:href="#DejaVuSans-114"/>
      <use x="715.701172" xlink:href="#DejaVuSans-105"/>
      <use x="743.484375" xlink:href="#DejaVuSans-112"/>
      <use x="806.960938" xlink:href="#DejaVuSans-116"/>
      <use x="846.169922" xlink:href="#DejaVuSans-115"/>
     </g>
    </g>
   </g>
   <g id="line2d_31">
    <path clip-path="url(#p26d78b539c)" d="M 171.111364 266.992983 
L 187.040675 265.972081 
L 195.005331 264.718342 
L 202.969987 264.280529 
L 210.934643 262.632757 
L 231.415187 260.574701 
L 239.379843 239.041897 
L 247.344499 237.146695 
L 248.482307 236.529444 
L 250.757923 235.620649 
L 251.895731 235.536403 
L 254.171347 235.048506 
L 255.309155 234.857128 
L 256.446963 236.833923 
L 257.584771 236.617007 
L 260.998195 236.358299 
L 262.136003 236.08367 
L 263.273811 235.624961 
L 265.549427 235.059451 
L 266.687234 234.96625 
L 270.100658 234.261437 
L 271.238466 233.060766 
L 272.376274 229.455768 
L 274.65189 229.163892 
L 276.927506 228.973841 
L 278.065314 228.940674 
L 279.203122 228.473341 
L 280.34093 228.56422 
L 281.478738 228.072675 
L 282.616546 227.415954 
L 283.754354 227.319436 
L 284.892162 226.113791 
L 286.02997 225.99704 
L 288.305586 225.334018 
L 290.581202 221.907131 
L 291.71901 221.474956 
L 293.994626 221.185733 
L 295.132434 220.91608 
L 296.270242 220.323041 
L 298.545858 219.659687 
L 300.821474 219.325025 
L 303.09709 218.426512 
L 304.234898 218.191685 
L 305.372706 217.80893 
L 313.337362 215.944905 
L 317.888594 215.6255 
L 319.026402 214.61488 
L 320.16421 214.286851 
L 321.302018 214.156171 
L 322.439826 213.724659 
L 325.85325 212.899446 
L 326.991058 212.80525 
L 329.266674 211.873238 
L 330.404482 211.598609 
L 331.54229 211.829456 
L 336.093522 210.942884 
L 337.23133 210.174388 
L 338.369138 209.824137 
L 339.506946 207.147503 
L 340.644754 206.497748 
L 342.92037 206.220466 
L 345.195986 205.409848 
L 346.333794 205.266895 
L 348.60941 204.284799 
L 349.747218 204.200221 
L 350.885025 203.953122 
L 354.298449 202.49706 
L 355.436257 202.388933 
L 358.849681 201.339507 
L 359.987489 200.789587 
L 361.125297 200.379966 
L 366.814337 198.685759 
L 367.952145 198.16569 
L 370.227761 197.594874 
L 373.641185 195.047926 
L 374.778993 194.589548 
L 375.916801 193.409441 
L 377.054609 193.37561 
L 378.192417 192.715905 
L 379.330225 191.797159 
L 380.468033 191.098648 
L 382.743649 190.769292 
L 383.881457 190.359008 
L 385.019265 189.779236 
L 386.157073 188.964306 
L 388.432689 188.118529 
L 392.983921 187.143399 
L 396.397345 186.334107 
L 397.535153 186.191154 
L 399.810769 185.531449 
L 400.948577 184.280031 
L 402.086385 183.966928 
L 403.224193 182.216005 
L 404.362001 181.603729 
L 407.775425 180.71384 
L 408.913233 180.380836 
L 410.051041 179.92478 
L 411.188849 179.716487 
L 412.326657 179.10388 
L 413.464465 179.063747 
L 414.602273 178.563246 
L 415.740081 178.303875 
L 416.877889 177.512825 
L 418.015697 176.86705 
L 420.291313 176.141009 
L 422.566929 175.65079 
L 423.704737 175.351286 
L 424.842545 174.713471 
L 427.118161 171.940651 
L 428.255969 171.391062 
L 430.531585 171.051093 
L 431.669393 170.786083 
L 433.945008 169.144282 
L 436.220624 168.321392 
L 438.49624 167.972799 
L 440.771856 167.007951 
L 441.909664 166.813588 
L 443.047472 164.078911 
L 444.18528 163.73264 
L 445.323088 163.653037 
L 446.460896 163.455358 
L 447.598704 163.028158 
L 449.87432 162.483544 
L 452.149936 161.754187 
L 454.425552 161.429806 
L 457.838976 159.855999 
L 458.976784 159.71968 
L 465.803632 157.759468 
L 466.94144 157.60955 
L 468.079248 157.31668 
L 469.217056 157.249681 
L 472.63048 156.204567 
L 473.768288 155.762109 
L 474.906096 155.631097 
L 476.043904 155.019816 
L 480.595136 152.953468 
L 481.732944 152.276847 
L 484.00856 151.613162 
L 486.284176 151.321286 
L 487.421984 150.743173 
L 488.559792 150.39856 
L 489.6976 150.38463 
L 495.38664 149.857927 
L 496.524448 148.949463 
L 501.07568 148.847307 
L 503.351296 148.519278 
L 504.489104 145.287086 
L 505.626912 144.678458 
L 506.76472 144.338821 
L 507.902528 143.616097 
L 510.178144 143.303326 
L 512.45376 142.407134 
L 514.729376 140.789545 
L 515.867184 140.478432 
L 517.004992 140.432993 
L 518.142799 140.003471 
L 520.418415 139.644265 
L 522.694031 138.646249 
L 523.831839 138.188203 
L 526.107455 137.902297 
L 528.383071 136.129152 
L 529.520879 136.01406 
L 530.658687 135.572929 
L 532.934303 135.346394 
L 540.898959 132.277386 
L 548.863615 128.832589 
L 556.828271 126.593769 
L 564.792927 123.524098 
L 572.757583 121.718117 
L 588.686895 118.838165 
L 596.651551 116.515763 
L 604.616206 108.4716 
L 613.71867 105.986676 
L 620.545518 103.609878 
L 628.510174 101.092781 
L 636.47483 98.26623 
L 644.439486 93.318935 
L 652.404142 89.534169 
L 660.368798 86.646589 
L 668.333454 82.780893 
L 684.262766 65.761882 
L 692.227421 62.918083 
L 700.192077 59.511428 
L 708.156733 55.573427 
L 716.121389 52.378382 
L 724.086045 46.448992 
L 732.050701 43.352456 
L 740.015357 39.617109 
L 747.980013 36.11858 
L 759.358093 33.332824 
L 763.909325 30.131478 
L 771.87398 26.623662 
L 779.838636 32.257528 
L 779.838636 32.257528 
" style="fill:none;stroke:#1f77b4;stroke-linecap:square;stroke-width:5;"/>
   </g>
   <g id="patch_3">
    <path d="M 140.675 281.659741 
L 140.675 14.605196 
" style="fill:none;stroke:#000000;stroke-linecap:square;stroke-linejoin:miter;stroke-width:0.8;"/>
   </g>
   <g id="patch_4">
    <path d="M 140.675 281.659741 
L 810.275 281.659741 
" style="fill:none;stroke:#000000;stroke-linecap:square;stroke-linejoin:miter;stroke-width:0.8;"/>
   </g>
  </g>
  <g id="axes_2">
   <g id="patch_5">
    <path d="M 140.675 602.125196 
L 810.275 602.125196 
L 810.275 335.07065 
L 140.675 335.07065 
z
" style="fill:#ffffff;"/>
   </g>
   <g id="matplotlib.axis_3">
    <g id="xtick_11">
     <g id="line2d_32">
      <path clip-path="url(#p2626b9678d)" d="M 149.493012 602.125196 
L 149.493012 335.07065 
" style="fill:none;stroke:#d3d3d3;stroke-linecap:square;stroke-width:0.8;"/>
     </g>
     <g id="line2d_33">
      <g>
       <use style="stroke:#000000;stroke-width:0.8;" x="149.493012" xlink:href="#me69372d2ac" y="602.125196"/>
      </g>
     </g>
     <g id="text_7">
      <!-- 2020-03 -->
      <defs>
       <path d="M 4.890625 31.390625 
L 31.203125 31.390625 
L 31.203125 23.390625 
L 4.890625 23.390625 
z
" id="DejaVuSans-45"/>
       <path d="M 40.578125 39.3125 
Q 47.65625 37.796875 51.625 33 
Q 55.609375 28.21875 55.609375 21.1875 
Q 55.609375 10.40625 48.1875 4.484375 
Q 40.765625 -1.421875 27.09375 -1.421875 
Q 22.515625 -1.421875 17.65625 -0.515625 
Q 12.796875 0.390625 7.625 2.203125 
L 7.625 11.71875 
Q 11.71875 9.328125 16.59375 8.109375 
Q 21.484375 6.890625 26.8125 6.890625 
Q 36.078125 6.890625 40.9375 10.546875 
Q 45.796875 14.203125 45.796875 21.1875 
Q 45.796875 27.640625 41.28125 31.265625 
Q 36.765625 34.90625 28.71875 34.90625 
L 20.21875 34.90625 
L 20.21875 43.015625 
L 29.109375 43.015625 
Q 36.375 43.015625 40.234375 45.921875 
Q 44.09375 48.828125 44.09375 54.296875 
Q 44.09375 59.90625 40.109375 62.90625 
Q 36.140625 65.921875 28.71875 65.921875 
Q 24.65625 65.921875 20.015625 65.03125 
Q 15.375 64.15625 9.8125 62.3125 
L 9.8125 71.09375 
Q 15.4375 72.65625 20.34375 73.4375 
Q 25.25 74.21875 29.59375 74.21875 
Q 40.828125 74.21875 47.359375 69.109375 
Q 53.90625 64.015625 53.90625 55.328125 
Q 53.90625 49.265625 50.4375 45.09375 
Q 46.96875 40.921875 40.578125 39.3125 
z
" id="DejaVuSans-51"/>
      </defs>
      <g transform="translate(60.153442 675.057626)rotate(-30)scale(0.24 -0.24)">
       <use xlink:href="#DejaVuSans-50"/>
       <use x="63.623047" xlink:href="#DejaVuSans-48"/>
       <use x="127.246094" xlink:href="#DejaVuSans-50"/>
       <use x="190.869141" xlink:href="#DejaVuSans-48"/>
       <use x="254.492188" xlink:href="#DejaVuSans-45"/>
       <use x="290.576172" xlink:href="#DejaVuSans-48"/>
       <use x="354.199219" xlink:href="#DejaVuSans-51"/>
      </g>
     </g>
    </g>
    <g id="xtick_12">
     <g id="line2d_34">
      <path clip-path="url(#p2626b9678d)" d="M 218.899299 602.125196 
L 218.899299 335.07065 
" style="fill:none;stroke:#d3d3d3;stroke-linecap:square;stroke-width:0.8;"/>
     </g>
     <g id="line2d_35">
      <g>
       <use style="stroke:#000000;stroke-width:0.8;" x="218.899299" xlink:href="#me69372d2ac" y="602.125196"/>
      </g>
     </g>
     <g id="text_8">
      <!-- 2020-05 -->
      <defs>
       <path d="M 10.796875 72.90625 
L 49.515625 72.90625 
L 49.515625 64.59375 
L 19.828125 64.59375 
L 19.828125 46.734375 
Q 21.96875 47.46875 24.109375 47.828125 
Q 26.265625 48.1875 28.421875 48.1875 
Q 40.625 48.1875 47.75 41.5 
Q 54.890625 34.8125 54.890625 23.390625 
Q 54.890625 11.625 47.5625 5.09375 
Q 40.234375 -1.421875 26.90625 -1.421875 
Q 22.3125 -1.421875 17.546875 -0.640625 
Q 12.796875 0.140625 7.71875 1.703125 
L 7.71875 11.625 
Q 12.109375 9.234375 16.796875 8.0625 
Q 21.484375 6.890625 26.703125 6.890625 
Q 35.15625 6.890625 40.078125 11.328125 
Q 45.015625 15.765625 45.015625 23.390625 
Q 45.015625 31 40.078125 35.4375 
Q 35.15625 39.890625 26.703125 39.890625 
Q 22.75 39.890625 18.8125 39.015625 
Q 14.890625 38.140625 10.796875 36.28125 
z
" id="DejaVuSans-53"/>
      </defs>
      <g transform="translate(129.559729 675.057626)rotate(-30)scale(0.24 -0.24)">
       <use xlink:href="#DejaVuSans-50"/>
       <use x="63.623047" xlink:href="#DejaVuSans-48"/>
       <use x="127.246094" xlink:href="#DejaVuSans-50"/>
       <use x="190.869141" xlink:href="#DejaVuSans-48"/>
       <use x="254.492188" xlink:href="#DejaVuSans-45"/>
       <use x="290.576172" xlink:href="#DejaVuSans-48"/>
       <use x="354.199219" xlink:href="#DejaVuSans-53"/>
      </g>
     </g>
    </g>
    <g id="xtick_13">
     <g id="line2d_36">
      <path clip-path="url(#p2626b9678d)" d="M 288.305586 602.125196 
L 288.305586 335.07065 
" style="fill:none;stroke:#d3d3d3;stroke-linecap:square;stroke-width:0.8;"/>
     </g>
     <g id="line2d_37">
      <g>
       <use style="stroke:#000000;stroke-width:0.8;" x="288.305586" xlink:href="#me69372d2ac" y="602.125196"/>
      </g>
     </g>
     <g id="text_9">
      <!-- 2020-07 -->
      <defs>
       <path d="M 8.203125 72.90625 
L 55.078125 72.90625 
L 55.078125 68.703125 
L 28.609375 0 
L 18.3125 0 
L 43.21875 64.59375 
L 8.203125 64.59375 
z
" id="DejaVuSans-55"/>
      </defs>
      <g transform="translate(198.966016 675.057626)rotate(-30)scale(0.24 -0.24)">
       <use xlink:href="#DejaVuSans-50"/>
       <use x="63.623047" xlink:href="#DejaVuSans-48"/>
       <use x="127.246094" xlink:href="#DejaVuSans-50"/>
       <use x="190.869141" xlink:href="#DejaVuSans-48"/>
       <use x="254.492188" xlink:href="#DejaVuSans-45"/>
       <use x="290.576172" xlink:href="#DejaVuSans-48"/>
       <use x="354.199219" xlink:href="#DejaVuSans-55"/>
      </g>
     </g>
    </g>
    <g id="xtick_14">
     <g id="line2d_38">
      <path clip-path="url(#p2626b9678d)" d="M 358.849681 602.125196 
L 358.849681 335.07065 
" style="fill:none;stroke:#d3d3d3;stroke-linecap:square;stroke-width:0.8;"/>
     </g>
     <g id="line2d_39">
      <g>
       <use style="stroke:#000000;stroke-width:0.8;" x="358.849681" xlink:href="#me69372d2ac" y="602.125196"/>
      </g>
     </g>
     <g id="text_10">
      <!-- 2020-09 -->
      <defs>
       <path d="M 10.984375 1.515625 
L 10.984375 10.5 
Q 14.703125 8.734375 18.5 7.8125 
Q 22.3125 6.890625 25.984375 6.890625 
Q 35.75 6.890625 40.890625 13.453125 
Q 46.046875 20.015625 46.78125 33.40625 
Q 43.953125 29.203125 39.59375 26.953125 
Q 35.25 24.703125 29.984375 24.703125 
Q 19.046875 24.703125 12.671875 31.3125 
Q 6.296875 37.9375 6.296875 49.421875 
Q 6.296875 60.640625 12.9375 67.421875 
Q 19.578125 74.21875 30.609375 74.21875 
Q 43.265625 74.21875 49.921875 64.515625 
Q 56.59375 54.828125 56.59375 36.375 
Q 56.59375 19.140625 48.40625 8.859375 
Q 40.234375 -1.421875 26.421875 -1.421875 
Q 22.703125 -1.421875 18.890625 -0.6875 
Q 15.09375 0.046875 10.984375 1.515625 
z
M 30.609375 32.421875 
Q 37.25 32.421875 41.125 36.953125 
Q 45.015625 41.5 45.015625 49.421875 
Q 45.015625 57.28125 41.125 61.84375 
Q 37.25 66.40625 30.609375 66.40625 
Q 23.96875 66.40625 20.09375 61.84375 
Q 16.21875 57.28125 16.21875 49.421875 
Q 16.21875 41.5 20.09375 36.953125 
Q 23.96875 32.421875 30.609375 32.421875 
z
" id="DejaVuSans-57"/>
      </defs>
      <g transform="translate(269.510111 675.057626)rotate(-30)scale(0.24 -0.24)">
       <use xlink:href="#DejaVuSans-50"/>
       <use x="63.623047" xlink:href="#DejaVuSans-48"/>
       <use x="127.246094" xlink:href="#DejaVuSans-50"/>
       <use x="190.869141" xlink:href="#DejaVuSans-48"/>
       <use x="254.492188" xlink:href="#DejaVuSans-45"/>
       <use x="290.576172" xlink:href="#DejaVuSans-48"/>
       <use x="354.199219" xlink:href="#DejaVuSans-57"/>
      </g>
     </g>
    </g>
    <g id="xtick_15">
     <g id="line2d_40">
      <path clip-path="url(#p2626b9678d)" d="M 428.255969 602.125196 
L 428.255969 335.07065 
" style="fill:none;stroke:#d3d3d3;stroke-linecap:square;stroke-width:0.8;"/>
     </g>
     <g id="line2d_41">
      <g>
       <use style="stroke:#000000;stroke-width:0.8;" x="428.255969" xlink:href="#me69372d2ac" y="602.125196"/>
      </g>
     </g>
     <g id="text_11">
      <!-- 2020-11 -->
      <defs>
       <path d="M 12.40625 8.296875 
L 28.515625 8.296875 
L 28.515625 63.921875 
L 10.984375 60.40625 
L 10.984375 69.390625 
L 28.421875 72.90625 
L 38.28125 72.90625 
L 38.28125 8.296875 
L 54.390625 8.296875 
L 54.390625 0 
L 12.40625 0 
z
" id="DejaVuSans-49"/>
      </defs>
      <g transform="translate(338.916399 675.057626)rotate(-30)scale(0.24 -0.24)">
       <use xlink:href="#DejaVuSans-50"/>
       <use x="63.623047" xlink:href="#DejaVuSans-48"/>
       <use x="127.246094" xlink:href="#DejaVuSans-50"/>
       <use x="190.869141" xlink:href="#DejaVuSans-48"/>
       <use x="254.492188" xlink:href="#DejaVuSans-45"/>
       <use x="290.576172" xlink:href="#DejaVuSans-49"/>
       <use x="354.199219" xlink:href="#DejaVuSans-49"/>
      </g>
     </g>
    </g>
    <g id="xtick_16">
     <g id="line2d_42">
      <path clip-path="url(#p2626b9678d)" d="M 497.662256 602.125196 
L 497.662256 335.07065 
" style="fill:none;stroke:#d3d3d3;stroke-linecap:square;stroke-width:0.8;"/>
     </g>
     <g id="line2d_43">
      <g>
       <use style="stroke:#000000;stroke-width:0.8;" x="497.662256" xlink:href="#me69372d2ac" y="602.125196"/>
      </g>
     </g>
     <g id="text_12">
      <!-- 2021-01 -->
      <g transform="translate(408.322686 675.057626)rotate(-30)scale(0.24 -0.24)">
       <use xlink:href="#DejaVuSans-50"/>
       <use x="63.623047" xlink:href="#DejaVuSans-48"/>
       <use x="127.246094" xlink:href="#DejaVuSans-50"/>
       <use x="190.869141" xlink:href="#DejaVuSans-49"/>
       <use x="254.492188" xlink:href="#DejaVuSans-45"/>
       <use x="290.576172" xlink:href="#DejaVuSans-48"/>
       <use x="354.199219" xlink:href="#DejaVuSans-49"/>
      </g>
     </g>
    </g>
    <g id="xtick_17">
     <g id="line2d_44">
      <path clip-path="url(#p2626b9678d)" d="M 564.792927 602.125196 
L 564.792927 335.07065 
" style="fill:none;stroke:#d3d3d3;stroke-linecap:square;stroke-width:0.8;"/>
     </g>
     <g id="line2d_45">
      <g>
       <use style="stroke:#000000;stroke-width:0.8;" x="564.792927" xlink:href="#me69372d2ac" y="602.125196"/>
      </g>
     </g>
     <g id="text_13">
      <!-- 2021-03 -->
      <g transform="translate(475.453357 675.057626)rotate(-30)scale(0.24 -0.24)">
       <use xlink:href="#DejaVuSans-50"/>
       <use x="63.623047" xlink:href="#DejaVuSans-48"/>
       <use x="127.246094" xlink:href="#DejaVuSans-50"/>
       <use x="190.869141" xlink:href="#DejaVuSans-49"/>
       <use x="254.492188" xlink:href="#DejaVuSans-45"/>
       <use x="290.576172" xlink:href="#DejaVuSans-48"/>
       <use x="354.199219" xlink:href="#DejaVuSans-51"/>
      </g>
     </g>
    </g>
    <g id="xtick_18">
     <g id="line2d_46">
      <path clip-path="url(#p2626b9678d)" d="M 634.199214 602.125196 
L 634.199214 335.07065 
" style="fill:none;stroke:#d3d3d3;stroke-linecap:square;stroke-width:0.8;"/>
     </g>
     <g id="line2d_47">
      <g>
       <use style="stroke:#000000;stroke-width:0.8;" x="634.199214" xlink:href="#me69372d2ac" y="602.125196"/>
      </g>
     </g>
     <g id="text_14">
      <!-- 2021-05 -->
      <g transform="translate(544.859644 675.057626)rotate(-30)scale(0.24 -0.24)">
       <use xlink:href="#DejaVuSans-50"/>
       <use x="63.623047" xlink:href="#DejaVuSans-48"/>
       <use x="127.246094" xlink:href="#DejaVuSans-50"/>
       <use x="190.869141" xlink:href="#DejaVuSans-49"/>
       <use x="254.492188" xlink:href="#DejaVuSans-45"/>
       <use x="290.576172" xlink:href="#DejaVuSans-48"/>
       <use x="354.199219" xlink:href="#DejaVuSans-53"/>
      </g>
     </g>
    </g>
    <g id="xtick_19">
     <g id="line2d_48">
      <path clip-path="url(#p2626b9678d)" d="M 703.605501 602.125196 
L 703.605501 335.07065 
" style="fill:none;stroke:#d3d3d3;stroke-linecap:square;stroke-width:0.8;"/>
     </g>
     <g id="line2d_49">
      <g>
       <use style="stroke:#000000;stroke-width:0.8;" x="703.605501" xlink:href="#me69372d2ac" y="602.125196"/>
      </g>
     </g>
     <g id="text_15">
      <!-- 2021-07 -->
      <g transform="translate(614.265931 675.057626)rotate(-30)scale(0.24 -0.24)">
       <use xlink:href="#DejaVuSans-50"/>
       <use x="63.623047" xlink:href="#DejaVuSans-48"/>
       <use x="127.246094" xlink:href="#DejaVuSans-50"/>
       <use x="190.869141" xlink:href="#DejaVuSans-49"/>
       <use x="254.492188" xlink:href="#DejaVuSans-45"/>
       <use x="290.576172" xlink:href="#DejaVuSans-48"/>
       <use x="354.199219" xlink:href="#DejaVuSans-55"/>
      </g>
     </g>
    </g>
    <g id="xtick_20">
     <g id="line2d_50">
      <path clip-path="url(#p2626b9678d)" d="M 774.149596 602.125196 
L 774.149596 335.07065 
" style="fill:none;stroke:#d3d3d3;stroke-linecap:square;stroke-width:0.8;"/>
     </g>
     <g id="line2d_51">
      <g>
       <use style="stroke:#000000;stroke-width:0.8;" x="774.149596" xlink:href="#me69372d2ac" y="602.125196"/>
      </g>
     </g>
     <g id="text_16">
      <!-- 2021-09 -->
      <g transform="translate(684.810026 675.057626)rotate(-30)scale(0.24 -0.24)">
       <use xlink:href="#DejaVuSans-50"/>
       <use x="63.623047" xlink:href="#DejaVuSans-48"/>
       <use x="127.246094" xlink:href="#DejaVuSans-50"/>
       <use x="190.869141" xlink:href="#DejaVuSans-49"/>
       <use x="254.492188" xlink:href="#DejaVuSans-45"/>
       <use x="290.576172" xlink:href="#DejaVuSans-48"/>
       <use x="354.199219" xlink:href="#DejaVuSans-57"/>
      </g>
     </g>
    </g>
   </g>
   <g id="matplotlib.axis_4">
    <g id="ytick_6">
     <g id="line2d_52">
      <path clip-path="url(#p2626b9678d)" d="M 140.675 602.125196 
L 810.275 602.125196 
" style="fill:none;stroke:#d3d3d3;stroke-linecap:square;stroke-width:0.8;"/>
     </g>
     <g id="line2d_53">
      <g>
       <use style="stroke:#000000;stroke-width:0.8;" x="140.675" xlink:href="#m5fe626e8a1" y="602.125196"/>
      </g>
     </g>
     <g id="text_17">
      <!-- 0 -->
      <g transform="translate(118.405 611.243321)scale(0.24 -0.24)">
       <use xlink:href="#DejaVuSans-48"/>
      </g>
     </g>
    </g>
    <g id="ytick_7">
     <g id="line2d_54">
      <path clip-path="url(#p2626b9678d)" d="M 140.675 518.711314 
L 810.275 518.711314 
" style="fill:none;stroke:#d3d3d3;stroke-linecap:square;stroke-width:0.8;"/>
     </g>
     <g id="line2d_55">
      <g>
       <use style="stroke:#000000;stroke-width:0.8;" x="140.675" xlink:href="#m5fe626e8a1" y="518.711314"/>
      </g>
     </g>
     <g id="text_18">
      <!-- 5,000 -->
      <g transform="translate(64.9675 527.829439)scale(0.24 -0.24)">
       <use xlink:href="#DejaVuSans-53"/>
       <use x="63.623047" xlink:href="#DejaVuSans-44"/>
       <use x="95.410156" xlink:href="#DejaVuSans-48"/>
       <use x="159.033203" xlink:href="#DejaVuSans-48"/>
       <use x="222.65625" xlink:href="#DejaVuSans-48"/>
      </g>
     </g>
    </g>
    <g id="ytick_8">
     <g id="line2d_56">
      <path clip-path="url(#p2626b9678d)" d="M 140.675 435.297433 
L 810.275 435.297433 
" style="fill:none;stroke:#d3d3d3;stroke-linecap:square;stroke-width:0.8;"/>
     </g>
     <g id="line2d_57">
      <g>
       <use style="stroke:#000000;stroke-width:0.8;" x="140.675" xlink:href="#m5fe626e8a1" y="435.297433"/>
      </g>
     </g>
     <g id="text_19">
      <!-- 10,000 -->
      <g transform="translate(49.6975 444.415558)scale(0.24 -0.24)">
       <use xlink:href="#DejaVuSans-49"/>
       <use x="63.623047" xlink:href="#DejaVuSans-48"/>
       <use x="127.246094" xlink:href="#DejaVuSans-44"/>
       <use x="159.033203" xlink:href="#DejaVuSans-48"/>
       <use x="222.65625" xlink:href="#DejaVuSans-48"/>
       <use x="286.279297" xlink:href="#DejaVuSans-48"/>
      </g>
     </g>
    </g>
    <g id="ytick_9">
     <g id="line2d_58">
      <path clip-path="url(#p2626b9678d)" d="M 140.675 351.883552 
L 810.275 351.883552 
" style="fill:none;stroke:#d3d3d3;stroke-linecap:square;stroke-width:0.8;"/>
     </g>
     <g id="line2d_59">
      <g>
       <use style="stroke:#000000;stroke-width:0.8;" x="140.675" xlink:href="#m5fe626e8a1" y="351.883552"/>
      </g>
     </g>
     <g id="text_20">
      <!-- 15,000 -->
      <g transform="translate(49.6975 361.001677)scale(0.24 -0.24)">
       <use xlink:href="#DejaVuSans-49"/>
       <use x="63.623047" xlink:href="#DejaVuSans-53"/>
       <use x="127.246094" xlink:href="#DejaVuSans-44"/>
       <use x="159.033203" xlink:href="#DejaVuSans-48"/>
       <use x="222.65625" xlink:href="#DejaVuSans-48"/>
       <use x="286.279297" xlink:href="#DejaVuSans-48"/>
      </g>
     </g>
    </g>
    <g id="text_21">
     <!-- Preprints -->
     <defs>
      <path d="M 19.671875 64.796875 
L 19.671875 37.40625 
L 32.078125 37.40625 
Q 38.96875 37.40625 42.71875 40.96875 
Q 46.484375 44.53125 46.484375 51.125 
Q 46.484375 57.671875 42.71875 61.234375 
Q 38.96875 64.796875 32.078125 64.796875 
z
M 9.8125 72.90625 
L 32.078125 72.90625 
Q 44.34375 72.90625 50.609375 67.359375 
Q 56.890625 61.8125 56.890625 51.125 
Q 56.890625 40.328125 50.609375 34.8125 
Q 44.34375 29.296875 32.078125 29.296875 
L 19.671875 29.296875 
L 19.671875 0 
L 9.8125 0 
z
" id="DejaVuSans-80"/>
      <path d="M 56.203125 29.59375 
L 56.203125 25.203125 
L 14.890625 25.203125 
Q 15.484375 15.921875 20.484375 11.0625 
Q 25.484375 6.203125 34.421875 6.203125 
Q 39.59375 6.203125 44.453125 7.46875 
Q 49.3125 8.734375 54.109375 11.28125 
L 54.109375 2.78125 
Q 49.265625 0.734375 44.1875 -0.34375 
Q 39.109375 -1.421875 33.890625 -1.421875 
Q 20.796875 -1.421875 13.15625 6.1875 
Q 5.515625 13.8125 5.515625 26.8125 
Q 5.515625 40.234375 12.765625 48.109375 
Q 20.015625 56 32.328125 56 
Q 43.359375 56 49.78125 48.890625 
Q 56.203125 41.796875 56.203125 29.59375 
z
M 47.21875 32.234375 
Q 47.125 39.59375 43.09375 43.984375 
Q 39.0625 48.390625 32.421875 48.390625 
Q 24.90625 48.390625 20.390625 44.140625 
Q 15.875 39.890625 15.1875 32.171875 
z
" id="DejaVuSans-101"/>
     </defs>
     <g transform="translate(40.70625 522.590423)rotate(-90)scale(0.24 -0.24)">
      <use xlink:href="#DejaVuSans-80"/>
      <use x="60.287109" xlink:href="#DejaVuSans-114"/>
      <use x="101.369141" xlink:href="#DejaVuSans-101"/>
      <use x="162.892578" xlink:href="#DejaVuSans-112"/>
      <use x="226.369141" xlink:href="#DejaVuSans-114"/>
      <use x="267.482422" xlink:href="#DejaVuSans-105"/>
      <use x="295.265625" xlink:href="#DejaVuSans-110"/>
      <use x="358.644531" xlink:href="#DejaVuSans-116"/>
      <use x="397.853516" xlink:href="#DejaVuSans-115"/>
     </g>
    </g>
   </g>
   <g id="line2d_60">
    <path clip-path="url(#p2626b9678d)" d="M 171.111364 599.155661 
L 179.07602 597.504067 
L 187.040675 595.41872 
L 195.005331 592.999717 
L 210.934643 588.845706 
L 218.899299 586.159779 
L 231.415187 582.873272 
L 239.379843 580.320807 
L 251.895731 576.717327 
L 254.171347 576.400355 
L 255.309155 575.916554 
L 260.998195 574.348373 
L 262.136003 574.14818 
L 263.273811 573.647697 
L 267.825042 572.079516 
L 270.100658 571.812591 
L 272.376274 570.861673 
L 273.514082 570.611431 
L 275.789698 569.877389 
L 278.065314 569.64383 
L 279.203122 569.360223 
L 280.34093 568.826374 
L 284.892162 567.65858 
L 287.167778 567.258193 
L 288.305586 566.991269 
L 291.71901 565.956937 
L 293.994626 565.506502 
L 296.270242 564.689046 
L 297.40805 564.271976 
L 301.959282 563.421155 
L 303.09709 563.237644 
L 305.372706 562.470236 
L 309.923938 561.435904 
L 312.199554 560.751911 
L 315.612978 559.717578 
L 317.888594 559.333875 
L 322.439826 557.782376 
L 323.577634 557.365307 
L 325.85325 556.931555 
L 330.404482 555.530202 
L 331.54229 555.229912 
L 333.817906 555.079767 
L 336.093522 554.412456 
L 339.506946 553.461537 
L 344.058178 552.644081 
L 346.333794 552.076867 
L 347.471602 551.726529 
L 349.747218 551.509653 
L 353.160641 550.608783 
L 355.436257 549.841375 
L 359.987489 549.073967 
L 361.125297 548.890457 
L 367.952145 547.355641 
L 370.227761 546.588234 
L 377.054609 545.353708 
L 378.192417 544.970004 
L 379.330225 544.719763 
L 381.605841 544.469521 
L 383.881457 543.735479 
L 385.019265 543.351775 
L 389.570497 542.517636 
L 395.259537 541.249745 
L 397.535153 540.999503 
L 403.224193 539.231129 
L 405.499809 538.81406 
L 407.775425 538.21348 
L 408.913233 538.046652 
L 410.051041 537.6129 
L 414.602273 536.71203 
L 415.740081 536.228229 
L 418.015697 535.594284 
L 419.153505 535.21058 
L 421.429121 534.876925 
L 422.566929 534.493221 
L 423.704737 533.976055 
L 428.255969 532.541336 
L 429.393777 532.357825 
L 430.531585 531.974122 
L 432.807201 531.540369 
L 436.220624 530.722913 
L 437.358432 530.539403 
L 441.909664 529.421657 
L 444.18528 528.971222 
L 445.323088 528.83776 
L 448.736512 527.870159 
L 449.87432 527.603234 
L 452.149936 527.236213 
L 453.287744 527.186165 
L 454.425552 526.702364 
L 457.838976 525.901591 
L 460.114592 525.601301 
L 465.803632 524.116534 
L 466.94144 523.782878 
L 469.217056 523.54932 
L 472.63048 522.281429 
L 474.906096 521.664166 
L 476.043904 521.497338 
L 484.00856 519.678915 
L 485.146368 519.612184 
L 486.284176 519.311894 
L 487.421984 518.778046 
L 489.6976 518.110734 
L 493.111024 517.727031 
L 494.248832 517.460106 
L 496.524448 517.05972 
L 497.662256 516.75943 
L 501.07568 516.34236 
L 504.489104 515.391442 
L 509.040336 514.607351 
L 512.45376 513.45624 
L 514.729376 512.922391 
L 517.004992 512.638784 
L 518.142799 512.355177 
L 519.280607 511.821328 
L 520.418415 511.437624 
L 524.969647 510.720265 
L 527.245263 510.052954 
L 528.383071 509.85276 
L 529.520879 509.335594 
L 530.658687 509.035304 
L 532.934303 508.684966 
L 540.898959 506.683033 
L 548.863615 504.430858 
L 564.792927 500.443674 
L 572.757583 498.158134 
L 588.686895 494.404509 
L 604.616206 490.884444 
L 628.510174 484.711816 
L 644.439486 481.141702 
L 652.404142 479.256549 
L 668.333454 474.969075 
L 684.262766 470.097704 
L 700.192077 465.793548 
L 708.156733 463.858346 
L 716.121389 462.190069 
L 724.086045 460.254866 
L 732.050701 458.519858 
L 740.015357 456.601338 
L 747.980013 454.415895 
L 759.358093 451.830064 
L 763.909325 450.36198 
L 771.87398 448.576923 
L 779.838636 447.292349 
L 779.838636 447.292349 
" style="fill:none;stroke:#1f77b4;stroke-linecap:square;stroke-width:5;"/>
   </g>
   <g id="line2d_61">
    <path clip-path="url(#p2626b9678d)" d="M 171.111364 592.399137 
L 179.07602 589.763258 
L 187.040675 585.492468 
L 195.005331 581.83894 
L 202.969987 577.084348 
L 210.934643 571.245377 
L 218.899299 566.057033 
L 231.415187 555.630298 
L 239.379843 550.458638 
L 247.344499 544.352742 
L 248.482307 541.616766 
L 249.620115 540.982821 
L 250.757923 540.732579 
L 251.895731 539.698247 
L 253.033539 538.897474 
L 254.171347 538.880791 
L 255.309155 538.51377 
L 256.446963 537.179148 
L 257.584771 536.161498 
L 258.722579 535.761112 
L 259.860387 534.259662 
L 260.998195 534.192931 
L 263.273811 533.058502 
L 264.411619 531.857342 
L 265.549427 531.823977 
L 266.687234 531.340176 
L 267.825042 529.471705 
L 268.96285 529.254829 
L 270.100658 528.771028 
L 271.238466 528.72098 
L 272.376274 527.503138 
L 273.514082 526.91924 
L 274.65189 526.518854 
L 276.927506 524.717114 
L 278.065314 524.683748 
L 279.203122 524.133217 
L 280.34093 522.998788 
L 281.478738 522.498305 
L 282.616546 522.34816 
L 283.754354 521.363876 
L 284.892162 521.347193 
L 286.02997 520.880075 
L 287.167778 519.812378 
L 288.305586 519.462039 
L 291.71901 518.077369 
L 292.856818 517.343327 
L 293.994626 517.176499 
L 295.132434 516.726064 
L 296.270242 515.85856 
L 297.40805 515.341394 
L 298.545858 515.157883 
L 299.683666 514.607351 
L 300.821474 513.606385 
L 303.09709 513.556337 
L 304.234898 512.488639 
L 305.372706 511.971473 
L 309.923938 509.619201 
L 311.061746 509.318911 
L 312.199554 508.785063 
L 313.337362 508.484773 
L 314.47517 508.418041 
L 315.612978 507.116785 
L 317.888594 505.915625 
L 319.026402 505.448507 
L 320.16421 505.114852 
L 321.302018 504.097202 
L 322.439826 503.413209 
L 323.577634 503.196333 
L 324.715442 502.662484 
L 325.85325 502.395559 
L 326.991058 502.378876 
L 328.128866 500.660551 
L 329.266674 500.593819 
L 331.54229 499.192466 
L 334.955714 499.142418 
L 336.093522 498.274914 
L 338.369138 497.507506 
L 339.506946 496.056104 
L 340.644754 495.588987 
L 342.92037 494.955041 
L 344.058178 494.571337 
L 346.333794 494.304413 
L 348.60941 492.752915 
L 349.747218 492.536039 
L 350.885025 492.118969 
L 352.022833 491.434975 
L 353.160641 490.98454 
L 355.436257 490.917809 
L 358.849681 490.167084 
L 359.987489 488.699 
L 361.125297 487.547888 
L 367.952145 485.329079 
L 370.227761 484.027823 
L 375.916801 481.992524 
L 378.192417 481.859062 
L 379.330225 479.873811 
L 381.605841 479.740349 
L 382.743649 479.62357 
L 383.881457 479.073038 
L 385.019265 477.971975 
L 386.157073 477.805147 
L 387.294881 477.021057 
L 388.432689 477.021057 
L 389.570497 476.654036 
L 392.983921 474.985758 
L 395.259537 474.552006 
L 396.397345 474.552006 
L 397.535153 474.251716 
L 398.672961 473.751232 
L 399.810769 473.083921 
L 402.086385 472.800314 
L 403.224193 472.650169 
L 404.362001 472.650169 
L 405.499809 472.483341 
L 407.775425 471.549106 
L 408.913233 470.631553 
L 411.188849 470.214484 
L 412.326657 470.214484 
L 413.464465 469.964242 
L 414.602273 469.947559 
L 415.740081 469.030007 
L 416.877889 468.346013 
L 418.015697 468.245916 
L 419.153505 467.645336 
L 420.291313 467.645336 
L 421.429121 467.478509 
L 422.566929 467.178219 
L 423.704737 465.643403 
L 424.842545 465.526624 
L 428.255969 465.059506 
L 429.393777 464.892678 
L 430.531585 464.84263 
L 431.669393 463.891712 
L 432.807201 462.573772 
L 433.945008 462.323531 
L 435.082816 461.789682 
L 436.220624 461.456026 
L 437.358432 461.422661 
L 440.771856 460.838764 
L 441.909664 460.204818 
L 443.047472 459.404045 
L 444.18528 459.387362 
L 445.323088 459.237217 
L 446.460896 458.453127 
L 447.598704 458.319664 
L 448.736512 457.385429 
L 449.87432 457.235284 
L 453.287744 456.634704 
L 454.425552 456.034124 
L 457.838976 455.383496 
L 460.114592 454.732868 
L 462.390208 453.164687 
L 464.665824 452.564107 
L 465.803632 452.130354 
L 466.94144 451.296216 
L 469.217056 451.26285 
L 470.354864 450.545491 
L 472.63048 449.911545 
L 473.768288 449.894862 
L 474.906096 448.743751 
L 476.043904 448.710385 
L 480.595136 447.142204 
L 481.732944 446.942011 
L 484.00856 446.074507 
L 485.146368 445.890996 
L 486.284176 445.874313 
L 487.421984 444.58974 
L 488.559792 444.406229 
L 489.6976 443.805649 
L 493.111024 443.338531 
L 495.38664 443.288483 
L 496.524448 443.071607 
L 497.662256 443.054924 
L 499.937872 442.521075 
L 501.07568 442.504393 
L 502.213488 441.336598 
L 503.351296 441.069674 
L 504.489104 440.469094 
L 505.626912 440.435728 
L 506.76472 439.735052 
L 507.902528 439.401396 
L 509.040336 439.368031 
L 510.178144 439.167837 
L 511.315952 438.850865 
L 512.45376 438.317016 
L 513.591568 438.266967 
L 514.729376 436.882297 
L 517.004992 436.748835 
L 519.280607 436.698786 
L 520.418415 435.364164 
L 521.556223 435.28075 
L 522.694031 434.846998 
L 524.969647 434.79695 
L 526.107455 434.213053 
L 527.245263 432.895113 
L 528.383071 432.661555 
L 529.520879 432.561458 
L 530.658687 431.777367 
L 531.796495 431.693954 
L 532.934303 431.326932 
L 540.898959 428.090474 
L 548.863615 426.055175 
L 556.828271 422.918813 
L 564.792927 420.349666 
L 572.757583 417.113207 
L 588.686895 410.239903 
L 596.651551 405.768919 
L 604.616206 403.817034 
L 620.545518 398.345084 
L 628.510174 394.858384 
L 636.47483 391.888849 
L 644.439486 389.386433 
L 652.404142 386.667141 
L 660.368798 383.514096 
L 668.333454 381.095093 
L 684.262766 376.123626 
L 692.227421 374.321886 
L 700.192077 371.235572 
L 708.156733 368.933349 
L 716.121389 365.229773 
L 724.086045 363.144426 
L 732.050701 359.474215 
L 740.015357 357.205358 
L 747.980013 355.05328 
L 759.358093 352.317304 
L 763.909325 351.583262 
L 771.87398 349.097528 
L 779.838636 347.646127 
L 779.838636 347.646127 
" style="fill:none;stroke:#ff7f0e;stroke-linecap:square;stroke-width:5;"/>
   </g>
   <g id="line2d_62">
    <path clip-path="url(#p2626b9678d)" d="M 171.111364 598.588447 
L 179.07602 597.954502 
L 187.040675 597.036949 
L 195.005331 595.969251 
L 202.969987 594.684677 
L 210.934643 593.249959 
L 218.899299 592.098847 
L 231.415187 589.896721 
L 239.379843 588.078298 
L 249.620115 586.359972 
L 251.895731 585.609247 
L 258.722579 584.474818 
L 259.860387 584.191211 
L 262.136003 584.091115 
L 263.273811 583.774142 
L 264.411619 583.590631 
L 268.96285 582.489568 
L 270.100658 582.372789 
L 271.238466 582.055816 
L 273.514082 581.305091 
L 274.65189 581.071532 
L 275.789698 580.721194 
L 278.065314 580.387538 
L 279.203122 580.22071 
L 281.478738 579.62013 
L 283.754354 579.153013 
L 286.02997 579.002868 
L 287.167778 578.702578 
L 288.305586 578.168729 
L 290.581202 577.568149 
L 293.994626 577.317907 
L 296.270242 576.834107 
L 298.545858 576.43372 
L 299.683666 576.166796 
L 301.959282 576.066699 
L 305.372706 575.265926 
L 309.923938 574.74876 
L 311.061746 574.431787 
L 314.47517 573.781159 
L 315.612978 573.464186 
L 317.888594 573.280675 
L 319.026402 572.963703 
L 321.302018 572.529951 
L 323.577634 572.012785 
L 325.85325 571.879322 
L 328.128866 571.412205 
L 329.266674 571.111915 
L 331.54229 570.761576 
L 333.817906 570.761576 
L 336.093522 570.160996 
L 341.782562 569.226761 
L 344.058178 568.843057 
L 347.471602 568.209112 
L 349.747218 567.992235 
L 350.885025 567.758677 
L 353.160641 567.425021 
L 355.436257 566.941221 
L 361.125297 566.140447 
L 367.952145 565.172846 
L 370.227761 564.705729 
L 377.054609 563.671396 
L 379.330225 563.287693 
L 381.605841 563.170913 
L 382.743649 562.903989 
L 388.432689 562.203312 
L 389.570497 562.169947 
L 395.259537 561.185663 
L 398.672961 561.035518 
L 403.224193 560.084599 
L 405.499809 560.001186 
L 407.775425 559.600799 
L 408.913233 559.250461 
L 411.188849 558.716612 
L 413.464465 558.616515 
L 415.740081 558.182763 
L 420.291313 557.665597 
L 421.429121 557.615549 
L 427.118161 556.597899 
L 429.393777 556.414389 
L 431.669393 555.88054 
L 432.807201 555.76376 
L 435.082816 555.179863 
L 437.358432 555.063084 
L 438.49624 554.762794 
L 440.771856 554.445821 
L 441.909664 554.162214 
L 444.18528 553.928655 
L 445.323088 553.911972 
L 448.736512 553.144565 
L 449.87432 553.111199 
L 462.390208 551.826625 
L 465.803632 550.942438 
L 466.94144 550.708879 
L 469.217056 550.492003 
L 471.492672 550.124982 
L 474.906096 549.507719 
L 476.043904 549.457671 
L 481.732944 548.673581 
L 482.870752 548.289877 
L 484.00856 548.289877 
L 485.146368 548.123049 
L 488.559792 547.322276 
L 489.6976 547.1054 
L 493.111024 546.855158 
L 496.524448 546.187847 
L 501.07568 545.920922 
L 503.351296 545.320343 
L 506.76472 544.70308 
L 509.040336 544.669714 
L 510.178144 544.319376 
L 511.315952 544.202597 
L 514.729376 543.568651 
L 517.004992 543.50192 
L 518.142799 543.268361 
L 519.280607 542.801243 
L 522.694031 542.267394 
L 524.969647 542.100567 
L 526.107455 541.950422 
L 529.520879 541.032869 
L 532.934303 540.665848 
L 540.898959 539.131033 
L 548.863615 538.0967 
L 556.828271 536.578568 
L 564.792927 535.310677 
L 596.651551 529.071318 
L 604.616206 527.853476 
L 613.71867 526.13515 
L 620.545518 525.401108 
L 628.510174 524.266679 
L 636.47483 522.53167 
L 644.439486 520.946806 
L 652.404142 519.64555 
L 660.368798 517.927224 
L 684.262766 513.63975 
L 692.227421 512.305128 
L 708.156733 509.952857 
L 716.121389 508.634918 
L 724.086045 507.483806 
L 732.050701 506.182549 
L 740.015357 505.081486 
L 747.980013 503.680133 
L 759.358093 501.56142 
L 771.87398 499.676267 
L 779.838636 498.842128 
L 779.838636 498.842128 
" style="fill:none;stroke:#2ca02c;stroke-linecap:square;stroke-width:5;"/>
   </g>
   <g id="patch_6">
    <path d="M 140.675 602.125196 
L 140.675 335.07065 
" style="fill:none;stroke:#000000;stroke-linecap:square;stroke-linejoin:miter;stroke-width:0.8;"/>
   </g>
   <g id="patch_7">
    <path d="M 140.675 602.125196 
L 810.275 602.125196 
" style="fill:none;stroke:#000000;stroke-linecap:square;stroke-linejoin:miter;stroke-width:0.8;"/>
   </g>
   <g id="legend_1">
    <g id="patch_8">
     <path d="M 157.475 459.95315 
L 339.41 459.95315 
Q 344.21 459.95315 344.21 455.15315 
L 344.21 351.87065 
Q 344.21 347.07065 339.41 347.07065 
L 157.475 347.07065 
Q 152.675 347.07065 152.675 351.87065 
L 152.675 455.15315 
Q 152.675 459.95315 157.475 459.95315 
z
" style="fill:#ffffff;opacity:0.8;stroke:#cccccc;stroke-linejoin:miter;"/>
    </g>
    <g id="line2d_63">
     <path d="M 162.275 366.5069 
L 210.275 366.5069 
" style="fill:none;stroke:#1f77b4;stroke-linecap:square;stroke-width:5;"/>
    </g>
    <g id="line2d_64"/>
    <g id="text_22">
     <!-- arXiv -->
     <defs>
      <path d="M 6.296875 72.90625 
L 16.890625 72.90625 
L 35.015625 45.796875 
L 53.21875 72.90625 
L 63.8125 72.90625 
L 40.375 37.890625 
L 65.375 0 
L 54.78125 0 
L 34.28125 31 
L 13.625 0 
L 2.984375 0 
L 29 38.921875 
z
" id="DejaVuSans-88"/>
      <path d="M 2.984375 54.6875 
L 12.5 54.6875 
L 29.59375 8.796875 
L 46.6875 54.6875 
L 56.203125 54.6875 
L 35.6875 0 
L 23.484375 0 
z
" id="DejaVuSans-118"/>
     </defs>
     <g transform="translate(229.475 374.9069)scale(0.24 -0.24)">
      <use xlink:href="#DejaVuSans-97"/>
      <use x="61.279297" xlink:href="#DejaVuSans-114"/>
      <use x="102.392578" xlink:href="#DejaVuSans-88"/>
      <use x="170.898438" xlink:href="#DejaVuSans-105"/>
      <use x="198.681641" xlink:href="#DejaVuSans-118"/>
     </g>
    </g>
    <g id="line2d_65">
     <path d="M 162.275 401.7344 
L 210.275 401.7344 
" style="fill:none;stroke:#ff7f0e;stroke-linecap:square;stroke-width:5;"/>
    </g>
    <g id="line2d_66"/>
    <g id="text_23">
     <!-- medRxiv -->
     <defs>
      <path d="M 45.40625 46.390625 
L 45.40625 75.984375 
L 54.390625 75.984375 
L 54.390625 0 
L 45.40625 0 
L 45.40625 8.203125 
Q 42.578125 3.328125 38.25 0.953125 
Q 33.9375 -1.421875 27.875 -1.421875 
Q 17.96875 -1.421875 11.734375 6.484375 
Q 5.515625 14.40625 5.515625 27.296875 
Q 5.515625 40.1875 11.734375 48.09375 
Q 17.96875 56 27.875 56 
Q 33.9375 56 38.25 53.625 
Q 42.578125 51.265625 45.40625 46.390625 
z
M 14.796875 27.296875 
Q 14.796875 17.390625 18.875 11.75 
Q 22.953125 6.109375 30.078125 6.109375 
Q 37.203125 6.109375 41.296875 11.75 
Q 45.40625 17.390625 45.40625 27.296875 
Q 45.40625 37.203125 41.296875 42.84375 
Q 37.203125 48.484375 30.078125 48.484375 
Q 22.953125 48.484375 18.875 42.84375 
Q 14.796875 37.203125 14.796875 27.296875 
z
" id="DejaVuSans-100"/>
      <path d="M 44.390625 34.1875 
Q 47.5625 33.109375 50.5625 29.59375 
Q 53.5625 26.078125 56.59375 19.921875 
L 66.609375 0 
L 56 0 
L 46.6875 18.703125 
Q 43.0625 26.03125 39.671875 28.421875 
Q 36.28125 30.8125 30.421875 30.8125 
L 19.671875 30.8125 
L 19.671875 0 
L 9.8125 0 
L 9.8125 72.90625 
L 32.078125 72.90625 
Q 44.578125 72.90625 50.734375 67.671875 
Q 56.890625 62.453125 56.890625 51.90625 
Q 56.890625 45.015625 53.6875 40.46875 
Q 50.484375 35.9375 44.390625 34.1875 
z
M 19.671875 64.796875 
L 19.671875 38.921875 
L 32.078125 38.921875 
Q 39.203125 38.921875 42.84375 42.21875 
Q 46.484375 45.515625 46.484375 51.90625 
Q 46.484375 58.296875 42.84375 61.546875 
Q 39.203125 64.796875 32.078125 64.796875 
z
" id="DejaVuSans-82"/>
      <path d="M 54.890625 54.6875 
L 35.109375 28.078125 
L 55.90625 0 
L 45.3125 0 
L 29.390625 21.484375 
L 13.484375 0 
L 2.875 0 
L 24.125 28.609375 
L 4.6875 54.6875 
L 15.28125 54.6875 
L 29.78125 35.203125 
L 44.28125 54.6875 
z
" id="DejaVuSans-120"/>
     </defs>
     <g transform="translate(229.475 410.1344)scale(0.24 -0.24)">
      <use xlink:href="#DejaVuSans-109"/>
      <use x="97.412109" xlink:href="#DejaVuSans-101"/>
      <use x="158.935547" xlink:href="#DejaVuSans-100"/>
      <use x="222.412109" xlink:href="#DejaVuSans-82"/>
      <use x="291.894531" xlink:href="#DejaVuSans-120"/>
      <use x="351.074219" xlink:href="#DejaVuSans-105"/>
      <use x="378.857422" xlink:href="#DejaVuSans-118"/>
     </g>
    </g>
    <g id="line2d_67">
     <path d="M 162.275 436.9619 
L 210.275 436.9619 
" style="fill:none;stroke:#2ca02c;stroke-linecap:square;stroke-width:5;"/>
    </g>
    <g id="line2d_68"/>
    <g id="text_24">
     <!-- bioRxiv -->
     <defs>
      <path d="M 48.6875 27.296875 
Q 48.6875 37.203125 44.609375 42.84375 
Q 40.53125 48.484375 33.40625 48.484375 
Q 26.265625 48.484375 22.1875 42.84375 
Q 18.109375 37.203125 18.109375 27.296875 
Q 18.109375 17.390625 22.1875 11.75 
Q 26.265625 6.109375 33.40625 6.109375 
Q 40.53125 6.109375 44.609375 11.75 
Q 48.6875 17.390625 48.6875 27.296875 
z
M 18.109375 46.390625 
Q 20.953125 51.265625 25.265625 53.625 
Q 29.59375 56 35.59375 56 
Q 45.5625 56 51.78125 48.09375 
Q 58.015625 40.1875 58.015625 27.296875 
Q 58.015625 14.40625 51.78125 6.484375 
Q 45.5625 -1.421875 35.59375 -1.421875 
Q 29.59375 -1.421875 25.265625 0.953125 
Q 20.953125 3.328125 18.109375 8.203125 
L 18.109375 0 
L 9.078125 0 
L 9.078125 75.984375 
L 18.109375 75.984375 
z
" id="DejaVuSans-98"/>
     </defs>
     <g transform="translate(229.475 445.3619)scale(0.24 -0.24)">
      <use xlink:href="#DejaVuSans-98"/>
      <use x="63.476562" xlink:href="#DejaVuSans-105"/>
      <use x="91.259766" xlink:href="#DejaVuSans-111"/>
      <use x="152.441406" xlink:href="#DejaVuSans-82"/>
      <use x="221.923828" xlink:href="#DejaVuSans-120"/>
      <use x="281.103516" xlink:href="#DejaVuSans-105"/>
      <use x="308.886719" xlink:href="#DejaVuSans-118"/>
     </g>
    </g>
   </g>
  </g>
 </g>
 <defs>
  <clipPath id="p26d78b539c">
   <rect height="267.054545" width="669.6" x="140.675" y="14.605196"/>
  </clipPath>
  <clipPath id="p2626b9678d">
   <rect height="267.054545" width="669.6" x="140.675" y="335.07065"/>
  </clipPath>
 </defs>
</svg>
