<?xml version="1.0" encoding="utf-8" standalone="no"?>
<!DOCTYPE svg PUBLIC "-//W3C//DTD SVG 1.1//EN"
  "http://www.w3.org/Graphics/SVG/1.1/DTD/svg11.dtd">
<!-- Created with matplotlib (https://matplotlib.org/) -->
<svg height="679.17498pt" version="1.1" viewBox="0 0 817.475 679.17498" width="817.475pt" xmlns="http://www.w3.org/2000/svg" xmlns:xlink="http://www.w3.org/1999/xlink">
 <defs>
  <style type="text/css">
*{stroke-linecap:butt;stroke-linejoin:round;}
  </style>
 </defs>
 <g id="figure_1">
  <g id="patch_1">
   <path d="M 0 679.17498 
L 817.475 679.17498 
L 817.475 0 
L 0 0 
z
" style="fill:#ffffff;"/>
  </g>
  <g id="axes_1">
   <g id="patch_2">
    <path d="M 140.675 274.254545 
L 810.275 274.254545 
L 810.275 7.2 
L 140.675 7.2 
z
" style="fill:#ffffff;"/>
   </g>
   <g id="matplotlib.axis_1">
    <g id="xtick_1">
     <g id="line2d_1">
      <path clip-path="url(#p38b30c4724)" d="M 152.839929 274.254545 
L 152.839929 7.2 
" style="fill:none;stroke:#d3d3d3;stroke-linecap:square;stroke-width:0.8;"/>
     </g>
     <g id="line2d_2">
      <defs>
       <path d="M 0 0 
L 0 3.5 
" id="m7c2ee5a1a6" style="stroke:#000000;stroke-width:0.8;"/>
      </defs>
      <g>
       <use style="stroke:#000000;stroke-width:0.8;" x="152.839929" xlink:href="#m7c2ee5a1a6" y="274.254545"/>
      </g>
     </g>
    </g>
    <g id="xtick_2">
     <g id="line2d_3">
      <path clip-path="url(#p38b30c4724)" d="M 211.500851 274.254545 
L 211.500851 7.2 
" style="fill:none;stroke:#d3d3d3;stroke-linecap:square;stroke-width:0.8;"/>
     </g>
     <g id="line2d_4">
      <g>
       <use style="stroke:#000000;stroke-width:0.8;" x="211.500851" xlink:href="#m7c2ee5a1a6" y="274.254545"/>
      </g>
     </g>
    </g>
    <g id="xtick_3">
     <g id="line2d_5">
      <path clip-path="url(#p38b30c4724)" d="M 270.161773 274.254545 
L 270.161773 7.2 
" style="fill:none;stroke:#d3d3d3;stroke-linecap:square;stroke-width:0.8;"/>
     </g>
     <g id="line2d_6">
      <g>
       <use style="stroke:#000000;stroke-width:0.8;" x="270.161773" xlink:href="#m7c2ee5a1a6" y="274.254545"/>
      </g>
     </g>
    </g>
    <g id="xtick_4">
     <g id="line2d_7">
      <path clip-path="url(#p38b30c4724)" d="M 329.784349 274.254545 
L 329.784349 7.2 
" style="fill:none;stroke:#d3d3d3;stroke-linecap:square;stroke-width:0.8;"/>
     </g>
     <g id="line2d_8">
      <g>
       <use style="stroke:#000000;stroke-width:0.8;" x="329.784349" xlink:href="#m7c2ee5a1a6" y="274.254545"/>
      </g>
     </g>
    </g>
    <g id="xtick_5">
     <g id="line2d_9">
      <path clip-path="url(#p38b30c4724)" d="M 388.445271 274.254545 
L 388.445271 7.2 
" style="fill:none;stroke:#d3d3d3;stroke-linecap:square;stroke-width:0.8;"/>
     </g>
     <g id="line2d_10">
      <g>
       <use style="stroke:#000000;stroke-width:0.8;" x="388.445271" xlink:href="#m7c2ee5a1a6" y="274.254545"/>
      </g>
     </g>
    </g>
    <g id="xtick_6">
     <g id="line2d_11">
      <path clip-path="url(#p38b30c4724)" d="M 447.106193 274.254545 
L 447.106193 7.2 
" style="fill:none;stroke:#d3d3d3;stroke-linecap:square;stroke-width:0.8;"/>
     </g>
     <g id="line2d_12">
      <g>
       <use style="stroke:#000000;stroke-width:0.8;" x="447.106193" xlink:href="#m7c2ee5a1a6" y="274.254545"/>
      </g>
     </g>
    </g>
    <g id="xtick_7">
     <g id="line2d_13">
      <path clip-path="url(#p38b30c4724)" d="M 503.843807 274.254545 
L 503.843807 7.2 
" style="fill:none;stroke:#d3d3d3;stroke-linecap:square;stroke-width:0.8;"/>
     </g>
     <g id="line2d_14">
      <g>
       <use style="stroke:#000000;stroke-width:0.8;" x="503.843807" xlink:href="#m7c2ee5a1a6" y="274.254545"/>
      </g>
     </g>
    </g>
    <g id="xtick_8">
     <g id="line2d_15">
      <path clip-path="url(#p38b30c4724)" d="M 562.504729 274.254545 
L 562.504729 7.2 
" style="fill:none;stroke:#d3d3d3;stroke-linecap:square;stroke-width:0.8;"/>
     </g>
     <g id="line2d_16">
      <g>
       <use style="stroke:#000000;stroke-width:0.8;" x="562.504729" xlink:href="#m7c2ee5a1a6" y="274.254545"/>
      </g>
     </g>
    </g>
    <g id="xtick_9">
     <g id="line2d_17">
      <path clip-path="url(#p38b30c4724)" d="M 621.165651 274.254545 
L 621.165651 7.2 
" style="fill:none;stroke:#d3d3d3;stroke-linecap:square;stroke-width:0.8;"/>
     </g>
     <g id="line2d_18">
      <g>
       <use style="stroke:#000000;stroke-width:0.8;" x="621.165651" xlink:href="#m7c2ee5a1a6" y="274.254545"/>
      </g>
     </g>
    </g>
    <g id="xtick_10">
     <g id="line2d_19">
      <path clip-path="url(#p38b30c4724)" d="M 680.788227 274.254545 
L 680.788227 7.2 
" style="fill:none;stroke:#d3d3d3;stroke-linecap:square;stroke-width:0.8;"/>
     </g>
     <g id="line2d_20">
      <g>
       <use style="stroke:#000000;stroke-width:0.8;" x="680.788227" xlink:href="#m7c2ee5a1a6" y="274.254545"/>
      </g>
     </g>
    </g>
    <g id="xtick_11">
     <g id="line2d_21">
      <path clip-path="url(#p38b30c4724)" d="M 739.449149 274.254545 
L 739.449149 7.2 
" style="fill:none;stroke:#d3d3d3;stroke-linecap:square;stroke-width:0.8;"/>
     </g>
     <g id="line2d_22">
      <g>
       <use style="stroke:#000000;stroke-width:0.8;" x="739.449149" xlink:href="#m7c2ee5a1a6" y="274.254545"/>
      </g>
     </g>
    </g>
    <g id="xtick_12">
     <g id="line2d_23">
      <path clip-path="url(#p38b30c4724)" d="M 798.110071 274.254545 
L 798.110071 7.2 
" style="fill:none;stroke:#d3d3d3;stroke-linecap:square;stroke-width:0.8;"/>
     </g>
     <g id="line2d_24">
      <g>
       <use style="stroke:#000000;stroke-width:0.8;" x="798.110071" xlink:href="#m7c2ee5a1a6" y="274.254545"/>
      </g>
     </g>
    </g>
   </g>
   <g id="matplotlib.axis_2">
    <g id="ytick_1">
     <g id="line2d_25">
      <path clip-path="url(#p38b30c4724)" d="M 140.675 274.254545 
L 810.275 274.254545 
" style="fill:none;stroke:#d3d3d3;stroke-linecap:square;stroke-width:0.8;"/>
     </g>
     <g id="line2d_26">
      <defs>
       <path d="M 0 0 
L -3.5 0 
" id="mae07ab7433" style="stroke:#000000;stroke-width:0.8;"/>
      </defs>
      <g>
       <use style="stroke:#000000;stroke-width:0.8;" x="140.675" xlink:href="#mae07ab7433" y="274.254545"/>
      </g>
     </g>
     <g id="text_1">
      <!-- 0 -->
      <defs>
       <path d="M 31.78125 66.40625 
Q 24.171875 66.40625 20.328125 58.90625 
Q 16.5 51.421875 16.5 36.375 
Q 16.5 21.390625 20.328125 13.890625 
Q 24.171875 6.390625 31.78125 6.390625 
Q 39.453125 6.390625 43.28125 13.890625 
Q 47.125 21.390625 47.125 36.375 
Q 47.125 51.421875 43.28125 58.90625 
Q 39.453125 66.40625 31.78125 66.40625 
z
M 31.78125 74.21875 
Q 44.046875 74.21875 50.515625 64.515625 
Q 56.984375 54.828125 56.984375 36.375 
Q 56.984375 17.96875 50.515625 8.265625 
Q 44.046875 -1.421875 31.78125 -1.421875 
Q 19.53125 -1.421875 13.0625 8.265625 
Q 6.59375 17.96875 6.59375 36.375 
Q 6.59375 54.828125 13.0625 64.515625 
Q 19.53125 74.21875 31.78125 74.21875 
z
" id="DejaVuSans-48"/>
      </defs>
      <g transform="translate(118.405 283.37267)scale(0.24 -0.24)">
       <use xlink:href="#DejaVuSans-48"/>
      </g>
     </g>
    </g>
    <g id="ytick_2">
     <g id="line2d_27">
      <path clip-path="url(#p38b30c4724)" d="M 140.675 214.823004 
L 810.275 214.823004 
" style="fill:none;stroke:#d3d3d3;stroke-linecap:square;stroke-width:0.8;"/>
     </g>
     <g id="line2d_28">
      <g>
       <use style="stroke:#000000;stroke-width:0.8;" x="140.675" xlink:href="#mae07ab7433" y="214.823004"/>
      </g>
     </g>
     <g id="text_2">
      <!-- 200,000 -->
      <defs>
       <path d="M 19.1875 8.296875 
L 53.609375 8.296875 
L 53.609375 0 
L 7.328125 0 
L 7.328125 8.296875 
Q 12.9375 14.109375 22.625 23.890625 
Q 32.328125 33.6875 34.8125 36.53125 
Q 39.546875 41.84375 41.421875 45.53125 
Q 43.3125 49.21875 43.3125 52.78125 
Q 43.3125 58.59375 39.234375 62.25 
Q 35.15625 65.921875 28.609375 65.921875 
Q 23.96875 65.921875 18.8125 64.3125 
Q 13.671875 62.703125 7.8125 59.421875 
L 7.8125 69.390625 
Q 13.765625 71.78125 18.9375 73 
Q 24.125 74.21875 28.421875 74.21875 
Q 39.75 74.21875 46.484375 68.546875 
Q 53.21875 62.890625 53.21875 53.421875 
Q 53.21875 48.921875 51.53125 44.890625 
Q 49.859375 40.875 45.40625 35.40625 
Q 44.1875 33.984375 37.640625 27.21875 
Q 31.109375 20.453125 19.1875 8.296875 
z
" id="DejaVuSans-50"/>
       <path d="M 11.71875 12.40625 
L 22.015625 12.40625 
L 22.015625 4 
L 14.015625 -11.625 
L 7.71875 -11.625 
L 11.71875 4 
z
" id="DejaVuSans-44"/>
      </defs>
      <g transform="translate(34.4275 223.941129)scale(0.24 -0.24)">
       <use xlink:href="#DejaVuSans-50"/>
       <use x="63.623047" xlink:href="#DejaVuSans-48"/>
       <use x="127.246094" xlink:href="#DejaVuSans-48"/>
       <use x="190.869141" xlink:href="#DejaVuSans-44"/>
       <use x="222.65625" xlink:href="#DejaVuSans-48"/>
       <use x="286.279297" xlink:href="#DejaVuSans-48"/>
       <use x="349.902344" xlink:href="#DejaVuSans-48"/>
      </g>
     </g>
    </g>
    <g id="ytick_3">
     <g id="line2d_29">
      <path clip-path="url(#p38b30c4724)" d="M 140.675 155.391463 
L 810.275 155.391463 
" style="fill:none;stroke:#d3d3d3;stroke-linecap:square;stroke-width:0.8;"/>
     </g>
     <g id="line2d_30">
      <g>
       <use style="stroke:#000000;stroke-width:0.8;" x="140.675" xlink:href="#mae07ab7433" y="155.391463"/>
      </g>
     </g>
     <g id="text_3">
      <!-- 400,000 -->
      <defs>
       <path d="M 37.796875 64.3125 
L 12.890625 25.390625 
L 37.796875 25.390625 
z
M 35.203125 72.90625 
L 47.609375 72.90625 
L 47.609375 25.390625 
L 58.015625 25.390625 
L 58.015625 17.1875 
L 47.609375 17.1875 
L 47.609375 0 
L 37.796875 0 
L 37.796875 17.1875 
L 4.890625 17.1875 
L 4.890625 26.703125 
z
" id="DejaVuSans-52"/>
      </defs>
      <g transform="translate(34.4275 164.509588)scale(0.24 -0.24)">
       <use xlink:href="#DejaVuSans-52"/>
       <use x="63.623047" xlink:href="#DejaVuSans-48"/>
       <use x="127.246094" xlink:href="#DejaVuSans-48"/>
       <use x="190.869141" xlink:href="#DejaVuSans-44"/>
       <use x="222.65625" xlink:href="#DejaVuSans-48"/>
       <use x="286.279297" xlink:href="#DejaVuSans-48"/>
       <use x="349.902344" xlink:href="#DejaVuSans-48"/>
      </g>
     </g>
    </g>
    <g id="ytick_4">
     <g id="line2d_31">
      <path clip-path="url(#p38b30c4724)" d="M 140.675 95.959922 
L 810.275 95.959922 
" style="fill:none;stroke:#d3d3d3;stroke-linecap:square;stroke-width:0.8;"/>
     </g>
     <g id="line2d_32">
      <g>
       <use style="stroke:#000000;stroke-width:0.8;" x="140.675" xlink:href="#mae07ab7433" y="95.959922"/>
      </g>
     </g>
     <g id="text_4">
      <!-- 600,000 -->
      <defs>
       <path d="M 33.015625 40.375 
Q 26.375 40.375 22.484375 35.828125 
Q 18.609375 31.296875 18.609375 23.390625 
Q 18.609375 15.53125 22.484375 10.953125 
Q 26.375 6.390625 33.015625 6.390625 
Q 39.65625 6.390625 43.53125 10.953125 
Q 47.40625 15.53125 47.40625 23.390625 
Q 47.40625 31.296875 43.53125 35.828125 
Q 39.65625 40.375 33.015625 40.375 
z
M 52.59375 71.296875 
L 52.59375 62.3125 
Q 48.875 64.0625 45.09375 64.984375 
Q 41.3125 65.921875 37.59375 65.921875 
Q 27.828125 65.921875 22.671875 59.328125 
Q 17.53125 52.734375 16.796875 39.40625 
Q 19.671875 43.65625 24.015625 45.921875 
Q 28.375 48.1875 33.59375 48.1875 
Q 44.578125 48.1875 50.953125 41.515625 
Q 57.328125 34.859375 57.328125 23.390625 
Q 57.328125 12.15625 50.6875 5.359375 
Q 44.046875 -1.421875 33.015625 -1.421875 
Q 20.359375 -1.421875 13.671875 8.265625 
Q 6.984375 17.96875 6.984375 36.375 
Q 6.984375 53.65625 15.1875 63.9375 
Q 23.390625 74.21875 37.203125 74.21875 
Q 40.921875 74.21875 44.703125 73.484375 
Q 48.484375 72.75 52.59375 71.296875 
z
" id="DejaVuSans-54"/>
      </defs>
      <g transform="translate(34.4275 105.078047)scale(0.24 -0.24)">
       <use xlink:href="#DejaVuSans-54"/>
       <use x="63.623047" xlink:href="#DejaVuSans-48"/>
       <use x="127.246094" xlink:href="#DejaVuSans-48"/>
       <use x="190.869141" xlink:href="#DejaVuSans-44"/>
       <use x="222.65625" xlink:href="#DejaVuSans-48"/>
       <use x="286.279297" xlink:href="#DejaVuSans-48"/>
       <use x="349.902344" xlink:href="#DejaVuSans-48"/>
      </g>
     </g>
    </g>
    <g id="ytick_5">
     <g id="line2d_33">
      <path clip-path="url(#p38b30c4724)" d="M 140.675 36.528381 
L 810.275 36.528381 
" style="fill:none;stroke:#d3d3d3;stroke-linecap:square;stroke-width:0.8;"/>
     </g>
     <g id="line2d_34">
      <g>
       <use style="stroke:#000000;stroke-width:0.8;" x="140.675" xlink:href="#mae07ab7433" y="36.528381"/>
      </g>
     </g>
     <g id="text_5">
      <!-- 800,000 -->
      <defs>
       <path d="M 31.78125 34.625 
Q 24.75 34.625 20.71875 30.859375 
Q 16.703125 27.09375 16.703125 20.515625 
Q 16.703125 13.921875 20.71875 10.15625 
Q 24.75 6.390625 31.78125 6.390625 
Q 38.8125 6.390625 42.859375 10.171875 
Q 46.921875 13.96875 46.921875 20.515625 
Q 46.921875 27.09375 42.890625 30.859375 
Q 38.875 34.625 31.78125 34.625 
z
M 21.921875 38.8125 
Q 15.578125 40.375 12.03125 44.71875 
Q 8.5 49.078125 8.5 55.328125 
Q 8.5 64.0625 14.71875 69.140625 
Q 20.953125 74.21875 31.78125 74.21875 
Q 42.671875 74.21875 48.875 69.140625 
Q 55.078125 64.0625 55.078125 55.328125 
Q 55.078125 49.078125 51.53125 44.71875 
Q 48 40.375 41.703125 38.8125 
Q 48.828125 37.15625 52.796875 32.3125 
Q 56.78125 27.484375 56.78125 20.515625 
Q 56.78125 9.90625 50.3125 4.234375 
Q 43.84375 -1.421875 31.78125 -1.421875 
Q 19.734375 -1.421875 13.25 4.234375 
Q 6.78125 9.90625 6.78125 20.515625 
Q 6.78125 27.484375 10.78125 32.3125 
Q 14.796875 37.15625 21.921875 38.8125 
z
M 18.3125 54.390625 
Q 18.3125 48.734375 21.84375 45.5625 
Q 25.390625 42.390625 31.78125 42.390625 
Q 38.140625 42.390625 41.71875 45.5625 
Q 45.3125 48.734375 45.3125 54.390625 
Q 45.3125 60.0625 41.71875 63.234375 
Q 38.140625 66.40625 31.78125 66.40625 
Q 25.390625 66.40625 21.84375 63.234375 
Q 18.3125 60.0625 18.3125 54.390625 
z
" id="DejaVuSans-56"/>
      </defs>
      <g transform="translate(34.4275 45.646506)scale(0.24 -0.24)">
       <use xlink:href="#DejaVuSans-56"/>
       <use x="63.623047" xlink:href="#DejaVuSans-48"/>
       <use x="127.246094" xlink:href="#DejaVuSans-48"/>
       <use x="190.869141" xlink:href="#DejaVuSans-44"/>
       <use x="222.65625" xlink:href="#DejaVuSans-48"/>
       <use x="286.279297" xlink:href="#DejaVuSans-48"/>
       <use x="349.902344" xlink:href="#DejaVuSans-48"/>
      </g>
     </g>
    </g>
    <g id="text_6">
     <!-- Total manuscripts -->
     <defs>
      <path d="M -0.296875 72.90625 
L 61.375 72.90625 
L 61.375 64.59375 
L 35.5 64.59375 
L 35.5 0 
L 25.59375 0 
L 25.59375 64.59375 
L -0.296875 64.59375 
z
" id="DejaVuSans-84"/>
      <path d="M 30.609375 48.390625 
Q 23.390625 48.390625 19.1875 42.75 
Q 14.984375 37.109375 14.984375 27.296875 
Q 14.984375 17.484375 19.15625 11.84375 
Q 23.34375 6.203125 30.609375 6.203125 
Q 37.796875 6.203125 41.984375 11.859375 
Q 46.1875 17.53125 46.1875 27.296875 
Q 46.1875 37.015625 41.984375 42.703125 
Q 37.796875 48.390625 30.609375 48.390625 
z
M 30.609375 56 
Q 42.328125 56 49.015625 48.375 
Q 55.71875 40.765625 55.71875 27.296875 
Q 55.71875 13.875 49.015625 6.21875 
Q 42.328125 -1.421875 30.609375 -1.421875 
Q 18.84375 -1.421875 12.171875 6.21875 
Q 5.515625 13.875 5.515625 27.296875 
Q 5.515625 40.765625 12.171875 48.375 
Q 18.84375 56 30.609375 56 
z
" id="DejaVuSans-111"/>
      <path d="M 18.3125 70.21875 
L 18.3125 54.6875 
L 36.8125 54.6875 
L 36.8125 47.703125 
L 18.3125 47.703125 
L 18.3125 18.015625 
Q 18.3125 11.328125 20.140625 9.421875 
Q 21.96875 7.515625 27.59375 7.515625 
L 36.8125 7.515625 
L 36.8125 0 
L 27.59375 0 
Q 17.1875 0 13.234375 3.875 
Q 9.28125 7.765625 9.28125 18.015625 
L 9.28125 47.703125 
L 2.6875 47.703125 
L 2.6875 54.6875 
L 9.28125 54.6875 
L 9.28125 70.21875 
z
" id="DejaVuSans-116"/>
      <path d="M 34.28125 27.484375 
Q 23.390625 27.484375 19.1875 25 
Q 14.984375 22.515625 14.984375 16.5 
Q 14.984375 11.71875 18.140625 8.90625 
Q 21.296875 6.109375 26.703125 6.109375 
Q 34.1875 6.109375 38.703125 11.40625 
Q 43.21875 16.703125 43.21875 25.484375 
L 43.21875 27.484375 
z
M 52.203125 31.203125 
L 52.203125 0 
L 43.21875 0 
L 43.21875 8.296875 
Q 40.140625 3.328125 35.546875 0.953125 
Q 30.953125 -1.421875 24.3125 -1.421875 
Q 15.921875 -1.421875 10.953125 3.296875 
Q 6 8.015625 6 15.921875 
Q 6 25.140625 12.171875 29.828125 
Q 18.359375 34.515625 30.609375 34.515625 
L 43.21875 34.515625 
L 43.21875 35.40625 
Q 43.21875 41.609375 39.140625 45 
Q 35.0625 48.390625 27.6875 48.390625 
Q 23 48.390625 18.546875 47.265625 
Q 14.109375 46.140625 10.015625 43.890625 
L 10.015625 52.203125 
Q 14.9375 54.109375 19.578125 55.046875 
Q 24.21875 56 28.609375 56 
Q 40.484375 56 46.34375 49.84375 
Q 52.203125 43.703125 52.203125 31.203125 
z
" id="DejaVuSans-97"/>
      <path d="M 9.421875 75.984375 
L 18.40625 75.984375 
L 18.40625 0 
L 9.421875 0 
z
" id="DejaVuSans-108"/>
      <path id="DejaVuSans-32"/>
      <path d="M 52 44.1875 
Q 55.375 50.25 60.0625 53.125 
Q 64.75 56 71.09375 56 
Q 79.640625 56 84.28125 50.015625 
Q 88.921875 44.046875 88.921875 33.015625 
L 88.921875 0 
L 79.890625 0 
L 79.890625 32.71875 
Q 79.890625 40.578125 77.09375 44.375 
Q 74.3125 48.1875 68.609375 48.1875 
Q 61.625 48.1875 57.5625 43.546875 
Q 53.515625 38.921875 53.515625 30.90625 
L 53.515625 0 
L 44.484375 0 
L 44.484375 32.71875 
Q 44.484375 40.625 41.703125 44.40625 
Q 38.921875 48.1875 33.109375 48.1875 
Q 26.21875 48.1875 22.15625 43.53125 
Q 18.109375 38.875 18.109375 30.90625 
L 18.109375 0 
L 9.078125 0 
L 9.078125 54.6875 
L 18.109375 54.6875 
L 18.109375 46.1875 
Q 21.1875 51.21875 25.484375 53.609375 
Q 29.78125 56 35.6875 56 
Q 41.65625 56 45.828125 52.96875 
Q 50 49.953125 52 44.1875 
z
" id="DejaVuSans-109"/>
      <path d="M 54.890625 33.015625 
L 54.890625 0 
L 45.90625 0 
L 45.90625 32.71875 
Q 45.90625 40.484375 42.875 44.328125 
Q 39.84375 48.1875 33.796875 48.1875 
Q 26.515625 48.1875 22.3125 43.546875 
Q 18.109375 38.921875 18.109375 30.90625 
L 18.109375 0 
L 9.078125 0 
L 9.078125 54.6875 
L 18.109375 54.6875 
L 18.109375 46.1875 
Q 21.34375 51.125 25.703125 53.5625 
Q 30.078125 56 35.796875 56 
Q 45.21875 56 50.046875 50.171875 
Q 54.890625 44.34375 54.890625 33.015625 
z
" id="DejaVuSans-110"/>
      <path d="M 8.5 21.578125 
L 8.5 54.6875 
L 17.484375 54.6875 
L 17.484375 21.921875 
Q 17.484375 14.15625 20.5 10.265625 
Q 23.53125 6.390625 29.59375 6.390625 
Q 36.859375 6.390625 41.078125 11.03125 
Q 45.3125 15.671875 45.3125 23.6875 
L 45.3125 54.6875 
L 54.296875 54.6875 
L 54.296875 0 
L 45.3125 0 
L 45.3125 8.40625 
Q 42.046875 3.421875 37.71875 1 
Q 33.40625 -1.421875 27.6875 -1.421875 
Q 18.265625 -1.421875 13.375 4.4375 
Q 8.5 10.296875 8.5 21.578125 
z
M 31.109375 56 
z
" id="DejaVuSans-117"/>
      <path d="M 44.28125 53.078125 
L 44.28125 44.578125 
Q 40.484375 46.53125 36.375 47.5 
Q 32.28125 48.484375 27.875 48.484375 
Q 21.1875 48.484375 17.84375 46.4375 
Q 14.5 44.390625 14.5 40.28125 
Q 14.5 37.15625 16.890625 35.375 
Q 19.28125 33.59375 26.515625 31.984375 
L 29.59375 31.296875 
Q 39.15625 29.25 43.1875 25.515625 
Q 47.21875 21.78125 47.21875 15.09375 
Q 47.21875 7.46875 41.1875 3.015625 
Q 35.15625 -1.421875 24.609375 -1.421875 
Q 20.21875 -1.421875 15.453125 -0.5625 
Q 10.6875 0.296875 5.421875 2 
L 5.421875 11.28125 
Q 10.40625 8.6875 15.234375 7.390625 
Q 20.0625 6.109375 24.8125 6.109375 
Q 31.15625 6.109375 34.5625 8.28125 
Q 37.984375 10.453125 37.984375 14.40625 
Q 37.984375 18.0625 35.515625 20.015625 
Q 33.0625 21.96875 24.703125 23.78125 
L 21.578125 24.515625 
Q 13.234375 26.265625 9.515625 29.90625 
Q 5.8125 33.546875 5.8125 39.890625 
Q 5.8125 47.609375 11.28125 51.796875 
Q 16.75 56 26.8125 56 
Q 31.78125 56 36.171875 55.265625 
Q 40.578125 54.546875 44.28125 53.078125 
z
" id="DejaVuSans-115"/>
      <path d="M 48.78125 52.59375 
L 48.78125 44.1875 
Q 44.96875 46.296875 41.140625 47.34375 
Q 37.3125 48.390625 33.40625 48.390625 
Q 24.65625 48.390625 19.8125 42.84375 
Q 14.984375 37.3125 14.984375 27.296875 
Q 14.984375 17.28125 19.8125 11.734375 
Q 24.65625 6.203125 33.40625 6.203125 
Q 37.3125 6.203125 41.140625 7.25 
Q 44.96875 8.296875 48.78125 10.40625 
L 48.78125 2.09375 
Q 45.015625 0.34375 40.984375 -0.53125 
Q 36.96875 -1.421875 32.421875 -1.421875 
Q 20.0625 -1.421875 12.78125 6.34375 
Q 5.515625 14.109375 5.515625 27.296875 
Q 5.515625 40.671875 12.859375 48.328125 
Q 20.21875 56 33.015625 56 
Q 37.15625 56 41.109375 55.140625 
Q 45.0625 54.296875 48.78125 52.59375 
z
" id="DejaVuSans-99"/>
      <path d="M 41.109375 46.296875 
Q 39.59375 47.171875 37.8125 47.578125 
Q 36.03125 48 33.890625 48 
Q 26.265625 48 22.1875 43.046875 
Q 18.109375 38.09375 18.109375 28.8125 
L 18.109375 0 
L 9.078125 0 
L 9.078125 54.6875 
L 18.109375 54.6875 
L 18.109375 46.1875 
Q 20.953125 51.171875 25.484375 53.578125 
Q 30.03125 56 36.53125 56 
Q 37.453125 56 38.578125 55.875 
Q 39.703125 55.765625 41.0625 55.515625 
z
" id="DejaVuSans-114"/>
      <path d="M 9.421875 54.6875 
L 18.40625 54.6875 
L 18.40625 0 
L 9.421875 0 
z
M 9.421875 75.984375 
L 18.40625 75.984375 
L 18.40625 64.59375 
L 9.421875 64.59375 
z
" id="DejaVuSans-105"/>
      <path d="M 18.109375 8.203125 
L 18.109375 -20.796875 
L 9.078125 -20.796875 
L 9.078125 54.6875 
L 18.109375 54.6875 
L 18.109375 46.390625 
Q 20.953125 51.265625 25.265625 53.625 
Q 29.59375 56 35.59375 56 
Q 45.5625 56 51.78125 48.09375 
Q 58.015625 40.1875 58.015625 27.296875 
Q 58.015625 14.40625 51.78125 6.484375 
Q 45.5625 -1.421875 35.59375 -1.421875 
Q 29.59375 -1.421875 25.265625 0.953125 
Q 20.953125 3.328125 18.109375 8.203125 
z
M 48.6875 27.296875 
Q 48.6875 37.203125 44.609375 42.84375 
Q 40.53125 48.484375 33.40625 48.484375 
Q 26.265625 48.484375 22.1875 42.84375 
Q 18.109375 37.203125 18.109375 27.296875 
Q 18.109375 17.390625 22.1875 11.75 
Q 26.265625 6.109375 33.40625 6.109375 
Q 40.53125 6.109375 44.609375 11.75 
Q 48.6875 17.390625 48.6875 27.296875 
z
" id="DejaVuSans-112"/>
     </defs>
     <g transform="translate(25.43625 248.515398)rotate(-90)scale(0.24 -0.24)">
      <use xlink:href="#DejaVuSans-84"/>
      <use x="60.818359" xlink:href="#DejaVuSans-111"/>
      <use x="122" xlink:href="#DejaVuSans-116"/>
      <use x="161.208984" xlink:href="#DejaVuSans-97"/>
      <use x="222.488281" xlink:href="#DejaVuSans-108"/>
      <use x="250.271484" xlink:href="#DejaVuSans-32"/>
      <use x="282.058594" xlink:href="#DejaVuSans-109"/>
      <use x="379.470703" xlink:href="#DejaVuSans-97"/>
      <use x="440.75" xlink:href="#DejaVuSans-110"/>
      <use x="504.128906" xlink:href="#DejaVuSans-117"/>
      <use x="567.507812" xlink:href="#DejaVuSans-115"/>
      <use x="619.607422" xlink:href="#DejaVuSans-99"/>
      <use x="674.587891" xlink:href="#DejaVuSans-114"/>
      <use x="715.701172" xlink:href="#DejaVuSans-105"/>
      <use x="743.484375" xlink:href="#DejaVuSans-112"/>
      <use x="806.960938" xlink:href="#DejaVuSans-116"/>
      <use x="846.169922" xlink:href="#DejaVuSans-115"/>
     </g>
    </g>
   </g>
   <g id="line2d_35">
    <path clip-path="url(#p38b30c4724)" d="M 171.111364 261.114232 
L 184.574526 260.19958 
L 191.306107 259.076324 
L 198.037688 258.684076 
L 204.76927 257.207797 
L 222.07905 255.363933 
L 228.810631 236.072158 
L 235.542212 234.374198 
L 236.503867 233.821188 
L 238.427176 233.006976 
L 239.38883 232.931498 
L 241.312139 232.494379 
L 242.273794 232.322919 
L 243.235448 234.093979 
L 245.158757 233.816731 
L 246.120411 233.800684 
L 247.082066 233.667855 
L 248.04372 233.421808 
L 249.967029 232.714275 
L 250.928684 232.504185 
L 251.890338 232.420684 
L 254.775302 231.789224 
L 255.736956 230.713513 
L 256.698611 227.483706 
L 261.506883 227.02222 
L 262.468537 226.603524 
L 263.430192 226.684946 
L 264.391846 226.244558 
L 265.353501 225.656186 
L 266.315155 225.569713 
L 267.27681 224.489544 
L 268.238464 224.384945 
L 270.161773 223.790927 
L 272.085082 220.720693 
L 273.046736 220.333497 
L 274.970045 220.074375 
L 275.9317 219.832786 
L 276.893354 219.301468 
L 278.816663 218.707153 
L 280.739972 218.407321 
L 282.663281 217.60232 
L 283.624935 217.391933 
L 284.58659 217.049013 
L 291.318171 215.378986 
L 295.164789 215.092824 
L 296.126443 214.187384 
L 297.088098 213.893495 
L 298.049752 213.776415 
L 299.011407 213.389813 
L 301.89637 212.650484 
L 302.858025 212.566092 
L 304.781333 211.731078 
L 305.742988 211.485032 
L 306.704642 211.691854 
L 310.55126 210.897551 
L 311.512915 210.209037 
L 312.474569 209.895238 
L 313.436224 207.497175 
L 314.397878 206.915043 
L 316.321187 206.66662 
L 318.244496 205.940366 
L 319.20615 205.812291 
L 321.129459 204.932407 
L 322.091114 204.856632 
L 323.052768 204.63525 
L 325.937732 203.330727 
L 326.899386 203.233854 
L 329.784349 202.293647 
L 330.746004 201.800959 
L 331.707658 201.43397 
L 336.515931 199.916088 
L 337.477585 199.450145 
L 339.400894 198.938736 
L 342.285857 196.656862 
L 343.247512 196.24619 
L 344.209166 195.188903 
L 345.170821 195.158593 
L 346.132475 194.567546 
L 347.09413 193.74442 
L 348.055784 193.118606 
L 349.979093 192.823528 
L 350.940748 192.455944 
L 351.902402 191.936512 
L 352.864056 191.206396 
L 354.787365 190.448644 
L 358.633983 189.575 
L 361.518947 188.849935 
L 362.480601 188.72186 
L 364.40391 188.130813 
L 365.365564 187.009637 
L 366.327219 186.729121 
L 367.288873 185.160425 
L 368.250528 184.611872 
L 371.135491 183.814598 
L 374.020455 182.921045 
L 374.982109 182.372194 
L 375.943763 182.336238 
L 376.905418 181.887827 
L 377.867072 181.65545 
L 379.790381 180.368163 
L 381.71369 179.717684 
L 383.636999 179.278485 
L 384.598654 179.010152 
L 385.560308 178.438718 
L 387.483617 175.954479 
L 388.445271 175.462089 
L 390.36858 175.157502 
L 391.330235 174.920073 
L 393.253544 173.449143 
L 395.176853 172.711894 
L 397.100162 172.399582 
L 399.02347 171.53515 
L 399.985125 171.361015 
L 400.946779 168.91095 
L 401.908434 168.600718 
L 403.831743 168.352294 
L 404.793397 167.969555 
L 406.716706 167.481622 
L 408.640015 166.828172 
L 410.563324 166.537552 
L 413.448287 165.127538 
L 414.409942 165.005406 
L 420.179869 163.249204 
L 421.141523 163.114889 
L 422.103178 162.852499 
L 423.064832 162.792473 
L 425.949795 161.856129 
L 426.91145 161.459721 
L 427.873104 161.342343 
L 428.834759 160.794682 
L 432.681377 158.943389 
L 433.643031 158.337188 
L 435.56634 157.742575 
L 437.489649 157.481076 
L 438.451303 156.96313 
L 439.412958 156.654383 
L 440.374612 156.641903 
L 445.182885 156.170016 
L 446.144539 155.356101 
L 449.991157 155.264577 
L 451.914466 154.970688 
L 452.87612 152.074886 
L 453.837775 151.529602 
L 454.799429 151.225312 
L 455.761084 150.577806 
L 457.684393 150.297586 
L 459.607701 149.494666 
L 461.53101 148.045428 
L 462.492665 147.766694 
L 463.454319 147.725983 
L 464.415974 147.341164 
L 466.339283 147.019342 
L 468.262592 146.125194 
L 469.224246 145.71482 
L 471.147555 145.45867 
L 473.070864 143.870065 
L 474.032518 143.766951 
L 474.994173 143.371731 
L 476.917482 143.168772 
L 483.649063 140.419172 
L 490.380644 137.332892 
L 497.112225 135.327078 
L 503.843807 132.576883 
L 510.575388 130.958859 
L 524.03855 128.378639 
L 530.770131 126.297941 
L 537.501713 119.090975 
L 545.194948 116.864669 
L 550.964875 114.735237 
L 557.696456 112.480108 
L 564.428037 109.94773 
L 571.159619 105.515325 
L 577.8912 102.124459 
L 584.622781 99.537404 
L 591.354362 96.074031 
L 604.817525 80.826274 
L 611.549106 78.278444 
L 618.280687 75.226337 
L 625.012268 71.698184 
L 631.74385 68.835664 
L 638.475431 63.523376 
L 645.207012 60.749111 
L 651.938593 57.402521 
L 658.670174 54.268102 
L 668.286719 51.772274 
L 672.133337 48.904108 
L 678.864918 45.761368 
L 685.596499 50.808889 
L 705.791243 47.063513 
L 719.254405 40.906108 
L 732.717568 35.98696 
L 739.449149 33.182979 
L 746.18073 29.908004 
L 752.912312 27.243986 
L 766.375474 22.985418 
L 779.838636 19.291154 
L 779.838636 19.291154 
" style="fill:none;stroke:#1f77b4;stroke-linecap:square;stroke-width:5;"/>
   </g>
   <g id="patch_3">
    <path d="M 140.675 274.254545 
L 140.675 7.2 
" style="fill:none;stroke:#000000;stroke-linecap:square;stroke-linejoin:miter;stroke-width:0.8;"/>
   </g>
   <g id="patch_4">
    <path d="M 140.675 274.254545 
L 810.275 274.254545 
" style="fill:none;stroke:#000000;stroke-linecap:square;stroke-linejoin:miter;stroke-width:0.8;"/>
   </g>
  </g>
  <g id="axes_2">
   <g id="patch_5">
    <path d="M 140.675 594.72 
L 810.275 594.72 
L 810.275 327.665455 
L 140.675 327.665455 
z
" style="fill:#ffffff;"/>
   </g>
   <g id="matplotlib.axis_3">
    <g id="xtick_13">
     <g id="line2d_36">
      <path clip-path="url(#pfb62d37ef4)" d="M 152.839929 594.72 
L 152.839929 327.665455 
" style="fill:none;stroke:#d3d3d3;stroke-linecap:square;stroke-width:0.8;"/>
     </g>
     <g id="line2d_37">
      <g>
       <use style="stroke:#000000;stroke-width:0.8;" x="152.839929" xlink:href="#m7c2ee5a1a6" y="594.72"/>
      </g>
     </g>
     <g id="text_7">
      <!-- 2020-03 -->
      <defs>
       <path d="M 4.890625 31.390625 
L 31.203125 31.390625 
L 31.203125 23.390625 
L 4.890625 23.390625 
z
" id="DejaVuSans-45"/>
       <path d="M 40.578125 39.3125 
Q 47.65625 37.796875 51.625 33 
Q 55.609375 28.21875 55.609375 21.1875 
Q 55.609375 10.40625 48.1875 4.484375 
Q 40.765625 -1.421875 27.09375 -1.421875 
Q 22.515625 -1.421875 17.65625 -0.515625 
Q 12.796875 0.390625 7.625 2.203125 
L 7.625 11.71875 
Q 11.71875 9.328125 16.59375 8.109375 
Q 21.484375 6.890625 26.8125 6.890625 
Q 36.078125 6.890625 40.9375 10.546875 
Q 45.796875 14.203125 45.796875 21.1875 
Q 45.796875 27.640625 41.28125 31.265625 
Q 36.765625 34.90625 28.71875 34.90625 
L 20.21875 34.90625 
L 20.21875 43.015625 
L 29.109375 43.015625 
Q 36.375 43.015625 40.234375 45.921875 
Q 44.09375 48.828125 44.09375 54.296875 
Q 44.09375 59.90625 40.109375 62.90625 
Q 36.140625 65.921875 28.71875 65.921875 
Q 24.65625 65.921875 20.015625 65.03125 
Q 15.375 64.15625 9.8125 62.3125 
L 9.8125 71.09375 
Q 15.4375 72.65625 20.34375 73.4375 
Q 25.25 74.21875 29.59375 74.21875 
Q 40.828125 74.21875 47.359375 69.109375 
Q 53.90625 64.015625 53.90625 55.328125 
Q 53.90625 49.265625 50.4375 45.09375 
Q 46.96875 40.921875 40.578125 39.3125 
z
" id="DejaVuSans-51"/>
      </defs>
      <g transform="translate(63.500359 667.652431)rotate(-30)scale(0.24 -0.24)">
       <use xlink:href="#DejaVuSans-50"/>
       <use x="63.623047" xlink:href="#DejaVuSans-48"/>
       <use x="127.246094" xlink:href="#DejaVuSans-50"/>
       <use x="190.869141" xlink:href="#DejaVuSans-48"/>
       <use x="254.492188" xlink:href="#DejaVuSans-45"/>
       <use x="290.576172" xlink:href="#DejaVuSans-48"/>
       <use x="354.199219" xlink:href="#DejaVuSans-51"/>
      </g>
     </g>
    </g>
    <g id="xtick_14">
     <g id="line2d_38">
      <path clip-path="url(#pfb62d37ef4)" d="M 211.500851 594.72 
L 211.500851 327.665455 
" style="fill:none;stroke:#d3d3d3;stroke-linecap:square;stroke-width:0.8;"/>
     </g>
     <g id="line2d_39">
      <g>
       <use style="stroke:#000000;stroke-width:0.8;" x="211.500851" xlink:href="#m7c2ee5a1a6" y="594.72"/>
      </g>
     </g>
     <g id="text_8">
      <!-- 2020-05 -->
      <defs>
       <path d="M 10.796875 72.90625 
L 49.515625 72.90625 
L 49.515625 64.59375 
L 19.828125 64.59375 
L 19.828125 46.734375 
Q 21.96875 47.46875 24.109375 47.828125 
Q 26.265625 48.1875 28.421875 48.1875 
Q 40.625 48.1875 47.75 41.5 
Q 54.890625 34.8125 54.890625 23.390625 
Q 54.890625 11.625 47.5625 5.09375 
Q 40.234375 -1.421875 26.90625 -1.421875 
Q 22.3125 -1.421875 17.546875 -0.640625 
Q 12.796875 0.140625 7.71875 1.703125 
L 7.71875 11.625 
Q 12.109375 9.234375 16.796875 8.0625 
Q 21.484375 6.890625 26.703125 6.890625 
Q 35.15625 6.890625 40.078125 11.328125 
Q 45.015625 15.765625 45.015625 23.390625 
Q 45.015625 31 40.078125 35.4375 
Q 35.15625 39.890625 26.703125 39.890625 
Q 22.75 39.890625 18.8125 39.015625 
Q 14.890625 38.140625 10.796875 36.28125 
z
" id="DejaVuSans-53"/>
      </defs>
      <g transform="translate(122.161281 667.652431)rotate(-30)scale(0.24 -0.24)">
       <use xlink:href="#DejaVuSans-50"/>
       <use x="63.623047" xlink:href="#DejaVuSans-48"/>
       <use x="127.246094" xlink:href="#DejaVuSans-50"/>
       <use x="190.869141" xlink:href="#DejaVuSans-48"/>
       <use x="254.492188" xlink:href="#DejaVuSans-45"/>
       <use x="290.576172" xlink:href="#DejaVuSans-48"/>
       <use x="354.199219" xlink:href="#DejaVuSans-53"/>
      </g>
     </g>
    </g>
    <g id="xtick_15">
     <g id="line2d_40">
      <path clip-path="url(#pfb62d37ef4)" d="M 270.161773 594.72 
L 270.161773 327.665455 
" style="fill:none;stroke:#d3d3d3;stroke-linecap:square;stroke-width:0.8;"/>
     </g>
     <g id="line2d_41">
      <g>
       <use style="stroke:#000000;stroke-width:0.8;" x="270.161773" xlink:href="#m7c2ee5a1a6" y="594.72"/>
      </g>
     </g>
     <g id="text_9">
      <!-- 2020-07 -->
      <defs>
       <path d="M 8.203125 72.90625 
L 55.078125 72.90625 
L 55.078125 68.703125 
L 28.609375 0 
L 18.3125 0 
L 43.21875 64.59375 
L 8.203125 64.59375 
z
" id="DejaVuSans-55"/>
      </defs>
      <g transform="translate(180.822203 667.652431)rotate(-30)scale(0.24 -0.24)">
       <use xlink:href="#DejaVuSans-50"/>
       <use x="63.623047" xlink:href="#DejaVuSans-48"/>
       <use x="127.246094" xlink:href="#DejaVuSans-50"/>
       <use x="190.869141" xlink:href="#DejaVuSans-48"/>
       <use x="254.492188" xlink:href="#DejaVuSans-45"/>
       <use x="290.576172" xlink:href="#DejaVuSans-48"/>
       <use x="354.199219" xlink:href="#DejaVuSans-55"/>
      </g>
     </g>
    </g>
    <g id="xtick_16">
     <g id="line2d_42">
      <path clip-path="url(#pfb62d37ef4)" d="M 329.784349 594.72 
L 329.784349 327.665455 
" style="fill:none;stroke:#d3d3d3;stroke-linecap:square;stroke-width:0.8;"/>
     </g>
     <g id="line2d_43">
      <g>
       <use style="stroke:#000000;stroke-width:0.8;" x="329.784349" xlink:href="#m7c2ee5a1a6" y="594.72"/>
      </g>
     </g>
     <g id="text_10">
      <!-- 2020-09 -->
      <defs>
       <path d="M 10.984375 1.515625 
L 10.984375 10.5 
Q 14.703125 8.734375 18.5 7.8125 
Q 22.3125 6.890625 25.984375 6.890625 
Q 35.75 6.890625 40.890625 13.453125 
Q 46.046875 20.015625 46.78125 33.40625 
Q 43.953125 29.203125 39.59375 26.953125 
Q 35.25 24.703125 29.984375 24.703125 
Q 19.046875 24.703125 12.671875 31.3125 
Q 6.296875 37.9375 6.296875 49.421875 
Q 6.296875 60.640625 12.9375 67.421875 
Q 19.578125 74.21875 30.609375 74.21875 
Q 43.265625 74.21875 49.921875 64.515625 
Q 56.59375 54.828125 56.59375 36.375 
Q 56.59375 19.140625 48.40625 8.859375 
Q 40.234375 -1.421875 26.421875 -1.421875 
Q 22.703125 -1.421875 18.890625 -0.6875 
Q 15.09375 0.046875 10.984375 1.515625 
z
M 30.609375 32.421875 
Q 37.25 32.421875 41.125 36.953125 
Q 45.015625 41.5 45.015625 49.421875 
Q 45.015625 57.28125 41.125 61.84375 
Q 37.25 66.40625 30.609375 66.40625 
Q 23.96875 66.40625 20.09375 61.84375 
Q 16.21875 57.28125 16.21875 49.421875 
Q 16.21875 41.5 20.09375 36.953125 
Q 23.96875 32.421875 30.609375 32.421875 
z
" id="DejaVuSans-57"/>
      </defs>
      <g transform="translate(240.444779 667.652431)rotate(-30)scale(0.24 -0.24)">
       <use xlink:href="#DejaVuSans-50"/>
       <use x="63.623047" xlink:href="#DejaVuSans-48"/>
       <use x="127.246094" xlink:href="#DejaVuSans-50"/>
       <use x="190.869141" xlink:href="#DejaVuSans-48"/>
       <use x="254.492188" xlink:href="#DejaVuSans-45"/>
       <use x="290.576172" xlink:href="#DejaVuSans-48"/>
       <use x="354.199219" xlink:href="#DejaVuSans-57"/>
      </g>
     </g>
    </g>
    <g id="xtick_17">
     <g id="line2d_44">
      <path clip-path="url(#pfb62d37ef4)" d="M 388.445271 594.72 
L 388.445271 327.665455 
" style="fill:none;stroke:#d3d3d3;stroke-linecap:square;stroke-width:0.8;"/>
     </g>
     <g id="line2d_45">
      <g>
       <use style="stroke:#000000;stroke-width:0.8;" x="388.445271" xlink:href="#m7c2ee5a1a6" y="594.72"/>
      </g>
     </g>
     <g id="text_11">
      <!-- 2020-11 -->
      <defs>
       <path d="M 12.40625 8.296875 
L 28.515625 8.296875 
L 28.515625 63.921875 
L 10.984375 60.40625 
L 10.984375 69.390625 
L 28.421875 72.90625 
L 38.28125 72.90625 
L 38.28125 8.296875 
L 54.390625 8.296875 
L 54.390625 0 
L 12.40625 0 
z
" id="DejaVuSans-49"/>
      </defs>
      <g transform="translate(299.105701 667.652431)rotate(-30)scale(0.24 -0.24)">
       <use xlink:href="#DejaVuSans-50"/>
       <use x="63.623047" xlink:href="#DejaVuSans-48"/>
       <use x="127.246094" xlink:href="#DejaVuSans-50"/>
       <use x="190.869141" xlink:href="#DejaVuSans-48"/>
       <use x="254.492188" xlink:href="#DejaVuSans-45"/>
       <use x="290.576172" xlink:href="#DejaVuSans-49"/>
       <use x="354.199219" xlink:href="#DejaVuSans-49"/>
      </g>
     </g>
    </g>
    <g id="xtick_18">
     <g id="line2d_46">
      <path clip-path="url(#pfb62d37ef4)" d="M 447.106193 594.72 
L 447.106193 327.665455 
" style="fill:none;stroke:#d3d3d3;stroke-linecap:square;stroke-width:0.8;"/>
     </g>
     <g id="line2d_47">
      <g>
       <use style="stroke:#000000;stroke-width:0.8;" x="447.106193" xlink:href="#m7c2ee5a1a6" y="594.72"/>
      </g>
     </g>
     <g id="text_12">
      <!-- 2021-01 -->
      <g transform="translate(357.766623 667.652431)rotate(-30)scale(0.24 -0.24)">
       <use xlink:href="#DejaVuSans-50"/>
       <use x="63.623047" xlink:href="#DejaVuSans-48"/>
       <use x="127.246094" xlink:href="#DejaVuSans-50"/>
       <use x="190.869141" xlink:href="#DejaVuSans-49"/>
       <use x="254.492188" xlink:href="#DejaVuSans-45"/>
       <use x="290.576172" xlink:href="#DejaVuSans-48"/>
       <use x="354.199219" xlink:href="#DejaVuSans-49"/>
      </g>
     </g>
    </g>
    <g id="xtick_19">
     <g id="line2d_48">
      <path clip-path="url(#pfb62d37ef4)" d="M 503.843807 594.72 
L 503.843807 327.665455 
" style="fill:none;stroke:#d3d3d3;stroke-linecap:square;stroke-width:0.8;"/>
     </g>
     <g id="line2d_49">
      <g>
       <use style="stroke:#000000;stroke-width:0.8;" x="503.843807" xlink:href="#m7c2ee5a1a6" y="594.72"/>
      </g>
     </g>
     <g id="text_13">
      <!-- 2021-03 -->
      <g transform="translate(414.504237 667.652431)rotate(-30)scale(0.24 -0.24)">
       <use xlink:href="#DejaVuSans-50"/>
       <use x="63.623047" xlink:href="#DejaVuSans-48"/>
       <use x="127.246094" xlink:href="#DejaVuSans-50"/>
       <use x="190.869141" xlink:href="#DejaVuSans-49"/>
       <use x="254.492188" xlink:href="#DejaVuSans-45"/>
       <use x="290.576172" xlink:href="#DejaVuSans-48"/>
       <use x="354.199219" xlink:href="#DejaVuSans-51"/>
      </g>
     </g>
    </g>
    <g id="xtick_20">
     <g id="line2d_50">
      <path clip-path="url(#pfb62d37ef4)" d="M 562.504729 594.72 
L 562.504729 327.665455 
" style="fill:none;stroke:#d3d3d3;stroke-linecap:square;stroke-width:0.8;"/>
     </g>
     <g id="line2d_51">
      <g>
       <use style="stroke:#000000;stroke-width:0.8;" x="562.504729" xlink:href="#m7c2ee5a1a6" y="594.72"/>
      </g>
     </g>
     <g id="text_14">
      <!-- 2021-05 -->
      <g transform="translate(473.165159 667.652431)rotate(-30)scale(0.24 -0.24)">
       <use xlink:href="#DejaVuSans-50"/>
       <use x="63.623047" xlink:href="#DejaVuSans-48"/>
       <use x="127.246094" xlink:href="#DejaVuSans-50"/>
       <use x="190.869141" xlink:href="#DejaVuSans-49"/>
       <use x="254.492188" xlink:href="#DejaVuSans-45"/>
       <use x="290.576172" xlink:href="#DejaVuSans-48"/>
       <use x="354.199219" xlink:href="#DejaVuSans-53"/>
      </g>
     </g>
    </g>
    <g id="xtick_21">
     <g id="line2d_52">
      <path clip-path="url(#pfb62d37ef4)" d="M 621.165651 594.72 
L 621.165651 327.665455 
" style="fill:none;stroke:#d3d3d3;stroke-linecap:square;stroke-width:0.8;"/>
     </g>
     <g id="line2d_53">
      <g>
       <use style="stroke:#000000;stroke-width:0.8;" x="621.165651" xlink:href="#m7c2ee5a1a6" y="594.72"/>
      </g>
     </g>
     <g id="text_15">
      <!-- 2021-07 -->
      <g transform="translate(531.826081 667.652431)rotate(-30)scale(0.24 -0.24)">
       <use xlink:href="#DejaVuSans-50"/>
       <use x="63.623047" xlink:href="#DejaVuSans-48"/>
       <use x="127.246094" xlink:href="#DejaVuSans-50"/>
       <use x="190.869141" xlink:href="#DejaVuSans-49"/>
       <use x="254.492188" xlink:href="#DejaVuSans-45"/>
       <use x="290.576172" xlink:href="#DejaVuSans-48"/>
       <use x="354.199219" xlink:href="#DejaVuSans-55"/>
      </g>
     </g>
    </g>
    <g id="xtick_22">
     <g id="line2d_54">
      <path clip-path="url(#pfb62d37ef4)" d="M 680.788227 594.72 
L 680.788227 327.665455 
" style="fill:none;stroke:#d3d3d3;stroke-linecap:square;stroke-width:0.8;"/>
     </g>
     <g id="line2d_55">
      <g>
       <use style="stroke:#000000;stroke-width:0.8;" x="680.788227" xlink:href="#m7c2ee5a1a6" y="594.72"/>
      </g>
     </g>
     <g id="text_16">
      <!-- 2021-09 -->
      <g transform="translate(591.448657 667.652431)rotate(-30)scale(0.24 -0.24)">
       <use xlink:href="#DejaVuSans-50"/>
       <use x="63.623047" xlink:href="#DejaVuSans-48"/>
       <use x="127.246094" xlink:href="#DejaVuSans-50"/>
       <use x="190.869141" xlink:href="#DejaVuSans-49"/>
       <use x="254.492188" xlink:href="#DejaVuSans-45"/>
       <use x="290.576172" xlink:href="#DejaVuSans-48"/>
       <use x="354.199219" xlink:href="#DejaVuSans-57"/>
      </g>
     </g>
    </g>
    <g id="xtick_23">
     <g id="line2d_56">
      <path clip-path="url(#pfb62d37ef4)" d="M 739.449149 594.72 
L 739.449149 327.665455 
" style="fill:none;stroke:#d3d3d3;stroke-linecap:square;stroke-width:0.8;"/>
     </g>
     <g id="line2d_57">
      <g>
       <use style="stroke:#000000;stroke-width:0.8;" x="739.449149" xlink:href="#m7c2ee5a1a6" y="594.72"/>
      </g>
     </g>
     <g id="text_17">
      <!-- 2021-11 -->
      <g transform="translate(650.109579 667.652431)rotate(-30)scale(0.24 -0.24)">
       <use xlink:href="#DejaVuSans-50"/>
       <use x="63.623047" xlink:href="#DejaVuSans-48"/>
       <use x="127.246094" xlink:href="#DejaVuSans-50"/>
       <use x="190.869141" xlink:href="#DejaVuSans-49"/>
       <use x="254.492188" xlink:href="#DejaVuSans-45"/>
       <use x="290.576172" xlink:href="#DejaVuSans-49"/>
       <use x="354.199219" xlink:href="#DejaVuSans-49"/>
      </g>
     </g>
    </g>
    <g id="xtick_24">
     <g id="line2d_58">
      <path clip-path="url(#pfb62d37ef4)" d="M 798.110071 594.72 
L 798.110071 327.665455 
" style="fill:none;stroke:#d3d3d3;stroke-linecap:square;stroke-width:0.8;"/>
     </g>
     <g id="line2d_59">
      <g>
       <use style="stroke:#000000;stroke-width:0.8;" x="798.110071" xlink:href="#m7c2ee5a1a6" y="594.72"/>
      </g>
     </g>
     <g id="text_18">
      <!-- 2022-01 -->
      <g transform="translate(708.770501 667.652431)rotate(-30)scale(0.24 -0.24)">
       <use xlink:href="#DejaVuSans-50"/>
       <use x="63.623047" xlink:href="#DejaVuSans-48"/>
       <use x="127.246094" xlink:href="#DejaVuSans-50"/>
       <use x="190.869141" xlink:href="#DejaVuSans-50"/>
       <use x="254.492188" xlink:href="#DejaVuSans-45"/>
       <use x="290.576172" xlink:href="#DejaVuSans-48"/>
       <use x="354.199219" xlink:href="#DejaVuSans-49"/>
      </g>
     </g>
    </g>
   </g>
   <g id="matplotlib.axis_4">
    <g id="ytick_6">
     <g id="line2d_60">
      <path clip-path="url(#pfb62d37ef4)" d="M 140.675 594.72 
L 810.275 594.72 
" style="fill:none;stroke:#d3d3d3;stroke-linecap:square;stroke-width:0.8;"/>
     </g>
     <g id="line2d_61">
      <g>
       <use style="stroke:#000000;stroke-width:0.8;" x="140.675" xlink:href="#mae07ab7433" y="594.72"/>
      </g>
     </g>
     <g id="text_19">
      <!-- 0 -->
      <g transform="translate(118.405 603.838125)scale(0.24 -0.24)">
       <use xlink:href="#DejaVuSans-48"/>
      </g>
     </g>
    </g>
    <g id="ytick_7">
     <g id="line2d_62">
      <path clip-path="url(#pfb62d37ef4)" d="M 140.675 519.78824 
L 810.275 519.78824 
" style="fill:none;stroke:#d3d3d3;stroke-linecap:square;stroke-width:0.8;"/>
     </g>
     <g id="line2d_63">
      <g>
       <use style="stroke:#000000;stroke-width:0.8;" x="140.675" xlink:href="#mae07ab7433" y="519.78824"/>
      </g>
     </g>
     <g id="text_20">
      <!-- 5,000 -->
      <g transform="translate(64.9675 528.906365)scale(0.24 -0.24)">
       <use xlink:href="#DejaVuSans-53"/>
       <use x="63.623047" xlink:href="#DejaVuSans-44"/>
       <use x="95.410156" xlink:href="#DejaVuSans-48"/>
       <use x="159.033203" xlink:href="#DejaVuSans-48"/>
       <use x="222.65625" xlink:href="#DejaVuSans-48"/>
      </g>
     </g>
    </g>
    <g id="ytick_8">
     <g id="line2d_64">
      <path clip-path="url(#pfb62d37ef4)" d="M 140.675 444.85648 
L 810.275 444.85648 
" style="fill:none;stroke:#d3d3d3;stroke-linecap:square;stroke-width:0.8;"/>
     </g>
     <g id="line2d_65">
      <g>
       <use style="stroke:#000000;stroke-width:0.8;" x="140.675" xlink:href="#mae07ab7433" y="444.85648"/>
      </g>
     </g>
     <g id="text_21">
      <!-- 10,000 -->
      <g transform="translate(49.6975 453.974605)scale(0.24 -0.24)">
       <use xlink:href="#DejaVuSans-49"/>
       <use x="63.623047" xlink:href="#DejaVuSans-48"/>
       <use x="127.246094" xlink:href="#DejaVuSans-44"/>
       <use x="159.033203" xlink:href="#DejaVuSans-48"/>
       <use x="222.65625" xlink:href="#DejaVuSans-48"/>
       <use x="286.279297" xlink:href="#DejaVuSans-48"/>
      </g>
     </g>
    </g>
    <g id="ytick_9">
     <g id="line2d_66">
      <path clip-path="url(#pfb62d37ef4)" d="M 140.675 369.924719 
L 810.275 369.924719 
" style="fill:none;stroke:#d3d3d3;stroke-linecap:square;stroke-width:0.8;"/>
     </g>
     <g id="line2d_67">
      <g>
       <use style="stroke:#000000;stroke-width:0.8;" x="140.675" xlink:href="#mae07ab7433" y="369.924719"/>
      </g>
     </g>
     <g id="text_22">
      <!-- 15,000 -->
      <g transform="translate(49.6975 379.042844)scale(0.24 -0.24)">
       <use xlink:href="#DejaVuSans-49"/>
       <use x="63.623047" xlink:href="#DejaVuSans-53"/>
       <use x="127.246094" xlink:href="#DejaVuSans-44"/>
       <use x="159.033203" xlink:href="#DejaVuSans-48"/>
       <use x="222.65625" xlink:href="#DejaVuSans-48"/>
       <use x="286.279297" xlink:href="#DejaVuSans-48"/>
      </g>
     </g>
    </g>
    <g id="text_23">
     <!-- Preprints -->
     <defs>
      <path d="M 19.671875 64.796875 
L 19.671875 37.40625 
L 32.078125 37.40625 
Q 38.96875 37.40625 42.71875 40.96875 
Q 46.484375 44.53125 46.484375 51.125 
Q 46.484375 57.671875 42.71875 61.234375 
Q 38.96875 64.796875 32.078125 64.796875 
z
M 9.8125 72.90625 
L 32.078125 72.90625 
Q 44.34375 72.90625 50.609375 67.359375 
Q 56.890625 61.8125 56.890625 51.125 
Q 56.890625 40.328125 50.609375 34.8125 
Q 44.34375 29.296875 32.078125 29.296875 
L 19.671875 29.296875 
L 19.671875 0 
L 9.8125 0 
z
" id="DejaVuSans-80"/>
      <path d="M 56.203125 29.59375 
L 56.203125 25.203125 
L 14.890625 25.203125 
Q 15.484375 15.921875 20.484375 11.0625 
Q 25.484375 6.203125 34.421875 6.203125 
Q 39.59375 6.203125 44.453125 7.46875 
Q 49.3125 8.734375 54.109375 11.28125 
L 54.109375 2.78125 
Q 49.265625 0.734375 44.1875 -0.34375 
Q 39.109375 -1.421875 33.890625 -1.421875 
Q 20.796875 -1.421875 13.15625 6.1875 
Q 5.515625 13.8125 5.515625 26.8125 
Q 5.515625 40.234375 12.765625 48.109375 
Q 20.015625 56 32.328125 56 
Q 43.359375 56 49.78125 48.890625 
Q 56.203125 41.796875 56.203125 29.59375 
z
M 47.21875 32.234375 
Q 47.125 39.59375 43.09375 43.984375 
Q 39.0625 48.390625 32.421875 48.390625 
Q 24.90625 48.390625 20.390625 44.140625 
Q 15.875 39.890625 15.1875 32.171875 
z
" id="DejaVuSans-101"/>
     </defs>
     <g transform="translate(40.70625 515.185227)rotate(-90)scale(0.24 -0.24)">
      <use xlink:href="#DejaVuSans-80"/>
      <use x="60.287109" xlink:href="#DejaVuSans-114"/>
      <use x="101.369141" xlink:href="#DejaVuSans-101"/>
      <use x="162.892578" xlink:href="#DejaVuSans-112"/>
      <use x="226.369141" xlink:href="#DejaVuSans-114"/>
      <use x="267.482422" xlink:href="#DejaVuSans-105"/>
      <use x="295.265625" xlink:href="#DejaVuSans-110"/>
      <use x="358.644531" xlink:href="#DejaVuSans-116"/>
      <use x="397.853516" xlink:href="#DejaVuSans-115"/>
     </g>
    </g>
   </g>
   <g id="line2d_68">
    <path clip-path="url(#pfb62d37ef4)" d="M 171.111364 591.977498 
L 177.842945 590.493849 
L 184.574526 588.620555 
L 191.306107 586.447534 
L 204.76927 582.715932 
L 211.500851 580.333102 
L 222.07905 577.410763 
L 228.810631 575.102865 
L 239.38883 571.880799 
L 241.312139 571.596059 
L 243.235448 570.846741 
L 246.120411 569.962546 
L 248.04372 569.572901 
L 249.967029 568.793611 
L 250.928684 568.523857 
L 251.890338 568.029307 
L 252.851993 567.714594 
L 254.775302 567.474812 
L 256.698611 566.605604 
L 257.660265 566.380808 
L 259.583574 565.736395 
L 261.506883 565.526586 
L 262.468537 565.256832 
L 263.430192 564.792255 
L 267.27681 563.758197 
L 270.161773 563.158743 
L 273.046736 562.214602 
L 274.970045 561.809971 
L 276.893354 561.060653 
L 277.855009 560.685995 
L 280.739972 559.996622 
L 282.663281 559.741854 
L 284.58659 559.007523 
L 289.394862 557.718697 
L 291.318171 557.119243 
L 292.279826 556.744584 
L 296.126443 555.860389 
L 298.049752 555.141044 
L 299.973061 554.391727 
L 301.89637 553.987095 
L 305.742988 552.728242 
L 306.704642 552.458487 
L 308.627951 552.32361 
L 310.55126 551.724156 
L 313.436224 550.88492 
L 317.282841 550.180562 
L 321.129459 549.32634 
L 323.052768 548.921708 
L 324.976077 548.367213 
L 326.899386 547.662855 
L 331.707658 546.823619 
L 337.477585 545.444874 
L 339.400894 544.785475 
L 345.170821 543.706458 
L 347.09413 543.136976 
L 349.017439 542.897195 
L 350.940748 542.252781 
L 351.902402 541.923082 
L 355.74902 541.173764 
L 360.557292 540.049788 
L 362.480601 539.839979 
L 366.327219 538.611098 
L 367.288873 538.251426 
L 369.212182 537.891753 
L 371.135491 537.337258 
L 372.097146 537.202381 
L 373.0588 536.827722 
L 376.905418 536.003473 
L 377.867072 535.568868 
L 379.790381 535.014373 
L 380.752036 534.669687 
L 382.675345 534.36996 
L 388.445271 532.301844 
L 389.406926 532.136994 
L 390.36858 531.807294 
L 393.253544 531.162881 
L 394.215198 530.863154 
L 396.138507 530.533454 
L 401.908434 529.109751 
L 402.870088 528.98986 
L 405.755052 528.090679 
L 406.716706 527.850897 
L 408.640015 527.506211 
L 409.60167 527.461252 
L 410.563324 527.056621 
L 413.448287 526.337276 
L 415.371596 526.082508 
L 419.218214 525.16834 
L 421.141523 524.463982 
L 423.064832 524.254173 
L 424.988141 523.489869 
L 427.873104 522.62066 
L 428.834759 522.45581 
L 435.56634 520.792325 
L 436.527994 520.73238 
L 437.489649 520.462626 
L 438.451303 519.983062 
L 440.374612 519.383608 
L 443.259576 519.038922 
L 447.106193 518.154727 
L 449.991157 517.780069 
L 453.837775 516.74601 
L 456.722738 516.236474 
L 459.607701 515.202416 
L 461.53101 514.707866 
L 463.454319 514.468085 
L 464.415974 514.19833 
L 466.339283 513.389067 
L 470.1859 512.744654 
L 472.109209 512.1452 
L 473.070864 511.965364 
L 474.032518 511.500787 
L 474.994173 511.231033 
L 476.917482 510.916319 
L 483.649063 509.207875 
L 490.380644 507.229677 
L 503.843807 503.677911 
L 510.575388 501.66974 
L 524.03855 498.357756 
L 537.501713 495.255581 
L 557.696456 489.830522 
L 571.159619 486.653415 
L 577.8912 484.944971 
L 591.354362 481.108465 
L 604.817525 476.687491 
L 625.012268 471.007664 
L 631.74385 469.449083 
L 638.475431 467.665707 
L 645.207012 466.107127 
L 651.938593 464.36871 
L 658.670174 462.330566 
L 668.286719 459.857818 
L 672.133337 458.49406 
L 678.864918 456.770629 
L 685.596499 454.822404 
L 699.059662 450.791075 
L 705.791243 449.172549 
L 719.254405 444.796534 
L 725.985987 442.863295 
L 732.717568 441.274741 
L 739.449149 439.371475 
L 746.18073 437.288372 
L 752.912312 435.579928 
L 766.375474 432.357862 
L 779.838636 429.870128 
L 779.838636 429.870128 
" style="fill:none;stroke:#1f77b4;stroke-linecap:square;stroke-width:5;"/>
   </g>
   <g id="line2d_69">
    <path clip-path="url(#pfb62d37ef4)" d="M 171.111364 585.982957 
L 177.842945 583.615113 
L 184.574526 579.793593 
L 191.306107 576.496596 
L 198.037688 572.225486 
L 204.76927 566.935303 
L 211.500851 562.274548 
L 222.07905 552.893091 
L 228.810631 548.247322 
L 235.542212 542.777304 
L 236.503867 540.319542 
L 237.465521 539.750061 
L 238.427176 539.525265 
L 239.38883 538.611098 
L 240.350485 537.921726 
L 241.312139 537.906739 
L 242.273794 537.562053 
L 243.235448 536.348159 
L 244.197103 535.419005 
L 245.158757 535.059333 
L 246.120411 533.710561 
L 247.082066 533.650615 
L 249.005375 532.631543 
L 249.967029 531.552526 
L 250.928684 531.522553 
L 251.890338 531.087949 
L 252.851993 529.409478 
L 253.813647 529.214655 
L 254.775302 528.780051 
L 255.736956 528.735092 
L 256.698611 527.641088 
L 257.660265 527.116566 
L 258.621919 526.756893 
L 260.545228 525.138367 
L 261.506883 525.108395 
L 262.468537 524.613845 
L 263.430192 523.594773 
L 264.391846 523.145183 
L 265.353501 523.010305 
L 266.315155 522.126111 
L 267.27681 522.111124 
L 268.238464 521.691506 
L 269.200118 520.73238 
L 270.161773 520.417667 
L 273.046736 519.158813 
L 274.008391 518.499414 
L 274.970045 518.34955 
L 275.9317 517.944918 
L 276.893354 517.165628 
L 277.855009 516.701051 
L 278.816663 516.536201 
L 279.778318 516.041652 
L 280.739972 515.142471 
L 282.663281 515.097512 
L 283.624935 514.138385 
L 284.58659 513.673808 
L 288.433208 511.560733 
L 289.394862 511.290978 
L 290.356517 510.811415 
L 291.318171 510.541661 
L 292.279826 510.481715 
L 293.24148 509.31278 
L 296.126443 507.814145 
L 297.088098 507.514417 
L 298.049752 506.60025 
L 299.011407 505.98581 
L 299.973061 505.790987 
L 300.934716 505.311424 
L 301.89637 505.071642 
L 302.858025 505.056656 
L 303.819679 503.528048 
L 304.781333 503.468102 
L 306.704642 502.209249 
L 309.589606 502.16429 
L 310.55126 501.384999 
L 312.474569 500.695627 
L 313.436224 499.391815 
L 314.397878 498.972197 
L 316.321187 498.402715 
L 317.282841 498.058029 
L 319.20615 497.818248 
L 321.129459 496.424517 
L 322.091114 496.229694 
L 323.052768 495.855036 
L 324.014423 495.240595 
L 324.976077 494.835964 
L 326.899386 494.776018 
L 329.784349 494.101632 
L 330.746004 492.782833 
L 331.707658 491.748775 
L 337.477585 489.770577 
L 339.400894 488.601641 
L 344.209166 486.773306 
L 346.132475 486.653415 
L 347.09413 484.87004 
L 349.017439 484.750149 
L 349.979093 484.645244 
L 350.940748 484.150695 
L 351.902402 483.161595 
L 352.864056 483.011732 
L 353.825711 482.307373 
L 354.787365 482.307373 
L 355.74902 481.977674 
L 358.633983 480.479038 
L 360.557292 480.089393 
L 361.518947 480.089393 
L 362.480601 479.819639 
L 363.442255 479.370048 
L 364.40391 478.770594 
L 367.288873 478.380949 
L 368.250528 478.380949 
L 369.212182 478.231086 
L 371.135491 477.39185 
L 372.097146 476.5676 
L 374.020455 476.192942 
L 374.982109 476.192942 
L 375.943763 475.983133 
L 376.905418 475.968146 
L 377.867072 475.143897 
L 378.828727 474.51447 
L 379.790381 474.424552 
L 380.752036 473.885043 
L 381.71369 473.885043 
L 382.675345 473.73518 
L 383.636999 473.465426 
L 384.598654 472.071695 
L 385.560308 471.96679 
L 388.445271 471.547173 
L 390.36858 471.35235 
L 391.330235 470.513114 
L 392.291889 469.329192 
L 393.253544 469.104397 
L 394.215198 468.63982 
L 395.176853 468.340093 
L 396.138507 468.310121 
L 399.02347 467.785598 
L 399.985125 467.216117 
L 400.946779 466.496772 
L 401.908434 466.481786 
L 402.870088 466.346908 
L 403.831743 465.657536 
L 404.793397 465.537645 
L 405.755052 464.69841 
L 406.716706 464.563533 
L 409.60167 464.024024 
L 410.563324 463.499502 
L 413.448287 462.900047 
L 415.371596 462.31558 
L 417.294905 460.936835 
L 419.218214 460.397327 
L 420.179869 460.007681 
L 421.141523 459.258364 
L 423.064832 459.228391 
L 424.026486 458.583978 
L 425.949795 458.014497 
L 426.91145 457.99951 
L 427.873104 456.980438 
L 428.834759 456.950466 
L 432.681377 455.541749 
L 433.643031 455.361912 
L 435.56634 454.582622 
L 436.527994 454.417772 
L 437.489649 454.402786 
L 438.451303 453.248837 
L 439.412958 453.083987 
L 440.374612 452.529492 
L 444.22123 452.079901 
L 445.182885 452.064915 
L 446.144539 451.870092 
L 447.106193 451.855106 
L 449.029502 451.375543 
L 449.991157 451.360556 
L 450.952811 450.296525 
L 451.914466 450.056744 
L 452.87612 449.517235 
L 453.837775 449.487262 
L 454.799429 448.857836 
L 455.761084 448.558109 
L 456.722738 448.528136 
L 458.646047 448.063559 
L 459.607701 447.583996 
L 460.569356 447.539037 
L 461.53101 446.295169 
L 463.454319 446.175279 
L 465.377628 446.130319 
L 466.339283 444.931411 
L 467.300937 444.85648 
L 468.262592 444.466834 
L 470.1859 444.421875 
L 471.147555 443.897353 
L 472.109209 442.713431 
L 473.070864 442.503622 
L 474.032518 442.413704 
L 474.994173 441.709346 
L 475.955827 441.634414 
L 476.917482 441.304714 
L 483.649063 438.397362 
L 490.380644 436.584013 
L 497.112225 433.751593 
L 503.843807 431.443694 
L 510.575388 428.536342 
L 524.03855 422.361965 
L 530.770131 418.345623 
L 537.501713 416.59222 
L 550.964875 411.676696 
L 557.696456 408.544549 
L 564.428037 405.891964 
L 571.159619 403.658998 
L 577.8912 401.216222 
L 584.622781 398.398788 
L 604.817525 391.744848 
L 611.549106 390.126322 
L 618.280687 387.353847 
L 625.012268 385.270744 
L 631.74385 381.95876 
L 638.475431 380.085466 
L 645.207012 376.788469 
L 651.938593 374.735338 
L 658.670174 372.817085 
L 668.286719 370.37431 
L 672.133337 369.71491 
L 678.864918 367.481944 
L 685.596499 365.7735 
L 699.059662 362.671325 
L 705.791243 359.853891 
L 719.254405 355.942453 
L 725.985987 354.413845 
L 732.717568 352.630469 
L 739.449149 350.292598 
L 746.18073 349.168622 
L 752.912312 347.04056 
L 779.838636 340.251742 
L 779.838636 340.251742 
" style="fill:none;stroke:#ff7f0e;stroke-linecap:square;stroke-width:5;"/>
   </g>
   <g id="line2d_70">
    <path clip-path="url(#pfb62d37ef4)" d="M 171.111364 591.587852 
L 177.842945 591.033357 
L 184.574526 590.209108 
L 191.306107 589.234995 
L 198.037688 588.081046 
L 204.76927 586.79222 
L 211.500851 585.758161 
L 222.07905 583.764977 
L 228.810631 582.146451 
L 237.465521 580.602856 
L 239.38883 579.928471 
L 247.082066 578.624658 
L 248.04372 578.579699 
L 249.005375 578.294958 
L 250.928684 577.860354 
L 251.890338 577.650545 
L 252.851993 577.275886 
L 254.775302 577.036105 
L 260.545228 575.357633 
L 262.468537 575.117852 
L 264.391846 574.578343 
L 266.315155 574.158725 
L 268.238464 574.023848 
L 269.200118 573.754093 
L 270.161773 573.27453 
L 272.085082 572.735022 
L 275.9317 572.270445 
L 279.778318 571.476168 
L 281.701626 571.38625 
L 284.58659 570.666905 
L 288.433208 570.202328 
L 289.394862 569.917587 
L 292.279826 569.348106 
L 293.24148 569.063365 
L 295.164789 568.898515 
L 296.126443 568.613775 
L 298.049752 568.22413 
L 299.973061 567.759553 
L 301.89637 567.639662 
L 303.819679 567.250017 
L 304.781333 566.980262 
L 306.704642 566.680535 
L 308.627951 566.680535 
L 310.55126 566.141027 
L 320.167805 564.387623 
L 322.091114 564.192801 
L 324.014423 563.878087 
L 326.899386 563.248661 
L 336.515931 561.839944 
L 348.055784 559.936677 
L 349.017439 559.891718 
L 350.940748 559.517059 
L 352.864056 559.232318 
L 353.825711 559.052482 
L 355.74902 558.992537 
L 360.557292 558.123328 
L 363.442255 557.988451 
L 367.288873 557.149215 
L 369.212182 557.074284 
L 371.135491 556.714611 
L 373.0588 556.190089 
L 374.020455 555.935321 
L 375.943763 555.845403 
L 378.828727 555.32088 
L 380.752036 555.03614 
L 382.675345 554.946222 
L 387.483617 554.047041 
L 389.406926 553.897177 
L 391.330235 553.417614 
L 392.291889 553.312709 
L 394.215198 552.788187 
L 396.138507 552.668296 
L 397.100162 552.413528 
L 399.02347 552.128787 
L 399.985125 551.87402 
L 401.908434 551.664211 
L 402.870088 551.649224 
L 405.755052 550.959852 
L 406.716706 550.929879 
L 417.294905 549.790917 
L 420.179869 549.026613 
L 421.141523 548.816804 
L 423.064832 548.621981 
L 424.988141 548.292281 
L 427.873104 547.752773 
L 428.834759 547.707814 
L 433.643031 547.018441 
L 434.604685 546.673755 
L 435.56634 546.673755 
L 436.527994 546.523892 
L 439.412958 545.804547 
L 440.374612 545.609724 
L 443.259576 545.384929 
L 446.144539 544.785475 
L 449.991157 544.545693 
L 451.914466 543.991198 
L 454.799429 543.45169 
L 456.722738 543.421717 
L 457.684393 543.107004 
L 459.607701 542.79229 
L 461.53101 542.447604 
L 463.454319 542.387659 
L 464.415974 542.17785 
L 465.377628 541.788205 
L 469.224246 541.293655 
L 471.147555 541.038887 
L 474.032518 540.214638 
L 476.917482 539.884938 
L 483.649063 538.506193 
L 490.380644 537.57704 
L 497.112225 536.273227 
L 503.843807 535.134264 
L 530.770131 529.619287 
L 537.501713 528.555256 
L 545.194948 527.071607 
L 550.964875 526.44218 
L 557.696456 525.468067 
L 564.428037 523.984418 
L 571.159619 522.695592 
L 577.8912 521.586602 
L 584.622781 520.207858 
L 604.817525 516.58116 
L 611.549106 515.457184 
L 618.280687 514.572989 
L 625.012268 513.568904 
L 631.74385 512.414955 
L 638.475431 511.470814 
L 645.207012 510.316865 
L 651.938593 509.387711 
L 672.133337 505.970823 
L 678.864918 504.951751 
L 685.596499 503.692898 
L 699.059662 501.474918 
L 705.791243 500.500805 
L 719.254405 498.432688 
L 725.985987 497.548493 
L 732.717568 496.514435 
L 739.449149 495.660213 
L 746.18073 494.611168 
L 752.912312 493.711987 
L 779.838636 489.890467 
L 779.838636 489.890467 
" style="fill:none;stroke:#2ca02c;stroke-linecap:square;stroke-width:5;"/>
   </g>
   <g id="patch_6">
    <path d="M 140.675 594.72 
L 140.675 327.665455 
" style="fill:none;stroke:#000000;stroke-linecap:square;stroke-linejoin:miter;stroke-width:0.8;"/>
   </g>
   <g id="patch_7">
    <path d="M 140.675 594.72 
L 810.275 594.72 
" style="fill:none;stroke:#000000;stroke-linecap:square;stroke-linejoin:miter;stroke-width:0.8;"/>
   </g>
   <g id="legend_1">
    <g id="patch_8">
     <path d="M 157.475 452.547955 
L 339.41 452.547955 
Q 344.21 452.547955 344.21 447.747955 
L 344.21 344.465455 
Q 344.21 339.665455 339.41 339.665455 
L 157.475 339.665455 
Q 152.675 339.665455 152.675 344.465455 
L 152.675 447.747955 
Q 152.675 452.547955 157.475 452.547955 
z
" style="fill:#ffffff;opacity:0.8;stroke:#cccccc;stroke-linejoin:miter;"/>
    </g>
    <g id="line2d_71">
     <path d="M 162.275 359.101705 
L 210.275 359.101705 
" style="fill:none;stroke:#1f77b4;stroke-linecap:square;stroke-width:5;"/>
    </g>
    <g id="line2d_72"/>
    <g id="text_24">
     <!-- arXiv -->
     <defs>
      <path d="M 6.296875 72.90625 
L 16.890625 72.90625 
L 35.015625 45.796875 
L 53.21875 72.90625 
L 63.8125 72.90625 
L 40.375 37.890625 
L 65.375 0 
L 54.78125 0 
L 34.28125 31 
L 13.625 0 
L 2.984375 0 
L 29 38.921875 
z
" id="DejaVuSans-88"/>
      <path d="M 2.984375 54.6875 
L 12.5 54.6875 
L 29.59375 8.796875 
L 46.6875 54.6875 
L 56.203125 54.6875 
L 35.6875 0 
L 23.484375 0 
z
" id="DejaVuSans-118"/>
     </defs>
     <g transform="translate(229.475 367.501705)scale(0.24 -0.24)">
      <use xlink:href="#DejaVuSans-97"/>
      <use x="61.279297" xlink:href="#DejaVuSans-114"/>
      <use x="102.392578" xlink:href="#DejaVuSans-88"/>
      <use x="170.898438" xlink:href="#DejaVuSans-105"/>
      <use x="198.681641" xlink:href="#DejaVuSans-118"/>
     </g>
    </g>
    <g id="line2d_73">
     <path d="M 162.275 394.329205 
L 210.275 394.329205 
" style="fill:none;stroke:#ff7f0e;stroke-linecap:square;stroke-width:5;"/>
    </g>
    <g id="line2d_74"/>
    <g id="text_25">
     <!-- medRxiv -->
     <defs>
      <path d="M 45.40625 46.390625 
L 45.40625 75.984375 
L 54.390625 75.984375 
L 54.390625 0 
L 45.40625 0 
L 45.40625 8.203125 
Q 42.578125 3.328125 38.25 0.953125 
Q 33.9375 -1.421875 27.875 -1.421875 
Q 17.96875 -1.421875 11.734375 6.484375 
Q 5.515625 14.40625 5.515625 27.296875 
Q 5.515625 40.1875 11.734375 48.09375 
Q 17.96875 56 27.875 56 
Q 33.9375 56 38.25 53.625 
Q 42.578125 51.265625 45.40625 46.390625 
z
M 14.796875 27.296875 
Q 14.796875 17.390625 18.875 11.75 
Q 22.953125 6.109375 30.078125 6.109375 
Q 37.203125 6.109375 41.296875 11.75 
Q 45.40625 17.390625 45.40625 27.296875 
Q 45.40625 37.203125 41.296875 42.84375 
Q 37.203125 48.484375 30.078125 48.484375 
Q 22.953125 48.484375 18.875 42.84375 
Q 14.796875 37.203125 14.796875 27.296875 
z
" id="DejaVuSans-100"/>
      <path d="M 44.390625 34.1875 
Q 47.5625 33.109375 50.5625 29.59375 
Q 53.5625 26.078125 56.59375 19.921875 
L 66.609375 0 
L 56 0 
L 46.6875 18.703125 
Q 43.0625 26.03125 39.671875 28.421875 
Q 36.28125 30.8125 30.421875 30.8125 
L 19.671875 30.8125 
L 19.671875 0 
L 9.8125 0 
L 9.8125 72.90625 
L 32.078125 72.90625 
Q 44.578125 72.90625 50.734375 67.671875 
Q 56.890625 62.453125 56.890625 51.90625 
Q 56.890625 45.015625 53.6875 40.46875 
Q 50.484375 35.9375 44.390625 34.1875 
z
M 19.671875 64.796875 
L 19.671875 38.921875 
L 32.078125 38.921875 
Q 39.203125 38.921875 42.84375 42.21875 
Q 46.484375 45.515625 46.484375 51.90625 
Q 46.484375 58.296875 42.84375 61.546875 
Q 39.203125 64.796875 32.078125 64.796875 
z
" id="DejaVuSans-82"/>
      <path d="M 54.890625 54.6875 
L 35.109375 28.078125 
L 55.90625 0 
L 45.3125 0 
L 29.390625 21.484375 
L 13.484375 0 
L 2.875 0 
L 24.125 28.609375 
L 4.6875 54.6875 
L 15.28125 54.6875 
L 29.78125 35.203125 
L 44.28125 54.6875 
z
" id="DejaVuSans-120"/>
     </defs>
     <g transform="translate(229.475 402.729205)scale(0.24 -0.24)">
      <use xlink:href="#DejaVuSans-109"/>
      <use x="97.412109" xlink:href="#DejaVuSans-101"/>
      <use x="158.935547" xlink:href="#DejaVuSans-100"/>
      <use x="222.412109" xlink:href="#DejaVuSans-82"/>
      <use x="291.894531" xlink:href="#DejaVuSans-120"/>
      <use x="351.074219" xlink:href="#DejaVuSans-105"/>
      <use x="378.857422" xlink:href="#DejaVuSans-118"/>
     </g>
    </g>
    <g id="line2d_75">
     <path d="M 162.275 429.556705 
L 210.275 429.556705 
" style="fill:none;stroke:#2ca02c;stroke-linecap:square;stroke-width:5;"/>
    </g>
    <g id="line2d_76"/>
    <g id="text_26">
     <!-- bioRxiv -->
     <defs>
      <path d="M 48.6875 27.296875 
Q 48.6875 37.203125 44.609375 42.84375 
Q 40.53125 48.484375 33.40625 48.484375 
Q 26.265625 48.484375 22.1875 42.84375 
Q 18.109375 37.203125 18.109375 27.296875 
Q 18.109375 17.390625 22.1875 11.75 
Q 26.265625 6.109375 33.40625 6.109375 
Q 40.53125 6.109375 44.609375 11.75 
Q 48.6875 17.390625 48.6875 27.296875 
z
M 18.109375 46.390625 
Q 20.953125 51.265625 25.265625 53.625 
Q 29.59375 56 35.59375 56 
Q 45.5625 56 51.78125 48.09375 
Q 58.015625 40.1875 58.015625 27.296875 
Q 58.015625 14.40625 51.78125 6.484375 
Q 45.5625 -1.421875 35.59375 -1.421875 
Q 29.59375 -1.421875 25.265625 0.953125 
Q 20.953125 3.328125 18.109375 8.203125 
L 18.109375 0 
L 9.078125 0 
L 9.078125 75.984375 
L 18.109375 75.984375 
z
" id="DejaVuSans-98"/>
     </defs>
     <g transform="translate(229.475 437.956705)scale(0.24 -0.24)">
      <use xlink:href="#DejaVuSans-98"/>
      <use x="63.476562" xlink:href="#DejaVuSans-105"/>
      <use x="91.259766" xlink:href="#DejaVuSans-111"/>
      <use x="152.441406" xlink:href="#DejaVuSans-82"/>
      <use x="221.923828" xlink:href="#DejaVuSans-120"/>
      <use x="281.103516" xlink:href="#DejaVuSans-105"/>
      <use x="308.886719" xlink:href="#DejaVuSans-118"/>
     </g>
    </g>
   </g>
  </g>
 </g>
 <defs>
  <clipPath id="p38b30c4724">
   <rect height="267.054545" width="669.6" x="140.675" y="7.2"/>
  </clipPath>
  <clipPath id="pfb62d37ef4">
   <rect height="267.054545" width="669.6" x="140.675" y="327.665455"/>
  </clipPath>
 </defs>
</svg>
