<?xml version="1.0" encoding="utf-8" standalone="no"?>
<!DOCTYPE svg PUBLIC "-//W3C//DTD SVG 1.1//EN"
  "http://www.w3.org/Graphics/SVG/1.1/DTD/svg11.dtd">
<!-- Created with matplotlib (https://matplotlib.org/) -->
<svg height="649.902072pt" version="1.1" viewBox="0 0 1212.84375 649.902072" width="1212.84375pt" xmlns="http://www.w3.org/2000/svg" xmlns:xlink="http://www.w3.org/1999/xlink">
 <defs>
  <style type="text/css">
*{stroke-linecap:butt;stroke-linejoin:round;}
  </style>
 </defs>
 <g id="figure_1">
  <g id="patch_1">
   <path d="M 0 649.902072 
L 1212.84375 649.902072 
L 1212.84375 0 
L 0 0 
z
" style="fill:#ffffff;"/>
  </g>
  <g id="axes_1">
   <g id="patch_2">
    <path d="M 89.64375 594.72 
L 596.916477 594.72 
L 596.916477 7.2 
L 89.64375 7.2 
z
" style="fill:#ffffff;"/>
   </g>
   <g id="matplotlib.axis_1">
    <g id="xtick_1">
     <g id="line2d_1">
      <path clip-path="url(#pf5cf93040a)" d="M 91.987692 594.72 
L 91.987692 7.2 
" style="fill:none;stroke:#d3d3d3;stroke-linecap:square;stroke-width:0.8;"/>
     </g>
     <g id="line2d_2">
      <defs>
       <path d="M 0 0 
L 0 3.5 
" id="mb468d4ec75" style="stroke:#000000;stroke-width:0.8;"/>
      </defs>
      <g>
       <use style="stroke:#000000;stroke-width:0.8;" x="91.987692" xlink:href="#mb468d4ec75" y="594.72"/>
      </g>
     </g>
     <g id="text_1">
      <!-- 2020-03 -->
      <defs>
       <path d="M 19.1875 8.296875 
L 53.609375 8.296875 
L 53.609375 0 
L 7.328125 0 
L 7.328125 8.296875 
Q 12.9375 14.109375 22.625 23.890625 
Q 32.328125 33.6875 34.8125 36.53125 
Q 39.546875 41.84375 41.421875 45.53125 
Q 43.3125 49.21875 43.3125 52.78125 
Q 43.3125 58.59375 39.234375 62.25 
Q 35.15625 65.921875 28.609375 65.921875 
Q 23.96875 65.921875 18.8125 64.3125 
Q 13.671875 62.703125 7.8125 59.421875 
L 7.8125 69.390625 
Q 13.765625 71.78125 18.9375 73 
Q 24.125 74.21875 28.421875 74.21875 
Q 39.75 74.21875 46.484375 68.546875 
Q 53.21875 62.890625 53.21875 53.421875 
Q 53.21875 48.921875 51.53125 44.890625 
Q 49.859375 40.875 45.40625 35.40625 
Q 44.1875 33.984375 37.640625 27.21875 
Q 31.109375 20.453125 19.1875 8.296875 
z
" id="DejaVuSans-50"/>
       <path d="M 31.78125 66.40625 
Q 24.171875 66.40625 20.328125 58.90625 
Q 16.5 51.421875 16.5 36.375 
Q 16.5 21.390625 20.328125 13.890625 
Q 24.171875 6.390625 31.78125 6.390625 
Q 39.453125 6.390625 43.28125 13.890625 
Q 47.125 21.390625 47.125 36.375 
Q 47.125 51.421875 43.28125 58.90625 
Q 39.453125 66.40625 31.78125 66.40625 
z
M 31.78125 74.21875 
Q 44.046875 74.21875 50.515625 64.515625 
Q 56.984375 54.828125 56.984375 36.375 
Q 56.984375 17.96875 50.515625 8.265625 
Q 44.046875 -1.421875 31.78125 -1.421875 
Q 19.53125 -1.421875 13.0625 8.265625 
Q 6.59375 17.96875 6.59375 36.375 
Q 6.59375 54.828125 13.0625 64.515625 
Q 19.53125 74.21875 31.78125 74.21875 
z
" id="DejaVuSans-48"/>
       <path d="M 4.890625 31.390625 
L 31.203125 31.390625 
L 31.203125 23.390625 
L 4.890625 23.390625 
z
" id="DejaVuSans-45"/>
       <path d="M 40.578125 39.3125 
Q 47.65625 37.796875 51.625 33 
Q 55.609375 28.21875 55.609375 21.1875 
Q 55.609375 10.40625 48.1875 4.484375 
Q 40.765625 -1.421875 27.09375 -1.421875 
Q 22.515625 -1.421875 17.65625 -0.515625 
Q 12.796875 0.390625 7.625 2.203125 
L 7.625 11.71875 
Q 11.71875 9.328125 16.59375 8.109375 
Q 21.484375 6.890625 26.8125 6.890625 
Q 36.078125 6.890625 40.9375 10.546875 
Q 45.796875 14.203125 45.796875 21.1875 
Q 45.796875 27.640625 41.28125 31.265625 
Q 36.765625 34.90625 28.71875 34.90625 
L 20.21875 34.90625 
L 20.21875 43.015625 
L 29.109375 43.015625 
Q 36.375 43.015625 40.234375 45.921875 
Q 44.09375 48.828125 44.09375 54.296875 
Q 44.09375 59.90625 40.109375 62.90625 
Q 36.140625 65.921875 28.71875 65.921875 
Q 24.65625 65.921875 20.015625 65.03125 
Q 15.375 64.15625 9.8125 62.3125 
L 9.8125 71.09375 
Q 15.4375 72.65625 20.34375 73.4375 
Q 25.25 74.21875 29.59375 74.21875 
Q 40.828125 74.21875 47.359375 69.109375 
Q 53.90625 64.015625 53.90625 55.328125 
Q 53.90625 49.265625 50.4375 45.09375 
Q 46.96875 40.921875 40.578125 39.3125 
z
" id="DejaVuSans-51"/>
      </defs>
      <g transform="translate(39.872943 640.180585)rotate(-30)scale(0.14 -0.14)">
       <use xlink:href="#DejaVuSans-50"/>
       <use x="63.623047" xlink:href="#DejaVuSans-48"/>
       <use x="127.246094" xlink:href="#DejaVuSans-50"/>
       <use x="190.869141" xlink:href="#DejaVuSans-48"/>
       <use x="254.492188" xlink:href="#DejaVuSans-45"/>
       <use x="290.576172" xlink:href="#DejaVuSans-48"/>
       <use x="354.199219" xlink:href="#DejaVuSans-51"/>
      </g>
     </g>
    </g>
    <g id="xtick_2">
     <g id="line2d_3">
      <path clip-path="url(#pf5cf93040a)" d="M 158.490242 594.72 
L 158.490242 7.2 
" style="fill:none;stroke:#d3d3d3;stroke-linecap:square;stroke-width:0.8;"/>
     </g>
     <g id="line2d_4">
      <g>
       <use style="stroke:#000000;stroke-width:0.8;" x="158.490242" xlink:href="#mb468d4ec75" y="594.72"/>
      </g>
     </g>
     <g id="text_2">
      <!-- 2020-05 -->
      <defs>
       <path d="M 10.796875 72.90625 
L 49.515625 72.90625 
L 49.515625 64.59375 
L 19.828125 64.59375 
L 19.828125 46.734375 
Q 21.96875 47.46875 24.109375 47.828125 
Q 26.265625 48.1875 28.421875 48.1875 
Q 40.625 48.1875 47.75 41.5 
Q 54.890625 34.8125 54.890625 23.390625 
Q 54.890625 11.625 47.5625 5.09375 
Q 40.234375 -1.421875 26.90625 -1.421875 
Q 22.3125 -1.421875 17.546875 -0.640625 
Q 12.796875 0.140625 7.71875 1.703125 
L 7.71875 11.625 
Q 12.109375 9.234375 16.796875 8.0625 
Q 21.484375 6.890625 26.703125 6.890625 
Q 35.15625 6.890625 40.078125 11.328125 
Q 45.015625 15.765625 45.015625 23.390625 
Q 45.015625 31 40.078125 35.4375 
Q 35.15625 39.890625 26.703125 39.890625 
Q 22.75 39.890625 18.8125 39.015625 
Q 14.890625 38.140625 10.796875 36.28125 
z
" id="DejaVuSans-53"/>
      </defs>
      <g transform="translate(106.375493 640.180585)rotate(-30)scale(0.14 -0.14)">
       <use xlink:href="#DejaVuSans-50"/>
       <use x="63.623047" xlink:href="#DejaVuSans-48"/>
       <use x="127.246094" xlink:href="#DejaVuSans-50"/>
       <use x="190.869141" xlink:href="#DejaVuSans-48"/>
       <use x="254.492188" xlink:href="#DejaVuSans-45"/>
       <use x="290.576172" xlink:href="#DejaVuSans-48"/>
       <use x="354.199219" xlink:href="#DejaVuSans-53"/>
      </g>
     </g>
    </g>
    <g id="xtick_3">
     <g id="line2d_5">
      <path clip-path="url(#pf5cf93040a)" d="M 224.992792 594.72 
L 224.992792 7.2 
" style="fill:none;stroke:#d3d3d3;stroke-linecap:square;stroke-width:0.8;"/>
     </g>
     <g id="line2d_6">
      <g>
       <use style="stroke:#000000;stroke-width:0.8;" x="224.992792" xlink:href="#mb468d4ec75" y="594.72"/>
      </g>
     </g>
     <g id="text_3">
      <!-- 2020-07 -->
      <defs>
       <path d="M 8.203125 72.90625 
L 55.078125 72.90625 
L 55.078125 68.703125 
L 28.609375 0 
L 18.3125 0 
L 43.21875 64.59375 
L 8.203125 64.59375 
z
" id="DejaVuSans-55"/>
      </defs>
      <g transform="translate(172.878043 640.180585)rotate(-30)scale(0.14 -0.14)">
       <use xlink:href="#DejaVuSans-50"/>
       <use x="63.623047" xlink:href="#DejaVuSans-48"/>
       <use x="127.246094" xlink:href="#DejaVuSans-50"/>
       <use x="190.869141" xlink:href="#DejaVuSans-48"/>
       <use x="254.492188" xlink:href="#DejaVuSans-45"/>
       <use x="290.576172" xlink:href="#DejaVuSans-48"/>
       <use x="354.199219" xlink:href="#DejaVuSans-55"/>
      </g>
     </g>
    </g>
    <g id="xtick_4">
     <g id="line2d_7">
      <path clip-path="url(#pf5cf93040a)" d="M 292.585547 594.72 
L 292.585547 7.2 
" style="fill:none;stroke:#d3d3d3;stroke-linecap:square;stroke-width:0.8;"/>
     </g>
     <g id="line2d_8">
      <g>
       <use style="stroke:#000000;stroke-width:0.8;" x="292.585547" xlink:href="#mb468d4ec75" y="594.72"/>
      </g>
     </g>
     <g id="text_4">
      <!-- 2020-09 -->
      <defs>
       <path d="M 10.984375 1.515625 
L 10.984375 10.5 
Q 14.703125 8.734375 18.5 7.8125 
Q 22.3125 6.890625 25.984375 6.890625 
Q 35.75 6.890625 40.890625 13.453125 
Q 46.046875 20.015625 46.78125 33.40625 
Q 43.953125 29.203125 39.59375 26.953125 
Q 35.25 24.703125 29.984375 24.703125 
Q 19.046875 24.703125 12.671875 31.3125 
Q 6.296875 37.9375 6.296875 49.421875 
Q 6.296875 60.640625 12.9375 67.421875 
Q 19.578125 74.21875 30.609375 74.21875 
Q 43.265625 74.21875 49.921875 64.515625 
Q 56.59375 54.828125 56.59375 36.375 
Q 56.59375 19.140625 48.40625 8.859375 
Q 40.234375 -1.421875 26.421875 -1.421875 
Q 22.703125 -1.421875 18.890625 -0.6875 
Q 15.09375 0.046875 10.984375 1.515625 
z
M 30.609375 32.421875 
Q 37.25 32.421875 41.125 36.953125 
Q 45.015625 41.5 45.015625 49.421875 
Q 45.015625 57.28125 41.125 61.84375 
Q 37.25 66.40625 30.609375 66.40625 
Q 23.96875 66.40625 20.09375 61.84375 
Q 16.21875 57.28125 16.21875 49.421875 
Q 16.21875 41.5 20.09375 36.953125 
Q 23.96875 32.421875 30.609375 32.421875 
z
" id="DejaVuSans-57"/>
      </defs>
      <g transform="translate(240.470798 640.180585)rotate(-30)scale(0.14 -0.14)">
       <use xlink:href="#DejaVuSans-50"/>
       <use x="63.623047" xlink:href="#DejaVuSans-48"/>
       <use x="127.246094" xlink:href="#DejaVuSans-50"/>
       <use x="190.869141" xlink:href="#DejaVuSans-48"/>
       <use x="254.492188" xlink:href="#DejaVuSans-45"/>
       <use x="290.576172" xlink:href="#DejaVuSans-48"/>
       <use x="354.199219" xlink:href="#DejaVuSans-57"/>
      </g>
     </g>
    </g>
    <g id="xtick_5">
     <g id="line2d_9">
      <path clip-path="url(#pf5cf93040a)" d="M 359.088097 594.72 
L 359.088097 7.2 
" style="fill:none;stroke:#d3d3d3;stroke-linecap:square;stroke-width:0.8;"/>
     </g>
     <g id="line2d_10">
      <g>
       <use style="stroke:#000000;stroke-width:0.8;" x="359.088097" xlink:href="#mb468d4ec75" y="594.72"/>
      </g>
     </g>
     <g id="text_5">
      <!-- 2020-11 -->
      <defs>
       <path d="M 12.40625 8.296875 
L 28.515625 8.296875 
L 28.515625 63.921875 
L 10.984375 60.40625 
L 10.984375 69.390625 
L 28.421875 72.90625 
L 38.28125 72.90625 
L 38.28125 8.296875 
L 54.390625 8.296875 
L 54.390625 0 
L 12.40625 0 
z
" id="DejaVuSans-49"/>
      </defs>
      <g transform="translate(306.973348 640.180585)rotate(-30)scale(0.14 -0.14)">
       <use xlink:href="#DejaVuSans-50"/>
       <use x="63.623047" xlink:href="#DejaVuSans-48"/>
       <use x="127.246094" xlink:href="#DejaVuSans-50"/>
       <use x="190.869141" xlink:href="#DejaVuSans-48"/>
       <use x="254.492188" xlink:href="#DejaVuSans-45"/>
       <use x="290.576172" xlink:href="#DejaVuSans-49"/>
       <use x="354.199219" xlink:href="#DejaVuSans-49"/>
      </g>
     </g>
    </g>
    <g id="xtick_6">
     <g id="line2d_11">
      <path clip-path="url(#pf5cf93040a)" d="M 425.590646 594.72 
L 425.590646 7.2 
" style="fill:none;stroke:#d3d3d3;stroke-linecap:square;stroke-width:0.8;"/>
     </g>
     <g id="line2d_12">
      <g>
       <use style="stroke:#000000;stroke-width:0.8;" x="425.590646" xlink:href="#mb468d4ec75" y="594.72"/>
      </g>
     </g>
     <g id="text_6">
      <!-- 2021-01 -->
      <g transform="translate(373.475897 640.180585)rotate(-30)scale(0.14 -0.14)">
       <use xlink:href="#DejaVuSans-50"/>
       <use x="63.623047" xlink:href="#DejaVuSans-48"/>
       <use x="127.246094" xlink:href="#DejaVuSans-50"/>
       <use x="190.869141" xlink:href="#DejaVuSans-49"/>
       <use x="254.492188" xlink:href="#DejaVuSans-45"/>
       <use x="290.576172" xlink:href="#DejaVuSans-48"/>
       <use x="354.199219" xlink:href="#DejaVuSans-49"/>
      </g>
     </g>
    </g>
    <g id="xtick_7">
     <g id="line2d_13">
      <path clip-path="url(#pf5cf93040a)" d="M 489.912785 594.72 
L 489.912785 7.2 
" style="fill:none;stroke:#d3d3d3;stroke-linecap:square;stroke-width:0.8;"/>
     </g>
     <g id="line2d_14">
      <g>
       <use style="stroke:#000000;stroke-width:0.8;" x="489.912785" xlink:href="#mb468d4ec75" y="594.72"/>
      </g>
     </g>
     <g id="text_7">
      <!-- 2021-03 -->
      <g transform="translate(437.798035 640.180585)rotate(-30)scale(0.14 -0.14)">
       <use xlink:href="#DejaVuSans-50"/>
       <use x="63.623047" xlink:href="#DejaVuSans-48"/>
       <use x="127.246094" xlink:href="#DejaVuSans-50"/>
       <use x="190.869141" xlink:href="#DejaVuSans-49"/>
       <use x="254.492188" xlink:href="#DejaVuSans-45"/>
       <use x="290.576172" xlink:href="#DejaVuSans-48"/>
       <use x="354.199219" xlink:href="#DejaVuSans-51"/>
      </g>
     </g>
    </g>
    <g id="xtick_8">
     <g id="line2d_15">
      <path clip-path="url(#pf5cf93040a)" d="M 556.415334 594.72 
L 556.415334 7.2 
" style="fill:none;stroke:#d3d3d3;stroke-linecap:square;stroke-width:0.8;"/>
     </g>
     <g id="line2d_16">
      <g>
       <use style="stroke:#000000;stroke-width:0.8;" x="556.415334" xlink:href="#mb468d4ec75" y="594.72"/>
      </g>
     </g>
     <g id="text_8">
      <!-- 2021-05 -->
      <g transform="translate(504.300585 640.180585)rotate(-30)scale(0.14 -0.14)">
       <use xlink:href="#DejaVuSans-50"/>
       <use x="63.623047" xlink:href="#DejaVuSans-48"/>
       <use x="127.246094" xlink:href="#DejaVuSans-50"/>
       <use x="190.869141" xlink:href="#DejaVuSans-49"/>
       <use x="254.492188" xlink:href="#DejaVuSans-45"/>
       <use x="290.576172" xlink:href="#DejaVuSans-48"/>
       <use x="354.199219" xlink:href="#DejaVuSans-53"/>
      </g>
     </g>
    </g>
   </g>
   <g id="matplotlib.axis_2">
    <g id="ytick_1">
     <g id="line2d_17">
      <path clip-path="url(#pf5cf93040a)" d="M 89.64375 594.72 
L 596.916477 594.72 
" style="fill:none;stroke:#d3d3d3;stroke-linecap:square;stroke-width:0.8;"/>
     </g>
     <g id="line2d_18">
      <defs>
       <path d="M 0 0 
L -3.5 0 
" id="m22b61b7e9f" style="stroke:#000000;stroke-width:0.8;"/>
      </defs>
      <g>
       <use style="stroke:#000000;stroke-width:0.8;" x="89.64375" xlink:href="#m22b61b7e9f" y="594.72"/>
      </g>
     </g>
     <g id="text_9">
      <!-- 0 -->
      <g transform="translate(73.73625 600.038906)scale(0.14 -0.14)">
       <use xlink:href="#DejaVuSans-48"/>
      </g>
     </g>
    </g>
    <g id="ytick_2">
     <g id="line2d_19">
      <path clip-path="url(#pf5cf93040a)" d="M 89.64375 497.770585 
L 596.916477 497.770585 
" style="fill:none;stroke:#d3d3d3;stroke-linecap:square;stroke-width:0.8;"/>
     </g>
     <g id="line2d_20">
      <g>
       <use style="stroke:#000000;stroke-width:0.8;" x="89.64375" xlink:href="#m22b61b7e9f" y="497.770585"/>
      </g>
     </g>
     <g id="text_10">
      <!-- 100,000 -->
      <defs>
       <path d="M 11.71875 12.40625 
L 22.015625 12.40625 
L 22.015625 4 
L 14.015625 -11.625 
L 7.71875 -11.625 
L 11.71875 4 
z
" id="DejaVuSans-44"/>
      </defs>
      <g transform="translate(24.749375 503.089491)scale(0.14 -0.14)">
       <use xlink:href="#DejaVuSans-49"/>
       <use x="63.623047" xlink:href="#DejaVuSans-48"/>
       <use x="127.246094" xlink:href="#DejaVuSans-48"/>
       <use x="190.869141" xlink:href="#DejaVuSans-44"/>
       <use x="222.65625" xlink:href="#DejaVuSans-48"/>
       <use x="286.279297" xlink:href="#DejaVuSans-48"/>
       <use x="349.902344" xlink:href="#DejaVuSans-48"/>
      </g>
     </g>
    </g>
    <g id="ytick_3">
     <g id="line2d_21">
      <path clip-path="url(#pf5cf93040a)" d="M 89.64375 400.82117 
L 596.916477 400.82117 
" style="fill:none;stroke:#d3d3d3;stroke-linecap:square;stroke-width:0.8;"/>
     </g>
     <g id="line2d_22">
      <g>
       <use style="stroke:#000000;stroke-width:0.8;" x="89.64375" xlink:href="#m22b61b7e9f" y="400.82117"/>
      </g>
     </g>
     <g id="text_11">
      <!-- 200,000 -->
      <g transform="translate(24.749375 406.140076)scale(0.14 -0.14)">
       <use xlink:href="#DejaVuSans-50"/>
       <use x="63.623047" xlink:href="#DejaVuSans-48"/>
       <use x="127.246094" xlink:href="#DejaVuSans-48"/>
       <use x="190.869141" xlink:href="#DejaVuSans-44"/>
       <use x="222.65625" xlink:href="#DejaVuSans-48"/>
       <use x="286.279297" xlink:href="#DejaVuSans-48"/>
       <use x="349.902344" xlink:href="#DejaVuSans-48"/>
      </g>
     </g>
    </g>
    <g id="ytick_4">
     <g id="line2d_23">
      <path clip-path="url(#pf5cf93040a)" d="M 89.64375 303.871754 
L 596.916477 303.871754 
" style="fill:none;stroke:#d3d3d3;stroke-linecap:square;stroke-width:0.8;"/>
     </g>
     <g id="line2d_24">
      <g>
       <use style="stroke:#000000;stroke-width:0.8;" x="89.64375" xlink:href="#m22b61b7e9f" y="303.871754"/>
      </g>
     </g>
     <g id="text_12">
      <!-- 300,000 -->
      <g transform="translate(24.749375 309.190661)scale(0.14 -0.14)">
       <use xlink:href="#DejaVuSans-51"/>
       <use x="63.623047" xlink:href="#DejaVuSans-48"/>
       <use x="127.246094" xlink:href="#DejaVuSans-48"/>
       <use x="190.869141" xlink:href="#DejaVuSans-44"/>
       <use x="222.65625" xlink:href="#DejaVuSans-48"/>
       <use x="286.279297" xlink:href="#DejaVuSans-48"/>
       <use x="349.902344" xlink:href="#DejaVuSans-48"/>
      </g>
     </g>
    </g>
    <g id="ytick_5">
     <g id="line2d_25">
      <path clip-path="url(#pf5cf93040a)" d="M 89.64375 206.922339 
L 596.916477 206.922339 
" style="fill:none;stroke:#d3d3d3;stroke-linecap:square;stroke-width:0.8;"/>
     </g>
     <g id="line2d_26">
      <g>
       <use style="stroke:#000000;stroke-width:0.8;" x="89.64375" xlink:href="#m22b61b7e9f" y="206.922339"/>
      </g>
     </g>
     <g id="text_13">
      <!-- 400,000 -->
      <defs>
       <path d="M 37.796875 64.3125 
L 12.890625 25.390625 
L 37.796875 25.390625 
z
M 35.203125 72.90625 
L 47.609375 72.90625 
L 47.609375 25.390625 
L 58.015625 25.390625 
L 58.015625 17.1875 
L 47.609375 17.1875 
L 47.609375 0 
L 37.796875 0 
L 37.796875 17.1875 
L 4.890625 17.1875 
L 4.890625 26.703125 
z
" id="DejaVuSans-52"/>
      </defs>
      <g transform="translate(24.749375 212.241246)scale(0.14 -0.14)">
       <use xlink:href="#DejaVuSans-52"/>
       <use x="63.623047" xlink:href="#DejaVuSans-48"/>
       <use x="127.246094" xlink:href="#DejaVuSans-48"/>
       <use x="190.869141" xlink:href="#DejaVuSans-44"/>
       <use x="222.65625" xlink:href="#DejaVuSans-48"/>
       <use x="286.279297" xlink:href="#DejaVuSans-48"/>
       <use x="349.902344" xlink:href="#DejaVuSans-48"/>
      </g>
     </g>
    </g>
    <g id="ytick_6">
     <g id="line2d_27">
      <path clip-path="url(#pf5cf93040a)" d="M 89.64375 109.972924 
L 596.916477 109.972924 
" style="fill:none;stroke:#d3d3d3;stroke-linecap:square;stroke-width:0.8;"/>
     </g>
     <g id="line2d_28">
      <g>
       <use style="stroke:#000000;stroke-width:0.8;" x="89.64375" xlink:href="#m22b61b7e9f" y="109.972924"/>
      </g>
     </g>
     <g id="text_14">
      <!-- 500,000 -->
      <g transform="translate(24.749375 115.29183)scale(0.14 -0.14)">
       <use xlink:href="#DejaVuSans-53"/>
       <use x="63.623047" xlink:href="#DejaVuSans-48"/>
       <use x="127.246094" xlink:href="#DejaVuSans-48"/>
       <use x="190.869141" xlink:href="#DejaVuSans-44"/>
       <use x="222.65625" xlink:href="#DejaVuSans-48"/>
       <use x="286.279297" xlink:href="#DejaVuSans-48"/>
       <use x="349.902344" xlink:href="#DejaVuSans-48"/>
      </g>
     </g>
    </g>
    <g id="ytick_7">
     <g id="line2d_29">
      <path clip-path="url(#pf5cf93040a)" d="M 89.64375 13.023509 
L 596.916477 13.023509 
" style="fill:none;stroke:#d3d3d3;stroke-linecap:square;stroke-width:0.8;"/>
     </g>
     <g id="line2d_30">
      <g>
       <use style="stroke:#000000;stroke-width:0.8;" x="89.64375" xlink:href="#m22b61b7e9f" y="13.023509"/>
      </g>
     </g>
     <g id="text_15">
      <!-- 600,000 -->
      <defs>
       <path d="M 33.015625 40.375 
Q 26.375 40.375 22.484375 35.828125 
Q 18.609375 31.296875 18.609375 23.390625 
Q 18.609375 15.53125 22.484375 10.953125 
Q 26.375 6.390625 33.015625 6.390625 
Q 39.65625 6.390625 43.53125 10.953125 
Q 47.40625 15.53125 47.40625 23.390625 
Q 47.40625 31.296875 43.53125 35.828125 
Q 39.65625 40.375 33.015625 40.375 
z
M 52.59375 71.296875 
L 52.59375 62.3125 
Q 48.875 64.0625 45.09375 64.984375 
Q 41.3125 65.921875 37.59375 65.921875 
Q 27.828125 65.921875 22.671875 59.328125 
Q 17.53125 52.734375 16.796875 39.40625 
Q 19.671875 43.65625 24.015625 45.921875 
Q 28.375 48.1875 33.59375 48.1875 
Q 44.578125 48.1875 50.953125 41.515625 
Q 57.328125 34.859375 57.328125 23.390625 
Q 57.328125 12.15625 50.6875 5.359375 
Q 44.046875 -1.421875 33.015625 -1.421875 
Q 20.359375 -1.421875 13.671875 8.265625 
Q 6.984375 17.96875 6.984375 36.375 
Q 6.984375 53.65625 15.1875 63.9375 
Q 23.390625 74.21875 37.203125 74.21875 
Q 40.921875 74.21875 44.703125 73.484375 
Q 48.484375 72.75 52.59375 71.296875 
z
" id="DejaVuSans-54"/>
      </defs>
      <g transform="translate(24.749375 18.342415)scale(0.14 -0.14)">
       <use xlink:href="#DejaVuSans-54"/>
       <use x="63.623047" xlink:href="#DejaVuSans-48"/>
       <use x="127.246094" xlink:href="#DejaVuSans-48"/>
       <use x="190.869141" xlink:href="#DejaVuSans-44"/>
       <use x="222.65625" xlink:href="#DejaVuSans-48"/>
       <use x="286.279297" xlink:href="#DejaVuSans-48"/>
       <use x="349.902344" xlink:href="#DejaVuSans-48"/>
      </g>
     </g>
    </g>
    <g id="text_16">
     <!-- Total manuscripts -->
     <defs>
      <path d="M -0.296875 72.90625 
L 61.375 72.90625 
L 61.375 64.59375 
L 35.5 64.59375 
L 35.5 0 
L 25.59375 0 
L 25.59375 64.59375 
L -0.296875 64.59375 
z
" id="DejaVuSans-84"/>
      <path d="M 30.609375 48.390625 
Q 23.390625 48.390625 19.1875 42.75 
Q 14.984375 37.109375 14.984375 27.296875 
Q 14.984375 17.484375 19.15625 11.84375 
Q 23.34375 6.203125 30.609375 6.203125 
Q 37.796875 6.203125 41.984375 11.859375 
Q 46.1875 17.53125 46.1875 27.296875 
Q 46.1875 37.015625 41.984375 42.703125 
Q 37.796875 48.390625 30.609375 48.390625 
z
M 30.609375 56 
Q 42.328125 56 49.015625 48.375 
Q 55.71875 40.765625 55.71875 27.296875 
Q 55.71875 13.875 49.015625 6.21875 
Q 42.328125 -1.421875 30.609375 -1.421875 
Q 18.84375 -1.421875 12.171875 6.21875 
Q 5.515625 13.875 5.515625 27.296875 
Q 5.515625 40.765625 12.171875 48.375 
Q 18.84375 56 30.609375 56 
z
" id="DejaVuSans-111"/>
      <path d="M 18.3125 70.21875 
L 18.3125 54.6875 
L 36.8125 54.6875 
L 36.8125 47.703125 
L 18.3125 47.703125 
L 18.3125 18.015625 
Q 18.3125 11.328125 20.140625 9.421875 
Q 21.96875 7.515625 27.59375 7.515625 
L 36.8125 7.515625 
L 36.8125 0 
L 27.59375 0 
Q 17.1875 0 13.234375 3.875 
Q 9.28125 7.765625 9.28125 18.015625 
L 9.28125 47.703125 
L 2.6875 47.703125 
L 2.6875 54.6875 
L 9.28125 54.6875 
L 9.28125 70.21875 
z
" id="DejaVuSans-116"/>
      <path d="M 34.28125 27.484375 
Q 23.390625 27.484375 19.1875 25 
Q 14.984375 22.515625 14.984375 16.5 
Q 14.984375 11.71875 18.140625 8.90625 
Q 21.296875 6.109375 26.703125 6.109375 
Q 34.1875 6.109375 38.703125 11.40625 
Q 43.21875 16.703125 43.21875 25.484375 
L 43.21875 27.484375 
z
M 52.203125 31.203125 
L 52.203125 0 
L 43.21875 0 
L 43.21875 8.296875 
Q 40.140625 3.328125 35.546875 0.953125 
Q 30.953125 -1.421875 24.3125 -1.421875 
Q 15.921875 -1.421875 10.953125 3.296875 
Q 6 8.015625 6 15.921875 
Q 6 25.140625 12.171875 29.828125 
Q 18.359375 34.515625 30.609375 34.515625 
L 43.21875 34.515625 
L 43.21875 35.40625 
Q 43.21875 41.609375 39.140625 45 
Q 35.0625 48.390625 27.6875 48.390625 
Q 23 48.390625 18.546875 47.265625 
Q 14.109375 46.140625 10.015625 43.890625 
L 10.015625 52.203125 
Q 14.9375 54.109375 19.578125 55.046875 
Q 24.21875 56 28.609375 56 
Q 40.484375 56 46.34375 49.84375 
Q 52.203125 43.703125 52.203125 31.203125 
z
" id="DejaVuSans-97"/>
      <path d="M 9.421875 75.984375 
L 18.40625 75.984375 
L 18.40625 0 
L 9.421875 0 
z
" id="DejaVuSans-108"/>
      <path id="DejaVuSans-32"/>
      <path d="M 52 44.1875 
Q 55.375 50.25 60.0625 53.125 
Q 64.75 56 71.09375 56 
Q 79.640625 56 84.28125 50.015625 
Q 88.921875 44.046875 88.921875 33.015625 
L 88.921875 0 
L 79.890625 0 
L 79.890625 32.71875 
Q 79.890625 40.578125 77.09375 44.375 
Q 74.3125 48.1875 68.609375 48.1875 
Q 61.625 48.1875 57.5625 43.546875 
Q 53.515625 38.921875 53.515625 30.90625 
L 53.515625 0 
L 44.484375 0 
L 44.484375 32.71875 
Q 44.484375 40.625 41.703125 44.40625 
Q 38.921875 48.1875 33.109375 48.1875 
Q 26.21875 48.1875 22.15625 43.53125 
Q 18.109375 38.875 18.109375 30.90625 
L 18.109375 0 
L 9.078125 0 
L 9.078125 54.6875 
L 18.109375 54.6875 
L 18.109375 46.1875 
Q 21.1875 51.21875 25.484375 53.609375 
Q 29.78125 56 35.6875 56 
Q 41.65625 56 45.828125 52.96875 
Q 50 49.953125 52 44.1875 
z
" id="DejaVuSans-109"/>
      <path d="M 54.890625 33.015625 
L 54.890625 0 
L 45.90625 0 
L 45.90625 32.71875 
Q 45.90625 40.484375 42.875 44.328125 
Q 39.84375 48.1875 33.796875 48.1875 
Q 26.515625 48.1875 22.3125 43.546875 
Q 18.109375 38.921875 18.109375 30.90625 
L 18.109375 0 
L 9.078125 0 
L 9.078125 54.6875 
L 18.109375 54.6875 
L 18.109375 46.1875 
Q 21.34375 51.125 25.703125 53.5625 
Q 30.078125 56 35.796875 56 
Q 45.21875 56 50.046875 50.171875 
Q 54.890625 44.34375 54.890625 33.015625 
z
" id="DejaVuSans-110"/>
      <path d="M 8.5 21.578125 
L 8.5 54.6875 
L 17.484375 54.6875 
L 17.484375 21.921875 
Q 17.484375 14.15625 20.5 10.265625 
Q 23.53125 6.390625 29.59375 6.390625 
Q 36.859375 6.390625 41.078125 11.03125 
Q 45.3125 15.671875 45.3125 23.6875 
L 45.3125 54.6875 
L 54.296875 54.6875 
L 54.296875 0 
L 45.3125 0 
L 45.3125 8.40625 
Q 42.046875 3.421875 37.71875 1 
Q 33.40625 -1.421875 27.6875 -1.421875 
Q 18.265625 -1.421875 13.375 4.4375 
Q 8.5 10.296875 8.5 21.578125 
z
M 31.109375 56 
z
" id="DejaVuSans-117"/>
      <path d="M 44.28125 53.078125 
L 44.28125 44.578125 
Q 40.484375 46.53125 36.375 47.5 
Q 32.28125 48.484375 27.875 48.484375 
Q 21.1875 48.484375 17.84375 46.4375 
Q 14.5 44.390625 14.5 40.28125 
Q 14.5 37.15625 16.890625 35.375 
Q 19.28125 33.59375 26.515625 31.984375 
L 29.59375 31.296875 
Q 39.15625 29.25 43.1875 25.515625 
Q 47.21875 21.78125 47.21875 15.09375 
Q 47.21875 7.46875 41.1875 3.015625 
Q 35.15625 -1.421875 24.609375 -1.421875 
Q 20.21875 -1.421875 15.453125 -0.5625 
Q 10.6875 0.296875 5.421875 2 
L 5.421875 11.28125 
Q 10.40625 8.6875 15.234375 7.390625 
Q 20.0625 6.109375 24.8125 6.109375 
Q 31.15625 6.109375 34.5625 8.28125 
Q 37.984375 10.453125 37.984375 14.40625 
Q 37.984375 18.0625 35.515625 20.015625 
Q 33.0625 21.96875 24.703125 23.78125 
L 21.578125 24.515625 
Q 13.234375 26.265625 9.515625 29.90625 
Q 5.8125 33.546875 5.8125 39.890625 
Q 5.8125 47.609375 11.28125 51.796875 
Q 16.75 56 26.8125 56 
Q 31.78125 56 36.171875 55.265625 
Q 40.578125 54.546875 44.28125 53.078125 
z
" id="DejaVuSans-115"/>
      <path d="M 48.78125 52.59375 
L 48.78125 44.1875 
Q 44.96875 46.296875 41.140625 47.34375 
Q 37.3125 48.390625 33.40625 48.390625 
Q 24.65625 48.390625 19.8125 42.84375 
Q 14.984375 37.3125 14.984375 27.296875 
Q 14.984375 17.28125 19.8125 11.734375 
Q 24.65625 6.203125 33.40625 6.203125 
Q 37.3125 6.203125 41.140625 7.25 
Q 44.96875 8.296875 48.78125 10.40625 
L 48.78125 2.09375 
Q 45.015625 0.34375 40.984375 -0.53125 
Q 36.96875 -1.421875 32.421875 -1.421875 
Q 20.0625 -1.421875 12.78125 6.34375 
Q 5.515625 14.109375 5.515625 27.296875 
Q 5.515625 40.671875 12.859375 48.328125 
Q 20.21875 56 33.015625 56 
Q 37.15625 56 41.109375 55.140625 
Q 45.0625 54.296875 48.78125 52.59375 
z
" id="DejaVuSans-99"/>
      <path d="M 41.109375 46.296875 
Q 39.59375 47.171875 37.8125 47.578125 
Q 36.03125 48 33.890625 48 
Q 26.265625 48 22.1875 43.046875 
Q 18.109375 38.09375 18.109375 28.8125 
L 18.109375 0 
L 9.078125 0 
L 9.078125 54.6875 
L 18.109375 54.6875 
L 18.109375 46.1875 
Q 20.953125 51.171875 25.484375 53.578125 
Q 30.03125 56 36.53125 56 
Q 37.453125 56 38.578125 55.875 
Q 39.703125 55.765625 41.0625 55.515625 
z
" id="DejaVuSans-114"/>
      <path d="M 9.421875 54.6875 
L 18.40625 54.6875 
L 18.40625 0 
L 9.421875 0 
z
M 9.421875 75.984375 
L 18.40625 75.984375 
L 18.40625 64.59375 
L 9.421875 64.59375 
z
" id="DejaVuSans-105"/>
      <path d="M 18.109375 8.203125 
L 18.109375 -20.796875 
L 9.078125 -20.796875 
L 9.078125 54.6875 
L 18.109375 54.6875 
L 18.109375 46.390625 
Q 20.953125 51.265625 25.265625 53.625 
Q 29.59375 56 35.59375 56 
Q 45.5625 56 51.78125 48.09375 
Q 58.015625 40.1875 58.015625 27.296875 
Q 58.015625 14.40625 51.78125 6.484375 
Q 45.5625 -1.421875 35.59375 -1.421875 
Q 29.59375 -1.421875 25.265625 0.953125 
Q 20.953125 3.328125 18.109375 8.203125 
z
M 48.6875 27.296875 
Q 48.6875 37.203125 44.609375 42.84375 
Q 40.53125 48.484375 33.40625 48.484375 
Q 26.265625 48.484375 22.1875 42.84375 
Q 18.109375 37.203125 18.109375 27.296875 
Q 18.109375 17.390625 22.1875 11.75 
Q 26.265625 6.109375 33.40625 6.109375 
Q 40.53125 6.109375 44.609375 11.75 
Q 48.6875 17.390625 48.6875 27.296875 
z
" id="DejaVuSans-112"/>
     </defs>
     <g transform="translate(17.837813 363.836406)rotate(-90)scale(0.14 -0.14)">
      <use xlink:href="#DejaVuSans-84"/>
      <use x="60.818359" xlink:href="#DejaVuSans-111"/>
      <use x="122" xlink:href="#DejaVuSans-116"/>
      <use x="161.208984" xlink:href="#DejaVuSans-97"/>
      <use x="222.488281" xlink:href="#DejaVuSans-108"/>
      <use x="250.271484" xlink:href="#DejaVuSans-32"/>
      <use x="282.058594" xlink:href="#DejaVuSans-109"/>
      <use x="379.470703" xlink:href="#DejaVuSans-97"/>
      <use x="440.75" xlink:href="#DejaVuSans-110"/>
      <use x="504.128906" xlink:href="#DejaVuSans-117"/>
      <use x="567.507812" xlink:href="#DejaVuSans-115"/>
      <use x="619.607422" xlink:href="#DejaVuSans-99"/>
      <use x="674.587891" xlink:href="#DejaVuSans-114"/>
      <use x="715.701172" xlink:href="#DejaVuSans-105"/>
      <use x="743.484375" xlink:href="#DejaVuSans-112"/>
      <use x="806.960938" xlink:href="#DejaVuSans-116"/>
      <use x="846.169922" xlink:href="#DejaVuSans-115"/>
     </g>
    </g>
   </g>
   <g id="line2d_31">
    <path clip-path="url(#pf5cf93040a)" d="M 112.701601 551.848969 
L 127.964481 548.864866 
L 135.595922 545.200178 
L 143.227362 543.920445 
L 150.858802 539.103998 
L 158.490242 536.659904 
L 170.482505 533.088287 
L 178.113945 470.147757 
L 185.745385 464.608068 
L 186.835591 462.803839 
L 187.925797 461.583246 
L 189.016003 460.147425 
L 190.106208 459.901174 
L 191.196414 459.037354 
L 193.376825 457.91565 
L 194.467031 463.693835 
L 195.557237 463.059786 
L 196.647443 462.789297 
L 197.737648 462.736944 
L 198.827854 462.30358 
L 199.91806 461.500839 
L 201.008266 460.160029 
L 202.098471 459.192474 
L 203.188677 458.507041 
L 204.278883 458.234613 
L 206.459294 456.629131 
L 207.5495 456.174438 
L 208.639706 452.664869 
L 209.729911 442.127437 
L 210.820117 441.819138 
L 213.000529 440.840919 
L 215.18094 440.621813 
L 216.271146 439.255796 
L 217.361352 439.521437 
L 218.451557 438.084647 
L 219.541763 436.165048 
L 220.631969 435.882926 
L 221.722174 432.358814 
L 222.81238 432.017552 
L 223.902586 431.186696 
L 224.992792 430.079534 
L 227.173203 420.06272 
L 228.263409 418.799469 
L 229.353615 418.487292 
L 230.44382 417.95407 
L 231.534026 417.165872 
L 232.624232 415.432416 
L 233.714438 414.31265 
L 234.804643 413.493428 
L 235.894849 413.142471 
L 236.985055 412.515208 
L 239.165466 409.888848 
L 240.255672 409.202447 
L 241.345878 408.08365 
L 248.977318 402.635093 
L 251.157729 402.184278 
L 253.338141 401.70147 
L 254.428346 398.747422 
L 255.518552 397.788592 
L 256.608758 397.406611 
L 257.698964 396.145299 
L 258.789169 395.286328 
L 259.879375 394.283871 
L 260.969581 393.733198 
L 262.059787 393.457862 
L 264.240198 390.733583 
L 265.330404 389.930842 
L 266.42061 390.60561 
L 268.601021 389.284189 
L 269.691227 388.484357 
L 270.781432 388.014152 
L 271.871638 385.767834 
L 272.961844 384.744048 
L 274.05205 376.92023 
L 275.142255 375.020991 
L 276.232461 374.545939 
L 277.322667 374.210494 
L 279.503078 371.84105 
L 280.593284 371.423199 
L 282.773695 368.552526 
L 283.863901 368.305305 
L 284.954107 367.583032 
L 288.224724 363.326953 
L 289.31493 363.010898 
L 292.585547 359.943418 
L 293.675753 358.335997 
L 294.765959 357.138672 
L 300.216987 352.186496 
L 301.307193 350.666329 
L 303.487604 348.997829 
L 306.758222 341.553084 
L 307.848427 340.213243 
L 308.938633 336.763783 
L 310.028839 336.664894 
L 311.119045 334.73657 
L 312.20925 332.051072 
L 313.299456 330.009317 
L 314.389662 329.641879 
L 315.479867 329.046609 
L 316.570073 327.847345 
L 317.660279 326.152669 
L 318.750485 323.770622 
L 320.930896 321.298412 
L 322.021102 320.63043 
L 325.291719 318.448099 
L 327.472131 316.719491 
L 328.562336 316.082533 
L 329.652542 315.664681 
L 331.832953 313.736357 
L 332.923159 310.078456 
L 334.013365 309.163254 
L 335.103571 304.045294 
L 336.193776 302.255608 
L 337.283982 301.497463 
L 340.554599 298.681083 
L 341.644805 297.348028 
L 342.735011 296.739186 
L 343.825217 294.94853 
L 344.915422 294.831222 
L 346.005628 293.368255 
L 347.095834 292.61011 
L 348.186039 290.297867 
L 349.276245 288.410262 
L 350.366451 287.24396 
L 351.456657 286.288039 
L 352.546862 285.657868 
L 354.727274 283.979673 
L 355.81748 282.115336 
L 357.997891 274.010365 
L 359.088097 272.403913 
L 360.178302 272.018055 
L 361.268508 271.410182 
L 362.358714 270.635556 
L 363.44892 268.392147 
L 364.539125 265.83656 
L 366.719537 263.431245 
L 367.809743 263.036661 
L 368.899948 262.412307 
L 371.08036 259.592048 
L 372.170566 259.023925 
L 373.260771 251.030445 
L 374.350977 250.018293 
L 375.441183 249.785615 
L 376.531388 249.207796 
L 377.621594 247.959088 
L 378.7118 247.30371 
L 379.802006 246.367178 
L 381.982417 244.235261 
L 383.072623 243.636113 
L 384.162829 243.287095 
L 387.433446 238.686846 
L 388.523652 238.288384 
L 389.613857 237.347005 
L 391.794269 235.718255 
L 393.97468 233.453516 
L 395.064886 232.558673 
L 396.155092 232.120462 
L 397.245297 231.264398 
L 398.335503 231.068561 
L 399.425709 230.13009 
L 400.515915 228.922101 
L 401.60612 228.013685 
L 402.696326 226.720379 
L 403.786532 226.337429 
L 404.876738 224.550651 
L 409.23756 218.510703 
L 410.327766 216.532935 
L 412.508178 214.592977 
L 413.598383 214.259471 
L 414.688589 213.739822 
L 415.778795 212.049994 
L 416.869001 211.042689 
L 417.959206 211.001971 
L 423.410235 209.462414 
L 424.500441 206.80697 
L 425.590646 206.80697 
L 426.680852 206.536481 
L 428.861264 206.508365 
L 429.951469 205.954784 
L 431.041675 205.549536 
L 432.131881 196.101815 
L 433.222087 194.322793 
L 434.312292 193.330031 
L 435.402498 191.217504 
L 437.582909 190.303271 
L 439.763321 187.683697 
L 441.943732 182.955474 
L 443.033938 182.046089 
L 444.124144 181.913268 
L 445.21435 180.657773 
L 446.304555 180.014029 
L 447.394761 179.607811 
L 448.484967 178.010085 
L 450.665378 175.351732 
L 451.755584 174.782639 
L 452.84579 174.516028 
L 455.026201 169.333112 
L 456.116407 168.996698 
L 457.206613 167.70727 
L 458.296818 167.510463 
L 459.387024 167.045106 
L 467.018464 158.074376 
L 474.649904 148.00521 
L 482.281345 141.461125 
L 489.912785 132.488456 
L 497.544225 127.209561 
L 512.807105 118.791443 
L 520.438545 112.003045 
L 528.069985 88.489903 
L 536.791631 81.226453 
L 543.332866 74.279058 
L 550.964306 66.921567 
L 558.595746 58.659538 
L 566.227186 44.198563 
L 573.858626 33.135665 
L 573.858626 33.135665 
" style="fill:none;stroke:#1f77b4;stroke-linecap:square;stroke-width:3;"/>
   </g>
   <g id="patch_3">
    <path d="M 89.64375 594.72 
L 89.64375 7.2 
" style="fill:none;stroke:#000000;stroke-linecap:square;stroke-linejoin:miter;stroke-width:0.8;"/>
   </g>
   <g id="patch_4">
    <path d="M 89.64375 594.72 
L 596.916477 594.72 
" style="fill:none;stroke:#000000;stroke-linecap:square;stroke-linejoin:miter;stroke-width:0.8;"/>
   </g>
  </g>
  <g id="axes_2">
   <g id="patch_5">
    <path d="M 698.371023 594.72 
L 1205.64375 594.72 
L 1205.64375 7.2 
L 698.371023 7.2 
z
" style="fill:#ffffff;"/>
   </g>
   <g id="matplotlib.axis_3">
    <g id="xtick_9">
     <g id="line2d_32">
      <path clip-path="url(#p49e43103e5)" d="M 700.714965 594.72 
L 700.714965 7.2 
" style="fill:none;stroke:#d3d3d3;stroke-linecap:square;stroke-width:0.8;"/>
     </g>
     <g id="line2d_33">
      <g>
       <use style="stroke:#000000;stroke-width:0.8;" x="700.714965" xlink:href="#mb468d4ec75" y="594.72"/>
      </g>
     </g>
     <g id="text_17">
      <!-- 2020-03 -->
      <g transform="translate(648.600216 640.180585)rotate(-30)scale(0.14 -0.14)">
       <use xlink:href="#DejaVuSans-50"/>
       <use x="63.623047" xlink:href="#DejaVuSans-48"/>
       <use x="127.246094" xlink:href="#DejaVuSans-50"/>
       <use x="190.869141" xlink:href="#DejaVuSans-48"/>
       <use x="254.492188" xlink:href="#DejaVuSans-45"/>
       <use x="290.576172" xlink:href="#DejaVuSans-48"/>
       <use x="354.199219" xlink:href="#DejaVuSans-51"/>
      </g>
     </g>
    </g>
    <g id="xtick_10">
     <g id="line2d_34">
      <path clip-path="url(#p49e43103e5)" d="M 767.217515 594.72 
L 767.217515 7.2 
" style="fill:none;stroke:#d3d3d3;stroke-linecap:square;stroke-width:0.8;"/>
     </g>
     <g id="line2d_35">
      <g>
       <use style="stroke:#000000;stroke-width:0.8;" x="767.217515" xlink:href="#mb468d4ec75" y="594.72"/>
      </g>
     </g>
     <g id="text_18">
      <!-- 2020-05 -->
      <g transform="translate(715.102766 640.180585)rotate(-30)scale(0.14 -0.14)">
       <use xlink:href="#DejaVuSans-50"/>
       <use x="63.623047" xlink:href="#DejaVuSans-48"/>
       <use x="127.246094" xlink:href="#DejaVuSans-50"/>
       <use x="190.869141" xlink:href="#DejaVuSans-48"/>
       <use x="254.492188" xlink:href="#DejaVuSans-45"/>
       <use x="290.576172" xlink:href="#DejaVuSans-48"/>
       <use x="354.199219" xlink:href="#DejaVuSans-53"/>
      </g>
     </g>
    </g>
    <g id="xtick_11">
     <g id="line2d_36">
      <path clip-path="url(#p49e43103e5)" d="M 833.720064 594.72 
L 833.720064 7.2 
" style="fill:none;stroke:#d3d3d3;stroke-linecap:square;stroke-width:0.8;"/>
     </g>
     <g id="line2d_37">
      <g>
       <use style="stroke:#000000;stroke-width:0.8;" x="833.720064" xlink:href="#mb468d4ec75" y="594.72"/>
      </g>
     </g>
     <g id="text_19">
      <!-- 2020-07 -->
      <g transform="translate(781.605315 640.180585)rotate(-30)scale(0.14 -0.14)">
       <use xlink:href="#DejaVuSans-50"/>
       <use x="63.623047" xlink:href="#DejaVuSans-48"/>
       <use x="127.246094" xlink:href="#DejaVuSans-50"/>
       <use x="190.869141" xlink:href="#DejaVuSans-48"/>
       <use x="254.492188" xlink:href="#DejaVuSans-45"/>
       <use x="290.576172" xlink:href="#DejaVuSans-48"/>
       <use x="354.199219" xlink:href="#DejaVuSans-55"/>
      </g>
     </g>
    </g>
    <g id="xtick_12">
     <g id="line2d_38">
      <path clip-path="url(#p49e43103e5)" d="M 901.31282 594.72 
L 901.31282 7.2 
" style="fill:none;stroke:#d3d3d3;stroke-linecap:square;stroke-width:0.8;"/>
     </g>
     <g id="line2d_39">
      <g>
       <use style="stroke:#000000;stroke-width:0.8;" x="901.31282" xlink:href="#mb468d4ec75" y="594.72"/>
      </g>
     </g>
     <g id="text_20">
      <!-- 2020-09 -->
      <g transform="translate(849.198071 640.180585)rotate(-30)scale(0.14 -0.14)">
       <use xlink:href="#DejaVuSans-50"/>
       <use x="63.623047" xlink:href="#DejaVuSans-48"/>
       <use x="127.246094" xlink:href="#DejaVuSans-50"/>
       <use x="190.869141" xlink:href="#DejaVuSans-48"/>
       <use x="254.492188" xlink:href="#DejaVuSans-45"/>
       <use x="290.576172" xlink:href="#DejaVuSans-48"/>
       <use x="354.199219" xlink:href="#DejaVuSans-57"/>
      </g>
     </g>
    </g>
    <g id="xtick_13">
     <g id="line2d_40">
      <path clip-path="url(#p49e43103e5)" d="M 967.815369 594.72 
L 967.815369 7.2 
" style="fill:none;stroke:#d3d3d3;stroke-linecap:square;stroke-width:0.8;"/>
     </g>
     <g id="line2d_41">
      <g>
       <use style="stroke:#000000;stroke-width:0.8;" x="967.815369" xlink:href="#mb468d4ec75" y="594.72"/>
      </g>
     </g>
     <g id="text_21">
      <!-- 2020-11 -->
      <g transform="translate(915.70062 640.180585)rotate(-30)scale(0.14 -0.14)">
       <use xlink:href="#DejaVuSans-50"/>
       <use x="63.623047" xlink:href="#DejaVuSans-48"/>
       <use x="127.246094" xlink:href="#DejaVuSans-50"/>
       <use x="190.869141" xlink:href="#DejaVuSans-48"/>
       <use x="254.492188" xlink:href="#DejaVuSans-45"/>
       <use x="290.576172" xlink:href="#DejaVuSans-49"/>
       <use x="354.199219" xlink:href="#DejaVuSans-49"/>
      </g>
     </g>
    </g>
    <g id="xtick_14">
     <g id="line2d_42">
      <path clip-path="url(#p49e43103e5)" d="M 1034.317919 594.72 
L 1034.317919 7.2 
" style="fill:none;stroke:#d3d3d3;stroke-linecap:square;stroke-width:0.8;"/>
     </g>
     <g id="line2d_43">
      <g>
       <use style="stroke:#000000;stroke-width:0.8;" x="1034.317919" xlink:href="#mb468d4ec75" y="594.72"/>
      </g>
     </g>
     <g id="text_22">
      <!-- 2021-01 -->
      <g transform="translate(982.20317 640.180585)rotate(-30)scale(0.14 -0.14)">
       <use xlink:href="#DejaVuSans-50"/>
       <use x="63.623047" xlink:href="#DejaVuSans-48"/>
       <use x="127.246094" xlink:href="#DejaVuSans-50"/>
       <use x="190.869141" xlink:href="#DejaVuSans-49"/>
       <use x="254.492188" xlink:href="#DejaVuSans-45"/>
       <use x="290.576172" xlink:href="#DejaVuSans-48"/>
       <use x="354.199219" xlink:href="#DejaVuSans-49"/>
      </g>
     </g>
    </g>
    <g id="xtick_15">
     <g id="line2d_44">
      <path clip-path="url(#p49e43103e5)" d="M 1098.640057 594.72 
L 1098.640057 7.2 
" style="fill:none;stroke:#d3d3d3;stroke-linecap:square;stroke-width:0.8;"/>
     </g>
     <g id="line2d_45">
      <g>
       <use style="stroke:#000000;stroke-width:0.8;" x="1098.640057" xlink:href="#mb468d4ec75" y="594.72"/>
      </g>
     </g>
     <g id="text_23">
      <!-- 2021-03 -->
      <g transform="translate(1046.525308 640.180585)rotate(-30)scale(0.14 -0.14)">
       <use xlink:href="#DejaVuSans-50"/>
       <use x="63.623047" xlink:href="#DejaVuSans-48"/>
       <use x="127.246094" xlink:href="#DejaVuSans-50"/>
       <use x="190.869141" xlink:href="#DejaVuSans-49"/>
       <use x="254.492188" xlink:href="#DejaVuSans-45"/>
       <use x="290.576172" xlink:href="#DejaVuSans-48"/>
       <use x="354.199219" xlink:href="#DejaVuSans-51"/>
      </g>
     </g>
    </g>
    <g id="xtick_16">
     <g id="line2d_46">
      <path clip-path="url(#p49e43103e5)" d="M 1165.142607 594.72 
L 1165.142607 7.2 
" style="fill:none;stroke:#d3d3d3;stroke-linecap:square;stroke-width:0.8;"/>
     </g>
     <g id="line2d_47">
      <g>
       <use style="stroke:#000000;stroke-width:0.8;" x="1165.142607" xlink:href="#mb468d4ec75" y="594.72"/>
      </g>
     </g>
     <g id="text_24">
      <!-- 2021-05 -->
      <g transform="translate(1113.027858 640.180585)rotate(-30)scale(0.14 -0.14)">
       <use xlink:href="#DejaVuSans-50"/>
       <use x="63.623047" xlink:href="#DejaVuSans-48"/>
       <use x="127.246094" xlink:href="#DejaVuSans-50"/>
       <use x="190.869141" xlink:href="#DejaVuSans-49"/>
       <use x="254.492188" xlink:href="#DejaVuSans-45"/>
       <use x="290.576172" xlink:href="#DejaVuSans-48"/>
       <use x="354.199219" xlink:href="#DejaVuSans-53"/>
      </g>
     </g>
    </g>
   </g>
   <g id="matplotlib.axis_4">
    <g id="ytick_8">
     <g id="line2d_48">
      <path clip-path="url(#p49e43103e5)" d="M 698.371023 594.72 
L 1205.64375 594.72 
" style="fill:none;stroke:#d3d3d3;stroke-linecap:square;stroke-width:0.8;"/>
     </g>
     <g id="line2d_49">
      <g>
       <use style="stroke:#000000;stroke-width:0.8;" x="698.371023" xlink:href="#m22b61b7e9f" y="594.72"/>
      </g>
     </g>
     <g id="text_25">
      <!-- 0 -->
      <g transform="translate(682.463523 600.038906)scale(0.14 -0.14)">
       <use xlink:href="#DejaVuSans-48"/>
      </g>
     </g>
    </g>
    <g id="ytick_9">
     <g id="line2d_50">
      <path clip-path="url(#p49e43103e5)" d="M 698.371023 507.89417 
L 1205.64375 507.89417 
" style="fill:none;stroke:#d3d3d3;stroke-linecap:square;stroke-width:0.8;"/>
     </g>
     <g id="line2d_51">
      <g>
       <use style="stroke:#000000;stroke-width:0.8;" x="698.371023" xlink:href="#m22b61b7e9f" y="507.89417"/>
      </g>
     </g>
     <g id="text_26">
      <!-- 2,000 -->
      <g transform="translate(651.291648 513.213077)scale(0.14 -0.14)">
       <use xlink:href="#DejaVuSans-50"/>
       <use x="63.623047" xlink:href="#DejaVuSans-44"/>
       <use x="95.410156" xlink:href="#DejaVuSans-48"/>
       <use x="159.033203" xlink:href="#DejaVuSans-48"/>
       <use x="222.65625" xlink:href="#DejaVuSans-48"/>
      </g>
     </g>
    </g>
    <g id="ytick_10">
     <g id="line2d_52">
      <path clip-path="url(#p49e43103e5)" d="M 698.371023 421.068341 
L 1205.64375 421.068341 
" style="fill:none;stroke:#d3d3d3;stroke-linecap:square;stroke-width:0.8;"/>
     </g>
     <g id="line2d_53">
      <g>
       <use style="stroke:#000000;stroke-width:0.8;" x="698.371023" xlink:href="#m22b61b7e9f" y="421.068341"/>
      </g>
     </g>
     <g id="text_27">
      <!-- 4,000 -->
      <g transform="translate(651.291648 426.387247)scale(0.14 -0.14)">
       <use xlink:href="#DejaVuSans-52"/>
       <use x="63.623047" xlink:href="#DejaVuSans-44"/>
       <use x="95.410156" xlink:href="#DejaVuSans-48"/>
       <use x="159.033203" xlink:href="#DejaVuSans-48"/>
       <use x="222.65625" xlink:href="#DejaVuSans-48"/>
      </g>
     </g>
    </g>
    <g id="ytick_11">
     <g id="line2d_54">
      <path clip-path="url(#p49e43103e5)" d="M 698.371023 334.242511 
L 1205.64375 334.242511 
" style="fill:none;stroke:#d3d3d3;stroke-linecap:square;stroke-width:0.8;"/>
     </g>
     <g id="line2d_55">
      <g>
       <use style="stroke:#000000;stroke-width:0.8;" x="698.371023" xlink:href="#m22b61b7e9f" y="334.242511"/>
      </g>
     </g>
     <g id="text_28">
      <!-- 6,000 -->
      <g transform="translate(651.291648 339.561417)scale(0.14 -0.14)">
       <use xlink:href="#DejaVuSans-54"/>
       <use x="63.623047" xlink:href="#DejaVuSans-44"/>
       <use x="95.410156" xlink:href="#DejaVuSans-48"/>
       <use x="159.033203" xlink:href="#DejaVuSans-48"/>
       <use x="222.65625" xlink:href="#DejaVuSans-48"/>
      </g>
     </g>
    </g>
    <g id="ytick_12">
     <g id="line2d_56">
      <path clip-path="url(#p49e43103e5)" d="M 698.371023 247.416682 
L 1205.64375 247.416682 
" style="fill:none;stroke:#d3d3d3;stroke-linecap:square;stroke-width:0.8;"/>
     </g>
     <g id="line2d_57">
      <g>
       <use style="stroke:#000000;stroke-width:0.8;" x="698.371023" xlink:href="#m22b61b7e9f" y="247.416682"/>
      </g>
     </g>
     <g id="text_29">
      <!-- 8,000 -->
      <defs>
       <path d="M 31.78125 34.625 
Q 24.75 34.625 20.71875 30.859375 
Q 16.703125 27.09375 16.703125 20.515625 
Q 16.703125 13.921875 20.71875 10.15625 
Q 24.75 6.390625 31.78125 6.390625 
Q 38.8125 6.390625 42.859375 10.171875 
Q 46.921875 13.96875 46.921875 20.515625 
Q 46.921875 27.09375 42.890625 30.859375 
Q 38.875 34.625 31.78125 34.625 
z
M 21.921875 38.8125 
Q 15.578125 40.375 12.03125 44.71875 
Q 8.5 49.078125 8.5 55.328125 
Q 8.5 64.0625 14.71875 69.140625 
Q 20.953125 74.21875 31.78125 74.21875 
Q 42.671875 74.21875 48.875 69.140625 
Q 55.078125 64.0625 55.078125 55.328125 
Q 55.078125 49.078125 51.53125 44.71875 
Q 48 40.375 41.703125 38.8125 
Q 48.828125 37.15625 52.796875 32.3125 
Q 56.78125 27.484375 56.78125 20.515625 
Q 56.78125 9.90625 50.3125 4.234375 
Q 43.84375 -1.421875 31.78125 -1.421875 
Q 19.734375 -1.421875 13.25 4.234375 
Q 6.78125 9.90625 6.78125 20.515625 
Q 6.78125 27.484375 10.78125 32.3125 
Q 14.796875 37.15625 21.921875 38.8125 
z
M 18.3125 54.390625 
Q 18.3125 48.734375 21.84375 45.5625 
Q 25.390625 42.390625 31.78125 42.390625 
Q 38.140625 42.390625 41.71875 45.5625 
Q 45.3125 48.734375 45.3125 54.390625 
Q 45.3125 60.0625 41.71875 63.234375 
Q 38.140625 66.40625 31.78125 66.40625 
Q 25.390625 66.40625 21.84375 63.234375 
Q 18.3125 60.0625 18.3125 54.390625 
z
" id="DejaVuSans-56"/>
      </defs>
      <g transform="translate(651.291648 252.735588)scale(0.14 -0.14)">
       <use xlink:href="#DejaVuSans-56"/>
       <use x="63.623047" xlink:href="#DejaVuSans-44"/>
       <use x="95.410156" xlink:href="#DejaVuSans-48"/>
       <use x="159.033203" xlink:href="#DejaVuSans-48"/>
       <use x="222.65625" xlink:href="#DejaVuSans-48"/>
      </g>
     </g>
    </g>
    <g id="ytick_13">
     <g id="line2d_58">
      <path clip-path="url(#p49e43103e5)" d="M 698.371023 160.590852 
L 1205.64375 160.590852 
" style="fill:none;stroke:#d3d3d3;stroke-linecap:square;stroke-width:0.8;"/>
     </g>
     <g id="line2d_59">
      <g>
       <use style="stroke:#000000;stroke-width:0.8;" x="698.371023" xlink:href="#m22b61b7e9f" y="160.590852"/>
      </g>
     </g>
     <g id="text_30">
      <!-- 10,000 -->
      <g transform="translate(642.384148 165.909758)scale(0.14 -0.14)">
       <use xlink:href="#DejaVuSans-49"/>
       <use x="63.623047" xlink:href="#DejaVuSans-48"/>
       <use x="127.246094" xlink:href="#DejaVuSans-44"/>
       <use x="159.033203" xlink:href="#DejaVuSans-48"/>
       <use x="222.65625" xlink:href="#DejaVuSans-48"/>
       <use x="286.279297" xlink:href="#DejaVuSans-48"/>
      </g>
     </g>
    </g>
    <g id="ytick_14">
     <g id="line2d_60">
      <path clip-path="url(#p49e43103e5)" d="M 698.371023 73.765022 
L 1205.64375 73.765022 
" style="fill:none;stroke:#d3d3d3;stroke-linecap:square;stroke-width:0.8;"/>
     </g>
     <g id="line2d_61">
      <g>
       <use style="stroke:#000000;stroke-width:0.8;" x="698.371023" xlink:href="#m22b61b7e9f" y="73.765022"/>
      </g>
     </g>
     <g id="text_31">
      <!-- 12,000 -->
      <g transform="translate(642.384148 79.083929)scale(0.14 -0.14)">
       <use xlink:href="#DejaVuSans-49"/>
       <use x="63.623047" xlink:href="#DejaVuSans-50"/>
       <use x="127.246094" xlink:href="#DejaVuSans-44"/>
       <use x="159.033203" xlink:href="#DejaVuSans-48"/>
       <use x="222.65625" xlink:href="#DejaVuSans-48"/>
       <use x="286.279297" xlink:href="#DejaVuSans-48"/>
      </g>
     </g>
    </g>
    <g id="text_32">
     <!-- Preprints -->
     <defs>
      <path d="M 19.671875 64.796875 
L 19.671875 37.40625 
L 32.078125 37.40625 
Q 38.96875 37.40625 42.71875 40.96875 
Q 46.484375 44.53125 46.484375 51.125 
Q 46.484375 57.671875 42.71875 61.234375 
Q 38.96875 64.796875 32.078125 64.796875 
z
M 9.8125 72.90625 
L 32.078125 72.90625 
Q 44.34375 72.90625 50.609375 67.359375 
Q 56.890625 61.8125 56.890625 51.125 
Q 56.890625 40.328125 50.609375 34.8125 
Q 44.34375 29.296875 32.078125 29.296875 
L 19.671875 29.296875 
L 19.671875 0 
L 9.8125 0 
z
" id="DejaVuSans-80"/>
      <path d="M 56.203125 29.59375 
L 56.203125 25.203125 
L 14.890625 25.203125 
Q 15.484375 15.921875 20.484375 11.0625 
Q 25.484375 6.203125 34.421875 6.203125 
Q 39.59375 6.203125 44.453125 7.46875 
Q 49.3125 8.734375 54.109375 11.28125 
L 54.109375 2.78125 
Q 49.265625 0.734375 44.1875 -0.34375 
Q 39.109375 -1.421875 33.890625 -1.421875 
Q 20.796875 -1.421875 13.15625 6.1875 
Q 5.515625 13.8125 5.515625 26.8125 
Q 5.515625 40.234375 12.765625 48.109375 
Q 20.015625 56 32.328125 56 
Q 43.359375 56 49.78125 48.890625 
Q 56.203125 41.796875 56.203125 29.59375 
z
M 47.21875 32.234375 
Q 47.125 39.59375 43.09375 43.984375 
Q 39.0625 48.390625 32.421875 48.390625 
Q 24.90625 48.390625 20.390625 44.140625 
Q 15.875 39.890625 15.1875 32.171875 
z
" id="DejaVuSans-101"/>
     </defs>
     <g transform="translate(635.472585 332.455625)rotate(-90)scale(0.14 -0.14)">
      <use xlink:href="#DejaVuSans-80"/>
      <use x="60.287109" xlink:href="#DejaVuSans-114"/>
      <use x="101.369141" xlink:href="#DejaVuSans-101"/>
      <use x="162.892578" xlink:href="#DejaVuSans-112"/>
      <use x="226.369141" xlink:href="#DejaVuSans-114"/>
      <use x="267.482422" xlink:href="#DejaVuSans-105"/>
      <use x="295.265625" xlink:href="#DejaVuSans-110"/>
      <use x="358.644531" xlink:href="#DejaVuSans-116"/>
      <use x="397.853516" xlink:href="#DejaVuSans-115"/>
     </g>
    </g>
   </g>
   <g id="line2d_62">
    <path clip-path="url(#p49e43103e5)" d="M 721.428874 587.296392 
L 729.060314 583.085339 
L 736.691754 577.658724 
L 744.323194 571.363852 
L 759.586075 560.206733 
L 767.217515 553.130428 
L 779.209778 544.491258 
L 786.841218 537.892495 
L 798.833481 528.385066 
L 799.923687 527.99435 
L 801.013892 527.473395 
L 802.104098 526.21442 
L 804.28451 524.391078 
L 805.374715 523.392581 
L 807.555127 522.090194 
L 808.645333 521.612651 
L 809.735538 520.266851 
L 810.825744 519.311767 
L 811.91595 518.530335 
L 813.006155 517.141121 
L 814.096361 516.186037 
L 815.186567 515.882147 
L 816.276773 515.448018 
L 817.366978 514.058804 
L 818.457184 513.016894 
L 819.54739 512.278875 
L 820.637596 511.236965 
L 821.727801 510.368707 
L 823.908213 509.760926 
L 824.998419 508.979493 
L 826.088624 507.546867 
L 829.359241 504.855266 
L 831.539653 503.987008 
L 833.720064 502.684621 
L 835.900476 500.731039 
L 836.990682 499.99302 
L 839.171093 498.820871 
L 840.261299 497.518484 
L 841.351505 496.693638 
L 842.44171 495.608315 
L 843.531916 494.957122 
L 844.622122 494.088863 
L 845.712327 493.611321 
L 846.802533 493.350844 
L 847.892739 492.829889 
L 850.07315 490.789482 
L 854.433973 488.141294 
L 855.524179 487.055971 
L 856.614385 486.317952 
L 858.794796 484.234132 
L 859.885002 483.626351 
L 862.065413 482.541028 
L 864.245825 480.63086 
L 867.516442 477.331478 
L 869.696854 476.202743 
L 871.877265 474.335987 
L 872.967471 473.597968 
L 874.057676 472.642884 
L 875.147882 471.904864 
L 877.328294 471.514148 
L 878.418499 470.472238 
L 880.598911 468.86596 
L 881.689117 467.780637 
L 883.869528 466.78214 
L 884.959734 466.521663 
L 886.04994 465.696817 
L 888.230351 464.481256 
L 890.410762 462.788152 
L 891.500968 462.6145 
L 892.591174 462.223784 
L 895.861791 459.9229 
L 898.042203 457.882493 
L 901.31282 456.623518 
L 902.403026 455.928911 
L 903.493231 455.407956 
L 908.94426 452.151988 
L 910.034466 451.327142 
L 912.214877 449.373561 
L 916.5757 447.333154 
L 917.665906 446.899025 
L 918.756112 446.204418 
L 919.846317 445.205921 
L 920.936523 444.554728 
L 923.116934 443.860121 
L 924.20714 442.818211 
L 927.477757 440.517327 
L 928.567963 440.039785 
L 929.658169 439.301765 
L 930.748375 438.824223 
L 934.018992 436.870642 
L 936.199403 435.394603 
L 937.289609 434.960473 
L 938.379815 434.699996 
L 943.830843 430.054814 
L 946.011255 428.969491 
L 948.191666 427.363213 
L 949.281872 426.885671 
L 950.372078 425.713523 
L 951.462283 425.105742 
L 953.642695 424.194071 
L 954.732901 423.325812 
L 955.823106 422.066838 
L 956.913312 421.372231 
L 959.093724 419.41865 
L 961.274135 418.550392 
L 962.364341 417.551895 
L 963.454547 416.249507 
L 966.725164 413.210603 
L 967.815369 412.472584 
L 968.905575 411.995042 
L 969.995781 410.909719 
L 972.176192 409.73757 
L 974.356604 408.174705 
L 976.537015 407.306447 
L 977.627221 406.525014 
L 983.07825 403.138807 
L 984.168455 402.791504 
L 986.348867 400.837922 
L 988.529278 399.492122 
L 990.70969 398.493625 
L 991.799896 398.319973 
L 992.890101 397.017586 
L 996.160719 394.933766 
L 998.34113 394.065508 
L 1000.521541 392.632882 
L 1002.701953 391.41732 
L 1003.792159 390.201758 
L 1004.882364 389.290087 
L 1007.062776 388.682306 
L 1009.243187 386.381422 
L 1011.423599 384.514666 
L 1012.513805 383.776647 
L 1013.60401 383.342518 
L 1017.964833 380.607504 
L 1019.055039 379.65242 
L 1020.145245 379.001226 
L 1021.23545 378.653923 
L 1022.325656 378.480271 
L 1023.415862 377.698839 
L 1024.506068 376.309626 
L 1026.686479 374.529696 
L 1029.957096 373.487786 
L 1031.047302 372.793179 
L 1032.137508 372.35905 
L 1034.317919 370.926424 
L 1036.498331 370.058166 
L 1037.588536 369.841101 
L 1038.678742 368.972843 
L 1039.768948 367.930933 
L 1043.039565 366.281242 
L 1045.219976 365.282745 
L 1047.400388 363.242338 
L 1048.490594 362.287254 
L 1050.671005 360.767802 
L 1052.851417 360.029783 
L 1053.941622 359.24835 
L 1055.031828 357.90255 
L 1056.122034 356.904053 
L 1057.21224 356.469924 
L 1058.302445 355.81873 
L 1060.482857 355.124123 
L 1061.573062 354.169039 
L 1062.663268 353.387607 
L 1063.753474 352.910065 
L 1064.84368 351.477438 
L 1065.933885 350.739419 
L 1067.024091 350.435528 
L 1068.114297 349.87116 
L 1075.745737 344.618198 
L 1083.377177 338.84428 
L 1098.640057 328.642245 
L 1106.271497 322.824915 
L 1121.534378 313.23066 
L 1136.797258 304.027122 
L 1159.691578 288.528712 
L 1174.954459 280.106606 
L 1182.585899 277.63207 
L 1182.585899 277.63207 
" style="fill:none;stroke:#1f77b4;stroke-linecap:square;stroke-width:3;"/>
   </g>
   <g id="line2d_63">
    <path clip-path="url(#p49e43103e5)" d="M 721.428874 569.410271 
L 729.060314 562.55103 
L 736.691754 551.480737 
L 744.323194 541.973309 
L 751.954634 529.600628 
L 759.586075 514.406108 
L 767.217515 500.904691 
L 779.209778 473.771619 
L 786.841218 460.313616 
L 794.472658 444.424489 
L 795.562864 437.304771 
L 796.65307 435.65508 
L 797.743275 435.003886 
L 798.833481 432.312286 
L 799.923687 430.228466 
L 801.013892 430.185053 
L 802.104098 429.229969 
L 803.194304 425.756936 
L 804.28451 423.108748 
L 805.374715 422.066838 
L 806.464921 418.159675 
L 807.555127 417.986024 
L 809.735538 415.033946 
L 810.825744 411.908216 
L 811.91595 411.82139 
L 813.006155 410.562415 
L 814.096361 405.700169 
L 815.186567 405.135801 
L 816.276773 403.876826 
L 817.366978 403.746588 
L 818.457184 400.577445 
L 819.54739 399.057993 
L 820.637596 398.016083 
L 822.818007 393.327488 
L 823.908213 393.240662 
L 824.998419 391.808036 
L 826.088624 388.855958 
L 827.17883 387.553571 
L 828.269036 387.162854 
L 829.359241 384.601492 
L 830.449447 384.558079 
L 831.539653 383.342518 
L 832.629859 380.564091 
L 833.720064 379.65242 
L 836.990682 376.049148 
L 838.080887 374.13898 
L 839.171093 373.704851 
L 840.261299 372.532702 
L 841.351505 370.27523 
L 842.44171 368.92943 
L 843.531916 368.451888 
L 844.622122 367.019262 
L 845.712327 364.414487 
L 847.892739 364.284248 
L 848.982945 361.505822 
L 850.07315 360.160021 
L 854.433973 354.0388 
L 855.524179 353.257368 
L 856.614385 351.868155 
L 857.704591 351.086722 
L 858.794796 350.91307 
L 859.885002 347.526863 
L 862.065413 344.401133 
L 863.155619 343.185572 
L 864.245825 342.317313 
L 865.336031 339.669125 
L 866.426236 337.889196 
L 867.516442 337.324828 
L 868.606648 335.935615 
L 869.696854 335.241008 
L 870.787059 335.197595 
L 871.877265 330.726065 
L 872.967471 330.552413 
L 875.147882 326.905729 
L 877.328294 326.905729 
L 878.418499 326.77549 
L 879.508705 324.518018 
L 881.689117 322.564437 
L 882.779322 318.830926 
L 883.869528 317.615365 
L 884.959734 316.920758 
L 887.140145 314.967177 
L 888.230351 314.489635 
L 889.320557 314.27257 
L 891.500968 310.235169 
L 892.591174 309.670801 
L 893.68138 308.585478 
L 894.771585 306.805549 
L 895.861791 305.6334 
L 898.042203 305.459749 
L 901.31282 303.506167 
L 902.403026 299.685831 
L 903.493231 296.69034 
L 910.034466 290.916422 
L 912.214877 287.486802 
L 916.5757 283.058685 
L 917.665906 282.190426 
L 918.756112 281.886536 
L 919.846317 281.843123 
L 920.936523 276.676986 
L 922.026729 276.633573 
L 924.20714 276.025792 
L 925.297346 274.593166 
L 926.387552 271.727914 
L 927.477757 271.293785 
L 928.567963 269.253378 
L 929.658169 269.253378 
L 930.748375 268.298294 
L 934.018992 263.957002 
L 936.199403 262.828266 
L 937.289609 262.828266 
L 938.379815 262.046834 
L 939.47002 260.744446 
L 940.560226 259.00793 
L 941.650432 258.530388 
L 942.740638 258.26991 
L 943.830843 257.879194 
L 944.921049 257.879194 
L 946.011255 257.445065 
L 948.191666 255.013942 
L 949.281872 252.582818 
L 951.462283 251.497496 
L 952.552489 251.497496 
L 953.642695 250.889715 
L 954.732901 250.846302 
L 955.823106 248.458591 
L 956.913312 246.635249 
L 958.003518 246.374772 
L 959.093724 244.85532 
L 960.183929 244.85532 
L 961.274135 244.42119 
L 962.364341 243.639758 
L 963.454547 239.689183 
L 964.544752 239.385292 
L 966.725164 238.386795 
L 967.815369 238.169731 
L 968.905575 237.735602 
L 969.995781 237.605363 
L 971.085987 235.17424 
L 972.176192 231.744619 
L 973.266398 231.093426 
L 974.356604 229.704212 
L 975.44681 228.835954 
L 976.537015 228.749128 
L 977.627221 228.314999 
L 979.807633 227.229676 
L 980.897838 225.579985 
L 981.988044 223.40934 
L 983.07825 223.365927 
L 984.168455 222.97521 
L 985.258661 220.978216 
L 986.348867 220.630913 
L 987.439073 218.156377 
L 988.529278 217.765661 
L 990.70969 216.593512 
L 991.799896 216.159383 
L 992.890101 214.639931 
L 996.160719 212.946827 
L 997.250924 211.94833 
L 998.34113 211.253723 
L 1000.521541 207.172909 
L 1002.701953 205.653457 
L 1003.792159 204.524722 
L 1004.882364 202.26725 
L 1007.062776 202.180424 
L 1008.152982 200.357082 
L 1009.243187 199.445411 
L 1010.333393 198.707391 
L 1011.423599 198.663978 
L 1012.513805 195.798726 
L 1013.60401 195.7119 
L 1017.964833 191.631086 
L 1019.055039 191.110131 
L 1020.145245 189.851156 
L 1021.23545 188.852659 
L 1022.325656 188.375117 
L 1023.415862 188.331704 
L 1024.506068 184.98891 
L 1025.596273 184.511368 
L 1026.686479 182.991916 
L 1029.957096 181.776354 
L 1032.137508 181.646116 
L 1033.227713 181.081748 
L 1034.317919 181.038335 
L 1036.498331 179.649122 
L 1037.588536 179.605709 
L 1038.678742 176.566805 
L 1039.768948 175.872198 
L 1040.859154 174.309333 
L 1041.949359 174.222507 
L 1043.039565 172.399165 
L 1044.129771 171.530906 
L 1045.219976 171.444081 
L 1046.310182 170.923126 
L 1047.400388 170.09828 
L 1048.490594 168.709067 
L 1049.580799 168.578828 
L 1050.671005 165.018969 
L 1051.761211 164.758492 
L 1055.031828 164.58484 
L 1056.122034 161.111807 
L 1057.21224 160.894742 
L 1058.302445 159.766007 
L 1059.392651 159.766007 
L 1060.482857 159.635768 
L 1061.573062 158.116316 
L 1062.663268 154.730108 
L 1063.753474 154.122328 
L 1064.84368 153.86185 
L 1065.933885 151.821443 
L 1067.024091 151.604379 
L 1068.114297 150.649294 
L 1075.745737 142.227189 
L 1083.377177 136.974226 
L 1091.008617 128.856011 
L 1098.640057 122.213835 
L 1106.271497 113.661491 
L 1121.534378 95.818783 
L 1129.165818 84.184122 
L 1136.797258 79.104811 
L 1145.518904 71.073422 
L 1152.060138 64.865375 
L 1159.691578 55.792076 
L 1167.323019 48.064577 
L 1174.954459 41.596052 
L 1182.585899 34.823638 
L 1182.585899 34.823638 
" style="fill:none;stroke:#ff7f0e;stroke-linecap:square;stroke-width:3;"/>
   </g>
   <g id="line2d_64">
    <path clip-path="url(#p49e43103e5)" d="M 721.428874 585.516462 
L 729.060314 583.866771 
L 736.691754 581.522474 
L 744.323194 578.744047 
L 751.954634 575.401253 
L 759.586075 571.667742 
L 767.217515 568.672251 
L 779.209778 562.898333 
L 786.841218 558.166326 
L 796.65307 553.694796 
L 797.743275 552.56606 
L 798.833481 551.741214 
L 801.013892 550.78613 
L 802.104098 550.178349 
L 804.28451 549.483743 
L 806.464921 548.051117 
L 808.645333 547.747226 
L 809.735538 546.922381 
L 810.825744 546.444839 
L 811.91595 545.57658 
L 813.006155 544.9688 
L 814.096361 543.883477 
L 816.276773 543.18887 
L 817.366978 542.364025 
L 818.457184 541.235289 
L 819.54739 540.410444 
L 820.637596 539.802663 
L 821.727801 538.890992 
L 822.818007 538.326624 
L 823.908213 538.022733 
L 824.998419 537.588604 
L 826.088624 536.720346 
L 828.269036 535.374545 
L 829.359241 534.810178 
L 831.539653 534.419461 
L 832.629859 533.638029 
L 833.720064 532.248816 
L 835.900476 530.685951 
L 838.080887 530.208409 
L 839.171093 530.034757 
L 841.351505 528.775782 
L 842.44171 528.341653 
L 844.622122 527.039266 
L 846.802533 526.778788 
L 847.892739 526.084182 
L 848.982945 525.563227 
L 850.07315 524.608143 
L 854.433973 523.218929 
L 855.524179 522.394084 
L 857.704591 521.439 
L 859.885002 519.832722 
L 862.065413 519.398593 
L 863.155619 518.573747 
L 865.336031 517.445012 
L 867.516442 516.099211 
L 869.696854 515.751908 
L 870.787059 515.274366 
L 872.967471 513.754914 
L 875.147882 512.886656 
L 877.328294 512.886656 
L 878.418499 512.018397 
L 879.508705 511.323791 
L 881.689117 510.325294 
L 882.779322 509.500448 
L 883.869528 509.326797 
L 886.04994 508.501951 
L 888.230351 507.28639 
L 890.410762 506.201067 
L 892.591174 505.636699 
L 893.68138 505.028918 
L 894.771585 504.725028 
L 898.042203 502.858272 
L 902.403026 501.295407 
L 903.493231 500.774452 
L 910.034466 498.256503 
L 912.214877 496.997529 
L 916.5757 495.217599 
L 920.936523 493.307431 
L 923.116934 492.960128 
L 924.20714 492.265521 
L 927.477757 491.049959 
L 928.567963 490.529004 
L 930.748375 490.355353 
L 934.018992 488.705662 
L 936.199403 487.750578 
L 937.289609 487.707165 
L 939.47002 487.359862 
L 942.740638 485.536519 
L 943.830843 484.7985 
L 946.011255 484.581435 
L 948.191666 483.496112 
L 949.281872 482.584441 
L 950.372078 481.97666 
L 951.462283 481.195228 
L 953.642695 481.021576 
L 954.732901 480.370382 
L 956.913312 479.415298 
L 959.093724 478.590453 
L 961.274135 478.329975 
L 962.364341 477.722195 
L 963.454547 477.288065 
L 964.544752 476.636872 
L 966.725164 475.681788 
L 967.815369 475.508136 
L 968.905575 475.204246 
L 971.085987 473.815032 
L 972.176192 473.511142 
L 974.356604 471.99169 
L 975.44681 471.948277 
L 976.537015 471.644387 
L 977.627221 470.862954 
L 979.807633 469.951283 
L 980.897838 469.126437 
L 981.988044 468.648895 
L 983.07825 468.431831 
L 984.168455 468.388418 
L 985.258661 467.606985 
L 986.348867 467.08603 
L 987.439073 466.348011 
L 988.529278 466.261185 
L 990.70969 465.609991 
L 991.799896 465.566578 
L 997.250924 463.569584 
L 998.34113 463.526171 
L 1000.521541 462.831565 
L 1002.701953 461.225287 
L 1004.882364 459.879487 
L 1007.062776 459.271706 
L 1008.152982 458.663925 
L 1009.243187 458.273209 
L 1010.333393 457.752254 
L 1011.423599 457.10106 
L 1012.513805 456.623518 
L 1013.60401 456.493279 
L 1017.964833 454.669937 
L 1019.055039 454.409459 
L 1020.145245 453.410962 
L 1021.23545 453.410962 
L 1022.325656 452.93342 
L 1024.506068 451.327142 
L 1026.686479 450.111581 
L 1029.957096 449.460387 
L 1032.137508 448.027761 
L 1033.227713 447.593632 
L 1035.408125 447.289741 
L 1036.498331 446.985851 
L 1037.588536 446.812199 
L 1038.678742 445.900528 
L 1039.768948 445.162508 
L 1043.039565 443.556231 
L 1045.219976 443.469405 
L 1046.310182 442.514321 
L 1047.400388 442.21043 
L 1050.671005 440.473914 
L 1052.851417 440.300262 
L 1053.941622 439.692481 
L 1055.031828 438.390094 
L 1058.302445 436.957468 
L 1059.392651 436.870642 
L 1061.573062 436.132622 
L 1062.663268 435.264364 
L 1063.753474 434.222454 
L 1067.024091 432.703002 
L 1068.114297 432.616176 
L 1075.745737 428.36171 
L 1083.377177 425.583284 
L 1091.008617 421.372231 
L 1098.640057 418.029437 
L 1121.534378 405.309453 
L 1129.165818 401.054987 
L 1136.797258 397.538541 
L 1145.518904 392.632882 
L 1152.060138 390.505649 
L 1159.691578 387.24968 
L 1174.954459 377.785665 
L 1182.585899 375.528193 
L 1182.585899 375.528193 
" style="fill:none;stroke:#2ca02c;stroke-linecap:square;stroke-width:3;"/>
   </g>
   <g id="patch_6">
    <path d="M 698.371023 594.72 
L 698.371023 7.2 
" style="fill:none;stroke:#000000;stroke-linecap:square;stroke-linejoin:miter;stroke-width:0.8;"/>
   </g>
   <g id="patch_7">
    <path d="M 698.371023 594.72 
L 1205.64375 594.72 
" style="fill:none;stroke:#000000;stroke-linecap:square;stroke-linejoin:miter;stroke-width:0.8;"/>
   </g>
   <g id="legend_1">
    <g id="patch_8">
     <path d="M 708.171023 80.048125 
L 814.299773 80.048125 
Q 817.099773 80.048125 817.099773 77.248125 
L 817.099773 17 
Q 817.099773 14.2 814.299773 14.2 
L 708.171023 14.2 
Q 705.371023 14.2 705.371023 17 
L 705.371023 77.248125 
Q 705.371023 80.048125 708.171023 80.048125 
z
" style="fill:#ffffff;opacity:0.8;stroke:#cccccc;stroke-linejoin:miter;"/>
    </g>
    <g id="line2d_65">
     <path d="M 710.971023 25.537813 
L 738.971023 25.537813 
" style="fill:none;stroke:#1f77b4;stroke-linecap:square;stroke-width:3;"/>
    </g>
    <g id="line2d_66"/>
    <g id="text_33">
     <!-- arXiv -->
     <defs>
      <path d="M 6.296875 72.90625 
L 16.890625 72.90625 
L 35.015625 45.796875 
L 53.21875 72.90625 
L 63.8125 72.90625 
L 40.375 37.890625 
L 65.375 0 
L 54.78125 0 
L 34.28125 31 
L 13.625 0 
L 2.984375 0 
L 29 38.921875 
z
" id="DejaVuSans-88"/>
      <path d="M 2.984375 54.6875 
L 12.5 54.6875 
L 29.59375 8.796875 
L 46.6875 54.6875 
L 56.203125 54.6875 
L 35.6875 0 
L 23.484375 0 
z
" id="DejaVuSans-118"/>
     </defs>
     <g transform="translate(750.171023 30.437813)scale(0.14 -0.14)">
      <use xlink:href="#DejaVuSans-97"/>
      <use x="61.279297" xlink:href="#DejaVuSans-114"/>
      <use x="102.392578" xlink:href="#DejaVuSans-88"/>
      <use x="170.898438" xlink:href="#DejaVuSans-105"/>
      <use x="198.681641" xlink:href="#DejaVuSans-118"/>
     </g>
    </g>
    <g id="line2d_67">
     <path d="M 710.971023 46.087188 
L 738.971023 46.087188 
" style="fill:none;stroke:#ff7f0e;stroke-linecap:square;stroke-width:3;"/>
    </g>
    <g id="line2d_68"/>
    <g id="text_34">
     <!-- medRxiv -->
     <defs>
      <path d="M 45.40625 46.390625 
L 45.40625 75.984375 
L 54.390625 75.984375 
L 54.390625 0 
L 45.40625 0 
L 45.40625 8.203125 
Q 42.578125 3.328125 38.25 0.953125 
Q 33.9375 -1.421875 27.875 -1.421875 
Q 17.96875 -1.421875 11.734375 6.484375 
Q 5.515625 14.40625 5.515625 27.296875 
Q 5.515625 40.1875 11.734375 48.09375 
Q 17.96875 56 27.875 56 
Q 33.9375 56 38.25 53.625 
Q 42.578125 51.265625 45.40625 46.390625 
z
M 14.796875 27.296875 
Q 14.796875 17.390625 18.875 11.75 
Q 22.953125 6.109375 30.078125 6.109375 
Q 37.203125 6.109375 41.296875 11.75 
Q 45.40625 17.390625 45.40625 27.296875 
Q 45.40625 37.203125 41.296875 42.84375 
Q 37.203125 48.484375 30.078125 48.484375 
Q 22.953125 48.484375 18.875 42.84375 
Q 14.796875 37.203125 14.796875 27.296875 
z
" id="DejaVuSans-100"/>
      <path d="M 44.390625 34.1875 
Q 47.5625 33.109375 50.5625 29.59375 
Q 53.5625 26.078125 56.59375 19.921875 
L 66.609375 0 
L 56 0 
L 46.6875 18.703125 
Q 43.0625 26.03125 39.671875 28.421875 
Q 36.28125 30.8125 30.421875 30.8125 
L 19.671875 30.8125 
L 19.671875 0 
L 9.8125 0 
L 9.8125 72.90625 
L 32.078125 72.90625 
Q 44.578125 72.90625 50.734375 67.671875 
Q 56.890625 62.453125 56.890625 51.90625 
Q 56.890625 45.015625 53.6875 40.46875 
Q 50.484375 35.9375 44.390625 34.1875 
z
M 19.671875 64.796875 
L 19.671875 38.921875 
L 32.078125 38.921875 
Q 39.203125 38.921875 42.84375 42.21875 
Q 46.484375 45.515625 46.484375 51.90625 
Q 46.484375 58.296875 42.84375 61.546875 
Q 39.203125 64.796875 32.078125 64.796875 
z
" id="DejaVuSans-82"/>
      <path d="M 54.890625 54.6875 
L 35.109375 28.078125 
L 55.90625 0 
L 45.3125 0 
L 29.390625 21.484375 
L 13.484375 0 
L 2.875 0 
L 24.125 28.609375 
L 4.6875 54.6875 
L 15.28125 54.6875 
L 29.78125 35.203125 
L 44.28125 54.6875 
z
" id="DejaVuSans-120"/>
     </defs>
     <g transform="translate(750.171023 50.987188)scale(0.14 -0.14)">
      <use xlink:href="#DejaVuSans-109"/>
      <use x="97.412109" xlink:href="#DejaVuSans-101"/>
      <use x="158.935547" xlink:href="#DejaVuSans-100"/>
      <use x="222.412109" xlink:href="#DejaVuSans-82"/>
      <use x="291.894531" xlink:href="#DejaVuSans-120"/>
      <use x="351.074219" xlink:href="#DejaVuSans-105"/>
      <use x="378.857422" xlink:href="#DejaVuSans-118"/>
     </g>
    </g>
    <g id="line2d_69">
     <path d="M 710.971023 66.636563 
L 738.971023 66.636563 
" style="fill:none;stroke:#2ca02c;stroke-linecap:square;stroke-width:3;"/>
    </g>
    <g id="line2d_70"/>
    <g id="text_35">
     <!-- bioRxiv -->
     <defs>
      <path d="M 48.6875 27.296875 
Q 48.6875 37.203125 44.609375 42.84375 
Q 40.53125 48.484375 33.40625 48.484375 
Q 26.265625 48.484375 22.1875 42.84375 
Q 18.109375 37.203125 18.109375 27.296875 
Q 18.109375 17.390625 22.1875 11.75 
Q 26.265625 6.109375 33.40625 6.109375 
Q 40.53125 6.109375 44.609375 11.75 
Q 48.6875 17.390625 48.6875 27.296875 
z
M 18.109375 46.390625 
Q 20.953125 51.265625 25.265625 53.625 
Q 29.59375 56 35.59375 56 
Q 45.5625 56 51.78125 48.09375 
Q 58.015625 40.1875 58.015625 27.296875 
Q 58.015625 14.40625 51.78125 6.484375 
Q 45.5625 -1.421875 35.59375 -1.421875 
Q 29.59375 -1.421875 25.265625 0.953125 
Q 20.953125 3.328125 18.109375 8.203125 
L 18.109375 0 
L 9.078125 0 
L 9.078125 75.984375 
L 18.109375 75.984375 
z
" id="DejaVuSans-98"/>
     </defs>
     <g transform="translate(750.171023 71.536563)scale(0.14 -0.14)">
      <use xlink:href="#DejaVuSans-98"/>
      <use x="63.476562" xlink:href="#DejaVuSans-105"/>
      <use x="91.259766" xlink:href="#DejaVuSans-111"/>
      <use x="152.441406" xlink:href="#DejaVuSans-82"/>
      <use x="221.923828" xlink:href="#DejaVuSans-120"/>
      <use x="281.103516" xlink:href="#DejaVuSans-105"/>
      <use x="308.886719" xlink:href="#DejaVuSans-118"/>
     </g>
    </g>
   </g>
  </g>
 </g>
 <defs>
  <clipPath id="pf5cf93040a">
   <rect height="587.52" width="507.272727" x="89.64375" y="7.2"/>
  </clipPath>
  <clipPath id="p49e43103e5">
   <rect height="587.52" width="507.272727" x="698.371023" y="7.2"/>
  </clipPath>
 </defs>
</svg>
