<?xml version="1.0" encoding="utf-8" standalone="no"?>
<!DOCTYPE svg PUBLIC "-//W3C//DTD SVG 1.1//EN"
  "http://www.w3.org/Graphics/SVG/1.1/DTD/svg11.dtd">
<!-- Created with matplotlib (https://matplotlib.org/) -->
<svg height="668.667447pt" version="1.1" viewBox="0 0 1190.845 668.667447" width="1190.845pt" xmlns="http://www.w3.org/2000/svg" xmlns:xlink="http://www.w3.org/1999/xlink">
 <metadata>
  <rdf:RDF xmlns:cc="http://creativecommons.org/ns#" xmlns:dc="http://purl.org/dc/elements/1.1/" xmlns:rdf="http://www.w3.org/1999/02/22-rdf-syntax-ns#">
   <cc:Work>
    <dc:type rdf:resource="http://purl.org/dc/dcmitype/StillImage"/>
    <dc:date>2021-04-28T09:58:15.581623</dc:date>
    <dc:format>image/svg+xml</dc:format>
    <dc:creator>
     <cc:Agent>
      <dc:title>Matplotlib v3.3.4, https://matplotlib.org/</dc:title>
     </cc:Agent>
    </dc:creator>
   </cc:Work>
  </rdf:RDF>
 </metadata>
 <defs>
  <style type="text/css">*{stroke-linecap:butt;stroke-linejoin:round;}</style>
 </defs>
 <g id="figure_1">
  <g id="patch_1">
   <path d="M 0 668.667447 
L 1190.845 668.667447 
L 1190.845 0 
L 0 0 
z
" style="fill:#ffffff;"/>
  </g>
  <g id="axes_1">
   <g id="patch_2">
    <path d="M 67.645 613.485375 
L 574.917727 613.485375 
L 574.917727 25.965375 
L 67.645 25.965375 
z
" style="fill:#ffffff;"/>
   </g>
   <g id="matplotlib.axis_1">
    <g id="xtick_1">
     <g id="line2d_1">
      <defs>
       <path d="M 0 0 
L 0 3.5 
" id="m5e0b843cd5" style="stroke:#000000;stroke-width:0.8;"/>
      </defs>
      <g>
       <use style="stroke:#000000;stroke-width:0.8;" x="120.643643" xlink:href="#m5e0b843cd5" y="613.485375"/>
      </g>
     </g>
     <g id="text_1">
      <!-- 2020-05 -->
      <g transform="translate(68.528894 658.94596)rotate(-30)scale(0.14 -0.14)">
       <defs>
        <path d="M 19.1875 8.296875 
L 53.609375 8.296875 
L 53.609375 0 
L 7.328125 0 
L 7.328125 8.296875 
Q 12.9375 14.109375 22.625 23.890625 
Q 32.328125 33.6875 34.8125 36.53125 
Q 39.546875 41.84375 41.421875 45.53125 
Q 43.3125 49.21875 43.3125 52.78125 
Q 43.3125 58.59375 39.234375 62.25 
Q 35.15625 65.921875 28.609375 65.921875 
Q 23.96875 65.921875 18.8125 64.3125 
Q 13.671875 62.703125 7.8125 59.421875 
L 7.8125 69.390625 
Q 13.765625 71.78125 18.9375 73 
Q 24.125 74.21875 28.421875 74.21875 
Q 39.75 74.21875 46.484375 68.546875 
Q 53.21875 62.890625 53.21875 53.421875 
Q 53.21875 48.921875 51.53125 44.890625 
Q 49.859375 40.875 45.40625 35.40625 
Q 44.1875 33.984375 37.640625 27.21875 
Q 31.109375 20.453125 19.1875 8.296875 
z
" id="DejaVuSans-50"/>
        <path d="M 31.78125 66.40625 
Q 24.171875 66.40625 20.328125 58.90625 
Q 16.5 51.421875 16.5 36.375 
Q 16.5 21.390625 20.328125 13.890625 
Q 24.171875 6.390625 31.78125 6.390625 
Q 39.453125 6.390625 43.28125 13.890625 
Q 47.125 21.390625 47.125 36.375 
Q 47.125 51.421875 43.28125 58.90625 
Q 39.453125 66.40625 31.78125 66.40625 
z
M 31.78125 74.21875 
Q 44.046875 74.21875 50.515625 64.515625 
Q 56.984375 54.828125 56.984375 36.375 
Q 56.984375 17.96875 50.515625 8.265625 
Q 44.046875 -1.421875 31.78125 -1.421875 
Q 19.53125 -1.421875 13.0625 8.265625 
Q 6.59375 17.96875 6.59375 36.375 
Q 6.59375 54.828125 13.0625 64.515625 
Q 19.53125 74.21875 31.78125 74.21875 
z
" id="DejaVuSans-48"/>
        <path d="M 4.890625 31.390625 
L 31.203125 31.390625 
L 31.203125 23.390625 
L 4.890625 23.390625 
z
" id="DejaVuSans-45"/>
        <path d="M 10.796875 72.90625 
L 49.515625 72.90625 
L 49.515625 64.59375 
L 19.828125 64.59375 
L 19.828125 46.734375 
Q 21.96875 47.46875 24.109375 47.828125 
Q 26.265625 48.1875 28.421875 48.1875 
Q 40.625 48.1875 47.75 41.5 
Q 54.890625 34.8125 54.890625 23.390625 
Q 54.890625 11.625 47.5625 5.09375 
Q 40.234375 -1.421875 26.90625 -1.421875 
Q 22.3125 -1.421875 17.546875 -0.640625 
Q 12.796875 0.140625 7.71875 1.703125 
L 7.71875 11.625 
Q 12.109375 9.234375 16.796875 8.0625 
Q 21.484375 6.890625 26.703125 6.890625 
Q 35.15625 6.890625 40.078125 11.328125 
Q 45.015625 15.765625 45.015625 23.390625 
Q 45.015625 31 40.078125 35.4375 
Q 35.15625 39.890625 26.703125 39.890625 
Q 22.75 39.890625 18.8125 39.015625 
Q 14.890625 38.140625 10.796875 36.28125 
z
" id="DejaVuSans-53"/>
       </defs>
       <use xlink:href="#DejaVuSans-50"/>
       <use x="63.623047" xlink:href="#DejaVuSans-48"/>
       <use x="127.246094" xlink:href="#DejaVuSans-50"/>
       <use x="190.869141" xlink:href="#DejaVuSans-48"/>
       <use x="254.492188" xlink:href="#DejaVuSans-45"/>
       <use x="290.576172" xlink:href="#DejaVuSans-48"/>
       <use x="354.199219" xlink:href="#DejaVuSans-53"/>
      </g>
     </g>
    </g>
    <g id="xtick_2">
     <g id="line2d_2">
      <g>
       <use style="stroke:#000000;stroke-width:0.8;" x="197.617863" xlink:href="#m5e0b843cd5" y="613.485375"/>
      </g>
     </g>
     <g id="text_2">
      <!-- 2020-07 -->
      <g transform="translate(145.503114 658.94596)rotate(-30)scale(0.14 -0.14)">
       <defs>
        <path d="M 8.203125 72.90625 
L 55.078125 72.90625 
L 55.078125 68.703125 
L 28.609375 0 
L 18.3125 0 
L 43.21875 64.59375 
L 8.203125 64.59375 
z
" id="DejaVuSans-55"/>
       </defs>
       <use xlink:href="#DejaVuSans-50"/>
       <use x="63.623047" xlink:href="#DejaVuSans-48"/>
       <use x="127.246094" xlink:href="#DejaVuSans-50"/>
       <use x="190.869141" xlink:href="#DejaVuSans-48"/>
       <use x="254.492188" xlink:href="#DejaVuSans-45"/>
       <use x="290.576172" xlink:href="#DejaVuSans-48"/>
       <use x="354.199219" xlink:href="#DejaVuSans-55"/>
      </g>
     </g>
    </g>
    <g id="xtick_3">
     <g id="line2d_3">
      <g>
       <use style="stroke:#000000;stroke-width:0.8;" x="275.853955" xlink:href="#m5e0b843cd5" y="613.485375"/>
      </g>
     </g>
     <g id="text_3">
      <!-- 2020-09 -->
      <g transform="translate(223.739206 658.94596)rotate(-30)scale(0.14 -0.14)">
       <defs>
        <path d="M 10.984375 1.515625 
L 10.984375 10.5 
Q 14.703125 8.734375 18.5 7.8125 
Q 22.3125 6.890625 25.984375 6.890625 
Q 35.75 6.890625 40.890625 13.453125 
Q 46.046875 20.015625 46.78125 33.40625 
Q 43.953125 29.203125 39.59375 26.953125 
Q 35.25 24.703125 29.984375 24.703125 
Q 19.046875 24.703125 12.671875 31.3125 
Q 6.296875 37.9375 6.296875 49.421875 
Q 6.296875 60.640625 12.9375 67.421875 
Q 19.578125 74.21875 30.609375 74.21875 
Q 43.265625 74.21875 49.921875 64.515625 
Q 56.59375 54.828125 56.59375 36.375 
Q 56.59375 19.140625 48.40625 8.859375 
Q 40.234375 -1.421875 26.421875 -1.421875 
Q 22.703125 -1.421875 18.890625 -0.6875 
Q 15.09375 0.046875 10.984375 1.515625 
z
M 30.609375 32.421875 
Q 37.25 32.421875 41.125 36.953125 
Q 45.015625 41.5 45.015625 49.421875 
Q 45.015625 57.28125 41.125 61.84375 
Q 37.25 66.40625 30.609375 66.40625 
Q 23.96875 66.40625 20.09375 61.84375 
Q 16.21875 57.28125 16.21875 49.421875 
Q 16.21875 41.5 20.09375 36.953125 
Q 23.96875 32.421875 30.609375 32.421875 
z
" id="DejaVuSans-57"/>
       </defs>
       <use xlink:href="#DejaVuSans-50"/>
       <use x="63.623047" xlink:href="#DejaVuSans-48"/>
       <use x="127.246094" xlink:href="#DejaVuSans-50"/>
       <use x="190.869141" xlink:href="#DejaVuSans-48"/>
       <use x="254.492188" xlink:href="#DejaVuSans-45"/>
       <use x="290.576172" xlink:href="#DejaVuSans-48"/>
       <use x="354.199219" xlink:href="#DejaVuSans-57"/>
      </g>
     </g>
    </g>
    <g id="xtick_4">
     <g id="line2d_4">
      <g>
       <use style="stroke:#000000;stroke-width:0.8;" x="352.828175" xlink:href="#m5e0b843cd5" y="613.485375"/>
      </g>
     </g>
     <g id="text_4">
      <!-- 2020-11 -->
      <g transform="translate(300.713426 658.94596)rotate(-30)scale(0.14 -0.14)">
       <defs>
        <path d="M 12.40625 8.296875 
L 28.515625 8.296875 
L 28.515625 63.921875 
L 10.984375 60.40625 
L 10.984375 69.390625 
L 28.421875 72.90625 
L 38.28125 72.90625 
L 38.28125 8.296875 
L 54.390625 8.296875 
L 54.390625 0 
L 12.40625 0 
z
" id="DejaVuSans-49"/>
       </defs>
       <use xlink:href="#DejaVuSans-50"/>
       <use x="63.623047" xlink:href="#DejaVuSans-48"/>
       <use x="127.246094" xlink:href="#DejaVuSans-50"/>
       <use x="190.869141" xlink:href="#DejaVuSans-48"/>
       <use x="254.492188" xlink:href="#DejaVuSans-45"/>
       <use x="290.576172" xlink:href="#DejaVuSans-49"/>
       <use x="354.199219" xlink:href="#DejaVuSans-49"/>
      </g>
     </g>
    </g>
    <g id="xtick_5">
     <g id="line2d_5">
      <g>
       <use style="stroke:#000000;stroke-width:0.8;" x="429.802395" xlink:href="#m5e0b843cd5" y="613.485375"/>
      </g>
     </g>
     <g id="text_5">
      <!-- 2021-01 -->
      <g transform="translate(377.687646 658.94596)rotate(-30)scale(0.14 -0.14)">
       <use xlink:href="#DejaVuSans-50"/>
       <use x="63.623047" xlink:href="#DejaVuSans-48"/>
       <use x="127.246094" xlink:href="#DejaVuSans-50"/>
       <use x="190.869141" xlink:href="#DejaVuSans-49"/>
       <use x="254.492188" xlink:href="#DejaVuSans-45"/>
       <use x="290.576172" xlink:href="#DejaVuSans-48"/>
       <use x="354.199219" xlink:href="#DejaVuSans-49"/>
      </g>
     </g>
    </g>
    <g id="xtick_6">
     <g id="line2d_6">
      <g>
       <use style="stroke:#000000;stroke-width:0.8;" x="504.25287" xlink:href="#m5e0b843cd5" y="613.485375"/>
      </g>
     </g>
     <g id="text_6">
      <!-- 2021-03 -->
      <g transform="translate(452.138121 658.94596)rotate(-30)scale(0.14 -0.14)">
       <defs>
        <path d="M 40.578125 39.3125 
Q 47.65625 37.796875 51.625 33 
Q 55.609375 28.21875 55.609375 21.1875 
Q 55.609375 10.40625 48.1875 4.484375 
Q 40.765625 -1.421875 27.09375 -1.421875 
Q 22.515625 -1.421875 17.65625 -0.515625 
Q 12.796875 0.390625 7.625 2.203125 
L 7.625 11.71875 
Q 11.71875 9.328125 16.59375 8.109375 
Q 21.484375 6.890625 26.8125 6.890625 
Q 36.078125 6.890625 40.9375 10.546875 
Q 45.796875 14.203125 45.796875 21.1875 
Q 45.796875 27.640625 41.28125 31.265625 
Q 36.765625 34.90625 28.71875 34.90625 
L 20.21875 34.90625 
L 20.21875 43.015625 
L 29.109375 43.015625 
Q 36.375 43.015625 40.234375 45.921875 
Q 44.09375 48.828125 44.09375 54.296875 
Q 44.09375 59.90625 40.109375 62.90625 
Q 36.140625 65.921875 28.71875 65.921875 
Q 24.65625 65.921875 20.015625 65.03125 
Q 15.375 64.15625 9.8125 62.3125 
L 9.8125 71.09375 
Q 15.4375 72.65625 20.34375 73.4375 
Q 25.25 74.21875 29.59375 74.21875 
Q 40.828125 74.21875 47.359375 69.109375 
Q 53.90625 64.015625 53.90625 55.328125 
Q 53.90625 49.265625 50.4375 45.09375 
Q 46.96875 40.921875 40.578125 39.3125 
z
" id="DejaVuSans-51"/>
       </defs>
       <use xlink:href="#DejaVuSans-50"/>
       <use x="63.623047" xlink:href="#DejaVuSans-48"/>
       <use x="127.246094" xlink:href="#DejaVuSans-50"/>
       <use x="190.869141" xlink:href="#DejaVuSans-49"/>
       <use x="254.492188" xlink:href="#DejaVuSans-45"/>
       <use x="290.576172" xlink:href="#DejaVuSans-48"/>
       <use x="354.199219" xlink:href="#DejaVuSans-51"/>
      </g>
     </g>
    </g>
   </g>
   <g id="matplotlib.axis_2">
    <g id="ytick_1">
     <g id="line2d_7">
      <defs>
       <path d="M 0 0 
L -3.5 0 
" id="mf5e1f1166a" style="stroke:#000000;stroke-width:0.8;"/>
      </defs>
      <g>
       <use style="stroke:#000000;stroke-width:0.8;" x="67.645" xlink:href="#mf5e1f1166a" y="527.216868"/>
      </g>
     </g>
     <g id="text_7">
      <!-- 100000 -->
      <g transform="translate(7.2 532.535774)scale(0.14 -0.14)">
       <use xlink:href="#DejaVuSans-49"/>
       <use x="63.623047" xlink:href="#DejaVuSans-48"/>
       <use x="127.246094" xlink:href="#DejaVuSans-48"/>
       <use x="190.869141" xlink:href="#DejaVuSans-48"/>
       <use x="254.492188" xlink:href="#DejaVuSans-48"/>
       <use x="318.115234" xlink:href="#DejaVuSans-48"/>
      </g>
     </g>
    </g>
    <g id="ytick_2">
     <g id="line2d_8">
      <g>
       <use style="stroke:#000000;stroke-width:0.8;" x="67.645" xlink:href="#mf5e1f1166a" y="420.434772"/>
      </g>
     </g>
     <g id="text_8">
      <!-- 200000 -->
      <g transform="translate(7.2 425.753679)scale(0.14 -0.14)">
       <use xlink:href="#DejaVuSans-50"/>
       <use x="63.623047" xlink:href="#DejaVuSans-48"/>
       <use x="127.246094" xlink:href="#DejaVuSans-48"/>
       <use x="190.869141" xlink:href="#DejaVuSans-48"/>
       <use x="254.492188" xlink:href="#DejaVuSans-48"/>
       <use x="318.115234" xlink:href="#DejaVuSans-48"/>
      </g>
     </g>
    </g>
    <g id="ytick_3">
     <g id="line2d_9">
      <g>
       <use style="stroke:#000000;stroke-width:0.8;" x="67.645" xlink:href="#mf5e1f1166a" y="313.652677"/>
      </g>
     </g>
     <g id="text_9">
      <!-- 300000 -->
      <g transform="translate(7.2 318.971583)scale(0.14 -0.14)">
       <use xlink:href="#DejaVuSans-51"/>
       <use x="63.623047" xlink:href="#DejaVuSans-48"/>
       <use x="127.246094" xlink:href="#DejaVuSans-48"/>
       <use x="190.869141" xlink:href="#DejaVuSans-48"/>
       <use x="254.492188" xlink:href="#DejaVuSans-48"/>
       <use x="318.115234" xlink:href="#DejaVuSans-48"/>
      </g>
     </g>
    </g>
    <g id="ytick_4">
     <g id="line2d_10">
      <g>
       <use style="stroke:#000000;stroke-width:0.8;" x="67.645" xlink:href="#mf5e1f1166a" y="206.870582"/>
      </g>
     </g>
     <g id="text_10">
      <!-- 400000 -->
      <g transform="translate(7.2 212.189488)scale(0.14 -0.14)">
       <defs>
        <path d="M 37.796875 64.3125 
L 12.890625 25.390625 
L 37.796875 25.390625 
z
M 35.203125 72.90625 
L 47.609375 72.90625 
L 47.609375 25.390625 
L 58.015625 25.390625 
L 58.015625 17.1875 
L 47.609375 17.1875 
L 47.609375 0 
L 37.796875 0 
L 37.796875 17.1875 
L 4.890625 17.1875 
L 4.890625 26.703125 
z
" id="DejaVuSans-52"/>
       </defs>
       <use xlink:href="#DejaVuSans-52"/>
       <use x="63.623047" xlink:href="#DejaVuSans-48"/>
       <use x="127.246094" xlink:href="#DejaVuSans-48"/>
       <use x="190.869141" xlink:href="#DejaVuSans-48"/>
       <use x="254.492188" xlink:href="#DejaVuSans-48"/>
       <use x="318.115234" xlink:href="#DejaVuSans-48"/>
      </g>
     </g>
    </g>
    <g id="ytick_5">
     <g id="line2d_11">
      <g>
       <use style="stroke:#000000;stroke-width:0.8;" x="67.645" xlink:href="#mf5e1f1166a" y="100.088487"/>
      </g>
     </g>
     <g id="text_11">
      <!-- 500000 -->
      <g transform="translate(7.2 105.407393)scale(0.14 -0.14)">
       <use xlink:href="#DejaVuSans-53"/>
       <use x="63.623047" xlink:href="#DejaVuSans-48"/>
       <use x="127.246094" xlink:href="#DejaVuSans-48"/>
       <use x="190.869141" xlink:href="#DejaVuSans-48"/>
       <use x="254.492188" xlink:href="#DejaVuSans-48"/>
       <use x="318.115234" xlink:href="#DejaVuSans-48"/>
      </g>
     </g>
    </g>
   </g>
   <g id="line2d_12">
    <path clip-path="url(#p1c2ff9a04a)" d="M 67.645 586.77992 
L 85.311214 583.493168 
L 94.144322 579.456804 
L 102.977429 578.047281 
L 111.810536 572.742346 
L 120.643643 570.05037 
L 134.52424 566.116517 
L 143.357347 496.792513 
L 152.190455 490.690984 
L 153.452327 488.703769 
L 154.714199 487.359383 
L 155.976072 485.77794 
L 157.237944 485.506714 
L 158.499817 484.555285 
L 161.023562 483.319816 
L 162.285434 489.684029 
L 163.547307 488.985674 
L 164.809179 488.687752 
L 166.071052 488.63009 
L 167.332924 488.152774 
L 168.594796 487.268618 
L 169.856669 485.791822 
L 171.118541 484.726136 
L 172.380414 483.971187 
L 173.642286 483.671129 
L 176.166031 481.902818 
L 177.427904 481.40201 
L 178.689776 477.536498 
L 179.951649 465.930352 
L 181.213521 465.590785 
L 183.737266 464.513354 
L 186.261011 464.272026 
L 187.522883 462.767466 
L 188.784756 463.060049 
L 190.046628 461.477539 
L 191.308501 459.363253 
L 192.570373 459.052517 
L 193.832246 455.170988 
L 195.094118 454.795115 
L 196.355991 453.879993 
L 197.617863 452.660541 
L 200.141608 441.627815 
L 201.40348 440.236444 
L 202.665353 439.892606 
L 203.927225 439.305304 
L 205.189098 438.437166 
L 206.45097 436.527902 
L 207.712843 435.294569 
L 208.974715 434.39226 
L 210.236588 434.005709 
L 211.49846 433.314829 
L 212.760332 431.77076 
L 214.022205 430.422102 
L 215.284077 429.666085 
L 216.54595 428.433819 
L 225.379057 422.432665 
L 227.902802 421.936129 
L 230.426547 421.404354 
L 231.688419 418.150703 
L 232.950292 417.094629 
L 234.212164 416.673907 
L 235.474037 415.284672 
L 236.735909 414.338583 
L 237.997782 413.234456 
L 239.259654 412.627934 
L 240.521526 412.324672 
L 243.045271 409.324095 
L 244.307144 408.43994 
L 245.569016 409.183143 
L 248.092761 407.727703 
L 249.354634 406.846751 
L 250.616506 406.328858 
L 251.878379 403.854717 
L 253.140251 402.727098 
L 254.402123 394.109783 
L 255.663996 392.017921 
L 256.925868 391.494689 
L 258.187741 391.125223 
L 259.449613 389.903636 
L 260.711486 388.515469 
L 261.973358 388.055238 
L 264.497103 384.89342 
L 265.758976 384.621126 
L 267.020848 383.825599 
L 270.806465 379.137865 
L 272.068338 378.789755 
L 275.853955 375.41117 
L 277.115828 373.640723 
L 278.3777 372.321964 
L 284.687062 366.867534 
L 285.948935 365.193191 
L 288.47268 363.355471 
L 292.258297 355.155674 
L 293.52017 353.679946 
L 294.782042 349.880639 
L 296.043915 349.771721 
L 297.305787 347.647825 
L 298.567659 344.689961 
L 299.829532 342.44113 
L 301.091404 342.036426 
L 302.353277 341.380784 
L 303.615149 340.059889 
L 304.877022 338.193338 
L 306.138894 335.569702 
L 308.662639 332.846759 
L 309.924512 332.11103 
L 313.710129 329.707365 
L 316.233874 327.803441 
L 317.495746 327.101882 
L 318.757619 326.641651 
L 321.281364 324.517755 
L 322.543236 320.488867 
L 323.805109 319.480844 
L 325.066981 313.843817 
L 326.328853 311.87262 
L 327.590726 311.037584 
L 331.376343 307.935564 
L 332.638216 306.46731 
L 333.900088 305.796718 
L 335.161961 303.824453 
L 336.423833 303.695247 
L 337.685706 302.083905 
L 338.947578 301.248869 
L 340.20945 298.702116 
L 341.471323 296.623069 
L 342.733195 295.33848 
L 343.995068 294.285609 
L 345.25694 293.591525 
L 347.780685 291.743127 
L 349.042558 289.689707 
L 351.566303 280.762724 
L 352.828175 278.993345 
L 354.090047 278.568352 
L 355.35192 277.898828 
L 356.613792 277.045639 
L 357.875665 274.574702 
L 359.137537 271.759926 
L 361.661282 269.110662 
L 362.923155 268.676059 
L 364.185027 267.988382 
L 366.708772 264.882091 
L 367.970645 264.256348 
L 369.232517 255.452164 
L 370.494389 254.337359 
L 371.756262 254.081082 
L 373.018134 253.444661 
L 374.280007 252.069307 
L 375.541879 251.34746 
L 376.803752 250.315945 
L 379.327497 247.967807 
L 380.589369 247.307894 
L 381.851242 246.923478 
L 385.636859 241.856668 
L 386.898731 241.417793 
L 388.160604 240.380939 
L 390.684349 238.587 
L 393.208094 236.09257 
L 394.469966 235.106971 
L 395.731839 234.624316 
L 396.993711 233.68143 
L 398.255583 233.465731 
L 399.517456 232.43208 
L 400.779328 231.101575 
L 402.041201 230.101027 
L 403.303073 228.676554 
L 404.564946 228.254764 
L 405.826818 226.28677 
L 410.874308 219.634246 
L 412.13618 217.455891 
L 414.659925 215.319181 
L 415.921798 214.951851 
L 417.18367 214.379499 
L 418.445543 212.518287 
L 419.707415 211.408821 
L 420.969288 211.363973 
L 424.754905 210.287609 
L 426.016777 209.811361 
L 427.27865 209.668273 
L 428.540522 206.743511 
L 429.802395 206.743511 
L 431.064267 206.445589 
L 433.588012 206.414622 
L 434.849885 205.804897 
L 436.111757 205.358548 
L 437.37363 194.952632 
L 438.635502 192.993181 
L 439.897374 191.899732 
L 441.159247 189.57295 
L 443.682992 188.565995 
L 446.206737 185.680743 
L 448.730482 180.47298 
L 449.992354 179.471364 
L 451.254227 179.325073 
L 452.516099 177.942245 
L 453.777972 177.233211 
L 455.039844 176.785794 
L 456.301716 175.026026 
L 458.825461 172.098061 
L 460.087334 171.47125 
L 461.349206 171.177599 
L 462.611079 168.158869 
L 463.872951 165.469028 
L 465.134824 165.098494 
L 466.396696 163.678292 
L 467.658569 163.461525 
L 468.920441 162.948971 
L 477.753548 153.068423 
L 486.586655 141.978035 
L 495.419763 134.770243 
L 504.25287 124.887561 
L 513.085977 119.073275 
L 530.752191 109.801386 
L 539.585299 102.324504 
L 548.418406 76.426642 
L 558.513385 68.426528 
L 566.08462 60.774523 
L 574.917727 52.67083 
L 574.917727 52.67083 
" style="fill:none;stroke:#1f77b4;stroke-linecap:square;stroke-width:1.5;"/>
   </g>
   <g id="patch_3">
    <path d="M 67.645 613.485375 
L 67.645 25.965375 
" style="fill:none;stroke:#000000;stroke-linecap:square;stroke-linejoin:miter;stroke-width:0.8;"/>
   </g>
   <g id="patch_4">
    <path d="M 574.917727 613.485375 
L 574.917727 25.965375 
" style="fill:none;stroke:#000000;stroke-linecap:square;stroke-linejoin:miter;stroke-width:0.8;"/>
   </g>
   <g id="patch_5">
    <path d="M 67.645 613.485375 
L 574.917727 613.485375 
" style="fill:none;stroke:#000000;stroke-linecap:square;stroke-linejoin:miter;stroke-width:0.8;"/>
   </g>
   <g id="patch_6">
    <path d="M 67.645 25.965375 
L 574.917727 25.965375 
" style="fill:none;stroke:#000000;stroke-linecap:square;stroke-linejoin:miter;stroke-width:0.8;"/>
   </g>
   <g id="text_12">
    <!-- Total Number of Manuscripts in the CORD-19 Corpus Over Time -->
    <g transform="translate(54.778239 19.965375)scale(0.168 -0.168)">
     <defs>
      <path d="M -0.296875 72.90625 
L 61.375 72.90625 
L 61.375 64.59375 
L 35.5 64.59375 
L 35.5 0 
L 25.59375 0 
L 25.59375 64.59375 
L -0.296875 64.59375 
z
" id="DejaVuSans-84"/>
      <path d="M 30.609375 48.390625 
Q 23.390625 48.390625 19.1875 42.75 
Q 14.984375 37.109375 14.984375 27.296875 
Q 14.984375 17.484375 19.15625 11.84375 
Q 23.34375 6.203125 30.609375 6.203125 
Q 37.796875 6.203125 41.984375 11.859375 
Q 46.1875 17.53125 46.1875 27.296875 
Q 46.1875 37.015625 41.984375 42.703125 
Q 37.796875 48.390625 30.609375 48.390625 
z
M 30.609375 56 
Q 42.328125 56 49.015625 48.375 
Q 55.71875 40.765625 55.71875 27.296875 
Q 55.71875 13.875 49.015625 6.21875 
Q 42.328125 -1.421875 30.609375 -1.421875 
Q 18.84375 -1.421875 12.171875 6.21875 
Q 5.515625 13.875 5.515625 27.296875 
Q 5.515625 40.765625 12.171875 48.375 
Q 18.84375 56 30.609375 56 
z
" id="DejaVuSans-111"/>
      <path d="M 18.3125 70.21875 
L 18.3125 54.6875 
L 36.8125 54.6875 
L 36.8125 47.703125 
L 18.3125 47.703125 
L 18.3125 18.015625 
Q 18.3125 11.328125 20.140625 9.421875 
Q 21.96875 7.515625 27.59375 7.515625 
L 36.8125 7.515625 
L 36.8125 0 
L 27.59375 0 
Q 17.1875 0 13.234375 3.875 
Q 9.28125 7.765625 9.28125 18.015625 
L 9.28125 47.703125 
L 2.6875 47.703125 
L 2.6875 54.6875 
L 9.28125 54.6875 
L 9.28125 70.21875 
z
" id="DejaVuSans-116"/>
      <path d="M 34.28125 27.484375 
Q 23.390625 27.484375 19.1875 25 
Q 14.984375 22.515625 14.984375 16.5 
Q 14.984375 11.71875 18.140625 8.90625 
Q 21.296875 6.109375 26.703125 6.109375 
Q 34.1875 6.109375 38.703125 11.40625 
Q 43.21875 16.703125 43.21875 25.484375 
L 43.21875 27.484375 
z
M 52.203125 31.203125 
L 52.203125 0 
L 43.21875 0 
L 43.21875 8.296875 
Q 40.140625 3.328125 35.546875 0.953125 
Q 30.953125 -1.421875 24.3125 -1.421875 
Q 15.921875 -1.421875 10.953125 3.296875 
Q 6 8.015625 6 15.921875 
Q 6 25.140625 12.171875 29.828125 
Q 18.359375 34.515625 30.609375 34.515625 
L 43.21875 34.515625 
L 43.21875 35.40625 
Q 43.21875 41.609375 39.140625 45 
Q 35.0625 48.390625 27.6875 48.390625 
Q 23 48.390625 18.546875 47.265625 
Q 14.109375 46.140625 10.015625 43.890625 
L 10.015625 52.203125 
Q 14.9375 54.109375 19.578125 55.046875 
Q 24.21875 56 28.609375 56 
Q 40.484375 56 46.34375 49.84375 
Q 52.203125 43.703125 52.203125 31.203125 
z
" id="DejaVuSans-97"/>
      <path d="M 9.421875 75.984375 
L 18.40625 75.984375 
L 18.40625 0 
L 9.421875 0 
z
" id="DejaVuSans-108"/>
      <path id="DejaVuSans-32"/>
      <path d="M 9.8125 72.90625 
L 23.09375 72.90625 
L 55.421875 11.921875 
L 55.421875 72.90625 
L 64.984375 72.90625 
L 64.984375 0 
L 51.703125 0 
L 19.390625 60.984375 
L 19.390625 0 
L 9.8125 0 
z
" id="DejaVuSans-78"/>
      <path d="M 8.5 21.578125 
L 8.5 54.6875 
L 17.484375 54.6875 
L 17.484375 21.921875 
Q 17.484375 14.15625 20.5 10.265625 
Q 23.53125 6.390625 29.59375 6.390625 
Q 36.859375 6.390625 41.078125 11.03125 
Q 45.3125 15.671875 45.3125 23.6875 
L 45.3125 54.6875 
L 54.296875 54.6875 
L 54.296875 0 
L 45.3125 0 
L 45.3125 8.40625 
Q 42.046875 3.421875 37.71875 1 
Q 33.40625 -1.421875 27.6875 -1.421875 
Q 18.265625 -1.421875 13.375 4.4375 
Q 8.5 10.296875 8.5 21.578125 
z
M 31.109375 56 
z
" id="DejaVuSans-117"/>
      <path d="M 52 44.1875 
Q 55.375 50.25 60.0625 53.125 
Q 64.75 56 71.09375 56 
Q 79.640625 56 84.28125 50.015625 
Q 88.921875 44.046875 88.921875 33.015625 
L 88.921875 0 
L 79.890625 0 
L 79.890625 32.71875 
Q 79.890625 40.578125 77.09375 44.375 
Q 74.3125 48.1875 68.609375 48.1875 
Q 61.625 48.1875 57.5625 43.546875 
Q 53.515625 38.921875 53.515625 30.90625 
L 53.515625 0 
L 44.484375 0 
L 44.484375 32.71875 
Q 44.484375 40.625 41.703125 44.40625 
Q 38.921875 48.1875 33.109375 48.1875 
Q 26.21875 48.1875 22.15625 43.53125 
Q 18.109375 38.875 18.109375 30.90625 
L 18.109375 0 
L 9.078125 0 
L 9.078125 54.6875 
L 18.109375 54.6875 
L 18.109375 46.1875 
Q 21.1875 51.21875 25.484375 53.609375 
Q 29.78125 56 35.6875 56 
Q 41.65625 56 45.828125 52.96875 
Q 50 49.953125 52 44.1875 
z
" id="DejaVuSans-109"/>
      <path d="M 48.6875 27.296875 
Q 48.6875 37.203125 44.609375 42.84375 
Q 40.53125 48.484375 33.40625 48.484375 
Q 26.265625 48.484375 22.1875 42.84375 
Q 18.109375 37.203125 18.109375 27.296875 
Q 18.109375 17.390625 22.1875 11.75 
Q 26.265625 6.109375 33.40625 6.109375 
Q 40.53125 6.109375 44.609375 11.75 
Q 48.6875 17.390625 48.6875 27.296875 
z
M 18.109375 46.390625 
Q 20.953125 51.265625 25.265625 53.625 
Q 29.59375 56 35.59375 56 
Q 45.5625 56 51.78125 48.09375 
Q 58.015625 40.1875 58.015625 27.296875 
Q 58.015625 14.40625 51.78125 6.484375 
Q 45.5625 -1.421875 35.59375 -1.421875 
Q 29.59375 -1.421875 25.265625 0.953125 
Q 20.953125 3.328125 18.109375 8.203125 
L 18.109375 0 
L 9.078125 0 
L 9.078125 75.984375 
L 18.109375 75.984375 
z
" id="DejaVuSans-98"/>
      <path d="M 56.203125 29.59375 
L 56.203125 25.203125 
L 14.890625 25.203125 
Q 15.484375 15.921875 20.484375 11.0625 
Q 25.484375 6.203125 34.421875 6.203125 
Q 39.59375 6.203125 44.453125 7.46875 
Q 49.3125 8.734375 54.109375 11.28125 
L 54.109375 2.78125 
Q 49.265625 0.734375 44.1875 -0.34375 
Q 39.109375 -1.421875 33.890625 -1.421875 
Q 20.796875 -1.421875 13.15625 6.1875 
Q 5.515625 13.8125 5.515625 26.8125 
Q 5.515625 40.234375 12.765625 48.109375 
Q 20.015625 56 32.328125 56 
Q 43.359375 56 49.78125 48.890625 
Q 56.203125 41.796875 56.203125 29.59375 
z
M 47.21875 32.234375 
Q 47.125 39.59375 43.09375 43.984375 
Q 39.0625 48.390625 32.421875 48.390625 
Q 24.90625 48.390625 20.390625 44.140625 
Q 15.875 39.890625 15.1875 32.171875 
z
" id="DejaVuSans-101"/>
      <path d="M 41.109375 46.296875 
Q 39.59375 47.171875 37.8125 47.578125 
Q 36.03125 48 33.890625 48 
Q 26.265625 48 22.1875 43.046875 
Q 18.109375 38.09375 18.109375 28.8125 
L 18.109375 0 
L 9.078125 0 
L 9.078125 54.6875 
L 18.109375 54.6875 
L 18.109375 46.1875 
Q 20.953125 51.171875 25.484375 53.578125 
Q 30.03125 56 36.53125 56 
Q 37.453125 56 38.578125 55.875 
Q 39.703125 55.765625 41.0625 55.515625 
z
" id="DejaVuSans-114"/>
      <path d="M 37.109375 75.984375 
L 37.109375 68.5 
L 28.515625 68.5 
Q 23.6875 68.5 21.796875 66.546875 
Q 19.921875 64.59375 19.921875 59.515625 
L 19.921875 54.6875 
L 34.71875 54.6875 
L 34.71875 47.703125 
L 19.921875 47.703125 
L 19.921875 0 
L 10.890625 0 
L 10.890625 47.703125 
L 2.296875 47.703125 
L 2.296875 54.6875 
L 10.890625 54.6875 
L 10.890625 58.5 
Q 10.890625 67.625 15.140625 71.796875 
Q 19.390625 75.984375 28.609375 75.984375 
z
" id="DejaVuSans-102"/>
      <path d="M 9.8125 72.90625 
L 24.515625 72.90625 
L 43.109375 23.296875 
L 61.8125 72.90625 
L 76.515625 72.90625 
L 76.515625 0 
L 66.890625 0 
L 66.890625 64.015625 
L 48.09375 14.015625 
L 38.1875 14.015625 
L 19.390625 64.015625 
L 19.390625 0 
L 9.8125 0 
z
" id="DejaVuSans-77"/>
      <path d="M 54.890625 33.015625 
L 54.890625 0 
L 45.90625 0 
L 45.90625 32.71875 
Q 45.90625 40.484375 42.875 44.328125 
Q 39.84375 48.1875 33.796875 48.1875 
Q 26.515625 48.1875 22.3125 43.546875 
Q 18.109375 38.921875 18.109375 30.90625 
L 18.109375 0 
L 9.078125 0 
L 9.078125 54.6875 
L 18.109375 54.6875 
L 18.109375 46.1875 
Q 21.34375 51.125 25.703125 53.5625 
Q 30.078125 56 35.796875 56 
Q 45.21875 56 50.046875 50.171875 
Q 54.890625 44.34375 54.890625 33.015625 
z
" id="DejaVuSans-110"/>
      <path d="M 44.28125 53.078125 
L 44.28125 44.578125 
Q 40.484375 46.53125 36.375 47.5 
Q 32.28125 48.484375 27.875 48.484375 
Q 21.1875 48.484375 17.84375 46.4375 
Q 14.5 44.390625 14.5 40.28125 
Q 14.5 37.15625 16.890625 35.375 
Q 19.28125 33.59375 26.515625 31.984375 
L 29.59375 31.296875 
Q 39.15625 29.25 43.1875 25.515625 
Q 47.21875 21.78125 47.21875 15.09375 
Q 47.21875 7.46875 41.1875 3.015625 
Q 35.15625 -1.421875 24.609375 -1.421875 
Q 20.21875 -1.421875 15.453125 -0.5625 
Q 10.6875 0.296875 5.421875 2 
L 5.421875 11.28125 
Q 10.40625 8.6875 15.234375 7.390625 
Q 20.0625 6.109375 24.8125 6.109375 
Q 31.15625 6.109375 34.5625 8.28125 
Q 37.984375 10.453125 37.984375 14.40625 
Q 37.984375 18.0625 35.515625 20.015625 
Q 33.0625 21.96875 24.703125 23.78125 
L 21.578125 24.515625 
Q 13.234375 26.265625 9.515625 29.90625 
Q 5.8125 33.546875 5.8125 39.890625 
Q 5.8125 47.609375 11.28125 51.796875 
Q 16.75 56 26.8125 56 
Q 31.78125 56 36.171875 55.265625 
Q 40.578125 54.546875 44.28125 53.078125 
z
" id="DejaVuSans-115"/>
      <path d="M 48.78125 52.59375 
L 48.78125 44.1875 
Q 44.96875 46.296875 41.140625 47.34375 
Q 37.3125 48.390625 33.40625 48.390625 
Q 24.65625 48.390625 19.8125 42.84375 
Q 14.984375 37.3125 14.984375 27.296875 
Q 14.984375 17.28125 19.8125 11.734375 
Q 24.65625 6.203125 33.40625 6.203125 
Q 37.3125 6.203125 41.140625 7.25 
Q 44.96875 8.296875 48.78125 10.40625 
L 48.78125 2.09375 
Q 45.015625 0.34375 40.984375 -0.53125 
Q 36.96875 -1.421875 32.421875 -1.421875 
Q 20.0625 -1.421875 12.78125 6.34375 
Q 5.515625 14.109375 5.515625 27.296875 
Q 5.515625 40.671875 12.859375 48.328125 
Q 20.21875 56 33.015625 56 
Q 37.15625 56 41.109375 55.140625 
Q 45.0625 54.296875 48.78125 52.59375 
z
" id="DejaVuSans-99"/>
      <path d="M 9.421875 54.6875 
L 18.40625 54.6875 
L 18.40625 0 
L 9.421875 0 
z
M 9.421875 75.984375 
L 18.40625 75.984375 
L 18.40625 64.59375 
L 9.421875 64.59375 
z
" id="DejaVuSans-105"/>
      <path d="M 18.109375 8.203125 
L 18.109375 -20.796875 
L 9.078125 -20.796875 
L 9.078125 54.6875 
L 18.109375 54.6875 
L 18.109375 46.390625 
Q 20.953125 51.265625 25.265625 53.625 
Q 29.59375 56 35.59375 56 
Q 45.5625 56 51.78125 48.09375 
Q 58.015625 40.1875 58.015625 27.296875 
Q 58.015625 14.40625 51.78125 6.484375 
Q 45.5625 -1.421875 35.59375 -1.421875 
Q 29.59375 -1.421875 25.265625 0.953125 
Q 20.953125 3.328125 18.109375 8.203125 
z
M 48.6875 27.296875 
Q 48.6875 37.203125 44.609375 42.84375 
Q 40.53125 48.484375 33.40625 48.484375 
Q 26.265625 48.484375 22.1875 42.84375 
Q 18.109375 37.203125 18.109375 27.296875 
Q 18.109375 17.390625 22.1875 11.75 
Q 26.265625 6.109375 33.40625 6.109375 
Q 40.53125 6.109375 44.609375 11.75 
Q 48.6875 17.390625 48.6875 27.296875 
z
" id="DejaVuSans-112"/>
      <path d="M 54.890625 33.015625 
L 54.890625 0 
L 45.90625 0 
L 45.90625 32.71875 
Q 45.90625 40.484375 42.875 44.328125 
Q 39.84375 48.1875 33.796875 48.1875 
Q 26.515625 48.1875 22.3125 43.546875 
Q 18.109375 38.921875 18.109375 30.90625 
L 18.109375 0 
L 9.078125 0 
L 9.078125 75.984375 
L 18.109375 75.984375 
L 18.109375 46.1875 
Q 21.34375 51.125 25.703125 53.5625 
Q 30.078125 56 35.796875 56 
Q 45.21875 56 50.046875 50.171875 
Q 54.890625 44.34375 54.890625 33.015625 
z
" id="DejaVuSans-104"/>
      <path d="M 64.40625 67.28125 
L 64.40625 56.890625 
Q 59.421875 61.53125 53.78125 63.8125 
Q 48.140625 66.109375 41.796875 66.109375 
Q 29.296875 66.109375 22.65625 58.46875 
Q 16.015625 50.828125 16.015625 36.375 
Q 16.015625 21.96875 22.65625 14.328125 
Q 29.296875 6.6875 41.796875 6.6875 
Q 48.140625 6.6875 53.78125 8.984375 
Q 59.421875 11.28125 64.40625 15.921875 
L 64.40625 5.609375 
Q 59.234375 2.09375 53.4375 0.328125 
Q 47.65625 -1.421875 41.21875 -1.421875 
Q 24.65625 -1.421875 15.125 8.703125 
Q 5.609375 18.84375 5.609375 36.375 
Q 5.609375 53.953125 15.125 64.078125 
Q 24.65625 74.21875 41.21875 74.21875 
Q 47.75 74.21875 53.53125 72.484375 
Q 59.328125 70.75 64.40625 67.28125 
z
" id="DejaVuSans-67"/>
      <path d="M 39.40625 66.21875 
Q 28.65625 66.21875 22.328125 58.203125 
Q 16.015625 50.203125 16.015625 36.375 
Q 16.015625 22.609375 22.328125 14.59375 
Q 28.65625 6.59375 39.40625 6.59375 
Q 50.140625 6.59375 56.421875 14.59375 
Q 62.703125 22.609375 62.703125 36.375 
Q 62.703125 50.203125 56.421875 58.203125 
Q 50.140625 66.21875 39.40625 66.21875 
z
M 39.40625 74.21875 
Q 54.734375 74.21875 63.90625 63.9375 
Q 73.09375 53.65625 73.09375 36.375 
Q 73.09375 19.140625 63.90625 8.859375 
Q 54.734375 -1.421875 39.40625 -1.421875 
Q 24.03125 -1.421875 14.8125 8.828125 
Q 5.609375 19.09375 5.609375 36.375 
Q 5.609375 53.65625 14.8125 63.9375 
Q 24.03125 74.21875 39.40625 74.21875 
z
" id="DejaVuSans-79"/>
      <path d="M 44.390625 34.1875 
Q 47.5625 33.109375 50.5625 29.59375 
Q 53.5625 26.078125 56.59375 19.921875 
L 66.609375 0 
L 56 0 
L 46.6875 18.703125 
Q 43.0625 26.03125 39.671875 28.421875 
Q 36.28125 30.8125 30.421875 30.8125 
L 19.671875 30.8125 
L 19.671875 0 
L 9.8125 0 
L 9.8125 72.90625 
L 32.078125 72.90625 
Q 44.578125 72.90625 50.734375 67.671875 
Q 56.890625 62.453125 56.890625 51.90625 
Q 56.890625 45.015625 53.6875 40.46875 
Q 50.484375 35.9375 44.390625 34.1875 
z
M 19.671875 64.796875 
L 19.671875 38.921875 
L 32.078125 38.921875 
Q 39.203125 38.921875 42.84375 42.21875 
Q 46.484375 45.515625 46.484375 51.90625 
Q 46.484375 58.296875 42.84375 61.546875 
Q 39.203125 64.796875 32.078125 64.796875 
z
" id="DejaVuSans-82"/>
      <path d="M 19.671875 64.796875 
L 19.671875 8.109375 
L 31.59375 8.109375 
Q 46.6875 8.109375 53.6875 14.9375 
Q 60.6875 21.78125 60.6875 36.53125 
Q 60.6875 51.171875 53.6875 57.984375 
Q 46.6875 64.796875 31.59375 64.796875 
z
M 9.8125 72.90625 
L 30.078125 72.90625 
Q 51.265625 72.90625 61.171875 64.09375 
Q 71.09375 55.28125 71.09375 36.53125 
Q 71.09375 17.671875 61.125 8.828125 
Q 51.171875 0 30.078125 0 
L 9.8125 0 
z
" id="DejaVuSans-68"/>
      <path d="M 2.984375 54.6875 
L 12.5 54.6875 
L 29.59375 8.796875 
L 46.6875 54.6875 
L 56.203125 54.6875 
L 35.6875 0 
L 23.484375 0 
z
" id="DejaVuSans-118"/>
     </defs>
     <use xlink:href="#DejaVuSans-84"/>
     <use x="44.083984" xlink:href="#DejaVuSans-111"/>
     <use x="105.265625" xlink:href="#DejaVuSans-116"/>
     <use x="144.474609" xlink:href="#DejaVuSans-97"/>
     <use x="205.753906" xlink:href="#DejaVuSans-108"/>
     <use x="233.537109" xlink:href="#DejaVuSans-32"/>
     <use x="265.324219" xlink:href="#DejaVuSans-78"/>
     <use x="340.128906" xlink:href="#DejaVuSans-117"/>
     <use x="403.507812" xlink:href="#DejaVuSans-109"/>
     <use x="500.919922" xlink:href="#DejaVuSans-98"/>
     <use x="564.396484" xlink:href="#DejaVuSans-101"/>
     <use x="625.919922" xlink:href="#DejaVuSans-114"/>
     <use x="667.033203" xlink:href="#DejaVuSans-32"/>
     <use x="698.820312" xlink:href="#DejaVuSans-111"/>
     <use x="760.001953" xlink:href="#DejaVuSans-102"/>
     <use x="795.207031" xlink:href="#DejaVuSans-32"/>
     <use x="826.994141" xlink:href="#DejaVuSans-77"/>
     <use x="913.273438" xlink:href="#DejaVuSans-97"/>
     <use x="974.552734" xlink:href="#DejaVuSans-110"/>
     <use x="1037.931641" xlink:href="#DejaVuSans-117"/>
     <use x="1101.310547" xlink:href="#DejaVuSans-115"/>
     <use x="1153.410156" xlink:href="#DejaVuSans-99"/>
     <use x="1208.390625" xlink:href="#DejaVuSans-114"/>
     <use x="1249.503906" xlink:href="#DejaVuSans-105"/>
     <use x="1277.287109" xlink:href="#DejaVuSans-112"/>
     <use x="1340.763672" xlink:href="#DejaVuSans-116"/>
     <use x="1379.972656" xlink:href="#DejaVuSans-115"/>
     <use x="1432.072266" xlink:href="#DejaVuSans-32"/>
     <use x="1463.859375" xlink:href="#DejaVuSans-105"/>
     <use x="1491.642578" xlink:href="#DejaVuSans-110"/>
     <use x="1555.021484" xlink:href="#DejaVuSans-32"/>
     <use x="1586.808594" xlink:href="#DejaVuSans-116"/>
     <use x="1626.017578" xlink:href="#DejaVuSans-104"/>
     <use x="1689.396484" xlink:href="#DejaVuSans-101"/>
     <use x="1750.919922" xlink:href="#DejaVuSans-32"/>
     <use x="1782.707031" xlink:href="#DejaVuSans-67"/>
     <use x="1852.53125" xlink:href="#DejaVuSans-79"/>
     <use x="1931.242188" xlink:href="#DejaVuSans-82"/>
     <use x="2000.724609" xlink:href="#DejaVuSans-68"/>
     <use x="2077.726562" xlink:href="#DejaVuSans-45"/>
     <use x="2113.810547" xlink:href="#DejaVuSans-49"/>
     <use x="2177.433594" xlink:href="#DejaVuSans-57"/>
     <use x="2241.056641" xlink:href="#DejaVuSans-32"/>
     <use x="2272.84375" xlink:href="#DejaVuSans-67"/>
     <use x="2342.667969" xlink:href="#DejaVuSans-111"/>
     <use x="2403.849609" xlink:href="#DejaVuSans-114"/>
     <use x="2444.962891" xlink:href="#DejaVuSans-112"/>
     <use x="2508.439453" xlink:href="#DejaVuSans-117"/>
     <use x="2571.818359" xlink:href="#DejaVuSans-115"/>
     <use x="2623.917969" xlink:href="#DejaVuSans-32"/>
     <use x="2655.705078" xlink:href="#DejaVuSans-79"/>
     <use x="2734.416016" xlink:href="#DejaVuSans-118"/>
     <use x="2793.595703" xlink:href="#DejaVuSans-101"/>
     <use x="2855.119141" xlink:href="#DejaVuSans-114"/>
     <use x="2896.232422" xlink:href="#DejaVuSans-32"/>
     <use x="2928.019531" xlink:href="#DejaVuSans-84"/>
     <use x="2985.978516" xlink:href="#DejaVuSans-105"/>
     <use x="3013.761719" xlink:href="#DejaVuSans-109"/>
     <use x="3111.173828" xlink:href="#DejaVuSans-101"/>
    </g>
   </g>
   <g id="legend_1">
    <g id="patch_7">
     <path d="M 493.17304 57.71475 
L 565.117727 57.71475 
Q 567.917727 57.71475 567.917727 54.91475 
L 567.917727 35.765375 
Q 567.917727 32.965375 565.117727 32.965375 
L 493.17304 32.965375 
Q 490.37304 32.965375 490.37304 35.765375 
L 490.37304 54.91475 
Q 490.37304 57.71475 493.17304 57.71475 
z
" style="fill:#ffffff;opacity:0.8;stroke:#cccccc;stroke-linejoin:miter;"/>
    </g>
    <g id="line2d_13">
     <path d="M 495.97304 44.303187 
L 523.97304 44.303187 
" style="fill:none;stroke:#1f77b4;stroke-linecap:square;stroke-width:1.5;"/>
    </g>
    <g id="line2d_14"/>
    <g id="text_13">
     <!-- size -->
     <g transform="translate(535.17304 49.203187)scale(0.14 -0.14)">
      <defs>
       <path d="M 5.515625 54.6875 
L 48.1875 54.6875 
L 48.1875 46.484375 
L 14.40625 7.171875 
L 48.1875 7.171875 
L 48.1875 0 
L 4.296875 0 
L 4.296875 8.203125 
L 38.09375 47.515625 
L 5.515625 47.515625 
z
" id="DejaVuSans-122"/>
      </defs>
      <use xlink:href="#DejaVuSans-115"/>
      <use x="52.099609" xlink:href="#DejaVuSans-105"/>
      <use x="79.882812" xlink:href="#DejaVuSans-122"/>
      <use x="132.373047" xlink:href="#DejaVuSans-101"/>
     </g>
    </g>
   </g>
  </g>
  <g id="axes_2">
   <g id="patch_8">
    <path d="M 676.372273 613.485375 
L 1183.645 613.485375 
L 1183.645 25.965375 
L 676.372273 25.965375 
z
" style="fill:#ffffff;"/>
   </g>
   <g id="matplotlib.axis_3">
    <g id="xtick_7">
     <g id="line2d_15">
      <g>
       <use style="stroke:#000000;stroke-width:0.8;" x="729.370916" xlink:href="#m5e0b843cd5" y="613.485375"/>
      </g>
     </g>
     <g id="text_14">
      <!-- 2020-05 -->
      <g transform="translate(677.256167 658.94596)rotate(-30)scale(0.14 -0.14)">
       <use xlink:href="#DejaVuSans-50"/>
       <use x="63.623047" xlink:href="#DejaVuSans-48"/>
       <use x="127.246094" xlink:href="#DejaVuSans-50"/>
       <use x="190.869141" xlink:href="#DejaVuSans-48"/>
       <use x="254.492188" xlink:href="#DejaVuSans-45"/>
       <use x="290.576172" xlink:href="#DejaVuSans-48"/>
       <use x="354.199219" xlink:href="#DejaVuSans-53"/>
      </g>
     </g>
    </g>
    <g id="xtick_8">
     <g id="line2d_16">
      <g>
       <use style="stroke:#000000;stroke-width:0.8;" x="806.345136" xlink:href="#m5e0b843cd5" y="613.485375"/>
      </g>
     </g>
     <g id="text_15">
      <!-- 2020-07 -->
      <g transform="translate(754.230387 658.94596)rotate(-30)scale(0.14 -0.14)">
       <use xlink:href="#DejaVuSans-50"/>
       <use x="63.623047" xlink:href="#DejaVuSans-48"/>
       <use x="127.246094" xlink:href="#DejaVuSans-50"/>
       <use x="190.869141" xlink:href="#DejaVuSans-48"/>
       <use x="254.492188" xlink:href="#DejaVuSans-45"/>
       <use x="290.576172" xlink:href="#DejaVuSans-48"/>
       <use x="354.199219" xlink:href="#DejaVuSans-55"/>
      </g>
     </g>
    </g>
    <g id="xtick_9">
     <g id="line2d_17">
      <g>
       <use style="stroke:#000000;stroke-width:0.8;" x="884.581228" xlink:href="#m5e0b843cd5" y="613.485375"/>
      </g>
     </g>
     <g id="text_16">
      <!-- 2020-09 -->
      <g transform="translate(832.466479 658.94596)rotate(-30)scale(0.14 -0.14)">
       <use xlink:href="#DejaVuSans-50"/>
       <use x="63.623047" xlink:href="#DejaVuSans-48"/>
       <use x="127.246094" xlink:href="#DejaVuSans-50"/>
       <use x="190.869141" xlink:href="#DejaVuSans-48"/>
       <use x="254.492188" xlink:href="#DejaVuSans-45"/>
       <use x="290.576172" xlink:href="#DejaVuSans-48"/>
       <use x="354.199219" xlink:href="#DejaVuSans-57"/>
      </g>
     </g>
    </g>
    <g id="xtick_10">
     <g id="line2d_18">
      <g>
       <use style="stroke:#000000;stroke-width:0.8;" x="961.555448" xlink:href="#m5e0b843cd5" y="613.485375"/>
      </g>
     </g>
     <g id="text_17">
      <!-- 2020-11 -->
      <g transform="translate(909.440699 658.94596)rotate(-30)scale(0.14 -0.14)">
       <use xlink:href="#DejaVuSans-50"/>
       <use x="63.623047" xlink:href="#DejaVuSans-48"/>
       <use x="127.246094" xlink:href="#DejaVuSans-50"/>
       <use x="190.869141" xlink:href="#DejaVuSans-48"/>
       <use x="254.492188" xlink:href="#DejaVuSans-45"/>
       <use x="290.576172" xlink:href="#DejaVuSans-49"/>
       <use x="354.199219" xlink:href="#DejaVuSans-49"/>
      </g>
     </g>
    </g>
    <g id="xtick_11">
     <g id="line2d_19">
      <g>
       <use style="stroke:#000000;stroke-width:0.8;" x="1038.529668" xlink:href="#m5e0b843cd5" y="613.485375"/>
      </g>
     </g>
     <g id="text_18">
      <!-- 2021-01 -->
      <g transform="translate(986.414918 658.94596)rotate(-30)scale(0.14 -0.14)">
       <use xlink:href="#DejaVuSans-50"/>
       <use x="63.623047" xlink:href="#DejaVuSans-48"/>
       <use x="127.246094" xlink:href="#DejaVuSans-50"/>
       <use x="190.869141" xlink:href="#DejaVuSans-49"/>
       <use x="254.492188" xlink:href="#DejaVuSans-45"/>
       <use x="290.576172" xlink:href="#DejaVuSans-48"/>
       <use x="354.199219" xlink:href="#DejaVuSans-49"/>
      </g>
     </g>
    </g>
    <g id="xtick_12">
     <g id="line2d_20">
      <g>
       <use style="stroke:#000000;stroke-width:0.8;" x="1112.980142" xlink:href="#m5e0b843cd5" y="613.485375"/>
      </g>
     </g>
     <g id="text_19">
      <!-- 2021-03 -->
      <g transform="translate(1060.865393 658.94596)rotate(-30)scale(0.14 -0.14)">
       <use xlink:href="#DejaVuSans-50"/>
       <use x="63.623047" xlink:href="#DejaVuSans-48"/>
       <use x="127.246094" xlink:href="#DejaVuSans-50"/>
       <use x="190.869141" xlink:href="#DejaVuSans-49"/>
       <use x="254.492188" xlink:href="#DejaVuSans-45"/>
       <use x="290.576172" xlink:href="#DejaVuSans-48"/>
       <use x="354.199219" xlink:href="#DejaVuSans-51"/>
      </g>
     </g>
    </g>
   </g>
   <g id="matplotlib.axis_4">
    <g id="ytick_6">
     <g id="line2d_21">
      <g>
       <use style="stroke:#000000;stroke-width:0.8;" x="676.372273" xlink:href="#mf5e1f1166a" y="593.371704"/>
      </g>
     </g>
     <g id="text_20">
      <!-- 0 -->
      <g transform="translate(660.464773 598.69061)scale(0.14 -0.14)">
       <use xlink:href="#DejaVuSans-48"/>
      </g>
     </g>
    </g>
    <g id="ytick_7">
     <g id="line2d_22">
      <g>
       <use style="stroke:#000000;stroke-width:0.8;" x="676.372273" xlink:href="#mf5e1f1166a" y="506.063312"/>
      </g>
     </g>
     <g id="text_21">
      <!-- 2000 -->
      <g transform="translate(633.742273 511.382218)scale(0.14 -0.14)">
       <use xlink:href="#DejaVuSans-50"/>
       <use x="63.623047" xlink:href="#DejaVuSans-48"/>
       <use x="127.246094" xlink:href="#DejaVuSans-48"/>
       <use x="190.869141" xlink:href="#DejaVuSans-48"/>
      </g>
     </g>
    </g>
    <g id="ytick_8">
     <g id="line2d_23">
      <g>
       <use style="stroke:#000000;stroke-width:0.8;" x="676.372273" xlink:href="#mf5e1f1166a" y="418.754919"/>
      </g>
     </g>
     <g id="text_22">
      <!-- 4000 -->
      <g transform="translate(633.742273 424.073825)scale(0.14 -0.14)">
       <use xlink:href="#DejaVuSans-52"/>
       <use x="63.623047" xlink:href="#DejaVuSans-48"/>
       <use x="127.246094" xlink:href="#DejaVuSans-48"/>
       <use x="190.869141" xlink:href="#DejaVuSans-48"/>
      </g>
     </g>
    </g>
    <g id="ytick_9">
     <g id="line2d_24">
      <g>
       <use style="stroke:#000000;stroke-width:0.8;" x="676.372273" xlink:href="#mf5e1f1166a" y="331.446527"/>
      </g>
     </g>
     <g id="text_23">
      <!-- 6000 -->
      <g transform="translate(633.742273 336.765433)scale(0.14 -0.14)">
       <defs>
        <path d="M 33.015625 40.375 
Q 26.375 40.375 22.484375 35.828125 
Q 18.609375 31.296875 18.609375 23.390625 
Q 18.609375 15.53125 22.484375 10.953125 
Q 26.375 6.390625 33.015625 6.390625 
Q 39.65625 6.390625 43.53125 10.953125 
Q 47.40625 15.53125 47.40625 23.390625 
Q 47.40625 31.296875 43.53125 35.828125 
Q 39.65625 40.375 33.015625 40.375 
z
M 52.59375 71.296875 
L 52.59375 62.3125 
Q 48.875 64.0625 45.09375 64.984375 
Q 41.3125 65.921875 37.59375 65.921875 
Q 27.828125 65.921875 22.671875 59.328125 
Q 17.53125 52.734375 16.796875 39.40625 
Q 19.671875 43.65625 24.015625 45.921875 
Q 28.375 48.1875 33.59375 48.1875 
Q 44.578125 48.1875 50.953125 41.515625 
Q 57.328125 34.859375 57.328125 23.390625 
Q 57.328125 12.15625 50.6875 5.359375 
Q 44.046875 -1.421875 33.015625 -1.421875 
Q 20.359375 -1.421875 13.671875 8.265625 
Q 6.984375 17.96875 6.984375 36.375 
Q 6.984375 53.65625 15.1875 63.9375 
Q 23.390625 74.21875 37.203125 74.21875 
Q 40.921875 74.21875 44.703125 73.484375 
Q 48.484375 72.75 52.59375 71.296875 
z
" id="DejaVuSans-54"/>
       </defs>
       <use xlink:href="#DejaVuSans-54"/>
       <use x="63.623047" xlink:href="#DejaVuSans-48"/>
       <use x="127.246094" xlink:href="#DejaVuSans-48"/>
       <use x="190.869141" xlink:href="#DejaVuSans-48"/>
      </g>
     </g>
    </g>
    <g id="ytick_10">
     <g id="line2d_25">
      <g>
       <use style="stroke:#000000;stroke-width:0.8;" x="676.372273" xlink:href="#mf5e1f1166a" y="244.138134"/>
      </g>
     </g>
     <g id="text_24">
      <!-- 8000 -->
      <g transform="translate(633.742273 249.45704)scale(0.14 -0.14)">
       <defs>
        <path d="M 31.78125 34.625 
Q 24.75 34.625 20.71875 30.859375 
Q 16.703125 27.09375 16.703125 20.515625 
Q 16.703125 13.921875 20.71875 10.15625 
Q 24.75 6.390625 31.78125 6.390625 
Q 38.8125 6.390625 42.859375 10.171875 
Q 46.921875 13.96875 46.921875 20.515625 
Q 46.921875 27.09375 42.890625 30.859375 
Q 38.875 34.625 31.78125 34.625 
z
M 21.921875 38.8125 
Q 15.578125 40.375 12.03125 44.71875 
Q 8.5 49.078125 8.5 55.328125 
Q 8.5 64.0625 14.71875 69.140625 
Q 20.953125 74.21875 31.78125 74.21875 
Q 42.671875 74.21875 48.875 69.140625 
Q 55.078125 64.0625 55.078125 55.328125 
Q 55.078125 49.078125 51.53125 44.71875 
Q 48 40.375 41.703125 38.8125 
Q 48.828125 37.15625 52.796875 32.3125 
Q 56.78125 27.484375 56.78125 20.515625 
Q 56.78125 9.90625 50.3125 4.234375 
Q 43.84375 -1.421875 31.78125 -1.421875 
Q 19.734375 -1.421875 13.25 4.234375 
Q 6.78125 9.90625 6.78125 20.515625 
Q 6.78125 27.484375 10.78125 32.3125 
Q 14.796875 37.15625 21.921875 38.8125 
z
M 18.3125 54.390625 
Q 18.3125 48.734375 21.84375 45.5625 
Q 25.390625 42.390625 31.78125 42.390625 
Q 38.140625 42.390625 41.71875 45.5625 
Q 45.3125 48.734375 45.3125 54.390625 
Q 45.3125 60.0625 41.71875 63.234375 
Q 38.140625 66.40625 31.78125 66.40625 
Q 25.390625 66.40625 21.84375 63.234375 
Q 18.3125 60.0625 18.3125 54.390625 
z
" id="DejaVuSans-56"/>
       </defs>
       <use xlink:href="#DejaVuSans-56"/>
       <use x="63.623047" xlink:href="#DejaVuSans-48"/>
       <use x="127.246094" xlink:href="#DejaVuSans-48"/>
       <use x="190.869141" xlink:href="#DejaVuSans-48"/>
      </g>
     </g>
    </g>
    <g id="ytick_11">
     <g id="line2d_26">
      <g>
       <use style="stroke:#000000;stroke-width:0.8;" x="676.372273" xlink:href="#mf5e1f1166a" y="156.829742"/>
      </g>
     </g>
     <g id="text_25">
      <!-- 10000 -->
      <g transform="translate(624.834773 162.148648)scale(0.14 -0.14)">
       <use xlink:href="#DejaVuSans-49"/>
       <use x="63.623047" xlink:href="#DejaVuSans-48"/>
       <use x="127.246094" xlink:href="#DejaVuSans-48"/>
       <use x="190.869141" xlink:href="#DejaVuSans-48"/>
       <use x="254.492188" xlink:href="#DejaVuSans-48"/>
      </g>
     </g>
    </g>
    <g id="ytick_12">
     <g id="line2d_27">
      <g>
       <use style="stroke:#000000;stroke-width:0.8;" x="676.372273" xlink:href="#mf5e1f1166a" y="69.521349"/>
      </g>
     </g>
     <g id="text_26">
      <!-- 12000 -->
      <g transform="translate(624.834773 74.840256)scale(0.14 -0.14)">
       <use xlink:href="#DejaVuSans-49"/>
       <use x="63.623047" xlink:href="#DejaVuSans-50"/>
       <use x="127.246094" xlink:href="#DejaVuSans-48"/>
       <use x="190.869141" xlink:href="#DejaVuSans-48"/>
       <use x="254.492188" xlink:href="#DejaVuSans-48"/>
      </g>
     </g>
    </g>
   </g>
   <g id="line2d_28">
    <path clip-path="url(#pd4ad2deb81)" d="M 676.372273 586.77992 
L 685.20538 582.676426 
L 694.038487 578.267352 
L 702.871594 572.635961 
L 720.537809 563.206654 
L 729.370916 556.964104 
L 743.251513 549.150003 
L 760.917727 538.018183 
L 764.703345 535.573548 
L 765.965217 534.438539 
L 768.488962 533.652764 
L 769.750834 532.4741 
L 772.274579 530.727932 
L 773.536452 529.811194 
L 776.060197 528.632531 
L 777.322069 528.152335 
L 778.583942 526.930017 
L 779.845814 525.925971 
L 781.107687 525.140195 
L 782.369559 523.699607 
L 783.631431 522.826523 
L 786.155176 522.040747 
L 787.417049 520.81843 
L 788.678921 519.858038 
L 789.940794 519.15957 
L 792.464539 517.369748 
L 794.988284 516.671281 
L 796.250156 516.016468 
L 797.512028 514.663188 
L 801.297646 511.956628 
L 802.559518 511.56374 
L 805.083263 510.472385 
L 806.345136 509.861227 
L 808.868881 507.591208 
L 810.130753 506.849087 
L 812.654498 505.670424 
L 813.91637 504.142527 
L 816.440115 502.265397 
L 817.701988 501.610584 
L 818.96386 500.781154 
L 820.225733 500.300958 
L 821.487605 500.082687 
L 822.749478 499.515182 
L 825.273223 497.507089 
L 830.320712 494.582258 
L 831.582585 493.534557 
L 834.10633 491.963006 
L 835.368202 490.871651 
L 836.630075 490.12953 
L 839.15382 489.038175 
L 840.415692 488.208745 
L 844.201309 485.021989 
L 845.463182 484.148905 
L 847.986927 482.970242 
L 850.510672 481.224074 
L 851.772544 480.612915 
L 853.034417 479.739831 
L 854.296289 479.041364 
L 856.820034 478.648476 
L 858.081906 477.600776 
L 859.343779 476.945963 
L 861.867524 474.93787 
L 864.391269 473.933823 
L 865.653141 473.671898 
L 866.915014 472.798814 
L 869.438758 471.40188 
L 871.962503 469.655712 
L 873.224376 469.437441 
L 874.486248 469.088207 
L 878.271866 466.774535 
L 879.533738 465.595872 
L 880.795611 464.635479 
L 884.581228 463.325854 
L 885.8431 462.540078 
L 887.104973 461.972573 
L 893.414335 458.829471 
L 894.676208 458.043696 
L 897.199953 456.166565 
L 902.247442 453.940201 
L 903.509315 453.460005 
L 904.771187 452.848846 
L 906.03306 451.888454 
L 907.294932 451.189987 
L 909.818677 450.49152 
L 911.08055 449.400165 
L 913.604294 447.523034 
L 916.128039 446.475334 
L 917.389912 445.645904 
L 918.651784 445.209362 
L 922.437402 443.113961 
L 924.961147 441.455101 
L 926.223019 440.974905 
L 927.484891 440.669326 
L 931.270509 437.919111 
L 933.794254 436.172943 
L 936.317999 435.125243 
L 938.841744 433.553692 
L 940.103616 433.029841 
L 941.365488 431.894832 
L 945.151106 430.41059 
L 946.412978 429.537506 
L 947.674851 428.271534 
L 948.936723 427.573067 
L 951.460468 425.608628 
L 953.984213 424.779198 
L 960.293575 419.322424 
L 961.555448 418.536648 
L 962.81732 417.969144 
L 964.079193 416.921443 
L 967.86481 415.000658 
L 969.126682 414.345845 
L 970.388555 413.996612 
L 971.650427 413.472761 
L 975.436045 411.071781 
L 976.697917 410.067734 
L 979.221662 408.845417 
L 980.483535 408.496183 
L 983.00728 406.531744 
L 988.054769 404.174418 
L 989.316642 403.912492 
L 990.578514 402.646521 
L 994.364132 400.638428 
L 995.626004 400.24554 
L 996.887877 399.72169 
L 999.411621 398.455718 
L 1001.935366 397.058784 
L 1003.197239 395.705504 
L 1004.459111 394.788765 
L 1006.982856 394.177607 
L 1009.506601 391.907588 
L 1012.030346 390.117766 
L 1013.292218 389.375645 
L 1014.554091 388.895449 
L 1019.601581 386.232543 
L 1020.863453 385.184842 
L 1022.125326 384.399067 
L 1023.387198 384.049833 
L 1024.649071 383.918871 
L 1025.910943 383.089441 
L 1027.172815 381.736161 
L 1029.69656 379.771722 
L 1033.482178 378.680367 
L 1034.74405 377.9819 
L 1036.005923 377.545358 
L 1037.267795 376.759582 
L 1038.529668 375.842844 
L 1039.79154 375.27534 
L 1041.053412 374.838798 
L 1042.315285 374.576873 
L 1043.577157 373.703789 
L 1044.83903 372.612434 
L 1046.100902 371.870312 
L 1047.362775 371.346462 
L 1048.624647 370.604341 
L 1051.148392 369.600294 
L 1052.410265 368.421631 
L 1054.934009 366.413538 
L 1057.457754 364.841987 
L 1058.719627 364.361791 
L 1059.981499 364.012557 
L 1061.243372 363.183127 
L 1062.505244 361.829847 
L 1063.767117 360.782147 
L 1066.290862 359.385212 
L 1067.552734 358.94867 
L 1068.814607 358.643091 
L 1071.338351 356.809615 
L 1072.600224 356.373073 
L 1073.862096 354.932484 
L 1075.123969 354.146709 
L 1076.385841 353.797475 
L 1077.647714 353.229971 
L 1086.480821 347.729542 
L 1095.313928 341.617954 
L 1104.147035 336.423105 
L 1112.980142 331.621143 
L 1121.81325 326.513603 
L 1139.479464 317.302567 
L 1148.312571 312.282335 
L 1157.145678 307.785952 
L 1167.240658 303.28957 
L 1174.811893 299.622618 
L 1183.645 296.959712 
L 1183.645 296.959712 
" style="fill:none;stroke:#1f77b4;stroke-linecap:square;stroke-width:1.5;"/>
   </g>
   <g id="line2d_29">
    <path clip-path="url(#pd4ad2deb81)" d="M 676.372273 567.964962 
L 685.20538 561.067599 
L 694.038487 549.935779 
L 702.871594 540.331856 
L 711.704701 527.89041 
L 720.537809 512.611441 
L 729.370916 498.991332 
L 743.251513 471.707459 
L 752.08462 458.174658 
L 760.917727 442.197223 
L 762.1796 435.037934 
L 763.441472 433.379075 
L 764.703345 432.724262 
L 765.965217 430.017702 
L 767.22709 427.9223 
L 768.488962 427.878646 
L 769.750834 426.918254 
L 771.012707 423.425918 
L 772.274579 420.763012 
L 773.536452 419.715311 
L 774.798324 415.786434 
L 776.060197 415.611817 
L 778.583942 412.643332 
L 779.845814 409.50023 
L 781.107687 409.412921 
L 782.369559 408.146949 
L 783.631431 403.257679 
L 784.893304 402.690175 
L 786.155176 401.424203 
L 787.417049 401.293241 
L 788.678921 398.106484 
L 789.940794 396.578587 
L 791.202666 395.530887 
L 793.726411 390.772579 
L 794.988284 390.685271 
L 796.250156 389.244683 
L 797.512028 386.276197 
L 798.773901 384.966571 
L 800.035773 384.573684 
L 801.297646 381.998086 
L 802.559518 381.954432 
L 803.821391 380.732114 
L 805.083263 377.938246 
L 806.345136 377.021508 
L 810.130753 373.398209 
L 811.392626 371.477425 
L 812.654498 371.040883 
L 813.91637 369.862219 
L 815.178243 367.592201 
L 816.440115 366.238921 
L 817.701988 365.758725 
L 818.96386 364.318136 
L 820.225733 361.698885 
L 822.749478 361.567922 
L 824.01135 358.774054 
L 825.273223 357.420773 
L 830.320712 351.265532 
L 831.582585 350.479756 
L 832.844457 349.082822 
L 834.10633 348.297046 
L 835.368202 348.12243 
L 836.630075 344.717402 
L 839.15382 341.5743 
L 840.415692 340.351983 
L 841.677564 339.478899 
L 842.939437 336.815993 
L 844.201309 335.026171 
L 845.463182 334.458666 
L 846.725054 333.061732 
L 847.986927 332.363265 
L 849.248799 332.319611 
L 850.510672 327.823228 
L 851.772544 327.648612 
L 854.296289 323.981659 
L 856.820034 323.981659 
L 858.081906 323.850697 
L 859.343779 321.580678 
L 861.867524 319.61624 
L 863.129396 315.861979 
L 864.391269 314.639661 
L 865.653141 313.941194 
L 868.176886 311.976755 
L 869.438758 311.496559 
L 870.700631 311.278288 
L 873.224376 307.218448 
L 874.486248 306.650943 
L 875.748121 305.559588 
L 877.009993 303.769766 
L 878.271866 302.591103 
L 880.795611 302.416486 
L 884.581228 300.452047 
L 885.8431 296.610478 
L 887.104973 293.598339 
L 894.676208 287.79233 
L 897.199953 284.343649 
L 902.247442 279.890921 
L 903.509315 279.017837 
L 904.771187 278.712258 
L 906.03306 278.668603 
L 907.294932 273.473754 
L 908.556805 273.4301 
L 911.08055 272.818941 
L 912.342422 271.378353 
L 913.604294 268.497176 
L 914.866167 268.060634 
L 916.128039 266.008887 
L 917.389912 266.008887 
L 918.651784 265.048494 
L 922.437402 260.683075 
L 924.961147 259.548065 
L 926.223019 259.548065 
L 927.484891 258.76229 
L 928.746764 257.452664 
L 930.008636 255.706496 
L 931.270509 255.2263 
L 932.532381 254.964375 
L 933.794254 254.571487 
L 935.056126 254.571487 
L 936.317999 254.091291 
L 938.841744 251.646656 
L 940.103616 249.289329 
L 942.627361 248.197974 
L 943.889233 248.197974 
L 945.151106 247.586816 
L 946.412978 247.543162 
L 947.674851 245.142181 
L 948.936723 243.308704 
L 950.198596 243.046779 
L 951.460468 241.518882 
L 952.722341 241.518882 
L 953.984213 241.08234 
L 955.246085 240.340219 
L 956.507958 236.367687 
L 957.76983 236.062108 
L 960.293575 235.058061 
L 961.555448 234.83979 
L 962.81732 234.403248 
L 964.079193 234.272286 
L 965.341065 231.827651 
L 966.602938 228.378969 
L 967.86481 227.724156 
L 969.126682 226.327222 
L 970.388555 225.454138 
L 971.650427 225.36683 
L 972.9123 224.930288 
L 975.436045 223.838933 
L 976.697917 222.180074 
L 977.95979 219.997364 
L 979.221662 219.95371 
L 980.483535 219.560822 
L 981.745407 217.552729 
L 983.00728 217.203495 
L 984.269152 214.715206 
L 985.531024 214.322318 
L 988.054769 213.143655 
L 989.316642 212.707113 
L 990.578514 211.179216 
L 994.364132 209.476702 
L 995.626004 208.472656 
L 996.887877 207.774189 
L 999.411621 203.670694 
L 1001.935366 202.142797 
L 1003.197239 201.007788 
L 1004.459111 198.825079 
L 1006.982856 198.73777 
L 1008.244729 196.904294 
L 1009.506601 195.987556 
L 1010.768474 195.245434 
L 1012.030346 195.20178 
L 1013.292218 192.320603 
L 1014.554091 192.233295 
L 1019.601581 188.1298 
L 1020.863453 187.60595 
L 1022.125326 186.339978 
L 1023.387198 185.335932 
L 1024.649071 184.855736 
L 1025.910943 184.812082 
L 1027.172815 181.450708 
L 1028.434688 180.970512 
L 1029.69656 179.442615 
L 1033.482178 178.220298 
L 1036.005923 178.089335 
L 1037.267795 177.521831 
L 1038.529668 177.478177 
L 1039.79154 176.867018 
L 1041.053412 176.081242 
L 1042.315285 176.037588 
L 1043.577157 172.981794 
L 1044.83903 172.283327 
L 1046.100902 170.711776 
L 1047.362775 170.624468 
L 1048.624647 168.790992 
L 1049.88652 167.917908 
L 1051.148392 167.830599 
L 1052.410265 167.306749 
L 1053.672137 166.477319 
L 1054.934009 165.080385 
L 1056.195882 164.949422 
L 1057.457754 161.413432 
L 1058.719627 161.107853 
L 1062.505244 160.933236 
L 1063.767117 157.440901 
L 1065.028989 157.22263 
L 1066.290862 156.08762 
L 1067.552734 156.08762 
L 1068.814607 155.956658 
L 1070.076479 154.428761 
L 1071.338351 151.023734 
L 1072.600224 150.412575 
L 1073.862096 150.15065 
L 1075.123969 148.098903 
L 1076.385841 147.880632 
L 1077.647714 146.920239 
L 1086.480821 138.451325 
L 1095.313928 133.169167 
L 1104.147035 125.005833 
L 1112.980142 118.326741 
L 1121.81325 109.726864 
L 1139.479464 91.741335 
L 1148.312571 79.998356 
L 1157.145678 74.890815 
L 1167.240658 66.945752 
L 1174.811893 60.703202 
L 1183.645 52.67083 
L 1183.645 52.67083 
" style="fill:none;stroke:#ff7f0e;stroke-linecap:square;stroke-width:1.5;"/>
   </g>
   <g id="line2d_30">
    <path clip-path="url(#pd4ad2deb81)" d="M 676.372273 584.117014 
L 685.20538 582.458155 
L 694.038487 580.100828 
L 702.871594 577.263306 
L 711.704701 573.945587 
L 720.537809 570.191326 
L 729.370916 567.179186 
L 743.251513 561.373178 
L 752.08462 556.614871 
L 763.441472 552.118489 
L 764.703345 550.98348 
L 765.965217 550.15405 
L 768.488962 549.193657 
L 769.750834 548.582499 
L 771.012707 548.276919 
L 772.274579 547.840377 
L 774.798324 546.399789 
L 777.322069 546.09421 
L 778.583942 545.26478 
L 779.845814 544.784584 
L 781.107687 543.9115 
L 782.369559 543.300341 
L 783.631431 542.208986 
L 786.155176 541.510519 
L 787.417049 540.681089 
L 788.678921 539.54608 
L 789.940794 538.71665 
L 791.202666 538.105492 
L 792.464539 537.188754 
L 793.726411 536.621249 
L 794.988284 536.31567 
L 796.250156 535.879128 
L 797.512028 535.006044 
L 800.035773 533.652764 
L 801.297646 533.085259 
L 803.821391 532.692371 
L 805.083263 531.906596 
L 806.345136 530.509662 
L 808.868881 528.894456 
L 811.392626 528.41426 
L 812.654498 528.239643 
L 813.91637 527.541176 
L 815.178243 526.973672 
L 816.440115 526.53713 
L 818.96386 525.227504 
L 821.487605 524.965579 
L 822.749478 524.267111 
L 824.01135 523.699607 
L 825.273223 522.739215 
L 830.320712 521.34228 
L 831.582585 520.512851 
L 834.10633 519.508804 
L 835.368202 518.766683 
L 836.630075 517.893599 
L 839.15382 517.457057 
L 840.415692 516.627627 
L 842.939437 515.492618 
L 845.463182 514.095684 
L 847.986927 513.74645 
L 849.248799 513.266254 
L 851.772544 511.738357 
L 854.296289 510.865273 
L 856.820034 510.865273 
L 858.081906 509.992189 
L 859.343779 509.293722 
L 861.867524 508.289676 
L 863.129396 507.460246 
L 864.391269 507.285629 
L 866.915014 506.456199 
L 869.438758 505.233882 
L 871.962503 504.142527 
L 874.486248 503.575022 
L 875.748121 502.963864 
L 877.009993 502.658284 
L 880.795611 500.781154 
L 885.8431 499.209603 
L 887.104973 498.685752 
L 894.676208 496.197463 
L 897.199953 494.931492 
L 902.247442 493.14167 
L 907.294932 491.220885 
L 909.818677 490.871651 
L 911.08055 490.173184 
L 914.866167 488.950867 
L 916.128039 488.427016 
L 918.651784 488.2524 
L 924.961147 485.589494 
L 926.223019 485.545839 
L 928.746764 485.196606 
L 932.532381 483.36313 
L 933.794254 482.621008 
L 936.317999 482.402737 
L 938.841744 481.224074 
L 940.103616 480.307336 
L 941.365488 479.696177 
L 942.627361 478.910402 
L 945.151106 478.735785 
L 946.412978 478.080972 
L 948.936723 477.12058 
L 951.460468 476.334804 
L 953.984213 476.072879 
L 955.246085 475.46172 
L 956.507958 475.025178 
L 957.76983 474.370365 
L 960.293575 473.366319 
L 961.555448 473.191702 
L 962.81732 472.886122 
L 965.341065 471.489188 
L 966.602938 471.183609 
L 969.126682 469.568404 
L 970.388555 469.524749 
L 971.650427 469.21917 
L 972.9123 468.433394 
L 975.436045 467.516656 
L 976.697917 466.687227 
L 977.95979 466.20703 
L 979.221662 465.988759 
L 980.483535 465.945105 
L 981.745407 465.15933 
L 983.00728 464.635479 
L 984.269152 463.893358 
L 985.531024 463.80605 
L 988.054769 463.151237 
L 989.316642 463.107583 
L 995.626004 461.09949 
L 996.887877 461.055835 
L 999.411621 460.357368 
L 1001.935366 458.742163 
L 1004.459111 457.388883 
L 1006.982856 456.777724 
L 1008.244729 456.166565 
L 1009.506601 455.773678 
L 1010.768474 455.249827 
L 1012.030346 454.595014 
L 1013.292218 454.114818 
L 1014.554091 453.983856 
L 1019.601581 452.106725 
L 1020.863453 451.801146 
L 1022.125326 450.709791 
L 1023.387198 450.709791 
L 1024.649071 450.229595 
L 1027.172815 448.570735 
L 1029.69656 447.304763 
L 1033.482178 446.649951 
L 1036.005923 445.209362 
L 1037.267795 444.729166 
L 1039.79154 444.423587 
L 1041.053412 444.118007 
L 1042.315285 443.94339 
L 1043.577157 443.026652 
L 1044.83903 442.284531 
L 1048.624647 440.669326 
L 1051.148392 440.582017 
L 1052.410265 439.534317 
L 1053.672137 439.228737 
L 1057.457754 437.482569 
L 1059.981499 437.307953 
L 1061.243372 436.696794 
L 1062.505244 435.343514 
L 1066.290862 433.902925 
L 1067.552734 433.815617 
L 1070.076479 433.029841 
L 1071.338351 432.113103 
L 1072.600224 431.021748 
L 1076.385841 429.493851 
L 1077.647714 429.406543 
L 1086.480821 425.084778 
L 1095.313928 422.247255 
L 1104.147035 417.881835 
L 1112.980142 414.3895 
L 1121.81325 410.111388 
L 1148.312571 396.971475 
L 1157.145678 393.217214 
L 1167.240658 388.153328 
L 1174.811893 385.796001 
L 1183.645 385.752347 
L 1183.645 385.752347 
" style="fill:none;stroke:#2ca02c;stroke-linecap:square;stroke-width:1.5;"/>
   </g>
   <g id="patch_9">
    <path d="M 676.372273 613.485375 
L 676.372273 25.965375 
" style="fill:none;stroke:#000000;stroke-linecap:square;stroke-linejoin:miter;stroke-width:0.8;"/>
   </g>
   <g id="patch_10">
    <path d="M 1183.645 613.485375 
L 1183.645 25.965375 
" style="fill:none;stroke:#000000;stroke-linecap:square;stroke-linejoin:miter;stroke-width:0.8;"/>
   </g>
   <g id="patch_11">
    <path d="M 676.372273 613.485375 
L 1183.645 613.485375 
" style="fill:none;stroke:#000000;stroke-linecap:square;stroke-linejoin:miter;stroke-width:0.8;"/>
   </g>
   <g id="patch_12">
    <path d="M 676.372273 25.965375 
L 1183.645 25.965375 
" style="fill:none;stroke:#000000;stroke-linecap:square;stroke-linejoin:miter;stroke-width:0.8;"/>
   </g>
   <g id="text_27">
    <!-- Number of Preprints in the CORD-19 Corpus Over Time -->
    <g transform="translate(699.154324 19.965375)scale(0.168 -0.168)">
     <defs>
      <path d="M 19.671875 64.796875 
L 19.671875 37.40625 
L 32.078125 37.40625 
Q 38.96875 37.40625 42.71875 40.96875 
Q 46.484375 44.53125 46.484375 51.125 
Q 46.484375 57.671875 42.71875 61.234375 
Q 38.96875 64.796875 32.078125 64.796875 
z
M 9.8125 72.90625 
L 32.078125 72.90625 
Q 44.34375 72.90625 50.609375 67.359375 
Q 56.890625 61.8125 56.890625 51.125 
Q 56.890625 40.328125 50.609375 34.8125 
Q 44.34375 29.296875 32.078125 29.296875 
L 19.671875 29.296875 
L 19.671875 0 
L 9.8125 0 
z
" id="DejaVuSans-80"/>
     </defs>
     <use xlink:href="#DejaVuSans-78"/>
     <use x="74.804688" xlink:href="#DejaVuSans-117"/>
     <use x="138.183594" xlink:href="#DejaVuSans-109"/>
     <use x="235.595703" xlink:href="#DejaVuSans-98"/>
     <use x="299.072266" xlink:href="#DejaVuSans-101"/>
     <use x="360.595703" xlink:href="#DejaVuSans-114"/>
     <use x="401.708984" xlink:href="#DejaVuSans-32"/>
     <use x="433.496094" xlink:href="#DejaVuSans-111"/>
     <use x="494.677734" xlink:href="#DejaVuSans-102"/>
     <use x="529.882812" xlink:href="#DejaVuSans-32"/>
     <use x="561.669922" xlink:href="#DejaVuSans-80"/>
     <use x="620.222656" xlink:href="#DejaVuSans-114"/>
     <use x="659.085938" xlink:href="#DejaVuSans-101"/>
     <use x="720.609375" xlink:href="#DejaVuSans-112"/>
     <use x="784.085938" xlink:href="#DejaVuSans-114"/>
     <use x="825.199219" xlink:href="#DejaVuSans-105"/>
     <use x="852.982422" xlink:href="#DejaVuSans-110"/>
     <use x="916.361328" xlink:href="#DejaVuSans-116"/>
     <use x="955.570312" xlink:href="#DejaVuSans-115"/>
     <use x="1007.669922" xlink:href="#DejaVuSans-32"/>
     <use x="1039.457031" xlink:href="#DejaVuSans-105"/>
     <use x="1067.240234" xlink:href="#DejaVuSans-110"/>
     <use x="1130.619141" xlink:href="#DejaVuSans-32"/>
     <use x="1162.40625" xlink:href="#DejaVuSans-116"/>
     <use x="1201.615234" xlink:href="#DejaVuSans-104"/>
     <use x="1264.994141" xlink:href="#DejaVuSans-101"/>
     <use x="1326.517578" xlink:href="#DejaVuSans-32"/>
     <use x="1358.304688" xlink:href="#DejaVuSans-67"/>
     <use x="1428.128906" xlink:href="#DejaVuSans-79"/>
     <use x="1506.839844" xlink:href="#DejaVuSans-82"/>
     <use x="1576.322266" xlink:href="#DejaVuSans-68"/>
     <use x="1653.324219" xlink:href="#DejaVuSans-45"/>
     <use x="1689.408203" xlink:href="#DejaVuSans-49"/>
     <use x="1753.03125" xlink:href="#DejaVuSans-57"/>
     <use x="1816.654297" xlink:href="#DejaVuSans-32"/>
     <use x="1848.441406" xlink:href="#DejaVuSans-67"/>
     <use x="1918.265625" xlink:href="#DejaVuSans-111"/>
     <use x="1979.447266" xlink:href="#DejaVuSans-114"/>
     <use x="2020.560547" xlink:href="#DejaVuSans-112"/>
     <use x="2084.037109" xlink:href="#DejaVuSans-117"/>
     <use x="2147.416016" xlink:href="#DejaVuSans-115"/>
     <use x="2199.515625" xlink:href="#DejaVuSans-32"/>
     <use x="2231.302734" xlink:href="#DejaVuSans-79"/>
     <use x="2310.013672" xlink:href="#DejaVuSans-118"/>
     <use x="2369.193359" xlink:href="#DejaVuSans-101"/>
     <use x="2430.716797" xlink:href="#DejaVuSans-114"/>
     <use x="2471.830078" xlink:href="#DejaVuSans-32"/>
     <use x="2503.617188" xlink:href="#DejaVuSans-84"/>
     <use x="2561.576172" xlink:href="#DejaVuSans-105"/>
     <use x="2589.359375" xlink:href="#DejaVuSans-109"/>
     <use x="2686.771484" xlink:href="#DejaVuSans-101"/>
    </g>
   </g>
  </g>
 </g>
 <defs>
  <clipPath id="p1c2ff9a04a">
   <rect height="587.52" width="507.272727" x="67.645" y="25.965375"/>
  </clipPath>
  <clipPath id="pd4ad2deb81">
   <rect height="587.52" width="507.272727" x="676.372273" y="25.965375"/>
  </clipPath>
 </defs>
</svg>
