<?xml version="1.0" encoding="utf-8" standalone="no"?>
<!DOCTYPE svg PUBLIC "-//W3C//DTD SVG 1.1//EN"
  "http://www.w3.org/Graphics/SVG/1.1/DTD/svg11.dtd">
<!-- Created with matplotlib (https://matplotlib.org/) -->
<svg height="668.667447pt" version="1.1" viewBox="0 0 1190.845 668.667447" width="1190.845pt" xmlns="http://www.w3.org/2000/svg" xmlns:xlink="http://www.w3.org/1999/xlink">
 <metadata>
  <rdf:RDF xmlns:cc="http://creativecommons.org/ns#" xmlns:dc="http://purl.org/dc/elements/1.1/" xmlns:rdf="http://www.w3.org/1999/02/22-rdf-syntax-ns#">
   <cc:Work>
    <dc:type rdf:resource="http://purl.org/dc/dcmitype/StillImage"/>
    <dc:date>2021-04-27T12:21:53.310691</dc:date>
    <dc:format>image/svg+xml</dc:format>
    <dc:creator>
     <cc:Agent>
      <dc:title>Matplotlib v3.3.4, https://matplotlib.org/</dc:title>
     </cc:Agent>
    </dc:creator>
   </cc:Work>
  </rdf:RDF>
 </metadata>
 <defs>
  <style type="text/css">*{stroke-linecap:butt;stroke-linejoin:round;}</style>
 </defs>
 <g id="figure_1">
  <g id="patch_1">
   <path d="M 0 668.667447 
L 1190.845 668.667447 
L 1190.845 0 
L 0 0 
z
" style="fill:#ffffff;"/>
  </g>
  <g id="axes_1">
   <g id="patch_2">
    <path d="M 67.645 613.485375 
L 574.917727 613.485375 
L 574.917727 25.965375 
L 67.645 25.965375 
z
" style="fill:#ffffff;"/>
   </g>
   <g id="matplotlib.axis_1">
    <g id="xtick_1">
     <g id="line2d_1">
      <defs>
       <path d="M 0 0 
L 0 3.5 
" id="mf3aa65cb29" style="stroke:#000000;stroke-width:0.8;"/>
      </defs>
      <g>
       <use style="stroke:#000000;stroke-width:0.8;" x="76.93697" xlink:href="#mf3aa65cb29" y="613.485375"/>
      </g>
     </g>
     <g id="text_1">
      <!-- 2020-03 -->
      <g transform="translate(24.822221 658.94596)rotate(-30)scale(0.14 -0.14)">
       <defs>
        <path d="M 19.1875 8.296875 
L 53.609375 8.296875 
L 53.609375 0 
L 7.328125 0 
L 7.328125 8.296875 
Q 12.9375 14.109375 22.625 23.890625 
Q 32.328125 33.6875 34.8125 36.53125 
Q 39.546875 41.84375 41.421875 45.53125 
Q 43.3125 49.21875 43.3125 52.78125 
Q 43.3125 58.59375 39.234375 62.25 
Q 35.15625 65.921875 28.609375 65.921875 
Q 23.96875 65.921875 18.8125 64.3125 
Q 13.671875 62.703125 7.8125 59.421875 
L 7.8125 69.390625 
Q 13.765625 71.78125 18.9375 73 
Q 24.125 74.21875 28.421875 74.21875 
Q 39.75 74.21875 46.484375 68.546875 
Q 53.21875 62.890625 53.21875 53.421875 
Q 53.21875 48.921875 51.53125 44.890625 
Q 49.859375 40.875 45.40625 35.40625 
Q 44.1875 33.984375 37.640625 27.21875 
Q 31.109375 20.453125 19.1875 8.296875 
z
" id="DejaVuSans-50"/>
        <path d="M 31.78125 66.40625 
Q 24.171875 66.40625 20.328125 58.90625 
Q 16.5 51.421875 16.5 36.375 
Q 16.5 21.390625 20.328125 13.890625 
Q 24.171875 6.390625 31.78125 6.390625 
Q 39.453125 6.390625 43.28125 13.890625 
Q 47.125 21.390625 47.125 36.375 
Q 47.125 51.421875 43.28125 58.90625 
Q 39.453125 66.40625 31.78125 66.40625 
z
M 31.78125 74.21875 
Q 44.046875 74.21875 50.515625 64.515625 
Q 56.984375 54.828125 56.984375 36.375 
Q 56.984375 17.96875 50.515625 8.265625 
Q 44.046875 -1.421875 31.78125 -1.421875 
Q 19.53125 -1.421875 13.0625 8.265625 
Q 6.59375 17.96875 6.59375 36.375 
Q 6.59375 54.828125 13.0625 64.515625 
Q 19.53125 74.21875 31.78125 74.21875 
z
" id="DejaVuSans-48"/>
        <path d="M 4.890625 31.390625 
L 31.203125 31.390625 
L 31.203125 23.390625 
L 4.890625 23.390625 
z
" id="DejaVuSans-45"/>
        <path d="M 40.578125 39.3125 
Q 47.65625 37.796875 51.625 33 
Q 55.609375 28.21875 55.609375 21.1875 
Q 55.609375 10.40625 48.1875 4.484375 
Q 40.765625 -1.421875 27.09375 -1.421875 
Q 22.515625 -1.421875 17.65625 -0.515625 
Q 12.796875 0.390625 7.625 2.203125 
L 7.625 11.71875 
Q 11.71875 9.328125 16.59375 8.109375 
Q 21.484375 6.890625 26.8125 6.890625 
Q 36.078125 6.890625 40.9375 10.546875 
Q 45.796875 14.203125 45.796875 21.1875 
Q 45.796875 27.640625 41.28125 31.265625 
Q 36.765625 34.90625 28.71875 34.90625 
L 20.21875 34.90625 
L 20.21875 43.015625 
L 29.109375 43.015625 
Q 36.375 43.015625 40.234375 45.921875 
Q 44.09375 48.828125 44.09375 54.296875 
Q 44.09375 59.90625 40.109375 62.90625 
Q 36.140625 65.921875 28.71875 65.921875 
Q 24.65625 65.921875 20.015625 65.03125 
Q 15.375 64.15625 9.8125 62.3125 
L 9.8125 71.09375 
Q 15.4375 72.65625 20.34375 73.4375 
Q 25.25 74.21875 29.59375 74.21875 
Q 40.828125 74.21875 47.359375 69.109375 
Q 53.90625 64.015625 53.90625 55.328125 
Q 53.90625 49.265625 50.4375 45.09375 
Q 46.96875 40.921875 40.578125 39.3125 
z
" id="DejaVuSans-51"/>
       </defs>
       <use xlink:href="#DejaVuSans-50"/>
       <use x="63.623047" xlink:href="#DejaVuSans-48"/>
       <use x="127.246094" xlink:href="#DejaVuSans-50"/>
       <use x="190.869141" xlink:href="#DejaVuSans-48"/>
       <use x="254.492188" xlink:href="#DejaVuSans-45"/>
       <use x="290.576172" xlink:href="#DejaVuSans-48"/>
       <use x="354.199219" xlink:href="#DejaVuSans-51"/>
      </g>
     </g>
    </g>
    <g id="xtick_2">
     <g id="line2d_2">
      <g>
       <use style="stroke:#000000;stroke-width:0.8;" x="146.913533" xlink:href="#mf3aa65cb29" y="613.485375"/>
      </g>
     </g>
     <g id="text_2">
      <!-- 2020-05 -->
      <g transform="translate(94.798784 658.94596)rotate(-30)scale(0.14 -0.14)">
       <defs>
        <path d="M 10.796875 72.90625 
L 49.515625 72.90625 
L 49.515625 64.59375 
L 19.828125 64.59375 
L 19.828125 46.734375 
Q 21.96875 47.46875 24.109375 47.828125 
Q 26.265625 48.1875 28.421875 48.1875 
Q 40.625 48.1875 47.75 41.5 
Q 54.890625 34.8125 54.890625 23.390625 
Q 54.890625 11.625 47.5625 5.09375 
Q 40.234375 -1.421875 26.90625 -1.421875 
Q 22.3125 -1.421875 17.546875 -0.640625 
Q 12.796875 0.140625 7.71875 1.703125 
L 7.71875 11.625 
Q 12.109375 9.234375 16.796875 8.0625 
Q 21.484375 6.890625 26.703125 6.890625 
Q 35.15625 6.890625 40.078125 11.328125 
Q 45.015625 15.765625 45.015625 23.390625 
Q 45.015625 31 40.078125 35.4375 
Q 35.15625 39.890625 26.703125 39.890625 
Q 22.75 39.890625 18.8125 39.015625 
Q 14.890625 38.140625 10.796875 36.28125 
z
" id="DejaVuSans-53"/>
       </defs>
       <use xlink:href="#DejaVuSans-50"/>
       <use x="63.623047" xlink:href="#DejaVuSans-48"/>
       <use x="127.246094" xlink:href="#DejaVuSans-50"/>
       <use x="190.869141" xlink:href="#DejaVuSans-48"/>
       <use x="254.492188" xlink:href="#DejaVuSans-45"/>
       <use x="290.576172" xlink:href="#DejaVuSans-48"/>
       <use x="354.199219" xlink:href="#DejaVuSans-53"/>
      </g>
     </g>
    </g>
    <g id="xtick_3">
     <g id="line2d_3">
      <g>
       <use style="stroke:#000000;stroke-width:0.8;" x="216.890097" xlink:href="#mf3aa65cb29" y="613.485375"/>
      </g>
     </g>
     <g id="text_3">
      <!-- 2020-07 -->
      <g transform="translate(164.775348 658.94596)rotate(-30)scale(0.14 -0.14)">
       <defs>
        <path d="M 8.203125 72.90625 
L 55.078125 72.90625 
L 55.078125 68.703125 
L 28.609375 0 
L 18.3125 0 
L 43.21875 64.59375 
L 8.203125 64.59375 
z
" id="DejaVuSans-55"/>
       </defs>
       <use xlink:href="#DejaVuSans-50"/>
       <use x="63.623047" xlink:href="#DejaVuSans-48"/>
       <use x="127.246094" xlink:href="#DejaVuSans-50"/>
       <use x="190.869141" xlink:href="#DejaVuSans-48"/>
       <use x="254.492188" xlink:href="#DejaVuSans-45"/>
       <use x="290.576172" xlink:href="#DejaVuSans-48"/>
       <use x="354.199219" xlink:href="#DejaVuSans-55"/>
      </g>
     </g>
    </g>
    <g id="xtick_4">
     <g id="line2d_4">
      <g>
       <use style="stroke:#000000;stroke-width:0.8;" x="288.013817" xlink:href="#mf3aa65cb29" y="613.485375"/>
      </g>
     </g>
     <g id="text_4">
      <!-- 2020-09 -->
      <g transform="translate(235.899068 658.94596)rotate(-30)scale(0.14 -0.14)">
       <defs>
        <path d="M 10.984375 1.515625 
L 10.984375 10.5 
Q 14.703125 8.734375 18.5 7.8125 
Q 22.3125 6.890625 25.984375 6.890625 
Q 35.75 6.890625 40.890625 13.453125 
Q 46.046875 20.015625 46.78125 33.40625 
Q 43.953125 29.203125 39.59375 26.953125 
Q 35.25 24.703125 29.984375 24.703125 
Q 19.046875 24.703125 12.671875 31.3125 
Q 6.296875 37.9375 6.296875 49.421875 
Q 6.296875 60.640625 12.9375 67.421875 
Q 19.578125 74.21875 30.609375 74.21875 
Q 43.265625 74.21875 49.921875 64.515625 
Q 56.59375 54.828125 56.59375 36.375 
Q 56.59375 19.140625 48.40625 8.859375 
Q 40.234375 -1.421875 26.421875 -1.421875 
Q 22.703125 -1.421875 18.890625 -0.6875 
Q 15.09375 0.046875 10.984375 1.515625 
z
M 30.609375 32.421875 
Q 37.25 32.421875 41.125 36.953125 
Q 45.015625 41.5 45.015625 49.421875 
Q 45.015625 57.28125 41.125 61.84375 
Q 37.25 66.40625 30.609375 66.40625 
Q 23.96875 66.40625 20.09375 61.84375 
Q 16.21875 57.28125 16.21875 49.421875 
Q 16.21875 41.5 20.09375 36.953125 
Q 23.96875 32.421875 30.609375 32.421875 
z
" id="DejaVuSans-57"/>
       </defs>
       <use xlink:href="#DejaVuSans-50"/>
       <use x="63.623047" xlink:href="#DejaVuSans-48"/>
       <use x="127.246094" xlink:href="#DejaVuSans-50"/>
       <use x="190.869141" xlink:href="#DejaVuSans-48"/>
       <use x="254.492188" xlink:href="#DejaVuSans-45"/>
       <use x="290.576172" xlink:href="#DejaVuSans-48"/>
       <use x="354.199219" xlink:href="#DejaVuSans-57"/>
      </g>
     </g>
    </g>
    <g id="xtick_5">
     <g id="line2d_5">
      <g>
       <use style="stroke:#000000;stroke-width:0.8;" x="357.990381" xlink:href="#mf3aa65cb29" y="613.485375"/>
      </g>
     </g>
     <g id="text_5">
      <!-- 2020-11 -->
      <g transform="translate(305.875631 658.94596)rotate(-30)scale(0.14 -0.14)">
       <defs>
        <path d="M 12.40625 8.296875 
L 28.515625 8.296875 
L 28.515625 63.921875 
L 10.984375 60.40625 
L 10.984375 69.390625 
L 28.421875 72.90625 
L 38.28125 72.90625 
L 38.28125 8.296875 
L 54.390625 8.296875 
L 54.390625 0 
L 12.40625 0 
z
" id="DejaVuSans-49"/>
       </defs>
       <use xlink:href="#DejaVuSans-50"/>
       <use x="63.623047" xlink:href="#DejaVuSans-48"/>
       <use x="127.246094" xlink:href="#DejaVuSans-50"/>
       <use x="190.869141" xlink:href="#DejaVuSans-48"/>
       <use x="254.492188" xlink:href="#DejaVuSans-45"/>
       <use x="290.576172" xlink:href="#DejaVuSans-49"/>
       <use x="354.199219" xlink:href="#DejaVuSans-49"/>
      </g>
     </g>
    </g>
    <g id="xtick_6">
     <g id="line2d_6">
      <g>
       <use style="stroke:#000000;stroke-width:0.8;" x="427.966944" xlink:href="#mf3aa65cb29" y="613.485375"/>
      </g>
     </g>
     <g id="text_6">
      <!-- 2021-01 -->
      <g transform="translate(375.852195 658.94596)rotate(-30)scale(0.14 -0.14)">
       <use xlink:href="#DejaVuSans-50"/>
       <use x="63.623047" xlink:href="#DejaVuSans-48"/>
       <use x="127.246094" xlink:href="#DejaVuSans-50"/>
       <use x="190.869141" xlink:href="#DejaVuSans-49"/>
       <use x="254.492188" xlink:href="#DejaVuSans-45"/>
       <use x="290.576172" xlink:href="#DejaVuSans-48"/>
       <use x="354.199219" xlink:href="#DejaVuSans-49"/>
      </g>
     </g>
    </g>
    <g id="xtick_7">
     <g id="line2d_7">
      <g>
       <use style="stroke:#000000;stroke-width:0.8;" x="495.649194" xlink:href="#mf3aa65cb29" y="613.485375"/>
      </g>
     </g>
     <g id="text_7">
      <!-- 2021-03 -->
      <g transform="translate(443.534445 658.94596)rotate(-30)scale(0.14 -0.14)">
       <use xlink:href="#DejaVuSans-50"/>
       <use x="63.623047" xlink:href="#DejaVuSans-48"/>
       <use x="127.246094" xlink:href="#DejaVuSans-50"/>
       <use x="190.869141" xlink:href="#DejaVuSans-49"/>
       <use x="254.492188" xlink:href="#DejaVuSans-45"/>
       <use x="290.576172" xlink:href="#DejaVuSans-48"/>
       <use x="354.199219" xlink:href="#DejaVuSans-51"/>
      </g>
     </g>
    </g>
    <g id="xtick_8">
     <g id="line2d_8">
      <g>
       <use style="stroke:#000000;stroke-width:0.8;" x="565.625757" xlink:href="#mf3aa65cb29" y="613.485375"/>
      </g>
     </g>
     <g id="text_8">
      <!-- 2021-05 -->
      <g transform="translate(513.511008 658.94596)rotate(-30)scale(0.14 -0.14)">
       <use xlink:href="#DejaVuSans-50"/>
       <use x="63.623047" xlink:href="#DejaVuSans-48"/>
       <use x="127.246094" xlink:href="#DejaVuSans-50"/>
       <use x="190.869141" xlink:href="#DejaVuSans-49"/>
       <use x="254.492188" xlink:href="#DejaVuSans-45"/>
       <use x="290.576172" xlink:href="#DejaVuSans-48"/>
       <use x="354.199219" xlink:href="#DejaVuSans-53"/>
      </g>
     </g>
    </g>
   </g>
   <g id="matplotlib.axis_2">
    <g id="ytick_1">
     <g id="line2d_9">
      <defs>
       <path d="M 0 0 
L -3.5 0 
" id="m7890c680de" style="stroke:#000000;stroke-width:0.8;"/>
      </defs>
      <g>
       <use style="stroke:#000000;stroke-width:0.8;" x="67.645" xlink:href="#m7890c680de" y="512.556721"/>
      </g>
     </g>
     <g id="text_9">
      <!-- 100000 -->
      <g transform="translate(7.2 517.875627)scale(0.14 -0.14)">
       <use xlink:href="#DejaVuSans-49"/>
       <use x="63.623047" xlink:href="#DejaVuSans-48"/>
       <use x="127.246094" xlink:href="#DejaVuSans-48"/>
       <use x="190.869141" xlink:href="#DejaVuSans-48"/>
       <use x="254.492188" xlink:href="#DejaVuSans-48"/>
       <use x="318.115234" xlink:href="#DejaVuSans-48"/>
      </g>
     </g>
    </g>
    <g id="ytick_2">
     <g id="line2d_10">
      <g>
       <use style="stroke:#000000;stroke-width:0.8;" x="67.645" xlink:href="#m7890c680de" y="407.275587"/>
      </g>
     </g>
     <g id="text_10">
      <!-- 200000 -->
      <g transform="translate(7.2 412.594493)scale(0.14 -0.14)">
       <use xlink:href="#DejaVuSans-50"/>
       <use x="63.623047" xlink:href="#DejaVuSans-48"/>
       <use x="127.246094" xlink:href="#DejaVuSans-48"/>
       <use x="190.869141" xlink:href="#DejaVuSans-48"/>
       <use x="254.492188" xlink:href="#DejaVuSans-48"/>
       <use x="318.115234" xlink:href="#DejaVuSans-48"/>
      </g>
     </g>
    </g>
    <g id="ytick_3">
     <g id="line2d_11">
      <g>
       <use style="stroke:#000000;stroke-width:0.8;" x="67.645" xlink:href="#m7890c680de" y="301.994453"/>
      </g>
     </g>
     <g id="text_11">
      <!-- 300000 -->
      <g transform="translate(7.2 307.313359)scale(0.14 -0.14)">
       <use xlink:href="#DejaVuSans-51"/>
       <use x="63.623047" xlink:href="#DejaVuSans-48"/>
       <use x="127.246094" xlink:href="#DejaVuSans-48"/>
       <use x="190.869141" xlink:href="#DejaVuSans-48"/>
       <use x="254.492188" xlink:href="#DejaVuSans-48"/>
       <use x="318.115234" xlink:href="#DejaVuSans-48"/>
      </g>
     </g>
    </g>
    <g id="ytick_4">
     <g id="line2d_12">
      <g>
       <use style="stroke:#000000;stroke-width:0.8;" x="67.645" xlink:href="#m7890c680de" y="196.713319"/>
      </g>
     </g>
     <g id="text_12">
      <!-- 400000 -->
      <g transform="translate(7.2 202.032225)scale(0.14 -0.14)">
       <defs>
        <path d="M 37.796875 64.3125 
L 12.890625 25.390625 
L 37.796875 25.390625 
z
M 35.203125 72.90625 
L 47.609375 72.90625 
L 47.609375 25.390625 
L 58.015625 25.390625 
L 58.015625 17.1875 
L 47.609375 17.1875 
L 47.609375 0 
L 37.796875 0 
L 37.796875 17.1875 
L 4.890625 17.1875 
L 4.890625 26.703125 
z
" id="DejaVuSans-52"/>
       </defs>
       <use xlink:href="#DejaVuSans-52"/>
       <use x="63.623047" xlink:href="#DejaVuSans-48"/>
       <use x="127.246094" xlink:href="#DejaVuSans-48"/>
       <use x="190.869141" xlink:href="#DejaVuSans-48"/>
       <use x="254.492188" xlink:href="#DejaVuSans-48"/>
       <use x="318.115234" xlink:href="#DejaVuSans-48"/>
      </g>
     </g>
    </g>
    <g id="ytick_5">
     <g id="line2d_13">
      <g>
       <use style="stroke:#000000;stroke-width:0.8;" x="67.645" xlink:href="#m7890c680de" y="91.432185"/>
      </g>
     </g>
     <g id="text_13">
      <!-- 500000 -->
      <g transform="translate(7.2 96.751091)scale(0.14 -0.14)">
       <use xlink:href="#DejaVuSans-53"/>
       <use x="63.623047" xlink:href="#DejaVuSans-48"/>
       <use x="127.246094" xlink:href="#DejaVuSans-48"/>
       <use x="190.869141" xlink:href="#DejaVuSans-48"/>
       <use x="254.492188" xlink:href="#DejaVuSans-48"/>
       <use x="318.115234" xlink:href="#DejaVuSans-48"/>
      </g>
     </g>
    </g>
   </g>
   <g id="line2d_14">
    <path clip-path="url(#pb8339b2173)" d="M 90.702851 586.77992 
L 98.732949 571.282538 
L 114.793144 568.041984 
L 122.823241 564.062357 
L 130.853338 562.672646 
L 138.883436 557.44228 
L 146.913533 554.788142 
L 159.532258 550.909585 
L 167.562355 482.56002 
L 175.592453 476.544256 
L 176.73961 474.584974 
L 177.886766 473.259485 
L 179.033923 471.700271 
L 180.18108 471.432857 
L 181.328237 470.494802 
L 183.62255 469.2767 
L 184.769707 475.551455 
L 185.916864 474.862917 
L 187.064021 474.569182 
L 188.211177 474.51233 
L 189.358334 474.041724 
L 190.505491 473.169996 
L 191.652648 471.713958 
L 192.799804 470.663252 
L 193.946961 469.918914 
L 195.094118 469.623074 
L 197.388432 467.879619 
L 198.535588 467.38585 
L 199.682745 463.574673 
L 200.829902 452.131667 
L 201.977059 451.796873 
L 204.271372 450.734586 
L 206.565686 450.496651 
L 207.712843 449.01324 
L 208.859999 449.30171 
L 210.007156 447.741444 
L 211.154313 445.656877 
L 212.30147 445.350509 
L 213.448626 441.52354 
L 214.595783 441.15295 
L 215.74294 440.250691 
L 216.890097 439.04838 
L 219.18441 428.170734 
L 220.331567 426.79892 
L 221.478724 426.459915 
L 222.625881 425.880869 
L 223.773037 425.024933 
L 224.920194 423.142507 
L 226.067351 421.926509 
L 227.214508 421.036884 
L 228.361665 420.655766 
L 229.508821 419.974597 
L 230.655978 418.452232 
L 231.803135 417.122531 
L 232.950292 416.377141 
L 234.097449 415.162197 
L 242.127546 409.245397 
L 244.42186 408.75584 
L 246.716173 408.23154 
L 247.86333 405.023623 
L 249.010487 403.982393 
L 250.157643 403.567585 
L 251.3048 402.197878 
L 252.451957 401.265087 
L 253.599114 400.17648 
L 255.893427 399.279485 
L 258.187741 396.321085 
L 259.334898 395.449357 
L 260.482054 396.182114 
L 262.776368 394.747132 
L 263.923525 393.878563 
L 265.070682 393.367949 
L 266.217838 390.928585 
L 268.512152 381.320629 
L 269.659309 379.258171 
L 270.806465 378.742294 
L 271.953622 378.378021 
L 273.100779 377.173605 
L 274.247936 375.80495 
L 275.395093 375.351189 
L 277.689406 372.233814 
L 278.836563 371.965347 
L 279.98372 371.181003 
L 283.42519 366.559161 
L 284.572347 366.215945 
L 288.013817 362.88485 
L 289.160974 361.139288 
L 290.308131 359.839066 
L 296.043915 354.461306 
L 297.191071 352.810498 
L 299.485385 350.998609 
L 302.926855 342.914071 
L 304.074012 341.459086 
L 305.221169 337.713183 
L 306.368326 337.605796 
L 307.515482 335.511755 
L 308.662639 332.595467 
L 309.809796 330.378247 
L 310.956953 329.979231 
L 312.104109 329.332805 
L 313.251266 328.030477 
L 314.398423 326.190163 
L 315.54558 323.603406 
L 317.839893 320.918737 
L 318.98705 320.19335 
L 322.42852 317.823471 
L 324.722834 315.946309 
L 325.869991 315.254612 
L 327.017148 314.80085 
L 329.311461 312.706808 
L 330.458618 308.734551 
L 331.605775 307.740697 
L 332.752931 302.182906 
L 333.900088 300.239416 
L 335.047245 299.416118 
L 338.488715 296.357701 
L 339.635872 294.910085 
L 340.783029 294.24892 
L 341.930186 292.304377 
L 343.077342 292.176987 
L 344.224499 290.588295 
L 345.371656 289.764996 
L 346.518813 287.254041 
L 347.66597 285.204218 
L 348.813126 283.937686 
L 349.960283 282.899614 
L 351.10744 282.215286 
L 353.401753 280.39287 
L 354.54891 278.368314 
L 356.843224 269.566811 
L 357.990381 267.822302 
L 359.137537 267.403283 
L 360.284694 266.743171 
L 361.431851 265.901974 
L 362.579008 263.465769 
L 363.726164 260.690558 
L 366.020478 258.078533 
L 367.167635 257.650039 
L 368.314792 256.972029 
L 370.609105 253.9094 
L 371.756262 253.292453 
L 372.903419 244.612023 
L 374.050575 243.512888 
L 375.197732 243.260214 
L 376.344889 242.632738 
L 377.492046 241.276717 
L 378.639203 240.565017 
L 379.786359 239.548001 
L 382.080673 237.232869 
L 383.22783 236.582231 
L 384.374986 236.203219 
L 387.816457 231.20763 
L 388.963614 230.774924 
L 390.11077 229.752644 
L 392.405084 227.983921 
L 394.699397 225.524554 
L 395.846554 224.552809 
L 396.993711 224.076938 
L 398.140868 223.147306 
L 399.288025 222.934638 
L 400.435181 221.915517 
L 401.582338 220.603714 
L 402.729495 219.617229 
L 403.876652 218.212779 
L 405.023808 217.796919 
L 406.170965 215.856587 
L 410.759592 209.297573 
L 411.906749 207.149838 
L 414.201063 205.043162 
L 415.348219 204.680995 
L 416.495376 204.116688 
L 417.642533 202.281638 
L 418.78969 201.187767 
L 419.936847 201.143549 
L 425.67263 199.471684 
L 426.819787 196.588034 
L 427.966944 196.588034 
L 429.114101 196.2943 
L 431.408414 196.263768 
L 432.555571 195.662613 
L 433.702728 195.222538 
L 434.849885 184.962891 
L 435.997041 183.030983 
L 437.144198 181.952904 
L 438.291355 179.658828 
L 440.585669 178.666027 
L 442.879982 175.82133 
L 445.174296 170.68677 
L 446.321452 169.699233 
L 447.468609 169.554997 
L 448.615766 168.191607 
L 449.762923 167.49254 
L 450.91008 167.051412 
L 452.057236 165.316379 
L 454.35155 162.42957 
L 455.498707 161.81157 
L 456.645863 161.522047 
L 457.79302 158.545749 
L 458.940177 155.893717 
L 460.087334 155.528392 
L 461.234491 154.128153 
L 462.381647 153.914432 
L 463.528804 153.409083 
L 471.558902 143.667419 
L 479.588999 132.732921 
L 487.619096 125.626444 
L 495.649194 115.882675 
L 503.679291 110.150118 
L 519.739486 101.008557 
L 527.769584 93.636772 
L 535.799681 68.102938 
L 544.976935 60.215276 
L 551.859876 52.67083 
L 551.859876 52.67083 
" style="fill:none;stroke:#1f77b4;stroke-linecap:square;stroke-width:1.5;"/>
   </g>
   <g id="patch_3">
    <path d="M 67.645 613.485375 
L 67.645 25.965375 
" style="fill:none;stroke:#000000;stroke-linecap:square;stroke-linejoin:miter;stroke-width:0.8;"/>
   </g>
   <g id="patch_4">
    <path d="M 574.917727 613.485375 
L 574.917727 25.965375 
" style="fill:none;stroke:#000000;stroke-linecap:square;stroke-linejoin:miter;stroke-width:0.8;"/>
   </g>
   <g id="patch_5">
    <path d="M 67.645 613.485375 
L 574.917727 613.485375 
" style="fill:none;stroke:#000000;stroke-linecap:square;stroke-linejoin:miter;stroke-width:0.8;"/>
   </g>
   <g id="patch_6">
    <path d="M 67.645 25.965375 
L 574.917727 25.965375 
" style="fill:none;stroke:#000000;stroke-linecap:square;stroke-linejoin:miter;stroke-width:0.8;"/>
   </g>
   <g id="text_14">
    <!-- Total Number of Manuscripts in the CORD-19 Corpus Over Time -->
    <g transform="translate(54.778239 19.965375)scale(0.168 -0.168)">
     <defs>
      <path d="M -0.296875 72.90625 
L 61.375 72.90625 
L 61.375 64.59375 
L 35.5 64.59375 
L 35.5 0 
L 25.59375 0 
L 25.59375 64.59375 
L -0.296875 64.59375 
z
" id="DejaVuSans-84"/>
      <path d="M 30.609375 48.390625 
Q 23.390625 48.390625 19.1875 42.75 
Q 14.984375 37.109375 14.984375 27.296875 
Q 14.984375 17.484375 19.15625 11.84375 
Q 23.34375 6.203125 30.609375 6.203125 
Q 37.796875 6.203125 41.984375 11.859375 
Q 46.1875 17.53125 46.1875 27.296875 
Q 46.1875 37.015625 41.984375 42.703125 
Q 37.796875 48.390625 30.609375 48.390625 
z
M 30.609375 56 
Q 42.328125 56 49.015625 48.375 
Q 55.71875 40.765625 55.71875 27.296875 
Q 55.71875 13.875 49.015625 6.21875 
Q 42.328125 -1.421875 30.609375 -1.421875 
Q 18.84375 -1.421875 12.171875 6.21875 
Q 5.515625 13.875 5.515625 27.296875 
Q 5.515625 40.765625 12.171875 48.375 
Q 18.84375 56 30.609375 56 
z
" id="DejaVuSans-111"/>
      <path d="M 18.3125 70.21875 
L 18.3125 54.6875 
L 36.8125 54.6875 
L 36.8125 47.703125 
L 18.3125 47.703125 
L 18.3125 18.015625 
Q 18.3125 11.328125 20.140625 9.421875 
Q 21.96875 7.515625 27.59375 7.515625 
L 36.8125 7.515625 
L 36.8125 0 
L 27.59375 0 
Q 17.1875 0 13.234375 3.875 
Q 9.28125 7.765625 9.28125 18.015625 
L 9.28125 47.703125 
L 2.6875 47.703125 
L 2.6875 54.6875 
L 9.28125 54.6875 
L 9.28125 70.21875 
z
" id="DejaVuSans-116"/>
      <path d="M 34.28125 27.484375 
Q 23.390625 27.484375 19.1875 25 
Q 14.984375 22.515625 14.984375 16.5 
Q 14.984375 11.71875 18.140625 8.90625 
Q 21.296875 6.109375 26.703125 6.109375 
Q 34.1875 6.109375 38.703125 11.40625 
Q 43.21875 16.703125 43.21875 25.484375 
L 43.21875 27.484375 
z
M 52.203125 31.203125 
L 52.203125 0 
L 43.21875 0 
L 43.21875 8.296875 
Q 40.140625 3.328125 35.546875 0.953125 
Q 30.953125 -1.421875 24.3125 -1.421875 
Q 15.921875 -1.421875 10.953125 3.296875 
Q 6 8.015625 6 15.921875 
Q 6 25.140625 12.171875 29.828125 
Q 18.359375 34.515625 30.609375 34.515625 
L 43.21875 34.515625 
L 43.21875 35.40625 
Q 43.21875 41.609375 39.140625 45 
Q 35.0625 48.390625 27.6875 48.390625 
Q 23 48.390625 18.546875 47.265625 
Q 14.109375 46.140625 10.015625 43.890625 
L 10.015625 52.203125 
Q 14.9375 54.109375 19.578125 55.046875 
Q 24.21875 56 28.609375 56 
Q 40.484375 56 46.34375 49.84375 
Q 52.203125 43.703125 52.203125 31.203125 
z
" id="DejaVuSans-97"/>
      <path d="M 9.421875 75.984375 
L 18.40625 75.984375 
L 18.40625 0 
L 9.421875 0 
z
" id="DejaVuSans-108"/>
      <path id="DejaVuSans-32"/>
      <path d="M 9.8125 72.90625 
L 23.09375 72.90625 
L 55.421875 11.921875 
L 55.421875 72.90625 
L 64.984375 72.90625 
L 64.984375 0 
L 51.703125 0 
L 19.390625 60.984375 
L 19.390625 0 
L 9.8125 0 
z
" id="DejaVuSans-78"/>
      <path d="M 8.5 21.578125 
L 8.5 54.6875 
L 17.484375 54.6875 
L 17.484375 21.921875 
Q 17.484375 14.15625 20.5 10.265625 
Q 23.53125 6.390625 29.59375 6.390625 
Q 36.859375 6.390625 41.078125 11.03125 
Q 45.3125 15.671875 45.3125 23.6875 
L 45.3125 54.6875 
L 54.296875 54.6875 
L 54.296875 0 
L 45.3125 0 
L 45.3125 8.40625 
Q 42.046875 3.421875 37.71875 1 
Q 33.40625 -1.421875 27.6875 -1.421875 
Q 18.265625 -1.421875 13.375 4.4375 
Q 8.5 10.296875 8.5 21.578125 
z
M 31.109375 56 
z
" id="DejaVuSans-117"/>
      <path d="M 52 44.1875 
Q 55.375 50.25 60.0625 53.125 
Q 64.75 56 71.09375 56 
Q 79.640625 56 84.28125 50.015625 
Q 88.921875 44.046875 88.921875 33.015625 
L 88.921875 0 
L 79.890625 0 
L 79.890625 32.71875 
Q 79.890625 40.578125 77.09375 44.375 
Q 74.3125 48.1875 68.609375 48.1875 
Q 61.625 48.1875 57.5625 43.546875 
Q 53.515625 38.921875 53.515625 30.90625 
L 53.515625 0 
L 44.484375 0 
L 44.484375 32.71875 
Q 44.484375 40.625 41.703125 44.40625 
Q 38.921875 48.1875 33.109375 48.1875 
Q 26.21875 48.1875 22.15625 43.53125 
Q 18.109375 38.875 18.109375 30.90625 
L 18.109375 0 
L 9.078125 0 
L 9.078125 54.6875 
L 18.109375 54.6875 
L 18.109375 46.1875 
Q 21.1875 51.21875 25.484375 53.609375 
Q 29.78125 56 35.6875 56 
Q 41.65625 56 45.828125 52.96875 
Q 50 49.953125 52 44.1875 
z
" id="DejaVuSans-109"/>
      <path d="M 48.6875 27.296875 
Q 48.6875 37.203125 44.609375 42.84375 
Q 40.53125 48.484375 33.40625 48.484375 
Q 26.265625 48.484375 22.1875 42.84375 
Q 18.109375 37.203125 18.109375 27.296875 
Q 18.109375 17.390625 22.1875 11.75 
Q 26.265625 6.109375 33.40625 6.109375 
Q 40.53125 6.109375 44.609375 11.75 
Q 48.6875 17.390625 48.6875 27.296875 
z
M 18.109375 46.390625 
Q 20.953125 51.265625 25.265625 53.625 
Q 29.59375 56 35.59375 56 
Q 45.5625 56 51.78125 48.09375 
Q 58.015625 40.1875 58.015625 27.296875 
Q 58.015625 14.40625 51.78125 6.484375 
Q 45.5625 -1.421875 35.59375 -1.421875 
Q 29.59375 -1.421875 25.265625 0.953125 
Q 20.953125 3.328125 18.109375 8.203125 
L 18.109375 0 
L 9.078125 0 
L 9.078125 75.984375 
L 18.109375 75.984375 
z
" id="DejaVuSans-98"/>
      <path d="M 56.203125 29.59375 
L 56.203125 25.203125 
L 14.890625 25.203125 
Q 15.484375 15.921875 20.484375 11.0625 
Q 25.484375 6.203125 34.421875 6.203125 
Q 39.59375 6.203125 44.453125 7.46875 
Q 49.3125 8.734375 54.109375 11.28125 
L 54.109375 2.78125 
Q 49.265625 0.734375 44.1875 -0.34375 
Q 39.109375 -1.421875 33.890625 -1.421875 
Q 20.796875 -1.421875 13.15625 6.1875 
Q 5.515625 13.8125 5.515625 26.8125 
Q 5.515625 40.234375 12.765625 48.109375 
Q 20.015625 56 32.328125 56 
Q 43.359375 56 49.78125 48.890625 
Q 56.203125 41.796875 56.203125 29.59375 
z
M 47.21875 32.234375 
Q 47.125 39.59375 43.09375 43.984375 
Q 39.0625 48.390625 32.421875 48.390625 
Q 24.90625 48.390625 20.390625 44.140625 
Q 15.875 39.890625 15.1875 32.171875 
z
" id="DejaVuSans-101"/>
      <path d="M 41.109375 46.296875 
Q 39.59375 47.171875 37.8125 47.578125 
Q 36.03125 48 33.890625 48 
Q 26.265625 48 22.1875 43.046875 
Q 18.109375 38.09375 18.109375 28.8125 
L 18.109375 0 
L 9.078125 0 
L 9.078125 54.6875 
L 18.109375 54.6875 
L 18.109375 46.1875 
Q 20.953125 51.171875 25.484375 53.578125 
Q 30.03125 56 36.53125 56 
Q 37.453125 56 38.578125 55.875 
Q 39.703125 55.765625 41.0625 55.515625 
z
" id="DejaVuSans-114"/>
      <path d="M 37.109375 75.984375 
L 37.109375 68.5 
L 28.515625 68.5 
Q 23.6875 68.5 21.796875 66.546875 
Q 19.921875 64.59375 19.921875 59.515625 
L 19.921875 54.6875 
L 34.71875 54.6875 
L 34.71875 47.703125 
L 19.921875 47.703125 
L 19.921875 0 
L 10.890625 0 
L 10.890625 47.703125 
L 2.296875 47.703125 
L 2.296875 54.6875 
L 10.890625 54.6875 
L 10.890625 58.5 
Q 10.890625 67.625 15.140625 71.796875 
Q 19.390625 75.984375 28.609375 75.984375 
z
" id="DejaVuSans-102"/>
      <path d="M 9.8125 72.90625 
L 24.515625 72.90625 
L 43.109375 23.296875 
L 61.8125 72.90625 
L 76.515625 72.90625 
L 76.515625 0 
L 66.890625 0 
L 66.890625 64.015625 
L 48.09375 14.015625 
L 38.1875 14.015625 
L 19.390625 64.015625 
L 19.390625 0 
L 9.8125 0 
z
" id="DejaVuSans-77"/>
      <path d="M 54.890625 33.015625 
L 54.890625 0 
L 45.90625 0 
L 45.90625 32.71875 
Q 45.90625 40.484375 42.875 44.328125 
Q 39.84375 48.1875 33.796875 48.1875 
Q 26.515625 48.1875 22.3125 43.546875 
Q 18.109375 38.921875 18.109375 30.90625 
L 18.109375 0 
L 9.078125 0 
L 9.078125 54.6875 
L 18.109375 54.6875 
L 18.109375 46.1875 
Q 21.34375 51.125 25.703125 53.5625 
Q 30.078125 56 35.796875 56 
Q 45.21875 56 50.046875 50.171875 
Q 54.890625 44.34375 54.890625 33.015625 
z
" id="DejaVuSans-110"/>
      <path d="M 44.28125 53.078125 
L 44.28125 44.578125 
Q 40.484375 46.53125 36.375 47.5 
Q 32.28125 48.484375 27.875 48.484375 
Q 21.1875 48.484375 17.84375 46.4375 
Q 14.5 44.390625 14.5 40.28125 
Q 14.5 37.15625 16.890625 35.375 
Q 19.28125 33.59375 26.515625 31.984375 
L 29.59375 31.296875 
Q 39.15625 29.25 43.1875 25.515625 
Q 47.21875 21.78125 47.21875 15.09375 
Q 47.21875 7.46875 41.1875 3.015625 
Q 35.15625 -1.421875 24.609375 -1.421875 
Q 20.21875 -1.421875 15.453125 -0.5625 
Q 10.6875 0.296875 5.421875 2 
L 5.421875 11.28125 
Q 10.40625 8.6875 15.234375 7.390625 
Q 20.0625 6.109375 24.8125 6.109375 
Q 31.15625 6.109375 34.5625 8.28125 
Q 37.984375 10.453125 37.984375 14.40625 
Q 37.984375 18.0625 35.515625 20.015625 
Q 33.0625 21.96875 24.703125 23.78125 
L 21.578125 24.515625 
Q 13.234375 26.265625 9.515625 29.90625 
Q 5.8125 33.546875 5.8125 39.890625 
Q 5.8125 47.609375 11.28125 51.796875 
Q 16.75 56 26.8125 56 
Q 31.78125 56 36.171875 55.265625 
Q 40.578125 54.546875 44.28125 53.078125 
z
" id="DejaVuSans-115"/>
      <path d="M 48.78125 52.59375 
L 48.78125 44.1875 
Q 44.96875 46.296875 41.140625 47.34375 
Q 37.3125 48.390625 33.40625 48.390625 
Q 24.65625 48.390625 19.8125 42.84375 
Q 14.984375 37.3125 14.984375 27.296875 
Q 14.984375 17.28125 19.8125 11.734375 
Q 24.65625 6.203125 33.40625 6.203125 
Q 37.3125 6.203125 41.140625 7.25 
Q 44.96875 8.296875 48.78125 10.40625 
L 48.78125 2.09375 
Q 45.015625 0.34375 40.984375 -0.53125 
Q 36.96875 -1.421875 32.421875 -1.421875 
Q 20.0625 -1.421875 12.78125 6.34375 
Q 5.515625 14.109375 5.515625 27.296875 
Q 5.515625 40.671875 12.859375 48.328125 
Q 20.21875 56 33.015625 56 
Q 37.15625 56 41.109375 55.140625 
Q 45.0625 54.296875 48.78125 52.59375 
z
" id="DejaVuSans-99"/>
      <path d="M 9.421875 54.6875 
L 18.40625 54.6875 
L 18.40625 0 
L 9.421875 0 
z
M 9.421875 75.984375 
L 18.40625 75.984375 
L 18.40625 64.59375 
L 9.421875 64.59375 
z
" id="DejaVuSans-105"/>
      <path d="M 18.109375 8.203125 
L 18.109375 -20.796875 
L 9.078125 -20.796875 
L 9.078125 54.6875 
L 18.109375 54.6875 
L 18.109375 46.390625 
Q 20.953125 51.265625 25.265625 53.625 
Q 29.59375 56 35.59375 56 
Q 45.5625 56 51.78125 48.09375 
Q 58.015625 40.1875 58.015625 27.296875 
Q 58.015625 14.40625 51.78125 6.484375 
Q 45.5625 -1.421875 35.59375 -1.421875 
Q 29.59375 -1.421875 25.265625 0.953125 
Q 20.953125 3.328125 18.109375 8.203125 
z
M 48.6875 27.296875 
Q 48.6875 37.203125 44.609375 42.84375 
Q 40.53125 48.484375 33.40625 48.484375 
Q 26.265625 48.484375 22.1875 42.84375 
Q 18.109375 37.203125 18.109375 27.296875 
Q 18.109375 17.390625 22.1875 11.75 
Q 26.265625 6.109375 33.40625 6.109375 
Q 40.53125 6.109375 44.609375 11.75 
Q 48.6875 17.390625 48.6875 27.296875 
z
" id="DejaVuSans-112"/>
      <path d="M 54.890625 33.015625 
L 54.890625 0 
L 45.90625 0 
L 45.90625 32.71875 
Q 45.90625 40.484375 42.875 44.328125 
Q 39.84375 48.1875 33.796875 48.1875 
Q 26.515625 48.1875 22.3125 43.546875 
Q 18.109375 38.921875 18.109375 30.90625 
L 18.109375 0 
L 9.078125 0 
L 9.078125 75.984375 
L 18.109375 75.984375 
L 18.109375 46.1875 
Q 21.34375 51.125 25.703125 53.5625 
Q 30.078125 56 35.796875 56 
Q 45.21875 56 50.046875 50.171875 
Q 54.890625 44.34375 54.890625 33.015625 
z
" id="DejaVuSans-104"/>
      <path d="M 64.40625 67.28125 
L 64.40625 56.890625 
Q 59.421875 61.53125 53.78125 63.8125 
Q 48.140625 66.109375 41.796875 66.109375 
Q 29.296875 66.109375 22.65625 58.46875 
Q 16.015625 50.828125 16.015625 36.375 
Q 16.015625 21.96875 22.65625 14.328125 
Q 29.296875 6.6875 41.796875 6.6875 
Q 48.140625 6.6875 53.78125 8.984375 
Q 59.421875 11.28125 64.40625 15.921875 
L 64.40625 5.609375 
Q 59.234375 2.09375 53.4375 0.328125 
Q 47.65625 -1.421875 41.21875 -1.421875 
Q 24.65625 -1.421875 15.125 8.703125 
Q 5.609375 18.84375 5.609375 36.375 
Q 5.609375 53.953125 15.125 64.078125 
Q 24.65625 74.21875 41.21875 74.21875 
Q 47.75 74.21875 53.53125 72.484375 
Q 59.328125 70.75 64.40625 67.28125 
z
" id="DejaVuSans-67"/>
      <path d="M 39.40625 66.21875 
Q 28.65625 66.21875 22.328125 58.203125 
Q 16.015625 50.203125 16.015625 36.375 
Q 16.015625 22.609375 22.328125 14.59375 
Q 28.65625 6.59375 39.40625 6.59375 
Q 50.140625 6.59375 56.421875 14.59375 
Q 62.703125 22.609375 62.703125 36.375 
Q 62.703125 50.203125 56.421875 58.203125 
Q 50.140625 66.21875 39.40625 66.21875 
z
M 39.40625 74.21875 
Q 54.734375 74.21875 63.90625 63.9375 
Q 73.09375 53.65625 73.09375 36.375 
Q 73.09375 19.140625 63.90625 8.859375 
Q 54.734375 -1.421875 39.40625 -1.421875 
Q 24.03125 -1.421875 14.8125 8.828125 
Q 5.609375 19.09375 5.609375 36.375 
Q 5.609375 53.65625 14.8125 63.9375 
Q 24.03125 74.21875 39.40625 74.21875 
z
" id="DejaVuSans-79"/>
      <path d="M 44.390625 34.1875 
Q 47.5625 33.109375 50.5625 29.59375 
Q 53.5625 26.078125 56.59375 19.921875 
L 66.609375 0 
L 56 0 
L 46.6875 18.703125 
Q 43.0625 26.03125 39.671875 28.421875 
Q 36.28125 30.8125 30.421875 30.8125 
L 19.671875 30.8125 
L 19.671875 0 
L 9.8125 0 
L 9.8125 72.90625 
L 32.078125 72.90625 
Q 44.578125 72.90625 50.734375 67.671875 
Q 56.890625 62.453125 56.890625 51.90625 
Q 56.890625 45.015625 53.6875 40.46875 
Q 50.484375 35.9375 44.390625 34.1875 
z
M 19.671875 64.796875 
L 19.671875 38.921875 
L 32.078125 38.921875 
Q 39.203125 38.921875 42.84375 42.21875 
Q 46.484375 45.515625 46.484375 51.90625 
Q 46.484375 58.296875 42.84375 61.546875 
Q 39.203125 64.796875 32.078125 64.796875 
z
" id="DejaVuSans-82"/>
      <path d="M 19.671875 64.796875 
L 19.671875 8.109375 
L 31.59375 8.109375 
Q 46.6875 8.109375 53.6875 14.9375 
Q 60.6875 21.78125 60.6875 36.53125 
Q 60.6875 51.171875 53.6875 57.984375 
Q 46.6875 64.796875 31.59375 64.796875 
z
M 9.8125 72.90625 
L 30.078125 72.90625 
Q 51.265625 72.90625 61.171875 64.09375 
Q 71.09375 55.28125 71.09375 36.53125 
Q 71.09375 17.671875 61.125 8.828125 
Q 51.171875 0 30.078125 0 
L 9.8125 0 
z
" id="DejaVuSans-68"/>
      <path d="M 2.984375 54.6875 
L 12.5 54.6875 
L 29.59375 8.796875 
L 46.6875 54.6875 
L 56.203125 54.6875 
L 35.6875 0 
L 23.484375 0 
z
" id="DejaVuSans-118"/>
     </defs>
     <use xlink:href="#DejaVuSans-84"/>
     <use x="44.083984" xlink:href="#DejaVuSans-111"/>
     <use x="105.265625" xlink:href="#DejaVuSans-116"/>
     <use x="144.474609" xlink:href="#DejaVuSans-97"/>
     <use x="205.753906" xlink:href="#DejaVuSans-108"/>
     <use x="233.537109" xlink:href="#DejaVuSans-32"/>
     <use x="265.324219" xlink:href="#DejaVuSans-78"/>
     <use x="340.128906" xlink:href="#DejaVuSans-117"/>
     <use x="403.507812" xlink:href="#DejaVuSans-109"/>
     <use x="500.919922" xlink:href="#DejaVuSans-98"/>
     <use x="564.396484" xlink:href="#DejaVuSans-101"/>
     <use x="625.919922" xlink:href="#DejaVuSans-114"/>
     <use x="667.033203" xlink:href="#DejaVuSans-32"/>
     <use x="698.820312" xlink:href="#DejaVuSans-111"/>
     <use x="760.001953" xlink:href="#DejaVuSans-102"/>
     <use x="795.207031" xlink:href="#DejaVuSans-32"/>
     <use x="826.994141" xlink:href="#DejaVuSans-77"/>
     <use x="913.273438" xlink:href="#DejaVuSans-97"/>
     <use x="974.552734" xlink:href="#DejaVuSans-110"/>
     <use x="1037.931641" xlink:href="#DejaVuSans-117"/>
     <use x="1101.310547" xlink:href="#DejaVuSans-115"/>
     <use x="1153.410156" xlink:href="#DejaVuSans-99"/>
     <use x="1208.390625" xlink:href="#DejaVuSans-114"/>
     <use x="1249.503906" xlink:href="#DejaVuSans-105"/>
     <use x="1277.287109" xlink:href="#DejaVuSans-112"/>
     <use x="1340.763672" xlink:href="#DejaVuSans-116"/>
     <use x="1379.972656" xlink:href="#DejaVuSans-115"/>
     <use x="1432.072266" xlink:href="#DejaVuSans-32"/>
     <use x="1463.859375" xlink:href="#DejaVuSans-105"/>
     <use x="1491.642578" xlink:href="#DejaVuSans-110"/>
     <use x="1555.021484" xlink:href="#DejaVuSans-32"/>
     <use x="1586.808594" xlink:href="#DejaVuSans-116"/>
     <use x="1626.017578" xlink:href="#DejaVuSans-104"/>
     <use x="1689.396484" xlink:href="#DejaVuSans-101"/>
     <use x="1750.919922" xlink:href="#DejaVuSans-32"/>
     <use x="1782.707031" xlink:href="#DejaVuSans-67"/>
     <use x="1852.53125" xlink:href="#DejaVuSans-79"/>
     <use x="1931.242188" xlink:href="#DejaVuSans-82"/>
     <use x="2000.724609" xlink:href="#DejaVuSans-68"/>
     <use x="2077.726562" xlink:href="#DejaVuSans-45"/>
     <use x="2113.810547" xlink:href="#DejaVuSans-49"/>
     <use x="2177.433594" xlink:href="#DejaVuSans-57"/>
     <use x="2241.056641" xlink:href="#DejaVuSans-32"/>
     <use x="2272.84375" xlink:href="#DejaVuSans-67"/>
     <use x="2342.667969" xlink:href="#DejaVuSans-111"/>
     <use x="2403.849609" xlink:href="#DejaVuSans-114"/>
     <use x="2444.962891" xlink:href="#DejaVuSans-112"/>
     <use x="2508.439453" xlink:href="#DejaVuSans-117"/>
     <use x="2571.818359" xlink:href="#DejaVuSans-115"/>
     <use x="2623.917969" xlink:href="#DejaVuSans-32"/>
     <use x="2655.705078" xlink:href="#DejaVuSans-79"/>
     <use x="2734.416016" xlink:href="#DejaVuSans-118"/>
     <use x="2793.595703" xlink:href="#DejaVuSans-101"/>
     <use x="2855.119141" xlink:href="#DejaVuSans-114"/>
     <use x="2896.232422" xlink:href="#DejaVuSans-32"/>
     <use x="2928.019531" xlink:href="#DejaVuSans-84"/>
     <use x="2985.978516" xlink:href="#DejaVuSans-105"/>
     <use x="3013.761719" xlink:href="#DejaVuSans-109"/>
     <use x="3111.173828" xlink:href="#DejaVuSans-101"/>
    </g>
   </g>
   <g id="legend_1">
    <g id="patch_7">
     <path d="M 77.445 57.71475 
L 149.389688 57.71475 
Q 152.189688 57.71475 152.189688 54.91475 
L 152.189688 35.765375 
Q 152.189688 32.965375 149.389688 32.965375 
L 77.445 32.965375 
Q 74.645 32.965375 74.645 35.765375 
L 74.645 54.91475 
Q 74.645 57.71475 77.445 57.71475 
z
" style="fill:#ffffff;opacity:0.8;stroke:#cccccc;stroke-linejoin:miter;"/>
    </g>
    <g id="line2d_15">
     <path d="M 80.245 44.303187 
L 108.245 44.303187 
" style="fill:none;stroke:#1f77b4;stroke-linecap:square;stroke-width:1.5;"/>
    </g>
    <g id="line2d_16"/>
    <g id="text_15">
     <!-- size -->
     <g transform="translate(119.445 49.203187)scale(0.14 -0.14)">
      <defs>
       <path d="M 5.515625 54.6875 
L 48.1875 54.6875 
L 48.1875 46.484375 
L 14.40625 7.171875 
L 48.1875 7.171875 
L 48.1875 0 
L 4.296875 0 
L 4.296875 8.203125 
L 38.09375 47.515625 
L 5.515625 47.515625 
z
" id="DejaVuSans-122"/>
      </defs>
      <use xlink:href="#DejaVuSans-115"/>
      <use x="52.099609" xlink:href="#DejaVuSans-105"/>
      <use x="79.882812" xlink:href="#DejaVuSans-122"/>
      <use x="132.373047" xlink:href="#DejaVuSans-101"/>
     </g>
    </g>
   </g>
  </g>
  <g id="axes_2">
   <g id="patch_8">
    <path d="M 676.372273 613.485375 
L 1183.645 613.485375 
L 1183.645 25.965375 
L 676.372273 25.965375 
z
" style="fill:#ffffff;"/>
   </g>
   <g id="matplotlib.axis_3">
    <g id="xtick_9">
     <g id="line2d_17">
      <g>
       <use style="stroke:#000000;stroke-width:0.8;" x="685.664243" xlink:href="#mf3aa65cb29" y="613.485375"/>
      </g>
     </g>
     <g id="text_16">
      <!-- 2020-03 -->
      <g transform="translate(633.549493 658.94596)rotate(-30)scale(0.14 -0.14)">
       <use xlink:href="#DejaVuSans-50"/>
       <use x="63.623047" xlink:href="#DejaVuSans-48"/>
       <use x="127.246094" xlink:href="#DejaVuSans-50"/>
       <use x="190.869141" xlink:href="#DejaVuSans-48"/>
       <use x="254.492188" xlink:href="#DejaVuSans-45"/>
       <use x="290.576172" xlink:href="#DejaVuSans-48"/>
       <use x="354.199219" xlink:href="#DejaVuSans-51"/>
      </g>
     </g>
    </g>
    <g id="xtick_10">
     <g id="line2d_18">
      <g>
       <use style="stroke:#000000;stroke-width:0.8;" x="755.640806" xlink:href="#mf3aa65cb29" y="613.485375"/>
      </g>
     </g>
     <g id="text_17">
      <!-- 2020-05 -->
      <g transform="translate(703.526057 658.94596)rotate(-30)scale(0.14 -0.14)">
       <use xlink:href="#DejaVuSans-50"/>
       <use x="63.623047" xlink:href="#DejaVuSans-48"/>
       <use x="127.246094" xlink:href="#DejaVuSans-50"/>
       <use x="190.869141" xlink:href="#DejaVuSans-48"/>
       <use x="254.492188" xlink:href="#DejaVuSans-45"/>
       <use x="290.576172" xlink:href="#DejaVuSans-48"/>
       <use x="354.199219" xlink:href="#DejaVuSans-53"/>
      </g>
     </g>
    </g>
    <g id="xtick_11">
     <g id="line2d_19">
      <g>
       <use style="stroke:#000000;stroke-width:0.8;" x="825.61737" xlink:href="#mf3aa65cb29" y="613.485375"/>
      </g>
     </g>
     <g id="text_18">
      <!-- 2020-07 -->
      <g transform="translate(773.50262 658.94596)rotate(-30)scale(0.14 -0.14)">
       <use xlink:href="#DejaVuSans-50"/>
       <use x="63.623047" xlink:href="#DejaVuSans-48"/>
       <use x="127.246094" xlink:href="#DejaVuSans-50"/>
       <use x="190.869141" xlink:href="#DejaVuSans-48"/>
       <use x="254.492188" xlink:href="#DejaVuSans-45"/>
       <use x="290.576172" xlink:href="#DejaVuSans-48"/>
       <use x="354.199219" xlink:href="#DejaVuSans-55"/>
      </g>
     </g>
    </g>
    <g id="xtick_12">
     <g id="line2d_20">
      <g>
       <use style="stroke:#000000;stroke-width:0.8;" x="896.74109" xlink:href="#mf3aa65cb29" y="613.485375"/>
      </g>
     </g>
     <g id="text_19">
      <!-- 2020-09 -->
      <g transform="translate(844.626341 658.94596)rotate(-30)scale(0.14 -0.14)">
       <use xlink:href="#DejaVuSans-50"/>
       <use x="63.623047" xlink:href="#DejaVuSans-48"/>
       <use x="127.246094" xlink:href="#DejaVuSans-50"/>
       <use x="190.869141" xlink:href="#DejaVuSans-48"/>
       <use x="254.492188" xlink:href="#DejaVuSans-45"/>
       <use x="290.576172" xlink:href="#DejaVuSans-48"/>
       <use x="354.199219" xlink:href="#DejaVuSans-57"/>
      </g>
     </g>
    </g>
    <g id="xtick_13">
     <g id="line2d_21">
      <g>
       <use style="stroke:#000000;stroke-width:0.8;" x="966.717653" xlink:href="#mf3aa65cb29" y="613.485375"/>
      </g>
     </g>
     <g id="text_20">
      <!-- 2020-11 -->
      <g transform="translate(914.602904 658.94596)rotate(-30)scale(0.14 -0.14)">
       <use xlink:href="#DejaVuSans-50"/>
       <use x="63.623047" xlink:href="#DejaVuSans-48"/>
       <use x="127.246094" xlink:href="#DejaVuSans-50"/>
       <use x="190.869141" xlink:href="#DejaVuSans-48"/>
       <use x="254.492188" xlink:href="#DejaVuSans-45"/>
       <use x="290.576172" xlink:href="#DejaVuSans-49"/>
       <use x="354.199219" xlink:href="#DejaVuSans-49"/>
      </g>
     </g>
    </g>
    <g id="xtick_14">
     <g id="line2d_22">
      <g>
       <use style="stroke:#000000;stroke-width:0.8;" x="1036.694217" xlink:href="#mf3aa65cb29" y="613.485375"/>
      </g>
     </g>
     <g id="text_21">
      <!-- 2021-01 -->
      <g transform="translate(984.579468 658.94596)rotate(-30)scale(0.14 -0.14)">
       <use xlink:href="#DejaVuSans-50"/>
       <use x="63.623047" xlink:href="#DejaVuSans-48"/>
       <use x="127.246094" xlink:href="#DejaVuSans-50"/>
       <use x="190.869141" xlink:href="#DejaVuSans-49"/>
       <use x="254.492188" xlink:href="#DejaVuSans-45"/>
       <use x="290.576172" xlink:href="#DejaVuSans-48"/>
       <use x="354.199219" xlink:href="#DejaVuSans-49"/>
      </g>
     </g>
    </g>
    <g id="xtick_15">
     <g id="line2d_23">
      <g>
       <use style="stroke:#000000;stroke-width:0.8;" x="1104.376467" xlink:href="#mf3aa65cb29" y="613.485375"/>
      </g>
     </g>
     <g id="text_22">
      <!-- 2021-03 -->
      <g transform="translate(1052.261717 658.94596)rotate(-30)scale(0.14 -0.14)">
       <use xlink:href="#DejaVuSans-50"/>
       <use x="63.623047" xlink:href="#DejaVuSans-48"/>
       <use x="127.246094" xlink:href="#DejaVuSans-50"/>
       <use x="190.869141" xlink:href="#DejaVuSans-49"/>
       <use x="254.492188" xlink:href="#DejaVuSans-45"/>
       <use x="290.576172" xlink:href="#DejaVuSans-48"/>
       <use x="354.199219" xlink:href="#DejaVuSans-51"/>
      </g>
     </g>
    </g>
    <g id="xtick_16">
     <g id="line2d_24">
      <g>
       <use style="stroke:#000000;stroke-width:0.8;" x="1174.35303" xlink:href="#mf3aa65cb29" y="613.485375"/>
      </g>
     </g>
     <g id="text_23">
      <!-- 2021-05 -->
      <g transform="translate(1122.238281 658.94596)rotate(-30)scale(0.14 -0.14)">
       <use xlink:href="#DejaVuSans-50"/>
       <use x="63.623047" xlink:href="#DejaVuSans-48"/>
       <use x="127.246094" xlink:href="#DejaVuSans-50"/>
       <use x="190.869141" xlink:href="#DejaVuSans-49"/>
       <use x="254.492188" xlink:href="#DejaVuSans-45"/>
       <use x="290.576172" xlink:href="#DejaVuSans-48"/>
       <use x="354.199219" xlink:href="#DejaVuSans-53"/>
      </g>
     </g>
    </g>
   </g>
   <g id="matplotlib.axis_4">
    <g id="ytick_6">
     <g id="line2d_25">
      <g>
       <use style="stroke:#000000;stroke-width:0.8;" x="676.372273" xlink:href="#m7890c680de" y="591.515558"/>
      </g>
     </g>
     <g id="text_24">
      <!-- 0 -->
      <g transform="translate(660.464773 596.834464)scale(0.14 -0.14)">
       <use xlink:href="#DejaVuSans-48"/>
      </g>
     </g>
    </g>
    <g id="ytick_7">
     <g id="line2d_26">
      <g>
       <use style="stroke:#000000;stroke-width:0.8;" x="676.372273" xlink:href="#m7890c680de" y="502.99897"/>
      </g>
     </g>
     <g id="text_25">
      <!-- 2000 -->
      <g transform="translate(633.742273 508.317876)scale(0.14 -0.14)">
       <use xlink:href="#DejaVuSans-50"/>
       <use x="63.623047" xlink:href="#DejaVuSans-48"/>
       <use x="127.246094" xlink:href="#DejaVuSans-48"/>
       <use x="190.869141" xlink:href="#DejaVuSans-48"/>
      </g>
     </g>
    </g>
    <g id="ytick_8">
     <g id="line2d_27">
      <g>
       <use style="stroke:#000000;stroke-width:0.8;" x="676.372273" xlink:href="#m7890c680de" y="414.482382"/>
      </g>
     </g>
     <g id="text_26">
      <!-- 4000 -->
      <g transform="translate(633.742273 419.801289)scale(0.14 -0.14)">
       <use xlink:href="#DejaVuSans-52"/>
       <use x="63.623047" xlink:href="#DejaVuSans-48"/>
       <use x="127.246094" xlink:href="#DejaVuSans-48"/>
       <use x="190.869141" xlink:href="#DejaVuSans-48"/>
      </g>
     </g>
    </g>
    <g id="ytick_9">
     <g id="line2d_28">
      <g>
       <use style="stroke:#000000;stroke-width:0.8;" x="676.372273" xlink:href="#m7890c680de" y="325.965794"/>
      </g>
     </g>
     <g id="text_27">
      <!-- 6000 -->
      <g transform="translate(633.742273 331.284701)scale(0.14 -0.14)">
       <defs>
        <path d="M 33.015625 40.375 
Q 26.375 40.375 22.484375 35.828125 
Q 18.609375 31.296875 18.609375 23.390625 
Q 18.609375 15.53125 22.484375 10.953125 
Q 26.375 6.390625 33.015625 6.390625 
Q 39.65625 6.390625 43.53125 10.953125 
Q 47.40625 15.53125 47.40625 23.390625 
Q 47.40625 31.296875 43.53125 35.828125 
Q 39.65625 40.375 33.015625 40.375 
z
M 52.59375 71.296875 
L 52.59375 62.3125 
Q 48.875 64.0625 45.09375 64.984375 
Q 41.3125 65.921875 37.59375 65.921875 
Q 27.828125 65.921875 22.671875 59.328125 
Q 17.53125 52.734375 16.796875 39.40625 
Q 19.671875 43.65625 24.015625 45.921875 
Q 28.375 48.1875 33.59375 48.1875 
Q 44.578125 48.1875 50.953125 41.515625 
Q 57.328125 34.859375 57.328125 23.390625 
Q 57.328125 12.15625 50.6875 5.359375 
Q 44.046875 -1.421875 33.015625 -1.421875 
Q 20.359375 -1.421875 13.671875 8.265625 
Q 6.984375 17.96875 6.984375 36.375 
Q 6.984375 53.65625 15.1875 63.9375 
Q 23.390625 74.21875 37.203125 74.21875 
Q 40.921875 74.21875 44.703125 73.484375 
Q 48.484375 72.75 52.59375 71.296875 
z
" id="DejaVuSans-54"/>
       </defs>
       <use xlink:href="#DejaVuSans-54"/>
       <use x="63.623047" xlink:href="#DejaVuSans-48"/>
       <use x="127.246094" xlink:href="#DejaVuSans-48"/>
       <use x="190.869141" xlink:href="#DejaVuSans-48"/>
      </g>
     </g>
    </g>
    <g id="ytick_10">
     <g id="line2d_29">
      <g>
       <use style="stroke:#000000;stroke-width:0.8;" x="676.372273" xlink:href="#m7890c680de" y="237.449207"/>
      </g>
     </g>
     <g id="text_28">
      <!-- 8000 -->
      <g transform="translate(633.742273 242.768113)scale(0.14 -0.14)">
       <defs>
        <path d="M 31.78125 34.625 
Q 24.75 34.625 20.71875 30.859375 
Q 16.703125 27.09375 16.703125 20.515625 
Q 16.703125 13.921875 20.71875 10.15625 
Q 24.75 6.390625 31.78125 6.390625 
Q 38.8125 6.390625 42.859375 10.171875 
Q 46.921875 13.96875 46.921875 20.515625 
Q 46.921875 27.09375 42.890625 30.859375 
Q 38.875 34.625 31.78125 34.625 
z
M 21.921875 38.8125 
Q 15.578125 40.375 12.03125 44.71875 
Q 8.5 49.078125 8.5 55.328125 
Q 8.5 64.0625 14.71875 69.140625 
Q 20.953125 74.21875 31.78125 74.21875 
Q 42.671875 74.21875 48.875 69.140625 
Q 55.078125 64.0625 55.078125 55.328125 
Q 55.078125 49.078125 51.53125 44.71875 
Q 48 40.375 41.703125 38.8125 
Q 48.828125 37.15625 52.796875 32.3125 
Q 56.78125 27.484375 56.78125 20.515625 
Q 56.78125 9.90625 50.3125 4.234375 
Q 43.84375 -1.421875 31.78125 -1.421875 
Q 19.734375 -1.421875 13.25 4.234375 
Q 6.78125 9.90625 6.78125 20.515625 
Q 6.78125 27.484375 10.78125 32.3125 
Q 14.796875 37.15625 21.921875 38.8125 
z
M 18.3125 54.390625 
Q 18.3125 48.734375 21.84375 45.5625 
Q 25.390625 42.390625 31.78125 42.390625 
Q 38.140625 42.390625 41.71875 45.5625 
Q 45.3125 48.734375 45.3125 54.390625 
Q 45.3125 60.0625 41.71875 63.234375 
Q 38.140625 66.40625 31.78125 66.40625 
Q 25.390625 66.40625 21.84375 63.234375 
Q 18.3125 60.0625 18.3125 54.390625 
z
" id="DejaVuSans-56"/>
       </defs>
       <use xlink:href="#DejaVuSans-56"/>
       <use x="63.623047" xlink:href="#DejaVuSans-48"/>
       <use x="127.246094" xlink:href="#DejaVuSans-48"/>
       <use x="190.869141" xlink:href="#DejaVuSans-48"/>
      </g>
     </g>
    </g>
    <g id="ytick_11">
     <g id="line2d_30">
      <g>
       <use style="stroke:#000000;stroke-width:0.8;" x="676.372273" xlink:href="#m7890c680de" y="148.932619"/>
      </g>
     </g>
     <g id="text_29">
      <!-- 10000 -->
      <g transform="translate(624.834773 154.251525)scale(0.14 -0.14)">
       <use xlink:href="#DejaVuSans-49"/>
       <use x="63.623047" xlink:href="#DejaVuSans-48"/>
       <use x="127.246094" xlink:href="#DejaVuSans-48"/>
       <use x="190.869141" xlink:href="#DejaVuSans-48"/>
       <use x="254.492188" xlink:href="#DejaVuSans-48"/>
      </g>
     </g>
    </g>
    <g id="ytick_12">
     <g id="line2d_31">
      <g>
       <use style="stroke:#000000;stroke-width:0.8;" x="676.372273" xlink:href="#m7890c680de" y="60.416031"/>
      </g>
     </g>
     <g id="text_30">
      <!-- 12000 -->
      <g transform="translate(624.834773 65.734937)scale(0.14 -0.14)">
       <use xlink:href="#DejaVuSans-49"/>
       <use x="63.623047" xlink:href="#DejaVuSans-50"/>
       <use x="127.246094" xlink:href="#DejaVuSans-48"/>
       <use x="190.869141" xlink:href="#DejaVuSans-48"/>
       <use x="254.492188" xlink:href="#DejaVuSans-48"/>
      </g>
     </g>
    </g>
   </g>
   <g id="line2d_32">
    <path clip-path="url(#p8d361a94a8)" d="M 699.430124 586.77992 
L 707.460221 584.876814 
L 715.490319 580.672276 
L 723.520416 576.202188 
L 731.550514 570.44861 
L 747.610709 560.800302 
L 755.640806 554.471366 
L 768.259531 546.549131 
L 784.319726 535.263266 
L 787.761196 532.82906 
L 788.908353 531.678345 
L 791.202666 530.881695 
L 792.349823 529.686721 
L 794.644137 527.91639 
L 795.791293 526.986965 
L 798.085607 525.791991 
L 799.232764 525.30515 
L 800.37992 524.065918 
L 801.527077 523.047977 
L 802.674234 522.251328 
L 803.821391 520.790804 
L 804.968548 519.905638 
L 807.262861 519.108989 
L 808.410018 517.869757 
L 809.557175 516.896074 
L 810.704331 516.143683 
L 812.998645 514.284835 
L 815.292959 513.576702 
L 816.440115 512.86857 
L 817.587272 511.496563 
L 821.028742 508.796807 
L 822.175899 508.398482 
L 824.470213 507.292025 
L 825.61737 506.672408 
L 827.911683 504.370977 
L 829.05884 503.618586 
L 831.353153 502.423612 
L 832.50031 500.874572 
L 834.794624 498.971465 
L 835.941781 498.307591 
L 837.088937 497.466683 
L 838.236094 496.979842 
L 839.383251 496.758551 
L 840.530408 496.183193 
L 842.824721 494.147311 
L 847.413348 491.137747 
L 848.560505 490.075548 
L 850.854819 488.48225 
L 852.001975 487.375792 
L 853.149132 486.623401 
L 855.443446 485.561202 
L 856.590603 484.720295 
L 860.032073 481.489439 
L 861.17923 480.648532 
L 862.326386 480.028916 
L 864.6207 478.568392 
L 865.767857 477.683226 
L 866.915014 477.06361 
L 868.06217 476.178444 
L 869.209327 475.470311 
L 871.503641 475.071987 
L 872.650797 474.009788 
L 873.797954 473.345913 
L 874.945111 472.283714 
L 877.239425 470.778932 
L 878.386581 470.292091 
L 879.533738 470.026541 
L 880.680895 469.141375 
L 882.975208 467.72511 
L 885.269522 465.91052 
L 886.416679 465.689228 
L 887.563836 465.335162 
L 889.858149 463.786122 
L 893.299619 460.732299 
L 896.74109 459.404551 
L 897.888247 458.607901 
L 899.035403 458.032543 
L 904.771187 454.845946 
L 905.918344 454.049297 
L 908.212658 452.14619 
L 912.801285 449.889017 
L 913.948441 449.402176 
L 915.095598 448.78256 
L 916.242755 447.808878 
L 917.389912 447.100745 
L 919.684225 446.304096 
L 920.831382 445.197638 
L 923.125696 443.294532 
L 925.420009 442.232333 
L 926.567166 441.435683 
L 927.714323 440.9931 
L 931.155793 438.868702 
L 933.450107 437.186887 
L 934.597263 436.700046 
L 935.74442 436.390238 
L 939.185891 433.601965 
L 941.480204 431.831633 
L 943.774518 430.769434 
L 946.068831 429.176136 
L 947.215988 428.645036 
L 948.363145 427.494321 
L 951.804615 425.989539 
L 952.951772 424.92734 
L 954.098929 423.643849 
L 955.246085 422.935716 
L 957.540399 420.944093 
L 959.834713 420.103186 
L 960.981869 419.173761 
L 962.129026 417.934529 
L 966.717653 413.951283 
L 967.86481 413.375925 
L 969.011967 412.313726 
L 972.453437 410.366361 
L 973.600594 409.702487 
L 974.747751 409.34842 
L 975.894907 408.817321 
L 979.336378 406.383114 
L 980.483535 405.365174 
L 982.777848 404.125941 
L 983.925005 403.771875 
L 986.219318 401.780252 
L 990.807946 399.346046 
L 991.955102 399.080496 
L 993.102259 397.752747 
L 996.543729 395.716866 
L 997.690886 395.318541 
L 998.838043 394.787441 
L 1003.42667 392.043427 
L 1004.573827 390.67142 
L 1005.720984 389.741996 
L 1008.015297 389.12238 
L 1010.309611 386.820949 
L 1012.603924 384.9621 
L 1013.751081 384.209709 
L 1014.898238 383.722868 
L 1019.486865 380.978854 
L 1020.634022 379.916655 
L 1021.781179 379.120005 
L 1022.928335 378.765939 
L 1024.075492 378.633164 
L 1025.222649 377.792257 
L 1026.369806 376.420249 
L 1028.664119 374.428626 
L 1032.10559 373.322169 
L 1033.252746 372.614036 
L 1034.399903 372.171453 
L 1037.841374 369.870022 
L 1038.98853 369.427439 
L 1040.135687 369.161889 
L 1041.282844 368.276723 
L 1042.430001 367.170266 
L 1043.577157 366.417875 
L 1044.724314 365.886776 
L 1045.871471 365.134385 
L 1048.165785 364.116444 
L 1049.312941 362.92147 
L 1051.607255 360.885588 
L 1053.901568 359.336548 
L 1055.048725 358.849707 
L 1056.195882 358.49564 
L 1057.343039 357.654733 
L 1058.490196 356.238467 
L 1059.637352 355.176268 
L 1060.784509 354.556652 
L 1061.931666 353.804261 
L 1063.078823 353.361678 
L 1064.225979 353.05187 
L 1066.520293 351.23728 
L 1067.66745 350.750439 
L 1068.814607 349.245657 
L 1069.961763 348.493266 
L 1071.10892 348.1392 
L 1072.256077 347.563842 
L 1080.286174 341.987297 
L 1088.316272 335.791136 
L 1096.346369 330.524399 
L 1104.376467 325.611728 
L 1112.406564 320.477766 
L 1128.466759 311.227783 
L 1136.496856 306.226595 
L 1144.526954 301.667991 
L 1153.704208 297.374937 
L 1160.587149 295.339055 
L 1160.587149 295.339055 
" style="fill:none;stroke:#1f77b4;stroke-linecap:square;stroke-width:1.5;"/>
   </g>
   <g id="line2d_33">
    <path clip-path="url(#p8d361a94a8)" d="M 699.430124 569.91751 
L 707.460221 565.801489 
L 715.490319 558.808679 
L 723.520416 547.522814 
L 731.550514 537.785989 
L 739.580611 525.172375 
L 747.610709 509.681972 
L 755.640806 495.873385 
L 768.259531 468.211951 
L 776.289628 454.49188 
L 784.319726 438.293344 
L 785.466882 431.034984 
L 786.614039 429.353169 
L 787.761196 428.689295 
L 788.908353 425.94528 
L 790.055509 423.820882 
L 791.202666 423.776624 
L 792.349823 422.802942 
L 793.49698 419.262278 
L 794.644137 416.562522 
L 795.791293 415.500323 
L 796.93845 411.517077 
L 798.085607 411.340043 
L 800.37992 408.330479 
L 801.527077 405.143882 
L 802.674234 405.055366 
L 803.821391 403.771875 
L 804.968548 398.814946 
L 806.115704 398.239588 
L 807.262861 396.956098 
L 808.410018 396.823323 
L 809.557175 393.592468 
L 810.704331 392.043427 
L 811.851488 390.981228 
L 814.145802 386.157074 
L 815.292959 386.068558 
L 816.440115 384.608034 
L 817.587272 381.59847 
L 818.734429 380.270721 
L 819.881586 379.872396 
L 821.028742 377.261157 
L 822.175899 377.216899 
L 823.323056 375.977667 
L 824.470213 373.145136 
L 825.61737 372.215712 
L 829.05884 368.542273 
L 830.205997 366.594908 
L 831.353153 366.152325 
L 832.50031 364.957351 
L 833.647467 362.65592 
L 834.794624 361.283913 
L 835.941781 360.797072 
L 837.088937 359.336548 
L 838.236094 356.68105 
L 840.530408 356.548276 
L 841.677564 353.715745 
L 842.824721 352.343738 
L 847.413348 346.103318 
L 848.560505 345.306669 
L 849.707662 343.890403 
L 850.854819 343.093754 
L 852.001975 342.916721 
L 853.149132 339.464574 
L 855.443446 336.277977 
L 856.590603 335.038745 
L 857.737759 334.153579 
L 858.884916 331.453823 
L 860.032073 329.639233 
L 861.17923 329.063875 
L 862.326386 327.64761 
L 864.6207 326.895219 
L 865.767857 322.336614 
L 866.915014 322.159581 
L 869.209327 318.441884 
L 871.503641 318.441884 
L 872.650797 318.30911 
L 873.797954 316.007678 
L 874.945111 315.033996 
L 877.239425 310.209842 
L 878.386581 308.97061 
L 879.533738 308.262477 
L 881.828052 306.270854 
L 882.975208 305.784012 
L 884.122365 305.562721 
L 886.416679 301.4467 
L 887.563836 300.871342 
L 888.710992 299.764884 
L 889.858149 297.950294 
L 892.152463 296.711062 
L 893.299619 296.578287 
L 896.74109 294.586664 
L 897.888247 290.691934 
L 899.035403 287.638112 
L 905.918344 281.751759 
L 908.212658 278.255354 
L 912.801285 273.741008 
L 913.948441 272.855842 
L 915.095598 272.546034 
L 916.242755 272.501775 
L 917.389912 267.235038 
L 918.537069 267.19078 
L 920.831382 266.571164 
L 921.978539 265.11064 
L 923.125696 262.189593 
L 924.272852 261.74701 
L 925.420009 259.66687 
L 926.567166 259.66687 
L 927.714323 258.693188 
L 931.155793 254.267358 
L 933.450107 253.116643 
L 934.597263 253.116643 
L 935.74442 252.319993 
L 936.891577 250.992245 
L 938.038734 249.221913 
L 939.185891 248.735072 
L 940.333047 248.469522 
L 941.480204 248.071197 
L 942.627361 248.071197 
L 943.774518 247.584356 
L 946.068831 245.105891 
L 947.215988 242.715944 
L 949.510302 241.609486 
L 950.657458 241.609486 
L 951.804615 240.98987 
L 952.951772 240.945612 
L 954.098929 238.511406 
L 955.246085 236.652557 
L 956.393242 236.387008 
L 957.540399 234.837967 
L 958.687556 234.837967 
L 959.834713 234.395384 
L 960.981869 233.642993 
L 962.129026 229.615489 
L 963.276183 229.305681 
L 965.570496 228.28774 
L 966.717653 228.066448 
L 967.86481 227.623865 
L 969.011967 227.49109 
L 970.159124 225.012626 
L 971.30628 221.516221 
L 972.453437 220.852346 
L 973.600594 219.436081 
L 974.747751 218.550915 
L 975.894907 218.462399 
L 977.042064 218.019816 
L 979.336378 216.913358 
L 980.483535 215.231543 
L 981.630691 213.018628 
L 982.777848 212.97437 
L 983.925005 212.576045 
L 985.072162 210.540164 
L 986.219318 210.186098 
L 987.366475 207.663375 
L 988.513632 207.26505 
L 990.807946 206.070076 
L 991.955102 205.627493 
L 993.102259 204.078453 
L 996.543729 202.35238 
L 997.690886 201.334439 
L 998.838043 200.626306 
L 1001.132357 196.466026 
L 1003.42667 194.916986 
L 1004.573827 193.766271 
L 1005.720984 191.553356 
L 1008.015297 191.464839 
L 1009.162454 189.605991 
L 1010.309611 188.676567 
L 1011.456768 187.924176 
L 1012.603924 187.879917 
L 1013.751081 184.95887 
L 1014.898238 184.870353 
L 1019.486865 180.710074 
L 1020.634022 180.178974 
L 1021.781179 178.895484 
L 1022.928335 177.877543 
L 1024.075492 177.390702 
L 1025.222649 177.346443 
L 1026.369806 173.938555 
L 1027.516963 173.451714 
L 1028.664119 171.902673 
L 1032.10559 170.663441 
L 1034.399903 170.530666 
L 1035.54706 169.955308 
L 1036.694217 169.91105 
L 1037.841374 169.291434 
L 1038.98853 168.494785 
L 1040.135687 168.450526 
L 1041.282844 165.352446 
L 1042.430001 164.644313 
L 1043.577157 163.051015 
L 1044.724314 162.962498 
L 1045.871471 161.10365 
L 1047.018628 160.218484 
L 1048.165785 160.129967 
L 1049.312941 159.598868 
L 1050.460098 158.75796 
L 1051.607255 157.341695 
L 1052.754412 157.20892 
L 1053.901568 153.623998 
L 1055.048725 153.31419 
L 1058.490196 153.137157 
L 1059.637352 149.596493 
L 1060.784509 149.375202 
L 1061.931666 148.224486 
L 1063.078823 148.224486 
L 1064.225979 148.091711 
L 1065.373136 146.542671 
L 1066.520293 143.090524 
L 1067.66745 142.470908 
L 1068.814607 142.205358 
L 1069.961763 140.125218 
L 1071.10892 139.903927 
L 1072.256077 138.930244 
L 1080.286174 130.344135 
L 1088.316272 124.988882 
L 1096.346369 116.712581 
L 1104.376467 109.941062 
L 1112.406564 101.222178 
L 1128.466759 82.943503 
L 1136.496856 70.993763 
L 1144.526954 65.815543 
L 1153.704208 57.84905 
L 1160.587149 52.67083 
L 1160.587149 52.67083 
" style="fill:none;stroke:#ff7f0e;stroke-linecap:square;stroke-width:1.5;"/>
   </g>
   <g id="line2d_34">
    <path clip-path="url(#p8d361a94a8)" d="M 699.430124 583.283515 
L 707.460221 582.1328 
L 715.490319 580.450984 
L 723.520416 578.061037 
L 731.550514 575.184247 
L 739.580611 571.776359 
L 747.610709 567.970146 
L 755.640806 564.916323 
L 768.259531 559.02997 
L 776.289628 554.205816 
L 786.614039 549.647212 
L 787.761196 548.496496 
L 788.908353 547.655589 
L 791.202666 546.681906 
L 792.349823 546.06229 
L 793.49698 545.752482 
L 794.644137 545.309899 
L 796.93845 543.849375 
L 799.232764 543.539567 
L 800.37992 542.69866 
L 801.527077 542.211818 
L 802.674234 541.326653 
L 803.821391 540.707036 
L 804.968548 539.600579 
L 807.262861 538.892446 
L 808.410018 538.051539 
L 809.557175 536.900823 
L 810.704331 536.059916 
L 811.851488 535.4403 
L 812.998645 534.510875 
L 814.145802 533.935518 
L 815.292959 533.625709 
L 816.440115 533.183127 
L 817.587272 532.297961 
L 819.881586 530.925954 
L 821.028742 530.350596 
L 823.323056 529.952271 
L 824.470213 529.155622 
L 825.61737 527.739356 
L 827.911683 526.1018 
L 830.205997 525.614958 
L 831.353153 525.437925 
L 832.50031 524.729792 
L 833.647467 524.154435 
L 834.794624 523.711852 
L 837.088937 522.384103 
L 839.383251 522.118553 
L 840.530408 521.41042 
L 841.677564 520.835063 
L 842.824721 519.86138 
L 847.413348 518.445115 
L 848.560505 517.604207 
L 850.854819 516.586266 
L 853.149132 514.948709 
L 855.443446 514.506126 
L 856.590603 513.665219 
L 858.884916 512.514503 
L 861.17923 511.098238 
L 862.326386 510.965463 
L 864.6207 510.25733 
L 866.915014 508.70829 
L 869.209327 507.823124 
L 871.503641 507.823124 
L 872.650797 506.937958 
L 873.797954 506.229826 
L 874.945111 505.698726 
L 877.239425 504.370977 
L 878.386581 504.193944 
L 880.680895 503.353036 
L 882.975208 502.113804 
L 885.269522 501.007347 
L 887.563836 500.431989 
L 888.710992 499.812373 
L 889.858149 499.502565 
L 893.299619 497.599458 
L 897.888247 496.00616 
L 899.035403 495.47506 
L 905.918344 492.952337 
L 908.212658 491.668847 
L 912.801285 489.854257 
L 917.389912 487.906892 
L 919.684225 487.552826 
L 920.831382 486.844693 
L 924.272852 485.605461 
L 925.420009 485.074361 
L 927.714323 484.897328 
L 933.450107 482.197572 
L 934.597263 482.153314 
L 936.891577 481.799247 
L 940.333047 479.940399 
L 941.480204 479.188008 
L 943.774518 478.966716 
L 946.068831 477.771743 
L 947.215988 476.842318 
L 948.363145 476.222702 
L 949.510302 475.426053 
L 951.804615 475.24902 
L 952.951772 474.585145 
L 955.246085 473.611463 
L 957.540399 472.814814 
L 959.834713 472.549264 
L 960.981869 471.929648 
L 962.129026 471.487065 
L 963.276183 470.82319 
L 965.570496 469.760991 
L 966.717653 469.583958 
L 967.86481 469.27415 
L 970.159124 467.857885 
L 971.30628 467.548077 
L 973.600594 465.91052 
L 974.747751 465.866261 
L 975.894907 465.556453 
L 977.042064 464.759804 
L 979.336378 463.83038 
L 980.483535 462.989472 
L 981.630691 462.502631 
L 982.777848 462.28134 
L 983.925005 462.237081 
L 985.072162 461.440432 
L 986.219318 460.909333 
L 987.366475 460.156942 
L 988.513632 460.068425 
L 990.807946 459.404551 
L 991.955102 459.360292 
L 993.102259 458.961968 
L 997.690886 457.280152 
L 998.838043 457.235894 
L 1001.132357 456.527761 
L 1003.42667 454.890205 
L 1005.720984 453.518197 
L 1008.015297 452.898581 
L 1009.162454 452.278965 
L 1010.309611 451.880641 
L 1011.456768 451.349541 
L 1012.603924 450.685667 
L 1013.751081 450.198825 
L 1014.898238 450.066051 
L 1019.486865 448.162944 
L 1020.634022 447.853136 
L 1021.781179 446.746679 
L 1022.928335 446.746679 
L 1024.075492 446.259837 
L 1026.369806 444.578022 
L 1028.664119 443.294532 
L 1032.10559 442.630657 
L 1034.399903 441.170133 
L 1035.54706 440.683292 
L 1037.841374 440.373484 
L 1038.98853 440.063676 
L 1040.135687 439.886643 
L 1042.430001 438.16057 
L 1045.871471 436.523013 
L 1048.165785 436.434496 
L 1049.312941 435.372297 
L 1050.460098 435.062489 
L 1053.901568 433.292157 
L 1056.195882 433.115124 
L 1057.343039 432.495508 
L 1058.490196 431.123501 
L 1061.931666 429.618719 
L 1063.078823 429.530202 
L 1065.373136 428.733553 
L 1066.520293 427.804129 
L 1067.66745 426.697671 
L 1068.814607 426.122314 
L 1069.961763 425.679731 
L 1071.10892 425.104373 
L 1072.256077 425.015856 
L 1080.286174 420.634285 
L 1088.316272 417.757496 
L 1096.346369 413.331667 
L 1104.376467 409.791003 
L 1112.406564 405.45369 
L 1136.496856 392.043427 
L 1144.526954 388.148697 
L 1153.704208 382.926219 
L 1160.587149 382.926219 
L 1160.587149 382.926219 
" style="fill:none;stroke:#2ca02c;stroke-linecap:square;stroke-width:1.5;"/>
   </g>
   <g id="patch_9">
    <path d="M 676.372273 613.485375 
L 676.372273 25.965375 
" style="fill:none;stroke:#000000;stroke-linecap:square;stroke-linejoin:miter;stroke-width:0.8;"/>
   </g>
   <g id="patch_10">
    <path d="M 1183.645 613.485375 
L 1183.645 25.965375 
" style="fill:none;stroke:#000000;stroke-linecap:square;stroke-linejoin:miter;stroke-width:0.8;"/>
   </g>
   <g id="patch_11">
    <path d="M 676.372273 613.485375 
L 1183.645 613.485375 
" style="fill:none;stroke:#000000;stroke-linecap:square;stroke-linejoin:miter;stroke-width:0.8;"/>
   </g>
   <g id="patch_12">
    <path d="M 676.372273 25.965375 
L 1183.645 25.965375 
" style="fill:none;stroke:#000000;stroke-linecap:square;stroke-linejoin:miter;stroke-width:0.8;"/>
   </g>
   <g id="text_31">
    <!-- Number of Preprints in the CORD-19 Corpus Over Time -->
    <g transform="translate(699.154324 19.965375)scale(0.168 -0.168)">
     <defs>
      <path d="M 19.671875 64.796875 
L 19.671875 37.40625 
L 32.078125 37.40625 
Q 38.96875 37.40625 42.71875 40.96875 
Q 46.484375 44.53125 46.484375 51.125 
Q 46.484375 57.671875 42.71875 61.234375 
Q 38.96875 64.796875 32.078125 64.796875 
z
M 9.8125 72.90625 
L 32.078125 72.90625 
Q 44.34375 72.90625 50.609375 67.359375 
Q 56.890625 61.8125 56.890625 51.125 
Q 56.890625 40.328125 50.609375 34.8125 
Q 44.34375 29.296875 32.078125 29.296875 
L 19.671875 29.296875 
L 19.671875 0 
L 9.8125 0 
z
" id="DejaVuSans-80"/>
     </defs>
     <use xlink:href="#DejaVuSans-78"/>
     <use x="74.804688" xlink:href="#DejaVuSans-117"/>
     <use x="138.183594" xlink:href="#DejaVuSans-109"/>
     <use x="235.595703" xlink:href="#DejaVuSans-98"/>
     <use x="299.072266" xlink:href="#DejaVuSans-101"/>
     <use x="360.595703" xlink:href="#DejaVuSans-114"/>
     <use x="401.708984" xlink:href="#DejaVuSans-32"/>
     <use x="433.496094" xlink:href="#DejaVuSans-111"/>
     <use x="494.677734" xlink:href="#DejaVuSans-102"/>
     <use x="529.882812" xlink:href="#DejaVuSans-32"/>
     <use x="561.669922" xlink:href="#DejaVuSans-80"/>
     <use x="620.222656" xlink:href="#DejaVuSans-114"/>
     <use x="659.085938" xlink:href="#DejaVuSans-101"/>
     <use x="720.609375" xlink:href="#DejaVuSans-112"/>
     <use x="784.085938" xlink:href="#DejaVuSans-114"/>
     <use x="825.199219" xlink:href="#DejaVuSans-105"/>
     <use x="852.982422" xlink:href="#DejaVuSans-110"/>
     <use x="916.361328" xlink:href="#DejaVuSans-116"/>
     <use x="955.570312" xlink:href="#DejaVuSans-115"/>
     <use x="1007.669922" xlink:href="#DejaVuSans-32"/>
     <use x="1039.457031" xlink:href="#DejaVuSans-105"/>
     <use x="1067.240234" xlink:href="#DejaVuSans-110"/>
     <use x="1130.619141" xlink:href="#DejaVuSans-32"/>
     <use x="1162.40625" xlink:href="#DejaVuSans-116"/>
     <use x="1201.615234" xlink:href="#DejaVuSans-104"/>
     <use x="1264.994141" xlink:href="#DejaVuSans-101"/>
     <use x="1326.517578" xlink:href="#DejaVuSans-32"/>
     <use x="1358.304688" xlink:href="#DejaVuSans-67"/>
     <use x="1428.128906" xlink:href="#DejaVuSans-79"/>
     <use x="1506.839844" xlink:href="#DejaVuSans-82"/>
     <use x="1576.322266" xlink:href="#DejaVuSans-68"/>
     <use x="1653.324219" xlink:href="#DejaVuSans-45"/>
     <use x="1689.408203" xlink:href="#DejaVuSans-49"/>
     <use x="1753.03125" xlink:href="#DejaVuSans-57"/>
     <use x="1816.654297" xlink:href="#DejaVuSans-32"/>
     <use x="1848.441406" xlink:href="#DejaVuSans-67"/>
     <use x="1918.265625" xlink:href="#DejaVuSans-111"/>
     <use x="1979.447266" xlink:href="#DejaVuSans-114"/>
     <use x="2020.560547" xlink:href="#DejaVuSans-112"/>
     <use x="2084.037109" xlink:href="#DejaVuSans-117"/>
     <use x="2147.416016" xlink:href="#DejaVuSans-115"/>
     <use x="2199.515625" xlink:href="#DejaVuSans-32"/>
     <use x="2231.302734" xlink:href="#DejaVuSans-79"/>
     <use x="2310.013672" xlink:href="#DejaVuSans-118"/>
     <use x="2369.193359" xlink:href="#DejaVuSans-101"/>
     <use x="2430.716797" xlink:href="#DejaVuSans-114"/>
     <use x="2471.830078" xlink:href="#DejaVuSans-32"/>
     <use x="2503.617188" xlink:href="#DejaVuSans-84"/>
     <use x="2561.576172" xlink:href="#DejaVuSans-105"/>
     <use x="2589.359375" xlink:href="#DejaVuSans-109"/>
     <use x="2686.771484" xlink:href="#DejaVuSans-101"/>
    </g>
   </g>
  </g>
 </g>
 <defs>
  <clipPath id="pb8339b2173">
   <rect height="587.52" width="507.272727" x="67.645" y="25.965375"/>
  </clipPath>
  <clipPath id="p8d361a94a8">
   <rect height="587.52" width="507.272727" x="676.372273" y="25.965375"/>
  </clipPath>
 </defs>
</svg>
