<?xml version="1.0" encoding="utf-8" standalone="no"?>
<!DOCTYPE svg PUBLIC "-//W3C//DTD SVG 1.1//EN"
  "http://www.w3.org/Graphics/SVG/1.1/DTD/svg11.dtd">
<!-- Created with matplotlib (https://matplotlib.org/) -->
<svg height="679.17498pt" version="1.1" viewBox="0 0 817.475 679.17498" width="817.475pt" xmlns="http://www.w3.org/2000/svg" xmlns:xlink="http://www.w3.org/1999/xlink">
 <defs>
  <style type="text/css">
*{stroke-linecap:butt;stroke-linejoin:round;}
  </style>
 </defs>
 <g id="figure_1">
  <g id="patch_1">
   <path d="M 0 679.17498 
L 817.475 679.17498 
L 817.475 0 
L 0 0 
z
" style="fill:#ffffff;"/>
  </g>
  <g id="axes_1">
   <g id="patch_2">
    <path d="M 140.675 274.254545 
L 810.275 274.254545 
L 810.275 7.2 
L 140.675 7.2 
z
" style="fill:#ffffff;"/>
   </g>
   <g id="matplotlib.axis_1">
    <g id="xtick_1">
     <g id="line2d_1">
      <path clip-path="url(#pb308d8761c)" d="M 152.426682 274.254545 
L 152.426682 7.2 
" style="fill:none;stroke:#d3d3d3;stroke-linecap:square;stroke-width:0.8;"/>
     </g>
     <g id="line2d_2">
      <defs>
       <path d="M 0 0 
L 0 3.5 
" id="m58f5c0c915" style="stroke:#000000;stroke-width:0.8;"/>
      </defs>
      <g>
       <use style="stroke:#000000;stroke-width:0.8;" x="152.426682" xlink:href="#m58f5c0c915" y="274.254545"/>
      </g>
     </g>
    </g>
    <g id="xtick_2">
     <g id="line2d_3">
      <path clip-path="url(#pb308d8761c)" d="M 212.414345 274.254545 
L 212.414345 7.2 
" style="fill:none;stroke:#d3d3d3;stroke-linecap:square;stroke-width:0.8;"/>
     </g>
     <g id="line2d_4">
      <g>
       <use style="stroke:#000000;stroke-width:0.8;" x="212.414345" xlink:href="#m58f5c0c915" y="274.254545"/>
      </g>
     </g>
    </g>
    <g id="xtick_3">
     <g id="line2d_5">
      <path clip-path="url(#pb308d8761c)" d="M 272.402008 274.254545 
L 272.402008 7.2 
" style="fill:none;stroke:#d3d3d3;stroke-linecap:square;stroke-width:0.8;"/>
     </g>
     <g id="line2d_6">
      <g>
       <use style="stroke:#000000;stroke-width:0.8;" x="272.402008" xlink:href="#m58f5c0c915" y="274.254545"/>
      </g>
     </g>
    </g>
    <g id="xtick_4">
     <g id="line2d_7">
      <path clip-path="url(#pb308d8761c)" d="M 333.373076 274.254545 
L 333.373076 7.2 
" style="fill:none;stroke:#d3d3d3;stroke-linecap:square;stroke-width:0.8;"/>
     </g>
     <g id="line2d_8">
      <g>
       <use style="stroke:#000000;stroke-width:0.8;" x="333.373076" xlink:href="#m58f5c0c915" y="274.254545"/>
      </g>
     </g>
    </g>
    <g id="xtick_5">
     <g id="line2d_9">
      <path clip-path="url(#pb308d8761c)" d="M 393.360739 274.254545 
L 393.360739 7.2 
" style="fill:none;stroke:#d3d3d3;stroke-linecap:square;stroke-width:0.8;"/>
     </g>
     <g id="line2d_10">
      <g>
       <use style="stroke:#000000;stroke-width:0.8;" x="393.360739" xlink:href="#m58f5c0c915" y="274.254545"/>
      </g>
     </g>
    </g>
    <g id="xtick_6">
     <g id="line2d_11">
      <path clip-path="url(#pb308d8761c)" d="M 453.348403 274.254545 
L 453.348403 7.2 
" style="fill:none;stroke:#d3d3d3;stroke-linecap:square;stroke-width:0.8;"/>
     </g>
     <g id="line2d_12">
      <g>
       <use style="stroke:#000000;stroke-width:0.8;" x="453.348403" xlink:href="#m58f5c0c915" y="274.254545"/>
      </g>
     </g>
    </g>
    <g id="xtick_7">
     <g id="line2d_13">
      <path clip-path="url(#pb308d8761c)" d="M 511.369258 274.254545 
L 511.369258 7.2 
" style="fill:none;stroke:#d3d3d3;stroke-linecap:square;stroke-width:0.8;"/>
     </g>
     <g id="line2d_14">
      <g>
       <use style="stroke:#000000;stroke-width:0.8;" x="511.369258" xlink:href="#m58f5c0c915" y="274.254545"/>
      </g>
     </g>
    </g>
    <g id="xtick_8">
     <g id="line2d_15">
      <path clip-path="url(#pb308d8761c)" d="M 571.356921 274.254545 
L 571.356921 7.2 
" style="fill:none;stroke:#d3d3d3;stroke-linecap:square;stroke-width:0.8;"/>
     </g>
     <g id="line2d_16">
      <g>
       <use style="stroke:#000000;stroke-width:0.8;" x="571.356921" xlink:href="#m58f5c0c915" y="274.254545"/>
      </g>
     </g>
    </g>
    <g id="xtick_9">
     <g id="line2d_17">
      <path clip-path="url(#pb308d8761c)" d="M 631.344584 274.254545 
L 631.344584 7.2 
" style="fill:none;stroke:#d3d3d3;stroke-linecap:square;stroke-width:0.8;"/>
     </g>
     <g id="line2d_18">
      <g>
       <use style="stroke:#000000;stroke-width:0.8;" x="631.344584" xlink:href="#m58f5c0c915" y="274.254545"/>
      </g>
     </g>
    </g>
    <g id="xtick_10">
     <g id="line2d_19">
      <path clip-path="url(#pb308d8761c)" d="M 692.315652 274.254545 
L 692.315652 7.2 
" style="fill:none;stroke:#d3d3d3;stroke-linecap:square;stroke-width:0.8;"/>
     </g>
     <g id="line2d_20">
      <g>
       <use style="stroke:#000000;stroke-width:0.8;" x="692.315652" xlink:href="#m58f5c0c915" y="274.254545"/>
      </g>
     </g>
    </g>
    <g id="xtick_11">
     <g id="line2d_21">
      <path clip-path="url(#pb308d8761c)" d="M 752.303315 274.254545 
L 752.303315 7.2 
" style="fill:none;stroke:#d3d3d3;stroke-linecap:square;stroke-width:0.8;"/>
     </g>
     <g id="line2d_22">
      <g>
       <use style="stroke:#000000;stroke-width:0.8;" x="752.303315" xlink:href="#m58f5c0c915" y="274.254545"/>
      </g>
     </g>
    </g>
   </g>
   <g id="matplotlib.axis_2">
    <g id="ytick_1">
     <g id="line2d_23">
      <path clip-path="url(#pb308d8761c)" d="M 140.675 274.254545 
L 810.275 274.254545 
" style="fill:none;stroke:#d3d3d3;stroke-linecap:square;stroke-width:0.8;"/>
     </g>
     <g id="line2d_24">
      <defs>
       <path d="M 0 0 
L -3.5 0 
" id="ma1bf6288f2" style="stroke:#000000;stroke-width:0.8;"/>
      </defs>
      <g>
       <use style="stroke:#000000;stroke-width:0.8;" x="140.675" xlink:href="#ma1bf6288f2" y="274.254545"/>
      </g>
     </g>
     <g id="text_1">
      <!-- 0 -->
      <defs>
       <path d="M 31.78125 66.40625 
Q 24.171875 66.40625 20.328125 58.90625 
Q 16.5 51.421875 16.5 36.375 
Q 16.5 21.390625 20.328125 13.890625 
Q 24.171875 6.390625 31.78125 6.390625 
Q 39.453125 6.390625 43.28125 13.890625 
Q 47.125 21.390625 47.125 36.375 
Q 47.125 51.421875 43.28125 58.90625 
Q 39.453125 66.40625 31.78125 66.40625 
z
M 31.78125 74.21875 
Q 44.046875 74.21875 50.515625 64.515625 
Q 56.984375 54.828125 56.984375 36.375 
Q 56.984375 17.96875 50.515625 8.265625 
Q 44.046875 -1.421875 31.78125 -1.421875 
Q 19.53125 -1.421875 13.0625 8.265625 
Q 6.59375 17.96875 6.59375 36.375 
Q 6.59375 54.828125 13.0625 64.515625 
Q 19.53125 74.21875 31.78125 74.21875 
z
" id="DejaVuSans-48"/>
      </defs>
      <g transform="translate(118.405 283.37267)scale(0.24 -0.24)">
       <use xlink:href="#DejaVuSans-48"/>
      </g>
     </g>
    </g>
    <g id="ytick_2">
     <g id="line2d_25">
      <path clip-path="url(#pb308d8761c)" d="M 140.675 213.947035 
L 810.275 213.947035 
" style="fill:none;stroke:#d3d3d3;stroke-linecap:square;stroke-width:0.8;"/>
     </g>
     <g id="line2d_26">
      <g>
       <use style="stroke:#000000;stroke-width:0.8;" x="140.675" xlink:href="#ma1bf6288f2" y="213.947035"/>
      </g>
     </g>
     <g id="text_2">
      <!-- 200,000 -->
      <defs>
       <path d="M 19.1875 8.296875 
L 53.609375 8.296875 
L 53.609375 0 
L 7.328125 0 
L 7.328125 8.296875 
Q 12.9375 14.109375 22.625 23.890625 
Q 32.328125 33.6875 34.8125 36.53125 
Q 39.546875 41.84375 41.421875 45.53125 
Q 43.3125 49.21875 43.3125 52.78125 
Q 43.3125 58.59375 39.234375 62.25 
Q 35.15625 65.921875 28.609375 65.921875 
Q 23.96875 65.921875 18.8125 64.3125 
Q 13.671875 62.703125 7.8125 59.421875 
L 7.8125 69.390625 
Q 13.765625 71.78125 18.9375 73 
Q 24.125 74.21875 28.421875 74.21875 
Q 39.75 74.21875 46.484375 68.546875 
Q 53.21875 62.890625 53.21875 53.421875 
Q 53.21875 48.921875 51.53125 44.890625 
Q 49.859375 40.875 45.40625 35.40625 
Q 44.1875 33.984375 37.640625 27.21875 
Q 31.109375 20.453125 19.1875 8.296875 
z
" id="DejaVuSans-50"/>
       <path d="M 11.71875 12.40625 
L 22.015625 12.40625 
L 22.015625 4 
L 14.015625 -11.625 
L 7.71875 -11.625 
L 11.71875 4 
z
" id="DejaVuSans-44"/>
      </defs>
      <g transform="translate(34.4275 223.06516)scale(0.24 -0.24)">
       <use xlink:href="#DejaVuSans-50"/>
       <use x="63.623047" xlink:href="#DejaVuSans-48"/>
       <use x="127.246094" xlink:href="#DejaVuSans-48"/>
       <use x="190.869141" xlink:href="#DejaVuSans-44"/>
       <use x="222.65625" xlink:href="#DejaVuSans-48"/>
       <use x="286.279297" xlink:href="#DejaVuSans-48"/>
       <use x="349.902344" xlink:href="#DejaVuSans-48"/>
      </g>
     </g>
    </g>
    <g id="ytick_3">
     <g id="line2d_27">
      <path clip-path="url(#pb308d8761c)" d="M 140.675 153.639525 
L 810.275 153.639525 
" style="fill:none;stroke:#d3d3d3;stroke-linecap:square;stroke-width:0.8;"/>
     </g>
     <g id="line2d_28">
      <g>
       <use style="stroke:#000000;stroke-width:0.8;" x="140.675" xlink:href="#ma1bf6288f2" y="153.639525"/>
      </g>
     </g>
     <g id="text_3">
      <!-- 400,000 -->
      <defs>
       <path d="M 37.796875 64.3125 
L 12.890625 25.390625 
L 37.796875 25.390625 
z
M 35.203125 72.90625 
L 47.609375 72.90625 
L 47.609375 25.390625 
L 58.015625 25.390625 
L 58.015625 17.1875 
L 47.609375 17.1875 
L 47.609375 0 
L 37.796875 0 
L 37.796875 17.1875 
L 4.890625 17.1875 
L 4.890625 26.703125 
z
" id="DejaVuSans-52"/>
      </defs>
      <g transform="translate(34.4275 162.75765)scale(0.24 -0.24)">
       <use xlink:href="#DejaVuSans-52"/>
       <use x="63.623047" xlink:href="#DejaVuSans-48"/>
       <use x="127.246094" xlink:href="#DejaVuSans-48"/>
       <use x="190.869141" xlink:href="#DejaVuSans-44"/>
       <use x="222.65625" xlink:href="#DejaVuSans-48"/>
       <use x="286.279297" xlink:href="#DejaVuSans-48"/>
       <use x="349.902344" xlink:href="#DejaVuSans-48"/>
      </g>
     </g>
    </g>
    <g id="ytick_4">
     <g id="line2d_29">
      <path clip-path="url(#pb308d8761c)" d="M 140.675 93.332015 
L 810.275 93.332015 
" style="fill:none;stroke:#d3d3d3;stroke-linecap:square;stroke-width:0.8;"/>
     </g>
     <g id="line2d_30">
      <g>
       <use style="stroke:#000000;stroke-width:0.8;" x="140.675" xlink:href="#ma1bf6288f2" y="93.332015"/>
      </g>
     </g>
     <g id="text_4">
      <!-- 600,000 -->
      <defs>
       <path d="M 33.015625 40.375 
Q 26.375 40.375 22.484375 35.828125 
Q 18.609375 31.296875 18.609375 23.390625 
Q 18.609375 15.53125 22.484375 10.953125 
Q 26.375 6.390625 33.015625 6.390625 
Q 39.65625 6.390625 43.53125 10.953125 
Q 47.40625 15.53125 47.40625 23.390625 
Q 47.40625 31.296875 43.53125 35.828125 
Q 39.65625 40.375 33.015625 40.375 
z
M 52.59375 71.296875 
L 52.59375 62.3125 
Q 48.875 64.0625 45.09375 64.984375 
Q 41.3125 65.921875 37.59375 65.921875 
Q 27.828125 65.921875 22.671875 59.328125 
Q 17.53125 52.734375 16.796875 39.40625 
Q 19.671875 43.65625 24.015625 45.921875 
Q 28.375 48.1875 33.59375 48.1875 
Q 44.578125 48.1875 50.953125 41.515625 
Q 57.328125 34.859375 57.328125 23.390625 
Q 57.328125 12.15625 50.6875 5.359375 
Q 44.046875 -1.421875 33.015625 -1.421875 
Q 20.359375 -1.421875 13.671875 8.265625 
Q 6.984375 17.96875 6.984375 36.375 
Q 6.984375 53.65625 15.1875 63.9375 
Q 23.390625 74.21875 37.203125 74.21875 
Q 40.921875 74.21875 44.703125 73.484375 
Q 48.484375 72.75 52.59375 71.296875 
z
" id="DejaVuSans-54"/>
      </defs>
      <g transform="translate(34.4275 102.45014)scale(0.24 -0.24)">
       <use xlink:href="#DejaVuSans-54"/>
       <use x="63.623047" xlink:href="#DejaVuSans-48"/>
       <use x="127.246094" xlink:href="#DejaVuSans-48"/>
       <use x="190.869141" xlink:href="#DejaVuSans-44"/>
       <use x="222.65625" xlink:href="#DejaVuSans-48"/>
       <use x="286.279297" xlink:href="#DejaVuSans-48"/>
       <use x="349.902344" xlink:href="#DejaVuSans-48"/>
      </g>
     </g>
    </g>
    <g id="ytick_5">
     <g id="line2d_31">
      <path clip-path="url(#pb308d8761c)" d="M 140.675 33.024505 
L 810.275 33.024505 
" style="fill:none;stroke:#d3d3d3;stroke-linecap:square;stroke-width:0.8;"/>
     </g>
     <g id="line2d_32">
      <g>
       <use style="stroke:#000000;stroke-width:0.8;" x="140.675" xlink:href="#ma1bf6288f2" y="33.024505"/>
      </g>
     </g>
     <g id="text_5">
      <!-- 800,000 -->
      <defs>
       <path d="M 31.78125 34.625 
Q 24.75 34.625 20.71875 30.859375 
Q 16.703125 27.09375 16.703125 20.515625 
Q 16.703125 13.921875 20.71875 10.15625 
Q 24.75 6.390625 31.78125 6.390625 
Q 38.8125 6.390625 42.859375 10.171875 
Q 46.921875 13.96875 46.921875 20.515625 
Q 46.921875 27.09375 42.890625 30.859375 
Q 38.875 34.625 31.78125 34.625 
z
M 21.921875 38.8125 
Q 15.578125 40.375 12.03125 44.71875 
Q 8.5 49.078125 8.5 55.328125 
Q 8.5 64.0625 14.71875 69.140625 
Q 20.953125 74.21875 31.78125 74.21875 
Q 42.671875 74.21875 48.875 69.140625 
Q 55.078125 64.0625 55.078125 55.328125 
Q 55.078125 49.078125 51.53125 44.71875 
Q 48 40.375 41.703125 38.8125 
Q 48.828125 37.15625 52.796875 32.3125 
Q 56.78125 27.484375 56.78125 20.515625 
Q 56.78125 9.90625 50.3125 4.234375 
Q 43.84375 -1.421875 31.78125 -1.421875 
Q 19.734375 -1.421875 13.25 4.234375 
Q 6.78125 9.90625 6.78125 20.515625 
Q 6.78125 27.484375 10.78125 32.3125 
Q 14.796875 37.15625 21.921875 38.8125 
z
M 18.3125 54.390625 
Q 18.3125 48.734375 21.84375 45.5625 
Q 25.390625 42.390625 31.78125 42.390625 
Q 38.140625 42.390625 41.71875 45.5625 
Q 45.3125 48.734375 45.3125 54.390625 
Q 45.3125 60.0625 41.71875 63.234375 
Q 38.140625 66.40625 31.78125 66.40625 
Q 25.390625 66.40625 21.84375 63.234375 
Q 18.3125 60.0625 18.3125 54.390625 
z
" id="DejaVuSans-56"/>
      </defs>
      <g transform="translate(34.4275 42.14263)scale(0.24 -0.24)">
       <use xlink:href="#DejaVuSans-56"/>
       <use x="63.623047" xlink:href="#DejaVuSans-48"/>
       <use x="127.246094" xlink:href="#DejaVuSans-48"/>
       <use x="190.869141" xlink:href="#DejaVuSans-44"/>
       <use x="222.65625" xlink:href="#DejaVuSans-48"/>
       <use x="286.279297" xlink:href="#DejaVuSans-48"/>
       <use x="349.902344" xlink:href="#DejaVuSans-48"/>
      </g>
     </g>
    </g>
    <g id="text_6">
     <!-- Total manuscripts -->
     <defs>
      <path d="M -0.296875 72.90625 
L 61.375 72.90625 
L 61.375 64.59375 
L 35.5 64.59375 
L 35.5 0 
L 25.59375 0 
L 25.59375 64.59375 
L -0.296875 64.59375 
z
" id="DejaVuSans-84"/>
      <path d="M 30.609375 48.390625 
Q 23.390625 48.390625 19.1875 42.75 
Q 14.984375 37.109375 14.984375 27.296875 
Q 14.984375 17.484375 19.15625 11.84375 
Q 23.34375 6.203125 30.609375 6.203125 
Q 37.796875 6.203125 41.984375 11.859375 
Q 46.1875 17.53125 46.1875 27.296875 
Q 46.1875 37.015625 41.984375 42.703125 
Q 37.796875 48.390625 30.609375 48.390625 
z
M 30.609375 56 
Q 42.328125 56 49.015625 48.375 
Q 55.71875 40.765625 55.71875 27.296875 
Q 55.71875 13.875 49.015625 6.21875 
Q 42.328125 -1.421875 30.609375 -1.421875 
Q 18.84375 -1.421875 12.171875 6.21875 
Q 5.515625 13.875 5.515625 27.296875 
Q 5.515625 40.765625 12.171875 48.375 
Q 18.84375 56 30.609375 56 
z
" id="DejaVuSans-111"/>
      <path d="M 18.3125 70.21875 
L 18.3125 54.6875 
L 36.8125 54.6875 
L 36.8125 47.703125 
L 18.3125 47.703125 
L 18.3125 18.015625 
Q 18.3125 11.328125 20.140625 9.421875 
Q 21.96875 7.515625 27.59375 7.515625 
L 36.8125 7.515625 
L 36.8125 0 
L 27.59375 0 
Q 17.1875 0 13.234375 3.875 
Q 9.28125 7.765625 9.28125 18.015625 
L 9.28125 47.703125 
L 2.6875 47.703125 
L 2.6875 54.6875 
L 9.28125 54.6875 
L 9.28125 70.21875 
z
" id="DejaVuSans-116"/>
      <path d="M 34.28125 27.484375 
Q 23.390625 27.484375 19.1875 25 
Q 14.984375 22.515625 14.984375 16.5 
Q 14.984375 11.71875 18.140625 8.90625 
Q 21.296875 6.109375 26.703125 6.109375 
Q 34.1875 6.109375 38.703125 11.40625 
Q 43.21875 16.703125 43.21875 25.484375 
L 43.21875 27.484375 
z
M 52.203125 31.203125 
L 52.203125 0 
L 43.21875 0 
L 43.21875 8.296875 
Q 40.140625 3.328125 35.546875 0.953125 
Q 30.953125 -1.421875 24.3125 -1.421875 
Q 15.921875 -1.421875 10.953125 3.296875 
Q 6 8.015625 6 15.921875 
Q 6 25.140625 12.171875 29.828125 
Q 18.359375 34.515625 30.609375 34.515625 
L 43.21875 34.515625 
L 43.21875 35.40625 
Q 43.21875 41.609375 39.140625 45 
Q 35.0625 48.390625 27.6875 48.390625 
Q 23 48.390625 18.546875 47.265625 
Q 14.109375 46.140625 10.015625 43.890625 
L 10.015625 52.203125 
Q 14.9375 54.109375 19.578125 55.046875 
Q 24.21875 56 28.609375 56 
Q 40.484375 56 46.34375 49.84375 
Q 52.203125 43.703125 52.203125 31.203125 
z
" id="DejaVuSans-97"/>
      <path d="M 9.421875 75.984375 
L 18.40625 75.984375 
L 18.40625 0 
L 9.421875 0 
z
" id="DejaVuSans-108"/>
      <path id="DejaVuSans-32"/>
      <path d="M 52 44.1875 
Q 55.375 50.25 60.0625 53.125 
Q 64.75 56 71.09375 56 
Q 79.640625 56 84.28125 50.015625 
Q 88.921875 44.046875 88.921875 33.015625 
L 88.921875 0 
L 79.890625 0 
L 79.890625 32.71875 
Q 79.890625 40.578125 77.09375 44.375 
Q 74.3125 48.1875 68.609375 48.1875 
Q 61.625 48.1875 57.5625 43.546875 
Q 53.515625 38.921875 53.515625 30.90625 
L 53.515625 0 
L 44.484375 0 
L 44.484375 32.71875 
Q 44.484375 40.625 41.703125 44.40625 
Q 38.921875 48.1875 33.109375 48.1875 
Q 26.21875 48.1875 22.15625 43.53125 
Q 18.109375 38.875 18.109375 30.90625 
L 18.109375 0 
L 9.078125 0 
L 9.078125 54.6875 
L 18.109375 54.6875 
L 18.109375 46.1875 
Q 21.1875 51.21875 25.484375 53.609375 
Q 29.78125 56 35.6875 56 
Q 41.65625 56 45.828125 52.96875 
Q 50 49.953125 52 44.1875 
z
" id="DejaVuSans-109"/>
      <path d="M 54.890625 33.015625 
L 54.890625 0 
L 45.90625 0 
L 45.90625 32.71875 
Q 45.90625 40.484375 42.875 44.328125 
Q 39.84375 48.1875 33.796875 48.1875 
Q 26.515625 48.1875 22.3125 43.546875 
Q 18.109375 38.921875 18.109375 30.90625 
L 18.109375 0 
L 9.078125 0 
L 9.078125 54.6875 
L 18.109375 54.6875 
L 18.109375 46.1875 
Q 21.34375 51.125 25.703125 53.5625 
Q 30.078125 56 35.796875 56 
Q 45.21875 56 50.046875 50.171875 
Q 54.890625 44.34375 54.890625 33.015625 
z
" id="DejaVuSans-110"/>
      <path d="M 8.5 21.578125 
L 8.5 54.6875 
L 17.484375 54.6875 
L 17.484375 21.921875 
Q 17.484375 14.15625 20.5 10.265625 
Q 23.53125 6.390625 29.59375 6.390625 
Q 36.859375 6.390625 41.078125 11.03125 
Q 45.3125 15.671875 45.3125 23.6875 
L 45.3125 54.6875 
L 54.296875 54.6875 
L 54.296875 0 
L 45.3125 0 
L 45.3125 8.40625 
Q 42.046875 3.421875 37.71875 1 
Q 33.40625 -1.421875 27.6875 -1.421875 
Q 18.265625 -1.421875 13.375 4.4375 
Q 8.5 10.296875 8.5 21.578125 
z
M 31.109375 56 
z
" id="DejaVuSans-117"/>
      <path d="M 44.28125 53.078125 
L 44.28125 44.578125 
Q 40.484375 46.53125 36.375 47.5 
Q 32.28125 48.484375 27.875 48.484375 
Q 21.1875 48.484375 17.84375 46.4375 
Q 14.5 44.390625 14.5 40.28125 
Q 14.5 37.15625 16.890625 35.375 
Q 19.28125 33.59375 26.515625 31.984375 
L 29.59375 31.296875 
Q 39.15625 29.25 43.1875 25.515625 
Q 47.21875 21.78125 47.21875 15.09375 
Q 47.21875 7.46875 41.1875 3.015625 
Q 35.15625 -1.421875 24.609375 -1.421875 
Q 20.21875 -1.421875 15.453125 -0.5625 
Q 10.6875 0.296875 5.421875 2 
L 5.421875 11.28125 
Q 10.40625 8.6875 15.234375 7.390625 
Q 20.0625 6.109375 24.8125 6.109375 
Q 31.15625 6.109375 34.5625 8.28125 
Q 37.984375 10.453125 37.984375 14.40625 
Q 37.984375 18.0625 35.515625 20.015625 
Q 33.0625 21.96875 24.703125 23.78125 
L 21.578125 24.515625 
Q 13.234375 26.265625 9.515625 29.90625 
Q 5.8125 33.546875 5.8125 39.890625 
Q 5.8125 47.609375 11.28125 51.796875 
Q 16.75 56 26.8125 56 
Q 31.78125 56 36.171875 55.265625 
Q 40.578125 54.546875 44.28125 53.078125 
z
" id="DejaVuSans-115"/>
      <path d="M 48.78125 52.59375 
L 48.78125 44.1875 
Q 44.96875 46.296875 41.140625 47.34375 
Q 37.3125 48.390625 33.40625 48.390625 
Q 24.65625 48.390625 19.8125 42.84375 
Q 14.984375 37.3125 14.984375 27.296875 
Q 14.984375 17.28125 19.8125 11.734375 
Q 24.65625 6.203125 33.40625 6.203125 
Q 37.3125 6.203125 41.140625 7.25 
Q 44.96875 8.296875 48.78125 10.40625 
L 48.78125 2.09375 
Q 45.015625 0.34375 40.984375 -0.53125 
Q 36.96875 -1.421875 32.421875 -1.421875 
Q 20.0625 -1.421875 12.78125 6.34375 
Q 5.515625 14.109375 5.515625 27.296875 
Q 5.515625 40.671875 12.859375 48.328125 
Q 20.21875 56 33.015625 56 
Q 37.15625 56 41.109375 55.140625 
Q 45.0625 54.296875 48.78125 52.59375 
z
" id="DejaVuSans-99"/>
      <path d="M 41.109375 46.296875 
Q 39.59375 47.171875 37.8125 47.578125 
Q 36.03125 48 33.890625 48 
Q 26.265625 48 22.1875 43.046875 
Q 18.109375 38.09375 18.109375 28.8125 
L 18.109375 0 
L 9.078125 0 
L 9.078125 54.6875 
L 18.109375 54.6875 
L 18.109375 46.1875 
Q 20.953125 51.171875 25.484375 53.578125 
Q 30.03125 56 36.53125 56 
Q 37.453125 56 38.578125 55.875 
Q 39.703125 55.765625 41.0625 55.515625 
z
" id="DejaVuSans-114"/>
      <path d="M 9.421875 54.6875 
L 18.40625 54.6875 
L 18.40625 0 
L 9.421875 0 
z
M 9.421875 75.984375 
L 18.40625 75.984375 
L 18.40625 64.59375 
L 9.421875 64.59375 
z
" id="DejaVuSans-105"/>
      <path d="M 18.109375 8.203125 
L 18.109375 -20.796875 
L 9.078125 -20.796875 
L 9.078125 54.6875 
L 18.109375 54.6875 
L 18.109375 46.390625 
Q 20.953125 51.265625 25.265625 53.625 
Q 29.59375 56 35.59375 56 
Q 45.5625 56 51.78125 48.09375 
Q 58.015625 40.1875 58.015625 27.296875 
Q 58.015625 14.40625 51.78125 6.484375 
Q 45.5625 -1.421875 35.59375 -1.421875 
Q 29.59375 -1.421875 25.265625 0.953125 
Q 20.953125 3.328125 18.109375 8.203125 
z
M 48.6875 27.296875 
Q 48.6875 37.203125 44.609375 42.84375 
Q 40.53125 48.484375 33.40625 48.484375 
Q 26.265625 48.484375 22.1875 42.84375 
Q 18.109375 37.203125 18.109375 27.296875 
Q 18.109375 17.390625 22.1875 11.75 
Q 26.265625 6.109375 33.40625 6.109375 
Q 40.53125 6.109375 44.609375 11.75 
Q 48.6875 17.390625 48.6875 27.296875 
z
" id="DejaVuSans-112"/>
     </defs>
     <g transform="translate(25.43625 248.515398)rotate(-90)scale(0.24 -0.24)">
      <use xlink:href="#DejaVuSans-84"/>
      <use x="60.818359" xlink:href="#DejaVuSans-111"/>
      <use x="122" xlink:href="#DejaVuSans-116"/>
      <use x="161.208984" xlink:href="#DejaVuSans-97"/>
      <use x="222.488281" xlink:href="#DejaVuSans-108"/>
      <use x="250.271484" xlink:href="#DejaVuSans-32"/>
      <use x="282.058594" xlink:href="#DejaVuSans-109"/>
      <use x="379.470703" xlink:href="#DejaVuSans-97"/>
      <use x="440.75" xlink:href="#DejaVuSans-110"/>
      <use x="504.128906" xlink:href="#DejaVuSans-117"/>
      <use x="567.507812" xlink:href="#DejaVuSans-115"/>
      <use x="619.607422" xlink:href="#DejaVuSans-99"/>
      <use x="674.587891" xlink:href="#DejaVuSans-114"/>
      <use x="715.701172" xlink:href="#DejaVuSans-105"/>
      <use x="743.484375" xlink:href="#DejaVuSans-112"/>
      <use x="806.960938" xlink:href="#DejaVuSans-116"/>
      <use x="846.169922" xlink:href="#DejaVuSans-115"/>
     </g>
    </g>
   </g>
   <g id="line2d_33">
    <path clip-path="url(#pb308d8761c)" d="M 171.111364 260.920555 
L 184.879024 259.992422 
L 191.762854 258.85261 
L 198.646685 258.454581 
L 205.530515 256.956542 
L 223.231792 255.085502 
L 230.115623 235.509383 
L 236.999453 233.786397 
L 237.982857 233.225236 
L 239.949666 232.399023 
L 240.93307 232.322432 
L 242.899879 231.87887 
L 243.883283 231.704883 
L 244.866687 233.502047 
L 246.833496 233.220713 
L 247.8169 233.204429 
L 248.800305 233.069642 
L 249.783709 232.819969 
L 251.750518 232.102008 
L 252.733922 231.888821 
L 253.717326 231.804089 
L 256.667539 231.163322 
L 257.650944 230.071756 
L 258.634348 226.794344 
L 260.601157 226.528991 
L 262.567965 226.35621 
L 263.55137 226.326056 
L 264.534774 225.90119 
L 265.518178 225.983811 
L 266.501582 225.536933 
L 267.484987 224.939888 
L 268.468391 224.852141 
L 269.451795 223.756052 
L 270.4352 223.649911 
L 272.402008 223.047137 
L 274.368817 219.931651 
L 275.352221 219.538748 
L 277.31903 219.275807 
L 278.302434 219.030657 
L 279.285839 218.491508 
L 281.252647 217.888433 
L 283.219456 217.584181 
L 285.186265 216.767316 
L 286.169669 216.553827 
L 287.153073 216.205853 
L 294.036903 214.511212 
L 297.970521 214.220831 
L 298.953925 213.302047 
L 299.937329 213.003826 
L 300.920734 212.88502 
L 301.904138 212.49272 
L 304.854351 211.742494 
L 305.837755 211.656858 
L 307.804564 210.809537 
L 308.787968 210.559864 
L 309.771372 210.769734 
L 313.70499 209.963724 
L 314.688394 209.265062 
L 315.671798 208.946638 
L 316.655203 206.51323 
L 317.638607 205.922518 
L 319.605416 205.670433 
L 321.572224 204.933475 
L 322.555629 204.803512 
L 324.522437 203.91066 
L 325.505842 203.833767 
L 326.489246 203.609122 
L 329.439459 202.285372 
L 330.422863 202.187071 
L 333.373076 201.233006 
L 334.35648 200.733057 
L 335.339885 200.360658 
L 340.256906 198.820404 
L 341.240311 198.347593 
L 343.207119 197.828647 
L 346.157332 195.51314 
L 347.140737 195.096415 
L 348.124141 194.023545 
L 349.107545 193.992788 
L 350.090949 193.39303 
L 351.074354 192.557771 
L 352.057758 191.922733 
L 354.024567 191.623306 
L 355.007971 191.250304 
L 355.991375 190.723216 
L 356.97478 189.982339 
L 358.941588 189.213418 
L 362.875206 188.326897 
L 365.825419 187.591146 
L 366.808823 187.461183 
L 368.775632 186.861425 
L 369.759036 185.723724 
L 370.74244 185.439072 
L 371.725844 183.847256 
L 372.709249 183.290617 
L 375.659462 182.481592 
L 378.609675 181.574869 
L 379.593079 181.017929 
L 380.576483 180.981443 
L 381.559888 180.526422 
L 382.543292 180.29062 
L 384.510101 178.984359 
L 386.476909 178.324294 
L 388.443718 177.878621 
L 389.427122 177.606333 
L 390.410527 177.026476 
L 392.377335 174.505622 
L 393.360739 174.005974 
L 395.327548 173.696899 
L 396.310952 173.45597 
L 398.277761 171.963359 
L 400.24457 171.215244 
L 402.211378 170.898328 
L 404.178187 170.021156 
L 405.161591 169.844455 
L 406.144996 167.358278 
L 407.1284 167.043472 
L 409.095209 166.791387 
L 410.078613 166.403007 
L 412.045422 165.907882 
L 414.01223 165.244801 
L 415.979039 164.949897 
L 418.929252 163.519102 
L 419.912656 163.39517 
L 425.813082 161.613083 
L 426.796486 161.476788 
L 427.779891 161.21053 
L 428.763295 161.149619 
L 431.713508 160.199475 
L 432.696912 159.797224 
L 433.680316 159.678116 
L 434.663721 159.122383 
L 438.597338 157.243804 
L 439.580742 156.628667 
L 441.547551 156.02529 
L 443.51436 155.759937 
L 444.497764 155.234357 
L 445.481168 154.92106 
L 446.464573 154.908395 
L 451.381594 154.429554 
L 452.364999 153.603642 
L 456.298616 153.510769 
L 458.265424 153.212548 
L 459.248829 150.274065 
L 460.232233 149.720743 
L 461.215637 149.411969 
L 462.199042 148.754918 
L 464.16585 148.470569 
L 466.132659 147.655814 
L 468.099468 146.185215 
L 469.082872 145.902373 
L 470.066276 145.861063 
L 471.049681 145.470571 
L 473.016489 145.144006 
L 474.983298 144.23668 
L 475.966702 143.820256 
L 477.933511 143.560331 
L 479.900319 141.948311 
L 480.883724 141.843678 
L 481.867128 141.442633 
L 483.833937 141.236683 
L 490.717767 138.446556 
L 497.601597 135.314787 
L 504.485427 133.279408 
L 511.369258 130.488678 
L 518.253088 128.846806 
L 532.020748 126.228556 
L 538.904578 124.11719 
L 545.788409 116.804 
L 553.655643 114.54488 
L 559.556069 112.384062 
L 566.439899 110.095694 
L 573.32373 107.525991 
L 580.20756 103.028257 
L 587.09139 99.587412 
L 593.97522 96.962226 
L 600.859051 93.447806 
L 614.626711 77.975311 
L 621.510541 75.389928 
L 628.394371 72.292836 
L 635.278202 68.71268 
L 642.162032 65.807969 
L 649.045862 60.417382 
L 655.929692 57.602228 
L 662.813523 54.206312 
L 669.697353 51.025694 
L 679.531396 48.49308 
L 683.465013 45.582639 
L 690.348843 42.393578 
L 697.232674 47.515495 
L 717.884164 43.714916 
L 731.651825 37.466756 
L 745.419485 32.475104 
L 752.303315 29.629795 
L 759.187146 26.30655 
L 766.070976 23.603266 
L 779.838636 19.281931 
L 779.838636 19.281931 
" style="fill:none;stroke:#1f77b4;stroke-linecap:square;stroke-width:5;"/>
   </g>
   <g id="patch_3">
    <path d="M 140.675 274.254545 
L 140.675 7.2 
" style="fill:none;stroke:#000000;stroke-linecap:square;stroke-linejoin:miter;stroke-width:0.8;"/>
   </g>
   <g id="patch_4">
    <path d="M 140.675 274.254545 
L 810.275 274.254545 
" style="fill:none;stroke:#000000;stroke-linecap:square;stroke-linejoin:miter;stroke-width:0.8;"/>
   </g>
  </g>
  <g id="axes_2">
   <g id="patch_5">
    <path d="M 140.675 594.72 
L 810.275 594.72 
L 810.275 327.665455 
L 140.675 327.665455 
z
" style="fill:#ffffff;"/>
   </g>
   <g id="matplotlib.axis_3">
    <g id="xtick_12">
     <g id="line2d_34">
      <path clip-path="url(#pfe71082448)" d="M 152.426682 594.72 
L 152.426682 327.665455 
" style="fill:none;stroke:#d3d3d3;stroke-linecap:square;stroke-width:0.8;"/>
     </g>
     <g id="line2d_35">
      <g>
       <use style="stroke:#000000;stroke-width:0.8;" x="152.426682" xlink:href="#m58f5c0c915" y="594.72"/>
      </g>
     </g>
     <g id="text_7">
      <!-- 2020-03 -->
      <defs>
       <path d="M 4.890625 31.390625 
L 31.203125 31.390625 
L 31.203125 23.390625 
L 4.890625 23.390625 
z
" id="DejaVuSans-45"/>
       <path d="M 40.578125 39.3125 
Q 47.65625 37.796875 51.625 33 
Q 55.609375 28.21875 55.609375 21.1875 
Q 55.609375 10.40625 48.1875 4.484375 
Q 40.765625 -1.421875 27.09375 -1.421875 
Q 22.515625 -1.421875 17.65625 -0.515625 
Q 12.796875 0.390625 7.625 2.203125 
L 7.625 11.71875 
Q 11.71875 9.328125 16.59375 8.109375 
Q 21.484375 6.890625 26.8125 6.890625 
Q 36.078125 6.890625 40.9375 10.546875 
Q 45.796875 14.203125 45.796875 21.1875 
Q 45.796875 27.640625 41.28125 31.265625 
Q 36.765625 34.90625 28.71875 34.90625 
L 20.21875 34.90625 
L 20.21875 43.015625 
L 29.109375 43.015625 
Q 36.375 43.015625 40.234375 45.921875 
Q 44.09375 48.828125 44.09375 54.296875 
Q 44.09375 59.90625 40.109375 62.90625 
Q 36.140625 65.921875 28.71875 65.921875 
Q 24.65625 65.921875 20.015625 65.03125 
Q 15.375 64.15625 9.8125 62.3125 
L 9.8125 71.09375 
Q 15.4375 72.65625 20.34375 73.4375 
Q 25.25 74.21875 29.59375 74.21875 
Q 40.828125 74.21875 47.359375 69.109375 
Q 53.90625 64.015625 53.90625 55.328125 
Q 53.90625 49.265625 50.4375 45.09375 
Q 46.96875 40.921875 40.578125 39.3125 
z
" id="DejaVuSans-51"/>
      </defs>
      <g transform="translate(63.087112 667.652431)rotate(-30)scale(0.24 -0.24)">
       <use xlink:href="#DejaVuSans-50"/>
       <use x="63.623047" xlink:href="#DejaVuSans-48"/>
       <use x="127.246094" xlink:href="#DejaVuSans-50"/>
       <use x="190.869141" xlink:href="#DejaVuSans-48"/>
       <use x="254.492188" xlink:href="#DejaVuSans-45"/>
       <use x="290.576172" xlink:href="#DejaVuSans-48"/>
       <use x="354.199219" xlink:href="#DejaVuSans-51"/>
      </g>
     </g>
    </g>
    <g id="xtick_13">
     <g id="line2d_36">
      <path clip-path="url(#pfe71082448)" d="M 212.414345 594.72 
L 212.414345 327.665455 
" style="fill:none;stroke:#d3d3d3;stroke-linecap:square;stroke-width:0.8;"/>
     </g>
     <g id="line2d_37">
      <g>
       <use style="stroke:#000000;stroke-width:0.8;" x="212.414345" xlink:href="#m58f5c0c915" y="594.72"/>
      </g>
     </g>
     <g id="text_8">
      <!-- 2020-05 -->
      <defs>
       <path d="M 10.796875 72.90625 
L 49.515625 72.90625 
L 49.515625 64.59375 
L 19.828125 64.59375 
L 19.828125 46.734375 
Q 21.96875 47.46875 24.109375 47.828125 
Q 26.265625 48.1875 28.421875 48.1875 
Q 40.625 48.1875 47.75 41.5 
Q 54.890625 34.8125 54.890625 23.390625 
Q 54.890625 11.625 47.5625 5.09375 
Q 40.234375 -1.421875 26.90625 -1.421875 
Q 22.3125 -1.421875 17.546875 -0.640625 
Q 12.796875 0.140625 7.71875 1.703125 
L 7.71875 11.625 
Q 12.109375 9.234375 16.796875 8.0625 
Q 21.484375 6.890625 26.703125 6.890625 
Q 35.15625 6.890625 40.078125 11.328125 
Q 45.015625 15.765625 45.015625 23.390625 
Q 45.015625 31 40.078125 35.4375 
Q 35.15625 39.890625 26.703125 39.890625 
Q 22.75 39.890625 18.8125 39.015625 
Q 14.890625 38.140625 10.796875 36.28125 
z
" id="DejaVuSans-53"/>
      </defs>
      <g transform="translate(123.074775 667.652431)rotate(-30)scale(0.24 -0.24)">
       <use xlink:href="#DejaVuSans-50"/>
       <use x="63.623047" xlink:href="#DejaVuSans-48"/>
       <use x="127.246094" xlink:href="#DejaVuSans-50"/>
       <use x="190.869141" xlink:href="#DejaVuSans-48"/>
       <use x="254.492188" xlink:href="#DejaVuSans-45"/>
       <use x="290.576172" xlink:href="#DejaVuSans-48"/>
       <use x="354.199219" xlink:href="#DejaVuSans-53"/>
      </g>
     </g>
    </g>
    <g id="xtick_14">
     <g id="line2d_38">
      <path clip-path="url(#pfe71082448)" d="M 272.402008 594.72 
L 272.402008 327.665455 
" style="fill:none;stroke:#d3d3d3;stroke-linecap:square;stroke-width:0.8;"/>
     </g>
     <g id="line2d_39">
      <g>
       <use style="stroke:#000000;stroke-width:0.8;" x="272.402008" xlink:href="#m58f5c0c915" y="594.72"/>
      </g>
     </g>
     <g id="text_9">
      <!-- 2020-07 -->
      <defs>
       <path d="M 8.203125 72.90625 
L 55.078125 72.90625 
L 55.078125 68.703125 
L 28.609375 0 
L 18.3125 0 
L 43.21875 64.59375 
L 8.203125 64.59375 
z
" id="DejaVuSans-55"/>
      </defs>
      <g transform="translate(183.062438 667.652431)rotate(-30)scale(0.24 -0.24)">
       <use xlink:href="#DejaVuSans-50"/>
       <use x="63.623047" xlink:href="#DejaVuSans-48"/>
       <use x="127.246094" xlink:href="#DejaVuSans-50"/>
       <use x="190.869141" xlink:href="#DejaVuSans-48"/>
       <use x="254.492188" xlink:href="#DejaVuSans-45"/>
       <use x="290.576172" xlink:href="#DejaVuSans-48"/>
       <use x="354.199219" xlink:href="#DejaVuSans-55"/>
      </g>
     </g>
    </g>
    <g id="xtick_15">
     <g id="line2d_40">
      <path clip-path="url(#pfe71082448)" d="M 333.373076 594.72 
L 333.373076 327.665455 
" style="fill:none;stroke:#d3d3d3;stroke-linecap:square;stroke-width:0.8;"/>
     </g>
     <g id="line2d_41">
      <g>
       <use style="stroke:#000000;stroke-width:0.8;" x="333.373076" xlink:href="#m58f5c0c915" y="594.72"/>
      </g>
     </g>
     <g id="text_10">
      <!-- 2020-09 -->
      <defs>
       <path d="M 10.984375 1.515625 
L 10.984375 10.5 
Q 14.703125 8.734375 18.5 7.8125 
Q 22.3125 6.890625 25.984375 6.890625 
Q 35.75 6.890625 40.890625 13.453125 
Q 46.046875 20.015625 46.78125 33.40625 
Q 43.953125 29.203125 39.59375 26.953125 
Q 35.25 24.703125 29.984375 24.703125 
Q 19.046875 24.703125 12.671875 31.3125 
Q 6.296875 37.9375 6.296875 49.421875 
Q 6.296875 60.640625 12.9375 67.421875 
Q 19.578125 74.21875 30.609375 74.21875 
Q 43.265625 74.21875 49.921875 64.515625 
Q 56.59375 54.828125 56.59375 36.375 
Q 56.59375 19.140625 48.40625 8.859375 
Q 40.234375 -1.421875 26.421875 -1.421875 
Q 22.703125 -1.421875 18.890625 -0.6875 
Q 15.09375 0.046875 10.984375 1.515625 
z
M 30.609375 32.421875 
Q 37.25 32.421875 41.125 36.953125 
Q 45.015625 41.5 45.015625 49.421875 
Q 45.015625 57.28125 41.125 61.84375 
Q 37.25 66.40625 30.609375 66.40625 
Q 23.96875 66.40625 20.09375 61.84375 
Q 16.21875 57.28125 16.21875 49.421875 
Q 16.21875 41.5 20.09375 36.953125 
Q 23.96875 32.421875 30.609375 32.421875 
z
" id="DejaVuSans-57"/>
      </defs>
      <g transform="translate(244.033506 667.652431)rotate(-30)scale(0.24 -0.24)">
       <use xlink:href="#DejaVuSans-50"/>
       <use x="63.623047" xlink:href="#DejaVuSans-48"/>
       <use x="127.246094" xlink:href="#DejaVuSans-50"/>
       <use x="190.869141" xlink:href="#DejaVuSans-48"/>
       <use x="254.492188" xlink:href="#DejaVuSans-45"/>
       <use x="290.576172" xlink:href="#DejaVuSans-48"/>
       <use x="354.199219" xlink:href="#DejaVuSans-57"/>
      </g>
     </g>
    </g>
    <g id="xtick_16">
     <g id="line2d_42">
      <path clip-path="url(#pfe71082448)" d="M 393.360739 594.72 
L 393.360739 327.665455 
" style="fill:none;stroke:#d3d3d3;stroke-linecap:square;stroke-width:0.8;"/>
     </g>
     <g id="line2d_43">
      <g>
       <use style="stroke:#000000;stroke-width:0.8;" x="393.360739" xlink:href="#m58f5c0c915" y="594.72"/>
      </g>
     </g>
     <g id="text_11">
      <!-- 2020-11 -->
      <defs>
       <path d="M 12.40625 8.296875 
L 28.515625 8.296875 
L 28.515625 63.921875 
L 10.984375 60.40625 
L 10.984375 69.390625 
L 28.421875 72.90625 
L 38.28125 72.90625 
L 38.28125 8.296875 
L 54.390625 8.296875 
L 54.390625 0 
L 12.40625 0 
z
" id="DejaVuSans-49"/>
      </defs>
      <g transform="translate(304.02117 667.652431)rotate(-30)scale(0.24 -0.24)">
       <use xlink:href="#DejaVuSans-50"/>
       <use x="63.623047" xlink:href="#DejaVuSans-48"/>
       <use x="127.246094" xlink:href="#DejaVuSans-50"/>
       <use x="190.869141" xlink:href="#DejaVuSans-48"/>
       <use x="254.492188" xlink:href="#DejaVuSans-45"/>
       <use x="290.576172" xlink:href="#DejaVuSans-49"/>
       <use x="354.199219" xlink:href="#DejaVuSans-49"/>
      </g>
     </g>
    </g>
    <g id="xtick_17">
     <g id="line2d_44">
      <path clip-path="url(#pfe71082448)" d="M 453.348403 594.72 
L 453.348403 327.665455 
" style="fill:none;stroke:#d3d3d3;stroke-linecap:square;stroke-width:0.8;"/>
     </g>
     <g id="line2d_45">
      <g>
       <use style="stroke:#000000;stroke-width:0.8;" x="453.348403" xlink:href="#m58f5c0c915" y="594.72"/>
      </g>
     </g>
     <g id="text_12">
      <!-- 2021-01 -->
      <g transform="translate(364.008833 667.652431)rotate(-30)scale(0.24 -0.24)">
       <use xlink:href="#DejaVuSans-50"/>
       <use x="63.623047" xlink:href="#DejaVuSans-48"/>
       <use x="127.246094" xlink:href="#DejaVuSans-50"/>
       <use x="190.869141" xlink:href="#DejaVuSans-49"/>
       <use x="254.492188" xlink:href="#DejaVuSans-45"/>
       <use x="290.576172" xlink:href="#DejaVuSans-48"/>
       <use x="354.199219" xlink:href="#DejaVuSans-49"/>
      </g>
     </g>
    </g>
    <g id="xtick_18">
     <g id="line2d_46">
      <path clip-path="url(#pfe71082448)" d="M 511.369258 594.72 
L 511.369258 327.665455 
" style="fill:none;stroke:#d3d3d3;stroke-linecap:square;stroke-width:0.8;"/>
     </g>
     <g id="line2d_47">
      <g>
       <use style="stroke:#000000;stroke-width:0.8;" x="511.369258" xlink:href="#m58f5c0c915" y="594.72"/>
      </g>
     </g>
     <g id="text_13">
      <!-- 2021-03 -->
      <g transform="translate(422.029688 667.652431)rotate(-30)scale(0.24 -0.24)">
       <use xlink:href="#DejaVuSans-50"/>
       <use x="63.623047" xlink:href="#DejaVuSans-48"/>
       <use x="127.246094" xlink:href="#DejaVuSans-50"/>
       <use x="190.869141" xlink:href="#DejaVuSans-49"/>
       <use x="254.492188" xlink:href="#DejaVuSans-45"/>
       <use x="290.576172" xlink:href="#DejaVuSans-48"/>
       <use x="354.199219" xlink:href="#DejaVuSans-51"/>
      </g>
     </g>
    </g>
    <g id="xtick_19">
     <g id="line2d_48">
      <path clip-path="url(#pfe71082448)" d="M 571.356921 594.72 
L 571.356921 327.665455 
" style="fill:none;stroke:#d3d3d3;stroke-linecap:square;stroke-width:0.8;"/>
     </g>
     <g id="line2d_49">
      <g>
       <use style="stroke:#000000;stroke-width:0.8;" x="571.356921" xlink:href="#m58f5c0c915" y="594.72"/>
      </g>
     </g>
     <g id="text_14">
      <!-- 2021-05 -->
      <g transform="translate(482.017351 667.652431)rotate(-30)scale(0.24 -0.24)">
       <use xlink:href="#DejaVuSans-50"/>
       <use x="63.623047" xlink:href="#DejaVuSans-48"/>
       <use x="127.246094" xlink:href="#DejaVuSans-50"/>
       <use x="190.869141" xlink:href="#DejaVuSans-49"/>
       <use x="254.492188" xlink:href="#DejaVuSans-45"/>
       <use x="290.576172" xlink:href="#DejaVuSans-48"/>
       <use x="354.199219" xlink:href="#DejaVuSans-53"/>
      </g>
     </g>
    </g>
    <g id="xtick_20">
     <g id="line2d_50">
      <path clip-path="url(#pfe71082448)" d="M 631.344584 594.72 
L 631.344584 327.665455 
" style="fill:none;stroke:#d3d3d3;stroke-linecap:square;stroke-width:0.8;"/>
     </g>
     <g id="line2d_51">
      <g>
       <use style="stroke:#000000;stroke-width:0.8;" x="631.344584" xlink:href="#m58f5c0c915" y="594.72"/>
      </g>
     </g>
     <g id="text_15">
      <!-- 2021-07 -->
      <g transform="translate(542.005014 667.652431)rotate(-30)scale(0.24 -0.24)">
       <use xlink:href="#DejaVuSans-50"/>
       <use x="63.623047" xlink:href="#DejaVuSans-48"/>
       <use x="127.246094" xlink:href="#DejaVuSans-50"/>
       <use x="190.869141" xlink:href="#DejaVuSans-49"/>
       <use x="254.492188" xlink:href="#DejaVuSans-45"/>
       <use x="290.576172" xlink:href="#DejaVuSans-48"/>
       <use x="354.199219" xlink:href="#DejaVuSans-55"/>
      </g>
     </g>
    </g>
    <g id="xtick_21">
     <g id="line2d_52">
      <path clip-path="url(#pfe71082448)" d="M 692.315652 594.72 
L 692.315652 327.665455 
" style="fill:none;stroke:#d3d3d3;stroke-linecap:square;stroke-width:0.8;"/>
     </g>
     <g id="line2d_53">
      <g>
       <use style="stroke:#000000;stroke-width:0.8;" x="692.315652" xlink:href="#m58f5c0c915" y="594.72"/>
      </g>
     </g>
     <g id="text_16">
      <!-- 2021-09 -->
      <g transform="translate(602.976082 667.652431)rotate(-30)scale(0.24 -0.24)">
       <use xlink:href="#DejaVuSans-50"/>
       <use x="63.623047" xlink:href="#DejaVuSans-48"/>
       <use x="127.246094" xlink:href="#DejaVuSans-50"/>
       <use x="190.869141" xlink:href="#DejaVuSans-49"/>
       <use x="254.492188" xlink:href="#DejaVuSans-45"/>
       <use x="290.576172" xlink:href="#DejaVuSans-48"/>
       <use x="354.199219" xlink:href="#DejaVuSans-57"/>
      </g>
     </g>
    </g>
    <g id="xtick_22">
     <g id="line2d_54">
      <path clip-path="url(#pfe71082448)" d="M 752.303315 594.72 
L 752.303315 327.665455 
" style="fill:none;stroke:#d3d3d3;stroke-linecap:square;stroke-width:0.8;"/>
     </g>
     <g id="line2d_55">
      <g>
       <use style="stroke:#000000;stroke-width:0.8;" x="752.303315" xlink:href="#m58f5c0c915" y="594.72"/>
      </g>
     </g>
     <g id="text_17">
      <!-- 2021-11 -->
      <g transform="translate(662.963746 667.652431)rotate(-30)scale(0.24 -0.24)">
       <use xlink:href="#DejaVuSans-50"/>
       <use x="63.623047" xlink:href="#DejaVuSans-48"/>
       <use x="127.246094" xlink:href="#DejaVuSans-50"/>
       <use x="190.869141" xlink:href="#DejaVuSans-49"/>
       <use x="254.492188" xlink:href="#DejaVuSans-45"/>
       <use x="290.576172" xlink:href="#DejaVuSans-49"/>
       <use x="354.199219" xlink:href="#DejaVuSans-49"/>
      </g>
     </g>
    </g>
   </g>
   <g id="matplotlib.axis_4">
    <g id="ytick_6">
     <g id="line2d_56">
      <path clip-path="url(#pfe71082448)" d="M 140.675 594.72 
L 810.275 594.72 
" style="fill:none;stroke:#d3d3d3;stroke-linecap:square;stroke-width:0.8;"/>
     </g>
     <g id="line2d_57">
      <g>
       <use style="stroke:#000000;stroke-width:0.8;" x="140.675" xlink:href="#ma1bf6288f2" y="594.72"/>
      </g>
     </g>
     <g id="text_18">
      <!-- 0 -->
      <g transform="translate(118.405 603.838125)scale(0.24 -0.24)">
       <use xlink:href="#DejaVuSans-48"/>
      </g>
     </g>
    </g>
    <g id="ytick_7">
     <g id="line2d_58">
      <path clip-path="url(#pfe71082448)" d="M 140.675 518.677247 
L 810.275 518.677247 
" style="fill:none;stroke:#d3d3d3;stroke-linecap:square;stroke-width:0.8;"/>
     </g>
     <g id="line2d_59">
      <g>
       <use style="stroke:#000000;stroke-width:0.8;" x="140.675" xlink:href="#ma1bf6288f2" y="518.677247"/>
      </g>
     </g>
     <g id="text_19">
      <!-- 5,000 -->
      <g transform="translate(64.9675 527.795372)scale(0.24 -0.24)">
       <use xlink:href="#DejaVuSans-53"/>
       <use x="63.623047" xlink:href="#DejaVuSans-44"/>
       <use x="95.410156" xlink:href="#DejaVuSans-48"/>
       <use x="159.033203" xlink:href="#DejaVuSans-48"/>
       <use x="222.65625" xlink:href="#DejaVuSans-48"/>
      </g>
     </g>
    </g>
    <g id="ytick_8">
     <g id="line2d_60">
      <path clip-path="url(#pfe71082448)" d="M 140.675 442.634493 
L 810.275 442.634493 
" style="fill:none;stroke:#d3d3d3;stroke-linecap:square;stroke-width:0.8;"/>
     </g>
     <g id="line2d_61">
      <g>
       <use style="stroke:#000000;stroke-width:0.8;" x="140.675" xlink:href="#ma1bf6288f2" y="442.634493"/>
      </g>
     </g>
     <g id="text_20">
      <!-- 10,000 -->
      <g transform="translate(49.6975 451.752618)scale(0.24 -0.24)">
       <use xlink:href="#DejaVuSans-49"/>
       <use x="63.623047" xlink:href="#DejaVuSans-48"/>
       <use x="127.246094" xlink:href="#DejaVuSans-44"/>
       <use x="159.033203" xlink:href="#DejaVuSans-48"/>
       <use x="222.65625" xlink:href="#DejaVuSans-48"/>
       <use x="286.279297" xlink:href="#DejaVuSans-48"/>
      </g>
     </g>
    </g>
    <g id="ytick_9">
     <g id="line2d_62">
      <path clip-path="url(#pfe71082448)" d="M 140.675 366.59174 
L 810.275 366.59174 
" style="fill:none;stroke:#d3d3d3;stroke-linecap:square;stroke-width:0.8;"/>
     </g>
     <g id="line2d_63">
      <g>
       <use style="stroke:#000000;stroke-width:0.8;" x="140.675" xlink:href="#ma1bf6288f2" y="366.59174"/>
      </g>
     </g>
     <g id="text_21">
      <!-- 15,000 -->
      <g transform="translate(49.6975 375.709865)scale(0.24 -0.24)">
       <use xlink:href="#DejaVuSans-49"/>
       <use x="63.623047" xlink:href="#DejaVuSans-53"/>
       <use x="127.246094" xlink:href="#DejaVuSans-44"/>
       <use x="159.033203" xlink:href="#DejaVuSans-48"/>
       <use x="222.65625" xlink:href="#DejaVuSans-48"/>
       <use x="286.279297" xlink:href="#DejaVuSans-48"/>
      </g>
     </g>
    </g>
    <g id="text_22">
     <!-- Preprints -->
     <defs>
      <path d="M 19.671875 64.796875 
L 19.671875 37.40625 
L 32.078125 37.40625 
Q 38.96875 37.40625 42.71875 40.96875 
Q 46.484375 44.53125 46.484375 51.125 
Q 46.484375 57.671875 42.71875 61.234375 
Q 38.96875 64.796875 32.078125 64.796875 
z
M 9.8125 72.90625 
L 32.078125 72.90625 
Q 44.34375 72.90625 50.609375 67.359375 
Q 56.890625 61.8125 56.890625 51.125 
Q 56.890625 40.328125 50.609375 34.8125 
Q 44.34375 29.296875 32.078125 29.296875 
L 19.671875 29.296875 
L 19.671875 0 
L 9.8125 0 
z
" id="DejaVuSans-80"/>
      <path d="M 56.203125 29.59375 
L 56.203125 25.203125 
L 14.890625 25.203125 
Q 15.484375 15.921875 20.484375 11.0625 
Q 25.484375 6.203125 34.421875 6.203125 
Q 39.59375 6.203125 44.453125 7.46875 
Q 49.3125 8.734375 54.109375 11.28125 
L 54.109375 2.78125 
Q 49.265625 0.734375 44.1875 -0.34375 
Q 39.109375 -1.421875 33.890625 -1.421875 
Q 20.796875 -1.421875 13.15625 6.1875 
Q 5.515625 13.8125 5.515625 26.8125 
Q 5.515625 40.234375 12.765625 48.109375 
Q 20.015625 56 32.328125 56 
Q 43.359375 56 49.78125 48.890625 
Q 56.203125 41.796875 56.203125 29.59375 
z
M 47.21875 32.234375 
Q 47.125 39.59375 43.09375 43.984375 
Q 39.0625 48.390625 32.421875 48.390625 
Q 24.90625 48.390625 20.390625 44.140625 
Q 15.875 39.890625 15.1875 32.171875 
z
" id="DejaVuSans-101"/>
     </defs>
     <g transform="translate(40.70625 515.185227)rotate(-90)scale(0.24 -0.24)">
      <use xlink:href="#DejaVuSans-80"/>
      <use x="60.287109" xlink:href="#DejaVuSans-114"/>
      <use x="101.369141" xlink:href="#DejaVuSans-101"/>
      <use x="162.892578" xlink:href="#DejaVuSans-112"/>
      <use x="226.369141" xlink:href="#DejaVuSans-114"/>
      <use x="267.482422" xlink:href="#DejaVuSans-105"/>
      <use x="295.265625" xlink:href="#DejaVuSans-110"/>
      <use x="358.644531" xlink:href="#DejaVuSans-116"/>
      <use x="397.853516" xlink:href="#DejaVuSans-115"/>
     </g>
    </g>
   </g>
   <g id="line2d_64">
    <path clip-path="url(#pfe71082448)" d="M 171.111364 591.952044 
L 177.995194 590.431189 
L 184.879024 588.53012 
L 191.762854 586.32488 
L 205.530515 582.537951 
L 212.414345 580.119791 
L 223.231792 577.154124 
L 230.115623 574.812007 
L 240.93307 571.511752 
L 242.899879 571.222789 
L 244.866687 570.462362 
L 247.8169 569.565057 
L 249.783709 569.169635 
L 251.750518 568.37879 
L 252.733922 568.105036 
L 253.717326 567.603154 
L 254.700731 567.283775 
L 256.667539 567.040438 
L 258.634348 566.158342 
L 259.617752 565.930214 
L 261.584561 565.276246 
L 263.55137 565.063326 
L 264.534774 564.789572 
L 265.518178 564.318107 
L 269.451795 563.253509 
L 272.402008 562.645167 
L 275.352221 561.671819 
L 277.31903 561.261189 
L 279.285839 560.500761 
L 280.269243 560.120547 
L 283.219456 559.420954 
L 285.186265 559.162409 
L 287.153073 558.41719 
L 292.070095 557.109254 
L 294.036903 556.500912 
L 295.020308 556.120698 
L 298.953925 555.223394 
L 300.920734 554.493383 
L 302.887542 553.732956 
L 304.854351 553.322325 
L 309.771372 551.755844 
L 311.738181 551.618967 
L 313.70499 551.010625 
L 316.655203 550.158947 
L 320.58882 549.444145 
L 324.522437 548.577257 
L 326.489246 548.181835 
L 328.456054 547.619119 
L 330.422863 546.919525 
L 335.339885 546.067846 
L 341.240311 544.66866 
L 343.207119 543.999484 
L 349.107545 542.904468 
L 351.074354 542.326543 
L 353.041162 542.083206 
L 355.007971 541.429238 
L 355.991375 541.09465 
L 359.924993 540.334223 
L 364.842014 539.193582 
L 366.808823 538.980662 
L 370.74244 537.733561 
L 371.725844 537.383764 
L 373.692653 537.018759 
L 375.659462 536.471251 
L 376.642866 536.319165 
L 377.62627 535.938952 
L 381.559888 535.102481 
L 382.543292 534.661433 
L 384.510101 534.098717 
L 385.493505 533.74892 
L 387.460314 533.444749 
L 393.360739 531.345969 
L 394.344144 531.178675 
L 395.327548 530.844087 
L 398.277761 530.205328 
L 399.261165 529.901157 
L 401.227974 529.566569 
L 407.1284 528.121757 
L 408.111804 528.000088 
L 411.062017 527.102784 
L 412.045422 526.859447 
L 414.01223 526.50965 
L 414.995634 526.464025 
L 415.979039 526.053394 
L 418.929252 525.323383 
L 420.89606 525.064838 
L 424.829678 524.137116 
L 426.796486 523.422314 
L 428.763295 523.209395 
L 430.730104 522.433759 
L 433.680316 521.551663 
L 434.663721 521.384369 
L 441.547551 519.69622 
L 442.530955 519.635385 
L 443.51436 519.361631 
L 444.497764 518.874958 
L 446.464573 518.266616 
L 449.414786 517.916819 
L 451.381594 517.521397 
L 455.315211 516.730552 
L 456.298616 516.654509 
L 459.248829 515.787622 
L 464.16585 514.707815 
L 467.116063 513.780093 
L 468.099468 513.536757 
L 470.066276 513.29342 
L 471.049681 513.019666 
L 473.016489 512.198404 
L 476.950106 511.544436 
L 478.916915 510.936094 
L 479.900319 510.753592 
L 480.883724 510.282127 
L 481.867128 510.008373 
L 483.833937 509.688993 
L 490.717767 507.909593 
L 497.601597 505.902064 
L 511.369258 502.312846 
L 518.253088 500.2749 
L 532.020748 496.913811 
L 545.788409 493.765641 
L 566.439899 488.260145 
L 580.20756 485.035933 
L 587.09139 483.286949 
L 600.859051 479.408769 
L 614.626711 474.937455 
L 628.394371 470.952815 
L 635.278202 469.173414 
L 642.162032 467.576516 
L 649.045862 465.766699 
L 655.929692 464.200218 
L 662.813523 462.420818 
L 669.697353 460.352455 
L 679.531396 457.843044 
L 683.465013 456.459066 
L 690.348843 454.710083 
L 697.232674 452.74818 
L 711.000334 448.657079 
L 717.884164 447.044973 
L 731.651825 442.619285 
L 738.535655 440.626965 
L 745.419485 439.014858 
L 752.303315 437.113789 
L 759.187146 435.091052 
L 766.070976 433.463737 
L 779.838636 431.030369 
L 779.838636 431.030369 
" style="fill:none;stroke:#1f77b4;stroke-linecap:square;stroke-width:5;"/>
   </g>
   <g id="line2d_65">
    <path clip-path="url(#pfe71082448)" d="M 171.111364 585.853415 
L 177.995194 583.450464 
L 184.879024 579.557075 
L 191.762854 576.211194 
L 198.646685 571.876757 
L 205.530515 566.508139 
L 212.414345 561.778279 
L 223.231792 552.257727 
L 230.115623 547.543076 
L 236.999453 541.991955 
L 237.982857 539.497753 
L 238.966262 538.919828 
L 239.949666 538.691699 
L 240.93307 537.748769 
L 241.916475 537.049176 
L 242.899879 537.033967 
L 243.883283 536.684171 
L 244.866687 535.452278 
L 245.850092 534.509348 
L 246.833496 534.144343 
L 247.8169 532.775573 
L 248.800305 532.714739 
L 250.767113 531.680557 
L 251.750518 530.585542 
L 252.733922 530.555125 
L 253.717326 530.114077 
L 254.700731 528.410719 
L 255.684135 528.213008 
L 256.667539 527.77196 
L 257.650944 527.726334 
L 258.634348 526.61611 
L 259.617752 526.083811 
L 260.601157 525.718806 
L 262.567965 524.076282 
L 263.55137 524.045865 
L 264.534774 523.543983 
L 265.518178 522.509801 
L 266.501582 522.053545 
L 267.484987 521.916668 
L 268.468391 521.019363 
L 269.451795 521.004155 
L 270.4352 520.578315 
L 271.418604 519.604968 
L 272.402008 519.285589 
L 275.352221 518.00807 
L 276.335626 517.338894 
L 277.31903 517.186809 
L 278.302434 516.776178 
L 279.285839 515.985333 
L 280.269243 515.513868 
L 281.252647 515.346574 
L 282.236052 514.844692 
L 283.219456 513.932179 
L 285.186265 513.886553 
L 286.169669 512.913206 
L 287.153073 512.441741 
L 291.08669 510.297335 
L 292.070095 510.023581 
L 293.053499 509.536908 
L 294.036903 509.263154 
L 295.020308 509.20232 
L 296.003712 508.016053 
L 298.953925 506.495198 
L 299.937329 506.191027 
L 300.920734 505.263305 
L 301.904138 504.639754 
L 302.887542 504.442043 
L 303.870947 503.95537 
L 304.854351 503.712033 
L 305.837755 503.696824 
L 306.821159 502.130344 
L 307.804564 502.069509 
L 309.771372 500.791991 
L 312.721585 500.746365 
L 313.70499 499.955521 
L 315.671798 499.255927 
L 316.655203 497.932784 
L 317.638607 497.506944 
L 319.605416 496.929019 
L 320.58882 496.579223 
L 322.555629 496.335886 
L 324.522437 494.921491 
L 325.505842 494.723779 
L 326.489246 494.343566 
L 327.47265 493.720015 
L 328.456054 493.309384 
L 330.422863 493.24855 
L 333.373076 492.564165 
L 334.35648 491.225813 
L 335.339885 490.176423 
L 341.240311 488.168894 
L 343.207119 486.982627 
L 348.124141 485.127184 
L 350.090949 485.005515 
L 351.074354 483.195698 
L 353.041162 483.07403 
L 354.024567 482.96757 
L 355.007971 482.465688 
L 355.991375 481.461923 
L 356.97478 481.309838 
L 357.958184 480.595036 
L 358.941588 480.595036 
L 359.924993 480.260448 
L 362.875206 478.739593 
L 364.842014 478.34417 
L 365.825419 478.34417 
L 366.808823 478.070416 
L 367.792227 477.61416 
L 368.775632 477.005818 
L 371.725844 476.610396 
L 372.709249 476.610396 
L 373.692653 476.45831 
L 375.659462 475.606631 
L 376.642866 474.770161 
L 378.609675 474.389947 
L 379.593079 474.389947 
L 380.576483 474.177027 
L 381.559888 474.161819 
L 382.543292 473.325349 
L 383.526696 472.686589 
L 384.510101 472.595338 
L 385.493505 472.04783 
L 386.476909 472.04783 
L 387.460314 471.895745 
L 388.443718 471.621991 
L 389.427122 470.207596 
L 390.410527 470.101136 
L 393.360739 469.675296 
L 395.327548 469.477585 
L 396.310952 468.625906 
L 397.294357 467.424431 
L 398.277761 467.196303 
L 399.261165 466.724838 
L 400.24457 466.420667 
L 401.227974 466.390249 
L 404.178187 465.85795 
L 405.161591 465.280025 
L 406.144996 464.550015 
L 407.1284 464.534806 
L 408.111804 464.397929 
L 409.095209 463.698336 
L 410.078613 463.576668 
L 411.062017 462.724989 
L 412.045422 462.588112 
L 414.995634 462.040604 
L 415.979039 461.508305 
L 418.929252 460.899963 
L 420.89606 460.306829 
L 422.862869 458.907643 
L 424.829678 458.360135 
L 425.813082 457.964712 
L 426.796486 457.204285 
L 428.763295 457.173868 
L 429.746699 456.5199 
L 431.713508 455.941975 
L 432.696912 455.926767 
L 433.680316 454.892585 
L 434.663721 454.862168 
L 438.597338 453.432564 
L 439.580742 453.250062 
L 441.547551 452.459217 
L 442.530955 452.291923 
L 443.51436 452.276714 
L 444.497764 451.105656 
L 445.481168 450.938362 
L 446.464573 450.375646 
L 450.39819 449.919389 
L 451.381594 449.904181 
L 452.364999 449.706469 
L 453.348403 449.691261 
L 455.315211 449.204587 
L 456.298616 449.189379 
L 457.28202 448.109572 
L 458.265424 447.866235 
L 459.248829 447.318727 
L 460.232233 447.28831 
L 461.215637 446.649551 
L 462.199042 446.34538 
L 463.182446 446.314963 
L 465.149255 445.843498 
L 466.132659 445.356824 
L 467.116063 445.311198 
L 468.099468 444.048889 
L 470.066276 443.92722 
L 472.033085 443.881594 
L 473.016489 442.66491 
L 473.999894 442.588868 
L 474.983298 442.193445 
L 476.950106 442.14782 
L 477.933511 441.61552 
L 478.916915 440.414045 
L 479.900319 440.201125 
L 480.883724 440.109874 
L 481.867128 439.395072 
L 482.850532 439.319029 
L 483.833937 438.984441 
L 490.717767 436.033982 
L 497.601597 434.193748 
L 504.485427 431.319332 
L 511.369258 428.977215 
L 518.253088 426.026756 
L 532.020748 419.760833 
L 538.904578 415.684942 
L 545.788409 413.905541 
L 559.556069 408.917136 
L 566.439899 405.738549 
L 573.32373 403.046636 
L 580.20756 400.780562 
L 587.09139 398.301568 
L 593.97522 395.442361 
L 614.626711 388.689764 
L 621.510541 387.047241 
L 628.394371 384.233659 
L 635.278202 382.11967 
L 642.162032 378.758581 
L 649.045862 376.857512 
L 655.929692 373.511631 
L 662.813523 371.443268 
L 669.697353 369.496573 
L 679.531396 367.017579 
L 683.465013 366.348403 
L 690.348843 364.082329 
L 697.232674 362.348554 
L 711.000334 359.200384 
L 717.884164 356.341177 
L 731.651825 352.371745 
L 738.535655 350.820473 
L 745.419485 349.010655 
L 752.303315 346.65333 
L 759.187146 345.512689 
L 766.070976 343.353075 
L 779.838636 340.25053 
L 779.838636 340.25053 
" style="fill:none;stroke:#ff7f0e;stroke-linecap:square;stroke-width:5;"/>
   </g>
   <g id="line2d_66">
    <path clip-path="url(#pfe71082448)" d="M 171.111364 591.541413 
L 177.995194 590.978697 
L 184.879024 590.142226 
L 191.762854 589.15367 
L 198.646685 587.982612 
L 205.530515 586.674677 
L 212.414345 585.625287 
L 223.231792 583.602549 
L 230.115623 581.960026 
L 238.966262 580.393545 
L 240.93307 579.70916 
L 248.800305 578.386017 
L 249.783709 578.340391 
L 250.767113 578.051428 
L 252.733922 577.61038 
L 253.717326 577.397461 
L 254.700731 577.017247 
L 256.667539 576.77391 
L 262.567965 575.070553 
L 264.534774 574.827216 
L 266.501582 574.279708 
L 268.468391 573.853868 
L 270.4352 573.716992 
L 271.418604 573.443238 
L 272.402008 572.956564 
L 274.368817 572.409056 
L 278.302434 571.937591 
L 282.236052 571.131538 
L 284.20286 571.040287 
L 287.153073 570.310276 
L 291.08669 569.838811 
L 292.070095 569.549849 
L 295.020308 568.971924 
L 296.003712 568.682961 
L 297.970521 568.515667 
L 298.953925 568.226705 
L 300.920734 567.831282 
L 302.887542 567.359817 
L 304.854351 567.238149 
L 306.821159 566.81231 
L 308.787968 566.371262 
L 309.771372 566.219176 
L 311.738181 566.219176 
L 313.70499 565.671668 
L 323.539033 563.892268 
L 325.505842 563.694557 
L 327.47265 563.375177 
L 330.422863 562.736418 
L 340.256906 561.306814 
L 352.057758 559.375328 
L 353.041162 559.329703 
L 355.007971 558.949489 
L 356.97478 558.660526 
L 357.958184 558.478024 
L 359.924993 558.41719 
L 364.842014 557.535094 
L 367.792227 557.398217 
L 371.725844 556.546538 
L 373.692653 556.470495 
L 375.659462 556.10549 
L 377.62627 555.573191 
L 378.609675 555.314645 
L 380.576483 555.223394 
L 383.526696 554.691095 
L 385.493505 554.402132 
L 387.460314 554.310881 
L 392.377335 553.398368 
L 394.344144 553.246282 
L 396.310952 552.759609 
L 397.294357 552.653149 
L 399.261165 552.12085 
L 401.227974 551.999181 
L 402.211378 551.740636 
L 404.178187 551.451673 
L 405.161591 551.193128 
L 407.1284 550.980208 
L 408.111804 550.965 
L 411.062017 550.265406 
L 412.045422 550.234989 
L 422.862869 549.079139 
L 425.813082 548.303503 
L 426.796486 548.090584 
L 428.763295 547.892872 
L 430.730104 547.558284 
L 433.680316 547.010777 
L 434.663721 546.965151 
L 439.580742 546.265558 
L 440.564147 545.915761 
L 441.547551 545.915761 
L 442.530955 545.763675 
L 445.481168 545.033665 
L 446.464573 544.835954 
L 449.414786 544.607826 
L 452.364999 543.999484 
L 456.298616 543.756147 
L 458.265424 543.19343 
L 461.215637 542.645923 
L 463.182446 542.615505 
L 464.16585 542.296126 
L 466.132659 541.976746 
L 468.099468 541.62695 
L 470.066276 541.566115 
L 471.049681 541.353196 
L 472.033085 540.957773 
L 475.966702 540.455891 
L 477.933511 540.197346 
L 480.883724 539.360876 
L 483.833937 539.041496 
L 490.717767 537.642309 
L 497.601597 536.699379 
L 504.485427 535.376235 
L 511.369258 534.220385 
L 538.904578 528.593222 
L 545.788409 527.513415 
L 553.655643 526.007768 
L 559.556069 525.369009 
L 566.439899 524.365245 
L 573.32373 522.84439 
L 580.20756 521.536454 
L 587.09139 520.411021 
L 593.97522 518.981418 
L 614.626711 515.300948 
L 621.510541 514.145099 
L 628.394371 513.247794 
L 635.278202 512.228821 
L 642.162032 511.057763 
L 649.045862 510.099624 
L 655.929692 508.928566 
L 662.813523 507.970427 
L 669.697353 506.799369 
L 679.531396 504.989551 
L 683.465013 504.47246 
L 690.348843 503.42307 
L 697.232674 502.145552 
L 711.000334 499.879478 
L 745.419485 494.799822 
L 752.303315 493.902518 
L 759.187146 492.822711 
L 779.838636 490.054754 
L 779.838636 490.054754 
" style="fill:none;stroke:#2ca02c;stroke-linecap:square;stroke-width:5;"/>
   </g>
   <g id="patch_6">
    <path d="M 140.675 594.72 
L 140.675 327.665455 
" style="fill:none;stroke:#000000;stroke-linecap:square;stroke-linejoin:miter;stroke-width:0.8;"/>
   </g>
   <g id="patch_7">
    <path d="M 140.675 594.72 
L 810.275 594.72 
" style="fill:none;stroke:#000000;stroke-linecap:square;stroke-linejoin:miter;stroke-width:0.8;"/>
   </g>
   <g id="legend_1">
    <g id="patch_8">
     <path d="M 157.475 452.547955 
L 339.41 452.547955 
Q 344.21 452.547955 344.21 447.747955 
L 344.21 344.465455 
Q 344.21 339.665455 339.41 339.665455 
L 157.475 339.665455 
Q 152.675 339.665455 152.675 344.465455 
L 152.675 447.747955 
Q 152.675 452.547955 157.475 452.547955 
z
" style="fill:#ffffff;opacity:0.8;stroke:#cccccc;stroke-linejoin:miter;"/>
    </g>
    <g id="line2d_67">
     <path d="M 162.275 359.101705 
L 210.275 359.101705 
" style="fill:none;stroke:#1f77b4;stroke-linecap:square;stroke-width:5;"/>
    </g>
    <g id="line2d_68"/>
    <g id="text_23">
     <!-- arXiv -->
     <defs>
      <path d="M 6.296875 72.90625 
L 16.890625 72.90625 
L 35.015625 45.796875 
L 53.21875 72.90625 
L 63.8125 72.90625 
L 40.375 37.890625 
L 65.375 0 
L 54.78125 0 
L 34.28125 31 
L 13.625 0 
L 2.984375 0 
L 29 38.921875 
z
" id="DejaVuSans-88"/>
      <path d="M 2.984375 54.6875 
L 12.5 54.6875 
L 29.59375 8.796875 
L 46.6875 54.6875 
L 56.203125 54.6875 
L 35.6875 0 
L 23.484375 0 
z
" id="DejaVuSans-118"/>
     </defs>
     <g transform="translate(229.475 367.501705)scale(0.24 -0.24)">
      <use xlink:href="#DejaVuSans-97"/>
      <use x="61.279297" xlink:href="#DejaVuSans-114"/>
      <use x="102.392578" xlink:href="#DejaVuSans-88"/>
      <use x="170.898438" xlink:href="#DejaVuSans-105"/>
      <use x="198.681641" xlink:href="#DejaVuSans-118"/>
     </g>
    </g>
    <g id="line2d_69">
     <path d="M 162.275 394.329205 
L 210.275 394.329205 
" style="fill:none;stroke:#ff7f0e;stroke-linecap:square;stroke-width:5;"/>
    </g>
    <g id="line2d_70"/>
    <g id="text_24">
     <!-- medRxiv -->
     <defs>
      <path d="M 45.40625 46.390625 
L 45.40625 75.984375 
L 54.390625 75.984375 
L 54.390625 0 
L 45.40625 0 
L 45.40625 8.203125 
Q 42.578125 3.328125 38.25 0.953125 
Q 33.9375 -1.421875 27.875 -1.421875 
Q 17.96875 -1.421875 11.734375 6.484375 
Q 5.515625 14.40625 5.515625 27.296875 
Q 5.515625 40.1875 11.734375 48.09375 
Q 17.96875 56 27.875 56 
Q 33.9375 56 38.25 53.625 
Q 42.578125 51.265625 45.40625 46.390625 
z
M 14.796875 27.296875 
Q 14.796875 17.390625 18.875 11.75 
Q 22.953125 6.109375 30.078125 6.109375 
Q 37.203125 6.109375 41.296875 11.75 
Q 45.40625 17.390625 45.40625 27.296875 
Q 45.40625 37.203125 41.296875 42.84375 
Q 37.203125 48.484375 30.078125 48.484375 
Q 22.953125 48.484375 18.875 42.84375 
Q 14.796875 37.203125 14.796875 27.296875 
z
" id="DejaVuSans-100"/>
      <path d="M 44.390625 34.1875 
Q 47.5625 33.109375 50.5625 29.59375 
Q 53.5625 26.078125 56.59375 19.921875 
L 66.609375 0 
L 56 0 
L 46.6875 18.703125 
Q 43.0625 26.03125 39.671875 28.421875 
Q 36.28125 30.8125 30.421875 30.8125 
L 19.671875 30.8125 
L 19.671875 0 
L 9.8125 0 
L 9.8125 72.90625 
L 32.078125 72.90625 
Q 44.578125 72.90625 50.734375 67.671875 
Q 56.890625 62.453125 56.890625 51.90625 
Q 56.890625 45.015625 53.6875 40.46875 
Q 50.484375 35.9375 44.390625 34.1875 
z
M 19.671875 64.796875 
L 19.671875 38.921875 
L 32.078125 38.921875 
Q 39.203125 38.921875 42.84375 42.21875 
Q 46.484375 45.515625 46.484375 51.90625 
Q 46.484375 58.296875 42.84375 61.546875 
Q 39.203125 64.796875 32.078125 64.796875 
z
" id="DejaVuSans-82"/>
      <path d="M 54.890625 54.6875 
L 35.109375 28.078125 
L 55.90625 0 
L 45.3125 0 
L 29.390625 21.484375 
L 13.484375 0 
L 2.875 0 
L 24.125 28.609375 
L 4.6875 54.6875 
L 15.28125 54.6875 
L 29.78125 35.203125 
L 44.28125 54.6875 
z
" id="DejaVuSans-120"/>
     </defs>
     <g transform="translate(229.475 402.729205)scale(0.24 -0.24)">
      <use xlink:href="#DejaVuSans-109"/>
      <use x="97.412109" xlink:href="#DejaVuSans-101"/>
      <use x="158.935547" xlink:href="#DejaVuSans-100"/>
      <use x="222.412109" xlink:href="#DejaVuSans-82"/>
      <use x="291.894531" xlink:href="#DejaVuSans-120"/>
      <use x="351.074219" xlink:href="#DejaVuSans-105"/>
      <use x="378.857422" xlink:href="#DejaVuSans-118"/>
     </g>
    </g>
    <g id="line2d_71">
     <path d="M 162.275 429.556705 
L 210.275 429.556705 
" style="fill:none;stroke:#2ca02c;stroke-linecap:square;stroke-width:5;"/>
    </g>
    <g id="line2d_72"/>
    <g id="text_25">
     <!-- bioRxiv -->
     <defs>
      <path d="M 48.6875 27.296875 
Q 48.6875 37.203125 44.609375 42.84375 
Q 40.53125 48.484375 33.40625 48.484375 
Q 26.265625 48.484375 22.1875 42.84375 
Q 18.109375 37.203125 18.109375 27.296875 
Q 18.109375 17.390625 22.1875 11.75 
Q 26.265625 6.109375 33.40625 6.109375 
Q 40.53125 6.109375 44.609375 11.75 
Q 48.6875 17.390625 48.6875 27.296875 
z
M 18.109375 46.390625 
Q 20.953125 51.265625 25.265625 53.625 
Q 29.59375 56 35.59375 56 
Q 45.5625 56 51.78125 48.09375 
Q 58.015625 40.1875 58.015625 27.296875 
Q 58.015625 14.40625 51.78125 6.484375 
Q 45.5625 -1.421875 35.59375 -1.421875 
Q 29.59375 -1.421875 25.265625 0.953125 
Q 20.953125 3.328125 18.109375 8.203125 
L 18.109375 0 
L 9.078125 0 
L 9.078125 75.984375 
L 18.109375 75.984375 
z
" id="DejaVuSans-98"/>
     </defs>
     <g transform="translate(229.475 437.956705)scale(0.24 -0.24)">
      <use xlink:href="#DejaVuSans-98"/>
      <use x="63.476562" xlink:href="#DejaVuSans-105"/>
      <use x="91.259766" xlink:href="#DejaVuSans-111"/>
      <use x="152.441406" xlink:href="#DejaVuSans-82"/>
      <use x="221.923828" xlink:href="#DejaVuSans-120"/>
      <use x="281.103516" xlink:href="#DejaVuSans-105"/>
      <use x="308.886719" xlink:href="#DejaVuSans-118"/>
     </g>
    </g>
   </g>
  </g>
 </g>
 <defs>
  <clipPath id="pb308d8761c">
   <rect height="267.054545" width="669.6" x="140.675" y="7.2"/>
  </clipPath>
  <clipPath id="pfe71082448">
   <rect height="267.054545" width="669.6" x="140.675" y="327.665455"/>
  </clipPath>
 </defs>
</svg>
