<?xml version="1.0" encoding="utf-8" standalone="no"?>
<!DOCTYPE svg PUBLIC "-//W3C//DTD SVG 1.1//EN"
  "http://www.w3.org/Graphics/SVG/1.1/DTD/svg11.dtd">
<!-- Created with matplotlib (https://matplotlib.org/) -->
<svg height="679.17498pt" version="1.1" viewBox="0 0 817.475 679.17498" width="817.475pt" xmlns="http://www.w3.org/2000/svg" xmlns:xlink="http://www.w3.org/1999/xlink">
 <defs>
  <style type="text/css">
*{stroke-linecap:butt;stroke-linejoin:round;}
  </style>
 </defs>
 <g id="figure_1">
  <g id="patch_1">
   <path d="M 0 679.17498 
L 817.475 679.17498 
L 817.475 0 
L 0 0 
z
" style="fill:#ffffff;"/>
  </g>
  <g id="axes_1">
   <g id="patch_2">
    <path d="M 140.675 274.254545 
L 810.275 274.254545 
L 810.275 7.2 
L 140.675 7.2 
z
" style="fill:#ffffff;"/>
   </g>
   <g id="matplotlib.axis_1">
    <g id="xtick_1">
     <g id="line2d_1">
      <path clip-path="url(#p26aa8e9d62)" d="M 151.30688 274.254545 
L 151.30688 7.2 
" style="fill:none;stroke:#d3d3d3;stroke-linecap:square;stroke-width:0.8;"/>
     </g>
     <g id="line2d_2">
      <defs>
       <path d="M 0 0 
L 0 3.5 
" id="m6aa34f5046" style="stroke:#000000;stroke-width:0.8;"/>
      </defs>
      <g>
       <use style="stroke:#000000;stroke-width:0.8;" x="151.30688" xlink:href="#m6aa34f5046" y="274.254545"/>
      </g>
     </g>
    </g>
    <g id="xtick_2">
     <g id="line2d_3">
      <path clip-path="url(#p26aa8e9d62)" d="M 214.889695 274.254545 
L 214.889695 7.2 
" style="fill:none;stroke:#d3d3d3;stroke-linecap:square;stroke-width:0.8;"/>
     </g>
     <g id="line2d_4">
      <g>
       <use style="stroke:#000000;stroke-width:0.8;" x="214.889695" xlink:href="#m6aa34f5046" y="274.254545"/>
      </g>
     </g>
    </g>
    <g id="xtick_3">
     <g id="line2d_5">
      <path clip-path="url(#p26aa8e9d62)" d="M 278.472509 274.254545 
L 278.472509 7.2 
" style="fill:none;stroke:#d3d3d3;stroke-linecap:square;stroke-width:0.8;"/>
     </g>
     <g id="line2d_6">
      <g>
       <use style="stroke:#000000;stroke-width:0.8;" x="278.472509" xlink:href="#m6aa34f5046" y="274.254545"/>
      </g>
     </g>
    </g>
    <g id="xtick_4">
     <g id="line2d_7">
      <path clip-path="url(#p26aa8e9d62)" d="M 343.097665 274.254545 
L 343.097665 7.2 
" style="fill:none;stroke:#d3d3d3;stroke-linecap:square;stroke-width:0.8;"/>
     </g>
     <g id="line2d_8">
      <g>
       <use style="stroke:#000000;stroke-width:0.8;" x="343.097665" xlink:href="#m6aa34f5046" y="274.254545"/>
      </g>
     </g>
    </g>
    <g id="xtick_5">
     <g id="line2d_9">
      <path clip-path="url(#p26aa8e9d62)" d="M 406.680479 274.254545 
L 406.680479 7.2 
" style="fill:none;stroke:#d3d3d3;stroke-linecap:square;stroke-width:0.8;"/>
     </g>
     <g id="line2d_10">
      <g>
       <use style="stroke:#000000;stroke-width:0.8;" x="406.680479" xlink:href="#m6aa34f5046" y="274.254545"/>
      </g>
     </g>
    </g>
    <g id="xtick_6">
     <g id="line2d_11">
      <path clip-path="url(#p26aa8e9d62)" d="M 470.263294 274.254545 
L 470.263294 7.2 
" style="fill:none;stroke:#d3d3d3;stroke-linecap:square;stroke-width:0.8;"/>
     </g>
     <g id="line2d_12">
      <g>
       <use style="stroke:#000000;stroke-width:0.8;" x="470.263294" xlink:href="#m6aa34f5046" y="274.254545"/>
      </g>
     </g>
    </g>
    <g id="xtick_7">
     <g id="line2d_13">
      <path clip-path="url(#p26aa8e9d62)" d="M 531.761426 274.254545 
L 531.761426 7.2 
" style="fill:none;stroke:#d3d3d3;stroke-linecap:square;stroke-width:0.8;"/>
     </g>
     <g id="line2d_14">
      <g>
       <use style="stroke:#000000;stroke-width:0.8;" x="531.761426" xlink:href="#m6aa34f5046" y="274.254545"/>
      </g>
     </g>
    </g>
    <g id="xtick_8">
     <g id="line2d_15">
      <path clip-path="url(#p26aa8e9d62)" d="M 595.34424 274.254545 
L 595.34424 7.2 
" style="fill:none;stroke:#d3d3d3;stroke-linecap:square;stroke-width:0.8;"/>
     </g>
     <g id="line2d_16">
      <g>
       <use style="stroke:#000000;stroke-width:0.8;" x="595.34424" xlink:href="#m6aa34f5046" y="274.254545"/>
      </g>
     </g>
    </g>
    <g id="xtick_9">
     <g id="line2d_17">
      <path clip-path="url(#p26aa8e9d62)" d="M 658.927055 274.254545 
L 658.927055 7.2 
" style="fill:none;stroke:#d3d3d3;stroke-linecap:square;stroke-width:0.8;"/>
     </g>
     <g id="line2d_18">
      <g>
       <use style="stroke:#000000;stroke-width:0.8;" x="658.927055" xlink:href="#m6aa34f5046" y="274.254545"/>
      </g>
     </g>
    </g>
    <g id="xtick_10">
     <g id="line2d_19">
      <path clip-path="url(#p26aa8e9d62)" d="M 723.55221 274.254545 
L 723.55221 7.2 
" style="fill:none;stroke:#d3d3d3;stroke-linecap:square;stroke-width:0.8;"/>
     </g>
     <g id="line2d_20">
      <g>
       <use style="stroke:#000000;stroke-width:0.8;" x="723.55221" xlink:href="#m6aa34f5046" y="274.254545"/>
      </g>
     </g>
    </g>
    <g id="xtick_11">
     <g id="line2d_21">
      <path clip-path="url(#p26aa8e9d62)" d="M 787.135025 274.254545 
L 787.135025 7.2 
" style="fill:none;stroke:#d3d3d3;stroke-linecap:square;stroke-width:0.8;"/>
     </g>
     <g id="line2d_22">
      <g>
       <use style="stroke:#000000;stroke-width:0.8;" x="787.135025" xlink:href="#m6aa34f5046" y="274.254545"/>
      </g>
     </g>
    </g>
   </g>
   <g id="matplotlib.axis_2">
    <g id="ytick_1">
     <g id="line2d_23">
      <path clip-path="url(#p26aa8e9d62)" d="M 140.675 274.254545 
L 810.275 274.254545 
" style="fill:none;stroke:#d3d3d3;stroke-linecap:square;stroke-width:0.8;"/>
     </g>
     <g id="line2d_24">
      <defs>
       <path d="M 0 0 
L -3.5 0 
" id="mb391f2a7a7" style="stroke:#000000;stroke-width:0.8;"/>
      </defs>
      <g>
       <use style="stroke:#000000;stroke-width:0.8;" x="140.675" xlink:href="#mb391f2a7a7" y="274.254545"/>
      </g>
     </g>
     <g id="text_1">
      <!-- 0 -->
      <defs>
       <path d="M 31.78125 66.40625 
Q 24.171875 66.40625 20.328125 58.90625 
Q 16.5 51.421875 16.5 36.375 
Q 16.5 21.390625 20.328125 13.890625 
Q 24.171875 6.390625 31.78125 6.390625 
Q 39.453125 6.390625 43.28125 13.890625 
Q 47.125 21.390625 47.125 36.375 
Q 47.125 51.421875 43.28125 58.90625 
Q 39.453125 66.40625 31.78125 66.40625 
z
M 31.78125 74.21875 
Q 44.046875 74.21875 50.515625 64.515625 
Q 56.984375 54.828125 56.984375 36.375 
Q 56.984375 17.96875 50.515625 8.265625 
Q 44.046875 -1.421875 31.78125 -1.421875 
Q 19.53125 -1.421875 13.0625 8.265625 
Q 6.59375 17.96875 6.59375 36.375 
Q 6.59375 54.828125 13.0625 64.515625 
Q 19.53125 74.21875 31.78125 74.21875 
z
" id="DejaVuSans-48"/>
      </defs>
      <g transform="translate(118.405 283.37267)scale(0.24 -0.24)">
       <use xlink:href="#DejaVuSans-48"/>
      </g>
     </g>
    </g>
    <g id="ytick_2">
     <g id="line2d_25">
      <path clip-path="url(#p26aa8e9d62)" d="M 140.675 210.647572 
L 810.275 210.647572 
" style="fill:none;stroke:#d3d3d3;stroke-linecap:square;stroke-width:0.8;"/>
     </g>
     <g id="line2d_26">
      <g>
       <use style="stroke:#000000;stroke-width:0.8;" x="140.675" xlink:href="#mb391f2a7a7" y="210.647572"/>
      </g>
     </g>
     <g id="text_2">
      <!-- 200,000 -->
      <defs>
       <path d="M 19.1875 8.296875 
L 53.609375 8.296875 
L 53.609375 0 
L 7.328125 0 
L 7.328125 8.296875 
Q 12.9375 14.109375 22.625 23.890625 
Q 32.328125 33.6875 34.8125 36.53125 
Q 39.546875 41.84375 41.421875 45.53125 
Q 43.3125 49.21875 43.3125 52.78125 
Q 43.3125 58.59375 39.234375 62.25 
Q 35.15625 65.921875 28.609375 65.921875 
Q 23.96875 65.921875 18.8125 64.3125 
Q 13.671875 62.703125 7.8125 59.421875 
L 7.8125 69.390625 
Q 13.765625 71.78125 18.9375 73 
Q 24.125 74.21875 28.421875 74.21875 
Q 39.75 74.21875 46.484375 68.546875 
Q 53.21875 62.890625 53.21875 53.421875 
Q 53.21875 48.921875 51.53125 44.890625 
Q 49.859375 40.875 45.40625 35.40625 
Q 44.1875 33.984375 37.640625 27.21875 
Q 31.109375 20.453125 19.1875 8.296875 
z
" id="DejaVuSans-50"/>
       <path d="M 11.71875 12.40625 
L 22.015625 12.40625 
L 22.015625 4 
L 14.015625 -11.625 
L 7.71875 -11.625 
L 11.71875 4 
z
" id="DejaVuSans-44"/>
      </defs>
      <g transform="translate(34.4275 219.765697)scale(0.24 -0.24)">
       <use xlink:href="#DejaVuSans-50"/>
       <use x="63.623047" xlink:href="#DejaVuSans-48"/>
       <use x="127.246094" xlink:href="#DejaVuSans-48"/>
       <use x="190.869141" xlink:href="#DejaVuSans-44"/>
       <use x="222.65625" xlink:href="#DejaVuSans-48"/>
       <use x="286.279297" xlink:href="#DejaVuSans-48"/>
       <use x="349.902344" xlink:href="#DejaVuSans-48"/>
      </g>
     </g>
    </g>
    <g id="ytick_3">
     <g id="line2d_27">
      <path clip-path="url(#p26aa8e9d62)" d="M 140.675 147.040599 
L 810.275 147.040599 
" style="fill:none;stroke:#d3d3d3;stroke-linecap:square;stroke-width:0.8;"/>
     </g>
     <g id="line2d_28">
      <g>
       <use style="stroke:#000000;stroke-width:0.8;" x="140.675" xlink:href="#mb391f2a7a7" y="147.040599"/>
      </g>
     </g>
     <g id="text_3">
      <!-- 400,000 -->
      <defs>
       <path d="M 37.796875 64.3125 
L 12.890625 25.390625 
L 37.796875 25.390625 
z
M 35.203125 72.90625 
L 47.609375 72.90625 
L 47.609375 25.390625 
L 58.015625 25.390625 
L 58.015625 17.1875 
L 47.609375 17.1875 
L 47.609375 0 
L 37.796875 0 
L 37.796875 17.1875 
L 4.890625 17.1875 
L 4.890625 26.703125 
z
" id="DejaVuSans-52"/>
      </defs>
      <g transform="translate(34.4275 156.158724)scale(0.24 -0.24)">
       <use xlink:href="#DejaVuSans-52"/>
       <use x="63.623047" xlink:href="#DejaVuSans-48"/>
       <use x="127.246094" xlink:href="#DejaVuSans-48"/>
       <use x="190.869141" xlink:href="#DejaVuSans-44"/>
       <use x="222.65625" xlink:href="#DejaVuSans-48"/>
       <use x="286.279297" xlink:href="#DejaVuSans-48"/>
       <use x="349.902344" xlink:href="#DejaVuSans-48"/>
      </g>
     </g>
    </g>
    <g id="ytick_4">
     <g id="line2d_29">
      <path clip-path="url(#p26aa8e9d62)" d="M 140.675 83.433625 
L 810.275 83.433625 
" style="fill:none;stroke:#d3d3d3;stroke-linecap:square;stroke-width:0.8;"/>
     </g>
     <g id="line2d_30">
      <g>
       <use style="stroke:#000000;stroke-width:0.8;" x="140.675" xlink:href="#mb391f2a7a7" y="83.433625"/>
      </g>
     </g>
     <g id="text_4">
      <!-- 600,000 -->
      <defs>
       <path d="M 33.015625 40.375 
Q 26.375 40.375 22.484375 35.828125 
Q 18.609375 31.296875 18.609375 23.390625 
Q 18.609375 15.53125 22.484375 10.953125 
Q 26.375 6.390625 33.015625 6.390625 
Q 39.65625 6.390625 43.53125 10.953125 
Q 47.40625 15.53125 47.40625 23.390625 
Q 47.40625 31.296875 43.53125 35.828125 
Q 39.65625 40.375 33.015625 40.375 
z
M 52.59375 71.296875 
L 52.59375 62.3125 
Q 48.875 64.0625 45.09375 64.984375 
Q 41.3125 65.921875 37.59375 65.921875 
Q 27.828125 65.921875 22.671875 59.328125 
Q 17.53125 52.734375 16.796875 39.40625 
Q 19.671875 43.65625 24.015625 45.921875 
Q 28.375 48.1875 33.59375 48.1875 
Q 44.578125 48.1875 50.953125 41.515625 
Q 57.328125 34.859375 57.328125 23.390625 
Q 57.328125 12.15625 50.6875 5.359375 
Q 44.046875 -1.421875 33.015625 -1.421875 
Q 20.359375 -1.421875 13.671875 8.265625 
Q 6.984375 17.96875 6.984375 36.375 
Q 6.984375 53.65625 15.1875 63.9375 
Q 23.390625 74.21875 37.203125 74.21875 
Q 40.921875 74.21875 44.703125 73.484375 
Q 48.484375 72.75 52.59375 71.296875 
z
" id="DejaVuSans-54"/>
      </defs>
      <g transform="translate(34.4275 92.55175)scale(0.24 -0.24)">
       <use xlink:href="#DejaVuSans-54"/>
       <use x="63.623047" xlink:href="#DejaVuSans-48"/>
       <use x="127.246094" xlink:href="#DejaVuSans-48"/>
       <use x="190.869141" xlink:href="#DejaVuSans-44"/>
       <use x="222.65625" xlink:href="#DejaVuSans-48"/>
       <use x="286.279297" xlink:href="#DejaVuSans-48"/>
       <use x="349.902344" xlink:href="#DejaVuSans-48"/>
      </g>
     </g>
    </g>
    <g id="ytick_5">
     <g id="line2d_31">
      <path clip-path="url(#p26aa8e9d62)" d="M 140.675 19.826652 
L 810.275 19.826652 
" style="fill:none;stroke:#d3d3d3;stroke-linecap:square;stroke-width:0.8;"/>
     </g>
     <g id="line2d_32">
      <g>
       <use style="stroke:#000000;stroke-width:0.8;" x="140.675" xlink:href="#mb391f2a7a7" y="19.826652"/>
      </g>
     </g>
     <g id="text_5">
      <!-- 800,000 -->
      <defs>
       <path d="M 31.78125 34.625 
Q 24.75 34.625 20.71875 30.859375 
Q 16.703125 27.09375 16.703125 20.515625 
Q 16.703125 13.921875 20.71875 10.15625 
Q 24.75 6.390625 31.78125 6.390625 
Q 38.8125 6.390625 42.859375 10.171875 
Q 46.921875 13.96875 46.921875 20.515625 
Q 46.921875 27.09375 42.890625 30.859375 
Q 38.875 34.625 31.78125 34.625 
z
M 21.921875 38.8125 
Q 15.578125 40.375 12.03125 44.71875 
Q 8.5 49.078125 8.5 55.328125 
Q 8.5 64.0625 14.71875 69.140625 
Q 20.953125 74.21875 31.78125 74.21875 
Q 42.671875 74.21875 48.875 69.140625 
Q 55.078125 64.0625 55.078125 55.328125 
Q 55.078125 49.078125 51.53125 44.71875 
Q 48 40.375 41.703125 38.8125 
Q 48.828125 37.15625 52.796875 32.3125 
Q 56.78125 27.484375 56.78125 20.515625 
Q 56.78125 9.90625 50.3125 4.234375 
Q 43.84375 -1.421875 31.78125 -1.421875 
Q 19.734375 -1.421875 13.25 4.234375 
Q 6.78125 9.90625 6.78125 20.515625 
Q 6.78125 27.484375 10.78125 32.3125 
Q 14.796875 37.15625 21.921875 38.8125 
z
M 18.3125 54.390625 
Q 18.3125 48.734375 21.84375 45.5625 
Q 25.390625 42.390625 31.78125 42.390625 
Q 38.140625 42.390625 41.71875 45.5625 
Q 45.3125 48.734375 45.3125 54.390625 
Q 45.3125 60.0625 41.71875 63.234375 
Q 38.140625 66.40625 31.78125 66.40625 
Q 25.390625 66.40625 21.84375 63.234375 
Q 18.3125 60.0625 18.3125 54.390625 
z
" id="DejaVuSans-56"/>
      </defs>
      <g transform="translate(34.4275 28.944777)scale(0.24 -0.24)">
       <use xlink:href="#DejaVuSans-56"/>
       <use x="63.623047" xlink:href="#DejaVuSans-48"/>
       <use x="127.246094" xlink:href="#DejaVuSans-48"/>
       <use x="190.869141" xlink:href="#DejaVuSans-44"/>
       <use x="222.65625" xlink:href="#DejaVuSans-48"/>
       <use x="286.279297" xlink:href="#DejaVuSans-48"/>
       <use x="349.902344" xlink:href="#DejaVuSans-48"/>
      </g>
     </g>
    </g>
    <g id="text_6">
     <!-- Total manuscripts -->
     <defs>
      <path d="M -0.296875 72.90625 
L 61.375 72.90625 
L 61.375 64.59375 
L 35.5 64.59375 
L 35.5 0 
L 25.59375 0 
L 25.59375 64.59375 
L -0.296875 64.59375 
z
" id="DejaVuSans-84"/>
      <path d="M 30.609375 48.390625 
Q 23.390625 48.390625 19.1875 42.75 
Q 14.984375 37.109375 14.984375 27.296875 
Q 14.984375 17.484375 19.15625 11.84375 
Q 23.34375 6.203125 30.609375 6.203125 
Q 37.796875 6.203125 41.984375 11.859375 
Q 46.1875 17.53125 46.1875 27.296875 
Q 46.1875 37.015625 41.984375 42.703125 
Q 37.796875 48.390625 30.609375 48.390625 
z
M 30.609375 56 
Q 42.328125 56 49.015625 48.375 
Q 55.71875 40.765625 55.71875 27.296875 
Q 55.71875 13.875 49.015625 6.21875 
Q 42.328125 -1.421875 30.609375 -1.421875 
Q 18.84375 -1.421875 12.171875 6.21875 
Q 5.515625 13.875 5.515625 27.296875 
Q 5.515625 40.765625 12.171875 48.375 
Q 18.84375 56 30.609375 56 
z
" id="DejaVuSans-111"/>
      <path d="M 18.3125 70.21875 
L 18.3125 54.6875 
L 36.8125 54.6875 
L 36.8125 47.703125 
L 18.3125 47.703125 
L 18.3125 18.015625 
Q 18.3125 11.328125 20.140625 9.421875 
Q 21.96875 7.515625 27.59375 7.515625 
L 36.8125 7.515625 
L 36.8125 0 
L 27.59375 0 
Q 17.1875 0 13.234375 3.875 
Q 9.28125 7.765625 9.28125 18.015625 
L 9.28125 47.703125 
L 2.6875 47.703125 
L 2.6875 54.6875 
L 9.28125 54.6875 
L 9.28125 70.21875 
z
" id="DejaVuSans-116"/>
      <path d="M 34.28125 27.484375 
Q 23.390625 27.484375 19.1875 25 
Q 14.984375 22.515625 14.984375 16.5 
Q 14.984375 11.71875 18.140625 8.90625 
Q 21.296875 6.109375 26.703125 6.109375 
Q 34.1875 6.109375 38.703125 11.40625 
Q 43.21875 16.703125 43.21875 25.484375 
L 43.21875 27.484375 
z
M 52.203125 31.203125 
L 52.203125 0 
L 43.21875 0 
L 43.21875 8.296875 
Q 40.140625 3.328125 35.546875 0.953125 
Q 30.953125 -1.421875 24.3125 -1.421875 
Q 15.921875 -1.421875 10.953125 3.296875 
Q 6 8.015625 6 15.921875 
Q 6 25.140625 12.171875 29.828125 
Q 18.359375 34.515625 30.609375 34.515625 
L 43.21875 34.515625 
L 43.21875 35.40625 
Q 43.21875 41.609375 39.140625 45 
Q 35.0625 48.390625 27.6875 48.390625 
Q 23 48.390625 18.546875 47.265625 
Q 14.109375 46.140625 10.015625 43.890625 
L 10.015625 52.203125 
Q 14.9375 54.109375 19.578125 55.046875 
Q 24.21875 56 28.609375 56 
Q 40.484375 56 46.34375 49.84375 
Q 52.203125 43.703125 52.203125 31.203125 
z
" id="DejaVuSans-97"/>
      <path d="M 9.421875 75.984375 
L 18.40625 75.984375 
L 18.40625 0 
L 9.421875 0 
z
" id="DejaVuSans-108"/>
      <path id="DejaVuSans-32"/>
      <path d="M 52 44.1875 
Q 55.375 50.25 60.0625 53.125 
Q 64.75 56 71.09375 56 
Q 79.640625 56 84.28125 50.015625 
Q 88.921875 44.046875 88.921875 33.015625 
L 88.921875 0 
L 79.890625 0 
L 79.890625 32.71875 
Q 79.890625 40.578125 77.09375 44.375 
Q 74.3125 48.1875 68.609375 48.1875 
Q 61.625 48.1875 57.5625 43.546875 
Q 53.515625 38.921875 53.515625 30.90625 
L 53.515625 0 
L 44.484375 0 
L 44.484375 32.71875 
Q 44.484375 40.625 41.703125 44.40625 
Q 38.921875 48.1875 33.109375 48.1875 
Q 26.21875 48.1875 22.15625 43.53125 
Q 18.109375 38.875 18.109375 30.90625 
L 18.109375 0 
L 9.078125 0 
L 9.078125 54.6875 
L 18.109375 54.6875 
L 18.109375 46.1875 
Q 21.1875 51.21875 25.484375 53.609375 
Q 29.78125 56 35.6875 56 
Q 41.65625 56 45.828125 52.96875 
Q 50 49.953125 52 44.1875 
z
" id="DejaVuSans-109"/>
      <path d="M 54.890625 33.015625 
L 54.890625 0 
L 45.90625 0 
L 45.90625 32.71875 
Q 45.90625 40.484375 42.875 44.328125 
Q 39.84375 48.1875 33.796875 48.1875 
Q 26.515625 48.1875 22.3125 43.546875 
Q 18.109375 38.921875 18.109375 30.90625 
L 18.109375 0 
L 9.078125 0 
L 9.078125 54.6875 
L 18.109375 54.6875 
L 18.109375 46.1875 
Q 21.34375 51.125 25.703125 53.5625 
Q 30.078125 56 35.796875 56 
Q 45.21875 56 50.046875 50.171875 
Q 54.890625 44.34375 54.890625 33.015625 
z
" id="DejaVuSans-110"/>
      <path d="M 8.5 21.578125 
L 8.5 54.6875 
L 17.484375 54.6875 
L 17.484375 21.921875 
Q 17.484375 14.15625 20.5 10.265625 
Q 23.53125 6.390625 29.59375 6.390625 
Q 36.859375 6.390625 41.078125 11.03125 
Q 45.3125 15.671875 45.3125 23.6875 
L 45.3125 54.6875 
L 54.296875 54.6875 
L 54.296875 0 
L 45.3125 0 
L 45.3125 8.40625 
Q 42.046875 3.421875 37.71875 1 
Q 33.40625 -1.421875 27.6875 -1.421875 
Q 18.265625 -1.421875 13.375 4.4375 
Q 8.5 10.296875 8.5 21.578125 
z
M 31.109375 56 
z
" id="DejaVuSans-117"/>
      <path d="M 44.28125 53.078125 
L 44.28125 44.578125 
Q 40.484375 46.53125 36.375 47.5 
Q 32.28125 48.484375 27.875 48.484375 
Q 21.1875 48.484375 17.84375 46.4375 
Q 14.5 44.390625 14.5 40.28125 
Q 14.5 37.15625 16.890625 35.375 
Q 19.28125 33.59375 26.515625 31.984375 
L 29.59375 31.296875 
Q 39.15625 29.25 43.1875 25.515625 
Q 47.21875 21.78125 47.21875 15.09375 
Q 47.21875 7.46875 41.1875 3.015625 
Q 35.15625 -1.421875 24.609375 -1.421875 
Q 20.21875 -1.421875 15.453125 -0.5625 
Q 10.6875 0.296875 5.421875 2 
L 5.421875 11.28125 
Q 10.40625 8.6875 15.234375 7.390625 
Q 20.0625 6.109375 24.8125 6.109375 
Q 31.15625 6.109375 34.5625 8.28125 
Q 37.984375 10.453125 37.984375 14.40625 
Q 37.984375 18.0625 35.515625 20.015625 
Q 33.0625 21.96875 24.703125 23.78125 
L 21.578125 24.515625 
Q 13.234375 26.265625 9.515625 29.90625 
Q 5.8125 33.546875 5.8125 39.890625 
Q 5.8125 47.609375 11.28125 51.796875 
Q 16.75 56 26.8125 56 
Q 31.78125 56 36.171875 55.265625 
Q 40.578125 54.546875 44.28125 53.078125 
z
" id="DejaVuSans-115"/>
      <path d="M 48.78125 52.59375 
L 48.78125 44.1875 
Q 44.96875 46.296875 41.140625 47.34375 
Q 37.3125 48.390625 33.40625 48.390625 
Q 24.65625 48.390625 19.8125 42.84375 
Q 14.984375 37.3125 14.984375 27.296875 
Q 14.984375 17.28125 19.8125 11.734375 
Q 24.65625 6.203125 33.40625 6.203125 
Q 37.3125 6.203125 41.140625 7.25 
Q 44.96875 8.296875 48.78125 10.40625 
L 48.78125 2.09375 
Q 45.015625 0.34375 40.984375 -0.53125 
Q 36.96875 -1.421875 32.421875 -1.421875 
Q 20.0625 -1.421875 12.78125 6.34375 
Q 5.515625 14.109375 5.515625 27.296875 
Q 5.515625 40.671875 12.859375 48.328125 
Q 20.21875 56 33.015625 56 
Q 37.15625 56 41.109375 55.140625 
Q 45.0625 54.296875 48.78125 52.59375 
z
" id="DejaVuSans-99"/>
      <path d="M 41.109375 46.296875 
Q 39.59375 47.171875 37.8125 47.578125 
Q 36.03125 48 33.890625 48 
Q 26.265625 48 22.1875 43.046875 
Q 18.109375 38.09375 18.109375 28.8125 
L 18.109375 0 
L 9.078125 0 
L 9.078125 54.6875 
L 18.109375 54.6875 
L 18.109375 46.1875 
Q 20.953125 51.171875 25.484375 53.578125 
Q 30.03125 56 36.53125 56 
Q 37.453125 56 38.578125 55.875 
Q 39.703125 55.765625 41.0625 55.515625 
z
" id="DejaVuSans-114"/>
      <path d="M 9.421875 54.6875 
L 18.40625 54.6875 
L 18.40625 0 
L 9.421875 0 
z
M 9.421875 75.984375 
L 18.40625 75.984375 
L 18.40625 64.59375 
L 9.421875 64.59375 
z
" id="DejaVuSans-105"/>
      <path d="M 18.109375 8.203125 
L 18.109375 -20.796875 
L 9.078125 -20.796875 
L 9.078125 54.6875 
L 18.109375 54.6875 
L 18.109375 46.390625 
Q 20.953125 51.265625 25.265625 53.625 
Q 29.59375 56 35.59375 56 
Q 45.5625 56 51.78125 48.09375 
Q 58.015625 40.1875 58.015625 27.296875 
Q 58.015625 14.40625 51.78125 6.484375 
Q 45.5625 -1.421875 35.59375 -1.421875 
Q 29.59375 -1.421875 25.265625 0.953125 
Q 20.953125 3.328125 18.109375 8.203125 
z
M 48.6875 27.296875 
Q 48.6875 37.203125 44.609375 42.84375 
Q 40.53125 48.484375 33.40625 48.484375 
Q 26.265625 48.484375 22.1875 42.84375 
Q 18.109375 37.203125 18.109375 27.296875 
Q 18.109375 17.390625 22.1875 11.75 
Q 26.265625 6.109375 33.40625 6.109375 
Q 40.53125 6.109375 44.609375 11.75 
Q 48.6875 17.390625 48.6875 27.296875 
z
" id="DejaVuSans-112"/>
     </defs>
     <g transform="translate(25.43625 248.515398)rotate(-90)scale(0.24 -0.24)">
      <use xlink:href="#DejaVuSans-84"/>
      <use x="60.818359" xlink:href="#DejaVuSans-111"/>
      <use x="122" xlink:href="#DejaVuSans-116"/>
      <use x="161.208984" xlink:href="#DejaVuSans-97"/>
      <use x="222.488281" xlink:href="#DejaVuSans-108"/>
      <use x="250.271484" xlink:href="#DejaVuSans-32"/>
      <use x="282.058594" xlink:href="#DejaVuSans-109"/>
      <use x="379.470703" xlink:href="#DejaVuSans-97"/>
      <use x="440.75" xlink:href="#DejaVuSans-110"/>
      <use x="504.128906" xlink:href="#DejaVuSans-117"/>
      <use x="567.507812" xlink:href="#DejaVuSans-115"/>
      <use x="619.607422" xlink:href="#DejaVuSans-99"/>
      <use x="674.587891" xlink:href="#DejaVuSans-114"/>
      <use x="715.701172" xlink:href="#DejaVuSans-105"/>
      <use x="743.484375" xlink:href="#DejaVuSans-112"/>
      <use x="806.960938" xlink:href="#DejaVuSans-116"/>
      <use x="846.169922" xlink:href="#DejaVuSans-115"/>
     </g>
    </g>
   </g>
   <g id="line2d_33">
    <path clip-path="url(#p26aa8e9d62)" d="M 171.111364 260.191044 
L 185.704141 259.212132 
L 193.000529 258.009961 
L 200.296918 257.590155 
L 207.593306 256.010157 
L 226.355448 254.036751 
L 233.651837 233.389609 
L 240.948225 231.572358 
L 241.990567 230.980495 
L 244.075249 230.10908 
L 245.11759 230.028299 
L 247.202273 229.56047 
L 248.244614 229.376963 
L 249.286955 231.272451 
L 250.329296 231.064456 
L 253.45632 230.816389 
L 254.498661 230.553056 
L 255.541002 230.113214 
L 257.625685 229.570965 
L 258.668026 229.481597 
L 261.79505 228.805773 
L 262.837391 227.654487 
L 263.879732 224.197766 
L 265.964415 223.917895 
L 268.049097 223.735661 
L 269.091438 223.703857 
L 270.13378 223.255746 
L 271.176121 223.342888 
L 272.218462 222.87156 
L 273.260803 222.241851 
L 274.303144 222.149303 
L 275.345486 220.993246 
L 276.387827 220.881298 
L 278.472509 220.245546 
L 280.557192 216.95961 
L 281.599533 216.545211 
L 283.684215 216.267884 
L 284.726557 216.009322 
L 285.768898 215.440676 
L 287.85358 214.804606 
L 289.938263 214.483709 
L 292.022945 213.622152 
L 293.065286 213.396984 
L 294.107628 213.029971 
L 301.404016 211.242615 
L 305.573381 210.936348 
L 306.615722 209.967296 
L 307.658064 209.652759 
L 308.700405 209.527453 
L 309.742746 209.11369 
L 312.86977 208.322419 
L 313.912111 208.232097 
L 315.996793 207.338419 
L 317.039134 207.075086 
L 318.081476 207.296439 
L 322.250841 206.446332 
L 323.293182 205.709445 
L 324.335523 205.3736 
L 325.377864 202.807059 
L 326.420205 202.184028 
L 328.504888 201.918151 
L 330.58957 201.140874 
L 331.631912 201.003801 
L 333.716594 200.0621 
L 334.758935 199.981001 
L 335.801276 199.744065 
L 338.9283 198.347892 
L 339.970641 198.244212 
L 343.097665 197.23795 
L 344.140006 196.710648 
L 345.182347 196.317875 
L 350.394054 194.693353 
L 351.436395 194.194674 
L 353.521077 193.647336 
L 356.648101 191.205147 
L 357.690442 190.765622 
L 358.732783 189.634054 
L 359.775125 189.601615 
L 360.817466 188.969043 
L 361.859807 188.088087 
L 362.902148 187.418305 
L 364.986831 187.102497 
L 366.029172 186.709088 
L 367.071513 186.153163 
L 368.113854 185.371751 
L 370.198537 184.560762 
L 374.367902 183.62574 
L 377.494925 182.849735 
L 378.537267 182.712662 
L 380.621949 182.08009 
L 381.66429 180.880145 
L 382.706631 180.57992 
L 383.748973 178.901014 
L 384.791314 178.313921 
L 387.918337 177.460634 
L 388.960679 177.141327 
L 390.00302 176.704029 
L 391.045361 176.504303 
L 392.087702 175.916893 
L 393.130044 175.87841 
L 394.172385 175.398496 
L 395.214726 175.149792 
L 396.257067 174.391279 
L 397.299408 173.772065 
L 399.384091 173.075887 
L 401.468773 172.605832 
L 402.511115 172.318646 
L 403.553456 171.707065 
L 405.638138 169.048294 
L 406.680479 168.52131 
L 408.765162 168.195324 
L 409.807503 167.941214 
L 411.892186 166.366942 
L 413.976868 165.577897 
L 416.06155 165.243642 
L 418.146233 164.318479 
L 419.188574 164.132111 
L 420.230915 161.509913 
L 421.273257 161.177885 
L 422.315598 161.101556 
L 423.357939 160.912008 
L 424.40028 160.502379 
L 426.484963 159.980165 
L 428.569645 159.280807 
L 430.654328 158.969769 
L 433.781351 157.460693 
L 434.823692 157.329981 
L 441.07774 155.450395 
L 442.120081 155.306643 
L 443.162422 155.025818 
L 444.204763 154.961575 
L 447.331787 153.959447 
L 448.374128 153.535189 
L 449.416469 153.409565 
L 450.458811 152.823427 
L 454.628176 150.84207 
L 455.670517 150.193278 
L 457.755199 149.556891 
L 459.839882 149.27702 
L 460.882223 148.722685 
L 461.924564 148.392247 
L 462.966905 148.378889 
L 468.178611 147.87385 
L 469.220953 147.002753 
L 473.390318 146.904798 
L 475.475 146.590261 
L 476.517341 143.491012 
L 477.559682 142.907418 
L 478.602024 142.58175 
L 479.644365 141.888752 
L 481.729047 141.588845 
L 483.81373 140.729515 
L 485.898412 139.178459 
L 486.940753 138.880142 
L 487.983095 138.836571 
L 489.025436 138.424716 
L 491.110118 138.080284 
L 493.194801 137.123318 
L 494.237142 136.684111 
L 496.321824 136.409965 
L 498.406507 134.709751 
L 499.448848 134.599393 
L 500.491189 134.176406 
L 502.575872 133.959189 
L 509.87226 131.016412 
L 517.168649 127.713302 
L 524.465037 125.566567 
L 531.761426 122.623154 
L 539.057814 120.891454 
L 553.650592 118.129957 
L 560.94698 115.903077 
L 568.243369 108.189777 
L 576.582098 105.80706 
L 582.836146 103.528022 
L 590.132534 101.114456 
L 597.428923 98.404163 
L 604.725311 93.660355 
L 612.0217 90.031259 
L 619.318088 87.262447 
L 626.614477 83.555751 
L 641.207254 67.236746 
L 648.503643 64.509915 
L 655.800031 61.243379 
L 663.09642 57.467351 
L 670.392808 54.403721 
L 677.689197 48.718212 
L 684.985585 45.749038 
L 692.281974 42.167329 
L 699.578362 38.812698 
L 710.001775 36.141523 
L 714.171139 33.07185 
L 721.467528 29.708313 
L 728.763917 35.110454 
L 750.653082 31.101942 
L 765.245859 24.511942 
L 779.838636 19.247193 
L 779.838636 19.247193 
" style="fill:none;stroke:#1f77b4;stroke-linecap:square;stroke-width:5;"/>
   </g>
   <g id="patch_3">
    <path d="M 140.675 274.254545 
L 140.675 7.2 
" style="fill:none;stroke:#000000;stroke-linecap:square;stroke-linejoin:miter;stroke-width:0.8;"/>
   </g>
   <g id="patch_4">
    <path d="M 140.675 274.254545 
L 810.275 274.254545 
" style="fill:none;stroke:#000000;stroke-linecap:square;stroke-linejoin:miter;stroke-width:0.8;"/>
   </g>
  </g>
  <g id="axes_2">
   <g id="patch_5">
    <path d="M 140.675 594.72 
L 810.275 594.72 
L 810.275 327.665455 
L 140.675 327.665455 
z
" style="fill:#ffffff;"/>
   </g>
   <g id="matplotlib.axis_3">
    <g id="xtick_12">
     <g id="line2d_34">
      <path clip-path="url(#pc8a38b86a9)" d="M 151.30688 594.72 
L 151.30688 327.665455 
" style="fill:none;stroke:#d3d3d3;stroke-linecap:square;stroke-width:0.8;"/>
     </g>
     <g id="line2d_35">
      <g>
       <use style="stroke:#000000;stroke-width:0.8;" x="151.30688" xlink:href="#m6aa34f5046" y="594.72"/>
      </g>
     </g>
     <g id="text_7">
      <!-- 2020-03 -->
      <defs>
       <path d="M 4.890625 31.390625 
L 31.203125 31.390625 
L 31.203125 23.390625 
L 4.890625 23.390625 
z
" id="DejaVuSans-45"/>
       <path d="M 40.578125 39.3125 
Q 47.65625 37.796875 51.625 33 
Q 55.609375 28.21875 55.609375 21.1875 
Q 55.609375 10.40625 48.1875 4.484375 
Q 40.765625 -1.421875 27.09375 -1.421875 
Q 22.515625 -1.421875 17.65625 -0.515625 
Q 12.796875 0.390625 7.625 2.203125 
L 7.625 11.71875 
Q 11.71875 9.328125 16.59375 8.109375 
Q 21.484375 6.890625 26.8125 6.890625 
Q 36.078125 6.890625 40.9375 10.546875 
Q 45.796875 14.203125 45.796875 21.1875 
Q 45.796875 27.640625 41.28125 31.265625 
Q 36.765625 34.90625 28.71875 34.90625 
L 20.21875 34.90625 
L 20.21875 43.015625 
L 29.109375 43.015625 
Q 36.375 43.015625 40.234375 45.921875 
Q 44.09375 48.828125 44.09375 54.296875 
Q 44.09375 59.90625 40.109375 62.90625 
Q 36.140625 65.921875 28.71875 65.921875 
Q 24.65625 65.921875 20.015625 65.03125 
Q 15.375 64.15625 9.8125 62.3125 
L 9.8125 71.09375 
Q 15.4375 72.65625 20.34375 73.4375 
Q 25.25 74.21875 29.59375 74.21875 
Q 40.828125 74.21875 47.359375 69.109375 
Q 53.90625 64.015625 53.90625 55.328125 
Q 53.90625 49.265625 50.4375 45.09375 
Q 46.96875 40.921875 40.578125 39.3125 
z
" id="DejaVuSans-51"/>
      </defs>
      <g transform="translate(61.96731 667.652431)rotate(-30)scale(0.24 -0.24)">
       <use xlink:href="#DejaVuSans-50"/>
       <use x="63.623047" xlink:href="#DejaVuSans-48"/>
       <use x="127.246094" xlink:href="#DejaVuSans-50"/>
       <use x="190.869141" xlink:href="#DejaVuSans-48"/>
       <use x="254.492188" xlink:href="#DejaVuSans-45"/>
       <use x="290.576172" xlink:href="#DejaVuSans-48"/>
       <use x="354.199219" xlink:href="#DejaVuSans-51"/>
      </g>
     </g>
    </g>
    <g id="xtick_13">
     <g id="line2d_36">
      <path clip-path="url(#pc8a38b86a9)" d="M 214.889695 594.72 
L 214.889695 327.665455 
" style="fill:none;stroke:#d3d3d3;stroke-linecap:square;stroke-width:0.8;"/>
     </g>
     <g id="line2d_37">
      <g>
       <use style="stroke:#000000;stroke-width:0.8;" x="214.889695" xlink:href="#m6aa34f5046" y="594.72"/>
      </g>
     </g>
     <g id="text_8">
      <!-- 2020-05 -->
      <defs>
       <path d="M 10.796875 72.90625 
L 49.515625 72.90625 
L 49.515625 64.59375 
L 19.828125 64.59375 
L 19.828125 46.734375 
Q 21.96875 47.46875 24.109375 47.828125 
Q 26.265625 48.1875 28.421875 48.1875 
Q 40.625 48.1875 47.75 41.5 
Q 54.890625 34.8125 54.890625 23.390625 
Q 54.890625 11.625 47.5625 5.09375 
Q 40.234375 -1.421875 26.90625 -1.421875 
Q 22.3125 -1.421875 17.546875 -0.640625 
Q 12.796875 0.140625 7.71875 1.703125 
L 7.71875 11.625 
Q 12.109375 9.234375 16.796875 8.0625 
Q 21.484375 6.890625 26.703125 6.890625 
Q 35.15625 6.890625 40.078125 11.328125 
Q 45.015625 15.765625 45.015625 23.390625 
Q 45.015625 31 40.078125 35.4375 
Q 35.15625 39.890625 26.703125 39.890625 
Q 22.75 39.890625 18.8125 39.015625 
Q 14.890625 38.140625 10.796875 36.28125 
z
" id="DejaVuSans-53"/>
      </defs>
      <g transform="translate(125.550125 667.652431)rotate(-30)scale(0.24 -0.24)">
       <use xlink:href="#DejaVuSans-50"/>
       <use x="63.623047" xlink:href="#DejaVuSans-48"/>
       <use x="127.246094" xlink:href="#DejaVuSans-50"/>
       <use x="190.869141" xlink:href="#DejaVuSans-48"/>
       <use x="254.492188" xlink:href="#DejaVuSans-45"/>
       <use x="290.576172" xlink:href="#DejaVuSans-48"/>
       <use x="354.199219" xlink:href="#DejaVuSans-53"/>
      </g>
     </g>
    </g>
    <g id="xtick_14">
     <g id="line2d_38">
      <path clip-path="url(#pc8a38b86a9)" d="M 278.472509 594.72 
L 278.472509 327.665455 
" style="fill:none;stroke:#d3d3d3;stroke-linecap:square;stroke-width:0.8;"/>
     </g>
     <g id="line2d_39">
      <g>
       <use style="stroke:#000000;stroke-width:0.8;" x="278.472509" xlink:href="#m6aa34f5046" y="594.72"/>
      </g>
     </g>
     <g id="text_9">
      <!-- 2020-07 -->
      <defs>
       <path d="M 8.203125 72.90625 
L 55.078125 72.90625 
L 55.078125 68.703125 
L 28.609375 0 
L 18.3125 0 
L 43.21875 64.59375 
L 8.203125 64.59375 
z
" id="DejaVuSans-55"/>
      </defs>
      <g transform="translate(189.132939 667.652431)rotate(-30)scale(0.24 -0.24)">
       <use xlink:href="#DejaVuSans-50"/>
       <use x="63.623047" xlink:href="#DejaVuSans-48"/>
       <use x="127.246094" xlink:href="#DejaVuSans-50"/>
       <use x="190.869141" xlink:href="#DejaVuSans-48"/>
       <use x="254.492188" xlink:href="#DejaVuSans-45"/>
       <use x="290.576172" xlink:href="#DejaVuSans-48"/>
       <use x="354.199219" xlink:href="#DejaVuSans-55"/>
      </g>
     </g>
    </g>
    <g id="xtick_15">
     <g id="line2d_40">
      <path clip-path="url(#pc8a38b86a9)" d="M 343.097665 594.72 
L 343.097665 327.665455 
" style="fill:none;stroke:#d3d3d3;stroke-linecap:square;stroke-width:0.8;"/>
     </g>
     <g id="line2d_41">
      <g>
       <use style="stroke:#000000;stroke-width:0.8;" x="343.097665" xlink:href="#m6aa34f5046" y="594.72"/>
      </g>
     </g>
     <g id="text_10">
      <!-- 2020-09 -->
      <defs>
       <path d="M 10.984375 1.515625 
L 10.984375 10.5 
Q 14.703125 8.734375 18.5 7.8125 
Q 22.3125 6.890625 25.984375 6.890625 
Q 35.75 6.890625 40.890625 13.453125 
Q 46.046875 20.015625 46.78125 33.40625 
Q 43.953125 29.203125 39.59375 26.953125 
Q 35.25 24.703125 29.984375 24.703125 
Q 19.046875 24.703125 12.671875 31.3125 
Q 6.296875 37.9375 6.296875 49.421875 
Q 6.296875 60.640625 12.9375 67.421875 
Q 19.578125 74.21875 30.609375 74.21875 
Q 43.265625 74.21875 49.921875 64.515625 
Q 56.59375 54.828125 56.59375 36.375 
Q 56.59375 19.140625 48.40625 8.859375 
Q 40.234375 -1.421875 26.421875 -1.421875 
Q 22.703125 -1.421875 18.890625 -0.6875 
Q 15.09375 0.046875 10.984375 1.515625 
z
M 30.609375 32.421875 
Q 37.25 32.421875 41.125 36.953125 
Q 45.015625 41.5 45.015625 49.421875 
Q 45.015625 57.28125 41.125 61.84375 
Q 37.25 66.40625 30.609375 66.40625 
Q 23.96875 66.40625 20.09375 61.84375 
Q 16.21875 57.28125 16.21875 49.421875 
Q 16.21875 41.5 20.09375 36.953125 
Q 23.96875 32.421875 30.609375 32.421875 
z
" id="DejaVuSans-57"/>
      </defs>
      <g transform="translate(253.758095 667.652431)rotate(-30)scale(0.24 -0.24)">
       <use xlink:href="#DejaVuSans-50"/>
       <use x="63.623047" xlink:href="#DejaVuSans-48"/>
       <use x="127.246094" xlink:href="#DejaVuSans-50"/>
       <use x="190.869141" xlink:href="#DejaVuSans-48"/>
       <use x="254.492188" xlink:href="#DejaVuSans-45"/>
       <use x="290.576172" xlink:href="#DejaVuSans-48"/>
       <use x="354.199219" xlink:href="#DejaVuSans-57"/>
      </g>
     </g>
    </g>
    <g id="xtick_16">
     <g id="line2d_42">
      <path clip-path="url(#pc8a38b86a9)" d="M 406.680479 594.72 
L 406.680479 327.665455 
" style="fill:none;stroke:#d3d3d3;stroke-linecap:square;stroke-width:0.8;"/>
     </g>
     <g id="line2d_43">
      <g>
       <use style="stroke:#000000;stroke-width:0.8;" x="406.680479" xlink:href="#m6aa34f5046" y="594.72"/>
      </g>
     </g>
     <g id="text_11">
      <!-- 2020-11 -->
      <defs>
       <path d="M 12.40625 8.296875 
L 28.515625 8.296875 
L 28.515625 63.921875 
L 10.984375 60.40625 
L 10.984375 69.390625 
L 28.421875 72.90625 
L 38.28125 72.90625 
L 38.28125 8.296875 
L 54.390625 8.296875 
L 54.390625 0 
L 12.40625 0 
z
" id="DejaVuSans-49"/>
      </defs>
      <g transform="translate(317.340909 667.652431)rotate(-30)scale(0.24 -0.24)">
       <use xlink:href="#DejaVuSans-50"/>
       <use x="63.623047" xlink:href="#DejaVuSans-48"/>
       <use x="127.246094" xlink:href="#DejaVuSans-50"/>
       <use x="190.869141" xlink:href="#DejaVuSans-48"/>
       <use x="254.492188" xlink:href="#DejaVuSans-45"/>
       <use x="290.576172" xlink:href="#DejaVuSans-49"/>
       <use x="354.199219" xlink:href="#DejaVuSans-49"/>
      </g>
     </g>
    </g>
    <g id="xtick_17">
     <g id="line2d_44">
      <path clip-path="url(#pc8a38b86a9)" d="M 470.263294 594.72 
L 470.263294 327.665455 
" style="fill:none;stroke:#d3d3d3;stroke-linecap:square;stroke-width:0.8;"/>
     </g>
     <g id="line2d_45">
      <g>
       <use style="stroke:#000000;stroke-width:0.8;" x="470.263294" xlink:href="#m6aa34f5046" y="594.72"/>
      </g>
     </g>
     <g id="text_12">
      <!-- 2021-01 -->
      <g transform="translate(380.923724 667.652431)rotate(-30)scale(0.24 -0.24)">
       <use xlink:href="#DejaVuSans-50"/>
       <use x="63.623047" xlink:href="#DejaVuSans-48"/>
       <use x="127.246094" xlink:href="#DejaVuSans-50"/>
       <use x="190.869141" xlink:href="#DejaVuSans-49"/>
       <use x="254.492188" xlink:href="#DejaVuSans-45"/>
       <use x="290.576172" xlink:href="#DejaVuSans-48"/>
       <use x="354.199219" xlink:href="#DejaVuSans-49"/>
      </g>
     </g>
    </g>
    <g id="xtick_18">
     <g id="line2d_46">
      <path clip-path="url(#pc8a38b86a9)" d="M 531.761426 594.72 
L 531.761426 327.665455 
" style="fill:none;stroke:#d3d3d3;stroke-linecap:square;stroke-width:0.8;"/>
     </g>
     <g id="line2d_47">
      <g>
       <use style="stroke:#000000;stroke-width:0.8;" x="531.761426" xlink:href="#m6aa34f5046" y="594.72"/>
      </g>
     </g>
     <g id="text_13">
      <!-- 2021-03 -->
      <g transform="translate(442.421856 667.652431)rotate(-30)scale(0.24 -0.24)">
       <use xlink:href="#DejaVuSans-50"/>
       <use x="63.623047" xlink:href="#DejaVuSans-48"/>
       <use x="127.246094" xlink:href="#DejaVuSans-50"/>
       <use x="190.869141" xlink:href="#DejaVuSans-49"/>
       <use x="254.492188" xlink:href="#DejaVuSans-45"/>
       <use x="290.576172" xlink:href="#DejaVuSans-48"/>
       <use x="354.199219" xlink:href="#DejaVuSans-51"/>
      </g>
     </g>
    </g>
    <g id="xtick_19">
     <g id="line2d_48">
      <path clip-path="url(#pc8a38b86a9)" d="M 595.34424 594.72 
L 595.34424 327.665455 
" style="fill:none;stroke:#d3d3d3;stroke-linecap:square;stroke-width:0.8;"/>
     </g>
     <g id="line2d_49">
      <g>
       <use style="stroke:#000000;stroke-width:0.8;" x="595.34424" xlink:href="#m6aa34f5046" y="594.72"/>
      </g>
     </g>
     <g id="text_14">
      <!-- 2021-05 -->
      <g transform="translate(506.00467 667.652431)rotate(-30)scale(0.24 -0.24)">
       <use xlink:href="#DejaVuSans-50"/>
       <use x="63.623047" xlink:href="#DejaVuSans-48"/>
       <use x="127.246094" xlink:href="#DejaVuSans-50"/>
       <use x="190.869141" xlink:href="#DejaVuSans-49"/>
       <use x="254.492188" xlink:href="#DejaVuSans-45"/>
       <use x="290.576172" xlink:href="#DejaVuSans-48"/>
       <use x="354.199219" xlink:href="#DejaVuSans-53"/>
      </g>
     </g>
    </g>
    <g id="xtick_20">
     <g id="line2d_50">
      <path clip-path="url(#pc8a38b86a9)" d="M 658.927055 594.72 
L 658.927055 327.665455 
" style="fill:none;stroke:#d3d3d3;stroke-linecap:square;stroke-width:0.8;"/>
     </g>
     <g id="line2d_51">
      <g>
       <use style="stroke:#000000;stroke-width:0.8;" x="658.927055" xlink:href="#m6aa34f5046" y="594.72"/>
      </g>
     </g>
     <g id="text_15">
      <!-- 2021-07 -->
      <g transform="translate(569.587485 667.652431)rotate(-30)scale(0.24 -0.24)">
       <use xlink:href="#DejaVuSans-50"/>
       <use x="63.623047" xlink:href="#DejaVuSans-48"/>
       <use x="127.246094" xlink:href="#DejaVuSans-50"/>
       <use x="190.869141" xlink:href="#DejaVuSans-49"/>
       <use x="254.492188" xlink:href="#DejaVuSans-45"/>
       <use x="290.576172" xlink:href="#DejaVuSans-48"/>
       <use x="354.199219" xlink:href="#DejaVuSans-55"/>
      </g>
     </g>
    </g>
    <g id="xtick_21">
     <g id="line2d_52">
      <path clip-path="url(#pc8a38b86a9)" d="M 723.55221 594.72 
L 723.55221 327.665455 
" style="fill:none;stroke:#d3d3d3;stroke-linecap:square;stroke-width:0.8;"/>
     </g>
     <g id="line2d_53">
      <g>
       <use style="stroke:#000000;stroke-width:0.8;" x="723.55221" xlink:href="#m6aa34f5046" y="594.72"/>
      </g>
     </g>
     <g id="text_16">
      <!-- 2021-09 -->
      <g transform="translate(634.212641 667.652431)rotate(-30)scale(0.24 -0.24)">
       <use xlink:href="#DejaVuSans-50"/>
       <use x="63.623047" xlink:href="#DejaVuSans-48"/>
       <use x="127.246094" xlink:href="#DejaVuSans-50"/>
       <use x="190.869141" xlink:href="#DejaVuSans-49"/>
       <use x="254.492188" xlink:href="#DejaVuSans-45"/>
       <use x="290.576172" xlink:href="#DejaVuSans-48"/>
       <use x="354.199219" xlink:href="#DejaVuSans-57"/>
      </g>
     </g>
    </g>
    <g id="xtick_22">
     <g id="line2d_54">
      <path clip-path="url(#pc8a38b86a9)" d="M 787.135025 594.72 
L 787.135025 327.665455 
" style="fill:none;stroke:#d3d3d3;stroke-linecap:square;stroke-width:0.8;"/>
     </g>
     <g id="line2d_55">
      <g>
       <use style="stroke:#000000;stroke-width:0.8;" x="787.135025" xlink:href="#m6aa34f5046" y="594.72"/>
      </g>
     </g>
     <g id="text_17">
      <!-- 2021-11 -->
      <g transform="translate(697.795455 667.652431)rotate(-30)scale(0.24 -0.24)">
       <use xlink:href="#DejaVuSans-50"/>
       <use x="63.623047" xlink:href="#DejaVuSans-48"/>
       <use x="127.246094" xlink:href="#DejaVuSans-50"/>
       <use x="190.869141" xlink:href="#DejaVuSans-49"/>
       <use x="254.492188" xlink:href="#DejaVuSans-45"/>
       <use x="290.576172" xlink:href="#DejaVuSans-49"/>
       <use x="354.199219" xlink:href="#DejaVuSans-49"/>
      </g>
     </g>
    </g>
   </g>
   <g id="matplotlib.axis_4">
    <g id="ytick_6">
     <g id="line2d_56">
      <path clip-path="url(#pc8a38b86a9)" d="M 140.675 594.72 
L 810.275 594.72 
" style="fill:none;stroke:#d3d3d3;stroke-linecap:square;stroke-width:0.8;"/>
     </g>
     <g id="line2d_57">
      <g>
       <use style="stroke:#000000;stroke-width:0.8;" x="140.675" xlink:href="#mb391f2a7a7" y="594.72"/>
      </g>
     </g>
     <g id="text_18">
      <!-- 0 -->
      <g transform="translate(118.405 603.838125)scale(0.24 -0.24)">
       <use xlink:href="#DejaVuSans-48"/>
      </g>
     </g>
    </g>
    <g id="ytick_7">
     <g id="line2d_58">
      <path clip-path="url(#pc8a38b86a9)" d="M 140.675 515.975136 
L 810.275 515.975136 
" style="fill:none;stroke:#d3d3d3;stroke-linecap:square;stroke-width:0.8;"/>
     </g>
     <g id="line2d_59">
      <g>
       <use style="stroke:#000000;stroke-width:0.8;" x="140.675" xlink:href="#mb391f2a7a7" y="515.975136"/>
      </g>
     </g>
     <g id="text_19">
      <!-- 5,000 -->
      <g transform="translate(64.9675 525.093261)scale(0.24 -0.24)">
       <use xlink:href="#DejaVuSans-53"/>
       <use x="63.623047" xlink:href="#DejaVuSans-44"/>
       <use x="95.410156" xlink:href="#DejaVuSans-48"/>
       <use x="159.033203" xlink:href="#DejaVuSans-48"/>
       <use x="222.65625" xlink:href="#DejaVuSans-48"/>
      </g>
     </g>
    </g>
    <g id="ytick_8">
     <g id="line2d_60">
      <path clip-path="url(#pc8a38b86a9)" d="M 140.675 437.230271 
L 810.275 437.230271 
" style="fill:none;stroke:#d3d3d3;stroke-linecap:square;stroke-width:0.8;"/>
     </g>
     <g id="line2d_61">
      <g>
       <use style="stroke:#000000;stroke-width:0.8;" x="140.675" xlink:href="#mb391f2a7a7" y="437.230271"/>
      </g>
     </g>
     <g id="text_20">
      <!-- 10,000 -->
      <g transform="translate(49.6975 446.348396)scale(0.24 -0.24)">
       <use xlink:href="#DejaVuSans-49"/>
       <use x="63.623047" xlink:href="#DejaVuSans-48"/>
       <use x="127.246094" xlink:href="#DejaVuSans-44"/>
       <use x="159.033203" xlink:href="#DejaVuSans-48"/>
       <use x="222.65625" xlink:href="#DejaVuSans-48"/>
       <use x="286.279297" xlink:href="#DejaVuSans-48"/>
      </g>
     </g>
    </g>
    <g id="ytick_9">
     <g id="line2d_62">
      <path clip-path="url(#pc8a38b86a9)" d="M 140.675 358.485407 
L 810.275 358.485407 
" style="fill:none;stroke:#d3d3d3;stroke-linecap:square;stroke-width:0.8;"/>
     </g>
     <g id="line2d_63">
      <g>
       <use style="stroke:#000000;stroke-width:0.8;" x="140.675" xlink:href="#mb391f2a7a7" y="358.485407"/>
      </g>
     </g>
     <g id="text_21">
      <!-- 15,000 -->
      <g transform="translate(49.6975 367.603532)scale(0.24 -0.24)">
       <use xlink:href="#DejaVuSans-49"/>
       <use x="63.623047" xlink:href="#DejaVuSans-53"/>
       <use x="127.246094" xlink:href="#DejaVuSans-44"/>
       <use x="159.033203" xlink:href="#DejaVuSans-48"/>
       <use x="222.65625" xlink:href="#DejaVuSans-48"/>
       <use x="286.279297" xlink:href="#DejaVuSans-48"/>
      </g>
     </g>
    </g>
    <g id="text_22">
     <!-- Preprints -->
     <defs>
      <path d="M 19.671875 64.796875 
L 19.671875 37.40625 
L 32.078125 37.40625 
Q 38.96875 37.40625 42.71875 40.96875 
Q 46.484375 44.53125 46.484375 51.125 
Q 46.484375 57.671875 42.71875 61.234375 
Q 38.96875 64.796875 32.078125 64.796875 
z
M 9.8125 72.90625 
L 32.078125 72.90625 
Q 44.34375 72.90625 50.609375 67.359375 
Q 56.890625 61.8125 56.890625 51.125 
Q 56.890625 40.328125 50.609375 34.8125 
Q 44.34375 29.296875 32.078125 29.296875 
L 19.671875 29.296875 
L 19.671875 0 
L 9.8125 0 
z
" id="DejaVuSans-80"/>
      <path d="M 56.203125 29.59375 
L 56.203125 25.203125 
L 14.890625 25.203125 
Q 15.484375 15.921875 20.484375 11.0625 
Q 25.484375 6.203125 34.421875 6.203125 
Q 39.59375 6.203125 44.453125 7.46875 
Q 49.3125 8.734375 54.109375 11.28125 
L 54.109375 2.78125 
Q 49.265625 0.734375 44.1875 -0.34375 
Q 39.109375 -1.421875 33.890625 -1.421875 
Q 20.796875 -1.421875 13.15625 6.1875 
Q 5.515625 13.8125 5.515625 26.8125 
Q 5.515625 40.234375 12.765625 48.109375 
Q 20.015625 56 32.328125 56 
Q 43.359375 56 49.78125 48.890625 
Q 56.203125 41.796875 56.203125 29.59375 
z
M 47.21875 32.234375 
Q 47.125 39.59375 43.09375 43.984375 
Q 39.0625 48.390625 32.421875 48.390625 
Q 24.90625 48.390625 20.390625 44.140625 
Q 15.875 39.890625 15.1875 32.171875 
z
" id="DejaVuSans-101"/>
     </defs>
     <g transform="translate(40.70625 515.185227)rotate(-90)scale(0.24 -0.24)">
      <use xlink:href="#DejaVuSans-80"/>
      <use x="60.287109" xlink:href="#DejaVuSans-114"/>
      <use x="101.369141" xlink:href="#DejaVuSans-101"/>
      <use x="162.892578" xlink:href="#DejaVuSans-112"/>
      <use x="226.369141" xlink:href="#DejaVuSans-114"/>
      <use x="267.482422" xlink:href="#DejaVuSans-105"/>
      <use x="295.265625" xlink:href="#DejaVuSans-110"/>
      <use x="358.644531" xlink:href="#DejaVuSans-116"/>
      <use x="397.853516" xlink:href="#DejaVuSans-115"/>
     </g>
    </g>
   </g>
   <g id="line2d_64">
    <path clip-path="url(#pc8a38b86a9)" d="M 171.111364 591.900934 
L 178.407752 590.357535 
L 185.704141 588.388913 
L 193.000529 586.105312 
L 207.593306 582.183818 
L 214.889695 579.69548 
L 226.355448 576.608681 
L 233.651837 574.199088 
L 245.11759 570.781561 
L 247.202273 570.466582 
L 248.244614 570.009862 
L 253.45632 568.529458 
L 254.498661 568.356219 
L 255.541002 567.88375 
L 259.710367 566.419096 
L 261.79505 566.167112 
L 262.837391 565.647396 
L 263.879732 565.253672 
L 264.922073 565.017437 
L 267.006756 564.340231 
L 269.091438 564.119746 
L 270.13378 563.836264 
L 271.176121 563.332297 
L 275.345486 562.229869 
L 278.472509 561.59991 
L 281.599533 560.591976 
L 283.684215 560.166754 
L 284.726557 559.710033 
L 288.895922 558.450115 
L 293.065286 557.662667 
L 294.107628 557.268943 
L 298.276993 556.276757 
L 300.361675 555.631049 
L 303.488699 554.654613 
L 305.573381 554.292387 
L 309.742746 552.811983 
L 310.785087 552.418259 
L 312.86977 551.993037 
L 317.039134 550.670123 
L 318.081476 550.386641 
L 320.166158 550.244901 
L 322.250841 549.630691 
L 325.377864 548.748748 
L 328.504888 548.197534 
L 330.58957 547.740814 
L 332.674253 547.142353 
L 334.758935 546.921867 
L 337.885959 546.071423 
L 339.970641 545.34697 
L 345.182347 544.465028 
L 351.436395 543.016122 
L 353.521077 542.323167 
L 359.775125 541.189241 
L 360.817466 540.827015 
L 362.902148 540.464788 
L 363.944489 540.354546 
L 366.029172 539.661591 
L 367.071513 539.299364 
L 371.240878 538.511916 
L 377.494925 537.173253 
L 378.537267 537.078759 
L 382.706631 535.787344 
L 383.748973 535.425117 
L 385.833655 535.047142 
L 387.918337 534.480179 
L 388.960679 534.322689 
L 390.00302 533.928965 
L 394.172385 533.062771 
L 395.214726 532.606051 
L 397.299408 532.00759 
L 398.34175 531.645364 
L 400.426432 531.330384 
L 406.680479 529.157026 
L 407.722821 528.983787 
L 408.765162 528.63731 
L 411.892186 527.975853 
L 412.934527 527.629376 
L 415.019209 527.282898 
L 420.230915 526.007231 
L 423.357939 525.345775 
L 424.40028 524.983548 
L 428.569645 524.148853 
L 429.611986 524.101606 
L 430.654328 523.660634 
L 433.781351 522.904684 
L 435.866034 522.621202 
L 440.035399 521.660515 
L 442.120081 520.920313 
L 444.204763 520.699828 
L 446.289446 519.880881 
L 449.416469 518.983189 
L 450.458811 518.809951 
L 457.755199 517.077564 
L 458.79754 517.014568 
L 459.839882 516.731086 
L 460.882223 516.227119 
L 462.966905 515.59716 
L 466.093929 515.234934 
L 468.178611 514.84121 
L 472.347976 514.006514 
L 473.390318 513.927769 
L 476.517341 513.014329 
L 481.729047 511.880403 
L 484.856071 510.919715 
L 485.898412 510.667732 
L 487.983095 510.415748 
L 489.025436 510.132267 
L 490.067777 509.644049 
L 491.110118 509.281822 
L 495.279483 508.620365 
L 497.364166 507.990406 
L 498.406507 507.801419 
L 499.448848 507.313201 
L 500.491189 507.029719 
L 502.575872 506.698991 
L 509.87226 504.840612 
L 517.168649 502.730249 
L 531.761426 498.981994 
L 539.057814 496.824385 
L 553.650592 493.312364 
L 568.243369 490.020828 
L 590.132534 484.351198 
L 604.725311 480.965169 
L 612.0217 479.185535 
L 626.614477 475.169547 
L 641.207254 470.5236 
L 655.800031 466.38162 
L 663.09642 464.507492 
L 670.392808 462.869599 
L 677.689197 460.995471 
L 684.985585 459.404825 
L 692.281974 457.562195 
L 699.578362 455.436084 
L 710.001775 452.837503 
L 714.171139 451.404347 
L 721.467528 449.608964 
L 728.763917 447.624593 
L 743.356694 443.419618 
L 750.653082 441.781724 
L 765.245859 437.309016 
L 772.542248 435.419139 
L 779.838636 434.615942 
L 779.838636 434.615942 
" style="fill:none;stroke:#1f77b4;stroke-linecap:square;stroke-width:5;"/>
   </g>
   <g id="line2d_65">
    <path clip-path="url(#pc8a38b86a9)" d="M 171.111364 585.569847 
L 178.407752 583.081509 
L 185.704141 579.049772 
L 193.000529 575.569249 
L 200.296918 571.080792 
L 207.593306 565.521404 
L 214.889695 560.623474 
L 226.355448 550.764617 
L 233.651837 545.882435 
L 240.948225 540.118311 
L 241.990567 537.53548 
L 243.032908 536.937019 
L 244.075249 536.700784 
L 245.11759 535.724348 
L 246.159932 534.968397 
L 247.202273 534.952648 
L 248.244614 534.606171 
L 249.286955 533.346253 
L 250.329296 532.385565 
L 251.371638 532.00759 
L 252.413979 530.590182 
L 253.45632 530.527187 
L 255.541002 529.456256 
L 256.583344 528.32233 
L 257.625685 528.290832 
L 258.668026 527.834112 
L 259.710367 526.070227 
L 260.752709 525.865491 
L 261.79505 525.40877 
L 262.837391 525.361523 
L 263.879732 524.211848 
L 264.922073 523.660634 
L 265.964415 523.282659 
L 268.049097 521.58177 
L 269.091438 521.550272 
L 270.13378 521.030556 
L 271.176121 519.959626 
L 272.218462 519.487157 
L 273.260803 519.345416 
L 274.303144 518.416226 
L 275.345486 518.400477 
L 276.387827 517.959506 
L 277.430168 516.951572 
L 278.472509 516.620844 
L 281.599533 515.29793 
L 282.641874 514.604975 
L 283.684215 514.447485 
L 284.726557 514.022263 
L 285.768898 513.203316 
L 286.811239 512.715098 
L 287.85358 512.54186 
L 288.895922 512.022143 
L 289.938263 511.077205 
L 292.022945 511.029958 
L 293.065286 510.022024 
L 294.107628 509.533806 
L 298.276993 507.313201 
L 299.319334 507.029719 
L 300.361675 506.525752 
L 301.404016 506.24227 
L 302.446357 506.179275 
L 303.488699 504.950855 
L 306.615722 503.375957 
L 307.658064 503.060978 
L 308.700405 502.100291 
L 309.742746 501.454583 
L 310.785087 501.249846 
L 311.827428 500.745879 
L 312.86977 500.493895 
L 313.912111 500.478146 
L 314.954452 498.856002 
L 315.996793 498.793006 
L 318.081476 497.470093 
L 321.208499 497.422846 
L 322.250841 496.603899 
L 324.335523 495.879446 
L 325.377864 494.509286 
L 326.420205 494.068314 
L 328.504888 493.469853 
L 329.547229 493.107627 
L 331.631912 492.855643 
L 333.716594 491.390989 
L 334.758935 491.186252 
L 335.801276 490.792528 
L 336.843618 490.14682 
L 337.885959 489.721598 
L 339.970641 489.658602 
L 343.097665 488.949898 
L 344.140006 487.563989 
L 345.182347 486.477309 
L 351.436395 484.398445 
L 353.521077 483.170025 
L 358.732783 481.24865 
L 360.817466 481.122659 
L 361.859807 479.248531 
L 363.944489 479.122539 
L 364.986831 479.012296 
L 366.029172 478.49258 
L 367.071513 477.453148 
L 368.113854 477.295658 
L 369.156196 476.555457 
L 370.198537 476.555457 
L 371.240878 476.208979 
L 374.367902 474.634082 
L 376.452584 474.224609 
L 377.494925 474.224609 
L 378.537267 473.941127 
L 379.579608 473.468658 
L 380.621949 472.838699 
L 383.748973 472.429226 
L 384.791314 472.429226 
L 385.833655 472.271736 
L 387.918337 471.389793 
L 388.960679 470.5236 
L 391.045361 470.129876 
L 392.087702 470.129876 
L 393.130044 469.90939 
L 394.172385 469.893641 
L 395.214726 469.027448 
L 396.257067 468.365991 
L 397.299408 468.271497 
L 398.34175 467.720283 
L 399.384091 467.720283 
L 400.426432 467.562793 
L 401.468773 467.279312 
L 402.511115 465.814657 
L 403.553456 465.704414 
L 406.680479 465.263443 
L 408.765162 465.058706 
L 409.807503 464.176764 
L 410.849844 462.932595 
L 411.892186 462.69636 
L 412.934527 462.208142 
L 413.976868 461.893163 
L 415.019209 461.861665 
L 418.146233 461.310451 
L 419.188574 460.71199 
L 420.230915 459.956039 
L 421.273257 459.94029 
L 422.315598 459.798549 
L 423.357939 459.074097 
L 424.40028 458.948105 
L 425.442621 458.066162 
L 426.484963 457.924422 
L 429.611986 457.357459 
L 430.654328 456.790496 
L 433.781351 456.176286 
L 435.866034 455.562076 
L 437.950716 454.081672 
L 440.035399 453.514709 
L 441.07774 453.105236 
L 442.120081 452.317787 
L 444.204763 452.286289 
L 445.247105 451.609084 
L 447.331787 451.010623 
L 448.374128 450.994874 
L 449.416469 449.923943 
L 450.458811 449.892446 
L 454.628176 448.412042 
L 455.670517 448.223054 
L 457.755199 447.404108 
L 458.79754 447.230869 
L 459.839882 447.21512 
L 460.882223 446.002449 
L 461.924564 445.829211 
L 462.966905 445.262247 
L 466.093929 444.821276 
L 468.178611 444.774029 
L 469.220953 444.569293 
L 470.263294 444.553544 
L 472.347976 444.049577 
L 473.390318 444.033828 
L 474.432659 442.915651 
L 475.475 442.663667 
L 476.517341 442.096704 
L 477.559682 442.065206 
L 478.602024 441.403749 
L 479.644365 441.08877 
L 480.686706 441.057272 
L 482.771389 440.569054 
L 483.81373 440.065086 
L 484.856071 440.01784 
L 485.898412 438.710675 
L 487.983095 438.584683 
L 490.067777 438.537436 
L 491.110118 437.277518 
L 492.15246 437.198773 
L 493.194801 436.7893 
L 495.279483 436.742053 
L 496.321824 436.190839 
L 497.364166 434.94667 
L 498.406507 434.726185 
L 499.448848 434.631691 
L 500.491189 433.891489 
L 501.533531 433.812744 
L 502.575872 433.466267 
L 509.87226 430.410966 
L 517.168649 428.489591 
L 524.465037 425.528784 
L 531.761426 423.103443 
L 539.057814 420.048142 
L 553.650592 413.559565 
L 560.94698 409.33884 
L 568.243369 407.496211 
L 582.836146 402.330547 
L 590.132534 399.039012 
L 597.428923 396.219946 
L 604.725311 393.873349 
L 612.0217 391.306266 
L 619.318088 388.34546 
L 626.614477 386.061858 
L 641.207254 381.368665 
L 648.503643 379.667776 
L 655.800031 376.754216 
L 663.09642 374.565108 
L 670.392808 371.068836 
L 677.689197 369.100215 
L 684.985585 365.635441 
L 699.578362 361.461963 
L 710.001775 358.89488 
L 714.171139 358.201925 
L 721.467528 355.855329 
L 728.763917 354.059946 
L 743.356694 350.799908 
L 750.653082 347.839101 
L 765.245859 343.71287 
L 772.542248 342.106475 
L 779.838636 340.248096 
L 779.838636 340.248096 
" style="fill:none;stroke:#ff7f0e;stroke-linecap:square;stroke-width:5;"/>
   </g>
   <g id="line2d_66">
    <path clip-path="url(#pc8a38b86a9)" d="M 171.111364 591.459963 
L 178.407752 590.877251 
L 185.704141 590.011057 
L 193.000529 588.971625 
L 200.296918 587.758954 
L 207.593306 586.388793 
L 214.889695 585.302114 
L 226.355448 583.207501 
L 233.651837 581.506612 
L 243.032908 579.884468 
L 245.11759 579.175764 
L 253.45632 577.805603 
L 254.498661 577.758356 
L 255.541002 577.459126 
L 257.625685 577.002406 
L 258.668026 576.78192 
L 259.710367 576.388196 
L 261.79505 576.136212 
L 268.049097 574.372327 
L 270.13378 574.120343 
L 272.218462 573.55338 
L 274.303144 573.112409 
L 276.387827 572.970668 
L 277.430168 572.687187 
L 278.472509 572.18322 
L 280.557192 571.616257 
L 284.726557 571.128039 
L 288.895922 570.293343 
L 290.980604 570.198849 
L 294.107628 569.442899 
L 298.276993 568.95468 
L 299.319334 568.65545 
L 302.446357 568.056989 
L 303.488699 567.757758 
L 305.573381 567.58452 
L 306.615722 567.285289 
L 308.700405 566.875816 
L 310.785087 566.387598 
L 312.86977 566.261606 
L 314.954452 565.820635 
L 317.039134 565.363915 
L 318.081476 565.206425 
L 320.166158 565.206425 
L 322.250841 564.639462 
L 332.674253 562.796832 
L 334.758935 562.592095 
L 336.843618 562.261367 
L 339.970641 561.59991 
L 345.182347 560.843959 
L 351.436395 559.946268 
L 353.521077 559.505297 
L 359.775125 558.544609 
L 361.859807 558.182383 
L 363.944489 558.07214 
L 366.029172 557.678416 
L 368.113854 557.379185 
L 369.156196 557.190198 
L 371.240878 557.127202 
L 376.452584 556.213761 
L 379.579608 556.072021 
L 383.748973 555.174329 
L 385.833655 555.095584 
L 387.918337 554.717609 
L 390.00302 554.166395 
L 391.045361 553.898662 
L 393.130044 553.804168 
L 396.257067 553.252954 
L 398.34175 552.953724 
L 400.426432 552.85923 
L 405.638138 551.914292 
L 407.722821 551.756802 
L 409.807503 551.252835 
L 410.849844 551.142592 
L 412.934527 550.591378 
L 415.019209 550.465386 
L 416.06155 550.181905 
L 418.146233 549.882674 
L 419.188574 549.614942 
L 421.273257 549.394456 
L 422.315598 549.378707 
L 425.442621 548.654254 
L 426.484963 548.622756 
L 437.950716 547.425834 
L 441.07774 546.606888 
L 442.120081 546.386402 
L 444.204763 546.181666 
L 446.289446 545.835188 
L 449.416469 545.252476 
L 450.458811 545.205229 
L 455.670517 544.480777 
L 456.712858 544.11855 
L 457.755199 544.11855 
L 458.79754 543.96106 
L 461.924564 543.20511 
L 462.966905 543.000373 
L 466.093929 542.764139 
L 469.220953 542.13418 
L 473.390318 541.882196 
L 475.475 541.299484 
L 478.602024 540.732521 
L 480.686706 540.701023 
L 481.729047 540.370295 
L 483.81373 540.039566 
L 485.898412 539.67734 
L 487.983095 539.614344 
L 489.025436 539.393858 
L 490.067777 538.984385 
L 494.237142 538.464669 
L 496.321824 538.196936 
L 499.448848 537.330743 
L 502.575872 537.000014 
L 509.87226 535.551109 
L 517.168649 534.574673 
L 524.465037 533.188763 
L 531.761426 531.991841 
L 560.94698 526.133223 
L 568.243369 524.999297 
L 576.582098 523.408651 
L 582.836146 522.747194 
L 590.132534 521.692013 
L 597.428923 520.117116 
L 604.725311 518.715457 
L 612.0217 517.550033 
L 619.318088 516.038132 
L 648.503643 510.982711 
L 663.09642 508.919596 
L 670.392808 507.691176 
L 677.689197 506.651744 
L 684.985585 505.423324 
L 692.281974 504.399641 
L 699.578362 503.171221 
L 710.001775 501.249846 
L 714.171139 500.714381 
L 721.467528 499.596204 
L 728.763917 498.226043 
L 750.653082 494.729771 
L 765.245859 492.493417 
L 772.542248 491.501232 
L 779.838636 490.871273 
L 779.838636 490.871273 
" style="fill:none;stroke:#2ca02c;stroke-linecap:square;stroke-width:5;"/>
   </g>
   <g id="patch_6">
    <path d="M 140.675 594.72 
L 140.675 327.665455 
" style="fill:none;stroke:#000000;stroke-linecap:square;stroke-linejoin:miter;stroke-width:0.8;"/>
   </g>
   <g id="patch_7">
    <path d="M 140.675 594.72 
L 810.275 594.72 
" style="fill:none;stroke:#000000;stroke-linecap:square;stroke-linejoin:miter;stroke-width:0.8;"/>
   </g>
   <g id="legend_1">
    <g id="patch_8">
     <path d="M 157.475 452.547955 
L 339.41 452.547955 
Q 344.21 452.547955 344.21 447.747955 
L 344.21 344.465455 
Q 344.21 339.665455 339.41 339.665455 
L 157.475 339.665455 
Q 152.675 339.665455 152.675 344.465455 
L 152.675 447.747955 
Q 152.675 452.547955 157.475 452.547955 
z
" style="fill:#ffffff;opacity:0.8;stroke:#cccccc;stroke-linejoin:miter;"/>
    </g>
    <g id="line2d_67">
     <path d="M 162.275 359.101705 
L 210.275 359.101705 
" style="fill:none;stroke:#1f77b4;stroke-linecap:square;stroke-width:5;"/>
    </g>
    <g id="line2d_68"/>
    <g id="text_23">
     <!-- arXiv -->
     <defs>
      <path d="M 6.296875 72.90625 
L 16.890625 72.90625 
L 35.015625 45.796875 
L 53.21875 72.90625 
L 63.8125 72.90625 
L 40.375 37.890625 
L 65.375 0 
L 54.78125 0 
L 34.28125 31 
L 13.625 0 
L 2.984375 0 
L 29 38.921875 
z
" id="DejaVuSans-88"/>
      <path d="M 2.984375 54.6875 
L 12.5 54.6875 
L 29.59375 8.796875 
L 46.6875 54.6875 
L 56.203125 54.6875 
L 35.6875 0 
L 23.484375 0 
z
" id="DejaVuSans-118"/>
     </defs>
     <g transform="translate(229.475 367.501705)scale(0.24 -0.24)">
      <use xlink:href="#DejaVuSans-97"/>
      <use x="61.279297" xlink:href="#DejaVuSans-114"/>
      <use x="102.392578" xlink:href="#DejaVuSans-88"/>
      <use x="170.898438" xlink:href="#DejaVuSans-105"/>
      <use x="198.681641" xlink:href="#DejaVuSans-118"/>
     </g>
    </g>
    <g id="line2d_69">
     <path d="M 162.275 394.329205 
L 210.275 394.329205 
" style="fill:none;stroke:#ff7f0e;stroke-linecap:square;stroke-width:5;"/>
    </g>
    <g id="line2d_70"/>
    <g id="text_24">
     <!-- medRxiv -->
     <defs>
      <path d="M 45.40625 46.390625 
L 45.40625 75.984375 
L 54.390625 75.984375 
L 54.390625 0 
L 45.40625 0 
L 45.40625 8.203125 
Q 42.578125 3.328125 38.25 0.953125 
Q 33.9375 -1.421875 27.875 -1.421875 
Q 17.96875 -1.421875 11.734375 6.484375 
Q 5.515625 14.40625 5.515625 27.296875 
Q 5.515625 40.1875 11.734375 48.09375 
Q 17.96875 56 27.875 56 
Q 33.9375 56 38.25 53.625 
Q 42.578125 51.265625 45.40625 46.390625 
z
M 14.796875 27.296875 
Q 14.796875 17.390625 18.875 11.75 
Q 22.953125 6.109375 30.078125 6.109375 
Q 37.203125 6.109375 41.296875 11.75 
Q 45.40625 17.390625 45.40625 27.296875 
Q 45.40625 37.203125 41.296875 42.84375 
Q 37.203125 48.484375 30.078125 48.484375 
Q 22.953125 48.484375 18.875 42.84375 
Q 14.796875 37.203125 14.796875 27.296875 
z
" id="DejaVuSans-100"/>
      <path d="M 44.390625 34.1875 
Q 47.5625 33.109375 50.5625 29.59375 
Q 53.5625 26.078125 56.59375 19.921875 
L 66.609375 0 
L 56 0 
L 46.6875 18.703125 
Q 43.0625 26.03125 39.671875 28.421875 
Q 36.28125 30.8125 30.421875 30.8125 
L 19.671875 30.8125 
L 19.671875 0 
L 9.8125 0 
L 9.8125 72.90625 
L 32.078125 72.90625 
Q 44.578125 72.90625 50.734375 67.671875 
Q 56.890625 62.453125 56.890625 51.90625 
Q 56.890625 45.015625 53.6875 40.46875 
Q 50.484375 35.9375 44.390625 34.1875 
z
M 19.671875 64.796875 
L 19.671875 38.921875 
L 32.078125 38.921875 
Q 39.203125 38.921875 42.84375 42.21875 
Q 46.484375 45.515625 46.484375 51.90625 
Q 46.484375 58.296875 42.84375 61.546875 
Q 39.203125 64.796875 32.078125 64.796875 
z
" id="DejaVuSans-82"/>
      <path d="M 54.890625 54.6875 
L 35.109375 28.078125 
L 55.90625 0 
L 45.3125 0 
L 29.390625 21.484375 
L 13.484375 0 
L 2.875 0 
L 24.125 28.609375 
L 4.6875 54.6875 
L 15.28125 54.6875 
L 29.78125 35.203125 
L 44.28125 54.6875 
z
" id="DejaVuSans-120"/>
     </defs>
     <g transform="translate(229.475 402.729205)scale(0.24 -0.24)">
      <use xlink:href="#DejaVuSans-109"/>
      <use x="97.412109" xlink:href="#DejaVuSans-101"/>
      <use x="158.935547" xlink:href="#DejaVuSans-100"/>
      <use x="222.412109" xlink:href="#DejaVuSans-82"/>
      <use x="291.894531" xlink:href="#DejaVuSans-120"/>
      <use x="351.074219" xlink:href="#DejaVuSans-105"/>
      <use x="378.857422" xlink:href="#DejaVuSans-118"/>
     </g>
    </g>
    <g id="line2d_71">
     <path d="M 162.275 429.556705 
L 210.275 429.556705 
" style="fill:none;stroke:#2ca02c;stroke-linecap:square;stroke-width:5;"/>
    </g>
    <g id="line2d_72"/>
    <g id="text_25">
     <!-- bioRxiv -->
     <defs>
      <path d="M 48.6875 27.296875 
Q 48.6875 37.203125 44.609375 42.84375 
Q 40.53125 48.484375 33.40625 48.484375 
Q 26.265625 48.484375 22.1875 42.84375 
Q 18.109375 37.203125 18.109375 27.296875 
Q 18.109375 17.390625 22.1875 11.75 
Q 26.265625 6.109375 33.40625 6.109375 
Q 40.53125 6.109375 44.609375 11.75 
Q 48.6875 17.390625 48.6875 27.296875 
z
M 18.109375 46.390625 
Q 20.953125 51.265625 25.265625 53.625 
Q 29.59375 56 35.59375 56 
Q 45.5625 56 51.78125 48.09375 
Q 58.015625 40.1875 58.015625 27.296875 
Q 58.015625 14.40625 51.78125 6.484375 
Q 45.5625 -1.421875 35.59375 -1.421875 
Q 29.59375 -1.421875 25.265625 0.953125 
Q 20.953125 3.328125 18.109375 8.203125 
L 18.109375 0 
L 9.078125 0 
L 9.078125 75.984375 
L 18.109375 75.984375 
z
" id="DejaVuSans-98"/>
     </defs>
     <g transform="translate(229.475 437.956705)scale(0.24 -0.24)">
      <use xlink:href="#DejaVuSans-98"/>
      <use x="63.476562" xlink:href="#DejaVuSans-105"/>
      <use x="91.259766" xlink:href="#DejaVuSans-111"/>
      <use x="152.441406" xlink:href="#DejaVuSans-82"/>
      <use x="221.923828" xlink:href="#DejaVuSans-120"/>
      <use x="281.103516" xlink:href="#DejaVuSans-105"/>
      <use x="308.886719" xlink:href="#DejaVuSans-118"/>
     </g>
    </g>
   </g>
  </g>
 </g>
 <defs>
  <clipPath id="p26aa8e9d62">
   <rect height="267.054545" width="669.6" x="140.675" y="7.2"/>
  </clipPath>
  <clipPath id="pc8a38b86a9">
   <rect height="267.054545" width="669.6" x="140.675" y="327.665455"/>
  </clipPath>
 </defs>
</svg>
