<?xml version="1.0" encoding="utf-8" standalone="no"?>
<!DOCTYPE svg PUBLIC "-//W3C//DTD SVG 1.1//EN"
  "http://www.w3.org/Graphics/SVG/1.1/DTD/svg11.dtd">
<!-- Created with matplotlib (https://matplotlib.org/) -->
<svg height="679.17498pt" version="1.1" viewBox="0 0 817.475 679.17498" width="817.475pt" xmlns="http://www.w3.org/2000/svg" xmlns:xlink="http://www.w3.org/1999/xlink">
 <defs>
  <style type="text/css">
*{stroke-linecap:butt;stroke-linejoin:round;}
  </style>
 </defs>
 <g id="figure_1">
  <g id="patch_1">
   <path d="M 0 679.17498 
L 817.475 679.17498 
L 817.475 0 
L 0 0 
z
" style="fill:#ffffff;"/>
  </g>
  <g id="axes_1">
   <g id="patch_2">
    <path d="M 140.675 274.254545 
L 810.275 274.254545 
L 810.275 7.2 
L 140.675 7.2 
z
" style="fill:#ffffff;"/>
   </g>
   <g id="matplotlib.axis_1">
    <g id="xtick_1">
     <g id="line2d_1">
      <path clip-path="url(#p5a0baefb18)" d="M 181.270929 274.254545 
L 181.270929 7.2 
" style="fill:none;stroke:#d3d3d3;stroke-linecap:square;stroke-width:0.8;"/>
     </g>
     <g id="line2d_2">
      <defs>
       <path d="M 0 0 
L 0 3.5 
" id="m3ec13fb09a" style="stroke:#000000;stroke-width:0.8;"/>
      </defs>
      <g>
       <use style="stroke:#000000;stroke-width:0.8;" x="181.270929" xlink:href="#m3ec13fb09a" y="274.254545"/>
      </g>
     </g>
    </g>
    <g id="xtick_2">
     <g id="line2d_3">
      <path clip-path="url(#p5a0baefb18)" d="M 258.314297 274.254545 
L 258.314297 7.2 
" style="fill:none;stroke:#d3d3d3;stroke-linecap:square;stroke-width:0.8;"/>
     </g>
     <g id="line2d_4">
      <g>
       <use style="stroke:#000000;stroke-width:0.8;" x="258.314297" xlink:href="#m3ec13fb09a" y="274.254545"/>
      </g>
     </g>
    </g>
    <g id="xtick_3">
     <g id="line2d_5">
      <path clip-path="url(#p5a0baefb18)" d="M 336.204296 274.254545 
L 336.204296 7.2 
" style="fill:none;stroke:#d3d3d3;stroke-linecap:square;stroke-width:0.8;"/>
     </g>
     <g id="line2d_6">
      <g>
       <use style="stroke:#000000;stroke-width:0.8;" x="336.204296" xlink:href="#m3ec13fb09a" y="274.254545"/>
      </g>
     </g>
    </g>
    <g id="xtick_4">
     <g id="line2d_7">
      <path clip-path="url(#p5a0baefb18)" d="M 414.094294 274.254545 
L 414.094294 7.2 
" style="fill:none;stroke:#d3d3d3;stroke-linecap:square;stroke-width:0.8;"/>
     </g>
     <g id="line2d_8">
      <g>
       <use style="stroke:#000000;stroke-width:0.8;" x="414.094294" xlink:href="#m3ec13fb09a" y="274.254545"/>
      </g>
     </g>
    </g>
    <g id="xtick_5">
     <g id="line2d_9">
      <path clip-path="url(#p5a0baefb18)" d="M 490.291032 274.254545 
L 490.291032 7.2 
" style="fill:none;stroke:#d3d3d3;stroke-linecap:square;stroke-width:0.8;"/>
     </g>
     <g id="line2d_10">
      <g>
       <use style="stroke:#000000;stroke-width:0.8;" x="490.291032" xlink:href="#m3ec13fb09a" y="274.254545"/>
      </g>
     </g>
    </g>
    <g id="xtick_6">
     <g id="line2d_11">
      <path clip-path="url(#p5a0baefb18)" d="M 567.334401 274.254545 
L 567.334401 7.2 
" style="fill:none;stroke:#d3d3d3;stroke-linecap:square;stroke-width:0.8;"/>
     </g>
     <g id="line2d_12">
      <g>
       <use style="stroke:#000000;stroke-width:0.8;" x="567.334401" xlink:href="#m3ec13fb09a" y="274.254545"/>
      </g>
     </g>
    </g>
    <g id="xtick_7">
     <g id="line2d_13">
      <path clip-path="url(#p5a0baefb18)" d="M 645.224399 274.254545 
L 645.224399 7.2 
" style="fill:none;stroke:#d3d3d3;stroke-linecap:square;stroke-width:0.8;"/>
     </g>
     <g id="line2d_14">
      <g>
       <use style="stroke:#000000;stroke-width:0.8;" x="645.224399" xlink:href="#m3ec13fb09a" y="274.254545"/>
      </g>
     </g>
    </g>
    <g id="xtick_8">
     <g id="line2d_15">
      <path clip-path="url(#p5a0baefb18)" d="M 723.114398 274.254545 
L 723.114398 7.2 
" style="fill:none;stroke:#d3d3d3;stroke-linecap:square;stroke-width:0.8;"/>
     </g>
     <g id="line2d_16">
      <g>
       <use style="stroke:#000000;stroke-width:0.8;" x="723.114398" xlink:href="#m3ec13fb09a" y="274.254545"/>
      </g>
     </g>
    </g>
    <g id="xtick_9">
     <g id="line2d_17">
      <path clip-path="url(#p5a0baefb18)" d="M 799.311136 274.254545 
L 799.311136 7.2 
" style="fill:none;stroke:#d3d3d3;stroke-linecap:square;stroke-width:0.8;"/>
     </g>
     <g id="line2d_18">
      <g>
       <use style="stroke:#000000;stroke-width:0.8;" x="799.311136" xlink:href="#m3ec13fb09a" y="274.254545"/>
      </g>
     </g>
    </g>
   </g>
   <g id="matplotlib.axis_2">
    <g id="ytick_1">
     <g id="line2d_19">
      <path clip-path="url(#p5a0baefb18)" d="M 140.675 274.254545 
L 810.275 274.254545 
" style="fill:none;stroke:#d3d3d3;stroke-linecap:square;stroke-width:0.8;"/>
     </g>
     <g id="line2d_20">
      <defs>
       <path d="M 0 0 
L -3.5 0 
" id="m8a7e629615" style="stroke:#000000;stroke-width:0.8;"/>
      </defs>
      <g>
       <use style="stroke:#000000;stroke-width:0.8;" x="140.675" xlink:href="#m8a7e629615" y="274.254545"/>
      </g>
     </g>
     <g id="text_1">
      <!-- 0 -->
      <defs>
       <path d="M 31.78125 66.40625 
Q 24.171875 66.40625 20.328125 58.90625 
Q 16.5 51.421875 16.5 36.375 
Q 16.5 21.390625 20.328125 13.890625 
Q 24.171875 6.390625 31.78125 6.390625 
Q 39.453125 6.390625 43.28125 13.890625 
Q 47.125 21.390625 47.125 36.375 
Q 47.125 51.421875 43.28125 58.90625 
Q 39.453125 66.40625 31.78125 66.40625 
z
M 31.78125 74.21875 
Q 44.046875 74.21875 50.515625 64.515625 
Q 56.984375 54.828125 56.984375 36.375 
Q 56.984375 17.96875 50.515625 8.265625 
Q 44.046875 -1.421875 31.78125 -1.421875 
Q 19.53125 -1.421875 13.0625 8.265625 
Q 6.59375 17.96875 6.59375 36.375 
Q 6.59375 54.828125 13.0625 64.515625 
Q 19.53125 74.21875 31.78125 74.21875 
z
" id="DejaVuSans-48"/>
      </defs>
      <g transform="translate(118.405 283.37267)scale(0.24 -0.24)">
       <use xlink:href="#DejaVuSans-48"/>
      </g>
     </g>
    </g>
    <g id="ytick_2">
     <g id="line2d_21">
      <path clip-path="url(#p5a0baefb18)" d="M 140.675 220.265604 
L 810.275 220.265604 
" style="fill:none;stroke:#d3d3d3;stroke-linecap:square;stroke-width:0.8;"/>
     </g>
     <g id="line2d_22">
      <g>
       <use style="stroke:#000000;stroke-width:0.8;" x="140.675" xlink:href="#m8a7e629615" y="220.265604"/>
      </g>
     </g>
     <g id="text_2">
      <!-- 200,000 -->
      <defs>
       <path d="M 19.1875 8.296875 
L 53.609375 8.296875 
L 53.609375 0 
L 7.328125 0 
L 7.328125 8.296875 
Q 12.9375 14.109375 22.625 23.890625 
Q 32.328125 33.6875 34.8125 36.53125 
Q 39.546875 41.84375 41.421875 45.53125 
Q 43.3125 49.21875 43.3125 52.78125 
Q 43.3125 58.59375 39.234375 62.25 
Q 35.15625 65.921875 28.609375 65.921875 
Q 23.96875 65.921875 18.8125 64.3125 
Q 13.671875 62.703125 7.8125 59.421875 
L 7.8125 69.390625 
Q 13.765625 71.78125 18.9375 73 
Q 24.125 74.21875 28.421875 74.21875 
Q 39.75 74.21875 46.484375 68.546875 
Q 53.21875 62.890625 53.21875 53.421875 
Q 53.21875 48.921875 51.53125 44.890625 
Q 49.859375 40.875 45.40625 35.40625 
Q 44.1875 33.984375 37.640625 27.21875 
Q 31.109375 20.453125 19.1875 8.296875 
z
" id="DejaVuSans-50"/>
       <path d="M 11.71875 12.40625 
L 22.015625 12.40625 
L 22.015625 4 
L 14.015625 -11.625 
L 7.71875 -11.625 
L 11.71875 4 
z
" id="DejaVuSans-44"/>
      </defs>
      <g transform="translate(34.4275 229.383729)scale(0.24 -0.24)">
       <use xlink:href="#DejaVuSans-50"/>
       <use x="63.623047" xlink:href="#DejaVuSans-48"/>
       <use x="127.246094" xlink:href="#DejaVuSans-48"/>
       <use x="190.869141" xlink:href="#DejaVuSans-44"/>
       <use x="222.65625" xlink:href="#DejaVuSans-48"/>
       <use x="286.279297" xlink:href="#DejaVuSans-48"/>
       <use x="349.902344" xlink:href="#DejaVuSans-48"/>
      </g>
     </g>
    </g>
    <g id="ytick_3">
     <g id="line2d_23">
      <path clip-path="url(#p5a0baefb18)" d="M 140.675 166.276662 
L 810.275 166.276662 
" style="fill:none;stroke:#d3d3d3;stroke-linecap:square;stroke-width:0.8;"/>
     </g>
     <g id="line2d_24">
      <g>
       <use style="stroke:#000000;stroke-width:0.8;" x="140.675" xlink:href="#m8a7e629615" y="166.276662"/>
      </g>
     </g>
     <g id="text_3">
      <!-- 400,000 -->
      <defs>
       <path d="M 37.796875 64.3125 
L 12.890625 25.390625 
L 37.796875 25.390625 
z
M 35.203125 72.90625 
L 47.609375 72.90625 
L 47.609375 25.390625 
L 58.015625 25.390625 
L 58.015625 17.1875 
L 47.609375 17.1875 
L 47.609375 0 
L 37.796875 0 
L 37.796875 17.1875 
L 4.890625 17.1875 
L 4.890625 26.703125 
z
" id="DejaVuSans-52"/>
      </defs>
      <g transform="translate(34.4275 175.394787)scale(0.24 -0.24)">
       <use xlink:href="#DejaVuSans-52"/>
       <use x="63.623047" xlink:href="#DejaVuSans-48"/>
       <use x="127.246094" xlink:href="#DejaVuSans-48"/>
       <use x="190.869141" xlink:href="#DejaVuSans-44"/>
       <use x="222.65625" xlink:href="#DejaVuSans-48"/>
       <use x="286.279297" xlink:href="#DejaVuSans-48"/>
       <use x="349.902344" xlink:href="#DejaVuSans-48"/>
      </g>
     </g>
    </g>
    <g id="ytick_4">
     <g id="line2d_25">
      <path clip-path="url(#p5a0baefb18)" d="M 140.675 112.28772 
L 810.275 112.28772 
" style="fill:none;stroke:#d3d3d3;stroke-linecap:square;stroke-width:0.8;"/>
     </g>
     <g id="line2d_26">
      <g>
       <use style="stroke:#000000;stroke-width:0.8;" x="140.675" xlink:href="#m8a7e629615" y="112.28772"/>
      </g>
     </g>
     <g id="text_4">
      <!-- 600,000 -->
      <defs>
       <path d="M 33.015625 40.375 
Q 26.375 40.375 22.484375 35.828125 
Q 18.609375 31.296875 18.609375 23.390625 
Q 18.609375 15.53125 22.484375 10.953125 
Q 26.375 6.390625 33.015625 6.390625 
Q 39.65625 6.390625 43.53125 10.953125 
Q 47.40625 15.53125 47.40625 23.390625 
Q 47.40625 31.296875 43.53125 35.828125 
Q 39.65625 40.375 33.015625 40.375 
z
M 52.59375 71.296875 
L 52.59375 62.3125 
Q 48.875 64.0625 45.09375 64.984375 
Q 41.3125 65.921875 37.59375 65.921875 
Q 27.828125 65.921875 22.671875 59.328125 
Q 17.53125 52.734375 16.796875 39.40625 
Q 19.671875 43.65625 24.015625 45.921875 
Q 28.375 48.1875 33.59375 48.1875 
Q 44.578125 48.1875 50.953125 41.515625 
Q 57.328125 34.859375 57.328125 23.390625 
Q 57.328125 12.15625 50.6875 5.359375 
Q 44.046875 -1.421875 33.015625 -1.421875 
Q 20.359375 -1.421875 13.671875 8.265625 
Q 6.984375 17.96875 6.984375 36.375 
Q 6.984375 53.65625 15.1875 63.9375 
Q 23.390625 74.21875 37.203125 74.21875 
Q 40.921875 74.21875 44.703125 73.484375 
Q 48.484375 72.75 52.59375 71.296875 
z
" id="DejaVuSans-54"/>
      </defs>
      <g transform="translate(34.4275 121.405845)scale(0.24 -0.24)">
       <use xlink:href="#DejaVuSans-54"/>
       <use x="63.623047" xlink:href="#DejaVuSans-48"/>
       <use x="127.246094" xlink:href="#DejaVuSans-48"/>
       <use x="190.869141" xlink:href="#DejaVuSans-44"/>
       <use x="222.65625" xlink:href="#DejaVuSans-48"/>
       <use x="286.279297" xlink:href="#DejaVuSans-48"/>
       <use x="349.902344" xlink:href="#DejaVuSans-48"/>
      </g>
     </g>
    </g>
    <g id="ytick_5">
     <g id="line2d_27">
      <path clip-path="url(#p5a0baefb18)" d="M 140.675 58.298779 
L 810.275 58.298779 
" style="fill:none;stroke:#d3d3d3;stroke-linecap:square;stroke-width:0.8;"/>
     </g>
     <g id="line2d_28">
      <g>
       <use style="stroke:#000000;stroke-width:0.8;" x="140.675" xlink:href="#m8a7e629615" y="58.298779"/>
      </g>
     </g>
     <g id="text_5">
      <!-- 800,000 -->
      <defs>
       <path d="M 31.78125 34.625 
Q 24.75 34.625 20.71875 30.859375 
Q 16.703125 27.09375 16.703125 20.515625 
Q 16.703125 13.921875 20.71875 10.15625 
Q 24.75 6.390625 31.78125 6.390625 
Q 38.8125 6.390625 42.859375 10.171875 
Q 46.921875 13.96875 46.921875 20.515625 
Q 46.921875 27.09375 42.890625 30.859375 
Q 38.875 34.625 31.78125 34.625 
z
M 21.921875 38.8125 
Q 15.578125 40.375 12.03125 44.71875 
Q 8.5 49.078125 8.5 55.328125 
Q 8.5 64.0625 14.71875 69.140625 
Q 20.953125 74.21875 31.78125 74.21875 
Q 42.671875 74.21875 48.875 69.140625 
Q 55.078125 64.0625 55.078125 55.328125 
Q 55.078125 49.078125 51.53125 44.71875 
Q 48 40.375 41.703125 38.8125 
Q 48.828125 37.15625 52.796875 32.3125 
Q 56.78125 27.484375 56.78125 20.515625 
Q 56.78125 9.90625 50.3125 4.234375 
Q 43.84375 -1.421875 31.78125 -1.421875 
Q 19.734375 -1.421875 13.25 4.234375 
Q 6.78125 9.90625 6.78125 20.515625 
Q 6.78125 27.484375 10.78125 32.3125 
Q 14.796875 37.15625 21.921875 38.8125 
z
M 18.3125 54.390625 
Q 18.3125 48.734375 21.84375 45.5625 
Q 25.390625 42.390625 31.78125 42.390625 
Q 38.140625 42.390625 41.71875 45.5625 
Q 45.3125 48.734375 45.3125 54.390625 
Q 45.3125 60.0625 41.71875 63.234375 
Q 38.140625 66.40625 31.78125 66.40625 
Q 25.390625 66.40625 21.84375 63.234375 
Q 18.3125 60.0625 18.3125 54.390625 
z
" id="DejaVuSans-56"/>
      </defs>
      <g transform="translate(34.4275 67.416904)scale(0.24 -0.24)">
       <use xlink:href="#DejaVuSans-56"/>
       <use x="63.623047" xlink:href="#DejaVuSans-48"/>
       <use x="127.246094" xlink:href="#DejaVuSans-48"/>
       <use x="190.869141" xlink:href="#DejaVuSans-44"/>
       <use x="222.65625" xlink:href="#DejaVuSans-48"/>
       <use x="286.279297" xlink:href="#DejaVuSans-48"/>
       <use x="349.902344" xlink:href="#DejaVuSans-48"/>
      </g>
     </g>
    </g>
    <g id="text_6">
     <!-- Total manuscripts -->
     <defs>
      <path d="M -0.296875 72.90625 
L 61.375 72.90625 
L 61.375 64.59375 
L 35.5 64.59375 
L 35.5 0 
L 25.59375 0 
L 25.59375 64.59375 
L -0.296875 64.59375 
z
" id="DejaVuSans-84"/>
      <path d="M 30.609375 48.390625 
Q 23.390625 48.390625 19.1875 42.75 
Q 14.984375 37.109375 14.984375 27.296875 
Q 14.984375 17.484375 19.15625 11.84375 
Q 23.34375 6.203125 30.609375 6.203125 
Q 37.796875 6.203125 41.984375 11.859375 
Q 46.1875 17.53125 46.1875 27.296875 
Q 46.1875 37.015625 41.984375 42.703125 
Q 37.796875 48.390625 30.609375 48.390625 
z
M 30.609375 56 
Q 42.328125 56 49.015625 48.375 
Q 55.71875 40.765625 55.71875 27.296875 
Q 55.71875 13.875 49.015625 6.21875 
Q 42.328125 -1.421875 30.609375 -1.421875 
Q 18.84375 -1.421875 12.171875 6.21875 
Q 5.515625 13.875 5.515625 27.296875 
Q 5.515625 40.765625 12.171875 48.375 
Q 18.84375 56 30.609375 56 
z
" id="DejaVuSans-111"/>
      <path d="M 18.3125 70.21875 
L 18.3125 54.6875 
L 36.8125 54.6875 
L 36.8125 47.703125 
L 18.3125 47.703125 
L 18.3125 18.015625 
Q 18.3125 11.328125 20.140625 9.421875 
Q 21.96875 7.515625 27.59375 7.515625 
L 36.8125 7.515625 
L 36.8125 0 
L 27.59375 0 
Q 17.1875 0 13.234375 3.875 
Q 9.28125 7.765625 9.28125 18.015625 
L 9.28125 47.703125 
L 2.6875 47.703125 
L 2.6875 54.6875 
L 9.28125 54.6875 
L 9.28125 70.21875 
z
" id="DejaVuSans-116"/>
      <path d="M 34.28125 27.484375 
Q 23.390625 27.484375 19.1875 25 
Q 14.984375 22.515625 14.984375 16.5 
Q 14.984375 11.71875 18.140625 8.90625 
Q 21.296875 6.109375 26.703125 6.109375 
Q 34.1875 6.109375 38.703125 11.40625 
Q 43.21875 16.703125 43.21875 25.484375 
L 43.21875 27.484375 
z
M 52.203125 31.203125 
L 52.203125 0 
L 43.21875 0 
L 43.21875 8.296875 
Q 40.140625 3.328125 35.546875 0.953125 
Q 30.953125 -1.421875 24.3125 -1.421875 
Q 15.921875 -1.421875 10.953125 3.296875 
Q 6 8.015625 6 15.921875 
Q 6 25.140625 12.171875 29.828125 
Q 18.359375 34.515625 30.609375 34.515625 
L 43.21875 34.515625 
L 43.21875 35.40625 
Q 43.21875 41.609375 39.140625 45 
Q 35.0625 48.390625 27.6875 48.390625 
Q 23 48.390625 18.546875 47.265625 
Q 14.109375 46.140625 10.015625 43.890625 
L 10.015625 52.203125 
Q 14.9375 54.109375 19.578125 55.046875 
Q 24.21875 56 28.609375 56 
Q 40.484375 56 46.34375 49.84375 
Q 52.203125 43.703125 52.203125 31.203125 
z
" id="DejaVuSans-97"/>
      <path d="M 9.421875 75.984375 
L 18.40625 75.984375 
L 18.40625 0 
L 9.421875 0 
z
" id="DejaVuSans-108"/>
      <path id="DejaVuSans-32"/>
      <path d="M 52 44.1875 
Q 55.375 50.25 60.0625 53.125 
Q 64.75 56 71.09375 56 
Q 79.640625 56 84.28125 50.015625 
Q 88.921875 44.046875 88.921875 33.015625 
L 88.921875 0 
L 79.890625 0 
L 79.890625 32.71875 
Q 79.890625 40.578125 77.09375 44.375 
Q 74.3125 48.1875 68.609375 48.1875 
Q 61.625 48.1875 57.5625 43.546875 
Q 53.515625 38.921875 53.515625 30.90625 
L 53.515625 0 
L 44.484375 0 
L 44.484375 32.71875 
Q 44.484375 40.625 41.703125 44.40625 
Q 38.921875 48.1875 33.109375 48.1875 
Q 26.21875 48.1875 22.15625 43.53125 
Q 18.109375 38.875 18.109375 30.90625 
L 18.109375 0 
L 9.078125 0 
L 9.078125 54.6875 
L 18.109375 54.6875 
L 18.109375 46.1875 
Q 21.1875 51.21875 25.484375 53.609375 
Q 29.78125 56 35.6875 56 
Q 41.65625 56 45.828125 52.96875 
Q 50 49.953125 52 44.1875 
z
" id="DejaVuSans-109"/>
      <path d="M 54.890625 33.015625 
L 54.890625 0 
L 45.90625 0 
L 45.90625 32.71875 
Q 45.90625 40.484375 42.875 44.328125 
Q 39.84375 48.1875 33.796875 48.1875 
Q 26.515625 48.1875 22.3125 43.546875 
Q 18.109375 38.921875 18.109375 30.90625 
L 18.109375 0 
L 9.078125 0 
L 9.078125 54.6875 
L 18.109375 54.6875 
L 18.109375 46.1875 
Q 21.34375 51.125 25.703125 53.5625 
Q 30.078125 56 35.796875 56 
Q 45.21875 56 50.046875 50.171875 
Q 54.890625 44.34375 54.890625 33.015625 
z
" id="DejaVuSans-110"/>
      <path d="M 8.5 21.578125 
L 8.5 54.6875 
L 17.484375 54.6875 
L 17.484375 21.921875 
Q 17.484375 14.15625 20.5 10.265625 
Q 23.53125 6.390625 29.59375 6.390625 
Q 36.859375 6.390625 41.078125 11.03125 
Q 45.3125 15.671875 45.3125 23.6875 
L 45.3125 54.6875 
L 54.296875 54.6875 
L 54.296875 0 
L 45.3125 0 
L 45.3125 8.40625 
Q 42.046875 3.421875 37.71875 1 
Q 33.40625 -1.421875 27.6875 -1.421875 
Q 18.265625 -1.421875 13.375 4.4375 
Q 8.5 10.296875 8.5 21.578125 
z
M 31.109375 56 
z
" id="DejaVuSans-117"/>
      <path d="M 44.28125 53.078125 
L 44.28125 44.578125 
Q 40.484375 46.53125 36.375 47.5 
Q 32.28125 48.484375 27.875 48.484375 
Q 21.1875 48.484375 17.84375 46.4375 
Q 14.5 44.390625 14.5 40.28125 
Q 14.5 37.15625 16.890625 35.375 
Q 19.28125 33.59375 26.515625 31.984375 
L 29.59375 31.296875 
Q 39.15625 29.25 43.1875 25.515625 
Q 47.21875 21.78125 47.21875 15.09375 
Q 47.21875 7.46875 41.1875 3.015625 
Q 35.15625 -1.421875 24.609375 -1.421875 
Q 20.21875 -1.421875 15.453125 -0.5625 
Q 10.6875 0.296875 5.421875 2 
L 5.421875 11.28125 
Q 10.40625 8.6875 15.234375 7.390625 
Q 20.0625 6.109375 24.8125 6.109375 
Q 31.15625 6.109375 34.5625 8.28125 
Q 37.984375 10.453125 37.984375 14.40625 
Q 37.984375 18.0625 35.515625 20.015625 
Q 33.0625 21.96875 24.703125 23.78125 
L 21.578125 24.515625 
Q 13.234375 26.265625 9.515625 29.90625 
Q 5.8125 33.546875 5.8125 39.890625 
Q 5.8125 47.609375 11.28125 51.796875 
Q 16.75 56 26.8125 56 
Q 31.78125 56 36.171875 55.265625 
Q 40.578125 54.546875 44.28125 53.078125 
z
" id="DejaVuSans-115"/>
      <path d="M 48.78125 52.59375 
L 48.78125 44.1875 
Q 44.96875 46.296875 41.140625 47.34375 
Q 37.3125 48.390625 33.40625 48.390625 
Q 24.65625 48.390625 19.8125 42.84375 
Q 14.984375 37.3125 14.984375 27.296875 
Q 14.984375 17.28125 19.8125 11.734375 
Q 24.65625 6.203125 33.40625 6.203125 
Q 37.3125 6.203125 41.140625 7.25 
Q 44.96875 8.296875 48.78125 10.40625 
L 48.78125 2.09375 
Q 45.015625 0.34375 40.984375 -0.53125 
Q 36.96875 -1.421875 32.421875 -1.421875 
Q 20.0625 -1.421875 12.78125 6.34375 
Q 5.515625 14.109375 5.515625 27.296875 
Q 5.515625 40.671875 12.859375 48.328125 
Q 20.21875 56 33.015625 56 
Q 37.15625 56 41.109375 55.140625 
Q 45.0625 54.296875 48.78125 52.59375 
z
" id="DejaVuSans-99"/>
      <path d="M 41.109375 46.296875 
Q 39.59375 47.171875 37.8125 47.578125 
Q 36.03125 48 33.890625 48 
Q 26.265625 48 22.1875 43.046875 
Q 18.109375 38.09375 18.109375 28.8125 
L 18.109375 0 
L 9.078125 0 
L 9.078125 54.6875 
L 18.109375 54.6875 
L 18.109375 46.1875 
Q 20.953125 51.171875 25.484375 53.578125 
Q 30.03125 56 36.53125 56 
Q 37.453125 56 38.578125 55.875 
Q 39.703125 55.765625 41.0625 55.515625 
z
" id="DejaVuSans-114"/>
      <path d="M 9.421875 54.6875 
L 18.40625 54.6875 
L 18.40625 0 
L 9.421875 0 
z
M 9.421875 75.984375 
L 18.40625 75.984375 
L 18.40625 64.59375 
L 9.421875 64.59375 
z
" id="DejaVuSans-105"/>
      <path d="M 18.109375 8.203125 
L 18.109375 -20.796875 
L 9.078125 -20.796875 
L 9.078125 54.6875 
L 18.109375 54.6875 
L 18.109375 46.390625 
Q 20.953125 51.265625 25.265625 53.625 
Q 29.59375 56 35.59375 56 
Q 45.5625 56 51.78125 48.09375 
Q 58.015625 40.1875 58.015625 27.296875 
Q 58.015625 14.40625 51.78125 6.484375 
Q 45.5625 -1.421875 35.59375 -1.421875 
Q 29.59375 -1.421875 25.265625 0.953125 
Q 20.953125 3.328125 18.109375 8.203125 
z
M 48.6875 27.296875 
Q 48.6875 37.203125 44.609375 42.84375 
Q 40.53125 48.484375 33.40625 48.484375 
Q 26.265625 48.484375 22.1875 42.84375 
Q 18.109375 37.203125 18.109375 27.296875 
Q 18.109375 17.390625 22.1875 11.75 
Q 26.265625 6.109375 33.40625 6.109375 
Q 40.53125 6.109375 44.609375 11.75 
Q 48.6875 17.390625 48.6875 27.296875 
z
" id="DejaVuSans-112"/>
     </defs>
     <g transform="translate(25.43625 248.515398)rotate(-90)scale(0.24 -0.24)">
      <use xlink:href="#DejaVuSans-84"/>
      <use x="60.818359" xlink:href="#DejaVuSans-111"/>
      <use x="122" xlink:href="#DejaVuSans-116"/>
      <use x="161.208984" xlink:href="#DejaVuSans-97"/>
      <use x="222.488281" xlink:href="#DejaVuSans-108"/>
      <use x="250.271484" xlink:href="#DejaVuSans-32"/>
      <use x="282.058594" xlink:href="#DejaVuSans-109"/>
      <use x="379.470703" xlink:href="#DejaVuSans-97"/>
      <use x="440.75" xlink:href="#DejaVuSans-110"/>
      <use x="504.128906" xlink:href="#DejaVuSans-117"/>
      <use x="567.507812" xlink:href="#DejaVuSans-115"/>
      <use x="619.607422" xlink:href="#DejaVuSans-99"/>
      <use x="674.587891" xlink:href="#DejaVuSans-114"/>
      <use x="715.701172" xlink:href="#DejaVuSans-105"/>
      <use x="743.484375" xlink:href="#DejaVuSans-112"/>
      <use x="806.960938" xlink:href="#DejaVuSans-116"/>
      <use x="846.169922" xlink:href="#DejaVuSans-115"/>
     </g>
    </g>
   </g>
   <g id="line2d_29">
    <path clip-path="url(#p5a0baefb18)" d="M 171.111364 262.31759 
L 182.96419 261.486701 
L 188.890602 260.46631 
L 194.817015 260.109983 
L 200.743428 258.768897 
L 215.982776 257.09389 
L 221.909189 239.56881 
L 227.835602 238.026346 
L 228.682232 237.523979 
L 230.375493 236.78433 
L 231.222124 236.715764 
L 232.915384 236.318676 
L 233.762015 236.162918 
L 234.608645 237.771788 
L 236.301906 237.51993 
L 237.995167 237.384687 
L 238.841797 237.161173 
L 240.535058 236.518435 
L 241.381689 236.327584 
L 242.228319 236.251729 
L 244.76821 235.678097 
L 245.614841 234.700897 
L 246.461471 231.766868 
L 250.694623 231.347644 
L 251.541254 230.967292 
L 252.387884 231.041257 
L 253.234514 230.641199 
L 254.081145 230.106708 
L 254.927775 230.028154 
L 255.774406 229.046905 
L 256.621036 228.951885 
L 258.314297 228.412265 
L 260.007558 225.623196 
L 260.854188 225.271458 
L 262.547449 225.036067 
L 263.39408 224.816602 
L 264.24071 224.33394 
L 265.933971 223.794051 
L 267.627232 223.521677 
L 269.320492 222.790397 
L 270.167123 222.599276 
L 271.013753 222.28776 
L 276.940166 220.77067 
L 280.326688 220.510714 
L 281.173318 219.688192 
L 282.019949 219.421217 
L 282.866579 219.314858 
L 284.55984 218.724489 
L 285.40647 218.445367 
L 287.099731 218.215374 
L 288.792992 217.456829 
L 289.639623 217.233315 
L 290.486253 217.421196 
L 293.872775 216.699634 
L 294.719405 216.074172 
L 295.566036 215.789111 
L 296.412666 213.610657 
L 297.259296 213.081835 
L 298.952557 212.856161 
L 300.645818 212.196417 
L 301.492448 212.08007 
L 303.185709 211.280764 
L 304.03234 211.211928 
L 304.87897 211.010819 
L 307.418861 209.825762 
L 308.265492 209.73776 
L 310.805383 208.883655 
L 312.498644 208.102705 
L 316.731796 206.723827 
L 317.578426 206.300554 
L 319.271687 205.835979 
L 321.811579 203.763074 
L 322.658209 203.39001 
L 323.504839 202.429547 
L 324.35147 202.402013 
L 325.1981 201.865093 
L 326.044731 201.117346 
L 326.891361 200.548842 
L 328.584622 200.280787 
L 329.431252 199.946866 
L 330.277883 199.475002 
L 331.124513 198.811748 
L 333.664404 197.937397 
L 341.284078 196.01782 
L 342.130709 194.999319 
L 342.977339 194.744491 
L 343.82397 193.319453 
L 344.6706 192.821135 
L 347.210491 192.096873 
L 349.750382 191.28515 
L 350.597013 190.786562 
L 351.443643 190.753899 
L 352.290274 190.346552 
L 353.136904 190.135455 
L 354.830165 188.966055 
L 356.523426 188.375146 
L 358.216687 187.976167 
L 359.063317 187.732407 
L 359.909948 187.213304 
L 361.603208 184.956566 
L 362.449839 184.509268 
L 364.1431 184.232574 
L 364.98973 184.016888 
L 366.682991 182.680662 
L 368.376252 182.010929 
L 370.069513 181.727217 
L 371.762773 180.941948 
L 372.609404 180.783761 
L 373.456034 178.558067 
L 374.302665 178.276244 
L 375.995926 178.05057 
L 376.842556 177.702882 
L 378.535817 177.259632 
L 380.229078 176.666024 
L 381.922338 176.402018 
L 384.46223 175.12113 
L 385.30886 175.010183 
L 390.388643 173.41481 
L 391.235273 173.292795 
L 392.081904 173.054434 
L 392.928534 172.999905 
L 395.468425 172.149309 
L 396.315056 171.789203 
L 397.161686 171.682575 
L 398.008316 171.185067 
L 401.394838 169.503311 
L 402.241469 168.952624 
L 403.934729 168.412465 
L 405.62799 168.174913 
L 406.474621 167.7044 
L 407.321251 167.423927 
L 408.167882 167.412589 
L 412.401034 166.983917 
L 413.247664 166.244539 
L 416.634186 166.161396 
L 418.327447 165.89442 
L 419.174077 163.263809 
L 420.020707 162.768461 
L 420.867338 162.492037 
L 421.713968 161.903828 
L 423.407229 161.64927 
L 425.10049 160.919879 
L 426.793751 159.603359 
L 427.640381 159.350151 
L 428.487012 159.313168 
L 429.333642 158.96359 
L 431.026903 158.67124 
L 432.720164 157.858976 
L 433.566794 157.486183 
L 435.260055 157.25349 
L 436.953316 155.810366 
L 437.799946 155.716695 
L 438.646577 155.357669 
L 440.339838 155.173296 
L 446.26625 152.675498 
L 452.192663 149.871852 
L 458.119076 148.049725 
L 464.045489 145.551387 
L 469.971902 144.081538 
L 481.824728 141.737608 
L 487.751141 139.847455 
L 493.677554 133.300486 
L 500.450597 131.278061 
L 505.53038 129.343637 
L 511.456793 127.295026 
L 517.383206 124.994558 
L 523.309619 120.968062 
L 529.236032 117.887723 
L 535.162445 115.537585 
L 541.088858 112.391379 
L 552.941684 98.539976 
L 558.868096 96.22547 
L 564.794509 93.452868 
L 570.720922 90.247815 
L 576.647335 87.647437 
L 582.573748 82.821636 
L 588.500161 80.301432 
L 594.426574 77.261315 
L 600.352987 74.413938 
L 608.819291 72.146672 
L 612.205813 69.541166 
L 618.132226 66.686231 
L 624.058639 71.271512 
L 641.837878 67.869128 
L 653.690704 62.275604 
L 665.54353 57.806939 
L 671.469942 55.259741 
L 677.396355 52.284681 
L 683.322768 49.864626 
L 695.175594 45.996049 
L 707.02842 42.640096 
L 712.954833 40.319111 
L 724.807659 38.115553 
L 754.439724 28.713379 
L 776.452115 21.890796 
L 779.838636 19.348457 
L 779.838636 19.348457 
" style="fill:none;stroke:#1f77b4;stroke-linecap:square;stroke-width:5;"/>
   </g>
   <g id="patch_3">
    <path d="M 140.675 274.254545 
L 140.675 7.2 
" style="fill:none;stroke:#000000;stroke-linecap:square;stroke-linejoin:miter;stroke-width:0.8;"/>
   </g>
   <g id="patch_4">
    <path d="M 140.675 274.254545 
L 810.275 274.254545 
" style="fill:none;stroke:#000000;stroke-linecap:square;stroke-linejoin:miter;stroke-width:0.8;"/>
   </g>
  </g>
  <g id="axes_2">
   <g id="patch_5">
    <path d="M 140.675 594.72 
L 810.275 594.72 
L 810.275 327.665455 
L 140.675 327.665455 
z
" style="fill:#ffffff;"/>
   </g>
   <g id="matplotlib.axis_3">
    <g id="xtick_10">
     <g id="line2d_30">
      <path clip-path="url(#pe1549fafa1)" d="M 181.270929 594.72 
L 181.270929 327.665455 
" style="fill:none;stroke:#d3d3d3;stroke-linecap:square;stroke-width:0.8;"/>
     </g>
     <g id="line2d_31">
      <g>
       <use style="stroke:#000000;stroke-width:0.8;" x="181.270929" xlink:href="#m3ec13fb09a" y="594.72"/>
      </g>
     </g>
     <g id="text_7">
      <!-- 2020-04 -->
      <defs>
       <path d="M 4.890625 31.390625 
L 31.203125 31.390625 
L 31.203125 23.390625 
L 4.890625 23.390625 
z
" id="DejaVuSans-45"/>
      </defs>
      <g transform="translate(91.931359 667.652431)rotate(-30)scale(0.24 -0.24)">
       <use xlink:href="#DejaVuSans-50"/>
       <use x="63.623047" xlink:href="#DejaVuSans-48"/>
       <use x="127.246094" xlink:href="#DejaVuSans-50"/>
       <use x="190.869141" xlink:href="#DejaVuSans-48"/>
       <use x="254.492188" xlink:href="#DejaVuSans-45"/>
       <use x="290.576172" xlink:href="#DejaVuSans-48"/>
       <use x="354.199219" xlink:href="#DejaVuSans-52"/>
      </g>
     </g>
    </g>
    <g id="xtick_11">
     <g id="line2d_32">
      <path clip-path="url(#pe1549fafa1)" d="M 258.314297 594.72 
L 258.314297 327.665455 
" style="fill:none;stroke:#d3d3d3;stroke-linecap:square;stroke-width:0.8;"/>
     </g>
     <g id="line2d_33">
      <g>
       <use style="stroke:#000000;stroke-width:0.8;" x="258.314297" xlink:href="#m3ec13fb09a" y="594.72"/>
      </g>
     </g>
     <g id="text_8">
      <!-- 2020-07 -->
      <defs>
       <path d="M 8.203125 72.90625 
L 55.078125 72.90625 
L 55.078125 68.703125 
L 28.609375 0 
L 18.3125 0 
L 43.21875 64.59375 
L 8.203125 64.59375 
z
" id="DejaVuSans-55"/>
      </defs>
      <g transform="translate(168.974727 667.652431)rotate(-30)scale(0.24 -0.24)">
       <use xlink:href="#DejaVuSans-50"/>
       <use x="63.623047" xlink:href="#DejaVuSans-48"/>
       <use x="127.246094" xlink:href="#DejaVuSans-50"/>
       <use x="190.869141" xlink:href="#DejaVuSans-48"/>
       <use x="254.492188" xlink:href="#DejaVuSans-45"/>
       <use x="290.576172" xlink:href="#DejaVuSans-48"/>
       <use x="354.199219" xlink:href="#DejaVuSans-55"/>
      </g>
     </g>
    </g>
    <g id="xtick_12">
     <g id="line2d_34">
      <path clip-path="url(#pe1549fafa1)" d="M 336.204296 594.72 
L 336.204296 327.665455 
" style="fill:none;stroke:#d3d3d3;stroke-linecap:square;stroke-width:0.8;"/>
     </g>
     <g id="line2d_35">
      <g>
       <use style="stroke:#000000;stroke-width:0.8;" x="336.204296" xlink:href="#m3ec13fb09a" y="594.72"/>
      </g>
     </g>
     <g id="text_9">
      <!-- 2020-10 -->
      <defs>
       <path d="M 12.40625 8.296875 
L 28.515625 8.296875 
L 28.515625 63.921875 
L 10.984375 60.40625 
L 10.984375 69.390625 
L 28.421875 72.90625 
L 38.28125 72.90625 
L 38.28125 8.296875 
L 54.390625 8.296875 
L 54.390625 0 
L 12.40625 0 
z
" id="DejaVuSans-49"/>
      </defs>
      <g transform="translate(246.864726 667.652431)rotate(-30)scale(0.24 -0.24)">
       <use xlink:href="#DejaVuSans-50"/>
       <use x="63.623047" xlink:href="#DejaVuSans-48"/>
       <use x="127.246094" xlink:href="#DejaVuSans-50"/>
       <use x="190.869141" xlink:href="#DejaVuSans-48"/>
       <use x="254.492188" xlink:href="#DejaVuSans-45"/>
       <use x="290.576172" xlink:href="#DejaVuSans-49"/>
       <use x="354.199219" xlink:href="#DejaVuSans-48"/>
      </g>
     </g>
    </g>
    <g id="xtick_13">
     <g id="line2d_36">
      <path clip-path="url(#pe1549fafa1)" d="M 414.094294 594.72 
L 414.094294 327.665455 
" style="fill:none;stroke:#d3d3d3;stroke-linecap:square;stroke-width:0.8;"/>
     </g>
     <g id="line2d_37">
      <g>
       <use style="stroke:#000000;stroke-width:0.8;" x="414.094294" xlink:href="#m3ec13fb09a" y="594.72"/>
      </g>
     </g>
     <g id="text_10">
      <!-- 2021-01 -->
      <g transform="translate(324.754725 667.652431)rotate(-30)scale(0.24 -0.24)">
       <use xlink:href="#DejaVuSans-50"/>
       <use x="63.623047" xlink:href="#DejaVuSans-48"/>
       <use x="127.246094" xlink:href="#DejaVuSans-50"/>
       <use x="190.869141" xlink:href="#DejaVuSans-49"/>
       <use x="254.492188" xlink:href="#DejaVuSans-45"/>
       <use x="290.576172" xlink:href="#DejaVuSans-48"/>
       <use x="354.199219" xlink:href="#DejaVuSans-49"/>
      </g>
     </g>
    </g>
    <g id="xtick_14">
     <g id="line2d_38">
      <path clip-path="url(#pe1549fafa1)" d="M 490.291032 594.72 
L 490.291032 327.665455 
" style="fill:none;stroke:#d3d3d3;stroke-linecap:square;stroke-width:0.8;"/>
     </g>
     <g id="line2d_39">
      <g>
       <use style="stroke:#000000;stroke-width:0.8;" x="490.291032" xlink:href="#m3ec13fb09a" y="594.72"/>
      </g>
     </g>
     <g id="text_11">
      <!-- 2021-04 -->
      <g transform="translate(400.951462 667.652431)rotate(-30)scale(0.24 -0.24)">
       <use xlink:href="#DejaVuSans-50"/>
       <use x="63.623047" xlink:href="#DejaVuSans-48"/>
       <use x="127.246094" xlink:href="#DejaVuSans-50"/>
       <use x="190.869141" xlink:href="#DejaVuSans-49"/>
       <use x="254.492188" xlink:href="#DejaVuSans-45"/>
       <use x="290.576172" xlink:href="#DejaVuSans-48"/>
       <use x="354.199219" xlink:href="#DejaVuSans-52"/>
      </g>
     </g>
    </g>
    <g id="xtick_15">
     <g id="line2d_40">
      <path clip-path="url(#pe1549fafa1)" d="M 567.334401 594.72 
L 567.334401 327.665455 
" style="fill:none;stroke:#d3d3d3;stroke-linecap:square;stroke-width:0.8;"/>
     </g>
     <g id="line2d_41">
      <g>
       <use style="stroke:#000000;stroke-width:0.8;" x="567.334401" xlink:href="#m3ec13fb09a" y="594.72"/>
      </g>
     </g>
     <g id="text_12">
      <!-- 2021-07 -->
      <g transform="translate(477.994831 667.652431)rotate(-30)scale(0.24 -0.24)">
       <use xlink:href="#DejaVuSans-50"/>
       <use x="63.623047" xlink:href="#DejaVuSans-48"/>
       <use x="127.246094" xlink:href="#DejaVuSans-50"/>
       <use x="190.869141" xlink:href="#DejaVuSans-49"/>
       <use x="254.492188" xlink:href="#DejaVuSans-45"/>
       <use x="290.576172" xlink:href="#DejaVuSans-48"/>
       <use x="354.199219" xlink:href="#DejaVuSans-55"/>
      </g>
     </g>
    </g>
    <g id="xtick_16">
     <g id="line2d_42">
      <path clip-path="url(#pe1549fafa1)" d="M 645.224399 594.72 
L 645.224399 327.665455 
" style="fill:none;stroke:#d3d3d3;stroke-linecap:square;stroke-width:0.8;"/>
     </g>
     <g id="line2d_43">
      <g>
       <use style="stroke:#000000;stroke-width:0.8;" x="645.224399" xlink:href="#m3ec13fb09a" y="594.72"/>
      </g>
     </g>
     <g id="text_13">
      <!-- 2021-10 -->
      <g transform="translate(555.884829 667.652431)rotate(-30)scale(0.24 -0.24)">
       <use xlink:href="#DejaVuSans-50"/>
       <use x="63.623047" xlink:href="#DejaVuSans-48"/>
       <use x="127.246094" xlink:href="#DejaVuSans-50"/>
       <use x="190.869141" xlink:href="#DejaVuSans-49"/>
       <use x="254.492188" xlink:href="#DejaVuSans-45"/>
       <use x="290.576172" xlink:href="#DejaVuSans-49"/>
       <use x="354.199219" xlink:href="#DejaVuSans-48"/>
      </g>
     </g>
    </g>
    <g id="xtick_17">
     <g id="line2d_44">
      <path clip-path="url(#pe1549fafa1)" d="M 723.114398 594.72 
L 723.114398 327.665455 
" style="fill:none;stroke:#d3d3d3;stroke-linecap:square;stroke-width:0.8;"/>
     </g>
     <g id="line2d_45">
      <g>
       <use style="stroke:#000000;stroke-width:0.8;" x="723.114398" xlink:href="#m3ec13fb09a" y="594.72"/>
      </g>
     </g>
     <g id="text_14">
      <!-- 2022-01 -->
      <g transform="translate(633.774828 667.652431)rotate(-30)scale(0.24 -0.24)">
       <use xlink:href="#DejaVuSans-50"/>
       <use x="63.623047" xlink:href="#DejaVuSans-48"/>
       <use x="127.246094" xlink:href="#DejaVuSans-50"/>
       <use x="190.869141" xlink:href="#DejaVuSans-50"/>
       <use x="254.492188" xlink:href="#DejaVuSans-45"/>
       <use x="290.576172" xlink:href="#DejaVuSans-48"/>
       <use x="354.199219" xlink:href="#DejaVuSans-49"/>
      </g>
     </g>
    </g>
    <g id="xtick_18">
     <g id="line2d_46">
      <path clip-path="url(#pe1549fafa1)" d="M 799.311136 594.72 
L 799.311136 327.665455 
" style="fill:none;stroke:#d3d3d3;stroke-linecap:square;stroke-width:0.8;"/>
     </g>
     <g id="line2d_47">
      <g>
       <use style="stroke:#000000;stroke-width:0.8;" x="799.311136" xlink:href="#m3ec13fb09a" y="594.72"/>
      </g>
     </g>
     <g id="text_15">
      <!-- 2022-04 -->
      <g transform="translate(709.971566 667.652431)rotate(-30)scale(0.24 -0.24)">
       <use xlink:href="#DejaVuSans-50"/>
       <use x="63.623047" xlink:href="#DejaVuSans-48"/>
       <use x="127.246094" xlink:href="#DejaVuSans-50"/>
       <use x="190.869141" xlink:href="#DejaVuSans-50"/>
       <use x="254.492188" xlink:href="#DejaVuSans-45"/>
       <use x="290.576172" xlink:href="#DejaVuSans-48"/>
       <use x="354.199219" xlink:href="#DejaVuSans-52"/>
      </g>
     </g>
    </g>
   </g>
   <g id="matplotlib.axis_4">
    <g id="ytick_6">
     <g id="line2d_48">
      <path clip-path="url(#pe1549fafa1)" d="M 140.675 594.72 
L 810.275 594.72 
" style="fill:none;stroke:#d3d3d3;stroke-linecap:square;stroke-width:0.8;"/>
     </g>
     <g id="line2d_49">
      <g>
       <use style="stroke:#000000;stroke-width:0.8;" x="140.675" xlink:href="#m8a7e629615" y="594.72"/>
      </g>
     </g>
     <g id="text_16">
      <!-- 0 -->
      <g transform="translate(118.405 603.838125)scale(0.24 -0.24)">
       <use xlink:href="#DejaVuSans-48"/>
      </g>
     </g>
    </g>
    <g id="ytick_7">
     <g id="line2d_50">
      <path clip-path="url(#pe1549fafa1)" d="M 140.675 526.357362 
L 810.275 526.357362 
" style="fill:none;stroke:#d3d3d3;stroke-linecap:square;stroke-width:0.8;"/>
     </g>
     <g id="line2d_51">
      <g>
       <use style="stroke:#000000;stroke-width:0.8;" x="140.675" xlink:href="#m8a7e629615" y="526.357362"/>
      </g>
     </g>
     <g id="text_17">
      <!-- 5,000 -->
      <defs>
       <path d="M 10.796875 72.90625 
L 49.515625 72.90625 
L 49.515625 64.59375 
L 19.828125 64.59375 
L 19.828125 46.734375 
Q 21.96875 47.46875 24.109375 47.828125 
Q 26.265625 48.1875 28.421875 48.1875 
Q 40.625 48.1875 47.75 41.5 
Q 54.890625 34.8125 54.890625 23.390625 
Q 54.890625 11.625 47.5625 5.09375 
Q 40.234375 -1.421875 26.90625 -1.421875 
Q 22.3125 -1.421875 17.546875 -0.640625 
Q 12.796875 0.140625 7.71875 1.703125 
L 7.71875 11.625 
Q 12.109375 9.234375 16.796875 8.0625 
Q 21.484375 6.890625 26.703125 6.890625 
Q 35.15625 6.890625 40.078125 11.328125 
Q 45.015625 15.765625 45.015625 23.390625 
Q 45.015625 31 40.078125 35.4375 
Q 35.15625 39.890625 26.703125 39.890625 
Q 22.75 39.890625 18.8125 39.015625 
Q 14.890625 38.140625 10.796875 36.28125 
z
" id="DejaVuSans-53"/>
      </defs>
      <g transform="translate(64.9675 535.475487)scale(0.24 -0.24)">
       <use xlink:href="#DejaVuSans-53"/>
       <use x="63.623047" xlink:href="#DejaVuSans-44"/>
       <use x="95.410156" xlink:href="#DejaVuSans-48"/>
       <use x="159.033203" xlink:href="#DejaVuSans-48"/>
       <use x="222.65625" xlink:href="#DejaVuSans-48"/>
      </g>
     </g>
    </g>
    <g id="ytick_8">
     <g id="line2d_52">
      <path clip-path="url(#pe1549fafa1)" d="M 140.675 457.994723 
L 810.275 457.994723 
" style="fill:none;stroke:#d3d3d3;stroke-linecap:square;stroke-width:0.8;"/>
     </g>
     <g id="line2d_53">
      <g>
       <use style="stroke:#000000;stroke-width:0.8;" x="140.675" xlink:href="#m8a7e629615" y="457.994723"/>
      </g>
     </g>
     <g id="text_18">
      <!-- 10,000 -->
      <g transform="translate(49.6975 467.112848)scale(0.24 -0.24)">
       <use xlink:href="#DejaVuSans-49"/>
       <use x="63.623047" xlink:href="#DejaVuSans-48"/>
       <use x="127.246094" xlink:href="#DejaVuSans-44"/>
       <use x="159.033203" xlink:href="#DejaVuSans-48"/>
       <use x="222.65625" xlink:href="#DejaVuSans-48"/>
       <use x="286.279297" xlink:href="#DejaVuSans-48"/>
      </g>
     </g>
    </g>
    <g id="ytick_9">
     <g id="line2d_54">
      <path clip-path="url(#pe1549fafa1)" d="M 140.675 389.632085 
L 810.275 389.632085 
" style="fill:none;stroke:#d3d3d3;stroke-linecap:square;stroke-width:0.8;"/>
     </g>
     <g id="line2d_55">
      <g>
       <use style="stroke:#000000;stroke-width:0.8;" x="140.675" xlink:href="#m8a7e629615" y="389.632085"/>
      </g>
     </g>
     <g id="text_19">
      <!-- 15,000 -->
      <g transform="translate(49.6975 398.75021)scale(0.24 -0.24)">
       <use xlink:href="#DejaVuSans-49"/>
       <use x="63.623047" xlink:href="#DejaVuSans-53"/>
       <use x="127.246094" xlink:href="#DejaVuSans-44"/>
       <use x="159.033203" xlink:href="#DejaVuSans-48"/>
       <use x="222.65625" xlink:href="#DejaVuSans-48"/>
       <use x="286.279297" xlink:href="#DejaVuSans-48"/>
      </g>
     </g>
    </g>
    <g id="text_20">
     <!-- Preprints -->
     <defs>
      <path d="M 19.671875 64.796875 
L 19.671875 37.40625 
L 32.078125 37.40625 
Q 38.96875 37.40625 42.71875 40.96875 
Q 46.484375 44.53125 46.484375 51.125 
Q 46.484375 57.671875 42.71875 61.234375 
Q 38.96875 64.796875 32.078125 64.796875 
z
M 9.8125 72.90625 
L 32.078125 72.90625 
Q 44.34375 72.90625 50.609375 67.359375 
Q 56.890625 61.8125 56.890625 51.125 
Q 56.890625 40.328125 50.609375 34.8125 
Q 44.34375 29.296875 32.078125 29.296875 
L 19.671875 29.296875 
L 19.671875 0 
L 9.8125 0 
z
" id="DejaVuSans-80"/>
      <path d="M 56.203125 29.59375 
L 56.203125 25.203125 
L 14.890625 25.203125 
Q 15.484375 15.921875 20.484375 11.0625 
Q 25.484375 6.203125 34.421875 6.203125 
Q 39.59375 6.203125 44.453125 7.46875 
Q 49.3125 8.734375 54.109375 11.28125 
L 54.109375 2.78125 
Q 49.265625 0.734375 44.1875 -0.34375 
Q 39.109375 -1.421875 33.890625 -1.421875 
Q 20.796875 -1.421875 13.15625 6.1875 
Q 5.515625 13.8125 5.515625 26.8125 
Q 5.515625 40.234375 12.765625 48.109375 
Q 20.015625 56 32.328125 56 
Q 43.359375 56 49.78125 48.890625 
Q 56.203125 41.796875 56.203125 29.59375 
z
M 47.21875 32.234375 
Q 47.125 39.59375 43.09375 43.984375 
Q 39.0625 48.390625 32.421875 48.390625 
Q 24.90625 48.390625 20.390625 44.140625 
Q 15.875 39.890625 15.1875 32.171875 
z
" id="DejaVuSans-101"/>
     </defs>
     <g transform="translate(40.70625 515.185227)rotate(-90)scale(0.24 -0.24)">
      <use xlink:href="#DejaVuSans-80"/>
      <use x="60.287109" xlink:href="#DejaVuSans-114"/>
      <use x="101.369141" xlink:href="#DejaVuSans-101"/>
      <use x="162.892578" xlink:href="#DejaVuSans-112"/>
      <use x="226.369141" xlink:href="#DejaVuSans-114"/>
      <use x="267.482422" xlink:href="#DejaVuSans-105"/>
      <use x="295.265625" xlink:href="#DejaVuSans-110"/>
      <use x="358.644531" xlink:href="#DejaVuSans-116"/>
      <use x="397.853516" xlink:href="#DejaVuSans-115"/>
     </g>
    </g>
   </g>
   <g id="line2d_56">
    <path clip-path="url(#pe1549fafa1)" d="M 171.111364 592.163237 
L 177.037777 590.795985 
L 182.96419 589.100591 
L 188.890602 587.104402 
L 200.743428 583.658925 
L 206.669841 581.498666 
L 215.982776 578.805178 
L 221.909189 576.726954 
L 231.222124 573.801033 
L 232.915384 573.527582 
L 234.608645 572.843956 
L 237.148536 572.050949 
L 238.841797 571.681791 
L 240.535058 570.970819 
L 241.381689 570.738386 
L 242.228319 570.27352 
L 243.074949 569.986397 
L 244.76821 569.767637 
L 246.461471 568.97463 
L 248.154732 568.455074 
L 249.001362 568.181624 
L 250.694623 567.990208 
L 251.541254 567.757775 
L 252.387884 567.333927 
L 255.774406 566.390523 
L 258.314297 565.843622 
L 260.854188 564.96858 
L 262.547449 564.599421 
L 264.24071 563.915795 
L 265.08734 563.587654 
L 268.473862 562.876683 
L 269.320492 562.726285 
L 271.013753 562.070004 
L 275.246905 560.907839 
L 276.940166 560.360938 
L 277.786797 560.019125 
L 281.173318 559.212446 
L 282.866579 558.583509 
L 284.55984 557.88621 
L 286.253101 557.517052 
L 290.486253 556.095109 
L 292.179514 555.972057 
L 293.872775 555.425155 
L 296.412666 554.673166 
L 299.799188 554.04423 
L 303.185709 553.264896 
L 304.87897 552.90941 
L 308.265492 551.760918 
L 312.498644 550.981584 
L 317.578426 549.696366 
L 319.271687 549.094775 
L 324.35147 548.096681 
L 326.044731 547.577125 
L 327.737992 547.358364 
L 329.431252 546.770445 
L 330.277883 546.46965 
L 333.664404 545.786023 
L 337.897557 544.760584 
L 339.590817 544.569168 
L 342.977339 543.448021 
L 343.82397 543.11988 
L 348.057122 542.190149 
L 348.903752 541.848335 
L 352.290274 541.110019 
L 353.136904 540.699843 
L 354.830165 540.180287 
L 355.676795 539.879491 
L 357.370056 539.606041 
L 358.216687 539.305245 
L 359.909948 538.580601 
L 362.449839 537.719232 
L 363.296469 537.568834 
L 364.1431 537.268039 
L 366.682991 536.693792 
L 367.529621 536.420342 
L 369.222882 536.119546 
L 374.302665 534.834329 
L 375.149295 534.724948 
L 378.535817 533.685836 
L 380.229078 533.398713 
L 381.075708 533.371368 
L 381.922338 532.988537 
L 385.30886 532.209203 
L 386.155491 532.086151 
L 389.542012 531.238454 
L 391.235273 530.595845 
L 392.928534 530.40443 
L 394.621795 529.707131 
L 397.161686 528.927797 
L 398.008316 528.777399 
L 403.934729 527.246076 
L 404.78136 527.191386 
L 405.62799 526.931608 
L 406.474621 526.521432 
L 408.167882 525.960858 
L 410.707773 525.660063 
L 414.094294 524.812366 
L 417.480816 524.210775 
L 418.327447 523.882634 
L 423.407229 522.761487 
L 425.10049 522.146223 
L 426.793751 521.69503 
L 429.333642 521.216491 
L 431.026903 520.478175 
L 434.413425 519.890256 
L 436.106685 519.357027 
L 436.953316 519.192957 
L 437.799946 518.769109 
L 438.646577 518.509331 
L 440.339838 518.222208 
L 446.26625 516.663539 
L 452.192663 514.872438 
L 464.045489 511.645722 
L 469.971902 509.840948 
L 487.751141 505.356359 
L 493.677554 503.975434 
L 517.383206 497.617708 
L 523.309619 496.209438 
L 529.236032 494.637097 
L 541.088858 491.177948 
L 552.941684 487.171897 
L 570.720922 481.976337 
L 576.647335 480.554394 
L 582.573748 478.900018 
L 588.500161 477.491748 
L 594.426574 475.919407 
L 600.352987 474.073616 
L 608.819291 471.844994 
L 612.205813 470.573449 
L 618.132226 469.028453 
L 624.058639 467.251024 
L 635.911465 463.559442 
L 641.837878 462.055464 
L 653.690704 458.076758 
L 659.617117 456.258312 
L 665.54353 454.795352 
L 671.469942 453.017923 
L 677.396355 451.076424 
L 695.175594 446.332057 
L 707.02842 443.296756 
L 712.954833 441.273222 
L 724.807659 438.935219 
L 754.439724 431.360639 
L 776.452115 425.41309 
L 779.838636 425.399417 
L 779.838636 425.399417 
" style="fill:none;stroke:#1f77b4;stroke-linecap:square;stroke-width:5;"/>
   </g>
   <g id="line2d_57">
    <path clip-path="url(#pe1549fafa1)" d="M 171.111364 586.748916 
L 177.037777 584.588657 
L 182.96419 581.102162 
L 188.890602 578.094206 
L 194.817015 574.197536 
L 200.743428 569.371134 
L 206.669841 565.118978 
L 215.982776 556.559975 
L 221.909189 552.321492 
L 227.835602 547.331019 
L 228.682232 545.088724 
L 229.528863 544.569168 
L 230.375493 544.36408 
L 231.222124 543.530056 
L 232.068754 542.90112 
L 232.915384 542.887448 
L 233.762015 542.572979 
L 234.608645 541.465505 
L 235.455276 540.617808 
L 236.301906 540.289667 
L 237.148536 539.05914 
L 237.995167 539.00445 
L 239.688428 538.074718 
L 240.535058 537.090296 
L 241.381689 537.062951 
L 242.228319 536.666447 
L 243.074949 535.135124 
L 243.92158 534.957381 
L 244.76821 534.560878 
L 245.614841 534.519861 
L 246.461471 533.521766 
L 247.308102 533.043228 
L 248.154732 532.715087 
L 249.847993 531.238454 
L 250.694623 531.211109 
L 251.541254 530.759915 
L 252.387884 529.830184 
L 253.234514 529.420008 
L 254.081145 529.296955 
L 254.927775 528.490276 
L 255.774406 528.476603 
L 256.621036 528.093773 
L 257.467667 527.218731 
L 258.314297 526.931608 
L 260.854188 525.783115 
L 261.700819 525.181524 
L 262.547449 525.044799 
L 263.39408 524.675641 
L 264.24071 523.964669 
L 265.08734 523.540821 
L 265.933971 523.390423 
L 266.780601 522.93923 
L 267.627232 522.118878 
L 269.320492 522.07786 
L 270.167123 521.202819 
L 271.013753 520.77897 
L 274.400275 518.851144 
L 275.246905 518.605038 
L 276.093536 518.167517 
L 276.940166 517.921412 
L 277.786797 517.866722 
L 278.633427 516.800265 
L 281.173318 515.433012 
L 282.019949 515.159561 
L 282.866579 514.325537 
L 283.71321 513.764964 
L 284.55984 513.587221 
L 285.40647 513.1497 
L 286.253101 512.930939 
L 287.099731 512.917267 
L 287.946362 511.522669 
L 288.792992 511.467979 
L 290.486253 510.319487 
L 293.026144 510.278469 
L 293.872775 509.567498 
L 295.566036 508.938561 
L 296.412666 507.762724 
L 297.259296 507.366221 
L 298.952557 506.846665 
L 299.799188 506.532196 
L 301.492448 506.313436 
L 303.185709 505.041891 
L 304.03234 504.864148 
L 304.87897 504.522335 
L 305.725601 503.961761 
L 306.572231 503.592603 
L 308.265492 503.537913 
L 310.805383 502.922649 
L 311.652014 501.719467 
L 312.498644 500.776062 
L 317.578426 498.971289 
L 319.271687 497.904831 
L 323.504839 496.236783 
L 325.1981 496.127403 
L 326.044731 494.500372 
L 327.737992 494.390992 
L 328.584622 494.295284 
L 329.431252 493.844091 
L 330.277883 492.941704 
L 331.124513 492.804979 
L 331.971144 492.16237 
L 332.817774 492.16237 
L 333.664404 491.861574 
L 336.204296 490.494321 
L 337.897557 490.138836 
L 338.744187 490.138836 
L 339.590817 489.89273 
L 340.437448 489.482554 
L 341.284078 488.935653 
L 343.82397 488.580167 
L 344.6706 488.580167 
L 345.51723 488.443442 
L 347.210491 487.691453 
L 348.057122 486.939464 
L 349.750382 486.597651 
L 350.597013 486.597651 
L 351.443643 486.406236 
L 352.290274 486.392563 
L 353.136904 485.640574 
L 353.983535 485.066328 
L 354.830165 484.984293 
L 355.676795 484.492082 
L 356.523426 484.492082 
L 358.216687 484.109251 
L 359.063317 482.824033 
L 359.909948 482.728326 
L 363.296469 482.20877 
L 364.1431 482.167752 
L 364.98973 481.388418 
L 365.83636 480.308288 
L 366.682991 480.1032 
L 367.529621 479.679352 
L 368.376252 479.405901 
L 369.222882 479.378556 
L 371.762773 478.886345 
L 372.609404 478.366789 
L 373.456034 477.710508 
L 375.149295 477.573783 
L 375.995926 476.931174 
L 376.842556 476.821794 
L 377.689186 476.056132 
L 378.535817 475.933079 
L 381.075708 475.427196 
L 381.922338 474.934985 
L 384.46223 474.388084 
L 386.155491 473.854855 
L 387.848751 472.596983 
L 390.388643 471.749286 
L 391.235273 471.051987 
L 392.928534 471.024642 
L 393.775164 470.436723 
L 395.468425 469.917167 
L 396.315056 469.903495 
L 397.161686 468.973763 
L 398.008316 468.946418 
L 401.394838 467.6612 
L 402.241469 467.49713 
L 403.934729 466.786158 
L 404.78136 466.635761 
L 405.62799 466.622088 
L 406.474621 465.569303 
L 407.321251 465.418906 
L 408.167882 464.913022 
L 411.554403 464.502846 
L 412.401034 464.489174 
L 413.247664 464.311431 
L 414.094294 464.297758 
L 415.787555 463.860237 
L 416.634186 463.846565 
L 417.480816 462.875815 
L 418.327447 462.657055 
L 419.174077 462.164844 
L 420.020707 462.137499 
L 420.867338 461.563253 
L 421.713968 461.289802 
L 422.560599 461.262457 
L 424.25386 460.838609 
L 425.10049 460.401088 
L 425.94712 460.36007 
L 426.793751 459.225251 
L 428.487012 459.11587 
L 430.180272 459.074853 
L 431.026903 457.981051 
L 431.873533 457.912688 
L 432.720164 457.557202 
L 434.413425 457.516185 
L 435.260055 457.037646 
L 436.106685 455.957516 
L 437.799946 455.684066 
L 438.646577 455.041457 
L 439.493207 454.973094 
L 440.339838 454.672299 
L 446.26625 452.019828 
L 452.192663 449.845897 
L 458.119076 447.220771 
L 464.045489 445.115202 
L 469.971902 442.462732 
L 481.824728 436.815978 
L 487.751141 433.15174 
L 493.677554 431.552054 
L 505.53038 427.067465 
L 511.456793 424.209907 
L 517.383206 421.78987 
L 523.309619 419.752663 
L 529.236032 417.524041 
L 535.162445 414.967278 
L 552.941684 408.883004 
L 558.868096 407.406371 
L 564.794509 404.876953 
L 570.720922 402.976472 
L 576.647335 399.968516 
L 582.573748 398.273122 
L 588.500161 395.278839 
L 594.426574 393.405702 
L 600.352987 391.655619 
L 608.819291 389.426997 
L 612.205813 388.825405 
L 618.132226 386.788199 
L 624.058639 385.229531 
L 635.911465 382.426662 
L 641.837878 379.8699 
L 653.690704 376.30137 
L 659.617117 374.906772 
L 665.54353 373.293414 
L 671.469942 371.1605 
L 677.396355 370.13506 
L 683.322768 368.193561 
L 695.175594 365.130915 
L 707.02842 361.53504 
L 712.954833 359.265401 
L 748.513311 348.546139 
L 754.439724 346.44057 
L 776.452115 340.342622 
L 779.838636 340.260587 
L 779.838636 340.260587 
" style="fill:none;stroke:#ff7f0e;stroke-linecap:square;stroke-width:5;"/>
   </g>
   <g id="line2d_58">
    <path clip-path="url(#pe1549fafa1)" d="M 171.111364 591.862442 
L 177.037777 591.356558 
L 182.96419 590.604569 
L 188.890602 589.715855 
L 194.817015 588.66307 
L 200.743428 587.487233 
L 206.669841 586.543828 
L 215.982776 584.725382 
L 221.909189 583.248749 
L 229.528863 581.840479 
L 231.222124 581.225215 
L 237.995167 580.035705 
L 238.841797 579.994688 
L 240.535058 579.584512 
L 243.92158 578.682125 
L 244.76821 578.586417 
L 249.847993 577.055094 
L 251.541254 576.836334 
L 253.234514 576.344123 
L 254.927775 575.961292 
L 256.621036 575.838239 
L 257.467667 575.592134 
L 258.314297 575.154613 
L 260.007558 574.662402 
L 263.39408 574.238554 
L 267.627232 573.459219 
L 268.473862 573.431874 
L 271.013753 572.775593 
L 274.400275 572.351745 
L 276.093536 571.941569 
L 277.786797 571.572411 
L 278.633427 571.312633 
L 280.326688 571.162235 
L 282.019949 570.752059 
L 284.55984 570.123123 
L 286.253101 570.013742 
L 287.946362 569.658257 
L 289.639623 569.275426 
L 290.486253 569.138701 
L 292.179514 569.138701 
L 293.872775 568.660162 
L 302.339079 567.060476 
L 304.03234 566.882734 
L 306.572231 566.417868 
L 308.265492 566.021364 
L 316.731796 564.736147 
L 326.891361 562.999736 
L 327.737992 562.958718 
L 329.431252 562.616905 
L 331.124513 562.357127 
L 331.971144 562.193057 
L 333.664404 562.138367 
L 337.897557 561.34536 
L 340.437448 561.222307 
L 343.82397 560.470318 
L 345.51723 560.401955 
L 348.057122 559.800364 
L 349.750382 559.376516 
L 351.443643 559.294481 
L 353.983535 558.815942 
L 356.523426 558.515147 
L 357.370056 558.474129 
L 361.603208 557.653777 
L 363.296469 557.517052 
L 364.98973 557.079531 
L 365.83636 556.983824 
L 367.529621 556.505285 
L 369.222882 556.395905 
L 370.069513 556.163472 
L 376.842556 555.083342 
L 377.689186 554.850909 
L 378.535817 554.823564 
L 387.848751 553.784452 
L 390.388643 553.087153 
L 391.235273 552.895738 
L 392.928534 552.731667 
L 395.468425 552.266802 
L 397.161686 551.938661 
L 398.008316 551.897643 
L 402.241469 551.268707 
L 403.088099 550.954239 
L 403.934729 550.954239 
L 405.62799 550.571408 
L 408.167882 549.983489 
L 410.707773 549.792074 
L 413.247664 549.245173 
L 416.634186 549.01274 
L 418.327447 548.520529 
L 420.867338 548.04199 
L 422.560599 548.014645 
L 423.407229 547.727522 
L 425.10049 547.440399 
L 427.640381 547.098586 
L 428.487012 547.071241 
L 429.333642 546.893498 
L 430.180272 546.538012 
L 433.566794 546.086819 
L 435.260055 545.854386 
L 437.799946 545.102397 
L 440.339838 544.801601 
L 446.26625 543.543729 
L 452.192663 542.696032 
L 458.119076 541.520195 
L 464.045489 540.481083 
L 481.824728 536.775828 
L 487.751141 535.531628 
L 493.677554 534.574551 
L 500.450597 533.261988 
L 505.53038 532.715087 
L 511.456793 531.840045 
L 517.383206 530.554828 
L 523.309619 529.406335 
L 529.236032 528.394568 
L 535.162445 527.177713 
L 552.941684 523.923652 
L 558.868096 522.93923 
L 570.720922 521.243836 
L 576.647335 520.232069 
L 582.573748 519.398045 
L 588.500161 518.386278 
L 594.426574 517.565926 
L 612.205813 514.530625 
L 618.132226 513.696601 
L 624.058639 512.630144 
L 641.837878 509.964001 
L 653.690704 508.186572 
L 671.469942 505.875915 
L 683.322768 504.221539 
L 695.175594 502.621853 
L 707.02842 500.475267 
L 712.954833 499.039651 
L 724.807659 496.660631 
L 748.513311 492.531528 
L 754.439724 491.232638 
L 776.452115 486.734376 
L 779.838636 486.734376 
L 779.838636 486.734376 
" style="fill:none;stroke:#2ca02c;stroke-linecap:square;stroke-width:5;"/>
   </g>
   <g id="patch_6">
    <path d="M 140.675 594.72 
L 140.675 327.665455 
" style="fill:none;stroke:#000000;stroke-linecap:square;stroke-linejoin:miter;stroke-width:0.8;"/>
   </g>
   <g id="patch_7">
    <path d="M 140.675 594.72 
L 810.275 594.72 
" style="fill:none;stroke:#000000;stroke-linecap:square;stroke-linejoin:miter;stroke-width:0.8;"/>
   </g>
   <g id="legend_1">
    <g id="patch_8">
     <path d="M 157.475 452.547955 
L 339.41 452.547955 
Q 344.21 452.547955 344.21 447.747955 
L 344.21 344.465455 
Q 344.21 339.665455 339.41 339.665455 
L 157.475 339.665455 
Q 152.675 339.665455 152.675 344.465455 
L 152.675 447.747955 
Q 152.675 452.547955 157.475 452.547955 
z
" style="fill:#ffffff;opacity:0.8;stroke:#cccccc;stroke-linejoin:miter;"/>
    </g>
    <g id="line2d_59">
     <path d="M 162.275 359.101705 
L 210.275 359.101705 
" style="fill:none;stroke:#1f77b4;stroke-linecap:square;stroke-width:5;"/>
    </g>
    <g id="line2d_60"/>
    <g id="text_21">
     <!-- arXiv -->
     <defs>
      <path d="M 6.296875 72.90625 
L 16.890625 72.90625 
L 35.015625 45.796875 
L 53.21875 72.90625 
L 63.8125 72.90625 
L 40.375 37.890625 
L 65.375 0 
L 54.78125 0 
L 34.28125 31 
L 13.625 0 
L 2.984375 0 
L 29 38.921875 
z
" id="DejaVuSans-88"/>
      <path d="M 2.984375 54.6875 
L 12.5 54.6875 
L 29.59375 8.796875 
L 46.6875 54.6875 
L 56.203125 54.6875 
L 35.6875 0 
L 23.484375 0 
z
" id="DejaVuSans-118"/>
     </defs>
     <g transform="translate(229.475 367.501705)scale(0.24 -0.24)">
      <use xlink:href="#DejaVuSans-97"/>
      <use x="61.279297" xlink:href="#DejaVuSans-114"/>
      <use x="102.392578" xlink:href="#DejaVuSans-88"/>
      <use x="170.898438" xlink:href="#DejaVuSans-105"/>
      <use x="198.681641" xlink:href="#DejaVuSans-118"/>
     </g>
    </g>
    <g id="line2d_61">
     <path d="M 162.275 394.329205 
L 210.275 394.329205 
" style="fill:none;stroke:#ff7f0e;stroke-linecap:square;stroke-width:5;"/>
    </g>
    <g id="line2d_62"/>
    <g id="text_22">
     <!-- medRxiv -->
     <defs>
      <path d="M 45.40625 46.390625 
L 45.40625 75.984375 
L 54.390625 75.984375 
L 54.390625 0 
L 45.40625 0 
L 45.40625 8.203125 
Q 42.578125 3.328125 38.25 0.953125 
Q 33.9375 -1.421875 27.875 -1.421875 
Q 17.96875 -1.421875 11.734375 6.484375 
Q 5.515625 14.40625 5.515625 27.296875 
Q 5.515625 40.1875 11.734375 48.09375 
Q 17.96875 56 27.875 56 
Q 33.9375 56 38.25 53.625 
Q 42.578125 51.265625 45.40625 46.390625 
z
M 14.796875 27.296875 
Q 14.796875 17.390625 18.875 11.75 
Q 22.953125 6.109375 30.078125 6.109375 
Q 37.203125 6.109375 41.296875 11.75 
Q 45.40625 17.390625 45.40625 27.296875 
Q 45.40625 37.203125 41.296875 42.84375 
Q 37.203125 48.484375 30.078125 48.484375 
Q 22.953125 48.484375 18.875 42.84375 
Q 14.796875 37.203125 14.796875 27.296875 
z
" id="DejaVuSans-100"/>
      <path d="M 44.390625 34.1875 
Q 47.5625 33.109375 50.5625 29.59375 
Q 53.5625 26.078125 56.59375 19.921875 
L 66.609375 0 
L 56 0 
L 46.6875 18.703125 
Q 43.0625 26.03125 39.671875 28.421875 
Q 36.28125 30.8125 30.421875 30.8125 
L 19.671875 30.8125 
L 19.671875 0 
L 9.8125 0 
L 9.8125 72.90625 
L 32.078125 72.90625 
Q 44.578125 72.90625 50.734375 67.671875 
Q 56.890625 62.453125 56.890625 51.90625 
Q 56.890625 45.015625 53.6875 40.46875 
Q 50.484375 35.9375 44.390625 34.1875 
z
M 19.671875 64.796875 
L 19.671875 38.921875 
L 32.078125 38.921875 
Q 39.203125 38.921875 42.84375 42.21875 
Q 46.484375 45.515625 46.484375 51.90625 
Q 46.484375 58.296875 42.84375 61.546875 
Q 39.203125 64.796875 32.078125 64.796875 
z
" id="DejaVuSans-82"/>
      <path d="M 54.890625 54.6875 
L 35.109375 28.078125 
L 55.90625 0 
L 45.3125 0 
L 29.390625 21.484375 
L 13.484375 0 
L 2.875 0 
L 24.125 28.609375 
L 4.6875 54.6875 
L 15.28125 54.6875 
L 29.78125 35.203125 
L 44.28125 54.6875 
z
" id="DejaVuSans-120"/>
     </defs>
     <g transform="translate(229.475 402.729205)scale(0.24 -0.24)">
      <use xlink:href="#DejaVuSans-109"/>
      <use x="97.412109" xlink:href="#DejaVuSans-101"/>
      <use x="158.935547" xlink:href="#DejaVuSans-100"/>
      <use x="222.412109" xlink:href="#DejaVuSans-82"/>
      <use x="291.894531" xlink:href="#DejaVuSans-120"/>
      <use x="351.074219" xlink:href="#DejaVuSans-105"/>
      <use x="378.857422" xlink:href="#DejaVuSans-118"/>
     </g>
    </g>
    <g id="line2d_63">
     <path d="M 162.275 429.556705 
L 210.275 429.556705 
" style="fill:none;stroke:#2ca02c;stroke-linecap:square;stroke-width:5;"/>
    </g>
    <g id="line2d_64"/>
    <g id="text_23">
     <!-- bioRxiv -->
     <defs>
      <path d="M 48.6875 27.296875 
Q 48.6875 37.203125 44.609375 42.84375 
Q 40.53125 48.484375 33.40625 48.484375 
Q 26.265625 48.484375 22.1875 42.84375 
Q 18.109375 37.203125 18.109375 27.296875 
Q 18.109375 17.390625 22.1875 11.75 
Q 26.265625 6.109375 33.40625 6.109375 
Q 40.53125 6.109375 44.609375 11.75 
Q 48.6875 17.390625 48.6875 27.296875 
z
M 18.109375 46.390625 
Q 20.953125 51.265625 25.265625 53.625 
Q 29.59375 56 35.59375 56 
Q 45.5625 56 51.78125 48.09375 
Q 58.015625 40.1875 58.015625 27.296875 
Q 58.015625 14.40625 51.78125 6.484375 
Q 45.5625 -1.421875 35.59375 -1.421875 
Q 29.59375 -1.421875 25.265625 0.953125 
Q 20.953125 3.328125 18.109375 8.203125 
L 18.109375 0 
L 9.078125 0 
L 9.078125 75.984375 
L 18.109375 75.984375 
z
" id="DejaVuSans-98"/>
     </defs>
     <g transform="translate(229.475 437.956705)scale(0.24 -0.24)">
      <use xlink:href="#DejaVuSans-98"/>
      <use x="63.476562" xlink:href="#DejaVuSans-105"/>
      <use x="91.259766" xlink:href="#DejaVuSans-111"/>
      <use x="152.441406" xlink:href="#DejaVuSans-82"/>
      <use x="221.923828" xlink:href="#DejaVuSans-120"/>
      <use x="281.103516" xlink:href="#DejaVuSans-105"/>
      <use x="308.886719" xlink:href="#DejaVuSans-118"/>
     </g>
    </g>
   </g>
  </g>
 </g>
 <defs>
  <clipPath id="p5a0baefb18">
   <rect height="267.054545" width="669.6" x="140.675" y="7.2"/>
  </clipPath>
  <clipPath id="pe1549fafa1">
   <rect height="267.054545" width="669.6" x="140.675" y="327.665455"/>
  </clipPath>
 </defs>
</svg>
