<?xml version="1.0" encoding="utf-8" standalone="no"?>
<!DOCTYPE svg PUBLIC "-//W3C//DTD SVG 1.1//EN"
  "http://www.w3.org/Graphics/SVG/1.1/DTD/svg11.dtd">
<!-- Created with matplotlib (https://matplotlib.org/) -->
<svg height="649.902072pt" version="1.1" viewBox="0 0 1212.84375 649.902072" width="1212.84375pt" xmlns="http://www.w3.org/2000/svg" xmlns:xlink="http://www.w3.org/1999/xlink">
 <defs>
  <style type="text/css">
*{stroke-linecap:butt;stroke-linejoin:round;}
  </style>
 </defs>
 <g id="figure_1">
  <g id="patch_1">
   <path d="M 0 649.902072 
L 1212.84375 649.902072 
L 1212.84375 0 
L 0 0 
z
" style="fill:#ffffff;"/>
  </g>
  <g id="axes_1">
   <g id="patch_2">
    <path d="M 89.64375 594.72 
L 596.916477 594.72 
L 596.916477 7.2 
L 89.64375 7.2 
z
" style="fill:#ffffff;"/>
   </g>
   <g id="matplotlib.axis_1">
    <g id="xtick_1">
     <g id="line2d_1">
      <path clip-path="url(#pcc5d57f60f)" d="M 91.639141 594.72 
L 91.639141 7.2 
" style="fill:none;stroke:#d3d3d3;stroke-linecap:square;stroke-width:0.8;"/>
     </g>
     <g id="line2d_2">
      <defs>
       <path d="M 0 0 
L 0 3.5 
" id="med6bbe0648" style="stroke:#000000;stroke-width:0.8;"/>
      </defs>
      <g>
       <use style="stroke:#000000;stroke-width:0.8;" x="91.639141" xlink:href="#med6bbe0648" y="594.72"/>
      </g>
     </g>
     <g id="text_1">
      <!-- 2020-03 -->
      <defs>
       <path d="M 19.1875 8.296875 
L 53.609375 8.296875 
L 53.609375 0 
L 7.328125 0 
L 7.328125 8.296875 
Q 12.9375 14.109375 22.625 23.890625 
Q 32.328125 33.6875 34.8125 36.53125 
Q 39.546875 41.84375 41.421875 45.53125 
Q 43.3125 49.21875 43.3125 52.78125 
Q 43.3125 58.59375 39.234375 62.25 
Q 35.15625 65.921875 28.609375 65.921875 
Q 23.96875 65.921875 18.8125 64.3125 
Q 13.671875 62.703125 7.8125 59.421875 
L 7.8125 69.390625 
Q 13.765625 71.78125 18.9375 73 
Q 24.125 74.21875 28.421875 74.21875 
Q 39.75 74.21875 46.484375 68.546875 
Q 53.21875 62.890625 53.21875 53.421875 
Q 53.21875 48.921875 51.53125 44.890625 
Q 49.859375 40.875 45.40625 35.40625 
Q 44.1875 33.984375 37.640625 27.21875 
Q 31.109375 20.453125 19.1875 8.296875 
z
" id="DejaVuSans-50"/>
       <path d="M 31.78125 66.40625 
Q 24.171875 66.40625 20.328125 58.90625 
Q 16.5 51.421875 16.5 36.375 
Q 16.5 21.390625 20.328125 13.890625 
Q 24.171875 6.390625 31.78125 6.390625 
Q 39.453125 6.390625 43.28125 13.890625 
Q 47.125 21.390625 47.125 36.375 
Q 47.125 51.421875 43.28125 58.90625 
Q 39.453125 66.40625 31.78125 66.40625 
z
M 31.78125 74.21875 
Q 44.046875 74.21875 50.515625 64.515625 
Q 56.984375 54.828125 56.984375 36.375 
Q 56.984375 17.96875 50.515625 8.265625 
Q 44.046875 -1.421875 31.78125 -1.421875 
Q 19.53125 -1.421875 13.0625 8.265625 
Q 6.59375 17.96875 6.59375 36.375 
Q 6.59375 54.828125 13.0625 64.515625 
Q 19.53125 74.21875 31.78125 74.21875 
z
" id="DejaVuSans-48"/>
       <path d="M 4.890625 31.390625 
L 31.203125 31.390625 
L 31.203125 23.390625 
L 4.890625 23.390625 
z
" id="DejaVuSans-45"/>
       <path d="M 40.578125 39.3125 
Q 47.65625 37.796875 51.625 33 
Q 55.609375 28.21875 55.609375 21.1875 
Q 55.609375 10.40625 48.1875 4.484375 
Q 40.765625 -1.421875 27.09375 -1.421875 
Q 22.515625 -1.421875 17.65625 -0.515625 
Q 12.796875 0.390625 7.625 2.203125 
L 7.625 11.71875 
Q 11.71875 9.328125 16.59375 8.109375 
Q 21.484375 6.890625 26.8125 6.890625 
Q 36.078125 6.890625 40.9375 10.546875 
Q 45.796875 14.203125 45.796875 21.1875 
Q 45.796875 27.640625 41.28125 31.265625 
Q 36.765625 34.90625 28.71875 34.90625 
L 20.21875 34.90625 
L 20.21875 43.015625 
L 29.109375 43.015625 
Q 36.375 43.015625 40.234375 45.921875 
Q 44.09375 48.828125 44.09375 54.296875 
Q 44.09375 59.90625 40.109375 62.90625 
Q 36.140625 65.921875 28.71875 65.921875 
Q 24.65625 65.921875 20.015625 65.03125 
Q 15.375 64.15625 9.8125 62.3125 
L 9.8125 71.09375 
Q 15.4375 72.65625 20.34375 73.4375 
Q 25.25 74.21875 29.59375 74.21875 
Q 40.828125 74.21875 47.359375 69.109375 
Q 53.90625 64.015625 53.90625 55.328125 
Q 53.90625 49.265625 50.4375 45.09375 
Q 46.96875 40.921875 40.578125 39.3125 
z
" id="DejaVuSans-51"/>
      </defs>
      <g transform="translate(39.524392 640.180585)rotate(-30)scale(0.14 -0.14)">
       <use xlink:href="#DejaVuSans-50"/>
       <use x="63.623047" xlink:href="#DejaVuSans-48"/>
       <use x="127.246094" xlink:href="#DejaVuSans-50"/>
       <use x="190.869141" xlink:href="#DejaVuSans-48"/>
       <use x="254.492188" xlink:href="#DejaVuSans-45"/>
       <use x="290.576172" xlink:href="#DejaVuSans-48"/>
       <use x="354.199219" xlink:href="#DejaVuSans-51"/>
      </g>
     </g>
    </g>
    <g id="xtick_2">
     <g id="line2d_3">
      <path clip-path="url(#pcc5d57f60f)" d="M 159.260724 594.72 
L 159.260724 7.2 
" style="fill:none;stroke:#d3d3d3;stroke-linecap:square;stroke-width:0.8;"/>
     </g>
     <g id="line2d_4">
      <g>
       <use style="stroke:#000000;stroke-width:0.8;" x="159.260724" xlink:href="#med6bbe0648" y="594.72"/>
      </g>
     </g>
     <g id="text_2">
      <!-- 2020-05 -->
      <defs>
       <path d="M 10.796875 72.90625 
L 49.515625 72.90625 
L 49.515625 64.59375 
L 19.828125 64.59375 
L 19.828125 46.734375 
Q 21.96875 47.46875 24.109375 47.828125 
Q 26.265625 48.1875 28.421875 48.1875 
Q 40.625 48.1875 47.75 41.5 
Q 54.890625 34.8125 54.890625 23.390625 
Q 54.890625 11.625 47.5625 5.09375 
Q 40.234375 -1.421875 26.90625 -1.421875 
Q 22.3125 -1.421875 17.546875 -0.640625 
Q 12.796875 0.140625 7.71875 1.703125 
L 7.71875 11.625 
Q 12.109375 9.234375 16.796875 8.0625 
Q 21.484375 6.890625 26.703125 6.890625 
Q 35.15625 6.890625 40.078125 11.328125 
Q 45.015625 15.765625 45.015625 23.390625 
Q 45.015625 31 40.078125 35.4375 
Q 35.15625 39.890625 26.703125 39.890625 
Q 22.75 39.890625 18.8125 39.015625 
Q 14.890625 38.140625 10.796875 36.28125 
z
" id="DejaVuSans-53"/>
      </defs>
      <g transform="translate(107.145975 640.180585)rotate(-30)scale(0.14 -0.14)">
       <use xlink:href="#DejaVuSans-50"/>
       <use x="63.623047" xlink:href="#DejaVuSans-48"/>
       <use x="127.246094" xlink:href="#DejaVuSans-50"/>
       <use x="190.869141" xlink:href="#DejaVuSans-48"/>
       <use x="254.492188" xlink:href="#DejaVuSans-45"/>
       <use x="290.576172" xlink:href="#DejaVuSans-48"/>
       <use x="354.199219" xlink:href="#DejaVuSans-53"/>
      </g>
     </g>
    </g>
    <g id="xtick_3">
     <g id="line2d_5">
      <path clip-path="url(#pcc5d57f60f)" d="M 226.882307 594.72 
L 226.882307 7.2 
" style="fill:none;stroke:#d3d3d3;stroke-linecap:square;stroke-width:0.8;"/>
     </g>
     <g id="line2d_6">
      <g>
       <use style="stroke:#000000;stroke-width:0.8;" x="226.882307" xlink:href="#med6bbe0648" y="594.72"/>
      </g>
     </g>
     <g id="text_3">
      <!-- 2020-07 -->
      <defs>
       <path d="M 8.203125 72.90625 
L 55.078125 72.90625 
L 55.078125 68.703125 
L 28.609375 0 
L 18.3125 0 
L 43.21875 64.59375 
L 8.203125 64.59375 
z
" id="DejaVuSans-55"/>
      </defs>
      <g transform="translate(174.767558 640.180585)rotate(-30)scale(0.14 -0.14)">
       <use xlink:href="#DejaVuSans-50"/>
       <use x="63.623047" xlink:href="#DejaVuSans-48"/>
       <use x="127.246094" xlink:href="#DejaVuSans-50"/>
       <use x="190.869141" xlink:href="#DejaVuSans-48"/>
       <use x="254.492188" xlink:href="#DejaVuSans-45"/>
       <use x="290.576172" xlink:href="#DejaVuSans-48"/>
       <use x="354.199219" xlink:href="#DejaVuSans-55"/>
      </g>
     </g>
    </g>
    <g id="xtick_4">
     <g id="line2d_7">
      <path clip-path="url(#pcc5d57f60f)" d="M 295.61244 594.72 
L 295.61244 7.2 
" style="fill:none;stroke:#d3d3d3;stroke-linecap:square;stroke-width:0.8;"/>
     </g>
     <g id="line2d_8">
      <g>
       <use style="stroke:#000000;stroke-width:0.8;" x="295.61244" xlink:href="#med6bbe0648" y="594.72"/>
      </g>
     </g>
     <g id="text_4">
      <!-- 2020-09 -->
      <defs>
       <path d="M 10.984375 1.515625 
L 10.984375 10.5 
Q 14.703125 8.734375 18.5 7.8125 
Q 22.3125 6.890625 25.984375 6.890625 
Q 35.75 6.890625 40.890625 13.453125 
Q 46.046875 20.015625 46.78125 33.40625 
Q 43.953125 29.203125 39.59375 26.953125 
Q 35.25 24.703125 29.984375 24.703125 
Q 19.046875 24.703125 12.671875 31.3125 
Q 6.296875 37.9375 6.296875 49.421875 
Q 6.296875 60.640625 12.9375 67.421875 
Q 19.578125 74.21875 30.609375 74.21875 
Q 43.265625 74.21875 49.921875 64.515625 
Q 56.59375 54.828125 56.59375 36.375 
Q 56.59375 19.140625 48.40625 8.859375 
Q 40.234375 -1.421875 26.421875 -1.421875 
Q 22.703125 -1.421875 18.890625 -0.6875 
Q 15.09375 0.046875 10.984375 1.515625 
z
M 30.609375 32.421875 
Q 37.25 32.421875 41.125 36.953125 
Q 45.015625 41.5 45.015625 49.421875 
Q 45.015625 57.28125 41.125 61.84375 
Q 37.25 66.40625 30.609375 66.40625 
Q 23.96875 66.40625 20.09375 61.84375 
Q 16.21875 57.28125 16.21875 49.421875 
Q 16.21875 41.5 20.09375 36.953125 
Q 23.96875 32.421875 30.609375 32.421875 
z
" id="DejaVuSans-57"/>
      </defs>
      <g transform="translate(243.497691 640.180585)rotate(-30)scale(0.14 -0.14)">
       <use xlink:href="#DejaVuSans-50"/>
       <use x="63.623047" xlink:href="#DejaVuSans-48"/>
       <use x="127.246094" xlink:href="#DejaVuSans-50"/>
       <use x="190.869141" xlink:href="#DejaVuSans-48"/>
       <use x="254.492188" xlink:href="#DejaVuSans-45"/>
       <use x="290.576172" xlink:href="#DejaVuSans-48"/>
       <use x="354.199219" xlink:href="#DejaVuSans-57"/>
      </g>
     </g>
    </g>
    <g id="xtick_5">
     <g id="line2d_9">
      <path clip-path="url(#pcc5d57f60f)" d="M 363.234023 594.72 
L 363.234023 7.2 
" style="fill:none;stroke:#d3d3d3;stroke-linecap:square;stroke-width:0.8;"/>
     </g>
     <g id="line2d_10">
      <g>
       <use style="stroke:#000000;stroke-width:0.8;" x="363.234023" xlink:href="#med6bbe0648" y="594.72"/>
      </g>
     </g>
     <g id="text_5">
      <!-- 2020-11 -->
      <defs>
       <path d="M 12.40625 8.296875 
L 28.515625 8.296875 
L 28.515625 63.921875 
L 10.984375 60.40625 
L 10.984375 69.390625 
L 28.421875 72.90625 
L 38.28125 72.90625 
L 38.28125 8.296875 
L 54.390625 8.296875 
L 54.390625 0 
L 12.40625 0 
z
" id="DejaVuSans-49"/>
      </defs>
      <g transform="translate(311.119274 640.180585)rotate(-30)scale(0.14 -0.14)">
       <use xlink:href="#DejaVuSans-50"/>
       <use x="63.623047" xlink:href="#DejaVuSans-48"/>
       <use x="127.246094" xlink:href="#DejaVuSans-50"/>
       <use x="190.869141" xlink:href="#DejaVuSans-48"/>
       <use x="254.492188" xlink:href="#DejaVuSans-45"/>
       <use x="290.576172" xlink:href="#DejaVuSans-49"/>
       <use x="354.199219" xlink:href="#DejaVuSans-49"/>
      </g>
     </g>
    </g>
    <g id="xtick_6">
     <g id="line2d_11">
      <path clip-path="url(#pcc5d57f60f)" d="M 430.855606 594.72 
L 430.855606 7.2 
" style="fill:none;stroke:#d3d3d3;stroke-linecap:square;stroke-width:0.8;"/>
     </g>
     <g id="line2d_12">
      <g>
       <use style="stroke:#000000;stroke-width:0.8;" x="430.855606" xlink:href="#med6bbe0648" y="594.72"/>
      </g>
     </g>
     <g id="text_6">
      <!-- 2021-01 -->
      <g transform="translate(378.740857 640.180585)rotate(-30)scale(0.14 -0.14)">
       <use xlink:href="#DejaVuSans-50"/>
       <use x="63.623047" xlink:href="#DejaVuSans-48"/>
       <use x="127.246094" xlink:href="#DejaVuSans-50"/>
       <use x="190.869141" xlink:href="#DejaVuSans-49"/>
       <use x="254.492188" xlink:href="#DejaVuSans-45"/>
       <use x="290.576172" xlink:href="#DejaVuSans-48"/>
       <use x="354.199219" xlink:href="#DejaVuSans-49"/>
      </g>
     </g>
    </g>
    <g id="xtick_7">
     <g id="line2d_13">
      <path clip-path="url(#pcc5d57f60f)" d="M 496.260088 594.72 
L 496.260088 7.2 
" style="fill:none;stroke:#d3d3d3;stroke-linecap:square;stroke-width:0.8;"/>
     </g>
     <g id="line2d_14">
      <g>
       <use style="stroke:#000000;stroke-width:0.8;" x="496.260088" xlink:href="#med6bbe0648" y="594.72"/>
      </g>
     </g>
     <g id="text_7">
      <!-- 2021-03 -->
      <g transform="translate(444.145339 640.180585)rotate(-30)scale(0.14 -0.14)">
       <use xlink:href="#DejaVuSans-50"/>
       <use x="63.623047" xlink:href="#DejaVuSans-48"/>
       <use x="127.246094" xlink:href="#DejaVuSans-50"/>
       <use x="190.869141" xlink:href="#DejaVuSans-49"/>
       <use x="254.492188" xlink:href="#DejaVuSans-45"/>
       <use x="290.576172" xlink:href="#DejaVuSans-48"/>
       <use x="354.199219" xlink:href="#DejaVuSans-51"/>
      </g>
     </g>
    </g>
    <g id="xtick_8">
     <g id="line2d_15">
      <path clip-path="url(#pcc5d57f60f)" d="M 563.881671 594.72 
L 563.881671 7.2 
" style="fill:none;stroke:#d3d3d3;stroke-linecap:square;stroke-width:0.8;"/>
     </g>
     <g id="line2d_16">
      <g>
       <use style="stroke:#000000;stroke-width:0.8;" x="563.881671" xlink:href="#med6bbe0648" y="594.72"/>
      </g>
     </g>
     <g id="text_8">
      <!-- 2021-05 -->
      <g transform="translate(511.766922 640.180585)rotate(-30)scale(0.14 -0.14)">
       <use xlink:href="#DejaVuSans-50"/>
       <use x="63.623047" xlink:href="#DejaVuSans-48"/>
       <use x="127.246094" xlink:href="#DejaVuSans-50"/>
       <use x="190.869141" xlink:href="#DejaVuSans-49"/>
       <use x="254.492188" xlink:href="#DejaVuSans-45"/>
       <use x="290.576172" xlink:href="#DejaVuSans-48"/>
       <use x="354.199219" xlink:href="#DejaVuSans-53"/>
      </g>
     </g>
    </g>
   </g>
   <g id="matplotlib.axis_2">
    <g id="ytick_1">
     <g id="line2d_17">
      <path clip-path="url(#pcc5d57f60f)" d="M 89.64375 594.72 
L 596.916477 594.72 
" style="fill:none;stroke:#d3d3d3;stroke-linecap:square;stroke-width:0.8;"/>
     </g>
     <g id="line2d_18">
      <defs>
       <path d="M 0 0 
L -3.5 0 
" id="mfbbe58c0c1" style="stroke:#000000;stroke-width:0.8;"/>
      </defs>
      <g>
       <use style="stroke:#000000;stroke-width:0.8;" x="89.64375" xlink:href="#mfbbe58c0c1" y="594.72"/>
      </g>
     </g>
     <g id="text_9">
      <!-- 0 -->
      <g transform="translate(73.73625 600.038906)scale(0.14 -0.14)">
       <use xlink:href="#DejaVuSans-48"/>
      </g>
     </g>
    </g>
    <g id="ytick_2">
     <g id="line2d_19">
      <path clip-path="url(#pcc5d57f60f)" d="M 89.64375 495.815105 
L 596.916477 495.815105 
" style="fill:none;stroke:#d3d3d3;stroke-linecap:square;stroke-width:0.8;"/>
     </g>
     <g id="line2d_20">
      <g>
       <use style="stroke:#000000;stroke-width:0.8;" x="89.64375" xlink:href="#mfbbe58c0c1" y="495.815105"/>
      </g>
     </g>
     <g id="text_10">
      <!-- 100,000 -->
      <defs>
       <path d="M 11.71875 12.40625 
L 22.015625 12.40625 
L 22.015625 4 
L 14.015625 -11.625 
L 7.71875 -11.625 
L 11.71875 4 
z
" id="DejaVuSans-44"/>
      </defs>
      <g transform="translate(24.749375 501.134011)scale(0.14 -0.14)">
       <use xlink:href="#DejaVuSans-49"/>
       <use x="63.623047" xlink:href="#DejaVuSans-48"/>
       <use x="127.246094" xlink:href="#DejaVuSans-48"/>
       <use x="190.869141" xlink:href="#DejaVuSans-44"/>
       <use x="222.65625" xlink:href="#DejaVuSans-48"/>
       <use x="286.279297" xlink:href="#DejaVuSans-48"/>
       <use x="349.902344" xlink:href="#DejaVuSans-48"/>
      </g>
     </g>
    </g>
    <g id="ytick_3">
     <g id="line2d_21">
      <path clip-path="url(#pcc5d57f60f)" d="M 89.64375 396.91021 
L 596.916477 396.91021 
" style="fill:none;stroke:#d3d3d3;stroke-linecap:square;stroke-width:0.8;"/>
     </g>
     <g id="line2d_22">
      <g>
       <use style="stroke:#000000;stroke-width:0.8;" x="89.64375" xlink:href="#mfbbe58c0c1" y="396.91021"/>
      </g>
     </g>
     <g id="text_11">
      <!-- 200,000 -->
      <g transform="translate(24.749375 402.229116)scale(0.14 -0.14)">
       <use xlink:href="#DejaVuSans-50"/>
       <use x="63.623047" xlink:href="#DejaVuSans-48"/>
       <use x="127.246094" xlink:href="#DejaVuSans-48"/>
       <use x="190.869141" xlink:href="#DejaVuSans-44"/>
       <use x="222.65625" xlink:href="#DejaVuSans-48"/>
       <use x="286.279297" xlink:href="#DejaVuSans-48"/>
       <use x="349.902344" xlink:href="#DejaVuSans-48"/>
      </g>
     </g>
    </g>
    <g id="ytick_4">
     <g id="line2d_23">
      <path clip-path="url(#pcc5d57f60f)" d="M 89.64375 298.005315 
L 596.916477 298.005315 
" style="fill:none;stroke:#d3d3d3;stroke-linecap:square;stroke-width:0.8;"/>
     </g>
     <g id="line2d_24">
      <g>
       <use style="stroke:#000000;stroke-width:0.8;" x="89.64375" xlink:href="#mfbbe58c0c1" y="298.005315"/>
      </g>
     </g>
     <g id="text_12">
      <!-- 300,000 -->
      <g transform="translate(24.749375 303.324221)scale(0.14 -0.14)">
       <use xlink:href="#DejaVuSans-51"/>
       <use x="63.623047" xlink:href="#DejaVuSans-48"/>
       <use x="127.246094" xlink:href="#DejaVuSans-48"/>
       <use x="190.869141" xlink:href="#DejaVuSans-44"/>
       <use x="222.65625" xlink:href="#DejaVuSans-48"/>
       <use x="286.279297" xlink:href="#DejaVuSans-48"/>
       <use x="349.902344" xlink:href="#DejaVuSans-48"/>
      </g>
     </g>
    </g>
    <g id="ytick_5">
     <g id="line2d_25">
      <path clip-path="url(#pcc5d57f60f)" d="M 89.64375 199.10042 
L 596.916477 199.10042 
" style="fill:none;stroke:#d3d3d3;stroke-linecap:square;stroke-width:0.8;"/>
     </g>
     <g id="line2d_26">
      <g>
       <use style="stroke:#000000;stroke-width:0.8;" x="89.64375" xlink:href="#mfbbe58c0c1" y="199.10042"/>
      </g>
     </g>
     <g id="text_13">
      <!-- 400,000 -->
      <defs>
       <path d="M 37.796875 64.3125 
L 12.890625 25.390625 
L 37.796875 25.390625 
z
M 35.203125 72.90625 
L 47.609375 72.90625 
L 47.609375 25.390625 
L 58.015625 25.390625 
L 58.015625 17.1875 
L 47.609375 17.1875 
L 47.609375 0 
L 37.796875 0 
L 37.796875 17.1875 
L 4.890625 17.1875 
L 4.890625 26.703125 
z
" id="DejaVuSans-52"/>
      </defs>
      <g transform="translate(24.749375 204.419326)scale(0.14 -0.14)">
       <use xlink:href="#DejaVuSans-52"/>
       <use x="63.623047" xlink:href="#DejaVuSans-48"/>
       <use x="127.246094" xlink:href="#DejaVuSans-48"/>
       <use x="190.869141" xlink:href="#DejaVuSans-44"/>
       <use x="222.65625" xlink:href="#DejaVuSans-48"/>
       <use x="286.279297" xlink:href="#DejaVuSans-48"/>
       <use x="349.902344" xlink:href="#DejaVuSans-48"/>
      </g>
     </g>
    </g>
    <g id="ytick_6">
     <g id="line2d_27">
      <path clip-path="url(#pcc5d57f60f)" d="M 89.64375 100.195525 
L 596.916477 100.195525 
" style="fill:none;stroke:#d3d3d3;stroke-linecap:square;stroke-width:0.8;"/>
     </g>
     <g id="line2d_28">
      <g>
       <use style="stroke:#000000;stroke-width:0.8;" x="89.64375" xlink:href="#mfbbe58c0c1" y="100.195525"/>
      </g>
     </g>
     <g id="text_14">
      <!-- 500,000 -->
      <g transform="translate(24.749375 105.514432)scale(0.14 -0.14)">
       <use xlink:href="#DejaVuSans-53"/>
       <use x="63.623047" xlink:href="#DejaVuSans-48"/>
       <use x="127.246094" xlink:href="#DejaVuSans-48"/>
       <use x="190.869141" xlink:href="#DejaVuSans-44"/>
       <use x="222.65625" xlink:href="#DejaVuSans-48"/>
       <use x="286.279297" xlink:href="#DejaVuSans-48"/>
       <use x="349.902344" xlink:href="#DejaVuSans-48"/>
      </g>
     </g>
    </g>
    <g id="text_15">
     <!-- Total manuscripts -->
     <defs>
      <path d="M -0.296875 72.90625 
L 61.375 72.90625 
L 61.375 64.59375 
L 35.5 64.59375 
L 35.5 0 
L 25.59375 0 
L 25.59375 64.59375 
L -0.296875 64.59375 
z
" id="DejaVuSans-84"/>
      <path d="M 30.609375 48.390625 
Q 23.390625 48.390625 19.1875 42.75 
Q 14.984375 37.109375 14.984375 27.296875 
Q 14.984375 17.484375 19.15625 11.84375 
Q 23.34375 6.203125 30.609375 6.203125 
Q 37.796875 6.203125 41.984375 11.859375 
Q 46.1875 17.53125 46.1875 27.296875 
Q 46.1875 37.015625 41.984375 42.703125 
Q 37.796875 48.390625 30.609375 48.390625 
z
M 30.609375 56 
Q 42.328125 56 49.015625 48.375 
Q 55.71875 40.765625 55.71875 27.296875 
Q 55.71875 13.875 49.015625 6.21875 
Q 42.328125 -1.421875 30.609375 -1.421875 
Q 18.84375 -1.421875 12.171875 6.21875 
Q 5.515625 13.875 5.515625 27.296875 
Q 5.515625 40.765625 12.171875 48.375 
Q 18.84375 56 30.609375 56 
z
" id="DejaVuSans-111"/>
      <path d="M 18.3125 70.21875 
L 18.3125 54.6875 
L 36.8125 54.6875 
L 36.8125 47.703125 
L 18.3125 47.703125 
L 18.3125 18.015625 
Q 18.3125 11.328125 20.140625 9.421875 
Q 21.96875 7.515625 27.59375 7.515625 
L 36.8125 7.515625 
L 36.8125 0 
L 27.59375 0 
Q 17.1875 0 13.234375 3.875 
Q 9.28125 7.765625 9.28125 18.015625 
L 9.28125 47.703125 
L 2.6875 47.703125 
L 2.6875 54.6875 
L 9.28125 54.6875 
L 9.28125 70.21875 
z
" id="DejaVuSans-116"/>
      <path d="M 34.28125 27.484375 
Q 23.390625 27.484375 19.1875 25 
Q 14.984375 22.515625 14.984375 16.5 
Q 14.984375 11.71875 18.140625 8.90625 
Q 21.296875 6.109375 26.703125 6.109375 
Q 34.1875 6.109375 38.703125 11.40625 
Q 43.21875 16.703125 43.21875 25.484375 
L 43.21875 27.484375 
z
M 52.203125 31.203125 
L 52.203125 0 
L 43.21875 0 
L 43.21875 8.296875 
Q 40.140625 3.328125 35.546875 0.953125 
Q 30.953125 -1.421875 24.3125 -1.421875 
Q 15.921875 -1.421875 10.953125 3.296875 
Q 6 8.015625 6 15.921875 
Q 6 25.140625 12.171875 29.828125 
Q 18.359375 34.515625 30.609375 34.515625 
L 43.21875 34.515625 
L 43.21875 35.40625 
Q 43.21875 41.609375 39.140625 45 
Q 35.0625 48.390625 27.6875 48.390625 
Q 23 48.390625 18.546875 47.265625 
Q 14.109375 46.140625 10.015625 43.890625 
L 10.015625 52.203125 
Q 14.9375 54.109375 19.578125 55.046875 
Q 24.21875 56 28.609375 56 
Q 40.484375 56 46.34375 49.84375 
Q 52.203125 43.703125 52.203125 31.203125 
z
" id="DejaVuSans-97"/>
      <path d="M 9.421875 75.984375 
L 18.40625 75.984375 
L 18.40625 0 
L 9.421875 0 
z
" id="DejaVuSans-108"/>
      <path id="DejaVuSans-32"/>
      <path d="M 52 44.1875 
Q 55.375 50.25 60.0625 53.125 
Q 64.75 56 71.09375 56 
Q 79.640625 56 84.28125 50.015625 
Q 88.921875 44.046875 88.921875 33.015625 
L 88.921875 0 
L 79.890625 0 
L 79.890625 32.71875 
Q 79.890625 40.578125 77.09375 44.375 
Q 74.3125 48.1875 68.609375 48.1875 
Q 61.625 48.1875 57.5625 43.546875 
Q 53.515625 38.921875 53.515625 30.90625 
L 53.515625 0 
L 44.484375 0 
L 44.484375 32.71875 
Q 44.484375 40.625 41.703125 44.40625 
Q 38.921875 48.1875 33.109375 48.1875 
Q 26.21875 48.1875 22.15625 43.53125 
Q 18.109375 38.875 18.109375 30.90625 
L 18.109375 0 
L 9.078125 0 
L 9.078125 54.6875 
L 18.109375 54.6875 
L 18.109375 46.1875 
Q 21.1875 51.21875 25.484375 53.609375 
Q 29.78125 56 35.6875 56 
Q 41.65625 56 45.828125 52.96875 
Q 50 49.953125 52 44.1875 
z
" id="DejaVuSans-109"/>
      <path d="M 54.890625 33.015625 
L 54.890625 0 
L 45.90625 0 
L 45.90625 32.71875 
Q 45.90625 40.484375 42.875 44.328125 
Q 39.84375 48.1875 33.796875 48.1875 
Q 26.515625 48.1875 22.3125 43.546875 
Q 18.109375 38.921875 18.109375 30.90625 
L 18.109375 0 
L 9.078125 0 
L 9.078125 54.6875 
L 18.109375 54.6875 
L 18.109375 46.1875 
Q 21.34375 51.125 25.703125 53.5625 
Q 30.078125 56 35.796875 56 
Q 45.21875 56 50.046875 50.171875 
Q 54.890625 44.34375 54.890625 33.015625 
z
" id="DejaVuSans-110"/>
      <path d="M 8.5 21.578125 
L 8.5 54.6875 
L 17.484375 54.6875 
L 17.484375 21.921875 
Q 17.484375 14.15625 20.5 10.265625 
Q 23.53125 6.390625 29.59375 6.390625 
Q 36.859375 6.390625 41.078125 11.03125 
Q 45.3125 15.671875 45.3125 23.6875 
L 45.3125 54.6875 
L 54.296875 54.6875 
L 54.296875 0 
L 45.3125 0 
L 45.3125 8.40625 
Q 42.046875 3.421875 37.71875 1 
Q 33.40625 -1.421875 27.6875 -1.421875 
Q 18.265625 -1.421875 13.375 4.4375 
Q 8.5 10.296875 8.5 21.578125 
z
M 31.109375 56 
z
" id="DejaVuSans-117"/>
      <path d="M 44.28125 53.078125 
L 44.28125 44.578125 
Q 40.484375 46.53125 36.375 47.5 
Q 32.28125 48.484375 27.875 48.484375 
Q 21.1875 48.484375 17.84375 46.4375 
Q 14.5 44.390625 14.5 40.28125 
Q 14.5 37.15625 16.890625 35.375 
Q 19.28125 33.59375 26.515625 31.984375 
L 29.59375 31.296875 
Q 39.15625 29.25 43.1875 25.515625 
Q 47.21875 21.78125 47.21875 15.09375 
Q 47.21875 7.46875 41.1875 3.015625 
Q 35.15625 -1.421875 24.609375 -1.421875 
Q 20.21875 -1.421875 15.453125 -0.5625 
Q 10.6875 0.296875 5.421875 2 
L 5.421875 11.28125 
Q 10.40625 8.6875 15.234375 7.390625 
Q 20.0625 6.109375 24.8125 6.109375 
Q 31.15625 6.109375 34.5625 8.28125 
Q 37.984375 10.453125 37.984375 14.40625 
Q 37.984375 18.0625 35.515625 20.015625 
Q 33.0625 21.96875 24.703125 23.78125 
L 21.578125 24.515625 
Q 13.234375 26.265625 9.515625 29.90625 
Q 5.8125 33.546875 5.8125 39.890625 
Q 5.8125 47.609375 11.28125 51.796875 
Q 16.75 56 26.8125 56 
Q 31.78125 56 36.171875 55.265625 
Q 40.578125 54.546875 44.28125 53.078125 
z
" id="DejaVuSans-115"/>
      <path d="M 48.78125 52.59375 
L 48.78125 44.1875 
Q 44.96875 46.296875 41.140625 47.34375 
Q 37.3125 48.390625 33.40625 48.390625 
Q 24.65625 48.390625 19.8125 42.84375 
Q 14.984375 37.3125 14.984375 27.296875 
Q 14.984375 17.28125 19.8125 11.734375 
Q 24.65625 6.203125 33.40625 6.203125 
Q 37.3125 6.203125 41.140625 7.25 
Q 44.96875 8.296875 48.78125 10.40625 
L 48.78125 2.09375 
Q 45.015625 0.34375 40.984375 -0.53125 
Q 36.96875 -1.421875 32.421875 -1.421875 
Q 20.0625 -1.421875 12.78125 6.34375 
Q 5.515625 14.109375 5.515625 27.296875 
Q 5.515625 40.671875 12.859375 48.328125 
Q 20.21875 56 33.015625 56 
Q 37.15625 56 41.109375 55.140625 
Q 45.0625 54.296875 48.78125 52.59375 
z
" id="DejaVuSans-99"/>
      <path d="M 41.109375 46.296875 
Q 39.59375 47.171875 37.8125 47.578125 
Q 36.03125 48 33.890625 48 
Q 26.265625 48 22.1875 43.046875 
Q 18.109375 38.09375 18.109375 28.8125 
L 18.109375 0 
L 9.078125 0 
L 9.078125 54.6875 
L 18.109375 54.6875 
L 18.109375 46.1875 
Q 20.953125 51.171875 25.484375 53.578125 
Q 30.03125 56 36.53125 56 
Q 37.453125 56 38.578125 55.875 
Q 39.703125 55.765625 41.0625 55.515625 
z
" id="DejaVuSans-114"/>
      <path d="M 9.421875 54.6875 
L 18.40625 54.6875 
L 18.40625 0 
L 9.421875 0 
z
M 9.421875 75.984375 
L 18.40625 75.984375 
L 18.40625 64.59375 
L 9.421875 64.59375 
z
" id="DejaVuSans-105"/>
      <path d="M 18.109375 8.203125 
L 18.109375 -20.796875 
L 9.078125 -20.796875 
L 9.078125 54.6875 
L 18.109375 54.6875 
L 18.109375 46.390625 
Q 20.953125 51.265625 25.265625 53.625 
Q 29.59375 56 35.59375 56 
Q 45.5625 56 51.78125 48.09375 
Q 58.015625 40.1875 58.015625 27.296875 
Q 58.015625 14.40625 51.78125 6.484375 
Q 45.5625 -1.421875 35.59375 -1.421875 
Q 29.59375 -1.421875 25.265625 0.953125 
Q 20.953125 3.328125 18.109375 8.203125 
z
M 48.6875 27.296875 
Q 48.6875 37.203125 44.609375 42.84375 
Q 40.53125 48.484375 33.40625 48.484375 
Q 26.265625 48.484375 22.1875 42.84375 
Q 18.109375 37.203125 18.109375 27.296875 
Q 18.109375 17.390625 22.1875 11.75 
Q 26.265625 6.109375 33.40625 6.109375 
Q 40.53125 6.109375 44.609375 11.75 
Q 48.6875 17.390625 48.6875 27.296875 
z
" id="DejaVuSans-112"/>
     </defs>
     <g transform="translate(17.837813 363.836406)rotate(-90)scale(0.14 -0.14)">
      <use xlink:href="#DejaVuSans-84"/>
      <use x="60.818359" xlink:href="#DejaVuSans-111"/>
      <use x="122" xlink:href="#DejaVuSans-116"/>
      <use x="161.208984" xlink:href="#DejaVuSans-97"/>
      <use x="222.488281" xlink:href="#DejaVuSans-108"/>
      <use x="250.271484" xlink:href="#DejaVuSans-32"/>
      <use x="282.058594" xlink:href="#DejaVuSans-109"/>
      <use x="379.470703" xlink:href="#DejaVuSans-97"/>
      <use x="440.75" xlink:href="#DejaVuSans-110"/>
      <use x="504.128906" xlink:href="#DejaVuSans-117"/>
      <use x="567.507812" xlink:href="#DejaVuSans-115"/>
      <use x="619.607422" xlink:href="#DejaVuSans-99"/>
      <use x="674.587891" xlink:href="#DejaVuSans-114"/>
      <use x="715.701172" xlink:href="#DejaVuSans-105"/>
      <use x="743.484375" xlink:href="#DejaVuSans-112"/>
      <use x="806.960938" xlink:href="#DejaVuSans-116"/>
      <use x="846.169922" xlink:href="#DejaVuSans-115"/>
     </g>
    </g>
   </g>
   <g id="line2d_29">
    <path clip-path="url(#pcc5d57f60f)" d="M 112.701601 550.984255 
L 128.221309 547.939963 
L 135.981163 544.201358 
L 143.741016 542.895813 
L 151.50087 537.982218 
L 159.260724 535.488826 
L 171.45478 531.845169 
L 179.214634 467.635122 
L 186.974487 461.983697 
L 188.083038 460.143077 
L 189.191589 458.897864 
L 190.300139 457.433082 
L 191.40869 457.181864 
L 192.51724 456.300621 
L 194.734341 455.156292 
L 195.842892 461.051024 
L 196.951442 460.404186 
L 198.059993 460.128241 
L 199.168543 460.074832 
L 200.277094 459.632727 
L 201.385644 458.813795 
L 202.494195 457.44594 
L 203.602746 456.458869 
L 204.711296 455.759612 
L 205.819847 455.481689 
L 208.036948 453.843824 
L 209.145498 453.37996 
L 210.254049 449.799603 
L 211.362599 439.04963 
L 212.47115 438.735112 
L 214.688251 437.737162 
L 216.905352 437.513637 
L 218.013903 436.120067 
L 219.122453 436.391066 
L 220.231004 434.925296 
L 221.339554 432.966979 
L 222.448105 432.679165 
L 223.556655 429.083972 
L 224.665206 428.735827 
L 225.773756 427.888212 
L 226.882307 426.758718 
L 229.099408 416.539865 
L 230.207959 415.251134 
L 231.316509 414.93266 
L 232.42506 414.388683 
L 233.53361 413.584586 
L 234.642161 411.816167 
L 235.750711 410.673815 
L 236.859262 409.838069 
L 237.967812 409.480033 
L 239.076363 408.840119 
L 241.293464 406.160785 
L 242.402014 405.460538 
L 243.510565 404.319176 
L 251.270419 398.760721 
L 253.48752 398.300813 
L 255.704621 397.808267 
L 256.813171 394.794634 
L 257.921722 393.816465 
L 259.030273 393.42678 
L 260.138823 392.140027 
L 261.247374 391.26373 
L 262.355924 390.241053 
L 263.464475 389.679273 
L 264.573025 389.398383 
L 266.790126 386.619156 
L 267.898677 385.800223 
L 269.007227 386.488601 
L 271.224329 385.140528 
L 272.332879 384.324562 
L 273.44143 383.844873 
L 274.54998 381.553247 
L 275.658531 380.508811 
L 276.767081 372.527186 
L 277.875632 370.589639 
L 278.984182 370.105005 
L 280.092733 369.762795 
L 282.309834 367.345559 
L 283.418384 366.919279 
L 285.635486 363.990705 
L 286.744036 363.738497 
L 287.852587 363.001656 
L 291.178238 358.659731 
L 292.286789 358.337301 
L 295.61244 355.20795 
L 296.720991 353.568107 
L 297.829541 352.346632 
L 303.372294 347.29457 
L 304.480845 345.743741 
L 306.697946 344.041588 
L 310.023597 336.446681 
L 311.132148 335.079815 
L 312.240699 331.560779 
L 313.349249 331.459896 
L 314.4578 329.492678 
L 315.56635 326.753012 
L 316.674901 324.670075 
L 317.783451 324.295225 
L 318.892002 323.687949 
L 320.000552 322.464496 
L 321.109103 320.735638 
L 322.217653 318.305545 
L 324.434754 315.78347 
L 325.543305 315.102015 
L 328.868957 312.875666 
L 331.086058 311.112192 
L 332.194608 310.462387 
L 333.303159 310.036107 
L 335.52026 308.068888 
L 336.62881 304.337207 
L 337.737361 303.403544 
L 338.845911 298.182355 
L 339.954462 296.356571 
L 341.063013 295.583134 
L 344.388664 292.709947 
L 345.497215 291.350005 
L 346.605765 290.728882 
L 347.714316 288.902109 
L 348.822866 288.782434 
L 349.931417 287.289959 
L 351.039967 286.516523 
L 352.148518 284.157641 
L 353.257068 282.231963 
L 354.365619 281.042137 
L 355.47417 280.066934 
L 356.58272 279.424053 
L 358.799821 277.712009 
L 359.908372 275.810068 
L 362.125473 267.541618 
L 363.234023 265.902764 
L 364.342574 265.509123 
L 365.451124 264.888989 
L 366.559675 264.098739 
L 367.668226 261.81008 
L 368.776776 259.202947 
L 370.993877 256.749116 
L 372.102428 256.346573 
L 373.210978 255.709626 
L 375.428079 252.832483 
L 376.53663 252.2529 
L 377.64518 244.098191 
L 378.753731 243.065624 
L 379.862281 242.828252 
L 380.970832 242.238779 
L 382.079383 240.964884 
L 383.187933 240.296287 
L 384.296484 239.340866 
L 386.513585 237.165947 
L 387.622135 236.554715 
L 388.730686 236.198657 
L 392.056337 231.50562 
L 393.164888 231.099121 
L 394.273438 230.138754 
L 396.49054 228.477152 
L 398.707641 226.166734 
L 399.816191 225.253842 
L 400.924742 224.806791 
L 402.033292 223.933461 
L 403.141843 223.733673 
L 404.250393 222.776274 
L 405.358944 221.543919 
L 406.467494 220.61718 
L 407.576045 219.297789 
L 408.684596 218.907114 
L 409.793146 217.084297 
L 414.227348 210.922522 
L 415.335899 208.904862 
L 417.553 206.925776 
L 418.66155 206.585543 
L 419.770101 206.055412 
L 420.878651 204.3315 
L 421.987202 203.303878 
L 423.095753 203.262338 
L 428.638505 201.691728 
L 429.747056 198.982723 
L 430.855606 198.982723 
L 431.964157 198.706779 
L 434.181258 198.678096 
L 435.289808 198.113349 
L 436.398359 197.699927 
L 437.50691 188.061645 
L 438.61546 186.24674 
L 439.724011 185.233954 
L 440.832561 183.078816 
L 443.049662 182.146143 
L 445.266763 179.473733 
L 447.483864 174.650141 
L 448.592415 173.722413 
L 449.700966 173.586914 
L 450.809516 172.306095 
L 451.918067 171.649367 
L 453.026617 171.234955 
L 454.135168 169.605002 
L 456.352269 166.89303 
L 457.460819 166.312459 
L 458.56937 166.04047 
L 459.67792 163.244429 
L 460.786471 160.753014 
L 461.895021 160.409814 
L 463.003572 159.094379 
L 464.112123 158.893602 
L 465.220673 158.418859 
L 472.980527 149.267189 
L 480.740381 138.994927 
L 488.500234 132.318846 
L 496.260088 123.165198 
L 504.019942 117.779827 
L 519.53965 109.191915 
L 527.299503 102.266594 
L 535.059357 78.27919 
L 543.927761 70.869235 
L 550.579065 63.78171 
L 558.338918 56.275818 
L 566.098772 47.847142 
L 573.858626 33.094488 
L 573.858626 33.094488 
" style="fill:none;stroke:#1f77b4;stroke-linecap:square;stroke-width:3;"/>
   </g>
   <g id="patch_3">
    <path d="M 89.64375 594.72 
L 89.64375 7.2 
" style="fill:none;stroke:#000000;stroke-linecap:square;stroke-linejoin:miter;stroke-width:0.8;"/>
   </g>
   <g id="patch_4">
    <path d="M 89.64375 594.72 
L 596.916477 594.72 
" style="fill:none;stroke:#000000;stroke-linecap:square;stroke-linejoin:miter;stroke-width:0.8;"/>
   </g>
  </g>
  <g id="axes_2">
   <g id="patch_5">
    <path d="M 698.371023 594.72 
L 1205.64375 594.72 
L 1205.64375 7.2 
L 698.371023 7.2 
z
" style="fill:#ffffff;"/>
   </g>
   <g id="matplotlib.axis_3">
    <g id="xtick_9">
     <g id="line2d_30">
      <path clip-path="url(#pcf9d62d56a)" d="M 700.366414 594.72 
L 700.366414 7.2 
" style="fill:none;stroke:#d3d3d3;stroke-linecap:square;stroke-width:0.8;"/>
     </g>
     <g id="line2d_31">
      <g>
       <use style="stroke:#000000;stroke-width:0.8;" x="700.366414" xlink:href="#med6bbe0648" y="594.72"/>
      </g>
     </g>
     <g id="text_16">
      <!-- 2020-03 -->
      <g transform="translate(648.251665 640.180585)rotate(-30)scale(0.14 -0.14)">
       <use xlink:href="#DejaVuSans-50"/>
       <use x="63.623047" xlink:href="#DejaVuSans-48"/>
       <use x="127.246094" xlink:href="#DejaVuSans-50"/>
       <use x="190.869141" xlink:href="#DejaVuSans-48"/>
       <use x="254.492188" xlink:href="#DejaVuSans-45"/>
       <use x="290.576172" xlink:href="#DejaVuSans-48"/>
       <use x="354.199219" xlink:href="#DejaVuSans-51"/>
      </g>
     </g>
    </g>
    <g id="xtick_10">
     <g id="line2d_32">
      <path clip-path="url(#pcf9d62d56a)" d="M 767.987997 594.72 
L 767.987997 7.2 
" style="fill:none;stroke:#d3d3d3;stroke-linecap:square;stroke-width:0.8;"/>
     </g>
     <g id="line2d_33">
      <g>
       <use style="stroke:#000000;stroke-width:0.8;" x="767.987997" xlink:href="#med6bbe0648" y="594.72"/>
      </g>
     </g>
     <g id="text_17">
      <!-- 2020-05 -->
      <g transform="translate(715.873248 640.180585)rotate(-30)scale(0.14 -0.14)">
       <use xlink:href="#DejaVuSans-50"/>
       <use x="63.623047" xlink:href="#DejaVuSans-48"/>
       <use x="127.246094" xlink:href="#DejaVuSans-50"/>
       <use x="190.869141" xlink:href="#DejaVuSans-48"/>
       <use x="254.492188" xlink:href="#DejaVuSans-45"/>
       <use x="290.576172" xlink:href="#DejaVuSans-48"/>
       <use x="354.199219" xlink:href="#DejaVuSans-53"/>
      </g>
     </g>
    </g>
    <g id="xtick_11">
     <g id="line2d_34">
      <path clip-path="url(#pcf9d62d56a)" d="M 835.60958 594.72 
L 835.60958 7.2 
" style="fill:none;stroke:#d3d3d3;stroke-linecap:square;stroke-width:0.8;"/>
     </g>
     <g id="line2d_35">
      <g>
       <use style="stroke:#000000;stroke-width:0.8;" x="835.60958" xlink:href="#med6bbe0648" y="594.72"/>
      </g>
     </g>
     <g id="text_18">
      <!-- 2020-07 -->
      <g transform="translate(783.49483 640.180585)rotate(-30)scale(0.14 -0.14)">
       <use xlink:href="#DejaVuSans-50"/>
       <use x="63.623047" xlink:href="#DejaVuSans-48"/>
       <use x="127.246094" xlink:href="#DejaVuSans-50"/>
       <use x="190.869141" xlink:href="#DejaVuSans-48"/>
       <use x="254.492188" xlink:href="#DejaVuSans-45"/>
       <use x="290.576172" xlink:href="#DejaVuSans-48"/>
       <use x="354.199219" xlink:href="#DejaVuSans-55"/>
      </g>
     </g>
    </g>
    <g id="xtick_12">
     <g id="line2d_36">
      <path clip-path="url(#pcf9d62d56a)" d="M 904.339713 594.72 
L 904.339713 7.2 
" style="fill:none;stroke:#d3d3d3;stroke-linecap:square;stroke-width:0.8;"/>
     </g>
     <g id="line2d_37">
      <g>
       <use style="stroke:#000000;stroke-width:0.8;" x="904.339713" xlink:href="#med6bbe0648" y="594.72"/>
      </g>
     </g>
     <g id="text_19">
      <!-- 2020-09 -->
      <g transform="translate(852.224964 640.180585)rotate(-30)scale(0.14 -0.14)">
       <use xlink:href="#DejaVuSans-50"/>
       <use x="63.623047" xlink:href="#DejaVuSans-48"/>
       <use x="127.246094" xlink:href="#DejaVuSans-50"/>
       <use x="190.869141" xlink:href="#DejaVuSans-48"/>
       <use x="254.492188" xlink:href="#DejaVuSans-45"/>
       <use x="290.576172" xlink:href="#DejaVuSans-48"/>
       <use x="354.199219" xlink:href="#DejaVuSans-57"/>
      </g>
     </g>
    </g>
    <g id="xtick_13">
     <g id="line2d_38">
      <path clip-path="url(#pcf9d62d56a)" d="M 971.961296 594.72 
L 971.961296 7.2 
" style="fill:none;stroke:#d3d3d3;stroke-linecap:square;stroke-width:0.8;"/>
     </g>
     <g id="line2d_39">
      <g>
       <use style="stroke:#000000;stroke-width:0.8;" x="971.961296" xlink:href="#med6bbe0648" y="594.72"/>
      </g>
     </g>
     <g id="text_20">
      <!-- 2020-11 -->
      <g transform="translate(919.846547 640.180585)rotate(-30)scale(0.14 -0.14)">
       <use xlink:href="#DejaVuSans-50"/>
       <use x="63.623047" xlink:href="#DejaVuSans-48"/>
       <use x="127.246094" xlink:href="#DejaVuSans-50"/>
       <use x="190.869141" xlink:href="#DejaVuSans-48"/>
       <use x="254.492188" xlink:href="#DejaVuSans-45"/>
       <use x="290.576172" xlink:href="#DejaVuSans-49"/>
       <use x="354.199219" xlink:href="#DejaVuSans-49"/>
      </g>
     </g>
    </g>
    <g id="xtick_14">
     <g id="line2d_40">
      <path clip-path="url(#pcf9d62d56a)" d="M 1039.582879 594.72 
L 1039.582879 7.2 
" style="fill:none;stroke:#d3d3d3;stroke-linecap:square;stroke-width:0.8;"/>
     </g>
     <g id="line2d_41">
      <g>
       <use style="stroke:#000000;stroke-width:0.8;" x="1039.582879" xlink:href="#med6bbe0648" y="594.72"/>
      </g>
     </g>
     <g id="text_21">
      <!-- 2021-01 -->
      <g transform="translate(987.46813 640.180585)rotate(-30)scale(0.14 -0.14)">
       <use xlink:href="#DejaVuSans-50"/>
       <use x="63.623047" xlink:href="#DejaVuSans-48"/>
       <use x="127.246094" xlink:href="#DejaVuSans-50"/>
       <use x="190.869141" xlink:href="#DejaVuSans-49"/>
       <use x="254.492188" xlink:href="#DejaVuSans-45"/>
       <use x="290.576172" xlink:href="#DejaVuSans-48"/>
       <use x="354.199219" xlink:href="#DejaVuSans-49"/>
      </g>
     </g>
    </g>
    <g id="xtick_15">
     <g id="line2d_42">
      <path clip-path="url(#pcf9d62d56a)" d="M 1104.987361 594.72 
L 1104.987361 7.2 
" style="fill:none;stroke:#d3d3d3;stroke-linecap:square;stroke-width:0.8;"/>
     </g>
     <g id="line2d_43">
      <g>
       <use style="stroke:#000000;stroke-width:0.8;" x="1104.987361" xlink:href="#med6bbe0648" y="594.72"/>
      </g>
     </g>
     <g id="text_22">
      <!-- 2021-03 -->
      <g transform="translate(1052.872612 640.180585)rotate(-30)scale(0.14 -0.14)">
       <use xlink:href="#DejaVuSans-50"/>
       <use x="63.623047" xlink:href="#DejaVuSans-48"/>
       <use x="127.246094" xlink:href="#DejaVuSans-50"/>
       <use x="190.869141" xlink:href="#DejaVuSans-49"/>
       <use x="254.492188" xlink:href="#DejaVuSans-45"/>
       <use x="290.576172" xlink:href="#DejaVuSans-48"/>
       <use x="354.199219" xlink:href="#DejaVuSans-51"/>
      </g>
     </g>
    </g>
    <g id="xtick_16">
     <g id="line2d_44">
      <path clip-path="url(#pcf9d62d56a)" d="M 1172.608944 594.72 
L 1172.608944 7.2 
" style="fill:none;stroke:#d3d3d3;stroke-linecap:square;stroke-width:0.8;"/>
     </g>
     <g id="line2d_45">
      <g>
       <use style="stroke:#000000;stroke-width:0.8;" x="1172.608944" xlink:href="#med6bbe0648" y="594.72"/>
      </g>
     </g>
     <g id="text_23">
      <!-- 2021-05 -->
      <g transform="translate(1120.494195 640.180585)rotate(-30)scale(0.14 -0.14)">
       <use xlink:href="#DejaVuSans-50"/>
       <use x="63.623047" xlink:href="#DejaVuSans-48"/>
       <use x="127.246094" xlink:href="#DejaVuSans-50"/>
       <use x="190.869141" xlink:href="#DejaVuSans-49"/>
       <use x="254.492188" xlink:href="#DejaVuSans-45"/>
       <use x="290.576172" xlink:href="#DejaVuSans-48"/>
       <use x="354.199219" xlink:href="#DejaVuSans-53"/>
      </g>
     </g>
    </g>
   </g>
   <g id="matplotlib.axis_4">
    <g id="ytick_7">
     <g id="line2d_46">
      <path clip-path="url(#pcf9d62d56a)" d="M 698.371023 594.72 
L 1205.64375 594.72 
" style="fill:none;stroke:#d3d3d3;stroke-linecap:square;stroke-width:0.8;"/>
     </g>
     <g id="line2d_47">
      <g>
       <use style="stroke:#000000;stroke-width:0.8;" x="698.371023" xlink:href="#mfbbe58c0c1" y="594.72"/>
      </g>
     </g>
     <g id="text_24">
      <!-- 0 -->
      <g transform="translate(682.463523 600.038906)scale(0.14 -0.14)">
       <use xlink:href="#DejaVuSans-48"/>
      </g>
     </g>
    </g>
    <g id="ytick_8">
     <g id="line2d_48">
      <path clip-path="url(#pcf9d62d56a)" d="M 698.371023 506.706308 
L 1205.64375 506.706308 
" style="fill:none;stroke:#d3d3d3;stroke-linecap:square;stroke-width:0.8;"/>
     </g>
     <g id="line2d_49">
      <g>
       <use style="stroke:#000000;stroke-width:0.8;" x="698.371023" xlink:href="#mfbbe58c0c1" y="506.706308"/>
      </g>
     </g>
     <g id="text_25">
      <!-- 2,000 -->
      <g transform="translate(651.291648 512.025214)scale(0.14 -0.14)">
       <use xlink:href="#DejaVuSans-50"/>
       <use x="63.623047" xlink:href="#DejaVuSans-44"/>
       <use x="95.410156" xlink:href="#DejaVuSans-48"/>
       <use x="159.033203" xlink:href="#DejaVuSans-48"/>
       <use x="222.65625" xlink:href="#DejaVuSans-48"/>
      </g>
     </g>
    </g>
    <g id="ytick_9">
     <g id="line2d_50">
      <path clip-path="url(#pcf9d62d56a)" d="M 698.371023 418.692616 
L 1205.64375 418.692616 
" style="fill:none;stroke:#d3d3d3;stroke-linecap:square;stroke-width:0.8;"/>
     </g>
     <g id="line2d_51">
      <g>
       <use style="stroke:#000000;stroke-width:0.8;" x="698.371023" xlink:href="#mfbbe58c0c1" y="418.692616"/>
      </g>
     </g>
     <g id="text_26">
      <!-- 4,000 -->
      <g transform="translate(651.291648 424.011522)scale(0.14 -0.14)">
       <use xlink:href="#DejaVuSans-52"/>
       <use x="63.623047" xlink:href="#DejaVuSans-44"/>
       <use x="95.410156" xlink:href="#DejaVuSans-48"/>
       <use x="159.033203" xlink:href="#DejaVuSans-48"/>
       <use x="222.65625" xlink:href="#DejaVuSans-48"/>
      </g>
     </g>
    </g>
    <g id="ytick_10">
     <g id="line2d_52">
      <path clip-path="url(#pcf9d62d56a)" d="M 698.371023 330.678923 
L 1205.64375 330.678923 
" style="fill:none;stroke:#d3d3d3;stroke-linecap:square;stroke-width:0.8;"/>
     </g>
     <g id="line2d_53">
      <g>
       <use style="stroke:#000000;stroke-width:0.8;" x="698.371023" xlink:href="#mfbbe58c0c1" y="330.678923"/>
      </g>
     </g>
     <g id="text_27">
      <!-- 6,000 -->
      <defs>
       <path d="M 33.015625 40.375 
Q 26.375 40.375 22.484375 35.828125 
Q 18.609375 31.296875 18.609375 23.390625 
Q 18.609375 15.53125 22.484375 10.953125 
Q 26.375 6.390625 33.015625 6.390625 
Q 39.65625 6.390625 43.53125 10.953125 
Q 47.40625 15.53125 47.40625 23.390625 
Q 47.40625 31.296875 43.53125 35.828125 
Q 39.65625 40.375 33.015625 40.375 
z
M 52.59375 71.296875 
L 52.59375 62.3125 
Q 48.875 64.0625 45.09375 64.984375 
Q 41.3125 65.921875 37.59375 65.921875 
Q 27.828125 65.921875 22.671875 59.328125 
Q 17.53125 52.734375 16.796875 39.40625 
Q 19.671875 43.65625 24.015625 45.921875 
Q 28.375 48.1875 33.59375 48.1875 
Q 44.578125 48.1875 50.953125 41.515625 
Q 57.328125 34.859375 57.328125 23.390625 
Q 57.328125 12.15625 50.6875 5.359375 
Q 44.046875 -1.421875 33.015625 -1.421875 
Q 20.359375 -1.421875 13.671875 8.265625 
Q 6.984375 17.96875 6.984375 36.375 
Q 6.984375 53.65625 15.1875 63.9375 
Q 23.390625 74.21875 37.203125 74.21875 
Q 40.921875 74.21875 44.703125 73.484375 
Q 48.484375 72.75 52.59375 71.296875 
z
" id="DejaVuSans-54"/>
      </defs>
      <g transform="translate(651.291648 335.99783)scale(0.14 -0.14)">
       <use xlink:href="#DejaVuSans-54"/>
       <use x="63.623047" xlink:href="#DejaVuSans-44"/>
       <use x="95.410156" xlink:href="#DejaVuSans-48"/>
       <use x="159.033203" xlink:href="#DejaVuSans-48"/>
       <use x="222.65625" xlink:href="#DejaVuSans-48"/>
      </g>
     </g>
    </g>
    <g id="ytick_11">
     <g id="line2d_54">
      <path clip-path="url(#pcf9d62d56a)" d="M 698.371023 242.665231 
L 1205.64375 242.665231 
" style="fill:none;stroke:#d3d3d3;stroke-linecap:square;stroke-width:0.8;"/>
     </g>
     <g id="line2d_55">
      <g>
       <use style="stroke:#000000;stroke-width:0.8;" x="698.371023" xlink:href="#mfbbe58c0c1" y="242.665231"/>
      </g>
     </g>
     <g id="text_28">
      <!-- 8,000 -->
      <defs>
       <path d="M 31.78125 34.625 
Q 24.75 34.625 20.71875 30.859375 
Q 16.703125 27.09375 16.703125 20.515625 
Q 16.703125 13.921875 20.71875 10.15625 
Q 24.75 6.390625 31.78125 6.390625 
Q 38.8125 6.390625 42.859375 10.171875 
Q 46.921875 13.96875 46.921875 20.515625 
Q 46.921875 27.09375 42.890625 30.859375 
Q 38.875 34.625 31.78125 34.625 
z
M 21.921875 38.8125 
Q 15.578125 40.375 12.03125 44.71875 
Q 8.5 49.078125 8.5 55.328125 
Q 8.5 64.0625 14.71875 69.140625 
Q 20.953125 74.21875 31.78125 74.21875 
Q 42.671875 74.21875 48.875 69.140625 
Q 55.078125 64.0625 55.078125 55.328125 
Q 55.078125 49.078125 51.53125 44.71875 
Q 48 40.375 41.703125 38.8125 
Q 48.828125 37.15625 52.796875 32.3125 
Q 56.78125 27.484375 56.78125 20.515625 
Q 56.78125 9.90625 50.3125 4.234375 
Q 43.84375 -1.421875 31.78125 -1.421875 
Q 19.734375 -1.421875 13.25 4.234375 
Q 6.78125 9.90625 6.78125 20.515625 
Q 6.78125 27.484375 10.78125 32.3125 
Q 14.796875 37.15625 21.921875 38.8125 
z
M 18.3125 54.390625 
Q 18.3125 48.734375 21.84375 45.5625 
Q 25.390625 42.390625 31.78125 42.390625 
Q 38.140625 42.390625 41.71875 45.5625 
Q 45.3125 48.734375 45.3125 54.390625 
Q 45.3125 60.0625 41.71875 63.234375 
Q 38.140625 66.40625 31.78125 66.40625 
Q 25.390625 66.40625 21.84375 63.234375 
Q 18.3125 60.0625 18.3125 54.390625 
z
" id="DejaVuSans-56"/>
      </defs>
      <g transform="translate(651.291648 247.984137)scale(0.14 -0.14)">
       <use xlink:href="#DejaVuSans-56"/>
       <use x="63.623047" xlink:href="#DejaVuSans-44"/>
       <use x="95.410156" xlink:href="#DejaVuSans-48"/>
       <use x="159.033203" xlink:href="#DejaVuSans-48"/>
       <use x="222.65625" xlink:href="#DejaVuSans-48"/>
      </g>
     </g>
    </g>
    <g id="ytick_12">
     <g id="line2d_56">
      <path clip-path="url(#pcf9d62d56a)" d="M 698.371023 154.651539 
L 1205.64375 154.651539 
" style="fill:none;stroke:#d3d3d3;stroke-linecap:square;stroke-width:0.8;"/>
     </g>
     <g id="line2d_57">
      <g>
       <use style="stroke:#000000;stroke-width:0.8;" x="698.371023" xlink:href="#mfbbe58c0c1" y="154.651539"/>
      </g>
     </g>
     <g id="text_29">
      <!-- 10,000 -->
      <g transform="translate(642.384148 159.970445)scale(0.14 -0.14)">
       <use xlink:href="#DejaVuSans-49"/>
       <use x="63.623047" xlink:href="#DejaVuSans-48"/>
       <use x="127.246094" xlink:href="#DejaVuSans-44"/>
       <use x="159.033203" xlink:href="#DejaVuSans-48"/>
       <use x="222.65625" xlink:href="#DejaVuSans-48"/>
       <use x="286.279297" xlink:href="#DejaVuSans-48"/>
      </g>
     </g>
    </g>
    <g id="ytick_13">
     <g id="line2d_58">
      <path clip-path="url(#pcf9d62d56a)" d="M 698.371023 66.637847 
L 1205.64375 66.637847 
" style="fill:none;stroke:#d3d3d3;stroke-linecap:square;stroke-width:0.8;"/>
     </g>
     <g id="line2d_59">
      <g>
       <use style="stroke:#000000;stroke-width:0.8;" x="698.371023" xlink:href="#mfbbe58c0c1" y="66.637847"/>
      </g>
     </g>
     <g id="text_30">
      <!-- 12,000 -->
      <g transform="translate(642.384148 71.956753)scale(0.14 -0.14)">
       <use xlink:href="#DejaVuSans-49"/>
       <use x="63.623047" xlink:href="#DejaVuSans-50"/>
       <use x="127.246094" xlink:href="#DejaVuSans-44"/>
       <use x="159.033203" xlink:href="#DejaVuSans-48"/>
       <use x="222.65625" xlink:href="#DejaVuSans-48"/>
       <use x="286.279297" xlink:href="#DejaVuSans-48"/>
      </g>
     </g>
    </g>
    <g id="text_31">
     <!-- Preprints -->
     <defs>
      <path d="M 19.671875 64.796875 
L 19.671875 37.40625 
L 32.078125 37.40625 
Q 38.96875 37.40625 42.71875 40.96875 
Q 46.484375 44.53125 46.484375 51.125 
Q 46.484375 57.671875 42.71875 61.234375 
Q 38.96875 64.796875 32.078125 64.796875 
z
M 9.8125 72.90625 
L 32.078125 72.90625 
Q 44.34375 72.90625 50.609375 67.359375 
Q 56.890625 61.8125 56.890625 51.125 
Q 56.890625 40.328125 50.609375 34.8125 
Q 44.34375 29.296875 32.078125 29.296875 
L 19.671875 29.296875 
L 19.671875 0 
L 9.8125 0 
z
" id="DejaVuSans-80"/>
      <path d="M 56.203125 29.59375 
L 56.203125 25.203125 
L 14.890625 25.203125 
Q 15.484375 15.921875 20.484375 11.0625 
Q 25.484375 6.203125 34.421875 6.203125 
Q 39.59375 6.203125 44.453125 7.46875 
Q 49.3125 8.734375 54.109375 11.28125 
L 54.109375 2.78125 
Q 49.265625 0.734375 44.1875 -0.34375 
Q 39.109375 -1.421875 33.890625 -1.421875 
Q 20.796875 -1.421875 13.15625 6.1875 
Q 5.515625 13.8125 5.515625 26.8125 
Q 5.515625 40.234375 12.765625 48.109375 
Q 20.015625 56 32.328125 56 
Q 43.359375 56 49.78125 48.890625 
Q 56.203125 41.796875 56.203125 29.59375 
z
M 47.21875 32.234375 
Q 47.125 39.59375 43.09375 43.984375 
Q 39.0625 48.390625 32.421875 48.390625 
Q 24.90625 48.390625 20.390625 44.140625 
Q 15.875 39.890625 15.1875 32.171875 
z
" id="DejaVuSans-101"/>
     </defs>
     <g transform="translate(635.472585 332.455625)rotate(-90)scale(0.14 -0.14)">
      <use xlink:href="#DejaVuSans-80"/>
      <use x="60.287109" xlink:href="#DejaVuSans-114"/>
      <use x="101.369141" xlink:href="#DejaVuSans-101"/>
      <use x="162.892578" xlink:href="#DejaVuSans-112"/>
      <use x="226.369141" xlink:href="#DejaVuSans-114"/>
      <use x="267.482422" xlink:href="#DejaVuSans-105"/>
      <use x="295.265625" xlink:href="#DejaVuSans-110"/>
      <use x="358.644531" xlink:href="#DejaVuSans-116"/>
      <use x="397.853516" xlink:href="#DejaVuSans-115"/>
     </g>
    </g>
   </g>
   <g id="line2d_60">
    <path clip-path="url(#pcf9d62d56a)" d="M 721.428874 587.238836 
L 729.188728 582.926165 
L 736.948582 577.425309 
L 744.708435 571.044317 
L 760.228143 559.69055 
L 767.987997 552.517435 
L 780.182053 543.760072 
L 787.941906 537.071032 
L 800.135962 527.433532 
L 801.244513 527.037471 
L 802.353063 526.509389 
L 803.461614 525.23319 
L 805.678715 523.384902 
L 806.787266 522.372745 
L 809.004367 521.05254 
L 810.112917 520.568464 
L 811.221468 519.204252 
L 812.330018 518.236101 
L 813.438569 517.443978 
L 814.547119 515.991752 
L 815.65567 515.023602 
L 816.76422 514.715554 
L 817.872771 514.275485 
L 818.981322 512.867266 
L 820.089872 511.811102 
L 821.198423 511.062986 
L 822.306973 510.006821 
L 823.415524 509.126684 
L 825.632625 508.510588 
L 826.741175 507.718465 
L 827.849726 506.266239 
L 831.175377 503.537815 
L 833.392479 502.657678 
L 835.60958 501.337473 
L 837.826681 499.313158 
L 838.935231 498.565041 
L 841.152332 497.376856 
L 842.260883 496.056651 
L 843.369433 495.220521 
L 844.477984 494.12035 
L 845.586534 493.460247 
L 846.695085 492.58011 
L 847.803636 492.096035 
L 848.912186 491.831994 
L 850.020737 491.259905 
L 852.237838 489.191583 
L 856.67204 486.507165 
L 857.78059 485.406994 
L 858.889141 484.658878 
L 861.106242 482.546549 
L 862.214793 481.930453 
L 864.431894 480.830282 
L 866.648995 478.893981 
L 869.974646 475.549461 
L 872.191747 474.405283 
L 874.408849 472.512988 
L 875.517399 471.720865 
L 876.62595 470.752715 
L 877.7345 470.004598 
L 879.951601 469.608537 
L 881.060152 468.552372 
L 883.277253 466.924119 
L 884.385803 465.823948 
L 886.602904 464.81179 
L 887.711455 464.547749 
L 888.820006 463.711619 
L 891.037107 462.479427 
L 893.254208 460.76316 
L 894.362758 460.587133 
L 895.471309 460.191071 
L 898.79696 457.858709 
L 901.014062 455.790387 
L 904.339713 454.514188 
L 905.448264 453.810079 
L 906.556814 453.281997 
L 912.099567 449.981483 
L 913.208117 449.145353 
L 915.425219 447.165045 
L 919.859421 445.096723 
L 920.967971 444.656655 
L 922.076522 443.952545 
L 923.185072 442.940388 
L 924.293623 442.280285 
L 926.510724 441.576176 
L 927.619274 440.520011 
L 930.944926 438.187648 
L 932.053477 437.703573 
L 933.162027 436.955457 
L 934.270578 436.471381 
L 937.596229 434.491073 
L 939.81333 432.994841 
L 940.921881 432.554772 
L 942.030432 432.290731 
L 947.573184 427.581998 
L 949.790285 426.481827 
L 952.007386 424.853574 
L 953.115937 424.369499 
L 954.224487 423.181314 
L 955.333038 422.565218 
L 957.550139 421.641074 
L 958.65869 420.760937 
L 959.76724 419.484739 
L 960.875791 418.780629 
L 963.092892 416.756314 
L 965.309993 415.876177 
L 966.418543 414.86402 
L 967.527094 413.543815 
L 970.852746 410.463335 
L 971.961296 409.715219 
L 973.069847 409.231144 
L 974.178397 408.130972 
L 976.395498 406.942788 
L 978.612599 405.358541 
L 980.8297 404.478404 
L 981.938251 403.686281 
L 987.481004 400.253747 
L 988.589554 399.901692 
L 990.806655 397.921384 
L 993.023756 396.557172 
L 995.240857 395.545015 
L 996.349408 395.368987 
L 997.457959 394.048782 
L 1000.78361 391.936453 
L 1003.000711 391.056316 
L 1005.217812 389.60409 
L 1007.434913 388.371899 
L 1008.543464 387.139707 
L 1009.652014 386.215563 
L 1011.869116 385.599467 
L 1014.086217 383.267104 
L 1016.303318 381.37481 
L 1017.411868 380.626694 
L 1018.520419 380.186625 
L 1022.954621 377.414194 
L 1024.063171 376.446043 
L 1025.171722 375.785941 
L 1026.280273 375.433886 
L 1027.388823 375.257858 
L 1028.497374 374.465735 
L 1029.605924 373.057516 
L 1031.823025 371.253235 
L 1035.148677 370.197071 
L 1036.257227 369.492962 
L 1037.365778 369.052893 
L 1039.582879 367.600667 
L 1041.79998 366.676523 
L 1042.908531 366.456489 
L 1044.017081 365.576352 
L 1045.125632 364.520188 
L 1046.234182 363.904092 
L 1047.342733 363.420017 
L 1048.451283 362.803921 
L 1050.668384 361.791764 
L 1052.885486 359.723442 
L 1053.994036 358.711284 
L 1056.211137 357.171045 
L 1058.428238 356.422928 
L 1059.536789 355.586798 
L 1060.645339 354.222586 
L 1061.75389 353.210429 
L 1062.86244 352.77036 
L 1063.970991 352.110257 
L 1066.188092 351.406148 
L 1067.296643 350.437997 
L 1068.405193 349.645874 
L 1069.513744 349.161799 
L 1070.622294 347.709573 
L 1071.730845 346.961456 
L 1072.839395 346.653408 
L 1073.947946 346.081319 
L 1081.7078 340.756491 
L 1089.467653 334.903581 
L 1104.987361 324.561972 
L 1112.747215 318.665054 
L 1128.266922 308.939541 
L 1143.78663 299.61009 
L 1159.306337 289.180467 
L 1167.066191 284.075673 
L 1174.826045 279.807009 
L 1182.585899 277.034578 
L 1182.585899 277.034578 
" style="fill:none;stroke:#1f77b4;stroke-linecap:square;stroke-width:3;"/>
   </g>
   <g id="line2d_61">
    <path clip-path="url(#pcf9d62d56a)" d="M 721.428874 569.064009 
L 729.188728 562.110927 
L 736.948582 550.889181 
L 744.708435 541.251682 
L 752.468289 528.709731 
L 760.228143 513.307335 
L 767.987997 499.621206 
L 780.182053 472.116927 
L 787.941906 458.474804 
L 795.70176 442.368299 
L 796.810311 435.151176 
L 797.918861 433.478916 
L 799.027412 432.818813 
L 800.135962 430.090389 
L 801.244513 427.97806 
L 802.353063 427.934053 
L 803.461614 426.965903 
L 804.570164 423.445355 
L 805.678715 420.760937 
L 806.787266 419.704773 
L 807.895816 415.744157 
L 809.004367 415.568129 
L 811.221468 412.575664 
L 812.330018 409.407171 
L 813.438569 409.319157 
L 814.547119 408.042959 
L 815.65567 403.114192 
L 816.76422 402.542103 
L 817.872771 401.265905 
L 818.981322 401.133884 
L 820.089872 397.921384 
L 821.198423 396.381145 
L 822.306973 395.32498 
L 824.524074 390.572241 
L 825.632625 390.484227 
L 826.741175 389.032001 
L 827.849726 386.039536 
L 828.958276 384.71933 
L 830.066827 384.323269 
L 831.175377 381.726865 
L 832.283928 381.682858 
L 833.392479 380.450666 
L 834.501029 377.634228 
L 835.60958 376.710084 
L 838.935231 373.057516 
L 840.043782 371.121215 
L 841.152332 370.681146 
L 842.260883 369.492962 
L 843.369433 367.204606 
L 844.477984 365.840393 
L 845.586534 365.356318 
L 846.695085 363.904092 
L 847.803636 361.263681 
L 850.020737 361.131661 
L 851.129287 358.315223 
L 852.237838 356.95101 
L 856.67204 350.746045 
L 857.78059 349.953922 
L 858.889141 348.545703 
L 859.997692 347.75358 
L 861.106242 347.577552 
L 862.214793 344.145018 
L 864.431894 340.976525 
L 865.540444 339.744334 
L 866.648995 338.864197 
L 867.757545 336.179779 
L 868.866096 334.375498 
L 869.974646 333.803409 
L 871.083197 332.39519 
L 872.191747 331.691081 
L 873.300298 331.647074 
L 874.408849 327.114369 
L 875.517399 326.938341 
L 877.7345 323.241766 
L 879.951601 323.241766 
L 881.060152 323.109746 
L 882.168702 320.82139 
L 884.385803 318.841082 
L 885.494354 315.056493 
L 886.602904 313.824301 
L 887.711455 313.120192 
L 889.928556 311.139884 
L 891.037107 310.655808 
L 892.145657 310.435774 
L 894.362758 306.343137 
L 895.471309 305.771048 
L 896.579859 304.670877 
L 897.68841 302.866597 
L 898.79696 301.678412 
L 901.014062 301.502384 
L 904.339713 299.522076 
L 905.448264 295.649474 
L 906.556814 292.613001 
L 913.208117 286.760091 
L 915.425219 283.28355 
L 919.859421 278.794852 
L 920.967971 277.914715 
L 922.076522 277.606667 
L 923.185072 277.56266 
L 924.293623 272.325845 
L 925.402173 272.281839 
L 927.619274 271.665743 
L 928.727825 270.213517 
L 929.836376 267.309065 
L 930.944926 266.868996 
L 932.053477 264.800675 
L 933.162027 264.800675 
L 934.270578 263.832524 
L 937.596229 259.431839 
L 939.81333 258.287661 
L 940.921881 258.287661 
L 942.030432 257.495538 
L 943.138982 256.175333 
L 944.247533 254.415059 
L 945.356083 253.930984 
L 946.464634 253.666943 
L 947.573184 253.270881 
L 948.681735 253.270881 
L 949.790285 252.830813 
L 952.007386 250.366429 
L 953.115937 247.946053 
L 955.333038 246.845882 
L 956.441589 246.845882 
L 957.550139 246.229786 
L 958.65869 246.185779 
L 959.76724 243.765402 
L 960.875791 241.917115 
L 961.984341 241.653074 
L 963.092892 240.112834 
L 964.201442 240.112834 
L 965.309993 239.672766 
L 966.418543 238.880642 
L 967.527094 234.876019 
L 968.635644 234.567971 
L 970.852746 233.555814 
L 971.961296 233.33578 
L 973.069847 232.895711 
L 974.178397 232.763691 
L 975.286948 230.299307 
L 976.395498 226.822767 
L 977.504049 226.162664 
L 978.612599 224.754445 
L 979.72115 223.874308 
L 980.8297 223.786294 
L 981.938251 223.346226 
L 984.155352 222.246055 
L 985.263903 220.573794 
L 986.372453 218.373452 
L 987.481004 218.329445 
L 988.589554 217.933384 
L 989.698105 215.909069 
L 990.806655 215.557014 
L 991.915206 213.048624 
L 993.023756 212.652562 
L 995.240857 211.464377 
L 996.349408 211.024309 
L 997.457959 209.484069 
L 1000.78361 207.767802 
L 1001.892161 206.755645 
L 1003.000711 206.051535 
L 1005.217812 201.914892 
L 1007.434913 200.374652 
L 1008.543464 199.230474 
L 1009.652014 196.986125 
L 1011.869116 196.898111 
L 1012.977666 195.049824 
L 1014.086217 194.12568 
L 1015.194767 193.377563 
L 1016.303318 193.333557 
L 1017.411868 190.429105 
L 1018.520419 190.341091 
L 1022.954621 186.204448 
L 1024.063171 185.676365 
L 1025.171722 184.400167 
L 1026.280273 183.388009 
L 1027.388823 182.903934 
L 1028.497374 182.859927 
L 1029.605924 179.4714 
L 1030.714475 178.987325 
L 1031.823025 177.447085 
L 1035.148677 176.214894 
L 1037.365778 176.082873 
L 1038.474329 175.510784 
L 1039.582879 175.466777 
L 1041.79998 174.058558 
L 1042.908531 174.014551 
L 1044.017081 170.934072 
L 1045.125632 170.229962 
L 1046.234182 168.645716 
L 1047.342733 168.557702 
L 1048.451283 166.709415 
L 1049.559834 165.829278 
L 1050.668384 165.741264 
L 1051.776935 165.213182 
L 1052.885486 164.377052 
L 1053.994036 162.968833 
L 1055.102587 162.836812 
L 1056.211137 159.272258 
L 1057.319688 159.008217 
L 1060.645339 158.832189 
L 1061.75389 155.311642 
L 1062.86244 155.091607 
L 1063.970991 153.947429 
L 1065.079541 153.947429 
L 1066.188092 153.815409 
L 1067.296643 152.275169 
L 1068.405193 148.842635 
L 1069.513744 148.226539 
L 1070.622294 147.962498 
L 1071.730845 145.894177 
L 1072.839395 145.674142 
L 1073.947946 144.705992 
L 1081.7078 136.168664 
L 1089.467653 130.843835 
L 1097.227507 122.614555 
L 1104.987361 115.881507 
L 1112.747215 107.212159 
L 1128.266922 89.125345 
L 1136.026776 77.33151 
L 1143.78663 72.182709 
L 1152.655034 64.041443 
L 1159.306337 57.748464 
L 1167.066191 48.507026 
L 1174.826045 40.717814 
L 1182.585899 34.820897 
L 1182.585899 34.820897 
" style="fill:none;stroke:#ff7f0e;stroke-linecap:square;stroke-width:3;"/>
   </g>
   <g id="line2d_62">
    <path clip-path="url(#pcf9d62d56a)" d="M 721.428874 585.390549 
L 729.188728 583.718288 
L 736.948582 581.341919 
L 744.708435 578.525481 
L 752.468289 575.18096 
L 760.228143 571.396372 
L 767.987997 568.359899 
L 780.182053 562.506989 
L 787.941906 557.710242 
L 797.918861 553.177537 
L 799.027412 552.033359 
L 800.135962 551.197229 
L 802.353063 550.229079 
L 803.461614 549.612983 
L 805.678715 548.908873 
L 807.895816 547.456647 
L 810.112917 547.148599 
L 811.221468 546.312469 
L 812.330018 545.828394 
L 813.438569 544.948257 
L 814.547119 544.332161 
L 815.65567 543.23199 
L 817.872771 542.527881 
L 818.981322 541.69175 
L 820.089872 540.547572 
L 821.198423 539.711442 
L 822.306973 539.095347 
L 823.415524 538.171203 
L 824.524074 537.599114 
L 825.632625 537.291066 
L 826.741175 536.850997 
L 827.849726 535.97086 
L 830.066827 534.606648 
L 831.175377 534.034559 
L 833.392479 533.638498 
L 834.501029 532.846374 
L 835.60958 531.438155 
L 837.826681 529.853909 
L 840.043782 529.369834 
L 841.152332 529.193806 
L 842.260883 528.489697 
L 843.369433 527.917608 
L 844.477984 527.477539 
L 846.695085 526.157334 
L 848.912186 525.893293 
L 850.020737 525.189183 
L 851.129287 524.661101 
L 852.237838 523.69295 
L 856.67204 522.284731 
L 857.78059 521.448601 
L 859.997692 520.436444 
L 862.214793 518.80819 
L 864.431894 518.368122 
L 865.540444 517.531992 
L 867.757545 516.387814 
L 869.974646 515.023602 
L 872.191747 514.671547 
L 873.300298 514.187472 
L 875.517399 512.647232 
L 877.7345 511.767095 
L 879.951601 511.767095 
L 881.060152 510.886958 
L 882.168702 510.182849 
L 884.385803 509.170691 
L 885.494354 508.334561 
L 886.602904 508.158534 
L 888.820006 507.322404 
L 891.037107 506.090212 
L 893.254208 504.990041 
L 895.471309 504.417952 
L 896.579859 503.801856 
L 897.68841 503.493808 
L 901.014062 501.601514 
L 905.448264 500.017267 
L 906.556814 499.489185 
L 913.208117 496.980795 
L 915.425219 495.704596 
L 919.859421 493.900316 
L 924.293623 491.964014 
L 926.510724 491.61196 
L 927.619274 490.90785 
L 930.944926 489.675658 
L 932.053477 489.147576 
L 934.270578 488.971549 
L 937.596229 487.299289 
L 939.81333 486.331138 
L 940.921881 486.287131 
L 943.138982 485.935076 
L 946.464634 484.086789 
L 947.573184 483.338672 
L 949.790285 483.118638 
L 952.007386 482.018467 
L 953.115937 481.094323 
L 954.224487 480.478228 
L 955.333038 479.686104 
L 957.550139 479.510077 
L 958.65869 478.849974 
L 960.875791 477.881824 
L 963.092892 477.0897 
L 965.309993 476.825659 
L 966.418543 476.209563 
L 967.527094 475.769495 
L 968.635644 475.109392 
L 970.852746 474.141242 
L 971.961296 473.965214 
L 973.069847 473.657166 
L 975.286948 472.248947 
L 976.395498 471.940899 
L 978.612599 470.356653 
L 979.72115 470.312646 
L 980.8297 470.004598 
L 981.938251 469.212475 
L 984.155352 468.288331 
L 985.263903 467.452201 
L 986.372453 466.968126 
L 987.481004 466.748092 
L 988.589554 466.704085 
L 989.698105 465.911961 
L 990.806655 465.383879 
L 991.915206 464.635763 
L 993.023756 464.547749 
L 995.240857 463.887647 
L 996.349408 463.84364 
L 1001.892161 461.819325 
L 1003.000711 461.775318 
L 1005.217812 461.071208 
L 1007.434913 459.442955 
L 1009.652014 458.078743 
L 1011.869116 457.462647 
L 1012.977666 456.846551 
L 1014.086217 456.45049 
L 1015.194767 455.922407 
L 1016.303318 455.262305 
L 1017.411868 454.778229 
L 1018.520419 454.646209 
L 1022.954621 452.797921 
L 1024.063171 452.53388 
L 1025.171722 451.477716 
L 1026.280273 451.477716 
L 1027.388823 450.993641 
L 1029.605924 449.365387 
L 1031.823025 448.089189 
L 1035.148677 447.429086 
L 1037.365778 445.97686 
L 1038.474329 445.492785 
L 1040.69143 445.184737 
L 1041.79998 444.876689 
L 1042.908531 444.700662 
L 1044.017081 443.776518 
L 1045.125632 443.028401 
L 1048.451283 441.400148 
L 1050.668384 441.312134 
L 1051.776935 440.343984 
L 1052.885486 440.035936 
L 1056.211137 438.275662 
L 1058.428238 438.099635 
L 1059.536789 437.483539 
L 1060.645339 436.163333 
L 1063.970991 434.711108 
L 1065.079541 434.623094 
L 1067.296643 433.874977 
L 1068.405193 432.994841 
L 1069.513744 431.938676 
L 1072.839395 430.398437 
L 1073.947946 430.310423 
L 1081.7078 425.997752 
L 1089.467653 423.181314 
L 1097.227507 418.868643 
L 1104.987361 415.392102 
L 1112.747215 411.123438 
L 1136.026776 398.097412 
L 1143.78663 394.532857 
L 1152.655034 389.47207 
L 1159.306337 387.271727 
L 1167.066191 383.839193 
L 1174.826045 378.734399 
L 1182.585899 377.502208 
L 1182.585899 377.502208 
" style="fill:none;stroke:#2ca02c;stroke-linecap:square;stroke-width:3;"/>
   </g>
   <g id="patch_6">
    <path d="M 698.371023 594.72 
L 698.371023 7.2 
" style="fill:none;stroke:#000000;stroke-linecap:square;stroke-linejoin:miter;stroke-width:0.8;"/>
   </g>
   <g id="patch_7">
    <path d="M 698.371023 594.72 
L 1205.64375 594.72 
" style="fill:none;stroke:#000000;stroke-linecap:square;stroke-linejoin:miter;stroke-width:0.8;"/>
   </g>
   <g id="legend_1">
    <g id="patch_8">
     <path d="M 708.171023 80.048125 
L 814.299773 80.048125 
Q 817.099773 80.048125 817.099773 77.248125 
L 817.099773 17 
Q 817.099773 14.2 814.299773 14.2 
L 708.171023 14.2 
Q 705.371023 14.2 705.371023 17 
L 705.371023 77.248125 
Q 705.371023 80.048125 708.171023 80.048125 
z
" style="fill:#ffffff;opacity:0.8;stroke:#cccccc;stroke-linejoin:miter;"/>
    </g>
    <g id="line2d_63">
     <path d="M 710.971023 25.537813 
L 738.971023 25.537813 
" style="fill:none;stroke:#1f77b4;stroke-linecap:square;stroke-width:3;"/>
    </g>
    <g id="line2d_64"/>
    <g id="text_32">
     <!-- arXiv -->
     <defs>
      <path d="M 6.296875 72.90625 
L 16.890625 72.90625 
L 35.015625 45.796875 
L 53.21875 72.90625 
L 63.8125 72.90625 
L 40.375 37.890625 
L 65.375 0 
L 54.78125 0 
L 34.28125 31 
L 13.625 0 
L 2.984375 0 
L 29 38.921875 
z
" id="DejaVuSans-88"/>
      <path d="M 2.984375 54.6875 
L 12.5 54.6875 
L 29.59375 8.796875 
L 46.6875 54.6875 
L 56.203125 54.6875 
L 35.6875 0 
L 23.484375 0 
z
" id="DejaVuSans-118"/>
     </defs>
     <g transform="translate(750.171023 30.437813)scale(0.14 -0.14)">
      <use xlink:href="#DejaVuSans-97"/>
      <use x="61.279297" xlink:href="#DejaVuSans-114"/>
      <use x="102.392578" xlink:href="#DejaVuSans-88"/>
      <use x="170.898438" xlink:href="#DejaVuSans-105"/>
      <use x="198.681641" xlink:href="#DejaVuSans-118"/>
     </g>
    </g>
    <g id="line2d_65">
     <path d="M 710.971023 46.087188 
L 738.971023 46.087188 
" style="fill:none;stroke:#ff7f0e;stroke-linecap:square;stroke-width:3;"/>
    </g>
    <g id="line2d_66"/>
    <g id="text_33">
     <!-- medRxiv -->
     <defs>
      <path d="M 45.40625 46.390625 
L 45.40625 75.984375 
L 54.390625 75.984375 
L 54.390625 0 
L 45.40625 0 
L 45.40625 8.203125 
Q 42.578125 3.328125 38.25 0.953125 
Q 33.9375 -1.421875 27.875 -1.421875 
Q 17.96875 -1.421875 11.734375 6.484375 
Q 5.515625 14.40625 5.515625 27.296875 
Q 5.515625 40.1875 11.734375 48.09375 
Q 17.96875 56 27.875 56 
Q 33.9375 56 38.25 53.625 
Q 42.578125 51.265625 45.40625 46.390625 
z
M 14.796875 27.296875 
Q 14.796875 17.390625 18.875 11.75 
Q 22.953125 6.109375 30.078125 6.109375 
Q 37.203125 6.109375 41.296875 11.75 
Q 45.40625 17.390625 45.40625 27.296875 
Q 45.40625 37.203125 41.296875 42.84375 
Q 37.203125 48.484375 30.078125 48.484375 
Q 22.953125 48.484375 18.875 42.84375 
Q 14.796875 37.203125 14.796875 27.296875 
z
" id="DejaVuSans-100"/>
      <path d="M 44.390625 34.1875 
Q 47.5625 33.109375 50.5625 29.59375 
Q 53.5625 26.078125 56.59375 19.921875 
L 66.609375 0 
L 56 0 
L 46.6875 18.703125 
Q 43.0625 26.03125 39.671875 28.421875 
Q 36.28125 30.8125 30.421875 30.8125 
L 19.671875 30.8125 
L 19.671875 0 
L 9.8125 0 
L 9.8125 72.90625 
L 32.078125 72.90625 
Q 44.578125 72.90625 50.734375 67.671875 
Q 56.890625 62.453125 56.890625 51.90625 
Q 56.890625 45.015625 53.6875 40.46875 
Q 50.484375 35.9375 44.390625 34.1875 
z
M 19.671875 64.796875 
L 19.671875 38.921875 
L 32.078125 38.921875 
Q 39.203125 38.921875 42.84375 42.21875 
Q 46.484375 45.515625 46.484375 51.90625 
Q 46.484375 58.296875 42.84375 61.546875 
Q 39.203125 64.796875 32.078125 64.796875 
z
" id="DejaVuSans-82"/>
      <path d="M 54.890625 54.6875 
L 35.109375 28.078125 
L 55.90625 0 
L 45.3125 0 
L 29.390625 21.484375 
L 13.484375 0 
L 2.875 0 
L 24.125 28.609375 
L 4.6875 54.6875 
L 15.28125 54.6875 
L 29.78125 35.203125 
L 44.28125 54.6875 
z
" id="DejaVuSans-120"/>
     </defs>
     <g transform="translate(750.171023 50.987188)scale(0.14 -0.14)">
      <use xlink:href="#DejaVuSans-109"/>
      <use x="97.412109" xlink:href="#DejaVuSans-101"/>
      <use x="158.935547" xlink:href="#DejaVuSans-100"/>
      <use x="222.412109" xlink:href="#DejaVuSans-82"/>
      <use x="291.894531" xlink:href="#DejaVuSans-120"/>
      <use x="351.074219" xlink:href="#DejaVuSans-105"/>
      <use x="378.857422" xlink:href="#DejaVuSans-118"/>
     </g>
    </g>
    <g id="line2d_67">
     <path d="M 710.971023 66.636563 
L 738.971023 66.636563 
" style="fill:none;stroke:#2ca02c;stroke-linecap:square;stroke-width:3;"/>
    </g>
    <g id="line2d_68"/>
    <g id="text_34">
     <!-- bioRxiv -->
     <defs>
      <path d="M 48.6875 27.296875 
Q 48.6875 37.203125 44.609375 42.84375 
Q 40.53125 48.484375 33.40625 48.484375 
Q 26.265625 48.484375 22.1875 42.84375 
Q 18.109375 37.203125 18.109375 27.296875 
Q 18.109375 17.390625 22.1875 11.75 
Q 26.265625 6.109375 33.40625 6.109375 
Q 40.53125 6.109375 44.609375 11.75 
Q 48.6875 17.390625 48.6875 27.296875 
z
M 18.109375 46.390625 
Q 20.953125 51.265625 25.265625 53.625 
Q 29.59375 56 35.59375 56 
Q 45.5625 56 51.78125 48.09375 
Q 58.015625 40.1875 58.015625 27.296875 
Q 58.015625 14.40625 51.78125 6.484375 
Q 45.5625 -1.421875 35.59375 -1.421875 
Q 29.59375 -1.421875 25.265625 0.953125 
Q 20.953125 3.328125 18.109375 8.203125 
L 18.109375 0 
L 9.078125 0 
L 9.078125 75.984375 
L 18.109375 75.984375 
z
" id="DejaVuSans-98"/>
     </defs>
     <g transform="translate(750.171023 71.536563)scale(0.14 -0.14)">
      <use xlink:href="#DejaVuSans-98"/>
      <use x="63.476562" xlink:href="#DejaVuSans-105"/>
      <use x="91.259766" xlink:href="#DejaVuSans-111"/>
      <use x="152.441406" xlink:href="#DejaVuSans-82"/>
      <use x="221.923828" xlink:href="#DejaVuSans-120"/>
      <use x="281.103516" xlink:href="#DejaVuSans-105"/>
      <use x="308.886719" xlink:href="#DejaVuSans-118"/>
     </g>
    </g>
   </g>
  </g>
 </g>
 <defs>
  <clipPath id="pcc5d57f60f">
   <rect height="587.52" width="507.272727" x="89.64375" y="7.2"/>
  </clipPath>
  <clipPath id="pcf9d62d56a">
   <rect height="587.52" width="507.272727" x="698.371023" y="7.2"/>
  </clipPath>
 </defs>
</svg>
