<?xml version="1.0" encoding="utf-8" standalone="no"?>
<!DOCTYPE svg PUBLIC "-//W3C//DTD SVG 1.1//EN"
  "http://www.w3.org/Graphics/SVG/1.1/DTD/svg11.dtd">
<!-- Created with matplotlib (https://matplotlib.org/) -->
<svg height="679.17498pt" version="1.1" viewBox="0 0 840.3725 679.17498" width="840.3725pt" xmlns="http://www.w3.org/2000/svg" xmlns:xlink="http://www.w3.org/1999/xlink">
 <defs>
  <style type="text/css">
*{stroke-linecap:butt;stroke-linejoin:round;}
  </style>
 </defs>
 <g id="figure_1">
  <g id="patch_1">
   <path d="M -0 679.17498 
L 840.3725 679.17498 
L 840.3725 0 
L -0 0 
z
" style="fill:#ffffff;"/>
  </g>
  <g id="axes_1">
   <g id="patch_2">
    <path d="M 163.5725 274.254545 
L 833.1725 274.254545 
L 833.1725 7.2 
L 163.5725 7.2 
z
" style="fill:#ffffff;"/>
   </g>
   <g id="matplotlib.axis_1">
    <g id="xtick_1">
     <g id="line2d_1">
      <path clip-path="url(#p811e593be8)" d="M 203.774542 274.254545 
L 203.774542 7.2 
" style="fill:none;stroke:#d3d3d3;stroke-linecap:square;stroke-width:0.8;"/>
     </g>
     <g id="line2d_2">
      <defs>
       <path d="M 0 0 
L 0 3.5 
" id="mad585784d0" style="stroke:#000000;stroke-width:0.8;"/>
      </defs>
      <g>
       <use style="stroke:#000000;stroke-width:0.8;" x="203.774542" xlink:href="#mad585784d0" y="274.254545"/>
      </g>
     </g>
    </g>
    <g id="xtick_2">
     <g id="line2d_3">
      <path clip-path="url(#p811e593be8)" d="M 277.830935 274.254545 
L 277.830935 7.2 
" style="fill:none;stroke:#d3d3d3;stroke-linecap:square;stroke-width:0.8;"/>
     </g>
     <g id="line2d_4">
      <g>
       <use style="stroke:#000000;stroke-width:0.8;" x="277.830935" xlink:href="#mad585784d0" y="274.254545"/>
      </g>
     </g>
    </g>
    <g id="xtick_3">
     <g id="line2d_5">
      <path clip-path="url(#p811e593be8)" d="M 352.701134 274.254545 
L 352.701134 7.2 
" style="fill:none;stroke:#d3d3d3;stroke-linecap:square;stroke-width:0.8;"/>
     </g>
     <g id="line2d_6">
      <g>
       <use style="stroke:#000000;stroke-width:0.8;" x="352.701134" xlink:href="#mad585784d0" y="274.254545"/>
      </g>
     </g>
    </g>
    <g id="xtick_4">
     <g id="line2d_7">
      <path clip-path="url(#p811e593be8)" d="M 427.571333 274.254545 
L 427.571333 7.2 
" style="fill:none;stroke:#d3d3d3;stroke-linecap:square;stroke-width:0.8;"/>
     </g>
     <g id="line2d_8">
      <g>
       <use style="stroke:#000000;stroke-width:0.8;" x="427.571333" xlink:href="#mad585784d0" y="274.254545"/>
      </g>
     </g>
    </g>
    <g id="xtick_5">
     <g id="line2d_9">
      <path clip-path="url(#p811e593be8)" d="M 500.81392 274.254545 
L 500.81392 7.2 
" style="fill:none;stroke:#d3d3d3;stroke-linecap:square;stroke-width:0.8;"/>
     </g>
     <g id="line2d_10">
      <g>
       <use style="stroke:#000000;stroke-width:0.8;" x="500.81392" xlink:href="#mad585784d0" y="274.254545"/>
      </g>
     </g>
    </g>
    <g id="xtick_6">
     <g id="line2d_11">
      <path clip-path="url(#p811e593be8)" d="M 574.870312 274.254545 
L 574.870312 7.2 
" style="fill:none;stroke:#d3d3d3;stroke-linecap:square;stroke-width:0.8;"/>
     </g>
     <g id="line2d_12">
      <g>
       <use style="stroke:#000000;stroke-width:0.8;" x="574.870312" xlink:href="#mad585784d0" y="274.254545"/>
      </g>
     </g>
    </g>
    <g id="xtick_7">
     <g id="line2d_13">
      <path clip-path="url(#p811e593be8)" d="M 649.740512 274.254545 
L 649.740512 7.2 
" style="fill:none;stroke:#d3d3d3;stroke-linecap:square;stroke-width:0.8;"/>
     </g>
     <g id="line2d_14">
      <g>
       <use style="stroke:#000000;stroke-width:0.8;" x="649.740512" xlink:href="#mad585784d0" y="274.254545"/>
      </g>
     </g>
    </g>
    <g id="xtick_8">
     <g id="line2d_15">
      <path clip-path="url(#p811e593be8)" d="M 724.610711 274.254545 
L 724.610711 7.2 
" style="fill:none;stroke:#d3d3d3;stroke-linecap:square;stroke-width:0.8;"/>
     </g>
     <g id="line2d_16">
      <g>
       <use style="stroke:#000000;stroke-width:0.8;" x="724.610711" xlink:href="#mad585784d0" y="274.254545"/>
      </g>
     </g>
    </g>
    <g id="xtick_9">
     <g id="line2d_17">
      <path clip-path="url(#p811e593be8)" d="M 797.853297 274.254545 
L 797.853297 7.2 
" style="fill:none;stroke:#d3d3d3;stroke-linecap:square;stroke-width:0.8;"/>
     </g>
     <g id="line2d_18">
      <g>
       <use style="stroke:#000000;stroke-width:0.8;" x="797.853297" xlink:href="#mad585784d0" y="274.254545"/>
      </g>
     </g>
    </g>
   </g>
   <g id="matplotlib.axis_2">
    <g id="ytick_1">
     <g id="line2d_19">
      <path clip-path="url(#p811e593be8)" d="M 163.5725 274.254545 
L 833.1725 274.254545 
" style="fill:none;stroke:#d3d3d3;stroke-linecap:square;stroke-width:0.8;"/>
     </g>
     <g id="line2d_20">
      <defs>
       <path d="M 0 0 
L -3.5 0 
" id="m2e79b33e8d" style="stroke:#000000;stroke-width:0.8;"/>
      </defs>
      <g>
       <use style="stroke:#000000;stroke-width:0.8;" x="163.5725" xlink:href="#m2e79b33e8d" y="274.254545"/>
      </g>
     </g>
     <g id="text_1">
      <!-- 0 -->
      <defs>
       <path d="M 31.78125 66.40625 
Q 24.171875 66.40625 20.328125 58.90625 
Q 16.5 51.421875 16.5 36.375 
Q 16.5 21.390625 20.328125 13.890625 
Q 24.171875 6.390625 31.78125 6.390625 
Q 39.453125 6.390625 43.28125 13.890625 
Q 47.125 21.390625 47.125 36.375 
Q 47.125 51.421875 43.28125 58.90625 
Q 39.453125 66.40625 31.78125 66.40625 
z
M 31.78125 74.21875 
Q 44.046875 74.21875 50.515625 64.515625 
Q 56.984375 54.828125 56.984375 36.375 
Q 56.984375 17.96875 50.515625 8.265625 
Q 44.046875 -1.421875 31.78125 -1.421875 
Q 19.53125 -1.421875 13.0625 8.265625 
Q 6.59375 17.96875 6.59375 36.375 
Q 6.59375 54.828125 13.0625 64.515625 
Q 19.53125 74.21875 31.78125 74.21875 
z
" id="DejaVuSans-48"/>
      </defs>
      <g transform="translate(141.3025 283.37267)scale(0.24 -0.24)">
       <use xlink:href="#DejaVuSans-48"/>
      </g>
     </g>
    </g>
    <g id="ytick_2">
     <g id="line2d_21">
      <path clip-path="url(#p811e593be8)" d="M 163.5725 210.558808 
L 833.1725 210.558808 
" style="fill:none;stroke:#d3d3d3;stroke-linecap:square;stroke-width:0.8;"/>
     </g>
     <g id="line2d_22">
      <g>
       <use style="stroke:#000000;stroke-width:0.8;" x="163.5725" xlink:href="#m2e79b33e8d" y="210.558808"/>
      </g>
     </g>
     <g id="text_2">
      <!-- 250,000 -->
      <defs>
       <path d="M 19.1875 8.296875 
L 53.609375 8.296875 
L 53.609375 0 
L 7.328125 0 
L 7.328125 8.296875 
Q 12.9375 14.109375 22.625 23.890625 
Q 32.328125 33.6875 34.8125 36.53125 
Q 39.546875 41.84375 41.421875 45.53125 
Q 43.3125 49.21875 43.3125 52.78125 
Q 43.3125 58.59375 39.234375 62.25 
Q 35.15625 65.921875 28.609375 65.921875 
Q 23.96875 65.921875 18.8125 64.3125 
Q 13.671875 62.703125 7.8125 59.421875 
L 7.8125 69.390625 
Q 13.765625 71.78125 18.9375 73 
Q 24.125 74.21875 28.421875 74.21875 
Q 39.75 74.21875 46.484375 68.546875 
Q 53.21875 62.890625 53.21875 53.421875 
Q 53.21875 48.921875 51.53125 44.890625 
Q 49.859375 40.875 45.40625 35.40625 
Q 44.1875 33.984375 37.640625 27.21875 
Q 31.109375 20.453125 19.1875 8.296875 
z
" id="DejaVuSans-50"/>
       <path d="M 10.796875 72.90625 
L 49.515625 72.90625 
L 49.515625 64.59375 
L 19.828125 64.59375 
L 19.828125 46.734375 
Q 21.96875 47.46875 24.109375 47.828125 
Q 26.265625 48.1875 28.421875 48.1875 
Q 40.625 48.1875 47.75 41.5 
Q 54.890625 34.8125 54.890625 23.390625 
Q 54.890625 11.625 47.5625 5.09375 
Q 40.234375 -1.421875 26.90625 -1.421875 
Q 22.3125 -1.421875 17.546875 -0.640625 
Q 12.796875 0.140625 7.71875 1.703125 
L 7.71875 11.625 
Q 12.109375 9.234375 16.796875 8.0625 
Q 21.484375 6.890625 26.703125 6.890625 
Q 35.15625 6.890625 40.078125 11.328125 
Q 45.015625 15.765625 45.015625 23.390625 
Q 45.015625 31 40.078125 35.4375 
Q 35.15625 39.890625 26.703125 39.890625 
Q 22.75 39.890625 18.8125 39.015625 
Q 14.890625 38.140625 10.796875 36.28125 
z
" id="DejaVuSans-53"/>
       <path d="M 11.71875 12.40625 
L 22.015625 12.40625 
L 22.015625 4 
L 14.015625 -11.625 
L 7.71875 -11.625 
L 11.71875 4 
z
" id="DejaVuSans-44"/>
      </defs>
      <g transform="translate(57.325 219.676933)scale(0.24 -0.24)">
       <use xlink:href="#DejaVuSans-50"/>
       <use x="63.623047" xlink:href="#DejaVuSans-53"/>
       <use x="127.246094" xlink:href="#DejaVuSans-48"/>
       <use x="190.869141" xlink:href="#DejaVuSans-44"/>
       <use x="222.65625" xlink:href="#DejaVuSans-48"/>
       <use x="286.279297" xlink:href="#DejaVuSans-48"/>
       <use x="349.902344" xlink:href="#DejaVuSans-48"/>
      </g>
     </g>
    </g>
    <g id="ytick_3">
     <g id="line2d_23">
      <path clip-path="url(#p811e593be8)" d="M 163.5725 146.86307 
L 833.1725 146.86307 
" style="fill:none;stroke:#d3d3d3;stroke-linecap:square;stroke-width:0.8;"/>
     </g>
     <g id="line2d_24">
      <g>
       <use style="stroke:#000000;stroke-width:0.8;" x="163.5725" xlink:href="#m2e79b33e8d" y="146.86307"/>
      </g>
     </g>
     <g id="text_3">
      <!-- 500,000 -->
      <g transform="translate(57.325 155.981195)scale(0.24 -0.24)">
       <use xlink:href="#DejaVuSans-53"/>
       <use x="63.623047" xlink:href="#DejaVuSans-48"/>
       <use x="127.246094" xlink:href="#DejaVuSans-48"/>
       <use x="190.869141" xlink:href="#DejaVuSans-44"/>
       <use x="222.65625" xlink:href="#DejaVuSans-48"/>
       <use x="286.279297" xlink:href="#DejaVuSans-48"/>
       <use x="349.902344" xlink:href="#DejaVuSans-48"/>
      </g>
     </g>
    </g>
    <g id="ytick_4">
     <g id="line2d_25">
      <path clip-path="url(#p811e593be8)" d="M 163.5725 83.167333 
L 833.1725 83.167333 
" style="fill:none;stroke:#d3d3d3;stroke-linecap:square;stroke-width:0.8;"/>
     </g>
     <g id="line2d_26">
      <g>
       <use style="stroke:#000000;stroke-width:0.8;" x="163.5725" xlink:href="#m2e79b33e8d" y="83.167333"/>
      </g>
     </g>
     <g id="text_4">
      <!-- 750,000 -->
      <defs>
       <path d="M 8.203125 72.90625 
L 55.078125 72.90625 
L 55.078125 68.703125 
L 28.609375 0 
L 18.3125 0 
L 43.21875 64.59375 
L 8.203125 64.59375 
z
" id="DejaVuSans-55"/>
      </defs>
      <g transform="translate(57.325 92.285458)scale(0.24 -0.24)">
       <use xlink:href="#DejaVuSans-55"/>
       <use x="63.623047" xlink:href="#DejaVuSans-53"/>
       <use x="127.246094" xlink:href="#DejaVuSans-48"/>
       <use x="190.869141" xlink:href="#DejaVuSans-44"/>
       <use x="222.65625" xlink:href="#DejaVuSans-48"/>
       <use x="286.279297" xlink:href="#DejaVuSans-48"/>
       <use x="349.902344" xlink:href="#DejaVuSans-48"/>
      </g>
     </g>
    </g>
    <g id="ytick_5">
     <g id="line2d_27">
      <path clip-path="url(#p811e593be8)" d="M 163.5725 19.471595 
L 833.1725 19.471595 
" style="fill:none;stroke:#d3d3d3;stroke-linecap:square;stroke-width:0.8;"/>
     </g>
     <g id="line2d_28">
      <g>
       <use style="stroke:#000000;stroke-width:0.8;" x="163.5725" xlink:href="#m2e79b33e8d" y="19.471595"/>
      </g>
     </g>
     <g id="text_5">
      <!-- 1,000,000 -->
      <defs>
       <path d="M 12.40625 8.296875 
L 28.515625 8.296875 
L 28.515625 63.921875 
L 10.984375 60.40625 
L 10.984375 69.390625 
L 28.421875 72.90625 
L 38.28125 72.90625 
L 38.28125 8.296875 
L 54.390625 8.296875 
L 54.390625 0 
L 12.40625 0 
z
" id="DejaVuSans-49"/>
      </defs>
      <g transform="translate(34.4275 28.58972)scale(0.24 -0.24)">
       <use xlink:href="#DejaVuSans-49"/>
       <use x="63.623047" xlink:href="#DejaVuSans-44"/>
       <use x="95.410156" xlink:href="#DejaVuSans-48"/>
       <use x="159.033203" xlink:href="#DejaVuSans-48"/>
       <use x="222.65625" xlink:href="#DejaVuSans-48"/>
       <use x="286.279297" xlink:href="#DejaVuSans-44"/>
       <use x="318.066406" xlink:href="#DejaVuSans-48"/>
       <use x="381.689453" xlink:href="#DejaVuSans-48"/>
       <use x="445.3125" xlink:href="#DejaVuSans-48"/>
      </g>
     </g>
    </g>
    <g id="text_6">
     <!-- Total manuscripts -->
     <defs>
      <path d="M -0.296875 72.90625 
L 61.375 72.90625 
L 61.375 64.59375 
L 35.5 64.59375 
L 35.5 0 
L 25.59375 0 
L 25.59375 64.59375 
L -0.296875 64.59375 
z
" id="DejaVuSans-84"/>
      <path d="M 30.609375 48.390625 
Q 23.390625 48.390625 19.1875 42.75 
Q 14.984375 37.109375 14.984375 27.296875 
Q 14.984375 17.484375 19.15625 11.84375 
Q 23.34375 6.203125 30.609375 6.203125 
Q 37.796875 6.203125 41.984375 11.859375 
Q 46.1875 17.53125 46.1875 27.296875 
Q 46.1875 37.015625 41.984375 42.703125 
Q 37.796875 48.390625 30.609375 48.390625 
z
M 30.609375 56 
Q 42.328125 56 49.015625 48.375 
Q 55.71875 40.765625 55.71875 27.296875 
Q 55.71875 13.875 49.015625 6.21875 
Q 42.328125 -1.421875 30.609375 -1.421875 
Q 18.84375 -1.421875 12.171875 6.21875 
Q 5.515625 13.875 5.515625 27.296875 
Q 5.515625 40.765625 12.171875 48.375 
Q 18.84375 56 30.609375 56 
z
" id="DejaVuSans-111"/>
      <path d="M 18.3125 70.21875 
L 18.3125 54.6875 
L 36.8125 54.6875 
L 36.8125 47.703125 
L 18.3125 47.703125 
L 18.3125 18.015625 
Q 18.3125 11.328125 20.140625 9.421875 
Q 21.96875 7.515625 27.59375 7.515625 
L 36.8125 7.515625 
L 36.8125 0 
L 27.59375 0 
Q 17.1875 0 13.234375 3.875 
Q 9.28125 7.765625 9.28125 18.015625 
L 9.28125 47.703125 
L 2.6875 47.703125 
L 2.6875 54.6875 
L 9.28125 54.6875 
L 9.28125 70.21875 
z
" id="DejaVuSans-116"/>
      <path d="M 34.28125 27.484375 
Q 23.390625 27.484375 19.1875 25 
Q 14.984375 22.515625 14.984375 16.5 
Q 14.984375 11.71875 18.140625 8.90625 
Q 21.296875 6.109375 26.703125 6.109375 
Q 34.1875 6.109375 38.703125 11.40625 
Q 43.21875 16.703125 43.21875 25.484375 
L 43.21875 27.484375 
z
M 52.203125 31.203125 
L 52.203125 0 
L 43.21875 0 
L 43.21875 8.296875 
Q 40.140625 3.328125 35.546875 0.953125 
Q 30.953125 -1.421875 24.3125 -1.421875 
Q 15.921875 -1.421875 10.953125 3.296875 
Q 6 8.015625 6 15.921875 
Q 6 25.140625 12.171875 29.828125 
Q 18.359375 34.515625 30.609375 34.515625 
L 43.21875 34.515625 
L 43.21875 35.40625 
Q 43.21875 41.609375 39.140625 45 
Q 35.0625 48.390625 27.6875 48.390625 
Q 23 48.390625 18.546875 47.265625 
Q 14.109375 46.140625 10.015625 43.890625 
L 10.015625 52.203125 
Q 14.9375 54.109375 19.578125 55.046875 
Q 24.21875 56 28.609375 56 
Q 40.484375 56 46.34375 49.84375 
Q 52.203125 43.703125 52.203125 31.203125 
z
" id="DejaVuSans-97"/>
      <path d="M 9.421875 75.984375 
L 18.40625 75.984375 
L 18.40625 0 
L 9.421875 0 
z
" id="DejaVuSans-108"/>
      <path id="DejaVuSans-32"/>
      <path d="M 52 44.1875 
Q 55.375 50.25 60.0625 53.125 
Q 64.75 56 71.09375 56 
Q 79.640625 56 84.28125 50.015625 
Q 88.921875 44.046875 88.921875 33.015625 
L 88.921875 0 
L 79.890625 0 
L 79.890625 32.71875 
Q 79.890625 40.578125 77.09375 44.375 
Q 74.3125 48.1875 68.609375 48.1875 
Q 61.625 48.1875 57.5625 43.546875 
Q 53.515625 38.921875 53.515625 30.90625 
L 53.515625 0 
L 44.484375 0 
L 44.484375 32.71875 
Q 44.484375 40.625 41.703125 44.40625 
Q 38.921875 48.1875 33.109375 48.1875 
Q 26.21875 48.1875 22.15625 43.53125 
Q 18.109375 38.875 18.109375 30.90625 
L 18.109375 0 
L 9.078125 0 
L 9.078125 54.6875 
L 18.109375 54.6875 
L 18.109375 46.1875 
Q 21.1875 51.21875 25.484375 53.609375 
Q 29.78125 56 35.6875 56 
Q 41.65625 56 45.828125 52.96875 
Q 50 49.953125 52 44.1875 
z
" id="DejaVuSans-109"/>
      <path d="M 54.890625 33.015625 
L 54.890625 0 
L 45.90625 0 
L 45.90625 32.71875 
Q 45.90625 40.484375 42.875 44.328125 
Q 39.84375 48.1875 33.796875 48.1875 
Q 26.515625 48.1875 22.3125 43.546875 
Q 18.109375 38.921875 18.109375 30.90625 
L 18.109375 0 
L 9.078125 0 
L 9.078125 54.6875 
L 18.109375 54.6875 
L 18.109375 46.1875 
Q 21.34375 51.125 25.703125 53.5625 
Q 30.078125 56 35.796875 56 
Q 45.21875 56 50.046875 50.171875 
Q 54.890625 44.34375 54.890625 33.015625 
z
" id="DejaVuSans-110"/>
      <path d="M 8.5 21.578125 
L 8.5 54.6875 
L 17.484375 54.6875 
L 17.484375 21.921875 
Q 17.484375 14.15625 20.5 10.265625 
Q 23.53125 6.390625 29.59375 6.390625 
Q 36.859375 6.390625 41.078125 11.03125 
Q 45.3125 15.671875 45.3125 23.6875 
L 45.3125 54.6875 
L 54.296875 54.6875 
L 54.296875 0 
L 45.3125 0 
L 45.3125 8.40625 
Q 42.046875 3.421875 37.71875 1 
Q 33.40625 -1.421875 27.6875 -1.421875 
Q 18.265625 -1.421875 13.375 4.4375 
Q 8.5 10.296875 8.5 21.578125 
z
M 31.109375 56 
z
" id="DejaVuSans-117"/>
      <path d="M 44.28125 53.078125 
L 44.28125 44.578125 
Q 40.484375 46.53125 36.375 47.5 
Q 32.28125 48.484375 27.875 48.484375 
Q 21.1875 48.484375 17.84375 46.4375 
Q 14.5 44.390625 14.5 40.28125 
Q 14.5 37.15625 16.890625 35.375 
Q 19.28125 33.59375 26.515625 31.984375 
L 29.59375 31.296875 
Q 39.15625 29.25 43.1875 25.515625 
Q 47.21875 21.78125 47.21875 15.09375 
Q 47.21875 7.46875 41.1875 3.015625 
Q 35.15625 -1.421875 24.609375 -1.421875 
Q 20.21875 -1.421875 15.453125 -0.5625 
Q 10.6875 0.296875 5.421875 2 
L 5.421875 11.28125 
Q 10.40625 8.6875 15.234375 7.390625 
Q 20.0625 6.109375 24.8125 6.109375 
Q 31.15625 6.109375 34.5625 8.28125 
Q 37.984375 10.453125 37.984375 14.40625 
Q 37.984375 18.0625 35.515625 20.015625 
Q 33.0625 21.96875 24.703125 23.78125 
L 21.578125 24.515625 
Q 13.234375 26.265625 9.515625 29.90625 
Q 5.8125 33.546875 5.8125 39.890625 
Q 5.8125 47.609375 11.28125 51.796875 
Q 16.75 56 26.8125 56 
Q 31.78125 56 36.171875 55.265625 
Q 40.578125 54.546875 44.28125 53.078125 
z
" id="DejaVuSans-115"/>
      <path d="M 48.78125 52.59375 
L 48.78125 44.1875 
Q 44.96875 46.296875 41.140625 47.34375 
Q 37.3125 48.390625 33.40625 48.390625 
Q 24.65625 48.390625 19.8125 42.84375 
Q 14.984375 37.3125 14.984375 27.296875 
Q 14.984375 17.28125 19.8125 11.734375 
Q 24.65625 6.203125 33.40625 6.203125 
Q 37.3125 6.203125 41.140625 7.25 
Q 44.96875 8.296875 48.78125 10.40625 
L 48.78125 2.09375 
Q 45.015625 0.34375 40.984375 -0.53125 
Q 36.96875 -1.421875 32.421875 -1.421875 
Q 20.0625 -1.421875 12.78125 6.34375 
Q 5.515625 14.109375 5.515625 27.296875 
Q 5.515625 40.671875 12.859375 48.328125 
Q 20.21875 56 33.015625 56 
Q 37.15625 56 41.109375 55.140625 
Q 45.0625 54.296875 48.78125 52.59375 
z
" id="DejaVuSans-99"/>
      <path d="M 41.109375 46.296875 
Q 39.59375 47.171875 37.8125 47.578125 
Q 36.03125 48 33.890625 48 
Q 26.265625 48 22.1875 43.046875 
Q 18.109375 38.09375 18.109375 28.8125 
L 18.109375 0 
L 9.078125 0 
L 9.078125 54.6875 
L 18.109375 54.6875 
L 18.109375 46.1875 
Q 20.953125 51.171875 25.484375 53.578125 
Q 30.03125 56 36.53125 56 
Q 37.453125 56 38.578125 55.875 
Q 39.703125 55.765625 41.0625 55.515625 
z
" id="DejaVuSans-114"/>
      <path d="M 9.421875 54.6875 
L 18.40625 54.6875 
L 18.40625 0 
L 9.421875 0 
z
M 9.421875 75.984375 
L 18.40625 75.984375 
L 18.40625 64.59375 
L 9.421875 64.59375 
z
" id="DejaVuSans-105"/>
      <path d="M 18.109375 8.203125 
L 18.109375 -20.796875 
L 9.078125 -20.796875 
L 9.078125 54.6875 
L 18.109375 54.6875 
L 18.109375 46.390625 
Q 20.953125 51.265625 25.265625 53.625 
Q 29.59375 56 35.59375 56 
Q 45.5625 56 51.78125 48.09375 
Q 58.015625 40.1875 58.015625 27.296875 
Q 58.015625 14.40625 51.78125 6.484375 
Q 45.5625 -1.421875 35.59375 -1.421875 
Q 29.59375 -1.421875 25.265625 0.953125 
Q 20.953125 3.328125 18.109375 8.203125 
z
M 48.6875 27.296875 
Q 48.6875 37.203125 44.609375 42.84375 
Q 40.53125 48.484375 33.40625 48.484375 
Q 26.265625 48.484375 22.1875 42.84375 
Q 18.109375 37.203125 18.109375 27.296875 
Q 18.109375 17.390625 22.1875 11.75 
Q 26.265625 6.109375 33.40625 6.109375 
Q 40.53125 6.109375 44.609375 11.75 
Q 48.6875 17.390625 48.6875 27.296875 
z
" id="DejaVuSans-112"/>
     </defs>
     <g transform="translate(25.43625 248.515398)rotate(-90)scale(0.24 -0.24)">
      <use xlink:href="#DejaVuSans-84"/>
      <use x="60.818359" xlink:href="#DejaVuSans-111"/>
      <use x="122" xlink:href="#DejaVuSans-116"/>
      <use x="161.208984" xlink:href="#DejaVuSans-97"/>
      <use x="222.488281" xlink:href="#DejaVuSans-108"/>
      <use x="250.271484" xlink:href="#DejaVuSans-32"/>
      <use x="282.058594" xlink:href="#DejaVuSans-109"/>
      <use x="379.470703" xlink:href="#DejaVuSans-97"/>
      <use x="440.75" xlink:href="#DejaVuSans-110"/>
      <use x="504.128906" xlink:href="#DejaVuSans-117"/>
      <use x="567.507812" xlink:href="#DejaVuSans-115"/>
      <use x="619.607422" xlink:href="#DejaVuSans-99"/>
      <use x="674.587891" xlink:href="#DejaVuSans-114"/>
      <use x="715.701172" xlink:href="#DejaVuSans-105"/>
      <use x="743.484375" xlink:href="#DejaVuSans-112"/>
      <use x="806.960938" xlink:href="#DejaVuSans-116"/>
      <use x="846.169922" xlink:href="#DejaVuSans-115"/>
     </g>
    </g>
   </g>
   <g id="line2d_29">
    <path clip-path="url(#p811e593be8)" d="M 194.008864 262.988043 
L 205.402155 262.203821 
L 211.0988 261.240742 
L 216.795446 260.904428 
L 222.492092 259.638667 
L 237.140609 258.057739 
L 242.837254 241.516975 
L 248.5339 240.061145 
L 249.347707 239.586994 
L 250.97532 238.888888 
L 251.789126 238.824174 
L 253.416739 238.449388 
L 254.230546 238.302378 
L 255.044352 239.820885 
L 256.671965 239.583172 
L 258.299578 239.455526 
L 259.113385 239.244565 
L 260.740998 238.637927 
L 264.81003 237.844788 
L 265.623837 236.922474 
L 266.437643 234.153238 
L 270.506676 233.75756 
L 271.320482 233.398571 
L 272.134289 233.468381 
L 272.948096 233.090793 
L 273.761902 232.586323 
L 274.575709 232.512181 
L 275.389515 231.586045 
L 276.203322 231.496361 
L 277.830935 230.98705 
L 279.458548 228.354633 
L 280.272354 228.02265 
L 281.899967 227.80048 
L 282.713774 227.593341 
L 283.52758 227.137789 
L 285.155193 226.628223 
L 286.782806 226.371147 
L 288.410419 225.68094 
L 290.038032 225.206535 
L 295.734678 223.774654 
L 298.989904 223.529298 
L 299.803711 222.752975 
L 300.617517 222.500994 
L 301.431324 222.40061 
L 303.058937 221.8434 
L 303.872743 221.579954 
L 305.500356 221.362879 
L 307.127969 220.646939 
L 307.941776 220.435979 
L 308.755582 220.613307 
L 312.010808 219.932273 
L 312.824615 219.341941 
L 313.638421 219.07289 
L 314.452228 217.016791 
L 315.266034 216.517672 
L 316.893647 216.304673 
L 318.52126 215.681983 
L 319.335067 215.572172 
L 320.96268 214.81776 
L 321.776486 214.75279 
L 322.590293 214.562977 
L 325.031712 213.44448 
L 325.845519 213.36142 
L 328.286939 212.555287 
L 329.914552 211.8182 
L 333.983584 210.516769 
L 334.797391 210.117269 
L 336.425004 209.678788 
L 338.866423 207.722309 
L 339.68023 207.370199 
L 340.494036 206.463682 
L 341.307843 206.437694 
L 342.121649 205.93093 
L 342.935456 205.225182 
L 343.749262 204.688609 
L 345.376875 204.435609 
L 346.190682 204.120443 
L 347.004488 203.675082 
L 347.818295 203.04908 
L 350.259714 202.223838 
L 357.583973 200.412077 
L 358.39778 199.450781 
L 359.211586 199.210266 
L 360.025393 197.865267 
L 360.839199 197.394937 
L 363.280619 196.711355 
L 365.722038 195.945222 
L 366.535845 195.474638 
L 367.349651 195.443809 
L 368.163458 195.059342 
L 368.977264 194.860102 
L 370.604877 193.756382 
L 372.23249 193.198662 
L 374.67391 192.592024 
L 375.487716 192.102076 
L 377.115329 189.972091 
L 377.929136 189.549915 
L 379.556749 189.288763 
L 380.370555 189.085191 
L 381.998168 187.824016 
L 383.625781 187.191899 
L 385.253395 186.924122 
L 386.881008 186.182959 
L 387.694814 186.033656 
L 388.508621 183.93297 
L 389.322427 183.666977 
L 390.95004 183.453979 
L 391.763847 183.125818 
L 393.39146 182.707465 
L 395.019073 182.147197 
L 396.646686 181.898019 
L 399.088105 180.689074 
L 399.901912 180.584358 
L 405.598557 178.963429 
L 406.412364 178.738456 
L 407.22617 178.68699 
L 409.66759 177.884168 
L 410.481396 177.544288 
L 411.295203 177.443649 
L 412.109009 176.974084 
L 416.991849 174.617341 
L 417.805655 174.357208 
L 419.433268 174.132999 
L 420.247075 173.688912 
L 421.060881 173.424193 
L 421.874688 173.413492 
L 425.94372 173.008897 
L 426.757527 172.311046 
L 430.012753 172.232573 
L 431.640366 171.980593 
L 432.454172 169.497733 
L 433.267979 169.030206 
L 434.081785 168.769308 
L 434.895592 168.214136 
L 436.523205 167.973876 
L 438.150818 167.285453 
L 439.778431 166.042876 
L 440.592237 165.80389 
L 441.406044 165.768984 
L 442.219851 165.43904 
L 443.847464 165.163111 
L 445.475077 164.396469 
L 446.288883 164.044613 
L 447.916496 163.824991 
L 449.544109 162.462921 
L 450.357916 162.374511 
L 451.171722 162.03565 
L 452.799335 161.861633 
L 458.495981 159.504126 
L 464.192626 156.857951 
L 469.889272 155.138166 
L 475.585918 152.78015 
L 481.282563 151.392856 
L 492.675854 149.180576 
L 498.3725 147.396586 
L 504.069146 141.217335 
L 510.579598 139.308501 
L 515.462437 137.482727 
L 521.159082 135.549179 
L 526.855728 133.377918 
L 532.552374 129.577576 
L 538.249019 126.670248 
L 543.945665 124.452107 
L 549.64231 121.482612 
L 561.035602 108.409189 
L 566.732247 106.22468 
L 572.428893 103.607805 
L 578.125538 100.582767 
L 583.822184 98.128442 
L 589.51883 93.573688 
L 595.215475 91.195034 
L 600.912121 88.325668 
L 606.608766 85.638218 
L 614.746832 83.498296 
L 618.002058 81.039131 
L 623.698703 78.344546 
L 629.395349 82.67229 
L 646.485286 79.461005 
L 657.878577 74.181648 
L 669.271868 69.963971 
L 674.968514 67.559839 
L 680.665159 64.751876 
L 686.361805 62.467747 
L 697.755096 58.816452 
L 709.148387 55.648991 
L 714.845033 53.458367 
L 726.238324 51.378574 
L 754.721552 42.504484 
L 775.880521 36.065099 
L 779.135747 33.665553 
L 797.039491 21.275204 
L 802.736136 19.380383 
L 802.736136 19.380383 
" style="fill:none;stroke:#1f77b4;stroke-linecap:square;stroke-width:5;"/>
   </g>
   <g id="patch_3">
    <path d="M 163.5725 274.254545 
L 163.5725 7.2 
" style="fill:none;stroke:#000000;stroke-linecap:square;stroke-linejoin:miter;stroke-width:0.8;"/>
   </g>
   <g id="patch_4">
    <path d="M 163.5725 274.254545 
L 833.1725 274.254545 
" style="fill:none;stroke:#000000;stroke-linecap:square;stroke-linejoin:miter;stroke-width:0.8;"/>
   </g>
  </g>
  <g id="axes_2">
   <g id="patch_5">
    <path d="M 163.5725 594.72 
L 833.1725 594.72 
L 833.1725 327.665455 
L 163.5725 327.665455 
z
" style="fill:#ffffff;"/>
   </g>
   <g id="matplotlib.axis_3">
    <g id="xtick_10">
     <g id="line2d_30">
      <path clip-path="url(#pbd83b2b2d7)" d="M 203.774542 594.72 
L 203.774542 327.665455 
" style="fill:none;stroke:#d3d3d3;stroke-linecap:square;stroke-width:0.8;"/>
     </g>
     <g id="line2d_31">
      <g>
       <use style="stroke:#000000;stroke-width:0.8;" x="203.774542" xlink:href="#mad585784d0" y="594.72"/>
      </g>
     </g>
     <g id="text_7">
      <!-- 2020-04 -->
      <defs>
       <path d="M 4.890625 31.390625 
L 31.203125 31.390625 
L 31.203125 23.390625 
L 4.890625 23.390625 
z
" id="DejaVuSans-45"/>
       <path d="M 37.796875 64.3125 
L 12.890625 25.390625 
L 37.796875 25.390625 
z
M 35.203125 72.90625 
L 47.609375 72.90625 
L 47.609375 25.390625 
L 58.015625 25.390625 
L 58.015625 17.1875 
L 47.609375 17.1875 
L 47.609375 0 
L 37.796875 0 
L 37.796875 17.1875 
L 4.890625 17.1875 
L 4.890625 26.703125 
z
" id="DejaVuSans-52"/>
      </defs>
      <g transform="translate(114.434972 667.652431)rotate(-30)scale(0.24 -0.24)">
       <use xlink:href="#DejaVuSans-50"/>
       <use x="63.623047" xlink:href="#DejaVuSans-48"/>
       <use x="127.246094" xlink:href="#DejaVuSans-50"/>
       <use x="190.869141" xlink:href="#DejaVuSans-48"/>
       <use x="254.492188" xlink:href="#DejaVuSans-45"/>
       <use x="290.576172" xlink:href="#DejaVuSans-48"/>
       <use x="354.199219" xlink:href="#DejaVuSans-52"/>
      </g>
     </g>
    </g>
    <g id="xtick_11">
     <g id="line2d_32">
      <path clip-path="url(#pbd83b2b2d7)" d="M 277.830935 594.72 
L 277.830935 327.665455 
" style="fill:none;stroke:#d3d3d3;stroke-linecap:square;stroke-width:0.8;"/>
     </g>
     <g id="line2d_33">
      <g>
       <use style="stroke:#000000;stroke-width:0.8;" x="277.830935" xlink:href="#mad585784d0" y="594.72"/>
      </g>
     </g>
     <g id="text_8">
      <!-- 2020-07 -->
      <g transform="translate(188.491365 667.652431)rotate(-30)scale(0.24 -0.24)">
       <use xlink:href="#DejaVuSans-50"/>
       <use x="63.623047" xlink:href="#DejaVuSans-48"/>
       <use x="127.246094" xlink:href="#DejaVuSans-50"/>
       <use x="190.869141" xlink:href="#DejaVuSans-48"/>
       <use x="254.492188" xlink:href="#DejaVuSans-45"/>
       <use x="290.576172" xlink:href="#DejaVuSans-48"/>
       <use x="354.199219" xlink:href="#DejaVuSans-55"/>
      </g>
     </g>
    </g>
    <g id="xtick_12">
     <g id="line2d_34">
      <path clip-path="url(#pbd83b2b2d7)" d="M 352.701134 594.72 
L 352.701134 327.665455 
" style="fill:none;stroke:#d3d3d3;stroke-linecap:square;stroke-width:0.8;"/>
     </g>
     <g id="line2d_35">
      <g>
       <use style="stroke:#000000;stroke-width:0.8;" x="352.701134" xlink:href="#mad585784d0" y="594.72"/>
      </g>
     </g>
     <g id="text_9">
      <!-- 2020-10 -->
      <g transform="translate(263.361564 667.652431)rotate(-30)scale(0.24 -0.24)">
       <use xlink:href="#DejaVuSans-50"/>
       <use x="63.623047" xlink:href="#DejaVuSans-48"/>
       <use x="127.246094" xlink:href="#DejaVuSans-50"/>
       <use x="190.869141" xlink:href="#DejaVuSans-48"/>
       <use x="254.492188" xlink:href="#DejaVuSans-45"/>
       <use x="290.576172" xlink:href="#DejaVuSans-49"/>
       <use x="354.199219" xlink:href="#DejaVuSans-48"/>
      </g>
     </g>
    </g>
    <g id="xtick_13">
     <g id="line2d_36">
      <path clip-path="url(#pbd83b2b2d7)" d="M 427.571333 594.72 
L 427.571333 327.665455 
" style="fill:none;stroke:#d3d3d3;stroke-linecap:square;stroke-width:0.8;"/>
     </g>
     <g id="line2d_37">
      <g>
       <use style="stroke:#000000;stroke-width:0.8;" x="427.571333" xlink:href="#mad585784d0" y="594.72"/>
      </g>
     </g>
     <g id="text_10">
      <!-- 2021-01 -->
      <g transform="translate(338.231763 667.652431)rotate(-30)scale(0.24 -0.24)">
       <use xlink:href="#DejaVuSans-50"/>
       <use x="63.623047" xlink:href="#DejaVuSans-48"/>
       <use x="127.246094" xlink:href="#DejaVuSans-50"/>
       <use x="190.869141" xlink:href="#DejaVuSans-49"/>
       <use x="254.492188" xlink:href="#DejaVuSans-45"/>
       <use x="290.576172" xlink:href="#DejaVuSans-48"/>
       <use x="354.199219" xlink:href="#DejaVuSans-49"/>
      </g>
     </g>
    </g>
    <g id="xtick_14">
     <g id="line2d_38">
      <path clip-path="url(#pbd83b2b2d7)" d="M 500.81392 594.72 
L 500.81392 327.665455 
" style="fill:none;stroke:#d3d3d3;stroke-linecap:square;stroke-width:0.8;"/>
     </g>
     <g id="line2d_39">
      <g>
       <use style="stroke:#000000;stroke-width:0.8;" x="500.81392" xlink:href="#mad585784d0" y="594.72"/>
      </g>
     </g>
     <g id="text_11">
      <!-- 2021-04 -->
      <g transform="translate(411.47435 667.652431)rotate(-30)scale(0.24 -0.24)">
       <use xlink:href="#DejaVuSans-50"/>
       <use x="63.623047" xlink:href="#DejaVuSans-48"/>
       <use x="127.246094" xlink:href="#DejaVuSans-50"/>
       <use x="190.869141" xlink:href="#DejaVuSans-49"/>
       <use x="254.492188" xlink:href="#DejaVuSans-45"/>
       <use x="290.576172" xlink:href="#DejaVuSans-48"/>
       <use x="354.199219" xlink:href="#DejaVuSans-52"/>
      </g>
     </g>
    </g>
    <g id="xtick_15">
     <g id="line2d_40">
      <path clip-path="url(#pbd83b2b2d7)" d="M 574.870312 594.72 
L 574.870312 327.665455 
" style="fill:none;stroke:#d3d3d3;stroke-linecap:square;stroke-width:0.8;"/>
     </g>
     <g id="line2d_41">
      <g>
       <use style="stroke:#000000;stroke-width:0.8;" x="574.870312" xlink:href="#mad585784d0" y="594.72"/>
      </g>
     </g>
     <g id="text_12">
      <!-- 2021-07 -->
      <g transform="translate(485.530742 667.652431)rotate(-30)scale(0.24 -0.24)">
       <use xlink:href="#DejaVuSans-50"/>
       <use x="63.623047" xlink:href="#DejaVuSans-48"/>
       <use x="127.246094" xlink:href="#DejaVuSans-50"/>
       <use x="190.869141" xlink:href="#DejaVuSans-49"/>
       <use x="254.492188" xlink:href="#DejaVuSans-45"/>
       <use x="290.576172" xlink:href="#DejaVuSans-48"/>
       <use x="354.199219" xlink:href="#DejaVuSans-55"/>
      </g>
     </g>
    </g>
    <g id="xtick_16">
     <g id="line2d_42">
      <path clip-path="url(#pbd83b2b2d7)" d="M 649.740512 594.72 
L 649.740512 327.665455 
" style="fill:none;stroke:#d3d3d3;stroke-linecap:square;stroke-width:0.8;"/>
     </g>
     <g id="line2d_43">
      <g>
       <use style="stroke:#000000;stroke-width:0.8;" x="649.740512" xlink:href="#mad585784d0" y="594.72"/>
      </g>
     </g>
     <g id="text_13">
      <!-- 2021-10 -->
      <g transform="translate(560.400942 667.652431)rotate(-30)scale(0.24 -0.24)">
       <use xlink:href="#DejaVuSans-50"/>
       <use x="63.623047" xlink:href="#DejaVuSans-48"/>
       <use x="127.246094" xlink:href="#DejaVuSans-50"/>
       <use x="190.869141" xlink:href="#DejaVuSans-49"/>
       <use x="254.492188" xlink:href="#DejaVuSans-45"/>
       <use x="290.576172" xlink:href="#DejaVuSans-49"/>
       <use x="354.199219" xlink:href="#DejaVuSans-48"/>
      </g>
     </g>
    </g>
    <g id="xtick_17">
     <g id="line2d_44">
      <path clip-path="url(#pbd83b2b2d7)" d="M 724.610711 594.72 
L 724.610711 327.665455 
" style="fill:none;stroke:#d3d3d3;stroke-linecap:square;stroke-width:0.8;"/>
     </g>
     <g id="line2d_45">
      <g>
       <use style="stroke:#000000;stroke-width:0.8;" x="724.610711" xlink:href="#mad585784d0" y="594.72"/>
      </g>
     </g>
     <g id="text_14">
      <!-- 2022-01 -->
      <g transform="translate(635.271141 667.652431)rotate(-30)scale(0.24 -0.24)">
       <use xlink:href="#DejaVuSans-50"/>
       <use x="63.623047" xlink:href="#DejaVuSans-48"/>
       <use x="127.246094" xlink:href="#DejaVuSans-50"/>
       <use x="190.869141" xlink:href="#DejaVuSans-50"/>
       <use x="254.492188" xlink:href="#DejaVuSans-45"/>
       <use x="290.576172" xlink:href="#DejaVuSans-48"/>
       <use x="354.199219" xlink:href="#DejaVuSans-49"/>
      </g>
     </g>
    </g>
    <g id="xtick_18">
     <g id="line2d_46">
      <path clip-path="url(#pbd83b2b2d7)" d="M 797.853297 594.72 
L 797.853297 327.665455 
" style="fill:none;stroke:#d3d3d3;stroke-linecap:square;stroke-width:0.8;"/>
     </g>
     <g id="line2d_47">
      <g>
       <use style="stroke:#000000;stroke-width:0.8;" x="797.853297" xlink:href="#mad585784d0" y="594.72"/>
      </g>
     </g>
     <g id="text_15">
      <!-- 2022-04 -->
      <g transform="translate(708.513727 667.652431)rotate(-30)scale(0.24 -0.24)">
       <use xlink:href="#DejaVuSans-50"/>
       <use x="63.623047" xlink:href="#DejaVuSans-48"/>
       <use x="127.246094" xlink:href="#DejaVuSans-50"/>
       <use x="190.869141" xlink:href="#DejaVuSans-50"/>
       <use x="254.492188" xlink:href="#DejaVuSans-45"/>
       <use x="290.576172" xlink:href="#DejaVuSans-48"/>
       <use x="354.199219" xlink:href="#DejaVuSans-52"/>
      </g>
     </g>
    </g>
   </g>
   <g id="matplotlib.axis_4">
    <g id="ytick_6">
     <g id="line2d_48">
      <path clip-path="url(#pbd83b2b2d7)" d="M 163.5725 594.72 
L 833.1725 594.72 
" style="fill:none;stroke:#d3d3d3;stroke-linecap:square;stroke-width:0.8;"/>
     </g>
     <g id="line2d_49">
      <g>
       <use style="stroke:#000000;stroke-width:0.8;" x="163.5725" xlink:href="#m2e79b33e8d" y="594.72"/>
      </g>
     </g>
     <g id="text_16">
      <!-- 0 -->
      <g transform="translate(141.3025 603.838125)scale(0.24 -0.24)">
       <use xlink:href="#DejaVuSans-48"/>
      </g>
     </g>
    </g>
    <g id="ytick_7">
     <g id="line2d_50">
      <path clip-path="url(#pbd83b2b2d7)" d="M 163.5725 528.167004 
L 833.1725 528.167004 
" style="fill:none;stroke:#d3d3d3;stroke-linecap:square;stroke-width:0.8;"/>
     </g>
     <g id="line2d_51">
      <g>
       <use style="stroke:#000000;stroke-width:0.8;" x="163.5725" xlink:href="#m2e79b33e8d" y="528.167004"/>
      </g>
     </g>
     <g id="text_17">
      <!-- 5,000 -->
      <g transform="translate(87.865 537.285129)scale(0.24 -0.24)">
       <use xlink:href="#DejaVuSans-53"/>
       <use x="63.623047" xlink:href="#DejaVuSans-44"/>
       <use x="95.410156" xlink:href="#DejaVuSans-48"/>
       <use x="159.033203" xlink:href="#DejaVuSans-48"/>
       <use x="222.65625" xlink:href="#DejaVuSans-48"/>
      </g>
     </g>
    </g>
    <g id="ytick_8">
     <g id="line2d_52">
      <path clip-path="url(#pbd83b2b2d7)" d="M 163.5725 461.614008 
L 833.1725 461.614008 
" style="fill:none;stroke:#d3d3d3;stroke-linecap:square;stroke-width:0.8;"/>
     </g>
     <g id="line2d_53">
      <g>
       <use style="stroke:#000000;stroke-width:0.8;" x="163.5725" xlink:href="#m2e79b33e8d" y="461.614008"/>
      </g>
     </g>
     <g id="text_18">
      <!-- 10,000 -->
      <g transform="translate(72.595 470.732133)scale(0.24 -0.24)">
       <use xlink:href="#DejaVuSans-49"/>
       <use x="63.623047" xlink:href="#DejaVuSans-48"/>
       <use x="127.246094" xlink:href="#DejaVuSans-44"/>
       <use x="159.033203" xlink:href="#DejaVuSans-48"/>
       <use x="222.65625" xlink:href="#DejaVuSans-48"/>
       <use x="286.279297" xlink:href="#DejaVuSans-48"/>
      </g>
     </g>
    </g>
    <g id="ytick_9">
     <g id="line2d_54">
      <path clip-path="url(#pbd83b2b2d7)" d="M 163.5725 395.061012 
L 833.1725 395.061012 
" style="fill:none;stroke:#d3d3d3;stroke-linecap:square;stroke-width:0.8;"/>
     </g>
     <g id="line2d_55">
      <g>
       <use style="stroke:#000000;stroke-width:0.8;" x="163.5725" xlink:href="#m2e79b33e8d" y="395.061012"/>
      </g>
     </g>
     <g id="text_19">
      <!-- 15,000 -->
      <g transform="translate(72.595 404.179137)scale(0.24 -0.24)">
       <use xlink:href="#DejaVuSans-49"/>
       <use x="63.623047" xlink:href="#DejaVuSans-53"/>
       <use x="127.246094" xlink:href="#DejaVuSans-44"/>
       <use x="159.033203" xlink:href="#DejaVuSans-48"/>
       <use x="222.65625" xlink:href="#DejaVuSans-48"/>
       <use x="286.279297" xlink:href="#DejaVuSans-48"/>
      </g>
     </g>
    </g>
    <g id="ytick_10">
     <g id="line2d_56">
      <path clip-path="url(#pbd83b2b2d7)" d="M 163.5725 328.508015 
L 833.1725 328.508015 
" style="fill:none;stroke:#d3d3d3;stroke-linecap:square;stroke-width:0.8;"/>
     </g>
     <g id="line2d_57">
      <g>
       <use style="stroke:#000000;stroke-width:0.8;" x="163.5725" xlink:href="#m2e79b33e8d" y="328.508015"/>
      </g>
     </g>
     <g id="text_20">
      <!-- 20,000 -->
      <g transform="translate(72.595 337.62614)scale(0.24 -0.24)">
       <use xlink:href="#DejaVuSans-50"/>
       <use x="63.623047" xlink:href="#DejaVuSans-48"/>
       <use x="127.246094" xlink:href="#DejaVuSans-44"/>
       <use x="159.033203" xlink:href="#DejaVuSans-48"/>
       <use x="222.65625" xlink:href="#DejaVuSans-48"/>
       <use x="286.279297" xlink:href="#DejaVuSans-48"/>
      </g>
     </g>
    </g>
    <g id="text_21">
     <!-- Preprints -->
     <defs>
      <path d="M 19.671875 64.796875 
L 19.671875 37.40625 
L 32.078125 37.40625 
Q 38.96875 37.40625 42.71875 40.96875 
Q 46.484375 44.53125 46.484375 51.125 
Q 46.484375 57.671875 42.71875 61.234375 
Q 38.96875 64.796875 32.078125 64.796875 
z
M 9.8125 72.90625 
L 32.078125 72.90625 
Q 44.34375 72.90625 50.609375 67.359375 
Q 56.890625 61.8125 56.890625 51.125 
Q 56.890625 40.328125 50.609375 34.8125 
Q 44.34375 29.296875 32.078125 29.296875 
L 19.671875 29.296875 
L 19.671875 0 
L 9.8125 0 
z
" id="DejaVuSans-80"/>
      <path d="M 56.203125 29.59375 
L 56.203125 25.203125 
L 14.890625 25.203125 
Q 15.484375 15.921875 20.484375 11.0625 
Q 25.484375 6.203125 34.421875 6.203125 
Q 39.59375 6.203125 44.453125 7.46875 
Q 49.3125 8.734375 54.109375 11.28125 
L 54.109375 2.78125 
Q 49.265625 0.734375 44.1875 -0.34375 
Q 39.109375 -1.421875 33.890625 -1.421875 
Q 20.796875 -1.421875 13.15625 6.1875 
Q 5.515625 13.8125 5.515625 26.8125 
Q 5.515625 40.234375 12.765625 48.109375 
Q 20.015625 56 32.328125 56 
Q 43.359375 56 49.78125 48.890625 
Q 56.203125 41.796875 56.203125 29.59375 
z
M 47.21875 32.234375 
Q 47.125 39.59375 43.09375 43.984375 
Q 39.0625 48.390625 32.421875 48.390625 
Q 24.90625 48.390625 20.390625 44.140625 
Q 15.875 39.890625 15.1875 32.171875 
z
" id="DejaVuSans-101"/>
     </defs>
     <g transform="translate(63.60375 515.185227)rotate(-90)scale(0.24 -0.24)">
      <use xlink:href="#DejaVuSans-80"/>
      <use x="60.287109" xlink:href="#DejaVuSans-114"/>
      <use x="101.369141" xlink:href="#DejaVuSans-101"/>
      <use x="162.892578" xlink:href="#DejaVuSans-112"/>
      <use x="226.369141" xlink:href="#DejaVuSans-114"/>
      <use x="267.482422" xlink:href="#DejaVuSans-105"/>
      <use x="295.265625" xlink:href="#DejaVuSans-110"/>
      <use x="358.644531" xlink:href="#DejaVuSans-116"/>
      <use x="397.853516" xlink:href="#DejaVuSans-115"/>
     </g>
    </g>
   </g>
   <g id="line2d_58">
    <path clip-path="url(#pbd83b2b2d7)" d="M 194.008864 592.177676 
L 199.705509 590.859926 
L 205.402155 589.209412 
L 211.0988 587.266064 
L 222.492092 583.898483 
L 228.188737 581.782098 
L 237.140609 579.146599 
L 242.837254 577.123388 
L 251.789126 574.27492 
L 253.416739 573.995397 
L 255.044352 573.329867 
L 257.485772 572.557852 
L 259.113385 572.198466 
L 260.740998 571.506315 
L 261.554804 571.280035 
L 262.368611 570.840785 
L 263.182417 570.561262 
L 264.81003 570.348293 
L 266.437643 569.576278 
L 268.065256 569.070475 
L 268.879063 568.804263 
L 270.506676 568.617915 
L 271.320482 568.391635 
L 272.134289 567.979006 
L 275.389515 567.060575 
L 277.830935 566.528151 
L 280.272354 565.676272 
L 281.899967 565.316886 
L 283.52758 564.651356 
L 284.341387 564.331902 
L 287.596613 563.639751 
L 288.410419 563.493334 
L 290.038032 562.854425 
L 294.107065 561.723025 
L 295.734678 561.190601 
L 296.548484 560.857836 
L 299.803711 560.07251 
L 301.431324 559.460223 
L 303.058937 558.794693 
L 304.68655 558.435307 
L 307.941776 557.290595 
L 308.755582 557.051004 
L 310.383195 556.931209 
L 312.010808 556.385474 
L 314.452228 555.653391 
L 317.707454 555.041104 
L 320.96268 554.2824 
L 322.590293 553.936324 
L 325.845519 552.818234 
L 329.914552 552.059529 
L 334.797391 550.808333 
L 336.425004 550.222667 
L 342.121649 548.944849 
L 343.749262 548.612084 
L 344.563069 548.51891 
L 347.004488 547.640411 
L 350.259714 546.96157 
L 354.328747 545.976586 
L 355.95636 545.790237 
L 359.211586 544.685458 
L 360.025393 544.379314 
L 361.653006 544.059859 
L 363.280619 543.567367 
L 364.094425 543.460882 
L 364.908232 543.128117 
L 368.163458 542.382724 
L 368.977264 541.983406 
L 370.604877 541.490914 
L 371.418684 541.198081 
L 373.046297 540.931869 
L 377.929136 539.068385 
L 378.742942 538.921968 
L 379.556749 538.615824 
L 381.998168 538.056779 
L 382.811975 537.790567 
L 384.439588 537.497734 
L 388.508621 536.406265 
L 390.95004 535.86053 
L 391.763847 535.541076 
L 395.019073 534.848925 
L 395.832879 534.822303 
L 396.646686 534.449607 
L 399.901912 533.690903 
L 400.715718 533.571107 
L 403.970944 532.74585 
L 405.598557 532.120252 
L 407.22617 531.933903 
L 409.66759 530.97554 
L 411.295203 530.496359 
L 412.109009 530.349942 
L 417.805655 528.859155 
L 418.619462 528.805913 
L 419.433268 528.553011 
L 420.247075 528.153693 
L 421.874688 527.607959 
L 424.316107 527.315126 
L 427.571333 526.489868 
L 430.826559 525.904202 
L 431.640366 525.584748 
L 436.523205 524.493278 
L 438.150818 523.894302 
L 440.592237 523.321946 
L 441.406044 523.215461 
L 442.219851 522.97587 
L 443.847464 522.257098 
L 447.10269 521.684742 
L 448.730303 521.165629 
L 449.544109 521.005901 
L 450.357916 520.593273 
L 451.171722 520.340372 
L 452.799335 520.060849 
L 458.495981 518.543441 
L 464.192626 516.799752 
L 475.585918 513.658451 
L 481.282563 511.888141 
L 498.3725 507.495643 
L 504.069146 506.151273 
L 526.855728 499.975155 
L 532.552374 498.564231 
L 538.249019 497.033512 
L 549.64231 493.65262 
L 561.035602 489.739304 
L 578.125538 484.681276 
L 583.822184 483.283663 
L 589.51883 481.673081 
L 595.215475 480.288778 
L 600.912121 478.75806 
L 606.608766 476.961129 
L 614.746832 474.804812 
L 618.002058 473.553615 
L 623.698703 472.062828 
L 629.395349 470.359071 
L 640.78864 466.77852 
L 646.485286 465.327665 
L 657.878577 461.467591 
L 663.575222 459.683971 
L 669.271868 458.246426 
L 674.968514 456.529359 
L 680.665159 454.639254 
L 686.361805 453.055292 
L 709.148387 447.025591 
L 714.845033 445.029001 
L 726.238324 442.752889 
L 754.721552 435.259021 
L 775.880521 428.949797 
L 779.135747 428.191093 
L 797.039491 423.346035 
L 802.736136 422.480846 
L 802.736136 422.480846 
" style="fill:none;stroke:#1f77b4;stroke-linecap:square;stroke-width:5;"/>
   </g>
   <g id="line2d_59">
    <path clip-path="url(#pbd83b2b2d7)" d="M 194.008864 586.959921 
L 199.705509 584.856846 
L 205.402155 581.462643 
L 211.0988 578.521001 
L 216.795446 574.72748 
L 222.492092 570.028838 
L 228.188737 565.889242 
L 237.140609 557.556807 
L 242.837254 553.430521 
L 248.5339 548.572152 
L 249.347707 546.389214 
L 250.161513 545.883411 
L 250.97532 545.683752 
L 251.789126 544.871806 
L 252.602933 544.259518 
L 253.416739 544.246208 
L 254.230546 543.940064 
L 255.044352 542.861905 
L 255.858159 542.036648 
L 256.671965 541.717194 
L 257.485772 540.51924 
L 258.299578 540.465998 
L 259.927191 539.560877 
L 260.740998 538.602514 
L 261.554804 538.575892 
L 262.368611 538.189885 
L 263.182417 536.699098 
L 263.996224 536.52606 
L 264.81003 536.140053 
L 265.623837 536.100121 
L 266.437643 535.128447 
L 267.25145 534.662576 
L 268.065256 534.343122 
L 269.692869 532.905577 
L 270.506676 532.878956 
L 271.320482 532.439706 
L 272.134289 531.534585 
L 272.948096 531.135267 
L 273.761902 531.015472 
L 274.575709 530.230147 
L 275.389515 530.216836 
L 276.203322 529.844139 
L 277.017128 528.992261 
L 277.830935 528.712738 
L 280.272354 527.594648 
L 281.086161 527.008982 
L 281.899967 526.875876 
L 282.713774 526.51649 
L 283.52758 525.824338 
L 284.341387 525.41171 
L 285.155193 525.265293 
L 285.969 524.826043 
L 286.782806 524.027408 
L 288.410419 523.987476 
L 289.224226 523.135597 
L 290.038032 522.722969 
L 293.293258 520.846174 
L 294.107065 520.606584 
L 294.920871 520.180644 
L 295.734678 519.941054 
L 296.548484 519.887811 
L 297.362291 518.849584 
L 299.803711 517.518524 
L 300.617517 517.252313 
L 301.431324 516.440366 
L 302.24513 515.894631 
L 303.058937 515.721594 
L 303.872743 515.295654 
L 304.68655 515.082685 
L 305.500356 515.069374 
L 306.314163 513.711693 
L 307.127969 513.658451 
L 308.755582 512.54036 
L 311.197002 512.500429 
L 312.010808 511.808277 
L 313.638421 511.19599 
L 314.452228 510.051278 
L 315.266034 509.665271 
L 316.893647 509.159468 
L 317.707454 508.853324 
L 319.335067 508.640355 
L 320.96268 507.402469 
L 321.776486 507.229431 
L 322.590293 506.896666 
L 323.404099 506.350932 
L 324.217906 505.991546 
L 325.845519 505.938303 
L 328.286939 505.339326 
L 329.100745 504.167993 
L 329.914552 503.249562 
L 334.797391 501.492563 
L 336.425004 500.454336 
L 340.494036 498.830443 
L 342.121649 498.723958 
L 342.935456 497.139997 
L 344.563069 497.033512 
L 345.376875 496.940338 
L 346.190682 496.501088 
L 347.004488 495.622589 
L 347.818295 495.489483 
L 348.632101 494.863885 
L 349.445908 494.863885 
L 350.259714 494.571051 
L 352.701134 493.239991 
L 354.328747 492.893916 
L 355.142553 492.893916 
L 355.95636 492.654325 
L 356.770167 492.255007 
L 357.583973 491.722583 
L 360.025393 491.376508 
L 360.839199 491.376508 
L 361.653006 491.243402 
L 363.280619 490.511319 
L 364.094425 489.792546 
L 365.722038 489.459781 
L 366.535845 489.459781 
L 367.349651 489.273433 
L 368.163458 489.260122 
L 368.977264 488.528039 
L 369.791071 487.968994 
L 370.604877 487.889131 
L 371.418684 487.409949 
L 372.23249 487.409949 
L 373.860103 487.037252 
L 374.67391 485.799367 
L 375.487716 485.706192 
L 378.742942 485.20039 
L 379.556749 485.160458 
L 380.370555 484.401754 
L 381.184362 483.336906 
L 381.998168 483.137247 
L 382.811975 482.724618 
L 383.625781 482.458406 
L 384.439588 482.431785 
L 386.881008 481.952603 
L 387.694814 481.446801 
L 388.508621 480.807892 
L 390.136234 480.674786 
L 390.95004 480.035877 
L 391.763847 479.929392 
L 392.577653 479.144067 
L 395.019073 478.678196 
L 395.832879 478.54509 
L 396.646686 478.065908 
L 399.088105 477.533484 
L 400.715718 477.014371 
L 402.343331 475.789796 
L 404.784751 474.964539 
L 405.598557 474.299009 
L 407.22617 474.272388 
L 408.039977 473.700032 
L 409.66759 473.194229 
L 410.481396 473.180918 
L 411.295203 472.275798 
L 412.109009 472.249177 
L 415.364236 470.99798 
L 416.178042 470.838253 
L 417.805655 470.146102 
L 418.619462 469.999685 
L 419.433268 469.986375 
L 420.247075 468.961459 
L 421.060881 468.815042 
L 421.874688 468.32255 
L 425.129914 467.923232 
L 425.94372 467.909921 
L 426.757527 467.736883 
L 427.571333 467.723573 
L 429.198946 467.297634 
L 430.012753 467.284323 
L 430.826559 466.33927 
L 431.640366 466.126301 
L 432.454172 465.647119 
L 433.267979 465.620498 
L 434.081785 465.061453 
L 434.895592 464.795241 
L 435.709398 464.76862 
L 437.337011 464.355991 
L 438.150818 463.930052 
L 438.964624 463.89012 
L 439.778431 462.78534 
L 441.406044 462.678856 
L 443.033657 462.638924 
L 443.847464 461.574076 
L 444.66127 461.507523 
L 445.475077 461.161447 
L 447.10269 461.121516 
L 447.916496 460.655645 
L 448.730303 459.604107 
L 450.357916 459.337895 
L 451.171722 458.712297 
L 451.985529 458.645744 
L 452.799335 458.352911 
L 458.495981 455.770655 
L 464.192626 453.654269 
L 469.889272 451.098634 
L 475.585918 449.048802 
L 481.282563 446.466546 
L 492.675854 440.969268 
L 498.3725 437.402028 
L 504.069146 435.844688 
L 515.462437 431.478811 
L 521.159082 428.696896 
L 526.855728 426.35423 
L 532.552374 424.370951 
L 538.249019 422.201323 
L 543.945665 419.712241 
L 561.035602 413.789025 
L 566.732247 412.35148 
L 572.428893 409.889019 
L 578.125538 408.038846 
L 583.822184 405.110514 
L 589.51883 403.46 
L 595.215475 400.544978 
L 600.912121 398.721426 
L 606.608766 397.01767 
L 614.746832 394.848042 
L 618.002058 394.262376 
L 623.698703 392.279096 
L 629.395349 390.761688 
L 640.78864 388.033015 
L 646.485286 385.543933 
L 657.878577 382.069867 
L 663.575222 380.712186 
L 669.271868 379.141535 
L 674.968514 377.065081 
L 680.665159 376.053476 
L 686.361805 374.163371 
L 697.755096 371.168486 
L 709.148387 367.667798 
L 714.845033 365.458239 
L 749.024906 355.03604 
L 754.721552 352.986207 
L 775.880521 347.009748 
L 779.135747 346.224423 
L 797.039491 341.459229 
L 802.736136 340.261275 
L 802.736136 340.261275 
" style="fill:none;stroke:#ff7f0e;stroke-linecap:square;stroke-width:5;"/>
   </g>
   <g id="line2d_60">
    <path clip-path="url(#pbd83b2b2d7)" d="M 194.008864 591.938085 
L 199.705509 591.445593 
L 205.402155 590.71351 
L 211.0988 589.83501 
L 228.188737 586.760262 
L 237.140609 584.989952 
L 242.837254 583.552407 
L 250.161513 582.181416 
L 251.789126 581.582439 
L 258.299578 580.424416 
L 259.113385 580.384485 
L 260.740998 579.985167 
L 263.996224 579.106667 
L 264.81003 579.013493 
L 269.692869 577.522706 
L 271.320482 577.309736 
L 272.948096 576.830555 
L 274.575709 576.457858 
L 276.203322 576.338062 
L 277.017128 576.098472 
L 277.830935 575.672533 
L 279.458548 575.193351 
L 282.713774 574.780722 
L 286.782806 574.022018 
L 287.596613 573.995397 
L 290.038032 573.356488 
L 293.293258 572.94386 
L 294.920871 572.544542 
L 296.548484 572.185156 
L 297.362291 571.932254 
L 298.989904 571.785838 
L 300.617517 571.38652 
L 303.058937 570.774232 
L 304.68655 570.667747 
L 306.314163 570.321672 
L 307.941776 569.948975 
L 308.755582 569.815869 
L 310.383195 569.815869 
L 312.010808 569.349998 
L 320.148873 567.792658 
L 321.776486 567.61962 
L 324.217906 567.16706 
L 325.845519 566.781052 
L 333.983584 565.529856 
L 343.749262 563.83941 
L 344.563069 563.799478 
L 346.190682 563.466713 
L 347.818295 563.213812 
L 348.632101 563.054084 
L 350.259714 563.000842 
L 354.328747 562.228827 
L 356.770167 562.109032 
L 360.025393 561.376949 
L 361.653006 561.310396 
L 364.094425 560.72473 
L 365.722038 560.312101 
L 367.349651 560.232237 
L 369.791071 559.766366 
L 372.23249 559.473533 
L 373.046297 559.433601 
L 377.115329 558.634965 
L 378.742942 558.50186 
L 380.370555 558.07592 
L 381.184362 557.982746 
L 382.811975 557.516875 
L 384.439588 557.41039 
L 385.253395 557.18411 
L 391.763847 556.132573 
L 392.577653 555.906293 
L 393.39146 555.879671 
L 402.343331 554.868066 
L 404.784751 554.189225 
L 405.598557 554.002877 
L 407.22617 553.84315 
L 409.66759 553.390589 
L 411.295203 553.071135 
L 412.109009 553.031203 
L 416.178042 552.418916 
L 416.991849 552.112772 
L 417.805655 552.112772 
L 419.433268 551.740075 
L 421.874688 551.167719 
L 424.316107 550.981371 
L 426.757527 550.448947 
L 430.012753 550.222667 
L 431.640366 549.743485 
L 434.081785 549.277614 
L 435.709398 549.250993 
L 436.523205 548.984781 
L 438.150818 548.705258 
L 440.592237 548.372493 
L 441.406044 548.345872 
L 442.219851 548.172835 
L 443.033657 547.826759 
L 446.288883 547.40082 
L 447.916496 547.17454 
L 450.357916 546.442457 
L 452.799335 546.149623 
L 458.495981 544.938359 
L 464.192626 544.113102 
L 469.889272 542.96839 
L 475.585918 541.956785 
L 481.282563 540.718899 
L 498.3725 537.151658 
L 504.069146 536.219916 
L 510.579598 534.955409 
L 515.462437 534.422986 
L 521.159082 533.597728 
L 526.855728 532.359843 
L 532.552374 531.241752 
L 538.249019 530.256768 
L 543.945665 529.072125 
L 561.035602 525.917513 
L 566.732247 524.97246 
L 578.125538 523.335256 
L 583.822184 522.363583 
L 589.51883 521.564947 
L 595.215475 520.593273 
L 600.912121 519.794637 
L 618.002058 516.839684 
L 623.698703 516.041048 
L 629.395349 515.016132 
L 646.485286 512.447186 
L 657.878577 510.783361 
L 674.968514 508.547181 
L 686.361805 506.949909 
L 697.755096 505.4325 
L 709.148387 503.395979 
L 714.845033 502.011676 
L 726.238324 499.735564 
L 749.024906 495.755695 
L 754.721552 494.491188 
L 775.880521 489.965584 
L 779.135747 489.552956 
L 797.039491 486.278548 
L 802.736136 485.825988 
L 802.736136 485.825988 
" style="fill:none;stroke:#2ca02c;stroke-linecap:square;stroke-width:5;"/>
   </g>
   <g id="patch_6">
    <path d="M 163.5725 594.72 
L 163.5725 327.665455 
" style="fill:none;stroke:#000000;stroke-linecap:square;stroke-linejoin:miter;stroke-width:0.8;"/>
   </g>
   <g id="patch_7">
    <path d="M 163.5725 594.72 
L 833.1725 594.72 
" style="fill:none;stroke:#000000;stroke-linecap:square;stroke-linejoin:miter;stroke-width:0.8;"/>
   </g>
   <g id="legend_1">
    <g id="patch_8">
     <path d="M 180.3725 452.547955 
L 362.3075 452.547955 
Q 367.1075 452.547955 367.1075 447.747955 
L 367.1075 344.465455 
Q 367.1075 339.665455 362.3075 339.665455 
L 180.3725 339.665455 
Q 175.5725 339.665455 175.5725 344.465455 
L 175.5725 447.747955 
Q 175.5725 452.547955 180.3725 452.547955 
z
" style="fill:#ffffff;opacity:0.8;stroke:#cccccc;stroke-linejoin:miter;"/>
    </g>
    <g id="line2d_61">
     <path d="M 185.1725 359.101705 
L 233.1725 359.101705 
" style="fill:none;stroke:#1f77b4;stroke-linecap:square;stroke-width:5;"/>
    </g>
    <g id="line2d_62"/>
    <g id="text_22">
     <!-- arXiv -->
     <defs>
      <path d="M 6.296875 72.90625 
L 16.890625 72.90625 
L 35.015625 45.796875 
L 53.21875 72.90625 
L 63.8125 72.90625 
L 40.375 37.890625 
L 65.375 0 
L 54.78125 0 
L 34.28125 31 
L 13.625 0 
L 2.984375 0 
L 29 38.921875 
z
" id="DejaVuSans-88"/>
      <path d="M 2.984375 54.6875 
L 12.5 54.6875 
L 29.59375 8.796875 
L 46.6875 54.6875 
L 56.203125 54.6875 
L 35.6875 0 
L 23.484375 0 
z
" id="DejaVuSans-118"/>
     </defs>
     <g transform="translate(252.3725 367.501705)scale(0.24 -0.24)">
      <use xlink:href="#DejaVuSans-97"/>
      <use x="61.279297" xlink:href="#DejaVuSans-114"/>
      <use x="102.392578" xlink:href="#DejaVuSans-88"/>
      <use x="170.898438" xlink:href="#DejaVuSans-105"/>
      <use x="198.681641" xlink:href="#DejaVuSans-118"/>
     </g>
    </g>
    <g id="line2d_63">
     <path d="M 185.1725 394.329205 
L 233.1725 394.329205 
" style="fill:none;stroke:#ff7f0e;stroke-linecap:square;stroke-width:5;"/>
    </g>
    <g id="line2d_64"/>
    <g id="text_23">
     <!-- medRxiv -->
     <defs>
      <path d="M 45.40625 46.390625 
L 45.40625 75.984375 
L 54.390625 75.984375 
L 54.390625 0 
L 45.40625 0 
L 45.40625 8.203125 
Q 42.578125 3.328125 38.25 0.953125 
Q 33.9375 -1.421875 27.875 -1.421875 
Q 17.96875 -1.421875 11.734375 6.484375 
Q 5.515625 14.40625 5.515625 27.296875 
Q 5.515625 40.1875 11.734375 48.09375 
Q 17.96875 56 27.875 56 
Q 33.9375 56 38.25 53.625 
Q 42.578125 51.265625 45.40625 46.390625 
z
M 14.796875 27.296875 
Q 14.796875 17.390625 18.875 11.75 
Q 22.953125 6.109375 30.078125 6.109375 
Q 37.203125 6.109375 41.296875 11.75 
Q 45.40625 17.390625 45.40625 27.296875 
Q 45.40625 37.203125 41.296875 42.84375 
Q 37.203125 48.484375 30.078125 48.484375 
Q 22.953125 48.484375 18.875 42.84375 
Q 14.796875 37.203125 14.796875 27.296875 
z
" id="DejaVuSans-100"/>
      <path d="M 44.390625 34.1875 
Q 47.5625 33.109375 50.5625 29.59375 
Q 53.5625 26.078125 56.59375 19.921875 
L 66.609375 0 
L 56 0 
L 46.6875 18.703125 
Q 43.0625 26.03125 39.671875 28.421875 
Q 36.28125 30.8125 30.421875 30.8125 
L 19.671875 30.8125 
L 19.671875 0 
L 9.8125 0 
L 9.8125 72.90625 
L 32.078125 72.90625 
Q 44.578125 72.90625 50.734375 67.671875 
Q 56.890625 62.453125 56.890625 51.90625 
Q 56.890625 45.015625 53.6875 40.46875 
Q 50.484375 35.9375 44.390625 34.1875 
z
M 19.671875 64.796875 
L 19.671875 38.921875 
L 32.078125 38.921875 
Q 39.203125 38.921875 42.84375 42.21875 
Q 46.484375 45.515625 46.484375 51.90625 
Q 46.484375 58.296875 42.84375 61.546875 
Q 39.203125 64.796875 32.078125 64.796875 
z
" id="DejaVuSans-82"/>
      <path d="M 54.890625 54.6875 
L 35.109375 28.078125 
L 55.90625 0 
L 45.3125 0 
L 29.390625 21.484375 
L 13.484375 0 
L 2.875 0 
L 24.125 28.609375 
L 4.6875 54.6875 
L 15.28125 54.6875 
L 29.78125 35.203125 
L 44.28125 54.6875 
z
" id="DejaVuSans-120"/>
     </defs>
     <g transform="translate(252.3725 402.729205)scale(0.24 -0.24)">
      <use xlink:href="#DejaVuSans-109"/>
      <use x="97.412109" xlink:href="#DejaVuSans-101"/>
      <use x="158.935547" xlink:href="#DejaVuSans-100"/>
      <use x="222.412109" xlink:href="#DejaVuSans-82"/>
      <use x="291.894531" xlink:href="#DejaVuSans-120"/>
      <use x="351.074219" xlink:href="#DejaVuSans-105"/>
      <use x="378.857422" xlink:href="#DejaVuSans-118"/>
     </g>
    </g>
    <g id="line2d_65">
     <path d="M 185.1725 429.556705 
L 233.1725 429.556705 
" style="fill:none;stroke:#2ca02c;stroke-linecap:square;stroke-width:5;"/>
    </g>
    <g id="line2d_66"/>
    <g id="text_24">
     <!-- bioRxiv -->
     <defs>
      <path d="M 48.6875 27.296875 
Q 48.6875 37.203125 44.609375 42.84375 
Q 40.53125 48.484375 33.40625 48.484375 
Q 26.265625 48.484375 22.1875 42.84375 
Q 18.109375 37.203125 18.109375 27.296875 
Q 18.109375 17.390625 22.1875 11.75 
Q 26.265625 6.109375 33.40625 6.109375 
Q 40.53125 6.109375 44.609375 11.75 
Q 48.6875 17.390625 48.6875 27.296875 
z
M 18.109375 46.390625 
Q 20.953125 51.265625 25.265625 53.625 
Q 29.59375 56 35.59375 56 
Q 45.5625 56 51.78125 48.09375 
Q 58.015625 40.1875 58.015625 27.296875 
Q 58.015625 14.40625 51.78125 6.484375 
Q 45.5625 -1.421875 35.59375 -1.421875 
Q 29.59375 -1.421875 25.265625 0.953125 
Q 20.953125 3.328125 18.109375 8.203125 
L 18.109375 0 
L 9.078125 0 
L 9.078125 75.984375 
L 18.109375 75.984375 
z
" id="DejaVuSans-98"/>
     </defs>
     <g transform="translate(252.3725 437.956705)scale(0.24 -0.24)">
      <use xlink:href="#DejaVuSans-98"/>
      <use x="63.476562" xlink:href="#DejaVuSans-105"/>
      <use x="91.259766" xlink:href="#DejaVuSans-111"/>
      <use x="152.441406" xlink:href="#DejaVuSans-82"/>
      <use x="221.923828" xlink:href="#DejaVuSans-120"/>
      <use x="281.103516" xlink:href="#DejaVuSans-105"/>
      <use x="308.886719" xlink:href="#DejaVuSans-118"/>
     </g>
    </g>
   </g>
  </g>
 </g>
 <defs>
  <clipPath id="p811e593be8">
   <rect height="267.054545" width="669.6" x="163.5725" y="7.2"/>
  </clipPath>
  <clipPath id="pbd83b2b2d7">
   <rect height="267.054545" width="669.6" x="163.5725" y="327.665455"/>
  </clipPath>
 </defs>
</svg>
