<?xml version="1.0" encoding="utf-8" standalone="no"?>
<!DOCTYPE svg PUBLIC "-//W3C//DTD SVG 1.1//EN"
  "http://www.w3.org/Graphics/SVG/1.1/DTD/svg11.dtd">
<!-- Created with matplotlib (https://matplotlib.org/) -->
<svg height="649.902072pt" version="1.1" viewBox="0 0 1212.84375 649.902072" width="1212.84375pt" xmlns="http://www.w3.org/2000/svg" xmlns:xlink="http://www.w3.org/1999/xlink">
 <defs>
  <style type="text/css">
*{stroke-linecap:butt;stroke-linejoin:round;}
  </style>
 </defs>
 <g id="figure_1">
  <g id="patch_1">
   <path d="M 0 649.902072 
L 1212.84375 649.902072 
L 1212.84375 0 
L 0 0 
z
" style="fill:#ffffff;"/>
  </g>
  <g id="axes_1">
   <g id="patch_2">
    <path d="M 89.64375 594.72 
L 596.916477 594.72 
L 596.916477 7.2 
L 89.64375 7.2 
z
" style="fill:#ffffff;"/>
   </g>
   <g id="matplotlib.axis_1">
    <g id="xtick_1">
     <g id="line2d_1">
      <path clip-path="url(#p3caf1d6d89)" d="M 91.278659 594.72 
L 91.278659 7.2 
" style="fill:none;stroke:#d3d3d3;stroke-linecap:square;stroke-width:0.8;"/>
     </g>
     <g id="line2d_2">
      <defs>
       <path d="M 0 0 
L 0 3.5 
" id="m1dbac88c47" style="stroke:#000000;stroke-width:0.8;"/>
      </defs>
      <g>
       <use style="stroke:#000000;stroke-width:0.8;" x="91.278659" xlink:href="#m1dbac88c47" y="594.72"/>
      </g>
     </g>
     <g id="text_1">
      <!-- 2020-03 -->
      <defs>
       <path d="M 19.1875 8.296875 
L 53.609375 8.296875 
L 53.609375 0 
L 7.328125 0 
L 7.328125 8.296875 
Q 12.9375 14.109375 22.625 23.890625 
Q 32.328125 33.6875 34.8125 36.53125 
Q 39.546875 41.84375 41.421875 45.53125 
Q 43.3125 49.21875 43.3125 52.78125 
Q 43.3125 58.59375 39.234375 62.25 
Q 35.15625 65.921875 28.609375 65.921875 
Q 23.96875 65.921875 18.8125 64.3125 
Q 13.671875 62.703125 7.8125 59.421875 
L 7.8125 69.390625 
Q 13.765625 71.78125 18.9375 73 
Q 24.125 74.21875 28.421875 74.21875 
Q 39.75 74.21875 46.484375 68.546875 
Q 53.21875 62.890625 53.21875 53.421875 
Q 53.21875 48.921875 51.53125 44.890625 
Q 49.859375 40.875 45.40625 35.40625 
Q 44.1875 33.984375 37.640625 27.21875 
Q 31.109375 20.453125 19.1875 8.296875 
z
" id="DejaVuSans-50"/>
       <path d="M 31.78125 66.40625 
Q 24.171875 66.40625 20.328125 58.90625 
Q 16.5 51.421875 16.5 36.375 
Q 16.5 21.390625 20.328125 13.890625 
Q 24.171875 6.390625 31.78125 6.390625 
Q 39.453125 6.390625 43.28125 13.890625 
Q 47.125 21.390625 47.125 36.375 
Q 47.125 51.421875 43.28125 58.90625 
Q 39.453125 66.40625 31.78125 66.40625 
z
M 31.78125 74.21875 
Q 44.046875 74.21875 50.515625 64.515625 
Q 56.984375 54.828125 56.984375 36.375 
Q 56.984375 17.96875 50.515625 8.265625 
Q 44.046875 -1.421875 31.78125 -1.421875 
Q 19.53125 -1.421875 13.0625 8.265625 
Q 6.59375 17.96875 6.59375 36.375 
Q 6.59375 54.828125 13.0625 64.515625 
Q 19.53125 74.21875 31.78125 74.21875 
z
" id="DejaVuSans-48"/>
       <path d="M 4.890625 31.390625 
L 31.203125 31.390625 
L 31.203125 23.390625 
L 4.890625 23.390625 
z
" id="DejaVuSans-45"/>
       <path d="M 40.578125 39.3125 
Q 47.65625 37.796875 51.625 33 
Q 55.609375 28.21875 55.609375 21.1875 
Q 55.609375 10.40625 48.1875 4.484375 
Q 40.765625 -1.421875 27.09375 -1.421875 
Q 22.515625 -1.421875 17.65625 -0.515625 
Q 12.796875 0.390625 7.625 2.203125 
L 7.625 11.71875 
Q 11.71875 9.328125 16.59375 8.109375 
Q 21.484375 6.890625 26.8125 6.890625 
Q 36.078125 6.890625 40.9375 10.546875 
Q 45.796875 14.203125 45.796875 21.1875 
Q 45.796875 27.640625 41.28125 31.265625 
Q 36.765625 34.90625 28.71875 34.90625 
L 20.21875 34.90625 
L 20.21875 43.015625 
L 29.109375 43.015625 
Q 36.375 43.015625 40.234375 45.921875 
Q 44.09375 48.828125 44.09375 54.296875 
Q 44.09375 59.90625 40.109375 62.90625 
Q 36.140625 65.921875 28.71875 65.921875 
Q 24.65625 65.921875 20.015625 65.03125 
Q 15.375 64.15625 9.8125 62.3125 
L 9.8125 71.09375 
Q 15.4375 72.65625 20.34375 73.4375 
Q 25.25 74.21875 29.59375 74.21875 
Q 40.828125 74.21875 47.359375 69.109375 
Q 53.90625 64.015625 53.90625 55.328125 
Q 53.90625 49.265625 50.4375 45.09375 
Q 46.96875 40.921875 40.578125 39.3125 
z
" id="DejaVuSans-51"/>
      </defs>
      <g transform="translate(39.16391 640.180585)rotate(-30)scale(0.14 -0.14)">
       <use xlink:href="#DejaVuSans-50"/>
       <use x="63.623047" xlink:href="#DejaVuSans-48"/>
       <use x="127.246094" xlink:href="#DejaVuSans-50"/>
       <use x="190.869141" xlink:href="#DejaVuSans-48"/>
       <use x="254.492188" xlink:href="#DejaVuSans-45"/>
       <use x="290.576172" xlink:href="#DejaVuSans-48"/>
       <use x="354.199219" xlink:href="#DejaVuSans-51"/>
      </g>
     </g>
    </g>
    <g id="xtick_2">
     <g id="line2d_3">
      <path clip-path="url(#p3caf1d6d89)" d="M 160.057579 594.72 
L 160.057579 7.2 
" style="fill:none;stroke:#d3d3d3;stroke-linecap:square;stroke-width:0.8;"/>
     </g>
     <g id="line2d_4">
      <g>
       <use style="stroke:#000000;stroke-width:0.8;" x="160.057579" xlink:href="#m1dbac88c47" y="594.72"/>
      </g>
     </g>
     <g id="text_2">
      <!-- 2020-05 -->
      <defs>
       <path d="M 10.796875 72.90625 
L 49.515625 72.90625 
L 49.515625 64.59375 
L 19.828125 64.59375 
L 19.828125 46.734375 
Q 21.96875 47.46875 24.109375 47.828125 
Q 26.265625 48.1875 28.421875 48.1875 
Q 40.625 48.1875 47.75 41.5 
Q 54.890625 34.8125 54.890625 23.390625 
Q 54.890625 11.625 47.5625 5.09375 
Q 40.234375 -1.421875 26.90625 -1.421875 
Q 22.3125 -1.421875 17.546875 -0.640625 
Q 12.796875 0.140625 7.71875 1.703125 
L 7.71875 11.625 
Q 12.109375 9.234375 16.796875 8.0625 
Q 21.484375 6.890625 26.703125 6.890625 
Q 35.15625 6.890625 40.078125 11.328125 
Q 45.015625 15.765625 45.015625 23.390625 
Q 45.015625 31 40.078125 35.4375 
Q 35.15625 39.890625 26.703125 39.890625 
Q 22.75 39.890625 18.8125 39.015625 
Q 14.890625 38.140625 10.796875 36.28125 
z
" id="DejaVuSans-53"/>
      </defs>
      <g transform="translate(107.94283 640.180585)rotate(-30)scale(0.14 -0.14)">
       <use xlink:href="#DejaVuSans-50"/>
       <use x="63.623047" xlink:href="#DejaVuSans-48"/>
       <use x="127.246094" xlink:href="#DejaVuSans-50"/>
       <use x="190.869141" xlink:href="#DejaVuSans-48"/>
       <use x="254.492188" xlink:href="#DejaVuSans-45"/>
       <use x="290.576172" xlink:href="#DejaVuSans-48"/>
       <use x="354.199219" xlink:href="#DejaVuSans-53"/>
      </g>
     </g>
    </g>
    <g id="xtick_3">
     <g id="line2d_5">
      <path clip-path="url(#p3caf1d6d89)" d="M 228.8365 594.72 
L 228.8365 7.2 
" style="fill:none;stroke:#d3d3d3;stroke-linecap:square;stroke-width:0.8;"/>
     </g>
     <g id="line2d_6">
      <g>
       <use style="stroke:#000000;stroke-width:0.8;" x="228.8365" xlink:href="#m1dbac88c47" y="594.72"/>
      </g>
     </g>
     <g id="text_3">
      <!-- 2020-07 -->
      <defs>
       <path d="M 8.203125 72.90625 
L 55.078125 72.90625 
L 55.078125 68.703125 
L 28.609375 0 
L 18.3125 0 
L 43.21875 64.59375 
L 8.203125 64.59375 
z
" id="DejaVuSans-55"/>
      </defs>
      <g transform="translate(176.721751 640.180585)rotate(-30)scale(0.14 -0.14)">
       <use xlink:href="#DejaVuSans-50"/>
       <use x="63.623047" xlink:href="#DejaVuSans-48"/>
       <use x="127.246094" xlink:href="#DejaVuSans-50"/>
       <use x="190.869141" xlink:href="#DejaVuSans-48"/>
       <use x="254.492188" xlink:href="#DejaVuSans-45"/>
       <use x="290.576172" xlink:href="#DejaVuSans-48"/>
       <use x="354.199219" xlink:href="#DejaVuSans-55"/>
      </g>
     </g>
    </g>
    <g id="xtick_4">
     <g id="line2d_7">
      <path clip-path="url(#p3caf1d6d89)" d="M 298.742944 594.72 
L 298.742944 7.2 
" style="fill:none;stroke:#d3d3d3;stroke-linecap:square;stroke-width:0.8;"/>
     </g>
     <g id="line2d_8">
      <g>
       <use style="stroke:#000000;stroke-width:0.8;" x="298.742944" xlink:href="#m1dbac88c47" y="594.72"/>
      </g>
     </g>
     <g id="text_4">
      <!-- 2020-09 -->
      <defs>
       <path d="M 10.984375 1.515625 
L 10.984375 10.5 
Q 14.703125 8.734375 18.5 7.8125 
Q 22.3125 6.890625 25.984375 6.890625 
Q 35.75 6.890625 40.890625 13.453125 
Q 46.046875 20.015625 46.78125 33.40625 
Q 43.953125 29.203125 39.59375 26.953125 
Q 35.25 24.703125 29.984375 24.703125 
Q 19.046875 24.703125 12.671875 31.3125 
Q 6.296875 37.9375 6.296875 49.421875 
Q 6.296875 60.640625 12.9375 67.421875 
Q 19.578125 74.21875 30.609375 74.21875 
Q 43.265625 74.21875 49.921875 64.515625 
Q 56.59375 54.828125 56.59375 36.375 
Q 56.59375 19.140625 48.40625 8.859375 
Q 40.234375 -1.421875 26.421875 -1.421875 
Q 22.703125 -1.421875 18.890625 -0.6875 
Q 15.09375 0.046875 10.984375 1.515625 
z
M 30.609375 32.421875 
Q 37.25 32.421875 41.125 36.953125 
Q 45.015625 41.5 45.015625 49.421875 
Q 45.015625 57.28125 41.125 61.84375 
Q 37.25 66.40625 30.609375 66.40625 
Q 23.96875 66.40625 20.09375 61.84375 
Q 16.21875 57.28125 16.21875 49.421875 
Q 16.21875 41.5 20.09375 36.953125 
Q 23.96875 32.421875 30.609375 32.421875 
z
" id="DejaVuSans-57"/>
      </defs>
      <g transform="translate(246.628195 640.180585)rotate(-30)scale(0.14 -0.14)">
       <use xlink:href="#DejaVuSans-50"/>
       <use x="63.623047" xlink:href="#DejaVuSans-48"/>
       <use x="127.246094" xlink:href="#DejaVuSans-50"/>
       <use x="190.869141" xlink:href="#DejaVuSans-48"/>
       <use x="254.492188" xlink:href="#DejaVuSans-45"/>
       <use x="290.576172" xlink:href="#DejaVuSans-48"/>
       <use x="354.199219" xlink:href="#DejaVuSans-57"/>
      </g>
     </g>
    </g>
    <g id="xtick_5">
     <g id="line2d_9">
      <path clip-path="url(#p3caf1d6d89)" d="M 367.521864 594.72 
L 367.521864 7.2 
" style="fill:none;stroke:#d3d3d3;stroke-linecap:square;stroke-width:0.8;"/>
     </g>
     <g id="line2d_10">
      <g>
       <use style="stroke:#000000;stroke-width:0.8;" x="367.521864" xlink:href="#m1dbac88c47" y="594.72"/>
      </g>
     </g>
     <g id="text_5">
      <!-- 2020-11 -->
      <defs>
       <path d="M 12.40625 8.296875 
L 28.515625 8.296875 
L 28.515625 63.921875 
L 10.984375 60.40625 
L 10.984375 69.390625 
L 28.421875 72.90625 
L 38.28125 72.90625 
L 38.28125 8.296875 
L 54.390625 8.296875 
L 54.390625 0 
L 12.40625 0 
z
" id="DejaVuSans-49"/>
      </defs>
      <g transform="translate(315.407115 640.180585)rotate(-30)scale(0.14 -0.14)">
       <use xlink:href="#DejaVuSans-50"/>
       <use x="63.623047" xlink:href="#DejaVuSans-48"/>
       <use x="127.246094" xlink:href="#DejaVuSans-50"/>
       <use x="190.869141" xlink:href="#DejaVuSans-48"/>
       <use x="254.492188" xlink:href="#DejaVuSans-45"/>
       <use x="290.576172" xlink:href="#DejaVuSans-49"/>
       <use x="354.199219" xlink:href="#DejaVuSans-49"/>
      </g>
     </g>
    </g>
    <g id="xtick_6">
     <g id="line2d_11">
      <path clip-path="url(#p3caf1d6d89)" d="M 436.300785 594.72 
L 436.300785 7.2 
" style="fill:none;stroke:#d3d3d3;stroke-linecap:square;stroke-width:0.8;"/>
     </g>
     <g id="line2d_12">
      <g>
       <use style="stroke:#000000;stroke-width:0.8;" x="436.300785" xlink:href="#m1dbac88c47" y="594.72"/>
      </g>
     </g>
     <g id="text_6">
      <!-- 2021-01 -->
      <g transform="translate(384.186036 640.180585)rotate(-30)scale(0.14 -0.14)">
       <use xlink:href="#DejaVuSans-50"/>
       <use x="63.623047" xlink:href="#DejaVuSans-48"/>
       <use x="127.246094" xlink:href="#DejaVuSans-50"/>
       <use x="190.869141" xlink:href="#DejaVuSans-49"/>
       <use x="254.492188" xlink:href="#DejaVuSans-45"/>
       <use x="290.576172" xlink:href="#DejaVuSans-48"/>
       <use x="354.199219" xlink:href="#DejaVuSans-49"/>
      </g>
     </g>
    </g>
    <g id="xtick_7">
     <g id="line2d_13">
      <path clip-path="url(#p3caf1d6d89)" d="M 502.824659 594.72 
L 502.824659 7.2 
" style="fill:none;stroke:#d3d3d3;stroke-linecap:square;stroke-width:0.8;"/>
     </g>
     <g id="line2d_14">
      <g>
       <use style="stroke:#000000;stroke-width:0.8;" x="502.824659" xlink:href="#m1dbac88c47" y="594.72"/>
      </g>
     </g>
     <g id="text_7">
      <!-- 2021-03 -->
      <g transform="translate(450.70991 640.180585)rotate(-30)scale(0.14 -0.14)">
       <use xlink:href="#DejaVuSans-50"/>
       <use x="63.623047" xlink:href="#DejaVuSans-48"/>
       <use x="127.246094" xlink:href="#DejaVuSans-50"/>
       <use x="190.869141" xlink:href="#DejaVuSans-49"/>
       <use x="254.492188" xlink:href="#DejaVuSans-45"/>
       <use x="290.576172" xlink:href="#DejaVuSans-48"/>
       <use x="354.199219" xlink:href="#DejaVuSans-51"/>
      </g>
     </g>
    </g>
    <g id="xtick_8">
     <g id="line2d_15">
      <path clip-path="url(#p3caf1d6d89)" d="M 571.603579 594.72 
L 571.603579 7.2 
" style="fill:none;stroke:#d3d3d3;stroke-linecap:square;stroke-width:0.8;"/>
     </g>
     <g id="line2d_16">
      <g>
       <use style="stroke:#000000;stroke-width:0.8;" x="571.603579" xlink:href="#m1dbac88c47" y="594.72"/>
      </g>
     </g>
     <g id="text_8">
      <!-- 2021-05 -->
      <g transform="translate(519.48883 640.180585)rotate(-30)scale(0.14 -0.14)">
       <use xlink:href="#DejaVuSans-50"/>
       <use x="63.623047" xlink:href="#DejaVuSans-48"/>
       <use x="127.246094" xlink:href="#DejaVuSans-50"/>
       <use x="190.869141" xlink:href="#DejaVuSans-49"/>
       <use x="254.492188" xlink:href="#DejaVuSans-45"/>
       <use x="290.576172" xlink:href="#DejaVuSans-48"/>
       <use x="354.199219" xlink:href="#DejaVuSans-53"/>
      </g>
     </g>
    </g>
   </g>
   <g id="matplotlib.axis_2">
    <g id="ytick_1">
     <g id="line2d_17">
      <path clip-path="url(#p3caf1d6d89)" d="M 89.64375 594.72 
L 596.916477 594.72 
" style="fill:none;stroke:#d3d3d3;stroke-linecap:square;stroke-width:0.8;"/>
     </g>
     <g id="line2d_18">
      <defs>
       <path d="M 0 0 
L -3.5 0 
" id="mb50c33f973" style="stroke:#000000;stroke-width:0.8;"/>
      </defs>
      <g>
       <use style="stroke:#000000;stroke-width:0.8;" x="89.64375" xlink:href="#mb50c33f973" y="594.72"/>
      </g>
     </g>
     <g id="text_9">
      <!-- 0 -->
      <g transform="translate(73.73625 600.038906)scale(0.14 -0.14)">
       <use xlink:href="#DejaVuSans-48"/>
      </g>
     </g>
    </g>
    <g id="ytick_2">
     <g id="line2d_19">
      <path clip-path="url(#p3caf1d6d89)" d="M 89.64375 493.136809 
L 596.916477 493.136809 
" style="fill:none;stroke:#d3d3d3;stroke-linecap:square;stroke-width:0.8;"/>
     </g>
     <g id="line2d_20">
      <g>
       <use style="stroke:#000000;stroke-width:0.8;" x="89.64375" xlink:href="#mb50c33f973" y="493.136809"/>
      </g>
     </g>
     <g id="text_10">
      <!-- 100,000 -->
      <defs>
       <path d="M 11.71875 12.40625 
L 22.015625 12.40625 
L 22.015625 4 
L 14.015625 -11.625 
L 7.71875 -11.625 
L 11.71875 4 
z
" id="DejaVuSans-44"/>
      </defs>
      <g transform="translate(24.749375 498.455715)scale(0.14 -0.14)">
       <use xlink:href="#DejaVuSans-49"/>
       <use x="63.623047" xlink:href="#DejaVuSans-48"/>
       <use x="127.246094" xlink:href="#DejaVuSans-48"/>
       <use x="190.869141" xlink:href="#DejaVuSans-44"/>
       <use x="222.65625" xlink:href="#DejaVuSans-48"/>
       <use x="286.279297" xlink:href="#DejaVuSans-48"/>
       <use x="349.902344" xlink:href="#DejaVuSans-48"/>
      </g>
     </g>
    </g>
    <g id="ytick_3">
     <g id="line2d_21">
      <path clip-path="url(#p3caf1d6d89)" d="M 89.64375 391.553617 
L 596.916477 391.553617 
" style="fill:none;stroke:#d3d3d3;stroke-linecap:square;stroke-width:0.8;"/>
     </g>
     <g id="line2d_22">
      <g>
       <use style="stroke:#000000;stroke-width:0.8;" x="89.64375" xlink:href="#mb50c33f973" y="391.553617"/>
      </g>
     </g>
     <g id="text_11">
      <!-- 200,000 -->
      <g transform="translate(24.749375 396.872523)scale(0.14 -0.14)">
       <use xlink:href="#DejaVuSans-50"/>
       <use x="63.623047" xlink:href="#DejaVuSans-48"/>
       <use x="127.246094" xlink:href="#DejaVuSans-48"/>
       <use x="190.869141" xlink:href="#DejaVuSans-44"/>
       <use x="222.65625" xlink:href="#DejaVuSans-48"/>
       <use x="286.279297" xlink:href="#DejaVuSans-48"/>
       <use x="349.902344" xlink:href="#DejaVuSans-48"/>
      </g>
     </g>
    </g>
    <g id="ytick_4">
     <g id="line2d_23">
      <path clip-path="url(#p3caf1d6d89)" d="M 89.64375 289.970426 
L 596.916477 289.970426 
" style="fill:none;stroke:#d3d3d3;stroke-linecap:square;stroke-width:0.8;"/>
     </g>
     <g id="line2d_24">
      <g>
       <use style="stroke:#000000;stroke-width:0.8;" x="89.64375" xlink:href="#mb50c33f973" y="289.970426"/>
      </g>
     </g>
     <g id="text_12">
      <!-- 300,000 -->
      <g transform="translate(24.749375 295.289332)scale(0.14 -0.14)">
       <use xlink:href="#DejaVuSans-51"/>
       <use x="63.623047" xlink:href="#DejaVuSans-48"/>
       <use x="127.246094" xlink:href="#DejaVuSans-48"/>
       <use x="190.869141" xlink:href="#DejaVuSans-44"/>
       <use x="222.65625" xlink:href="#DejaVuSans-48"/>
       <use x="286.279297" xlink:href="#DejaVuSans-48"/>
       <use x="349.902344" xlink:href="#DejaVuSans-48"/>
      </g>
     </g>
    </g>
    <g id="ytick_5">
     <g id="line2d_25">
      <path clip-path="url(#p3caf1d6d89)" d="M 89.64375 188.387234 
L 596.916477 188.387234 
" style="fill:none;stroke:#d3d3d3;stroke-linecap:square;stroke-width:0.8;"/>
     </g>
     <g id="line2d_26">
      <g>
       <use style="stroke:#000000;stroke-width:0.8;" x="89.64375" xlink:href="#mb50c33f973" y="188.387234"/>
      </g>
     </g>
     <g id="text_13">
      <!-- 400,000 -->
      <defs>
       <path d="M 37.796875 64.3125 
L 12.890625 25.390625 
L 37.796875 25.390625 
z
M 35.203125 72.90625 
L 47.609375 72.90625 
L 47.609375 25.390625 
L 58.015625 25.390625 
L 58.015625 17.1875 
L 47.609375 17.1875 
L 47.609375 0 
L 37.796875 0 
L 37.796875 17.1875 
L 4.890625 17.1875 
L 4.890625 26.703125 
z
" id="DejaVuSans-52"/>
      </defs>
      <g transform="translate(24.749375 193.70614)scale(0.14 -0.14)">
       <use xlink:href="#DejaVuSans-52"/>
       <use x="63.623047" xlink:href="#DejaVuSans-48"/>
       <use x="127.246094" xlink:href="#DejaVuSans-48"/>
       <use x="190.869141" xlink:href="#DejaVuSans-44"/>
       <use x="222.65625" xlink:href="#DejaVuSans-48"/>
       <use x="286.279297" xlink:href="#DejaVuSans-48"/>
       <use x="349.902344" xlink:href="#DejaVuSans-48"/>
      </g>
     </g>
    </g>
    <g id="ytick_6">
     <g id="line2d_27">
      <path clip-path="url(#p3caf1d6d89)" d="M 89.64375 86.804043 
L 596.916477 86.804043 
" style="fill:none;stroke:#d3d3d3;stroke-linecap:square;stroke-width:0.8;"/>
     </g>
     <g id="line2d_28">
      <g>
       <use style="stroke:#000000;stroke-width:0.8;" x="89.64375" xlink:href="#mb50c33f973" y="86.804043"/>
      </g>
     </g>
     <g id="text_14">
      <!-- 500,000 -->
      <g transform="translate(24.749375 92.122949)scale(0.14 -0.14)">
       <use xlink:href="#DejaVuSans-53"/>
       <use x="63.623047" xlink:href="#DejaVuSans-48"/>
       <use x="127.246094" xlink:href="#DejaVuSans-48"/>
       <use x="190.869141" xlink:href="#DejaVuSans-44"/>
       <use x="222.65625" xlink:href="#DejaVuSans-48"/>
       <use x="286.279297" xlink:href="#DejaVuSans-48"/>
       <use x="349.902344" xlink:href="#DejaVuSans-48"/>
      </g>
     </g>
    </g>
    <g id="text_15">
     <!-- Total manuscripts -->
     <defs>
      <path d="M -0.296875 72.90625 
L 61.375 72.90625 
L 61.375 64.59375 
L 35.5 64.59375 
L 35.5 0 
L 25.59375 0 
L 25.59375 64.59375 
L -0.296875 64.59375 
z
" id="DejaVuSans-84"/>
      <path d="M 30.609375 48.390625 
Q 23.390625 48.390625 19.1875 42.75 
Q 14.984375 37.109375 14.984375 27.296875 
Q 14.984375 17.484375 19.15625 11.84375 
Q 23.34375 6.203125 30.609375 6.203125 
Q 37.796875 6.203125 41.984375 11.859375 
Q 46.1875 17.53125 46.1875 27.296875 
Q 46.1875 37.015625 41.984375 42.703125 
Q 37.796875 48.390625 30.609375 48.390625 
z
M 30.609375 56 
Q 42.328125 56 49.015625 48.375 
Q 55.71875 40.765625 55.71875 27.296875 
Q 55.71875 13.875 49.015625 6.21875 
Q 42.328125 -1.421875 30.609375 -1.421875 
Q 18.84375 -1.421875 12.171875 6.21875 
Q 5.515625 13.875 5.515625 27.296875 
Q 5.515625 40.765625 12.171875 48.375 
Q 18.84375 56 30.609375 56 
z
" id="DejaVuSans-111"/>
      <path d="M 18.3125 70.21875 
L 18.3125 54.6875 
L 36.8125 54.6875 
L 36.8125 47.703125 
L 18.3125 47.703125 
L 18.3125 18.015625 
Q 18.3125 11.328125 20.140625 9.421875 
Q 21.96875 7.515625 27.59375 7.515625 
L 36.8125 7.515625 
L 36.8125 0 
L 27.59375 0 
Q 17.1875 0 13.234375 3.875 
Q 9.28125 7.765625 9.28125 18.015625 
L 9.28125 47.703125 
L 2.6875 47.703125 
L 2.6875 54.6875 
L 9.28125 54.6875 
L 9.28125 70.21875 
z
" id="DejaVuSans-116"/>
      <path d="M 34.28125 27.484375 
Q 23.390625 27.484375 19.1875 25 
Q 14.984375 22.515625 14.984375 16.5 
Q 14.984375 11.71875 18.140625 8.90625 
Q 21.296875 6.109375 26.703125 6.109375 
Q 34.1875 6.109375 38.703125 11.40625 
Q 43.21875 16.703125 43.21875 25.484375 
L 43.21875 27.484375 
z
M 52.203125 31.203125 
L 52.203125 0 
L 43.21875 0 
L 43.21875 8.296875 
Q 40.140625 3.328125 35.546875 0.953125 
Q 30.953125 -1.421875 24.3125 -1.421875 
Q 15.921875 -1.421875 10.953125 3.296875 
Q 6 8.015625 6 15.921875 
Q 6 25.140625 12.171875 29.828125 
Q 18.359375 34.515625 30.609375 34.515625 
L 43.21875 34.515625 
L 43.21875 35.40625 
Q 43.21875 41.609375 39.140625 45 
Q 35.0625 48.390625 27.6875 48.390625 
Q 23 48.390625 18.546875 47.265625 
Q 14.109375 46.140625 10.015625 43.890625 
L 10.015625 52.203125 
Q 14.9375 54.109375 19.578125 55.046875 
Q 24.21875 56 28.609375 56 
Q 40.484375 56 46.34375 49.84375 
Q 52.203125 43.703125 52.203125 31.203125 
z
" id="DejaVuSans-97"/>
      <path d="M 9.421875 75.984375 
L 18.40625 75.984375 
L 18.40625 0 
L 9.421875 0 
z
" id="DejaVuSans-108"/>
      <path id="DejaVuSans-32"/>
      <path d="M 52 44.1875 
Q 55.375 50.25 60.0625 53.125 
Q 64.75 56 71.09375 56 
Q 79.640625 56 84.28125 50.015625 
Q 88.921875 44.046875 88.921875 33.015625 
L 88.921875 0 
L 79.890625 0 
L 79.890625 32.71875 
Q 79.890625 40.578125 77.09375 44.375 
Q 74.3125 48.1875 68.609375 48.1875 
Q 61.625 48.1875 57.5625 43.546875 
Q 53.515625 38.921875 53.515625 30.90625 
L 53.515625 0 
L 44.484375 0 
L 44.484375 32.71875 
Q 44.484375 40.625 41.703125 44.40625 
Q 38.921875 48.1875 33.109375 48.1875 
Q 26.21875 48.1875 22.15625 43.53125 
Q 18.109375 38.875 18.109375 30.90625 
L 18.109375 0 
L 9.078125 0 
L 9.078125 54.6875 
L 18.109375 54.6875 
L 18.109375 46.1875 
Q 21.1875 51.21875 25.484375 53.609375 
Q 29.78125 56 35.6875 56 
Q 41.65625 56 45.828125 52.96875 
Q 50 49.953125 52 44.1875 
z
" id="DejaVuSans-109"/>
      <path d="M 54.890625 33.015625 
L 54.890625 0 
L 45.90625 0 
L 45.90625 32.71875 
Q 45.90625 40.484375 42.875 44.328125 
Q 39.84375 48.1875 33.796875 48.1875 
Q 26.515625 48.1875 22.3125 43.546875 
Q 18.109375 38.921875 18.109375 30.90625 
L 18.109375 0 
L 9.078125 0 
L 9.078125 54.6875 
L 18.109375 54.6875 
L 18.109375 46.1875 
Q 21.34375 51.125 25.703125 53.5625 
Q 30.078125 56 35.796875 56 
Q 45.21875 56 50.046875 50.171875 
Q 54.890625 44.34375 54.890625 33.015625 
z
" id="DejaVuSans-110"/>
      <path d="M 8.5 21.578125 
L 8.5 54.6875 
L 17.484375 54.6875 
L 17.484375 21.921875 
Q 17.484375 14.15625 20.5 10.265625 
Q 23.53125 6.390625 29.59375 6.390625 
Q 36.859375 6.390625 41.078125 11.03125 
Q 45.3125 15.671875 45.3125 23.6875 
L 45.3125 54.6875 
L 54.296875 54.6875 
L 54.296875 0 
L 45.3125 0 
L 45.3125 8.40625 
Q 42.046875 3.421875 37.71875 1 
Q 33.40625 -1.421875 27.6875 -1.421875 
Q 18.265625 -1.421875 13.375 4.4375 
Q 8.5 10.296875 8.5 21.578125 
z
M 31.109375 56 
z
" id="DejaVuSans-117"/>
      <path d="M 44.28125 53.078125 
L 44.28125 44.578125 
Q 40.484375 46.53125 36.375 47.5 
Q 32.28125 48.484375 27.875 48.484375 
Q 21.1875 48.484375 17.84375 46.4375 
Q 14.5 44.390625 14.5 40.28125 
Q 14.5 37.15625 16.890625 35.375 
Q 19.28125 33.59375 26.515625 31.984375 
L 29.59375 31.296875 
Q 39.15625 29.25 43.1875 25.515625 
Q 47.21875 21.78125 47.21875 15.09375 
Q 47.21875 7.46875 41.1875 3.015625 
Q 35.15625 -1.421875 24.609375 -1.421875 
Q 20.21875 -1.421875 15.453125 -0.5625 
Q 10.6875 0.296875 5.421875 2 
L 5.421875 11.28125 
Q 10.40625 8.6875 15.234375 7.390625 
Q 20.0625 6.109375 24.8125 6.109375 
Q 31.15625 6.109375 34.5625 8.28125 
Q 37.984375 10.453125 37.984375 14.40625 
Q 37.984375 18.0625 35.515625 20.015625 
Q 33.0625 21.96875 24.703125 23.78125 
L 21.578125 24.515625 
Q 13.234375 26.265625 9.515625 29.90625 
Q 5.8125 33.546875 5.8125 39.890625 
Q 5.8125 47.609375 11.28125 51.796875 
Q 16.75 56 26.8125 56 
Q 31.78125 56 36.171875 55.265625 
Q 40.578125 54.546875 44.28125 53.078125 
z
" id="DejaVuSans-115"/>
      <path d="M 48.78125 52.59375 
L 48.78125 44.1875 
Q 44.96875 46.296875 41.140625 47.34375 
Q 37.3125 48.390625 33.40625 48.390625 
Q 24.65625 48.390625 19.8125 42.84375 
Q 14.984375 37.3125 14.984375 27.296875 
Q 14.984375 17.28125 19.8125 11.734375 
Q 24.65625 6.203125 33.40625 6.203125 
Q 37.3125 6.203125 41.140625 7.25 
Q 44.96875 8.296875 48.78125 10.40625 
L 48.78125 2.09375 
Q 45.015625 0.34375 40.984375 -0.53125 
Q 36.96875 -1.421875 32.421875 -1.421875 
Q 20.0625 -1.421875 12.78125 6.34375 
Q 5.515625 14.109375 5.515625 27.296875 
Q 5.515625 40.671875 12.859375 48.328125 
Q 20.21875 56 33.015625 56 
Q 37.15625 56 41.109375 55.140625 
Q 45.0625 54.296875 48.78125 52.59375 
z
" id="DejaVuSans-99"/>
      <path d="M 41.109375 46.296875 
Q 39.59375 47.171875 37.8125 47.578125 
Q 36.03125 48 33.890625 48 
Q 26.265625 48 22.1875 43.046875 
Q 18.109375 38.09375 18.109375 28.8125 
L 18.109375 0 
L 9.078125 0 
L 9.078125 54.6875 
L 18.109375 54.6875 
L 18.109375 46.1875 
Q 20.953125 51.171875 25.484375 53.578125 
Q 30.03125 56 36.53125 56 
Q 37.453125 56 38.578125 55.875 
Q 39.703125 55.765625 41.0625 55.515625 
z
" id="DejaVuSans-114"/>
      <path d="M 9.421875 54.6875 
L 18.40625 54.6875 
L 18.40625 0 
L 9.421875 0 
z
M 9.421875 75.984375 
L 18.40625 75.984375 
L 18.40625 64.59375 
L 9.421875 64.59375 
z
" id="DejaVuSans-105"/>
      <path d="M 18.109375 8.203125 
L 18.109375 -20.796875 
L 9.078125 -20.796875 
L 9.078125 54.6875 
L 18.109375 54.6875 
L 18.109375 46.390625 
Q 20.953125 51.265625 25.265625 53.625 
Q 29.59375 56 35.59375 56 
Q 45.5625 56 51.78125 48.09375 
Q 58.015625 40.1875 58.015625 27.296875 
Q 58.015625 14.40625 51.78125 6.484375 
Q 45.5625 -1.421875 35.59375 -1.421875 
Q 29.59375 -1.421875 25.265625 0.953125 
Q 20.953125 3.328125 18.109375 8.203125 
z
M 48.6875 27.296875 
Q 48.6875 37.203125 44.609375 42.84375 
Q 40.53125 48.484375 33.40625 48.484375 
Q 26.265625 48.484375 22.1875 42.84375 
Q 18.109375 37.203125 18.109375 27.296875 
Q 18.109375 17.390625 22.1875 11.75 
Q 26.265625 6.109375 33.40625 6.109375 
Q 40.53125 6.109375 44.609375 11.75 
Q 48.6875 17.390625 48.6875 27.296875 
z
" id="DejaVuSans-112"/>
     </defs>
     <g transform="translate(17.837813 363.836406)rotate(-90)scale(0.14 -0.14)">
      <use xlink:href="#DejaVuSans-84"/>
      <use x="60.818359" xlink:href="#DejaVuSans-111"/>
      <use x="122" xlink:href="#DejaVuSans-116"/>
      <use x="161.208984" xlink:href="#DejaVuSans-97"/>
      <use x="222.488281" xlink:href="#DejaVuSans-108"/>
      <use x="250.271484" xlink:href="#DejaVuSans-32"/>
      <use x="282.058594" xlink:href="#DejaVuSans-109"/>
      <use x="379.470703" xlink:href="#DejaVuSans-97"/>
      <use x="440.75" xlink:href="#DejaVuSans-110"/>
      <use x="504.128906" xlink:href="#DejaVuSans-117"/>
      <use x="567.507812" xlink:href="#DejaVuSans-115"/>
      <use x="619.607422" xlink:href="#DejaVuSans-99"/>
      <use x="674.587891" xlink:href="#DejaVuSans-114"/>
      <use x="715.701172" xlink:href="#DejaVuSans-105"/>
      <use x="743.484375" xlink:href="#DejaVuSans-112"/>
      <use x="806.960938" xlink:href="#DejaVuSans-116"/>
      <use x="846.169922" xlink:href="#DejaVuSans-115"/>
     </g>
    </g>
   </g>
   <g id="line2d_29">
    <path clip-path="url(#p3caf1d6d89)" d="M 112.701601 549.799913 
L 128.486927 546.673182 
L 136.37959 542.833337 
L 144.272253 541.492439 
L 152.164916 536.445786 
L 160.057579 533.884874 
L 172.460336 530.142549 
L 180.352999 464.193726 
L 188.245662 458.389262 
L 189.373185 456.498799 
L 190.500708 455.219866 
L 191.628231 453.715419 
L 192.755755 453.457398 
L 193.883278 452.552292 
L 196.138325 451.376974 
L 197.265848 457.431333 
L 198.393371 456.766978 
L 199.520894 456.483561 
L 200.648418 456.428706 
L 201.775941 455.97463 
L 202.903464 455.133521 
L 204.030988 453.728625 
L 205.158511 452.714825 
L 206.286034 451.996632 
L 207.413557 451.711183 
L 209.668604 450.028965 
L 210.796127 449.55254 
L 211.923651 445.875229 
L 213.051174 434.834152 
L 214.178697 434.511117 
L 216.433744 433.486143 
L 218.68879 433.256565 
L 219.816314 431.825257 
L 220.943837 432.103595 
L 222.07136 430.598133 
L 223.198883 428.586785 
L 224.326407 428.291178 
L 225.45393 424.598629 
L 226.581453 424.241056 
L 227.708977 423.370488 
L 228.8365 422.210408 
L 231.091546 411.714833 
L 232.21907 410.391204 
L 233.346593 410.064106 
L 234.474116 409.505399 
L 235.60164 408.679527 
L 236.729163 406.86322 
L 237.856686 405.689934 
L 238.984209 404.831556 
L 240.111733 404.463825 
L 241.239256 403.806582 
L 242.366779 402.337689 
L 243.494303 401.054693 
L 244.621826 400.335484 
L 245.749349 399.163214 
L 253.642012 393.454239 
L 255.897059 392.981877 
L 258.152105 392.475992 
L 259.279629 389.380753 
L 260.407152 388.376095 
L 261.534675 387.975857 
L 262.662199 386.65426 
L 263.789722 385.754233 
L 264.917245 384.703862 
L 266.044768 384.12687 
L 267.172292 383.838374 
L 269.427338 380.983886 
L 270.554862 380.142777 
L 271.682385 380.849796 
L 273.937431 379.465217 
L 275.064955 378.627156 
L 276.192478 378.134477 
L 277.320001 375.780795 
L 278.447525 374.708076 
L 279.575048 366.510313 
L 280.702571 364.520298 
L 281.830094 364.022541 
L 282.957618 363.671063 
L 285.212664 361.188369 
L 286.340188 360.750546 
L 288.595234 357.742668 
L 289.722757 357.48363 
L 290.850281 356.726836 
L 294.232851 352.267334 
L 295.360374 351.936172 
L 298.742944 348.72208 
L 299.870467 347.037831 
L 300.99799 345.783278 
L 306.635607 340.594409 
L 307.76313 339.001585 
L 310.018177 337.253338 
L 313.400747 329.452765 
L 314.52827 328.048885 
L 315.655793 324.434555 
L 316.783316 324.33094 
L 317.91084 322.31045 
L 319.038363 319.496596 
L 320.165886 317.357254 
L 321.29341 316.972254 
L 322.420933 316.348533 
L 323.548456 315.091949 
L 324.675979 313.316275 
L 325.803503 310.820376 
L 328.058549 308.230004 
L 329.186073 307.530096 
L 332.568642 305.243458 
L 334.823689 303.43223 
L 335.951212 302.764829 
L 337.078736 302.327005 
L 339.333782 300.306515 
L 340.461305 296.473782 
L 341.588829 295.514836 
L 342.716352 290.15226 
L 343.843875 288.277034 
L 344.971399 287.482653 
L 348.353968 284.531662 
L 349.481492 283.134893 
L 350.609015 282.49695 
L 351.736538 280.620709 
L 352.864062 280.497793 
L 353.991585 278.964903 
L 355.119108 278.170522 
L 356.246631 275.747763 
L 357.374155 273.769938 
L 358.501678 272.547892 
L 359.629201 271.546282 
L 360.756725 270.885991 
L 363.011771 269.127586 
L 364.139294 267.174142 
L 366.394341 258.681787 
L 367.521864 256.998553 
L 368.649388 256.594252 
L 369.776911 255.957326 
L 370.904434 255.145676 
L 372.031957 252.795041 
L 373.159481 250.117308 
L 375.414527 247.597029 
L 376.542051 247.183585 
L 377.669574 246.52939 
L 379.92462 243.574335 
L 381.052144 242.979057 
L 382.179667 234.603523 
L 383.30719 233.542994 
L 384.434714 233.299195 
L 385.562237 232.693759 
L 386.68976 231.385367 
L 387.817284 230.698665 
L 388.944807 229.717371 
L 391.199853 227.483557 
L 392.327377 226.855773 
L 393.4549 226.490073 
L 396.83747 221.669951 
L 397.964993 221.252444 
L 399.092516 220.266071 
L 401.347563 218.559474 
L 403.60261 216.18649 
L 404.730133 215.248877 
L 405.857656 214.789721 
L 406.985179 213.892742 
L 408.112703 213.687544 
L 409.240226 212.704219 
L 410.367749 211.438492 
L 411.495273 210.486657 
L 412.622796 209.131538 
L 413.750319 208.730284 
L 414.877842 206.858106 
L 419.387936 200.529473 
L 420.515459 198.457176 
L 422.770505 196.424496 
L 423.898029 196.07505 
L 425.025552 195.530564 
L 426.153075 193.759969 
L 427.280599 192.70452 
L 428.408122 192.661855 
L 434.045738 191.048714 
L 435.173262 188.26635 
L 436.300785 188.26635 
L 437.428308 187.982933 
L 439.683355 187.953474 
L 440.810878 187.373434 
L 441.938401 186.948816 
L 443.065925 177.049534 
L 444.193448 175.185483 
L 445.320971 174.145271 
L 446.448494 171.931773 
L 448.703541 170.973843 
L 450.958588 168.229066 
L 453.213634 163.274853 
L 454.341158 162.322003 
L 455.468681 162.182834 
L 456.596204 160.867332 
L 457.723727 160.192819 
L 458.851251 159.767186 
L 459.978774 158.093095 
L 462.233821 155.307684 
L 463.361344 154.71139 
L 464.488867 154.432037 
L 465.61639 151.56028 
L 466.743914 149.001399 
L 467.871437 148.648905 
L 468.99896 147.297849 
L 470.126484 147.091635 
L 471.254007 146.604036 
L 479.14667 137.204543 
L 487.039333 126.654113 
L 494.931996 119.797247 
L 502.824659 110.395723 
L 510.717322 104.864518 
L 526.502648 96.04405 
L 534.395311 88.931195 
L 542.287974 64.294223 
L 551.30816 56.683611 
L 558.0733 49.404159 
L 565.965963 41.695011 
L 573.858626 33.038091 
L 573.858626 33.038091 
" style="fill:none;stroke:#1f77b4;stroke-linecap:square;stroke-width:3;"/>
   </g>
   <g id="patch_3">
    <path d="M 89.64375 594.72 
L 89.64375 7.2 
" style="fill:none;stroke:#000000;stroke-linecap:square;stroke-linejoin:miter;stroke-width:0.8;"/>
   </g>
   <g id="patch_4">
    <path d="M 89.64375 594.72 
L 596.916477 594.72 
" style="fill:none;stroke:#000000;stroke-linecap:square;stroke-linejoin:miter;stroke-width:0.8;"/>
   </g>
  </g>
  <g id="axes_2">
   <g id="patch_5">
    <path d="M 698.371023 594.72 
L 1205.64375 594.72 
L 1205.64375 7.2 
L 698.371023 7.2 
z
" style="fill:#ffffff;"/>
   </g>
   <g id="matplotlib.axis_3">
    <g id="xtick_9">
     <g id="line2d_30">
      <path clip-path="url(#pc64560e3c6)" d="M 700.005931 594.72 
L 700.005931 7.2 
" style="fill:none;stroke:#d3d3d3;stroke-linecap:square;stroke-width:0.8;"/>
     </g>
     <g id="line2d_31">
      <g>
       <use style="stroke:#000000;stroke-width:0.8;" x="700.005931" xlink:href="#m1dbac88c47" y="594.72"/>
      </g>
     </g>
     <g id="text_16">
      <!-- 2020-03 -->
      <g transform="translate(647.891182 640.180585)rotate(-30)scale(0.14 -0.14)">
       <use xlink:href="#DejaVuSans-50"/>
       <use x="63.623047" xlink:href="#DejaVuSans-48"/>
       <use x="127.246094" xlink:href="#DejaVuSans-50"/>
       <use x="190.869141" xlink:href="#DejaVuSans-48"/>
       <use x="254.492188" xlink:href="#DejaVuSans-45"/>
       <use x="290.576172" xlink:href="#DejaVuSans-48"/>
       <use x="354.199219" xlink:href="#DejaVuSans-51"/>
      </g>
     </g>
    </g>
    <g id="xtick_10">
     <g id="line2d_32">
      <path clip-path="url(#pc64560e3c6)" d="M 768.784852 594.72 
L 768.784852 7.2 
" style="fill:none;stroke:#d3d3d3;stroke-linecap:square;stroke-width:0.8;"/>
     </g>
     <g id="line2d_33">
      <g>
       <use style="stroke:#000000;stroke-width:0.8;" x="768.784852" xlink:href="#m1dbac88c47" y="594.72"/>
      </g>
     </g>
     <g id="text_17">
      <!-- 2020-05 -->
      <g transform="translate(716.670103 640.180585)rotate(-30)scale(0.14 -0.14)">
       <use xlink:href="#DejaVuSans-50"/>
       <use x="63.623047" xlink:href="#DejaVuSans-48"/>
       <use x="127.246094" xlink:href="#DejaVuSans-50"/>
       <use x="190.869141" xlink:href="#DejaVuSans-48"/>
       <use x="254.492188" xlink:href="#DejaVuSans-45"/>
       <use x="290.576172" xlink:href="#DejaVuSans-48"/>
       <use x="354.199219" xlink:href="#DejaVuSans-53"/>
      </g>
     </g>
    </g>
    <g id="xtick_11">
     <g id="line2d_34">
      <path clip-path="url(#pc64560e3c6)" d="M 837.563773 594.72 
L 837.563773 7.2 
" style="fill:none;stroke:#d3d3d3;stroke-linecap:square;stroke-width:0.8;"/>
     </g>
     <g id="line2d_35">
      <g>
       <use style="stroke:#000000;stroke-width:0.8;" x="837.563773" xlink:href="#m1dbac88c47" y="594.72"/>
      </g>
     </g>
     <g id="text_18">
      <!-- 2020-07 -->
      <g transform="translate(785.449023 640.180585)rotate(-30)scale(0.14 -0.14)">
       <use xlink:href="#DejaVuSans-50"/>
       <use x="63.623047" xlink:href="#DejaVuSans-48"/>
       <use x="127.246094" xlink:href="#DejaVuSans-50"/>
       <use x="190.869141" xlink:href="#DejaVuSans-48"/>
       <use x="254.492188" xlink:href="#DejaVuSans-45"/>
       <use x="290.576172" xlink:href="#DejaVuSans-48"/>
       <use x="354.199219" xlink:href="#DejaVuSans-55"/>
      </g>
     </g>
    </g>
    <g id="xtick_12">
     <g id="line2d_36">
      <path clip-path="url(#pc64560e3c6)" d="M 907.470216 594.72 
L 907.470216 7.2 
" style="fill:none;stroke:#d3d3d3;stroke-linecap:square;stroke-width:0.8;"/>
     </g>
     <g id="line2d_37">
      <g>
       <use style="stroke:#000000;stroke-width:0.8;" x="907.470216" xlink:href="#m1dbac88c47" y="594.72"/>
      </g>
     </g>
     <g id="text_19">
      <!-- 2020-09 -->
      <g transform="translate(855.355467 640.180585)rotate(-30)scale(0.14 -0.14)">
       <use xlink:href="#DejaVuSans-50"/>
       <use x="63.623047" xlink:href="#DejaVuSans-48"/>
       <use x="127.246094" xlink:href="#DejaVuSans-50"/>
       <use x="190.869141" xlink:href="#DejaVuSans-48"/>
       <use x="254.492188" xlink:href="#DejaVuSans-45"/>
       <use x="290.576172" xlink:href="#DejaVuSans-48"/>
       <use x="354.199219" xlink:href="#DejaVuSans-57"/>
      </g>
     </g>
    </g>
    <g id="xtick_13">
     <g id="line2d_38">
      <path clip-path="url(#pc64560e3c6)" d="M 976.249137 594.72 
L 976.249137 7.2 
" style="fill:none;stroke:#d3d3d3;stroke-linecap:square;stroke-width:0.8;"/>
     </g>
     <g id="line2d_39">
      <g>
       <use style="stroke:#000000;stroke-width:0.8;" x="976.249137" xlink:href="#m1dbac88c47" y="594.72"/>
      </g>
     </g>
     <g id="text_20">
      <!-- 2020-11 -->
      <g transform="translate(924.134388 640.180585)rotate(-30)scale(0.14 -0.14)">
       <use xlink:href="#DejaVuSans-50"/>
       <use x="63.623047" xlink:href="#DejaVuSans-48"/>
       <use x="127.246094" xlink:href="#DejaVuSans-50"/>
       <use x="190.869141" xlink:href="#DejaVuSans-48"/>
       <use x="254.492188" xlink:href="#DejaVuSans-45"/>
       <use x="290.576172" xlink:href="#DejaVuSans-49"/>
       <use x="354.199219" xlink:href="#DejaVuSans-49"/>
      </g>
     </g>
    </g>
    <g id="xtick_14">
     <g id="line2d_40">
      <path clip-path="url(#pc64560e3c6)" d="M 1045.028058 594.72 
L 1045.028058 7.2 
" style="fill:none;stroke:#d3d3d3;stroke-linecap:square;stroke-width:0.8;"/>
     </g>
     <g id="line2d_41">
      <g>
       <use style="stroke:#000000;stroke-width:0.8;" x="1045.028058" xlink:href="#m1dbac88c47" y="594.72"/>
      </g>
     </g>
     <g id="text_21">
      <!-- 2021-01 -->
      <g transform="translate(992.913308 640.180585)rotate(-30)scale(0.14 -0.14)">
       <use xlink:href="#DejaVuSans-50"/>
       <use x="63.623047" xlink:href="#DejaVuSans-48"/>
       <use x="127.246094" xlink:href="#DejaVuSans-50"/>
       <use x="190.869141" xlink:href="#DejaVuSans-49"/>
       <use x="254.492188" xlink:href="#DejaVuSans-45"/>
       <use x="290.576172" xlink:href="#DejaVuSans-48"/>
       <use x="354.199219" xlink:href="#DejaVuSans-49"/>
      </g>
     </g>
    </g>
    <g id="xtick_15">
     <g id="line2d_42">
      <path clip-path="url(#pc64560e3c6)" d="M 1111.551932 594.72 
L 1111.551932 7.2 
" style="fill:none;stroke:#d3d3d3;stroke-linecap:square;stroke-width:0.8;"/>
     </g>
     <g id="line2d_43">
      <g>
       <use style="stroke:#000000;stroke-width:0.8;" x="1111.551932" xlink:href="#m1dbac88c47" y="594.72"/>
      </g>
     </g>
     <g id="text_22">
      <!-- 2021-03 -->
      <g transform="translate(1059.437182 640.180585)rotate(-30)scale(0.14 -0.14)">
       <use xlink:href="#DejaVuSans-50"/>
       <use x="63.623047" xlink:href="#DejaVuSans-48"/>
       <use x="127.246094" xlink:href="#DejaVuSans-50"/>
       <use x="190.869141" xlink:href="#DejaVuSans-49"/>
       <use x="254.492188" xlink:href="#DejaVuSans-45"/>
       <use x="290.576172" xlink:href="#DejaVuSans-48"/>
       <use x="354.199219" xlink:href="#DejaVuSans-51"/>
      </g>
     </g>
    </g>
    <g id="xtick_16">
     <g id="line2d_44">
      <path clip-path="url(#pc64560e3c6)" d="M 1180.330852 594.72 
L 1180.330852 7.2 
" style="fill:none;stroke:#d3d3d3;stroke-linecap:square;stroke-width:0.8;"/>
     </g>
     <g id="line2d_45">
      <g>
       <use style="stroke:#000000;stroke-width:0.8;" x="1180.330852" xlink:href="#m1dbac88c47" y="594.72"/>
      </g>
     </g>
     <g id="text_23">
      <!-- 2021-05 -->
      <g transform="translate(1128.216103 640.180585)rotate(-30)scale(0.14 -0.14)">
       <use xlink:href="#DejaVuSans-50"/>
       <use x="63.623047" xlink:href="#DejaVuSans-48"/>
       <use x="127.246094" xlink:href="#DejaVuSans-50"/>
       <use x="190.869141" xlink:href="#DejaVuSans-49"/>
       <use x="254.492188" xlink:href="#DejaVuSans-45"/>
       <use x="290.576172" xlink:href="#DejaVuSans-48"/>
       <use x="354.199219" xlink:href="#DejaVuSans-53"/>
      </g>
     </g>
    </g>
   </g>
   <g id="matplotlib.axis_4">
    <g id="ytick_7">
     <g id="line2d_46">
      <path clip-path="url(#pc64560e3c6)" d="M 698.371023 594.72 
L 1205.64375 594.72 
" style="fill:none;stroke:#d3d3d3;stroke-linecap:square;stroke-width:0.8;"/>
     </g>
     <g id="line2d_47">
      <g>
       <use style="stroke:#000000;stroke-width:0.8;" x="698.371023" xlink:href="#mb50c33f973" y="594.72"/>
      </g>
     </g>
     <g id="text_24">
      <!-- 0 -->
      <g transform="translate(682.463523 600.038906)scale(0.14 -0.14)">
       <use xlink:href="#DejaVuSans-48"/>
      </g>
     </g>
    </g>
    <g id="ytick_8">
     <g id="line2d_48">
      <path clip-path="url(#pc64560e3c6)" d="M 698.371023 505.512929 
L 1205.64375 505.512929 
" style="fill:none;stroke:#d3d3d3;stroke-linecap:square;stroke-width:0.8;"/>
     </g>
     <g id="line2d_49">
      <g>
       <use style="stroke:#000000;stroke-width:0.8;" x="698.371023" xlink:href="#mb50c33f973" y="505.512929"/>
      </g>
     </g>
     <g id="text_25">
      <!-- 2,000 -->
      <g transform="translate(651.291648 510.831835)scale(0.14 -0.14)">
       <use xlink:href="#DejaVuSans-50"/>
       <use x="63.623047" xlink:href="#DejaVuSans-44"/>
       <use x="95.410156" xlink:href="#DejaVuSans-48"/>
       <use x="159.033203" xlink:href="#DejaVuSans-48"/>
       <use x="222.65625" xlink:href="#DejaVuSans-48"/>
      </g>
     </g>
    </g>
    <g id="ytick_9">
     <g id="line2d_50">
      <path clip-path="url(#pc64560e3c6)" d="M 698.371023 416.305858 
L 1205.64375 416.305858 
" style="fill:none;stroke:#d3d3d3;stroke-linecap:square;stroke-width:0.8;"/>
     </g>
     <g id="line2d_51">
      <g>
       <use style="stroke:#000000;stroke-width:0.8;" x="698.371023" xlink:href="#mb50c33f973" y="416.305858"/>
      </g>
     </g>
     <g id="text_26">
      <!-- 4,000 -->
      <g transform="translate(651.291648 421.624764)scale(0.14 -0.14)">
       <use xlink:href="#DejaVuSans-52"/>
       <use x="63.623047" xlink:href="#DejaVuSans-44"/>
       <use x="95.410156" xlink:href="#DejaVuSans-48"/>
       <use x="159.033203" xlink:href="#DejaVuSans-48"/>
       <use x="222.65625" xlink:href="#DejaVuSans-48"/>
      </g>
     </g>
    </g>
    <g id="ytick_10">
     <g id="line2d_52">
      <path clip-path="url(#pc64560e3c6)" d="M 698.371023 327.098787 
L 1205.64375 327.098787 
" style="fill:none;stroke:#d3d3d3;stroke-linecap:square;stroke-width:0.8;"/>
     </g>
     <g id="line2d_53">
      <g>
       <use style="stroke:#000000;stroke-width:0.8;" x="698.371023" xlink:href="#mb50c33f973" y="327.098787"/>
      </g>
     </g>
     <g id="text_27">
      <!-- 6,000 -->
      <defs>
       <path d="M 33.015625 40.375 
Q 26.375 40.375 22.484375 35.828125 
Q 18.609375 31.296875 18.609375 23.390625 
Q 18.609375 15.53125 22.484375 10.953125 
Q 26.375 6.390625 33.015625 6.390625 
Q 39.65625 6.390625 43.53125 10.953125 
Q 47.40625 15.53125 47.40625 23.390625 
Q 47.40625 31.296875 43.53125 35.828125 
Q 39.65625 40.375 33.015625 40.375 
z
M 52.59375 71.296875 
L 52.59375 62.3125 
Q 48.875 64.0625 45.09375 64.984375 
Q 41.3125 65.921875 37.59375 65.921875 
Q 27.828125 65.921875 22.671875 59.328125 
Q 17.53125 52.734375 16.796875 39.40625 
Q 19.671875 43.65625 24.015625 45.921875 
Q 28.375 48.1875 33.59375 48.1875 
Q 44.578125 48.1875 50.953125 41.515625 
Q 57.328125 34.859375 57.328125 23.390625 
Q 57.328125 12.15625 50.6875 5.359375 
Q 44.046875 -1.421875 33.015625 -1.421875 
Q 20.359375 -1.421875 13.671875 8.265625 
Q 6.984375 17.96875 6.984375 36.375 
Q 6.984375 53.65625 15.1875 63.9375 
Q 23.390625 74.21875 37.203125 74.21875 
Q 40.921875 74.21875 44.703125 73.484375 
Q 48.484375 72.75 52.59375 71.296875 
z
" id="DejaVuSans-54"/>
      </defs>
      <g transform="translate(651.291648 332.417693)scale(0.14 -0.14)">
       <use xlink:href="#DejaVuSans-54"/>
       <use x="63.623047" xlink:href="#DejaVuSans-44"/>
       <use x="95.410156" xlink:href="#DejaVuSans-48"/>
       <use x="159.033203" xlink:href="#DejaVuSans-48"/>
       <use x="222.65625" xlink:href="#DejaVuSans-48"/>
      </g>
     </g>
    </g>
    <g id="ytick_11">
     <g id="line2d_54">
      <path clip-path="url(#pc64560e3c6)" d="M 698.371023 237.891716 
L 1205.64375 237.891716 
" style="fill:none;stroke:#d3d3d3;stroke-linecap:square;stroke-width:0.8;"/>
     </g>
     <g id="line2d_55">
      <g>
       <use style="stroke:#000000;stroke-width:0.8;" x="698.371023" xlink:href="#mb50c33f973" y="237.891716"/>
      </g>
     </g>
     <g id="text_28">
      <!-- 8,000 -->
      <defs>
       <path d="M 31.78125 34.625 
Q 24.75 34.625 20.71875 30.859375 
Q 16.703125 27.09375 16.703125 20.515625 
Q 16.703125 13.921875 20.71875 10.15625 
Q 24.75 6.390625 31.78125 6.390625 
Q 38.8125 6.390625 42.859375 10.171875 
Q 46.921875 13.96875 46.921875 20.515625 
Q 46.921875 27.09375 42.890625 30.859375 
Q 38.875 34.625 31.78125 34.625 
z
M 21.921875 38.8125 
Q 15.578125 40.375 12.03125 44.71875 
Q 8.5 49.078125 8.5 55.328125 
Q 8.5 64.0625 14.71875 69.140625 
Q 20.953125 74.21875 31.78125 74.21875 
Q 42.671875 74.21875 48.875 69.140625 
Q 55.078125 64.0625 55.078125 55.328125 
Q 55.078125 49.078125 51.53125 44.71875 
Q 48 40.375 41.703125 38.8125 
Q 48.828125 37.15625 52.796875 32.3125 
Q 56.78125 27.484375 56.78125 20.515625 
Q 56.78125 9.90625 50.3125 4.234375 
Q 43.84375 -1.421875 31.78125 -1.421875 
Q 19.734375 -1.421875 13.25 4.234375 
Q 6.78125 9.90625 6.78125 20.515625 
Q 6.78125 27.484375 10.78125 32.3125 
Q 14.796875 37.15625 21.921875 38.8125 
z
M 18.3125 54.390625 
Q 18.3125 48.734375 21.84375 45.5625 
Q 25.390625 42.390625 31.78125 42.390625 
Q 38.140625 42.390625 41.71875 45.5625 
Q 45.3125 48.734375 45.3125 54.390625 
Q 45.3125 60.0625 41.71875 63.234375 
Q 38.140625 66.40625 31.78125 66.40625 
Q 25.390625 66.40625 21.84375 63.234375 
Q 18.3125 60.0625 18.3125 54.390625 
z
" id="DejaVuSans-56"/>
      </defs>
      <g transform="translate(651.291648 243.210622)scale(0.14 -0.14)">
       <use xlink:href="#DejaVuSans-56"/>
       <use x="63.623047" xlink:href="#DejaVuSans-44"/>
       <use x="95.410156" xlink:href="#DejaVuSans-48"/>
       <use x="159.033203" xlink:href="#DejaVuSans-48"/>
       <use x="222.65625" xlink:href="#DejaVuSans-48"/>
      </g>
     </g>
    </g>
    <g id="ytick_12">
     <g id="line2d_56">
      <path clip-path="url(#pc64560e3c6)" d="M 698.371023 148.684645 
L 1205.64375 148.684645 
" style="fill:none;stroke:#d3d3d3;stroke-linecap:square;stroke-width:0.8;"/>
     </g>
     <g id="line2d_57">
      <g>
       <use style="stroke:#000000;stroke-width:0.8;" x="698.371023" xlink:href="#mb50c33f973" y="148.684645"/>
      </g>
     </g>
     <g id="text_29">
      <!-- 10,000 -->
      <g transform="translate(642.384148 154.003551)scale(0.14 -0.14)">
       <use xlink:href="#DejaVuSans-49"/>
       <use x="63.623047" xlink:href="#DejaVuSans-48"/>
       <use x="127.246094" xlink:href="#DejaVuSans-44"/>
       <use x="159.033203" xlink:href="#DejaVuSans-48"/>
       <use x="222.65625" xlink:href="#DejaVuSans-48"/>
       <use x="286.279297" xlink:href="#DejaVuSans-48"/>
      </g>
     </g>
    </g>
    <g id="ytick_13">
     <g id="line2d_58">
      <path clip-path="url(#pc64560e3c6)" d="M 698.371023 59.477574 
L 1205.64375 59.477574 
" style="fill:none;stroke:#d3d3d3;stroke-linecap:square;stroke-width:0.8;"/>
     </g>
     <g id="line2d_59">
      <g>
       <use style="stroke:#000000;stroke-width:0.8;" x="698.371023" xlink:href="#mb50c33f973" y="59.477574"/>
      </g>
     </g>
     <g id="text_30">
      <!-- 12,000 -->
      <g transform="translate(642.384148 64.79648)scale(0.14 -0.14)">
       <use xlink:href="#DejaVuSans-49"/>
       <use x="63.623047" xlink:href="#DejaVuSans-50"/>
       <use x="127.246094" xlink:href="#DejaVuSans-44"/>
       <use x="159.033203" xlink:href="#DejaVuSans-48"/>
       <use x="222.65625" xlink:href="#DejaVuSans-48"/>
       <use x="286.279297" xlink:href="#DejaVuSans-48"/>
      </g>
     </g>
    </g>
    <g id="text_31">
     <!-- Preprints -->
     <defs>
      <path d="M 19.671875 64.796875 
L 19.671875 37.40625 
L 32.078125 37.40625 
Q 38.96875 37.40625 42.71875 40.96875 
Q 46.484375 44.53125 46.484375 51.125 
Q 46.484375 57.671875 42.71875 61.234375 
Q 38.96875 64.796875 32.078125 64.796875 
z
M 9.8125 72.90625 
L 32.078125 72.90625 
Q 44.34375 72.90625 50.609375 67.359375 
Q 56.890625 61.8125 56.890625 51.125 
Q 56.890625 40.328125 50.609375 34.8125 
Q 44.34375 29.296875 32.078125 29.296875 
L 19.671875 29.296875 
L 19.671875 0 
L 9.8125 0 
z
" id="DejaVuSans-80"/>
      <path d="M 56.203125 29.59375 
L 56.203125 25.203125 
L 14.890625 25.203125 
Q 15.484375 15.921875 20.484375 11.0625 
Q 25.484375 6.203125 34.421875 6.203125 
Q 39.59375 6.203125 44.453125 7.46875 
Q 49.3125 8.734375 54.109375 11.28125 
L 54.109375 2.78125 
Q 49.265625 0.734375 44.1875 -0.34375 
Q 39.109375 -1.421875 33.890625 -1.421875 
Q 20.796875 -1.421875 13.15625 6.1875 
Q 5.515625 13.8125 5.515625 26.8125 
Q 5.515625 40.234375 12.765625 48.109375 
Q 20.015625 56 32.328125 56 
Q 43.359375 56 49.78125 48.890625 
Q 56.203125 41.796875 56.203125 29.59375 
z
M 47.21875 32.234375 
Q 47.125 39.59375 43.09375 43.984375 
Q 39.0625 48.390625 32.421875 48.390625 
Q 24.90625 48.390625 20.390625 44.140625 
Q 15.875 39.890625 15.1875 32.171875 
z
" id="DejaVuSans-101"/>
     </defs>
     <g transform="translate(635.472585 332.455625)rotate(-90)scale(0.14 -0.14)">
      <use xlink:href="#DejaVuSans-80"/>
      <use x="60.287109" xlink:href="#DejaVuSans-114"/>
      <use x="101.369141" xlink:href="#DejaVuSans-101"/>
      <use x="162.892578" xlink:href="#DejaVuSans-112"/>
      <use x="226.369141" xlink:href="#DejaVuSans-114"/>
      <use x="267.482422" xlink:href="#DejaVuSans-105"/>
      <use x="295.265625" xlink:href="#DejaVuSans-110"/>
      <use x="358.644531" xlink:href="#DejaVuSans-116"/>
      <use x="397.853516" xlink:href="#DejaVuSans-115"/>
     </g>
    </g>
   </g>
   <g id="line2d_60">
    <path clip-path="url(#pc64560e3c6)" d="M 721.428874 587.984866 
L 729.321537 583.836737 
L 737.2142 579.33178 
L 745.106863 573.577924 
L 760.892189 564.032768 
L 768.784852 557.654462 
L 781.187608 549.670429 
L 796.972934 538.296528 
L 800.355504 535.79873 
L 801.483027 534.639038 
L 803.738074 533.836174 
L 804.865597 532.587275 
L 807.120644 530.75853 
L 808.248167 529.821856 
L 811.630737 528.171525 
L 812.75826 526.922626 
L 813.885784 525.896745 
L 815.013307 525.049278 
L 816.14083 523.577361 
L 817.268353 522.68529 
L 819.5234 521.882427 
L 820.650923 520.633528 
L 821.778447 519.696853 
L 822.90597 518.983197 
L 825.161016 517.154452 
L 827.416063 516.440795 
L 828.543586 515.771742 
L 829.67111 514.389033 
L 833.053679 511.668217 
L 834.181203 511.266785 
L 836.436249 510.151697 
L 837.563773 509.527247 
L 839.818819 507.207863 
L 840.946342 506.405 
L 843.201389 505.200704 
L 844.328912 503.63958 
L 846.583959 501.677025 
L 847.711482 501.007972 
L 848.839006 500.160505 
L 849.966529 499.669866 
L 851.094052 499.446848 
L 852.221575 498.867002 
L 854.476622 496.81524 
L 858.986715 493.826803 
L 860.114238 492.756318 
L 862.369285 491.195194 
L 863.496808 490.080106 
L 864.624332 489.366449 
L 866.879378 488.295964 
L 868.006901 487.448497 
L 871.389471 484.192439 
L 872.516995 483.300368 
L 874.772041 482.096073 
L 877.027088 480.311931 
L 878.154611 479.687482 
L 879.282134 478.795411 
L 880.409658 478.081755 
L 882.664704 477.680323 
L 883.792227 476.654441 
L 884.919751 475.985388 
L 887.174797 473.933626 
L 889.429844 472.907745 
L 890.557367 472.640123 
L 891.68489 471.748053 
L 893.939937 470.320739 
L 896.194984 468.536598 
L 897.322507 468.31358 
L 898.45003 467.956752 
L 901.8326 465.592765 
L 902.960123 464.388469 
L 904.087647 463.407191 
L 907.470216 462.113689 
L 908.59774 461.310825 
L 909.725263 460.730979 
L 915.36288 457.430318 
L 916.490403 456.627454 
L 918.745449 454.709502 
L 923.255543 452.434722 
L 924.383066 451.944083 
L 925.510589 451.319633 
L 926.638112 450.338356 
L 927.765636 449.624699 
L 930.020682 448.911042 
L 931.148206 447.795954 
L 933.403252 445.878002 
L 935.658299 444.807517 
L 936.785822 444.049257 
L 937.913345 443.603222 
L 941.295915 441.462252 
L 944.678485 439.053661 
L 945.806008 438.741436 
L 949.188578 435.931414 
L 951.443625 434.147272 
L 953.698671 433.076787 
L 955.953718 431.515664 
L 957.081241 430.980421 
L 958.208764 429.820729 
L 961.591334 428.304209 
L 962.718858 427.412138 
L 963.846381 426.118636 
L 964.973904 425.404979 
L 967.228951 423.39782 
L 969.483997 422.550353 
L 970.611521 421.613679 
L 971.739044 420.36478 
L 976.249137 416.350461 
L 977.37666 415.770616 
L 978.504184 414.700131 
L 983.014277 412.113126 
L 984.1418 411.756297 
L 985.269323 411.221055 
L 988.651893 408.76786 
L 989.779417 407.741979 
L 992.034463 406.49308 
L 993.161986 406.136252 
L 995.417033 404.129093 
L 999.927126 401.720502 
L 1001.054649 401.452881 
L 1002.182173 400.203982 
L 1005.564743 398.152219 
L 1006.692266 397.750787 
L 1007.819789 397.215545 
L 1010.074836 395.922042 
L 1012.329882 394.494729 
L 1013.457406 393.112019 
L 1014.584929 392.175345 
L 1016.839975 391.550896 
L 1019.095022 389.231512 
L 1021.350069 387.402767 
L 1022.477592 386.644507 
L 1023.605115 386.153868 
L 1028.115208 383.433052 
L 1029.242732 382.407171 
L 1030.370255 381.604307 
L 1031.497778 381.247479 
L 1032.625301 381.113668 
L 1033.752825 380.266201 
L 1034.880348 378.883492 
L 1037.135395 376.876333 
L 1040.517964 375.761244 
L 1041.645488 375.047588 
L 1042.773011 374.601552 
L 1046.155581 372.282168 
L 1047.283104 371.836133 
L 1048.410627 371.523908 
L 1049.538151 370.631838 
L 1050.665674 369.516749 
L 1051.793197 368.713886 
L 1052.920721 368.178643 
L 1054.048244 367.420383 
L 1056.303291 366.394502 
L 1057.430814 365.190206 
L 1059.68586 363.138444 
L 1061.940907 361.532716 
L 1063.06843 361.042077 
L 1064.195954 360.685249 
L 1065.323477 359.793178 
L 1066.451 358.410469 
L 1067.578523 357.339984 
L 1069.83357 355.912671 
L 1072.088617 355.199014 
L 1074.343663 353.370269 
L 1075.471186 352.924234 
L 1076.59871 351.452317 
L 1077.726233 350.649454 
L 1078.853756 350.292625 
L 1079.98128 349.712779 
L 1087.873943 344.137337 
L 1095.766606 337.892842 
L 1103.659269 332.495815 
L 1111.551932 327.589426 
L 1119.444595 322.237002 
L 1135.229921 312.870259 
L 1143.122584 307.740852 
L 1151.015247 303.102085 
L 1160.035433 298.284903 
L 1166.800573 294.315188 
L 1174.693236 289.854835 
L 1182.585899 287.357037 
L 1182.585899 287.357037 
" style="fill:none;stroke:#1f77b4;stroke-linecap:square;stroke-width:3;"/>
   </g>
   <g id="line2d_61">
    <path clip-path="url(#pc64560e3c6)" d="M 721.428874 568.671535 
L 729.321537 561.624177 
L 737.2142 550.250275 
L 745.106863 540.482101 
L 752.999526 527.770093 
L 760.892189 512.158856 
L 768.784852 498.287156 
L 781.187608 470.409947 
L 789.080271 456.582851 
L 796.972934 440.257957 
L 798.100458 432.942977 
L 799.227981 431.248042 
L 800.355504 430.578989 
L 801.483027 427.81357 
L 802.610551 425.6726 
L 803.738074 425.627997 
L 804.865597 424.646719 
L 805.993121 421.078436 
L 807.120644 418.357621 
L 808.248167 417.287136 
L 809.37569 413.272818 
L 810.503214 413.094403 
L 812.75826 410.061363 
L 813.885784 406.849908 
L 815.013307 406.760701 
L 816.14083 405.467199 
L 817.268353 400.471603 
L 818.395877 399.891757 
L 819.5234 398.598254 
L 820.650923 398.464444 
L 821.778447 395.208386 
L 822.90597 393.647262 
L 824.033493 392.576777 
L 826.28854 387.759595 
L 827.416063 387.670388 
L 828.543586 386.198471 
L 829.67111 383.165431 
L 830.798633 381.827325 
L 831.926156 381.425893 
L 833.053679 378.794285 
L 834.181203 378.749681 
L 835.308726 377.500782 
L 836.436249 374.646156 
L 837.563773 373.709482 
L 840.946342 370.007388 
L 842.073866 368.044833 
L 843.201389 367.598797 
L 844.328912 366.394502 
L 845.456436 364.075118 
L 846.583959 362.692408 
L 847.711482 362.201769 
L 848.839006 360.729853 
L 849.966529 358.053641 
L 852.221575 357.91983 
L 853.349099 355.065204 
L 854.476622 353.682494 
L 858.986715 347.393396 
L 860.114238 346.590532 
L 861.241762 345.163219 
L 862.369285 344.360355 
L 863.496808 344.181941 
L 864.624332 340.702865 
L 866.879378 337.491411 
L 868.006901 336.242512 
L 869.134425 335.350441 
L 870.261948 332.629625 
L 871.389471 330.80088 
L 872.516995 330.221034 
L 873.644518 328.793721 
L 874.772041 328.080065 
L 875.899564 328.035461 
L 877.027088 323.441297 
L 878.154611 323.262883 
L 880.409658 319.516186 
L 882.664704 319.516186 
L 883.792227 319.382375 
L 884.919751 317.062991 
L 887.174797 315.055832 
L 888.302321 311.219928 
L 889.429844 309.971029 
L 890.557367 309.257373 
L 892.812414 307.250214 
L 893.939937 306.759575 
L 895.06746 306.536557 
L 897.322507 302.388428 
L 898.45003 301.808582 
L 899.577553 300.693494 
L 900.705077 298.864749 
L 901.8326 297.660453 
L 904.087647 297.482039 
L 907.470216 295.47488 
L 908.59774 291.549769 
L 909.725263 288.472125 
L 916.490403 282.539855 
L 918.745449 279.016176 
L 923.255543 274.466615 
L 924.383066 273.574544 
L 925.510589 273.26232 
L 926.638112 273.217716 
L 927.765636 267.909895 
L 928.893159 267.865292 
L 931.148206 267.240842 
L 932.275729 265.768926 
L 933.403252 262.825092 
L 934.530775 262.379057 
L 935.658299 260.282691 
L 936.785822 260.282691 
L 937.913345 259.301413 
L 941.295915 254.841059 
L 943.550962 253.681367 
L 944.678485 253.681367 
L 945.806008 252.878504 
L 946.933532 251.540398 
L 948.061055 249.756256 
L 949.188578 249.265617 
L 950.316101 248.997996 
L 951.443625 248.596564 
L 952.571148 248.596564 
L 953.698671 248.150529 
L 955.953718 245.652731 
L 957.081241 243.24414 
L 959.336288 242.129052 
L 960.463811 242.129052 
L 961.591334 241.504602 
L 962.718858 241.459999 
L 963.846381 239.006804 
L 964.973904 237.133456 
L 966.101427 236.865835 
L 967.228951 235.304711 
L 968.356474 235.304711 
L 969.483997 234.858675 
L 970.611521 234.100415 
L 971.739044 230.041494 
L 972.866567 229.729269 
L 975.121614 228.703388 
L 976.249137 228.48037 
L 977.37666 228.034335 
L 978.504184 227.900524 
L 979.631707 225.402726 
L 980.75923 221.879047 
L 981.886753 221.209994 
L 983.014277 219.78268 
L 984.1418 218.89061 
L 985.269323 218.801403 
L 986.396847 218.355367 
L 988.651893 217.240279 
L 989.779417 215.545345 
L 990.90694 213.315168 
L 992.034463 213.270564 
L 993.161986 212.869132 
L 994.28951 210.81737 
L 995.417033 210.460542 
L 996.544556 207.91814 
L 997.67208 207.516708 
L 999.927126 206.312413 
L 1001.054649 205.866377 
L 1002.182173 204.305254 
L 1005.564743 202.565716 
L 1006.692266 201.539834 
L 1007.819789 200.826178 
L 1010.074836 196.633446 
L 1012.329882 195.072322 
L 1013.457406 193.91263 
L 1014.584929 191.682453 
L 1016.839975 191.593246 
L 1017.967499 189.719898 
L 1019.095022 188.783223 
L 1020.222545 188.024963 
L 1021.350069 187.98036 
L 1022.477592 185.036526 
L 1023.605115 184.947319 
L 1028.115208 180.754587 
L 1029.242732 180.219344 
L 1030.370255 178.925842 
L 1031.497778 177.899961 
L 1032.625301 177.409322 
L 1033.752825 177.364718 
L 1034.880348 173.930246 
L 1036.007871 173.439607 
L 1037.135395 171.878483 
L 1040.517964 170.629584 
L 1042.773011 170.495774 
L 1043.900534 169.915928 
L 1045.028058 169.871324 
L 1046.155581 169.246875 
L 1047.283104 168.444011 
L 1048.410627 168.399408 
L 1049.538151 165.27716 
L 1050.665674 164.563503 
L 1051.793197 162.957776 
L 1052.920721 162.868569 
L 1054.048244 160.995221 
L 1055.175767 160.10315 
L 1056.303291 160.013943 
L 1057.430814 159.4787 
L 1058.558337 158.631233 
L 1059.68586 157.20392 
L 1060.813384 157.07011 
L 1061.940907 153.457223 
L 1063.06843 153.144998 
L 1066.451 152.966584 
L 1067.578523 149.398301 
L 1068.706047 149.175284 
L 1069.83357 148.015592 
L 1070.961093 148.015592 
L 1072.088617 147.881781 
L 1073.21614 146.320657 
L 1074.343663 142.841582 
L 1075.471186 142.217132 
L 1076.59871 141.949511 
L 1077.726233 139.853145 
L 1078.853756 139.630127 
L 1079.98128 138.648849 
L 1087.873943 129.995763 
L 1095.766606 124.598736 
L 1103.659269 116.257875 
L 1111.551932 109.433534 
L 1119.444595 100.646637 
L 1135.229921 82.314584 
L 1143.122584 70.316233 
L 1151.015247 65.097619 
L 1160.035433 56.845965 
L 1166.800573 50.46766 
L 1174.693236 41.100917 
L 1182.585899 34.856422 
L 1182.585899 34.856422 
" style="fill:none;stroke:#ff7f0e;stroke-linecap:square;stroke-width:3;"/>
   </g>
   <g id="line2d_62">
    <path clip-path="url(#pc64560e3c6)" d="M 721.428874 585.219447 
L 729.321537 583.524513 
L 737.2142 581.115922 
L 745.106863 578.261295 
L 752.999526 574.871427 
L 760.892189 571.035523 
L 768.784852 567.957879 
L 781.187608 562.025608 
L 789.080271 557.163823 
L 799.227981 552.569659 
L 800.355504 551.409967 
L 801.483027 550.5625 
L 803.738074 549.581222 
L 804.865597 548.956773 
L 807.120644 548.243116 
L 809.37569 546.771199 
L 811.630737 546.458975 
L 812.75826 545.611507 
L 813.885784 545.120869 
L 815.013307 544.228798 
L 816.14083 543.604348 
L 817.268353 542.48926 
L 819.5234 541.775603 
L 820.650923 540.928136 
L 821.778447 539.768444 
L 822.90597 538.920977 
L 824.033493 538.296528 
L 825.161016 537.359853 
L 826.28854 536.780007 
L 827.416063 536.467783 
L 828.543586 536.021747 
L 829.67111 535.129677 
L 831.926156 533.746967 
L 833.053679 533.167121 
L 835.308726 532.765689 
L 836.436249 531.962826 
L 837.563773 530.535512 
L 839.818819 528.885182 
L 842.073866 528.394543 
L 843.201389 528.216129 
L 844.328912 527.502472 
L 845.456436 526.922626 
L 846.583959 526.476591 
L 848.839006 525.138485 
L 851.094052 524.870863 
L 852.221575 524.157207 
L 853.349099 523.621964 
L 854.476622 522.640687 
L 858.986715 521.213373 
L 860.114238 520.365906 
L 862.369285 519.340025 
L 864.624332 517.689694 
L 866.879378 517.243659 
L 868.006901 516.396192 
L 870.261948 515.2365 
L 872.516995 513.85379 
L 874.772041 513.496962 
L 875.899564 513.006323 
L 878.154611 511.445199 
L 880.409658 510.553128 
L 882.664704 510.553128 
L 883.792227 509.661058 
L 884.919751 508.947401 
L 887.174797 507.92152 
L 888.302321 507.074053 
L 889.429844 506.895639 
L 891.68489 506.048171 
L 893.939937 504.799272 
L 896.194984 503.684184 
L 898.45003 503.104338 
L 899.577553 502.479889 
L 900.705077 502.167664 
L 904.087647 500.249712 
L 908.59774 498.643984 
L 909.725263 498.108742 
L 916.490403 495.566341 
L 918.745449 494.272838 
L 923.255543 492.444093 
L 927.765636 490.481537 
L 930.020682 490.124709 
L 931.148206 489.411053 
L 934.530775 488.162154 
L 935.658299 487.626911 
L 937.913345 487.448497 
L 941.295915 485.753563 
L 943.550962 484.772285 
L 944.678485 484.727681 
L 946.933532 484.370853 
L 950.316101 482.497505 
L 951.443625 481.739245 
L 953.698671 481.516227 
L 955.953718 480.356535 
L 957.081241 479.419861 
L 958.208764 478.795411 
L 959.336288 477.992548 
L 961.591334 477.814133 
L 962.718858 477.14508 
L 964.973904 476.163803 
L 967.228951 475.360939 
L 969.483997 475.093318 
L 970.611521 474.468868 
L 971.739044 474.022833 
L 972.866567 473.35378 
L 975.121614 472.327899 
L 976.249137 472.149484 
L 977.37666 471.83726 
L 979.631707 470.409947 
L 980.75923 470.097722 
L 983.014277 468.447391 
L 984.1418 468.402787 
L 985.269323 468.090563 
L 986.396847 467.287699 
L 988.651893 466.351025 
L 989.779417 465.503558 
L 990.90694 465.012919 
L 992.034463 464.789901 
L 993.161986 464.745298 
L 994.28951 463.942434 
L 995.417033 463.407191 
L 996.544556 462.648931 
L 997.67208 462.559724 
L 999.927126 461.890671 
L 1001.054649 461.846068 
L 1006.692266 459.794305 
L 1007.819789 459.749702 
L 1010.074836 459.036045 
L 1012.329882 457.385714 
L 1014.584929 456.003005 
L 1016.839975 455.378555 
L 1017.967499 454.754106 
L 1019.095022 454.352674 
L 1020.222545 453.817431 
L 1021.350069 453.148378 
L 1022.477592 452.657739 
L 1023.605115 452.523929 
L 1028.115208 450.65058 
L 1029.242732 450.338356 
L 1030.370255 449.267871 
L 1031.497778 449.267871 
L 1032.625301 448.777232 
L 1034.880348 447.082297 
L 1037.135395 445.788795 
L 1040.517964 445.119742 
L 1042.773011 443.647825 
L 1043.900534 443.157186 
L 1046.155581 442.800358 
L 1047.283104 442.488133 
L 1048.410627 442.309719 
L 1049.538151 441.373045 
L 1050.665674 440.614785 
L 1054.048244 438.964454 
L 1056.303291 438.875247 
L 1057.430814 437.893969 
L 1058.558337 437.581744 
L 1061.940907 435.797603 
L 1064.195954 435.619189 
L 1065.323477 434.994739 
L 1066.451 433.61203 
L 1069.83357 432.140113 
L 1070.961093 432.050906 
L 1073.21614 431.292646 
L 1075.471186 429.285487 
L 1078.853756 427.724363 
L 1079.98128 427.635156 
L 1087.873943 423.264009 
L 1095.766606 420.409383 
L 1103.659269 415.993633 
L 1111.551932 412.469954 
L 1143.122584 394.896161 
L 1151.015247 391.194067 
L 1160.035433 386.064661 
L 1166.800573 383.834484 
L 1174.693236 380.266201 
L 1182.585899 377.902214 
L 1182.585899 377.902214 
" style="fill:none;stroke:#2ca02c;stroke-linecap:square;stroke-width:3;"/>
   </g>
   <g id="patch_6">
    <path d="M 698.371023 594.72 
L 698.371023 7.2 
" style="fill:none;stroke:#000000;stroke-linecap:square;stroke-linejoin:miter;stroke-width:0.8;"/>
   </g>
   <g id="patch_7">
    <path d="M 698.371023 594.72 
L 1205.64375 594.72 
" style="fill:none;stroke:#000000;stroke-linecap:square;stroke-linejoin:miter;stroke-width:0.8;"/>
   </g>
   <g id="legend_1">
    <g id="patch_8">
     <path d="M 708.171023 80.048125 
L 814.299773 80.048125 
Q 817.099773 80.048125 817.099773 77.248125 
L 817.099773 17 
Q 817.099773 14.2 814.299773 14.2 
L 708.171023 14.2 
Q 705.371023 14.2 705.371023 17 
L 705.371023 77.248125 
Q 705.371023 80.048125 708.171023 80.048125 
z
" style="fill:#ffffff;opacity:0.8;stroke:#cccccc;stroke-linejoin:miter;"/>
    </g>
    <g id="line2d_63">
     <path d="M 710.971023 25.537813 
L 738.971023 25.537813 
" style="fill:none;stroke:#1f77b4;stroke-linecap:square;stroke-width:3;"/>
    </g>
    <g id="line2d_64"/>
    <g id="text_32">
     <!-- arXiv -->
     <defs>
      <path d="M 6.296875 72.90625 
L 16.890625 72.90625 
L 35.015625 45.796875 
L 53.21875 72.90625 
L 63.8125 72.90625 
L 40.375 37.890625 
L 65.375 0 
L 54.78125 0 
L 34.28125 31 
L 13.625 0 
L 2.984375 0 
L 29 38.921875 
z
" id="DejaVuSans-88"/>
      <path d="M 2.984375 54.6875 
L 12.5 54.6875 
L 29.59375 8.796875 
L 46.6875 54.6875 
L 56.203125 54.6875 
L 35.6875 0 
L 23.484375 0 
z
" id="DejaVuSans-118"/>
     </defs>
     <g transform="translate(750.171023 30.437813)scale(0.14 -0.14)">
      <use xlink:href="#DejaVuSans-97"/>
      <use x="61.279297" xlink:href="#DejaVuSans-114"/>
      <use x="102.392578" xlink:href="#DejaVuSans-88"/>
      <use x="170.898438" xlink:href="#DejaVuSans-105"/>
      <use x="198.681641" xlink:href="#DejaVuSans-118"/>
     </g>
    </g>
    <g id="line2d_65">
     <path d="M 710.971023 46.087188 
L 738.971023 46.087188 
" style="fill:none;stroke:#ff7f0e;stroke-linecap:square;stroke-width:3;"/>
    </g>
    <g id="line2d_66"/>
    <g id="text_33">
     <!-- medRxiv -->
     <defs>
      <path d="M 45.40625 46.390625 
L 45.40625 75.984375 
L 54.390625 75.984375 
L 54.390625 0 
L 45.40625 0 
L 45.40625 8.203125 
Q 42.578125 3.328125 38.25 0.953125 
Q 33.9375 -1.421875 27.875 -1.421875 
Q 17.96875 -1.421875 11.734375 6.484375 
Q 5.515625 14.40625 5.515625 27.296875 
Q 5.515625 40.1875 11.734375 48.09375 
Q 17.96875 56 27.875 56 
Q 33.9375 56 38.25 53.625 
Q 42.578125 51.265625 45.40625 46.390625 
z
M 14.796875 27.296875 
Q 14.796875 17.390625 18.875 11.75 
Q 22.953125 6.109375 30.078125 6.109375 
Q 37.203125 6.109375 41.296875 11.75 
Q 45.40625 17.390625 45.40625 27.296875 
Q 45.40625 37.203125 41.296875 42.84375 
Q 37.203125 48.484375 30.078125 48.484375 
Q 22.953125 48.484375 18.875 42.84375 
Q 14.796875 37.203125 14.796875 27.296875 
z
" id="DejaVuSans-100"/>
      <path d="M 44.390625 34.1875 
Q 47.5625 33.109375 50.5625 29.59375 
Q 53.5625 26.078125 56.59375 19.921875 
L 66.609375 0 
L 56 0 
L 46.6875 18.703125 
Q 43.0625 26.03125 39.671875 28.421875 
Q 36.28125 30.8125 30.421875 30.8125 
L 19.671875 30.8125 
L 19.671875 0 
L 9.8125 0 
L 9.8125 72.90625 
L 32.078125 72.90625 
Q 44.578125 72.90625 50.734375 67.671875 
Q 56.890625 62.453125 56.890625 51.90625 
Q 56.890625 45.015625 53.6875 40.46875 
Q 50.484375 35.9375 44.390625 34.1875 
z
M 19.671875 64.796875 
L 19.671875 38.921875 
L 32.078125 38.921875 
Q 39.203125 38.921875 42.84375 42.21875 
Q 46.484375 45.515625 46.484375 51.90625 
Q 46.484375 58.296875 42.84375 61.546875 
Q 39.203125 64.796875 32.078125 64.796875 
z
" id="DejaVuSans-82"/>
      <path d="M 54.890625 54.6875 
L 35.109375 28.078125 
L 55.90625 0 
L 45.3125 0 
L 29.390625 21.484375 
L 13.484375 0 
L 2.875 0 
L 24.125 28.609375 
L 4.6875 54.6875 
L 15.28125 54.6875 
L 29.78125 35.203125 
L 44.28125 54.6875 
z
" id="DejaVuSans-120"/>
     </defs>
     <g transform="translate(750.171023 50.987188)scale(0.14 -0.14)">
      <use xlink:href="#DejaVuSans-109"/>
      <use x="97.412109" xlink:href="#DejaVuSans-101"/>
      <use x="158.935547" xlink:href="#DejaVuSans-100"/>
      <use x="222.412109" xlink:href="#DejaVuSans-82"/>
      <use x="291.894531" xlink:href="#DejaVuSans-120"/>
      <use x="351.074219" xlink:href="#DejaVuSans-105"/>
      <use x="378.857422" xlink:href="#DejaVuSans-118"/>
     </g>
    </g>
    <g id="line2d_67">
     <path d="M 710.971023 66.636563 
L 738.971023 66.636563 
" style="fill:none;stroke:#2ca02c;stroke-linecap:square;stroke-width:3;"/>
    </g>
    <g id="line2d_68"/>
    <g id="text_34">
     <!-- bioRxiv -->
     <defs>
      <path d="M 48.6875 27.296875 
Q 48.6875 37.203125 44.609375 42.84375 
Q 40.53125 48.484375 33.40625 48.484375 
Q 26.265625 48.484375 22.1875 42.84375 
Q 18.109375 37.203125 18.109375 27.296875 
Q 18.109375 17.390625 22.1875 11.75 
Q 26.265625 6.109375 33.40625 6.109375 
Q 40.53125 6.109375 44.609375 11.75 
Q 48.6875 17.390625 48.6875 27.296875 
z
M 18.109375 46.390625 
Q 20.953125 51.265625 25.265625 53.625 
Q 29.59375 56 35.59375 56 
Q 45.5625 56 51.78125 48.09375 
Q 58.015625 40.1875 58.015625 27.296875 
Q 58.015625 14.40625 51.78125 6.484375 
Q 45.5625 -1.421875 35.59375 -1.421875 
Q 29.59375 -1.421875 25.265625 0.953125 
Q 20.953125 3.328125 18.109375 8.203125 
L 18.109375 0 
L 9.078125 0 
L 9.078125 75.984375 
L 18.109375 75.984375 
z
" id="DejaVuSans-98"/>
     </defs>
     <g transform="translate(750.171023 71.536563)scale(0.14 -0.14)">
      <use xlink:href="#DejaVuSans-98"/>
      <use x="63.476562" xlink:href="#DejaVuSans-105"/>
      <use x="91.259766" xlink:href="#DejaVuSans-111"/>
      <use x="152.441406" xlink:href="#DejaVuSans-82"/>
      <use x="221.923828" xlink:href="#DejaVuSans-120"/>
      <use x="281.103516" xlink:href="#DejaVuSans-105"/>
      <use x="308.886719" xlink:href="#DejaVuSans-118"/>
     </g>
    </g>
   </g>
  </g>
 </g>
 <defs>
  <clipPath id="p3caf1d6d89">
   <rect height="587.52" width="507.272727" x="89.64375" y="7.2"/>
  </clipPath>
  <clipPath id="pc64560e3c6">
   <rect height="587.52" width="507.272727" x="698.371023" y="7.2"/>
  </clipPath>
 </defs>
</svg>
