<?xml version="1.0" encoding="utf-8" standalone="no"?>
<!DOCTYPE svg PUBLIC "-//W3C//DTD SVG 1.1//EN"
  "http://www.w3.org/Graphics/SVG/1.1/DTD/svg11.dtd">
<!-- Created with matplotlib (https://matplotlib.org/) -->
<svg height="679.17498pt" version="1.1" viewBox="0 0 840.3725 679.17498" width="840.3725pt" xmlns="http://www.w3.org/2000/svg" xmlns:xlink="http://www.w3.org/1999/xlink">
 <defs>
  <style type="text/css">
*{stroke-linecap:butt;stroke-linejoin:round;}
  </style>
 </defs>
 <g id="figure_1">
  <g id="patch_1">
   <path d="M -0 679.17498 
L 840.3725 679.17498 
L 840.3725 0 
L -0 0 
z
" style="fill:#ffffff;"/>
  </g>
  <g id="axes_1">
   <g id="patch_2">
    <path d="M 163.5725 274.254545 
L 833.1725 274.254545 
L 833.1725 7.2 
L 163.5725 7.2 
z
" style="fill:#ffffff;"/>
   </g>
   <g id="matplotlib.axis_1">
    <g id="xtick_1">
     <g id="line2d_1">
      <path clip-path="url(#pa8df3d3012)" d="M 203.507859 274.254545 
L 203.507859 7.2 
" style="fill:none;stroke:#d3d3d3;stroke-linecap:square;stroke-width:0.8;"/>
     </g>
     <g id="line2d_2">
      <defs>
       <path d="M 0 0 
L 0 3.5 
" id="ma9f5d966ee" style="stroke:#000000;stroke-width:0.8;"/>
      </defs>
      <g>
       <use style="stroke:#000000;stroke-width:0.8;" x="203.507859" xlink:href="#ma9f5d966ee" y="274.254545"/>
      </g>
     </g>
    </g>
    <g id="xtick_2">
     <g id="line2d_3">
      <path clip-path="url(#pa8df3d3012)" d="M 275.541905 274.254545 
L 275.541905 7.2 
" style="fill:none;stroke:#d3d3d3;stroke-linecap:square;stroke-width:0.8;"/>
     </g>
     <g id="line2d_4">
      <g>
       <use style="stroke:#000000;stroke-width:0.8;" x="275.541905" xlink:href="#ma9f5d966ee" y="274.254545"/>
      </g>
     </g>
    </g>
    <g id="xtick_3">
     <g id="line2d_5">
      <path clip-path="url(#pa8df3d3012)" d="M 348.367535 274.254545 
L 348.367535 7.2 
" style="fill:none;stroke:#d3d3d3;stroke-linecap:square;stroke-width:0.8;"/>
     </g>
     <g id="line2d_6">
      <g>
       <use style="stroke:#000000;stroke-width:0.8;" x="348.367535" xlink:href="#ma9f5d966ee" y="274.254545"/>
      </g>
     </g>
    </g>
    <g id="xtick_4">
     <g id="line2d_7">
      <path clip-path="url(#pa8df3d3012)" d="M 421.193164 274.254545 
L 421.193164 7.2 
" style="fill:none;stroke:#d3d3d3;stroke-linecap:square;stroke-width:0.8;"/>
     </g>
     <g id="line2d_8">
      <g>
       <use style="stroke:#000000;stroke-width:0.8;" x="421.193164" xlink:href="#ma9f5d966ee" y="274.254545"/>
      </g>
     </g>
    </g>
    <g id="xtick_5">
     <g id="line2d_9">
      <path clip-path="url(#pa8df3d3012)" d="M 492.435628 274.254545 
L 492.435628 7.2 
" style="fill:none;stroke:#d3d3d3;stroke-linecap:square;stroke-width:0.8;"/>
     </g>
     <g id="line2d_10">
      <g>
       <use style="stroke:#000000;stroke-width:0.8;" x="492.435628" xlink:href="#ma9f5d966ee" y="274.254545"/>
      </g>
     </g>
    </g>
    <g id="xtick_6">
     <g id="line2d_11">
      <path clip-path="url(#pa8df3d3012)" d="M 564.469675 274.254545 
L 564.469675 7.2 
" style="fill:none;stroke:#d3d3d3;stroke-linecap:square;stroke-width:0.8;"/>
     </g>
     <g id="line2d_12">
      <g>
       <use style="stroke:#000000;stroke-width:0.8;" x="564.469675" xlink:href="#ma9f5d966ee" y="274.254545"/>
      </g>
     </g>
    </g>
    <g id="xtick_7">
     <g id="line2d_13">
      <path clip-path="url(#pa8df3d3012)" d="M 637.295304 274.254545 
L 637.295304 7.2 
" style="fill:none;stroke:#d3d3d3;stroke-linecap:square;stroke-width:0.8;"/>
     </g>
     <g id="line2d_14">
      <g>
       <use style="stroke:#000000;stroke-width:0.8;" x="637.295304" xlink:href="#ma9f5d966ee" y="274.254545"/>
      </g>
     </g>
    </g>
    <g id="xtick_8">
     <g id="line2d_15">
      <path clip-path="url(#pa8df3d3012)" d="M 710.120934 274.254545 
L 710.120934 7.2 
" style="fill:none;stroke:#d3d3d3;stroke-linecap:square;stroke-width:0.8;"/>
     </g>
     <g id="line2d_16">
      <g>
       <use style="stroke:#000000;stroke-width:0.8;" x="710.120934" xlink:href="#ma9f5d966ee" y="274.254545"/>
      </g>
     </g>
    </g>
    <g id="xtick_9">
     <g id="line2d_17">
      <path clip-path="url(#pa8df3d3012)" d="M 781.363397 274.254545 
L 781.363397 7.2 
" style="fill:none;stroke:#d3d3d3;stroke-linecap:square;stroke-width:0.8;"/>
     </g>
     <g id="line2d_18">
      <g>
       <use style="stroke:#000000;stroke-width:0.8;" x="781.363397" xlink:href="#ma9f5d966ee" y="274.254545"/>
      </g>
     </g>
    </g>
   </g>
   <g id="matplotlib.axis_2">
    <g id="ytick_1">
     <g id="line2d_19">
      <path clip-path="url(#pa8df3d3012)" d="M 163.5725 274.254545 
L 833.1725 274.254545 
" style="fill:none;stroke:#d3d3d3;stroke-linecap:square;stroke-width:0.8;"/>
     </g>
     <g id="line2d_20">
      <defs>
       <path d="M 0 0 
L -3.5 0 
" id="me0c6deefa6" style="stroke:#000000;stroke-width:0.8;"/>
      </defs>
      <g>
       <use style="stroke:#000000;stroke-width:0.8;" x="163.5725" xlink:href="#me0c6deefa6" y="274.254545"/>
      </g>
     </g>
     <g id="text_1">
      <!-- 0 -->
      <defs>
       <path d="M 31.78125 66.40625 
Q 24.171875 66.40625 20.328125 58.90625 
Q 16.5 51.421875 16.5 36.375 
Q 16.5 21.390625 20.328125 13.890625 
Q 24.171875 6.390625 31.78125 6.390625 
Q 39.453125 6.390625 43.28125 13.890625 
Q 47.125 21.390625 47.125 36.375 
Q 47.125 51.421875 43.28125 58.90625 
Q 39.453125 66.40625 31.78125 66.40625 
z
M 31.78125 74.21875 
Q 44.046875 74.21875 50.515625 64.515625 
Q 56.984375 54.828125 56.984375 36.375 
Q 56.984375 17.96875 50.515625 8.265625 
Q 44.046875 -1.421875 31.78125 -1.421875 
Q 19.53125 -1.421875 13.0625 8.265625 
Q 6.59375 17.96875 6.59375 36.375 
Q 6.59375 54.828125 13.0625 64.515625 
Q 19.53125 74.21875 31.78125 74.21875 
z
" id="DejaVuSans-48"/>
      </defs>
      <g transform="translate(141.3025 283.37267)scale(0.24 -0.24)">
       <use xlink:href="#DejaVuSans-48"/>
      </g>
     </g>
    </g>
    <g id="ytick_2">
     <g id="line2d_21">
      <path clip-path="url(#pa8df3d3012)" d="M 163.5725 211.964656 
L 833.1725 211.964656 
" style="fill:none;stroke:#d3d3d3;stroke-linecap:square;stroke-width:0.8;"/>
     </g>
     <g id="line2d_22">
      <g>
       <use style="stroke:#000000;stroke-width:0.8;" x="163.5725" xlink:href="#me0c6deefa6" y="211.964656"/>
      </g>
     </g>
     <g id="text_2">
      <!-- 250,000 -->
      <defs>
       <path d="M 19.1875 8.296875 
L 53.609375 8.296875 
L 53.609375 0 
L 7.328125 0 
L 7.328125 8.296875 
Q 12.9375 14.109375 22.625 23.890625 
Q 32.328125 33.6875 34.8125 36.53125 
Q 39.546875 41.84375 41.421875 45.53125 
Q 43.3125 49.21875 43.3125 52.78125 
Q 43.3125 58.59375 39.234375 62.25 
Q 35.15625 65.921875 28.609375 65.921875 
Q 23.96875 65.921875 18.8125 64.3125 
Q 13.671875 62.703125 7.8125 59.421875 
L 7.8125 69.390625 
Q 13.765625 71.78125 18.9375 73 
Q 24.125 74.21875 28.421875 74.21875 
Q 39.75 74.21875 46.484375 68.546875 
Q 53.21875 62.890625 53.21875 53.421875 
Q 53.21875 48.921875 51.53125 44.890625 
Q 49.859375 40.875 45.40625 35.40625 
Q 44.1875 33.984375 37.640625 27.21875 
Q 31.109375 20.453125 19.1875 8.296875 
z
" id="DejaVuSans-50"/>
       <path d="M 10.796875 72.90625 
L 49.515625 72.90625 
L 49.515625 64.59375 
L 19.828125 64.59375 
L 19.828125 46.734375 
Q 21.96875 47.46875 24.109375 47.828125 
Q 26.265625 48.1875 28.421875 48.1875 
Q 40.625 48.1875 47.75 41.5 
Q 54.890625 34.8125 54.890625 23.390625 
Q 54.890625 11.625 47.5625 5.09375 
Q 40.234375 -1.421875 26.90625 -1.421875 
Q 22.3125 -1.421875 17.546875 -0.640625 
Q 12.796875 0.140625 7.71875 1.703125 
L 7.71875 11.625 
Q 12.109375 9.234375 16.796875 8.0625 
Q 21.484375 6.890625 26.703125 6.890625 
Q 35.15625 6.890625 40.078125 11.328125 
Q 45.015625 15.765625 45.015625 23.390625 
Q 45.015625 31 40.078125 35.4375 
Q 35.15625 39.890625 26.703125 39.890625 
Q 22.75 39.890625 18.8125 39.015625 
Q 14.890625 38.140625 10.796875 36.28125 
z
" id="DejaVuSans-53"/>
       <path d="M 11.71875 12.40625 
L 22.015625 12.40625 
L 22.015625 4 
L 14.015625 -11.625 
L 7.71875 -11.625 
L 11.71875 4 
z
" id="DejaVuSans-44"/>
      </defs>
      <g transform="translate(57.325 221.082781)scale(0.24 -0.24)">
       <use xlink:href="#DejaVuSans-50"/>
       <use x="63.623047" xlink:href="#DejaVuSans-53"/>
       <use x="127.246094" xlink:href="#DejaVuSans-48"/>
       <use x="190.869141" xlink:href="#DejaVuSans-44"/>
       <use x="222.65625" xlink:href="#DejaVuSans-48"/>
       <use x="286.279297" xlink:href="#DejaVuSans-48"/>
       <use x="349.902344" xlink:href="#DejaVuSans-48"/>
      </g>
     </g>
    </g>
    <g id="ytick_3">
     <g id="line2d_23">
      <path clip-path="url(#pa8df3d3012)" d="M 163.5725 149.674767 
L 833.1725 149.674767 
" style="fill:none;stroke:#d3d3d3;stroke-linecap:square;stroke-width:0.8;"/>
     </g>
     <g id="line2d_24">
      <g>
       <use style="stroke:#000000;stroke-width:0.8;" x="163.5725" xlink:href="#me0c6deefa6" y="149.674767"/>
      </g>
     </g>
     <g id="text_3">
      <!-- 500,000 -->
      <g transform="translate(57.325 158.792892)scale(0.24 -0.24)">
       <use xlink:href="#DejaVuSans-53"/>
       <use x="63.623047" xlink:href="#DejaVuSans-48"/>
       <use x="127.246094" xlink:href="#DejaVuSans-48"/>
       <use x="190.869141" xlink:href="#DejaVuSans-44"/>
       <use x="222.65625" xlink:href="#DejaVuSans-48"/>
       <use x="286.279297" xlink:href="#DejaVuSans-48"/>
       <use x="349.902344" xlink:href="#DejaVuSans-48"/>
      </g>
     </g>
    </g>
    <g id="ytick_4">
     <g id="line2d_25">
      <path clip-path="url(#pa8df3d3012)" d="M 163.5725 87.384878 
L 833.1725 87.384878 
" style="fill:none;stroke:#d3d3d3;stroke-linecap:square;stroke-width:0.8;"/>
     </g>
     <g id="line2d_26">
      <g>
       <use style="stroke:#000000;stroke-width:0.8;" x="163.5725" xlink:href="#me0c6deefa6" y="87.384878"/>
      </g>
     </g>
     <g id="text_4">
      <!-- 750,000 -->
      <defs>
       <path d="M 8.203125 72.90625 
L 55.078125 72.90625 
L 55.078125 68.703125 
L 28.609375 0 
L 18.3125 0 
L 43.21875 64.59375 
L 8.203125 64.59375 
z
" id="DejaVuSans-55"/>
      </defs>
      <g transform="translate(57.325 96.503003)scale(0.24 -0.24)">
       <use xlink:href="#DejaVuSans-55"/>
       <use x="63.623047" xlink:href="#DejaVuSans-53"/>
       <use x="127.246094" xlink:href="#DejaVuSans-48"/>
       <use x="190.869141" xlink:href="#DejaVuSans-44"/>
       <use x="222.65625" xlink:href="#DejaVuSans-48"/>
       <use x="286.279297" xlink:href="#DejaVuSans-48"/>
       <use x="349.902344" xlink:href="#DejaVuSans-48"/>
      </g>
     </g>
    </g>
    <g id="ytick_5">
     <g id="line2d_27">
      <path clip-path="url(#pa8df3d3012)" d="M 163.5725 25.094988 
L 833.1725 25.094988 
" style="fill:none;stroke:#d3d3d3;stroke-linecap:square;stroke-width:0.8;"/>
     </g>
     <g id="line2d_28">
      <g>
       <use style="stroke:#000000;stroke-width:0.8;" x="163.5725" xlink:href="#me0c6deefa6" y="25.094988"/>
      </g>
     </g>
     <g id="text_5">
      <!-- 1,000,000 -->
      <defs>
       <path d="M 12.40625 8.296875 
L 28.515625 8.296875 
L 28.515625 63.921875 
L 10.984375 60.40625 
L 10.984375 69.390625 
L 28.421875 72.90625 
L 38.28125 72.90625 
L 38.28125 8.296875 
L 54.390625 8.296875 
L 54.390625 0 
L 12.40625 0 
z
" id="DejaVuSans-49"/>
      </defs>
      <g transform="translate(34.4275 34.213113)scale(0.24 -0.24)">
       <use xlink:href="#DejaVuSans-49"/>
       <use x="63.623047" xlink:href="#DejaVuSans-44"/>
       <use x="95.410156" xlink:href="#DejaVuSans-48"/>
       <use x="159.033203" xlink:href="#DejaVuSans-48"/>
       <use x="222.65625" xlink:href="#DejaVuSans-48"/>
       <use x="286.279297" xlink:href="#DejaVuSans-44"/>
       <use x="318.066406" xlink:href="#DejaVuSans-48"/>
       <use x="381.689453" xlink:href="#DejaVuSans-48"/>
       <use x="445.3125" xlink:href="#DejaVuSans-48"/>
      </g>
     </g>
    </g>
    <g id="text_6">
     <!-- Total manuscripts -->
     <defs>
      <path d="M -0.296875 72.90625 
L 61.375 72.90625 
L 61.375 64.59375 
L 35.5 64.59375 
L 35.5 0 
L 25.59375 0 
L 25.59375 64.59375 
L -0.296875 64.59375 
z
" id="DejaVuSans-84"/>
      <path d="M 30.609375 48.390625 
Q 23.390625 48.390625 19.1875 42.75 
Q 14.984375 37.109375 14.984375 27.296875 
Q 14.984375 17.484375 19.15625 11.84375 
Q 23.34375 6.203125 30.609375 6.203125 
Q 37.796875 6.203125 41.984375 11.859375 
Q 46.1875 17.53125 46.1875 27.296875 
Q 46.1875 37.015625 41.984375 42.703125 
Q 37.796875 48.390625 30.609375 48.390625 
z
M 30.609375 56 
Q 42.328125 56 49.015625 48.375 
Q 55.71875 40.765625 55.71875 27.296875 
Q 55.71875 13.875 49.015625 6.21875 
Q 42.328125 -1.421875 30.609375 -1.421875 
Q 18.84375 -1.421875 12.171875 6.21875 
Q 5.515625 13.875 5.515625 27.296875 
Q 5.515625 40.765625 12.171875 48.375 
Q 18.84375 56 30.609375 56 
z
" id="DejaVuSans-111"/>
      <path d="M 18.3125 70.21875 
L 18.3125 54.6875 
L 36.8125 54.6875 
L 36.8125 47.703125 
L 18.3125 47.703125 
L 18.3125 18.015625 
Q 18.3125 11.328125 20.140625 9.421875 
Q 21.96875 7.515625 27.59375 7.515625 
L 36.8125 7.515625 
L 36.8125 0 
L 27.59375 0 
Q 17.1875 0 13.234375 3.875 
Q 9.28125 7.765625 9.28125 18.015625 
L 9.28125 47.703125 
L 2.6875 47.703125 
L 2.6875 54.6875 
L 9.28125 54.6875 
L 9.28125 70.21875 
z
" id="DejaVuSans-116"/>
      <path d="M 34.28125 27.484375 
Q 23.390625 27.484375 19.1875 25 
Q 14.984375 22.515625 14.984375 16.5 
Q 14.984375 11.71875 18.140625 8.90625 
Q 21.296875 6.109375 26.703125 6.109375 
Q 34.1875 6.109375 38.703125 11.40625 
Q 43.21875 16.703125 43.21875 25.484375 
L 43.21875 27.484375 
z
M 52.203125 31.203125 
L 52.203125 0 
L 43.21875 0 
L 43.21875 8.296875 
Q 40.140625 3.328125 35.546875 0.953125 
Q 30.953125 -1.421875 24.3125 -1.421875 
Q 15.921875 -1.421875 10.953125 3.296875 
Q 6 8.015625 6 15.921875 
Q 6 25.140625 12.171875 29.828125 
Q 18.359375 34.515625 30.609375 34.515625 
L 43.21875 34.515625 
L 43.21875 35.40625 
Q 43.21875 41.609375 39.140625 45 
Q 35.0625 48.390625 27.6875 48.390625 
Q 23 48.390625 18.546875 47.265625 
Q 14.109375 46.140625 10.015625 43.890625 
L 10.015625 52.203125 
Q 14.9375 54.109375 19.578125 55.046875 
Q 24.21875 56 28.609375 56 
Q 40.484375 56 46.34375 49.84375 
Q 52.203125 43.703125 52.203125 31.203125 
z
" id="DejaVuSans-97"/>
      <path d="M 9.421875 75.984375 
L 18.40625 75.984375 
L 18.40625 0 
L 9.421875 0 
z
" id="DejaVuSans-108"/>
      <path id="DejaVuSans-32"/>
      <path d="M 52 44.1875 
Q 55.375 50.25 60.0625 53.125 
Q 64.75 56 71.09375 56 
Q 79.640625 56 84.28125 50.015625 
Q 88.921875 44.046875 88.921875 33.015625 
L 88.921875 0 
L 79.890625 0 
L 79.890625 32.71875 
Q 79.890625 40.578125 77.09375 44.375 
Q 74.3125 48.1875 68.609375 48.1875 
Q 61.625 48.1875 57.5625 43.546875 
Q 53.515625 38.921875 53.515625 30.90625 
L 53.515625 0 
L 44.484375 0 
L 44.484375 32.71875 
Q 44.484375 40.625 41.703125 44.40625 
Q 38.921875 48.1875 33.109375 48.1875 
Q 26.21875 48.1875 22.15625 43.53125 
Q 18.109375 38.875 18.109375 30.90625 
L 18.109375 0 
L 9.078125 0 
L 9.078125 54.6875 
L 18.109375 54.6875 
L 18.109375 46.1875 
Q 21.1875 51.21875 25.484375 53.609375 
Q 29.78125 56 35.6875 56 
Q 41.65625 56 45.828125 52.96875 
Q 50 49.953125 52 44.1875 
z
" id="DejaVuSans-109"/>
      <path d="M 54.890625 33.015625 
L 54.890625 0 
L 45.90625 0 
L 45.90625 32.71875 
Q 45.90625 40.484375 42.875 44.328125 
Q 39.84375 48.1875 33.796875 48.1875 
Q 26.515625 48.1875 22.3125 43.546875 
Q 18.109375 38.921875 18.109375 30.90625 
L 18.109375 0 
L 9.078125 0 
L 9.078125 54.6875 
L 18.109375 54.6875 
L 18.109375 46.1875 
Q 21.34375 51.125 25.703125 53.5625 
Q 30.078125 56 35.796875 56 
Q 45.21875 56 50.046875 50.171875 
Q 54.890625 44.34375 54.890625 33.015625 
z
" id="DejaVuSans-110"/>
      <path d="M 8.5 21.578125 
L 8.5 54.6875 
L 17.484375 54.6875 
L 17.484375 21.921875 
Q 17.484375 14.15625 20.5 10.265625 
Q 23.53125 6.390625 29.59375 6.390625 
Q 36.859375 6.390625 41.078125 11.03125 
Q 45.3125 15.671875 45.3125 23.6875 
L 45.3125 54.6875 
L 54.296875 54.6875 
L 54.296875 0 
L 45.3125 0 
L 45.3125 8.40625 
Q 42.046875 3.421875 37.71875 1 
Q 33.40625 -1.421875 27.6875 -1.421875 
Q 18.265625 -1.421875 13.375 4.4375 
Q 8.5 10.296875 8.5 21.578125 
z
M 31.109375 56 
z
" id="DejaVuSans-117"/>
      <path d="M 44.28125 53.078125 
L 44.28125 44.578125 
Q 40.484375 46.53125 36.375 47.5 
Q 32.28125 48.484375 27.875 48.484375 
Q 21.1875 48.484375 17.84375 46.4375 
Q 14.5 44.390625 14.5 40.28125 
Q 14.5 37.15625 16.890625 35.375 
Q 19.28125 33.59375 26.515625 31.984375 
L 29.59375 31.296875 
Q 39.15625 29.25 43.1875 25.515625 
Q 47.21875 21.78125 47.21875 15.09375 
Q 47.21875 7.46875 41.1875 3.015625 
Q 35.15625 -1.421875 24.609375 -1.421875 
Q 20.21875 -1.421875 15.453125 -0.5625 
Q 10.6875 0.296875 5.421875 2 
L 5.421875 11.28125 
Q 10.40625 8.6875 15.234375 7.390625 
Q 20.0625 6.109375 24.8125 6.109375 
Q 31.15625 6.109375 34.5625 8.28125 
Q 37.984375 10.453125 37.984375 14.40625 
Q 37.984375 18.0625 35.515625 20.015625 
Q 33.0625 21.96875 24.703125 23.78125 
L 21.578125 24.515625 
Q 13.234375 26.265625 9.515625 29.90625 
Q 5.8125 33.546875 5.8125 39.890625 
Q 5.8125 47.609375 11.28125 51.796875 
Q 16.75 56 26.8125 56 
Q 31.78125 56 36.171875 55.265625 
Q 40.578125 54.546875 44.28125 53.078125 
z
" id="DejaVuSans-115"/>
      <path d="M 48.78125 52.59375 
L 48.78125 44.1875 
Q 44.96875 46.296875 41.140625 47.34375 
Q 37.3125 48.390625 33.40625 48.390625 
Q 24.65625 48.390625 19.8125 42.84375 
Q 14.984375 37.3125 14.984375 27.296875 
Q 14.984375 17.28125 19.8125 11.734375 
Q 24.65625 6.203125 33.40625 6.203125 
Q 37.3125 6.203125 41.140625 7.25 
Q 44.96875 8.296875 48.78125 10.40625 
L 48.78125 2.09375 
Q 45.015625 0.34375 40.984375 -0.53125 
Q 36.96875 -1.421875 32.421875 -1.421875 
Q 20.0625 -1.421875 12.78125 6.34375 
Q 5.515625 14.109375 5.515625 27.296875 
Q 5.515625 40.671875 12.859375 48.328125 
Q 20.21875 56 33.015625 56 
Q 37.15625 56 41.109375 55.140625 
Q 45.0625 54.296875 48.78125 52.59375 
z
" id="DejaVuSans-99"/>
      <path d="M 41.109375 46.296875 
Q 39.59375 47.171875 37.8125 47.578125 
Q 36.03125 48 33.890625 48 
Q 26.265625 48 22.1875 43.046875 
Q 18.109375 38.09375 18.109375 28.8125 
L 18.109375 0 
L 9.078125 0 
L 9.078125 54.6875 
L 18.109375 54.6875 
L 18.109375 46.1875 
Q 20.953125 51.171875 25.484375 53.578125 
Q 30.03125 56 36.53125 56 
Q 37.453125 56 38.578125 55.875 
Q 39.703125 55.765625 41.0625 55.515625 
z
" id="DejaVuSans-114"/>
      <path d="M 9.421875 54.6875 
L 18.40625 54.6875 
L 18.40625 0 
L 9.421875 0 
z
M 9.421875 75.984375 
L 18.40625 75.984375 
L 18.40625 64.59375 
L 9.421875 64.59375 
z
" id="DejaVuSans-105"/>
      <path d="M 18.109375 8.203125 
L 18.109375 -20.796875 
L 9.078125 -20.796875 
L 9.078125 54.6875 
L 18.109375 54.6875 
L 18.109375 46.390625 
Q 20.953125 51.265625 25.265625 53.625 
Q 29.59375 56 35.59375 56 
Q 45.5625 56 51.78125 48.09375 
Q 58.015625 40.1875 58.015625 27.296875 
Q 58.015625 14.40625 51.78125 6.484375 
Q 45.5625 -1.421875 35.59375 -1.421875 
Q 29.59375 -1.421875 25.265625 0.953125 
Q 20.953125 3.328125 18.109375 8.203125 
z
M 48.6875 27.296875 
Q 48.6875 37.203125 44.609375 42.84375 
Q 40.53125 48.484375 33.40625 48.484375 
Q 26.265625 48.484375 22.1875 42.84375 
Q 18.109375 37.203125 18.109375 27.296875 
Q 18.109375 17.390625 22.1875 11.75 
Q 26.265625 6.109375 33.40625 6.109375 
Q 40.53125 6.109375 44.609375 11.75 
Q 48.6875 17.390625 48.6875 27.296875 
z
" id="DejaVuSans-112"/>
     </defs>
     <g transform="translate(25.43625 248.515398)rotate(-90)scale(0.24 -0.24)">
      <use xlink:href="#DejaVuSans-84"/>
      <use x="60.818359" xlink:href="#DejaVuSans-111"/>
      <use x="122" xlink:href="#DejaVuSans-116"/>
      <use x="161.208984" xlink:href="#DejaVuSans-97"/>
      <use x="222.488281" xlink:href="#DejaVuSans-108"/>
      <use x="250.271484" xlink:href="#DejaVuSans-32"/>
      <use x="282.058594" xlink:href="#DejaVuSans-109"/>
      <use x="379.470703" xlink:href="#DejaVuSans-97"/>
      <use x="440.75" xlink:href="#DejaVuSans-110"/>
      <use x="504.128906" xlink:href="#DejaVuSans-117"/>
      <use x="567.507812" xlink:href="#DejaVuSans-115"/>
      <use x="619.607422" xlink:href="#DejaVuSans-99"/>
      <use x="674.587891" xlink:href="#DejaVuSans-114"/>
      <use x="715.701172" xlink:href="#DejaVuSans-105"/>
      <use x="743.484375" xlink:href="#DejaVuSans-112"/>
      <use x="806.960938" xlink:href="#DejaVuSans-116"/>
      <use x="846.169922" xlink:href="#DejaVuSans-115"/>
     </g>
    </g>
   </g>
   <g id="line2d_29">
    <path clip-path="url(#pa8df3d3012)" d="M 194.008864 263.23671 
L 205.091025 262.469797 
L 210.632105 261.527974 
L 216.173186 261.199083 
L 221.714266 259.961258 
L 235.962759 258.415223 
L 241.503839 242.239536 
L 247.04492 240.815838 
L 247.836503 240.352152 
L 249.419669 239.669455 
L 250.211252 239.606168 
L 251.794417 239.239655 
L 252.586 239.095889 
L 253.377583 240.58088 
L 254.960749 240.348415 
L 256.543915 240.223586 
L 257.335498 240.017282 
L 258.918664 239.424033 
L 262.876578 238.648399 
L 263.668161 237.746441 
L 264.459744 235.038326 
L 268.417659 234.651381 
L 269.209242 234.300315 
L 270.000825 234.368585 
L 270.792408 233.999331 
L 271.583991 233.505995 
L 272.375574 233.433489 
L 273.167157 232.527794 
L 273.95874 232.44009 
L 275.541905 231.94202 
L 277.125071 229.367704 
L 277.916654 229.043049 
L 279.49982 228.825782 
L 280.291403 228.623215 
L 281.082986 228.177718 
L 282.666152 227.679399 
L 284.249318 227.427997 
L 285.832483 226.753023 
L 287.415649 226.289088 
L 292.95673 224.888812 
L 296.123062 224.648871 
L 296.914644 223.889682 
L 297.706227 223.643263 
L 298.49781 223.545094 
L 300.080976 223.000182 
L 301.664142 222.601028 
L 302.455725 222.530267 
L 304.038891 221.830129 
L 304.830474 221.623825 
L 305.622057 221.79724 
L 308.788388 221.131236 
L 309.579971 220.553934 
L 310.371554 220.290821 
L 311.163137 218.280103 
L 311.95472 217.792 
L 313.537886 217.583702 
L 315.121052 216.974757 
L 315.912635 216.867369 
L 317.495801 216.129607 
L 318.287384 216.066072 
L 319.078966 215.880448 
L 321.453715 214.786637 
L 322.245298 214.705411 
L 324.620047 213.91707 
L 326.203213 213.196252 
L 330.161127 211.923545 
L 330.95271 211.532863 
L 332.535876 211.104059 
L 334.910625 209.190763 
L 335.702208 208.846424 
L 336.493791 207.959915 
L 337.285374 207.9345 
L 338.076957 207.438922 
L 338.86854 206.74875 
L 339.660123 206.22402 
L 341.243289 205.976605 
L 342.034871 205.668394 
L 342.826454 205.232863 
L 343.618037 204.620678 
L 345.992786 203.81365 
L 353.117032 202.041877 
L 353.908615 201.101798 
L 354.700198 200.866591 
L 355.491781 199.551278 
L 356.283364 199.091329 
L 358.658113 198.422834 
L 361.032862 197.673611 
L 361.824445 197.213414 
L 362.616028 197.183265 
L 363.407611 196.807284 
L 364.199193 196.612441 
L 365.782359 195.533082 
L 367.365525 194.987671 
L 369.740274 194.394422 
L 370.531857 193.915289 
L 372.115023 191.832315 
L 372.906606 191.419457 
L 374.489772 191.164069 
L 375.281354 190.96499 
L 376.86452 189.731651 
L 378.447686 189.113486 
L 380.030852 188.851619 
L 381.614018 188.126814 
L 382.405601 187.980806 
L 383.197184 185.926486 
L 383.988767 185.666363 
L 385.571933 185.458066 
L 386.363515 185.137148 
L 387.946681 184.728028 
L 389.529847 184.180126 
L 391.113013 183.936448 
L 393.487762 182.754186 
L 394.279345 182.651782 
L 399.820425 181.066629 
L 400.612008 180.846621 
L 401.403591 180.79629 
L 403.77834 180.011189 
L 404.569923 179.67881 
L 405.361506 179.580392 
L 406.153089 179.121191 
L 410.902586 176.816465 
L 411.694169 176.562073 
L 413.277335 176.342813 
L 414.068918 175.908527 
L 414.860501 175.649651 
L 415.652084 175.639186 
L 419.609999 175.243521 
L 420.401581 174.561073 
L 423.567913 174.484331 
L 425.151079 174.237913 
L 425.942662 171.809853 
L 426.734245 171.352645 
L 427.525828 171.097506 
L 428.317411 170.554587 
L 429.900577 170.319629 
L 431.483742 169.6464 
L 433.066908 168.431249 
L 433.858491 168.197537 
L 434.650074 168.163403 
L 435.441657 167.840741 
L 437.024823 167.570901 
L 438.607989 166.82118 
L 439.399572 166.477091 
L 440.982738 166.262315 
L 442.565903 164.930308 
L 443.357486 164.84385 
L 444.149069 164.512468 
L 445.732235 164.342292 
L 451.273316 162.036818 
L 456.814396 159.449047 
L 462.355477 157.76722 
L 467.896557 155.461248 
L 473.437638 154.104575 
L 484.519799 151.941122 
L 490.060879 150.196507 
L 495.60196 144.15364 
L 501.934623 142.286937 
L 506.684121 140.501459 
L 512.225201 138.610588 
L 517.766282 136.48725 
L 523.307362 132.770786 
L 528.848443 129.927626 
L 534.389523 127.758443 
L 539.930604 124.854488 
L 551.012765 112.069613 
L 556.553845 109.933319 
L 562.094926 107.374201 
L 567.636006 104.41593 
L 573.177087 102.015776 
L 578.718167 97.56155 
L 584.259248 95.235397 
L 589.800328 92.429362 
L 595.341409 89.801227 
L 603.257238 87.708536 
L 606.42357 85.303648 
L 611.96465 82.668536 
L 617.505731 86.900761 
L 634.128972 83.760353 
L 645.211133 78.597518 
L 656.293294 74.472931 
L 661.834375 72.121861 
L 667.375455 69.375874 
L 672.916536 67.142158 
L 683.998697 63.571453 
L 695.080858 60.473901 
L 700.621938 58.331627 
L 711.704099 56.297738 
L 739.409502 47.619511 
L 759.990658 41.322252 
L 763.15699 38.975667 
L 780.571814 26.858789 
L 786.112895 25.005789 
L 797.195056 21.16624 
L 802.736136 19.392224 
L 802.736136 19.392224 
" style="fill:none;stroke:#1f77b4;stroke-linecap:square;stroke-width:5;"/>
   </g>
   <g id="patch_3">
    <path d="M 163.5725 274.254545 
L 163.5725 7.2 
" style="fill:none;stroke:#000000;stroke-linecap:square;stroke-linejoin:miter;stroke-width:0.8;"/>
   </g>
   <g id="patch_4">
    <path d="M 163.5725 274.254545 
L 833.1725 274.254545 
" style="fill:none;stroke:#000000;stroke-linecap:square;stroke-linejoin:miter;stroke-width:0.8;"/>
   </g>
  </g>
  <g id="axes_2">
   <g id="patch_5">
    <path d="M 163.5725 594.72 
L 833.1725 594.72 
L 833.1725 327.665455 
L 163.5725 327.665455 
z
" style="fill:#ffffff;"/>
   </g>
   <g id="matplotlib.axis_3">
    <g id="xtick_10">
     <g id="line2d_30">
      <path clip-path="url(#p5b1210ba85)" d="M 203.507859 594.72 
L 203.507859 327.665455 
" style="fill:none;stroke:#d3d3d3;stroke-linecap:square;stroke-width:0.8;"/>
     </g>
     <g id="line2d_31">
      <g>
       <use style="stroke:#000000;stroke-width:0.8;" x="203.507859" xlink:href="#ma9f5d966ee" y="594.72"/>
      </g>
     </g>
     <g id="text_7">
      <!-- 2020-04 -->
      <defs>
       <path d="M 4.890625 31.390625 
L 31.203125 31.390625 
L 31.203125 23.390625 
L 4.890625 23.390625 
z
" id="DejaVuSans-45"/>
       <path d="M 37.796875 64.3125 
L 12.890625 25.390625 
L 37.796875 25.390625 
z
M 35.203125 72.90625 
L 47.609375 72.90625 
L 47.609375 25.390625 
L 58.015625 25.390625 
L 58.015625 17.1875 
L 47.609375 17.1875 
L 47.609375 0 
L 37.796875 0 
L 37.796875 17.1875 
L 4.890625 17.1875 
L 4.890625 26.703125 
z
" id="DejaVuSans-52"/>
      </defs>
      <g transform="translate(114.168289 667.652431)rotate(-30)scale(0.24 -0.24)">
       <use xlink:href="#DejaVuSans-50"/>
       <use x="63.623047" xlink:href="#DejaVuSans-48"/>
       <use x="127.246094" xlink:href="#DejaVuSans-50"/>
       <use x="190.869141" xlink:href="#DejaVuSans-48"/>
       <use x="254.492188" xlink:href="#DejaVuSans-45"/>
       <use x="290.576172" xlink:href="#DejaVuSans-48"/>
       <use x="354.199219" xlink:href="#DejaVuSans-52"/>
      </g>
     </g>
    </g>
    <g id="xtick_11">
     <g id="line2d_32">
      <path clip-path="url(#p5b1210ba85)" d="M 275.541905 594.72 
L 275.541905 327.665455 
" style="fill:none;stroke:#d3d3d3;stroke-linecap:square;stroke-width:0.8;"/>
     </g>
     <g id="line2d_33">
      <g>
       <use style="stroke:#000000;stroke-width:0.8;" x="275.541905" xlink:href="#ma9f5d966ee" y="594.72"/>
      </g>
     </g>
     <g id="text_8">
      <!-- 2020-07 -->
      <g transform="translate(186.202335 667.652431)rotate(-30)scale(0.24 -0.24)">
       <use xlink:href="#DejaVuSans-50"/>
       <use x="63.623047" xlink:href="#DejaVuSans-48"/>
       <use x="127.246094" xlink:href="#DejaVuSans-50"/>
       <use x="190.869141" xlink:href="#DejaVuSans-48"/>
       <use x="254.492188" xlink:href="#DejaVuSans-45"/>
       <use x="290.576172" xlink:href="#DejaVuSans-48"/>
       <use x="354.199219" xlink:href="#DejaVuSans-55"/>
      </g>
     </g>
    </g>
    <g id="xtick_12">
     <g id="line2d_34">
      <path clip-path="url(#p5b1210ba85)" d="M 348.367535 594.72 
L 348.367535 327.665455 
" style="fill:none;stroke:#d3d3d3;stroke-linecap:square;stroke-width:0.8;"/>
     </g>
     <g id="line2d_35">
      <g>
       <use style="stroke:#000000;stroke-width:0.8;" x="348.367535" xlink:href="#ma9f5d966ee" y="594.72"/>
      </g>
     </g>
     <g id="text_9">
      <!-- 2020-10 -->
      <g transform="translate(259.027965 667.652431)rotate(-30)scale(0.24 -0.24)">
       <use xlink:href="#DejaVuSans-50"/>
       <use x="63.623047" xlink:href="#DejaVuSans-48"/>
       <use x="127.246094" xlink:href="#DejaVuSans-50"/>
       <use x="190.869141" xlink:href="#DejaVuSans-48"/>
       <use x="254.492188" xlink:href="#DejaVuSans-45"/>
       <use x="290.576172" xlink:href="#DejaVuSans-49"/>
       <use x="354.199219" xlink:href="#DejaVuSans-48"/>
      </g>
     </g>
    </g>
    <g id="xtick_13">
     <g id="line2d_36">
      <path clip-path="url(#p5b1210ba85)" d="M 421.193164 594.72 
L 421.193164 327.665455 
" style="fill:none;stroke:#d3d3d3;stroke-linecap:square;stroke-width:0.8;"/>
     </g>
     <g id="line2d_37">
      <g>
       <use style="stroke:#000000;stroke-width:0.8;" x="421.193164" xlink:href="#ma9f5d966ee" y="594.72"/>
      </g>
     </g>
     <g id="text_10">
      <!-- 2021-01 -->
      <g transform="translate(331.853594 667.652431)rotate(-30)scale(0.24 -0.24)">
       <use xlink:href="#DejaVuSans-50"/>
       <use x="63.623047" xlink:href="#DejaVuSans-48"/>
       <use x="127.246094" xlink:href="#DejaVuSans-50"/>
       <use x="190.869141" xlink:href="#DejaVuSans-49"/>
       <use x="254.492188" xlink:href="#DejaVuSans-45"/>
       <use x="290.576172" xlink:href="#DejaVuSans-48"/>
       <use x="354.199219" xlink:href="#DejaVuSans-49"/>
      </g>
     </g>
    </g>
    <g id="xtick_14">
     <g id="line2d_38">
      <path clip-path="url(#p5b1210ba85)" d="M 492.435628 594.72 
L 492.435628 327.665455 
" style="fill:none;stroke:#d3d3d3;stroke-linecap:square;stroke-width:0.8;"/>
     </g>
     <g id="line2d_39">
      <g>
       <use style="stroke:#000000;stroke-width:0.8;" x="492.435628" xlink:href="#ma9f5d966ee" y="594.72"/>
      </g>
     </g>
     <g id="text_11">
      <!-- 2021-04 -->
      <g transform="translate(403.096058 667.652431)rotate(-30)scale(0.24 -0.24)">
       <use xlink:href="#DejaVuSans-50"/>
       <use x="63.623047" xlink:href="#DejaVuSans-48"/>
       <use x="127.246094" xlink:href="#DejaVuSans-50"/>
       <use x="190.869141" xlink:href="#DejaVuSans-49"/>
       <use x="254.492188" xlink:href="#DejaVuSans-45"/>
       <use x="290.576172" xlink:href="#DejaVuSans-48"/>
       <use x="354.199219" xlink:href="#DejaVuSans-52"/>
      </g>
     </g>
    </g>
    <g id="xtick_15">
     <g id="line2d_40">
      <path clip-path="url(#p5b1210ba85)" d="M 564.469675 594.72 
L 564.469675 327.665455 
" style="fill:none;stroke:#d3d3d3;stroke-linecap:square;stroke-width:0.8;"/>
     </g>
     <g id="line2d_41">
      <g>
       <use style="stroke:#000000;stroke-width:0.8;" x="564.469675" xlink:href="#ma9f5d966ee" y="594.72"/>
      </g>
     </g>
     <g id="text_12">
      <!-- 2021-07 -->
      <g transform="translate(475.130105 667.652431)rotate(-30)scale(0.24 -0.24)">
       <use xlink:href="#DejaVuSans-50"/>
       <use x="63.623047" xlink:href="#DejaVuSans-48"/>
       <use x="127.246094" xlink:href="#DejaVuSans-50"/>
       <use x="190.869141" xlink:href="#DejaVuSans-49"/>
       <use x="254.492188" xlink:href="#DejaVuSans-45"/>
       <use x="290.576172" xlink:href="#DejaVuSans-48"/>
       <use x="354.199219" xlink:href="#DejaVuSans-55"/>
      </g>
     </g>
    </g>
    <g id="xtick_16">
     <g id="line2d_42">
      <path clip-path="url(#p5b1210ba85)" d="M 637.295304 594.72 
L 637.295304 327.665455 
" style="fill:none;stroke:#d3d3d3;stroke-linecap:square;stroke-width:0.8;"/>
     </g>
     <g id="line2d_43">
      <g>
       <use style="stroke:#000000;stroke-width:0.8;" x="637.295304" xlink:href="#ma9f5d966ee" y="594.72"/>
      </g>
     </g>
     <g id="text_13">
      <!-- 2021-10 -->
      <g transform="translate(547.955734 667.652431)rotate(-30)scale(0.24 -0.24)">
       <use xlink:href="#DejaVuSans-50"/>
       <use x="63.623047" xlink:href="#DejaVuSans-48"/>
       <use x="127.246094" xlink:href="#DejaVuSans-50"/>
       <use x="190.869141" xlink:href="#DejaVuSans-49"/>
       <use x="254.492188" xlink:href="#DejaVuSans-45"/>
       <use x="290.576172" xlink:href="#DejaVuSans-49"/>
       <use x="354.199219" xlink:href="#DejaVuSans-48"/>
      </g>
     </g>
    </g>
    <g id="xtick_17">
     <g id="line2d_44">
      <path clip-path="url(#p5b1210ba85)" d="M 710.120934 594.72 
L 710.120934 327.665455 
" style="fill:none;stroke:#d3d3d3;stroke-linecap:square;stroke-width:0.8;"/>
     </g>
     <g id="line2d_45">
      <g>
       <use style="stroke:#000000;stroke-width:0.8;" x="710.120934" xlink:href="#ma9f5d966ee" y="594.72"/>
      </g>
     </g>
     <g id="text_14">
      <!-- 2022-01 -->
      <g transform="translate(620.781364 667.652431)rotate(-30)scale(0.24 -0.24)">
       <use xlink:href="#DejaVuSans-50"/>
       <use x="63.623047" xlink:href="#DejaVuSans-48"/>
       <use x="127.246094" xlink:href="#DejaVuSans-50"/>
       <use x="190.869141" xlink:href="#DejaVuSans-50"/>
       <use x="254.492188" xlink:href="#DejaVuSans-45"/>
       <use x="290.576172" xlink:href="#DejaVuSans-48"/>
       <use x="354.199219" xlink:href="#DejaVuSans-49"/>
      </g>
     </g>
    </g>
    <g id="xtick_18">
     <g id="line2d_46">
      <path clip-path="url(#p5b1210ba85)" d="M 781.363397 594.72 
L 781.363397 327.665455 
" style="fill:none;stroke:#d3d3d3;stroke-linecap:square;stroke-width:0.8;"/>
     </g>
     <g id="line2d_47">
      <g>
       <use style="stroke:#000000;stroke-width:0.8;" x="781.363397" xlink:href="#ma9f5d966ee" y="594.72"/>
      </g>
     </g>
     <g id="text_15">
      <!-- 2022-04 -->
      <g transform="translate(692.023827 667.652431)rotate(-30)scale(0.24 -0.24)">
       <use xlink:href="#DejaVuSans-50"/>
       <use x="63.623047" xlink:href="#DejaVuSans-48"/>
       <use x="127.246094" xlink:href="#DejaVuSans-50"/>
       <use x="190.869141" xlink:href="#DejaVuSans-50"/>
       <use x="254.492188" xlink:href="#DejaVuSans-45"/>
       <use x="290.576172" xlink:href="#DejaVuSans-48"/>
       <use x="354.199219" xlink:href="#DejaVuSans-52"/>
      </g>
     </g>
    </g>
   </g>
   <g id="matplotlib.axis_4">
    <g id="ytick_6">
     <g id="line2d_48">
      <path clip-path="url(#p5b1210ba85)" d="M 163.5725 594.72 
L 833.1725 594.72 
" style="fill:none;stroke:#d3d3d3;stroke-linecap:square;stroke-width:0.8;"/>
     </g>
     <g id="line2d_49">
      <g>
       <use style="stroke:#000000;stroke-width:0.8;" x="163.5725" xlink:href="#me0c6deefa6" y="594.72"/>
      </g>
     </g>
     <g id="text_16">
      <!-- 0 -->
      <g transform="translate(141.3025 603.838125)scale(0.24 -0.24)">
       <use xlink:href="#DejaVuSans-48"/>
      </g>
     </g>
    </g>
    <g id="ytick_7">
     <g id="line2d_50">
      <path clip-path="url(#p5b1210ba85)" d="M 163.5725 529.243147 
L 833.1725 529.243147 
" style="fill:none;stroke:#d3d3d3;stroke-linecap:square;stroke-width:0.8;"/>
     </g>
     <g id="line2d_51">
      <g>
       <use style="stroke:#000000;stroke-width:0.8;" x="163.5725" xlink:href="#me0c6deefa6" y="529.243147"/>
      </g>
     </g>
     <g id="text_17">
      <!-- 5,000 -->
      <g transform="translate(87.865 538.361272)scale(0.24 -0.24)">
       <use xlink:href="#DejaVuSans-53"/>
       <use x="63.623047" xlink:href="#DejaVuSans-44"/>
       <use x="95.410156" xlink:href="#DejaVuSans-48"/>
       <use x="159.033203" xlink:href="#DejaVuSans-48"/>
       <use x="222.65625" xlink:href="#DejaVuSans-48"/>
      </g>
     </g>
    </g>
    <g id="ytick_8">
     <g id="line2d_52">
      <path clip-path="url(#p5b1210ba85)" d="M 163.5725 463.766295 
L 833.1725 463.766295 
" style="fill:none;stroke:#d3d3d3;stroke-linecap:square;stroke-width:0.8;"/>
     </g>
     <g id="line2d_53">
      <g>
       <use style="stroke:#000000;stroke-width:0.8;" x="163.5725" xlink:href="#me0c6deefa6" y="463.766295"/>
      </g>
     </g>
     <g id="text_18">
      <!-- 10,000 -->
      <g transform="translate(72.595 472.88442)scale(0.24 -0.24)">
       <use xlink:href="#DejaVuSans-49"/>
       <use x="63.623047" xlink:href="#DejaVuSans-48"/>
       <use x="127.246094" xlink:href="#DejaVuSans-44"/>
       <use x="159.033203" xlink:href="#DejaVuSans-48"/>
       <use x="222.65625" xlink:href="#DejaVuSans-48"/>
       <use x="286.279297" xlink:href="#DejaVuSans-48"/>
      </g>
     </g>
    </g>
    <g id="ytick_9">
     <g id="line2d_54">
      <path clip-path="url(#p5b1210ba85)" d="M 163.5725 398.289442 
L 833.1725 398.289442 
" style="fill:none;stroke:#d3d3d3;stroke-linecap:square;stroke-width:0.8;"/>
     </g>
     <g id="line2d_55">
      <g>
       <use style="stroke:#000000;stroke-width:0.8;" x="163.5725" xlink:href="#me0c6deefa6" y="398.289442"/>
      </g>
     </g>
     <g id="text_19">
      <!-- 15,000 -->
      <g transform="translate(72.595 407.407567)scale(0.24 -0.24)">
       <use xlink:href="#DejaVuSans-49"/>
       <use x="63.623047" xlink:href="#DejaVuSans-53"/>
       <use x="127.246094" xlink:href="#DejaVuSans-44"/>
       <use x="159.033203" xlink:href="#DejaVuSans-48"/>
       <use x="222.65625" xlink:href="#DejaVuSans-48"/>
       <use x="286.279297" xlink:href="#DejaVuSans-48"/>
      </g>
     </g>
    </g>
    <g id="ytick_10">
     <g id="line2d_56">
      <path clip-path="url(#p5b1210ba85)" d="M 163.5725 332.81259 
L 833.1725 332.81259 
" style="fill:none;stroke:#d3d3d3;stroke-linecap:square;stroke-width:0.8;"/>
     </g>
     <g id="line2d_57">
      <g>
       <use style="stroke:#000000;stroke-width:0.8;" x="163.5725" xlink:href="#me0c6deefa6" y="332.81259"/>
      </g>
     </g>
     <g id="text_20">
      <!-- 20,000 -->
      <g transform="translate(72.595 341.930715)scale(0.24 -0.24)">
       <use xlink:href="#DejaVuSans-50"/>
       <use x="63.623047" xlink:href="#DejaVuSans-48"/>
       <use x="127.246094" xlink:href="#DejaVuSans-44"/>
       <use x="159.033203" xlink:href="#DejaVuSans-48"/>
       <use x="222.65625" xlink:href="#DejaVuSans-48"/>
       <use x="286.279297" xlink:href="#DejaVuSans-48"/>
      </g>
     </g>
    </g>
    <g id="text_21">
     <!-- Preprints -->
     <defs>
      <path d="M 19.671875 64.796875 
L 19.671875 37.40625 
L 32.078125 37.40625 
Q 38.96875 37.40625 42.71875 40.96875 
Q 46.484375 44.53125 46.484375 51.125 
Q 46.484375 57.671875 42.71875 61.234375 
Q 38.96875 64.796875 32.078125 64.796875 
z
M 9.8125 72.90625 
L 32.078125 72.90625 
Q 44.34375 72.90625 50.609375 67.359375 
Q 56.890625 61.8125 56.890625 51.125 
Q 56.890625 40.328125 50.609375 34.8125 
Q 44.34375 29.296875 32.078125 29.296875 
L 19.671875 29.296875 
L 19.671875 0 
L 9.8125 0 
z
" id="DejaVuSans-80"/>
      <path d="M 56.203125 29.59375 
L 56.203125 25.203125 
L 14.890625 25.203125 
Q 15.484375 15.921875 20.484375 11.0625 
Q 25.484375 6.203125 34.421875 6.203125 
Q 39.59375 6.203125 44.453125 7.46875 
Q 49.3125 8.734375 54.109375 11.28125 
L 54.109375 2.78125 
Q 49.265625 0.734375 44.1875 -0.34375 
Q 39.109375 -1.421875 33.890625 -1.421875 
Q 20.796875 -1.421875 13.15625 6.1875 
Q 5.515625 13.8125 5.515625 26.8125 
Q 5.515625 40.234375 12.765625 48.109375 
Q 20.015625 56 32.328125 56 
Q 43.359375 56 49.78125 48.890625 
Q 56.203125 41.796875 56.203125 29.59375 
z
M 47.21875 32.234375 
Q 47.125 39.59375 43.09375 43.984375 
Q 39.0625 48.390625 32.421875 48.390625 
Q 24.90625 48.390625 20.390625 44.140625 
Q 15.875 39.890625 15.1875 32.171875 
z
" id="DejaVuSans-101"/>
     </defs>
     <g transform="translate(63.60375 515.185227)rotate(-90)scale(0.24 -0.24)">
      <use xlink:href="#DejaVuSans-80"/>
      <use x="60.287109" xlink:href="#DejaVuSans-114"/>
      <use x="101.369141" xlink:href="#DejaVuSans-101"/>
      <use x="162.892578" xlink:href="#DejaVuSans-112"/>
      <use x="226.369141" xlink:href="#DejaVuSans-114"/>
      <use x="267.482422" xlink:href="#DejaVuSans-105"/>
      <use x="295.265625" xlink:href="#DejaVuSans-110"/>
      <use x="358.644531" xlink:href="#DejaVuSans-116"/>
      <use x="397.853516" xlink:href="#DejaVuSans-115"/>
     </g>
    </g>
   </g>
   <g id="line2d_58">
    <path clip-path="url(#p5b1210ba85)" d="M 194.008864 592.23188 
L 199.549944 590.935438 
L 205.091025 589.311612 
L 210.632105 587.399688 
L 221.714266 584.086559 
L 227.255347 581.978204 
L 235.962759 579.372226 
L 241.503839 577.381729 
L 250.211252 574.57932 
L 251.794417 574.304317 
L 253.377583 573.649549 
L 255.752332 572.890017 
L 257.335498 572.536442 
L 258.918664 571.842388 
L 259.710247 571.619766 
L 260.50183 571.187619 
L 261.293413 570.912616 
L 262.876578 570.70309 
L 264.459744 569.943559 
L 266.04291 569.445935 
L 266.834493 569.184028 
L 268.417659 569.000692 
L 269.209242 568.778071 
L 270.000825 568.372115 
L 273.167157 567.468534 
L 275.541905 566.944719 
L 277.916654 566.106615 
L 279.49982 565.75304 
L 281.082986 565.098272 
L 282.666152 564.587552 
L 283.457735 564.325645 
L 286.624066 563.644686 
L 287.415649 563.317302 
L 291.373564 562.204195 
L 292.95673 561.68038 
L 293.748313 561.352996 
L 296.914644 560.580369 
L 298.49781 559.977982 
L 300.080976 559.323214 
L 301.664142 558.969639 
L 304.830474 557.843437 
L 305.622057 557.60772 
L 307.205223 557.489862 
L 308.788388 556.952951 
L 311.163137 556.232706 
L 314.329469 555.630319 
L 317.495801 554.883883 
L 319.078966 554.543403 
L 322.245298 553.443392 
L 326.203213 552.710051 
L 330.95271 551.465991 
L 332.535876 550.8767 
L 338.076957 549.619544 
L 339.660123 549.29216 
L 340.451706 549.200492 
L 342.826454 548.349293 
L 345.992786 547.694525 
L 349.950701 546.712372 
L 351.533867 546.529037 
L 354.700198 545.455216 
L 355.491781 545.154023 
L 357.074947 544.839734 
L 358.658113 544.355205 
L 359.449696 544.250442 
L 360.241279 543.923058 
L 363.407611 543.189717 
L 364.199193 542.796856 
L 365.782359 542.312327 
L 366.573942 542.024229 
L 368.157108 541.762322 
L 374.489772 539.470632 
L 376.86452 538.920626 
L 377.656103 538.658719 
L 379.239269 538.370621 
L 383.197184 537.2968 
L 385.571933 536.75989 
L 387.155098 536.249171 
L 387.946681 536.039645 
L 389.529847 535.751547 
L 390.32143 535.725356 
L 391.113013 535.371781 
L 394.279345 534.625345 
L 395.070928 534.507486 
L 399.028842 533.328903 
L 399.820425 533.066996 
L 401.403591 532.88366 
L 403.77834 531.940794 
L 405.361506 531.46936 
L 406.153089 531.325311 
L 411.694169 529.85863 
L 412.485752 529.806248 
L 413.277335 529.557436 
L 414.068918 529.164575 
L 415.652084 528.627665 
L 418.026833 528.339567 
L 421.193164 527.527654 
L 424.359496 526.951458 
L 425.151079 526.637169 
L 429.900577 525.563348 
L 431.483742 524.974057 
L 433.858491 524.410956 
L 434.650074 524.306193 
L 435.441657 524.070476 
L 437.024823 523.363326 
L 440.191155 522.800225 
L 441.774321 522.289506 
L 442.565903 522.132361 
L 443.357486 521.726405 
L 444.149069 521.477593 
L 445.732235 521.20259 
L 451.273316 519.709718 
L 456.814396 517.981129 
L 467.896557 514.890621 
L 473.437638 513.162033 
L 490.060879 508.853656 
L 495.60196 507.531023 
L 517.766282 501.520248 
L 528.848443 498.613076 
L 539.930604 495.299947 
L 551.012765 491.410622 
L 567.636006 486.434381 
L 573.177087 485.072463 
L 578.718167 483.487923 
L 584.259248 482.126004 
L 589.800328 480.633132 
L 595.341409 478.852162 
L 603.257238 476.730712 
L 606.42357 475.499747 
L 611.96465 474.059256 
L 617.505731 472.396144 
L 628.587892 468.860394 
L 634.128972 467.432999 
L 645.211133 463.648437 
L 650.752214 461.906752 
L 656.293294 460.479357 
L 661.834375 458.790054 
L 667.375455 456.917416 
L 683.998697 452.334037 
L 695.080858 449.400674 
L 700.621938 447.436368 
L 711.704099 445.183964 
L 739.409502 437.719603 
L 759.990658 431.446921 
L 763.15699 430.687389 
L 786.112895 424.192085 
L 797.195056 421.415867 
L 802.736136 420.459905 
L 802.736136 420.459905 
" style="fill:none;stroke:#1f77b4;stroke-linecap:square;stroke-width:5;"/>
   </g>
   <g id="line2d_59">
    <path clip-path="url(#p5b1210ba85)" d="M 194.008864 587.046113 
L 199.549944 584.950854 
L 205.091025 581.611534 
L 210.632105 578.756743 
L 216.173186 575.050754 
L 221.714266 570.441183 
L 227.255347 566.355427 
L 235.962759 558.170821 
L 241.503839 554.111256 
L 247.04492 549.331446 
L 247.836503 547.183805 
L 248.628086 546.686181 
L 249.419669 546.48975 
L 250.211252 545.690933 
L 251.002835 545.088546 
L 251.794417 545.07545 
L 252.586 544.787352 
L 253.377583 543.726627 
L 254.169166 542.914714 
L 254.960749 542.600425 
L 255.752332 541.421842 
L 256.543915 541.369461 
L 258.127081 540.478975 
L 258.918664 539.536109 
L 259.710247 539.509918 
L 260.50183 539.130152 
L 261.293413 537.663471 
L 262.084996 537.493231 
L 262.876578 537.113465 
L 263.668161 537.074179 
L 264.459744 536.118217 
L 265.251327 535.659879 
L 266.04291 535.34559 
L 267.626076 533.93129 
L 268.417659 533.905099 
L 269.209242 533.472952 
L 270.000825 532.582467 
L 270.792408 532.189606 
L 271.583991 532.071748 
L 272.375574 531.299121 
L 273.167157 531.286025 
L 273.95874 530.93245 
L 274.750322 530.094347 
L 275.541905 529.819344 
L 277.916654 528.719333 
L 278.708237 528.143136 
L 279.49982 528.012183 
L 280.291403 527.658608 
L 281.082986 526.977648 
L 281.874569 526.571692 
L 282.666152 526.427643 
L 283.457735 525.995496 
L 284.249318 525.209773 
L 285.832483 525.170487 
L 286.624066 524.332384 
L 287.415649 523.926427 
L 290.581981 522.07998 
L 291.373564 521.844263 
L 292.165147 521.425211 
L 292.95673 521.189495 
L 293.748313 521.137113 
L 294.539896 520.115674 
L 296.914644 518.806137 
L 297.706227 518.54423 
L 298.49781 517.745412 
L 299.289393 517.208502 
L 300.080976 517.038262 
L 300.872559 516.61921 
L 301.664142 516.409684 
L 302.455725 516.396589 
L 303.247308 515.060861 
L 304.038891 515.00848 
L 305.622057 513.908469 
L 307.996805 513.869183 
L 308.788388 513.188223 
L 310.371554 512.585836 
L 311.163137 511.446539 
L 311.95472 511.066773 
L 313.537886 510.569149 
L 314.329469 510.267956 
L 315.912635 510.05843 
L 317.495801 508.827465 
L 318.287384 508.657225 
L 319.078966 508.329841 
L 319.870549 507.792931 
L 320.662132 507.439356 
L 322.245298 507.386974 
L 324.620047 506.797682 
L 325.41163 505.64529 
L 326.203213 504.741709 
L 330.95271 503.01312 
L 332.535876 501.991681 
L 336.493791 500.380951 
L 338.076957 500.276188 
L 338.86854 498.717839 
L 340.451706 498.613076 
L 341.243289 498.521408 
L 342.034871 498.089261 
L 342.826454 497.224967 
L 343.618037 497.094013 
L 344.40962 496.47853 
L 345.201203 496.47853 
L 345.992786 496.190432 
L 348.367535 494.880895 
L 349.950701 494.540416 
L 350.742284 494.540416 
L 351.533867 494.304699 
L 352.32545 493.911838 
L 353.117032 493.388023 
L 355.491781 493.047543 
L 356.283364 493.047543 
L 357.074947 492.91659 
L 358.658113 492.183249 
L 359.449696 491.476099 
L 361.032862 491.148715 
L 361.824445 491.148715 
L 362.616028 490.965379 
L 363.407611 490.952284 
L 364.199193 490.245134 
L 364.990776 489.695129 
L 365.782359 489.616556 
L 366.573942 489.145123 
L 367.365525 489.145123 
L 368.948691 488.778453 
L 369.740274 487.560583 
L 370.531857 487.468916 
L 373.698189 486.971291 
L 374.489772 486.932005 
L 375.281354 486.198665 
L 376.072937 485.16413 
L 376.86452 484.9677 
L 377.656103 484.561743 
L 378.447686 484.299836 
L 379.239269 484.273645 
L 381.614018 483.802212 
L 383.197184 482.67601 
L 384.78035 482.545056 
L 385.571933 481.916478 
L 386.363515 481.811716 
L 387.155098 481.078375 
L 389.529847 480.620037 
L 390.32143 480.489083 
L 391.113013 480.030745 
L 393.487762 479.50693 
L 395.070928 478.996211 
L 396.654094 477.791437 
L 399.028842 476.966428 
L 399.820425 476.31166 
L 401.403591 476.285469 
L 402.195174 475.722368 
L 403.77834 475.224744 
L 404.569923 475.211649 
L 405.361506 474.308068 
L 406.153089 474.281877 
L 409.31942 473.050913 
L 410.111003 472.893768 
L 411.694169 472.212809 
L 412.485752 472.06876 
L 413.277335 472.055664 
L 414.068918 471.047321 
L 414.860501 470.903272 
L 415.652084 470.405648 
L 418.818416 470.012787 
L 419.609999 469.999691 
L 420.401581 469.829452 
L 421.193164 469.816356 
L 422.77633 469.397304 
L 423.567913 469.384209 
L 424.359496 468.467533 
L 425.151079 468.258007 
L 425.942662 467.786574 
L 426.734245 467.760383 
L 427.525828 467.210377 
L 428.317411 466.94847 
L 429.108994 466.922279 
L 430.69216 466.516323 
L 431.483742 466.097271 
L 432.275325 466.057985 
L 433.066908 464.971069 
L 434.650074 464.866306 
L 436.23324 464.82702 
L 437.024823 463.77939 
L 437.816406 463.713913 
L 438.607989 463.373434 
L 440.191155 463.334148 
L 440.982738 462.87581 
L 441.774321 461.841275 
L 443.357486 461.579368 
L 444.149069 460.963886 
L 444.940652 460.898409 
L 445.732235 460.610311 
L 451.273316 458.069809 
L 456.814396 455.987645 
L 462.355477 453.473334 
L 467.896557 451.456647 
L 473.437638 448.916145 
L 484.519799 443.520852 
L 490.060879 440.011293 
L 495.60196 438.479135 
L 506.684121 434.183853 
L 512.225201 431.446921 
L 517.766282 429.142135 
L 523.307362 427.17783 
L 528.848443 425.030189 
L 534.389523 422.581355 
L 551.012765 416.753915 
L 556.553845 415.339615 
L 562.094926 412.916971 
L 567.636006 411.096715 
L 573.177087 408.215733 
L 578.718167 406.591907 
L 584.259248 403.724021 
L 589.800328 401.929955 
L 595.341409 400.253748 
L 603.257238 398.119203 
L 606.42357 397.543006 
L 611.96465 395.591796 
L 617.505731 394.098924 
L 628.587892 391.414373 
L 634.128972 388.978634 
L 645.211133 385.560742 
L 650.752214 384.23811 
L 656.293294 382.679761 
L 661.834375 380.636883 
L 667.375455 379.641635 
L 672.916536 377.782092 
L 683.998697 374.835634 
L 695.080858 371.391551 
L 700.621938 369.21772 
L 733.868422 358.97714 
L 739.409502 356.960453 
L 759.990658 351.080632 
L 763.15699 350.308005 
L 780.571814 345.606767 
L 786.112895 343.721034 
L 797.195056 341.115055 
L 802.736136 340.263856 
L 802.736136 340.263856 
" style="fill:none;stroke:#ff7f0e;stroke-linecap:square;stroke-width:5;"/>
   </g>
   <g id="line2d_60">
    <path clip-path="url(#p5b1210ba85)" d="M 194.008864 591.904495 
L 199.549944 591.367585 
L 210.632105 589.927094 
L 227.255347 586.980636 
L 235.962759 585.225856 
L 241.503839 583.693698 
L 248.628086 582.200826 
L 250.211252 581.585343 
L 258.918664 580.262711 
L 262.084996 579.450798 
L 262.876578 579.35913 
L 264.459744 578.809125 
L 266.834493 578.101975 
L 268.417659 577.840067 
L 270.000825 577.499588 
L 272.375574 576.910296 
L 273.95874 576.805533 
L 274.750322 576.569816 
L 275.541905 576.137669 
L 277.125071 575.640045 
L 279.49982 575.443615 
L 281.082986 575.011467 
L 282.666152 574.684083 
L 283.457735 574.461462 
L 285.832483 574.199554 
L 287.415649 573.728121 
L 290.581981 573.322165 
L 292.165147 572.916208 
L 293.748313 572.562633 
L 294.539896 572.300726 
L 296.123062 572.156677 
L 298.49781 571.501908 
L 300.080976 571.122142 
L 301.664142 571.004284 
L 304.038891 570.428088 
L 305.622057 570.100703 
L 307.205223 570.100703 
L 308.788388 569.550698 
L 315.912635 568.057826 
L 317.495801 567.769728 
L 318.287384 567.67806 
L 319.870549 567.363771 
L 322.245298 566.774479 
L 326.203213 566.054234 
L 330.95271 565.18994 
L 332.535876 564.692315 
L 337.285374 563.80183 
L 338.86854 563.474446 
L 340.451706 563.343492 
L 342.034871 562.937536 
L 343.618037 562.649438 
L 344.40962 562.413721 
L 345.992786 562.361339 
L 349.950701 561.601808 
L 352.32545 561.470854 
L 354.700198 560.933944 
L 355.491781 560.724418 
L 357.074947 560.632751 
L 360.241279 559.886314 
L 361.032862 559.598216 
L 362.616028 559.506549 
L 364.199193 559.126783 
L 369.740274 558.236298 
L 372.115023 557.673197 
L 373.698189 557.516052 
L 375.281354 557.083905 
L 376.072937 557.018428 
L 377.656103 556.494613 
L 379.239269 556.36366 
L 380.030852 556.101752 
L 386.363515 554.792215 
L 387.155098 554.582689 
L 387.946681 554.530308 
L 393.487762 553.666013 
L 395.070928 553.456488 
L 396.654094 553.246962 
L 399.820425 552.552907 
L 401.403591 552.435049 
L 405.361506 551.754089 
L 406.153089 551.714803 
L 413.277335 550.640983 
L 415.652084 550.117168 
L 418.818416 549.855261 
L 420.401581 549.527876 
L 423.567913 549.344541 
L 428.317411 548.545724 
L 429.108994 548.532628 
L 429.900577 548.323102 
L 431.483742 548.087386 
L 433.066908 547.773097 
L 434.650074 547.720715 
L 435.441657 547.524285 
L 436.23324 547.209996 
L 441.774321 546.319511 
L 442.565903 545.979031 
L 444.940652 545.533788 
L 445.732235 545.507598 
L 451.273316 544.473063 
L 456.814396 543.739723 
L 473.437638 540.819455 
L 490.060879 537.453945 
L 495.60196 536.58965 
L 501.934623 535.411067 
L 506.684121 534.939634 
L 512.225201 534.167007 
L 523.307362 531.901508 
L 528.848443 530.90626 
L 539.930604 528.496711 
L 556.553845 525.759779 
L 567.636006 524.253811 
L 573.177087 523.206182 
L 578.718167 522.368078 
L 584.259248 521.385925 
L 589.800328 520.757347 
L 606.42357 517.653745 
L 634.128972 512.847744 
L 645.211133 511.106059 
L 661.834375 508.827465 
L 667.375455 507.871503 
L 672.916536 507.033399 
L 683.998697 505.501241 
L 695.080858 503.69408 
L 700.621938 502.502401 
L 711.704099 500.407142 
L 739.409502 495.601141 
L 759.990658 491.646339 
L 763.15699 491.292764 
L 786.112895 487.96654 
L 797.195056 485.897471 
L 802.736136 485.491515 
L 802.736136 485.491515 
" style="fill:none;stroke:#2ca02c;stroke-linecap:square;stroke-width:5;"/>
   </g>
   <g id="patch_6">
    <path d="M 163.5725 594.72 
L 163.5725 327.665455 
" style="fill:none;stroke:#000000;stroke-linecap:square;stroke-linejoin:miter;stroke-width:0.8;"/>
   </g>
   <g id="patch_7">
    <path d="M 163.5725 594.72 
L 833.1725 594.72 
" style="fill:none;stroke:#000000;stroke-linecap:square;stroke-linejoin:miter;stroke-width:0.8;"/>
   </g>
   <g id="legend_1">
    <g id="patch_8">
     <path d="M 180.3725 452.547955 
L 362.3075 452.547955 
Q 367.1075 452.547955 367.1075 447.747955 
L 367.1075 344.465455 
Q 367.1075 339.665455 362.3075 339.665455 
L 180.3725 339.665455 
Q 175.5725 339.665455 175.5725 344.465455 
L 175.5725 447.747955 
Q 175.5725 452.547955 180.3725 452.547955 
z
" style="fill:#ffffff;opacity:0.8;stroke:#cccccc;stroke-linejoin:miter;"/>
    </g>
    <g id="line2d_61">
     <path d="M 185.1725 359.101705 
L 233.1725 359.101705 
" style="fill:none;stroke:#1f77b4;stroke-linecap:square;stroke-width:5;"/>
    </g>
    <g id="line2d_62"/>
    <g id="text_22">
     <!-- arXiv -->
     <defs>
      <path d="M 6.296875 72.90625 
L 16.890625 72.90625 
L 35.015625 45.796875 
L 53.21875 72.90625 
L 63.8125 72.90625 
L 40.375 37.890625 
L 65.375 0 
L 54.78125 0 
L 34.28125 31 
L 13.625 0 
L 2.984375 0 
L 29 38.921875 
z
" id="DejaVuSans-88"/>
      <path d="M 2.984375 54.6875 
L 12.5 54.6875 
L 29.59375 8.796875 
L 46.6875 54.6875 
L 56.203125 54.6875 
L 35.6875 0 
L 23.484375 0 
z
" id="DejaVuSans-118"/>
     </defs>
     <g transform="translate(252.3725 367.501705)scale(0.24 -0.24)">
      <use xlink:href="#DejaVuSans-97"/>
      <use x="61.279297" xlink:href="#DejaVuSans-114"/>
      <use x="102.392578" xlink:href="#DejaVuSans-88"/>
      <use x="170.898438" xlink:href="#DejaVuSans-105"/>
      <use x="198.681641" xlink:href="#DejaVuSans-118"/>
     </g>
    </g>
    <g id="line2d_63">
     <path d="M 185.1725 394.329205 
L 233.1725 394.329205 
" style="fill:none;stroke:#ff7f0e;stroke-linecap:square;stroke-width:5;"/>
    </g>
    <g id="line2d_64"/>
    <g id="text_23">
     <!-- medRxiv -->
     <defs>
      <path d="M 45.40625 46.390625 
L 45.40625 75.984375 
L 54.390625 75.984375 
L 54.390625 0 
L 45.40625 0 
L 45.40625 8.203125 
Q 42.578125 3.328125 38.25 0.953125 
Q 33.9375 -1.421875 27.875 -1.421875 
Q 17.96875 -1.421875 11.734375 6.484375 
Q 5.515625 14.40625 5.515625 27.296875 
Q 5.515625 40.1875 11.734375 48.09375 
Q 17.96875 56 27.875 56 
Q 33.9375 56 38.25 53.625 
Q 42.578125 51.265625 45.40625 46.390625 
z
M 14.796875 27.296875 
Q 14.796875 17.390625 18.875 11.75 
Q 22.953125 6.109375 30.078125 6.109375 
Q 37.203125 6.109375 41.296875 11.75 
Q 45.40625 17.390625 45.40625 27.296875 
Q 45.40625 37.203125 41.296875 42.84375 
Q 37.203125 48.484375 30.078125 48.484375 
Q 22.953125 48.484375 18.875 42.84375 
Q 14.796875 37.203125 14.796875 27.296875 
z
" id="DejaVuSans-100"/>
      <path d="M 44.390625 34.1875 
Q 47.5625 33.109375 50.5625 29.59375 
Q 53.5625 26.078125 56.59375 19.921875 
L 66.609375 0 
L 56 0 
L 46.6875 18.703125 
Q 43.0625 26.03125 39.671875 28.421875 
Q 36.28125 30.8125 30.421875 30.8125 
L 19.671875 30.8125 
L 19.671875 0 
L 9.8125 0 
L 9.8125 72.90625 
L 32.078125 72.90625 
Q 44.578125 72.90625 50.734375 67.671875 
Q 56.890625 62.453125 56.890625 51.90625 
Q 56.890625 45.015625 53.6875 40.46875 
Q 50.484375 35.9375 44.390625 34.1875 
z
M 19.671875 64.796875 
L 19.671875 38.921875 
L 32.078125 38.921875 
Q 39.203125 38.921875 42.84375 42.21875 
Q 46.484375 45.515625 46.484375 51.90625 
Q 46.484375 58.296875 42.84375 61.546875 
Q 39.203125 64.796875 32.078125 64.796875 
z
" id="DejaVuSans-82"/>
      <path d="M 54.890625 54.6875 
L 35.109375 28.078125 
L 55.90625 0 
L 45.3125 0 
L 29.390625 21.484375 
L 13.484375 0 
L 2.875 0 
L 24.125 28.609375 
L 4.6875 54.6875 
L 15.28125 54.6875 
L 29.78125 35.203125 
L 44.28125 54.6875 
z
" id="DejaVuSans-120"/>
     </defs>
     <g transform="translate(252.3725 402.729205)scale(0.24 -0.24)">
      <use xlink:href="#DejaVuSans-109"/>
      <use x="97.412109" xlink:href="#DejaVuSans-101"/>
      <use x="158.935547" xlink:href="#DejaVuSans-100"/>
      <use x="222.412109" xlink:href="#DejaVuSans-82"/>
      <use x="291.894531" xlink:href="#DejaVuSans-120"/>
      <use x="351.074219" xlink:href="#DejaVuSans-105"/>
      <use x="378.857422" xlink:href="#DejaVuSans-118"/>
     </g>
    </g>
    <g id="line2d_65">
     <path d="M 185.1725 429.556705 
L 233.1725 429.556705 
" style="fill:none;stroke:#2ca02c;stroke-linecap:square;stroke-width:5;"/>
    </g>
    <g id="line2d_66"/>
    <g id="text_24">
     <!-- bioRxiv -->
     <defs>
      <path d="M 48.6875 27.296875 
Q 48.6875 37.203125 44.609375 42.84375 
Q 40.53125 48.484375 33.40625 48.484375 
Q 26.265625 48.484375 22.1875 42.84375 
Q 18.109375 37.203125 18.109375 27.296875 
Q 18.109375 17.390625 22.1875 11.75 
Q 26.265625 6.109375 33.40625 6.109375 
Q 40.53125 6.109375 44.609375 11.75 
Q 48.6875 17.390625 48.6875 27.296875 
z
M 18.109375 46.390625 
Q 20.953125 51.265625 25.265625 53.625 
Q 29.59375 56 35.59375 56 
Q 45.5625 56 51.78125 48.09375 
Q 58.015625 40.1875 58.015625 27.296875 
Q 58.015625 14.40625 51.78125 6.484375 
Q 45.5625 -1.421875 35.59375 -1.421875 
Q 29.59375 -1.421875 25.265625 0.953125 
Q 20.953125 3.328125 18.109375 8.203125 
L 18.109375 0 
L 9.078125 0 
L 9.078125 75.984375 
L 18.109375 75.984375 
z
" id="DejaVuSans-98"/>
     </defs>
     <g transform="translate(252.3725 437.956705)scale(0.24 -0.24)">
      <use xlink:href="#DejaVuSans-98"/>
      <use x="63.476562" xlink:href="#DejaVuSans-105"/>
      <use x="91.259766" xlink:href="#DejaVuSans-111"/>
      <use x="152.441406" xlink:href="#DejaVuSans-82"/>
      <use x="221.923828" xlink:href="#DejaVuSans-120"/>
      <use x="281.103516" xlink:href="#DejaVuSans-105"/>
      <use x="308.886719" xlink:href="#DejaVuSans-118"/>
     </g>
    </g>
   </g>
  </g>
 </g>
 <defs>
  <clipPath id="pa8df3d3012">
   <rect height="267.054545" width="669.6" x="163.5725" y="7.2"/>
  </clipPath>
  <clipPath id="p5b1210ba85">
   <rect height="267.054545" width="669.6" x="163.5725" y="327.665455"/>
  </clipPath>
 </defs>
</svg>
