<?xml version="1.0" encoding="utf-8" standalone="no"?>
<!DOCTYPE svg PUBLIC "-//W3C//DTD SVG 1.1//EN"
  "http://www.w3.org/Graphics/SVG/1.1/DTD/svg11.dtd">
<!-- Created with matplotlib (https://matplotlib.org/) -->
<svg height="654.934702pt" version="1.1" viewBox="0 0 1212.84375 654.934702" width="1212.84375pt" xmlns="http://www.w3.org/2000/svg" xmlns:xlink="http://www.w3.org/1999/xlink">
 <defs>
  <style type="text/css">
*{stroke-linecap:butt;stroke-linejoin:round;}
  </style>
 </defs>
 <g id="figure_1">
  <g id="patch_1">
   <path d="M 0 654.934702 
L 1212.84375 654.934702 
L 1212.84375 0 
L 0 0 
z
" style="fill:#ffffff;"/>
  </g>
  <g id="axes_1">
   <g id="patch_2">
    <path d="M 89.64375 599.75263 
L 596.916477 599.75263 
L 596.916477 12.23263 
L 89.64375 12.23263 
z
" style="fill:#ffffff;"/>
   </g>
   <g id="matplotlib.axis_1">
    <g id="xtick_1">
     <g id="line2d_1">
      <path clip-path="url(#p8f814ef81f)" d="M 96.324062 599.75263 
L 96.324062 12.23263 
" style="fill:none;stroke:#d3d3d3;stroke-linecap:square;stroke-width:0.8;"/>
     </g>
     <g id="line2d_2">
      <defs>
       <path d="M 0 0 
L 0 3.5 
" id="md146835dda" style="stroke:#000000;stroke-width:0.8;"/>
      </defs>
      <g>
       <use style="stroke:#000000;stroke-width:0.8;" x="96.324062" xlink:href="#md146835dda" y="599.75263"/>
      </g>
     </g>
     <g id="text_1">
      <!-- 2020-03 -->
      <defs>
       <path d="M 19.1875 8.296875 
L 53.609375 8.296875 
L 53.609375 0 
L 7.328125 0 
L 7.328125 8.296875 
Q 12.9375 14.109375 22.625 23.890625 
Q 32.328125 33.6875 34.8125 36.53125 
Q 39.546875 41.84375 41.421875 45.53125 
Q 43.3125 49.21875 43.3125 52.78125 
Q 43.3125 58.59375 39.234375 62.25 
Q 35.15625 65.921875 28.609375 65.921875 
Q 23.96875 65.921875 18.8125 64.3125 
Q 13.671875 62.703125 7.8125 59.421875 
L 7.8125 69.390625 
Q 13.765625 71.78125 18.9375 73 
Q 24.125 74.21875 28.421875 74.21875 
Q 39.75 74.21875 46.484375 68.546875 
Q 53.21875 62.890625 53.21875 53.421875 
Q 53.21875 48.921875 51.53125 44.890625 
Q 49.859375 40.875 45.40625 35.40625 
Q 44.1875 33.984375 37.640625 27.21875 
Q 31.109375 20.453125 19.1875 8.296875 
z
" id="DejaVuSans-50"/>
       <path d="M 31.78125 66.40625 
Q 24.171875 66.40625 20.328125 58.90625 
Q 16.5 51.421875 16.5 36.375 
Q 16.5 21.390625 20.328125 13.890625 
Q 24.171875 6.390625 31.78125 6.390625 
Q 39.453125 6.390625 43.28125 13.890625 
Q 47.125 21.390625 47.125 36.375 
Q 47.125 51.421875 43.28125 58.90625 
Q 39.453125 66.40625 31.78125 66.40625 
z
M 31.78125 74.21875 
Q 44.046875 74.21875 50.515625 64.515625 
Q 56.984375 54.828125 56.984375 36.375 
Q 56.984375 17.96875 50.515625 8.265625 
Q 44.046875 -1.421875 31.78125 -1.421875 
Q 19.53125 -1.421875 13.0625 8.265625 
Q 6.59375 17.96875 6.59375 36.375 
Q 6.59375 54.828125 13.0625 64.515625 
Q 19.53125 74.21875 31.78125 74.21875 
z
" id="DejaVuSans-48"/>
       <path d="M 4.890625 31.390625 
L 31.203125 31.390625 
L 31.203125 23.390625 
L 4.890625 23.390625 
z
" id="DejaVuSans-45"/>
       <path d="M 40.578125 39.3125 
Q 47.65625 37.796875 51.625 33 
Q 55.609375 28.21875 55.609375 21.1875 
Q 55.609375 10.40625 48.1875 4.484375 
Q 40.765625 -1.421875 27.09375 -1.421875 
Q 22.515625 -1.421875 17.65625 -0.515625 
Q 12.796875 0.390625 7.625 2.203125 
L 7.625 11.71875 
Q 11.71875 9.328125 16.59375 8.109375 
Q 21.484375 6.890625 26.8125 6.890625 
Q 36.078125 6.890625 40.9375 10.546875 
Q 45.796875 14.203125 45.796875 21.1875 
Q 45.796875 27.640625 41.28125 31.265625 
Q 36.765625 34.90625 28.71875 34.90625 
L 20.21875 34.90625 
L 20.21875 43.015625 
L 29.109375 43.015625 
Q 36.375 43.015625 40.234375 45.921875 
Q 44.09375 48.828125 44.09375 54.296875 
Q 44.09375 59.90625 40.109375 62.90625 
Q 36.140625 65.921875 28.71875 65.921875 
Q 24.65625 65.921875 20.015625 65.03125 
Q 15.375 64.15625 9.8125 62.3125 
L 9.8125 71.09375 
Q 15.4375 72.65625 20.34375 73.4375 
Q 25.25 74.21875 29.59375 74.21875 
Q 40.828125 74.21875 47.359375 69.109375 
Q 53.90625 64.015625 53.90625 55.328125 
Q 53.90625 49.265625 50.4375 45.09375 
Q 46.96875 40.921875 40.578125 39.3125 
z
" id="DejaVuSans-51"/>
      </defs>
      <g transform="translate(44.209313 645.213214)rotate(-30)scale(0.14 -0.14)">
       <use xlink:href="#DejaVuSans-50"/>
       <use x="63.623047" xlink:href="#DejaVuSans-48"/>
       <use x="127.246094" xlink:href="#DejaVuSans-50"/>
       <use x="190.869141" xlink:href="#DejaVuSans-48"/>
       <use x="254.492188" xlink:href="#DejaVuSans-45"/>
       <use x="290.576172" xlink:href="#DejaVuSans-48"/>
       <use x="354.199219" xlink:href="#DejaVuSans-51"/>
      </g>
     </g>
    </g>
    <g id="xtick_2">
     <g id="line2d_3">
      <path clip-path="url(#p8f814ef81f)" d="M 148.904583 599.75263 
L 148.904583 12.23263 
" style="fill:none;stroke:#d3d3d3;stroke-linecap:square;stroke-width:0.8;"/>
     </g>
     <g id="line2d_4">
      <g>
       <use style="stroke:#000000;stroke-width:0.8;" x="148.904583" xlink:href="#md146835dda" y="599.75263"/>
      </g>
     </g>
     <g id="text_2">
      <!-- 2020-05 -->
      <defs>
       <path d="M 10.796875 72.90625 
L 49.515625 72.90625 
L 49.515625 64.59375 
L 19.828125 64.59375 
L 19.828125 46.734375 
Q 21.96875 47.46875 24.109375 47.828125 
Q 26.265625 48.1875 28.421875 48.1875 
Q 40.625 48.1875 47.75 41.5 
Q 54.890625 34.8125 54.890625 23.390625 
Q 54.890625 11.625 47.5625 5.09375 
Q 40.234375 -1.421875 26.90625 -1.421875 
Q 22.3125 -1.421875 17.546875 -0.640625 
Q 12.796875 0.140625 7.71875 1.703125 
L 7.71875 11.625 
Q 12.109375 9.234375 16.796875 8.0625 
Q 21.484375 6.890625 26.703125 6.890625 
Q 35.15625 6.890625 40.078125 11.328125 
Q 45.015625 15.765625 45.015625 23.390625 
Q 45.015625 31 40.078125 35.4375 
Q 35.15625 39.890625 26.703125 39.890625 
Q 22.75 39.890625 18.8125 39.015625 
Q 14.890625 38.140625 10.796875 36.28125 
z
" id="DejaVuSans-53"/>
      </defs>
      <g transform="translate(96.789833 645.213214)rotate(-30)scale(0.14 -0.14)">
       <use xlink:href="#DejaVuSans-50"/>
       <use x="63.623047" xlink:href="#DejaVuSans-48"/>
       <use x="127.246094" xlink:href="#DejaVuSans-50"/>
       <use x="190.869141" xlink:href="#DejaVuSans-48"/>
       <use x="254.492188" xlink:href="#DejaVuSans-45"/>
       <use x="290.576172" xlink:href="#DejaVuSans-48"/>
       <use x="354.199219" xlink:href="#DejaVuSans-53"/>
      </g>
     </g>
    </g>
    <g id="xtick_3">
     <g id="line2d_5">
      <path clip-path="url(#p8f814ef81f)" d="M 201.485103 599.75263 
L 201.485103 12.23263 
" style="fill:none;stroke:#d3d3d3;stroke-linecap:square;stroke-width:0.8;"/>
     </g>
     <g id="line2d_6">
      <g>
       <use style="stroke:#000000;stroke-width:0.8;" x="201.485103" xlink:href="#md146835dda" y="599.75263"/>
      </g>
     </g>
     <g id="text_3">
      <!-- 2020-07 -->
      <defs>
       <path d="M 8.203125 72.90625 
L 55.078125 72.90625 
L 55.078125 68.703125 
L 28.609375 0 
L 18.3125 0 
L 43.21875 64.59375 
L 8.203125 64.59375 
z
" id="DejaVuSans-55"/>
      </defs>
      <g transform="translate(149.370354 645.213214)rotate(-30)scale(0.14 -0.14)">
       <use xlink:href="#DejaVuSans-50"/>
       <use x="63.623047" xlink:href="#DejaVuSans-48"/>
       <use x="127.246094" xlink:href="#DejaVuSans-50"/>
       <use x="190.869141" xlink:href="#DejaVuSans-48"/>
       <use x="254.492188" xlink:href="#DejaVuSans-45"/>
       <use x="290.576172" xlink:href="#DejaVuSans-48"/>
       <use x="354.199219" xlink:href="#DejaVuSans-55"/>
      </g>
     </g>
    </g>
    <g id="xtick_4">
     <g id="line2d_7">
      <path clip-path="url(#p8f814ef81f)" d="M 254.9276 599.75263 
L 254.9276 12.23263 
" style="fill:none;stroke:#d3d3d3;stroke-linecap:square;stroke-width:0.8;"/>
     </g>
     <g id="line2d_8">
      <g>
       <use style="stroke:#000000;stroke-width:0.8;" x="254.9276" xlink:href="#md146835dda" y="599.75263"/>
      </g>
     </g>
     <g id="text_4">
      <!-- 2020-09 -->
      <defs>
       <path d="M 10.984375 1.515625 
L 10.984375 10.5 
Q 14.703125 8.734375 18.5 7.8125 
Q 22.3125 6.890625 25.984375 6.890625 
Q 35.75 6.890625 40.890625 13.453125 
Q 46.046875 20.015625 46.78125 33.40625 
Q 43.953125 29.203125 39.59375 26.953125 
Q 35.25 24.703125 29.984375 24.703125 
Q 19.046875 24.703125 12.671875 31.3125 
Q 6.296875 37.9375 6.296875 49.421875 
Q 6.296875 60.640625 12.9375 67.421875 
Q 19.578125 74.21875 30.609375 74.21875 
Q 43.265625 74.21875 49.921875 64.515625 
Q 56.59375 54.828125 56.59375 36.375 
Q 56.59375 19.140625 48.40625 8.859375 
Q 40.234375 -1.421875 26.421875 -1.421875 
Q 22.703125 -1.421875 18.890625 -0.6875 
Q 15.09375 0.046875 10.984375 1.515625 
z
M 30.609375 32.421875 
Q 37.25 32.421875 41.125 36.953125 
Q 45.015625 41.5 45.015625 49.421875 
Q 45.015625 57.28125 41.125 61.84375 
Q 37.25 66.40625 30.609375 66.40625 
Q 23.96875 66.40625 20.09375 61.84375 
Q 16.21875 57.28125 16.21875 49.421875 
Q 16.21875 41.5 20.09375 36.953125 
Q 23.96875 32.421875 30.609375 32.421875 
z
" id="DejaVuSans-57"/>
      </defs>
      <g transform="translate(202.81285 645.213214)rotate(-30)scale(0.14 -0.14)">
       <use xlink:href="#DejaVuSans-50"/>
       <use x="63.623047" xlink:href="#DejaVuSans-48"/>
       <use x="127.246094" xlink:href="#DejaVuSans-50"/>
       <use x="190.869141" xlink:href="#DejaVuSans-48"/>
       <use x="254.492188" xlink:href="#DejaVuSans-45"/>
       <use x="290.576172" xlink:href="#DejaVuSans-48"/>
       <use x="354.199219" xlink:href="#DejaVuSans-57"/>
      </g>
     </g>
    </g>
    <g id="xtick_5">
     <g id="line2d_9">
      <path clip-path="url(#p8f814ef81f)" d="M 307.50812 599.75263 
L 307.50812 12.23263 
" style="fill:none;stroke:#d3d3d3;stroke-linecap:square;stroke-width:0.8;"/>
     </g>
     <g id="line2d_10">
      <g>
       <use style="stroke:#000000;stroke-width:0.8;" x="307.50812" xlink:href="#md146835dda" y="599.75263"/>
      </g>
     </g>
     <g id="text_5">
      <!-- 2020-11 -->
      <defs>
       <path d="M 12.40625 8.296875 
L 28.515625 8.296875 
L 28.515625 63.921875 
L 10.984375 60.40625 
L 10.984375 69.390625 
L 28.421875 72.90625 
L 38.28125 72.90625 
L 38.28125 8.296875 
L 54.390625 8.296875 
L 54.390625 0 
L 12.40625 0 
z
" id="DejaVuSans-49"/>
      </defs>
      <g transform="translate(255.393371 645.213214)rotate(-30)scale(0.14 -0.14)">
       <use xlink:href="#DejaVuSans-50"/>
       <use x="63.623047" xlink:href="#DejaVuSans-48"/>
       <use x="127.246094" xlink:href="#DejaVuSans-50"/>
       <use x="190.869141" xlink:href="#DejaVuSans-48"/>
       <use x="254.492188" xlink:href="#DejaVuSans-45"/>
       <use x="290.576172" xlink:href="#DejaVuSans-49"/>
       <use x="354.199219" xlink:href="#DejaVuSans-49"/>
      </g>
     </g>
    </g>
    <g id="xtick_6">
     <g id="line2d_11">
      <path clip-path="url(#p8f814ef81f)" d="M 360.088641 599.75263 
L 360.088641 12.23263 
" style="fill:none;stroke:#d3d3d3;stroke-linecap:square;stroke-width:0.8;"/>
     </g>
     <g id="line2d_12">
      <g>
       <use style="stroke:#000000;stroke-width:0.8;" x="360.088641" xlink:href="#md146835dda" y="599.75263"/>
      </g>
     </g>
     <g id="text_6">
      <!-- 2021-01 -->
      <g transform="translate(307.973892 645.213214)rotate(-30)scale(0.14 -0.14)">
       <use xlink:href="#DejaVuSans-50"/>
       <use x="63.623047" xlink:href="#DejaVuSans-48"/>
       <use x="127.246094" xlink:href="#DejaVuSans-50"/>
       <use x="190.869141" xlink:href="#DejaVuSans-49"/>
       <use x="254.492188" xlink:href="#DejaVuSans-45"/>
       <use x="290.576172" xlink:href="#DejaVuSans-48"/>
       <use x="354.199219" xlink:href="#DejaVuSans-49"/>
      </g>
     </g>
    </g>
    <g id="xtick_7">
     <g id="line2d_13">
      <path clip-path="url(#p8f814ef81f)" d="M 410.94521 599.75263 
L 410.94521 12.23263 
" style="fill:none;stroke:#d3d3d3;stroke-linecap:square;stroke-width:0.8;"/>
     </g>
     <g id="line2d_14">
      <g>
       <use style="stroke:#000000;stroke-width:0.8;" x="410.94521" xlink:href="#md146835dda" y="599.75263"/>
      </g>
     </g>
     <g id="text_7">
      <!-- 2021-03 -->
      <g transform="translate(358.830461 645.213214)rotate(-30)scale(0.14 -0.14)">
       <use xlink:href="#DejaVuSans-50"/>
       <use x="63.623047" xlink:href="#DejaVuSans-48"/>
       <use x="127.246094" xlink:href="#DejaVuSans-50"/>
       <use x="190.869141" xlink:href="#DejaVuSans-49"/>
       <use x="254.492188" xlink:href="#DejaVuSans-45"/>
       <use x="290.576172" xlink:href="#DejaVuSans-48"/>
       <use x="354.199219" xlink:href="#DejaVuSans-51"/>
      </g>
     </g>
    </g>
    <g id="xtick_8">
     <g id="line2d_15">
      <path clip-path="url(#p8f814ef81f)" d="M 463.52573 599.75263 
L 463.52573 12.23263 
" style="fill:none;stroke:#d3d3d3;stroke-linecap:square;stroke-width:0.8;"/>
     </g>
     <g id="line2d_16">
      <g>
       <use style="stroke:#000000;stroke-width:0.8;" x="463.52573" xlink:href="#md146835dda" y="599.75263"/>
      </g>
     </g>
     <g id="text_8">
      <!-- 2021-05 -->
      <g transform="translate(411.410981 645.213214)rotate(-30)scale(0.14 -0.14)">
       <use xlink:href="#DejaVuSans-50"/>
       <use x="63.623047" xlink:href="#DejaVuSans-48"/>
       <use x="127.246094" xlink:href="#DejaVuSans-50"/>
       <use x="190.869141" xlink:href="#DejaVuSans-49"/>
       <use x="254.492188" xlink:href="#DejaVuSans-45"/>
       <use x="290.576172" xlink:href="#DejaVuSans-48"/>
       <use x="354.199219" xlink:href="#DejaVuSans-53"/>
      </g>
     </g>
    </g>
    <g id="xtick_9">
     <g id="line2d_17">
      <path clip-path="url(#p8f814ef81f)" d="M 516.106251 599.75263 
L 516.106251 12.23263 
" style="fill:none;stroke:#d3d3d3;stroke-linecap:square;stroke-width:0.8;"/>
     </g>
     <g id="line2d_18">
      <g>
       <use style="stroke:#000000;stroke-width:0.8;" x="516.106251" xlink:href="#md146835dda" y="599.75263"/>
      </g>
     </g>
     <g id="text_9">
      <!-- 2021-07 -->
      <g transform="translate(463.991502 645.213214)rotate(-30)scale(0.14 -0.14)">
       <use xlink:href="#DejaVuSans-50"/>
       <use x="63.623047" xlink:href="#DejaVuSans-48"/>
       <use x="127.246094" xlink:href="#DejaVuSans-50"/>
       <use x="190.869141" xlink:href="#DejaVuSans-49"/>
       <use x="254.492188" xlink:href="#DejaVuSans-45"/>
       <use x="290.576172" xlink:href="#DejaVuSans-48"/>
       <use x="354.199219" xlink:href="#DejaVuSans-55"/>
      </g>
     </g>
    </g>
    <g id="xtick_10">
     <g id="line2d_19">
      <path clip-path="url(#p8f814ef81f)" d="M 569.548747 599.75263 
L 569.548747 12.23263 
" style="fill:none;stroke:#d3d3d3;stroke-linecap:square;stroke-width:0.8;"/>
     </g>
     <g id="line2d_20">
      <g>
       <use style="stroke:#000000;stroke-width:0.8;" x="569.548747" xlink:href="#md146835dda" y="599.75263"/>
      </g>
     </g>
     <g id="text_10">
      <!-- 2021-09 -->
      <g transform="translate(517.433998 645.213214)rotate(-30)scale(0.14 -0.14)">
       <use xlink:href="#DejaVuSans-50"/>
       <use x="63.623047" xlink:href="#DejaVuSans-48"/>
       <use x="127.246094" xlink:href="#DejaVuSans-50"/>
       <use x="190.869141" xlink:href="#DejaVuSans-49"/>
       <use x="254.492188" xlink:href="#DejaVuSans-45"/>
       <use x="290.576172" xlink:href="#DejaVuSans-48"/>
       <use x="354.199219" xlink:href="#DejaVuSans-57"/>
      </g>
     </g>
    </g>
   </g>
   <g id="matplotlib.axis_2">
    <g id="ytick_1">
     <g id="line2d_21">
      <path clip-path="url(#p8f814ef81f)" d="M 89.64375 599.75263 
L 596.916477 599.75263 
" style="fill:none;stroke:#d3d3d3;stroke-linecap:square;stroke-width:0.8;"/>
     </g>
     <g id="line2d_22">
      <defs>
       <path d="M 0 0 
L -3.5 0 
" id="m469d2394ae" style="stroke:#000000;stroke-width:0.8;"/>
      </defs>
      <g>
       <use style="stroke:#000000;stroke-width:0.8;" x="89.64375" xlink:href="#m469d2394ae" y="599.75263"/>
      </g>
     </g>
     <g id="text_11">
      <!-- 0 -->
      <g transform="translate(73.73625 605.071536)scale(0.14 -0.14)">
       <use xlink:href="#DejaVuSans-48"/>
      </g>
     </g>
    </g>
    <g id="ytick_2">
     <g id="line2d_23">
      <path clip-path="url(#p8f814ef81f)" d="M 89.64375 526.783685 
L 596.916477 526.783685 
" style="fill:none;stroke:#d3d3d3;stroke-linecap:square;stroke-width:0.8;"/>
     </g>
     <g id="line2d_24">
      <g>
       <use style="stroke:#000000;stroke-width:0.8;" x="89.64375" xlink:href="#m469d2394ae" y="526.783685"/>
      </g>
     </g>
     <g id="text_12">
      <!-- 100,000 -->
      <defs>
       <path d="M 11.71875 12.40625 
L 22.015625 12.40625 
L 22.015625 4 
L 14.015625 -11.625 
L 7.71875 -11.625 
L 11.71875 4 
z
" id="DejaVuSans-44"/>
      </defs>
      <g transform="translate(24.749375 532.102592)scale(0.14 -0.14)">
       <use xlink:href="#DejaVuSans-49"/>
       <use x="63.623047" xlink:href="#DejaVuSans-48"/>
       <use x="127.246094" xlink:href="#DejaVuSans-48"/>
       <use x="190.869141" xlink:href="#DejaVuSans-44"/>
       <use x="222.65625" xlink:href="#DejaVuSans-48"/>
       <use x="286.279297" xlink:href="#DejaVuSans-48"/>
       <use x="349.902344" xlink:href="#DejaVuSans-48"/>
      </g>
     </g>
    </g>
    <g id="ytick_3">
     <g id="line2d_25">
      <path clip-path="url(#p8f814ef81f)" d="M 89.64375 453.814741 
L 596.916477 453.814741 
" style="fill:none;stroke:#d3d3d3;stroke-linecap:square;stroke-width:0.8;"/>
     </g>
     <g id="line2d_26">
      <g>
       <use style="stroke:#000000;stroke-width:0.8;" x="89.64375" xlink:href="#m469d2394ae" y="453.814741"/>
      </g>
     </g>
     <g id="text_13">
      <!-- 200,000 -->
      <g transform="translate(24.749375 459.133647)scale(0.14 -0.14)">
       <use xlink:href="#DejaVuSans-50"/>
       <use x="63.623047" xlink:href="#DejaVuSans-48"/>
       <use x="127.246094" xlink:href="#DejaVuSans-48"/>
       <use x="190.869141" xlink:href="#DejaVuSans-44"/>
       <use x="222.65625" xlink:href="#DejaVuSans-48"/>
       <use x="286.279297" xlink:href="#DejaVuSans-48"/>
       <use x="349.902344" xlink:href="#DejaVuSans-48"/>
      </g>
     </g>
    </g>
    <g id="ytick_4">
     <g id="line2d_27">
      <path clip-path="url(#p8f814ef81f)" d="M 89.64375 380.845797 
L 596.916477 380.845797 
" style="fill:none;stroke:#d3d3d3;stroke-linecap:square;stroke-width:0.8;"/>
     </g>
     <g id="line2d_28">
      <g>
       <use style="stroke:#000000;stroke-width:0.8;" x="89.64375" xlink:href="#m469d2394ae" y="380.845797"/>
      </g>
     </g>
     <g id="text_14">
      <!-- 300,000 -->
      <g transform="translate(24.749375 386.164703)scale(0.14 -0.14)">
       <use xlink:href="#DejaVuSans-51"/>
       <use x="63.623047" xlink:href="#DejaVuSans-48"/>
       <use x="127.246094" xlink:href="#DejaVuSans-48"/>
       <use x="190.869141" xlink:href="#DejaVuSans-44"/>
       <use x="222.65625" xlink:href="#DejaVuSans-48"/>
       <use x="286.279297" xlink:href="#DejaVuSans-48"/>
       <use x="349.902344" xlink:href="#DejaVuSans-48"/>
      </g>
     </g>
    </g>
    <g id="ytick_5">
     <g id="line2d_29">
      <path clip-path="url(#p8f814ef81f)" d="M 89.64375 307.876852 
L 596.916477 307.876852 
" style="fill:none;stroke:#d3d3d3;stroke-linecap:square;stroke-width:0.8;"/>
     </g>
     <g id="line2d_30">
      <g>
       <use style="stroke:#000000;stroke-width:0.8;" x="89.64375" xlink:href="#m469d2394ae" y="307.876852"/>
      </g>
     </g>
     <g id="text_15">
      <!-- 400,000 -->
      <defs>
       <path d="M 37.796875 64.3125 
L 12.890625 25.390625 
L 37.796875 25.390625 
z
M 35.203125 72.90625 
L 47.609375 72.90625 
L 47.609375 25.390625 
L 58.015625 25.390625 
L 58.015625 17.1875 
L 47.609375 17.1875 
L 47.609375 0 
L 37.796875 0 
L 37.796875 17.1875 
L 4.890625 17.1875 
L 4.890625 26.703125 
z
" id="DejaVuSans-52"/>
      </defs>
      <g transform="translate(24.749375 313.195758)scale(0.14 -0.14)">
       <use xlink:href="#DejaVuSans-52"/>
       <use x="63.623047" xlink:href="#DejaVuSans-48"/>
       <use x="127.246094" xlink:href="#DejaVuSans-48"/>
       <use x="190.869141" xlink:href="#DejaVuSans-44"/>
       <use x="222.65625" xlink:href="#DejaVuSans-48"/>
       <use x="286.279297" xlink:href="#DejaVuSans-48"/>
       <use x="349.902344" xlink:href="#DejaVuSans-48"/>
      </g>
     </g>
    </g>
    <g id="ytick_6">
     <g id="line2d_31">
      <path clip-path="url(#p8f814ef81f)" d="M 89.64375 234.907908 
L 596.916477 234.907908 
" style="fill:none;stroke:#d3d3d3;stroke-linecap:square;stroke-width:0.8;"/>
     </g>
     <g id="line2d_32">
      <g>
       <use style="stroke:#000000;stroke-width:0.8;" x="89.64375" xlink:href="#m469d2394ae" y="234.907908"/>
      </g>
     </g>
     <g id="text_16">
      <!-- 500,000 -->
      <g transform="translate(24.749375 240.226814)scale(0.14 -0.14)">
       <use xlink:href="#DejaVuSans-53"/>
       <use x="63.623047" xlink:href="#DejaVuSans-48"/>
       <use x="127.246094" xlink:href="#DejaVuSans-48"/>
       <use x="190.869141" xlink:href="#DejaVuSans-44"/>
       <use x="222.65625" xlink:href="#DejaVuSans-48"/>
       <use x="286.279297" xlink:href="#DejaVuSans-48"/>
       <use x="349.902344" xlink:href="#DejaVuSans-48"/>
      </g>
     </g>
    </g>
    <g id="ytick_7">
     <g id="line2d_33">
      <path clip-path="url(#p8f814ef81f)" d="M 89.64375 161.938963 
L 596.916477 161.938963 
" style="fill:none;stroke:#d3d3d3;stroke-linecap:square;stroke-width:0.8;"/>
     </g>
     <g id="line2d_34">
      <g>
       <use style="stroke:#000000;stroke-width:0.8;" x="89.64375" xlink:href="#m469d2394ae" y="161.938963"/>
      </g>
     </g>
     <g id="text_17">
      <!-- 600,000 -->
      <defs>
       <path d="M 33.015625 40.375 
Q 26.375 40.375 22.484375 35.828125 
Q 18.609375 31.296875 18.609375 23.390625 
Q 18.609375 15.53125 22.484375 10.953125 
Q 26.375 6.390625 33.015625 6.390625 
Q 39.65625 6.390625 43.53125 10.953125 
Q 47.40625 15.53125 47.40625 23.390625 
Q 47.40625 31.296875 43.53125 35.828125 
Q 39.65625 40.375 33.015625 40.375 
z
M 52.59375 71.296875 
L 52.59375 62.3125 
Q 48.875 64.0625 45.09375 64.984375 
Q 41.3125 65.921875 37.59375 65.921875 
Q 27.828125 65.921875 22.671875 59.328125 
Q 17.53125 52.734375 16.796875 39.40625 
Q 19.671875 43.65625 24.015625 45.921875 
Q 28.375 48.1875 33.59375 48.1875 
Q 44.578125 48.1875 50.953125 41.515625 
Q 57.328125 34.859375 57.328125 23.390625 
Q 57.328125 12.15625 50.6875 5.359375 
Q 44.046875 -1.421875 33.015625 -1.421875 
Q 20.359375 -1.421875 13.671875 8.265625 
Q 6.984375 17.96875 6.984375 36.375 
Q 6.984375 53.65625 15.1875 63.9375 
Q 23.390625 74.21875 37.203125 74.21875 
Q 40.921875 74.21875 44.703125 73.484375 
Q 48.484375 72.75 52.59375 71.296875 
z
" id="DejaVuSans-54"/>
      </defs>
      <g transform="translate(24.749375 167.25787)scale(0.14 -0.14)">
       <use xlink:href="#DejaVuSans-54"/>
       <use x="63.623047" xlink:href="#DejaVuSans-48"/>
       <use x="127.246094" xlink:href="#DejaVuSans-48"/>
       <use x="190.869141" xlink:href="#DejaVuSans-44"/>
       <use x="222.65625" xlink:href="#DejaVuSans-48"/>
       <use x="286.279297" xlink:href="#DejaVuSans-48"/>
       <use x="349.902344" xlink:href="#DejaVuSans-48"/>
      </g>
     </g>
    </g>
    <g id="ytick_8">
     <g id="line2d_35">
      <path clip-path="url(#p8f814ef81f)" d="M 89.64375 88.970019 
L 596.916477 88.970019 
" style="fill:none;stroke:#d3d3d3;stroke-linecap:square;stroke-width:0.8;"/>
     </g>
     <g id="line2d_36">
      <g>
       <use style="stroke:#000000;stroke-width:0.8;" x="89.64375" xlink:href="#m469d2394ae" y="88.970019"/>
      </g>
     </g>
     <g id="text_18">
      <!-- 700,000 -->
      <g transform="translate(24.749375 94.288925)scale(0.14 -0.14)">
       <use xlink:href="#DejaVuSans-55"/>
       <use x="63.623047" xlink:href="#DejaVuSans-48"/>
       <use x="127.246094" xlink:href="#DejaVuSans-48"/>
       <use x="190.869141" xlink:href="#DejaVuSans-44"/>
       <use x="222.65625" xlink:href="#DejaVuSans-48"/>
       <use x="286.279297" xlink:href="#DejaVuSans-48"/>
       <use x="349.902344" xlink:href="#DejaVuSans-48"/>
      </g>
     </g>
    </g>
    <g id="ytick_9">
     <g id="line2d_37">
      <path clip-path="url(#p8f814ef81f)" d="M 89.64375 16.001074 
L 596.916477 16.001074 
" style="fill:none;stroke:#d3d3d3;stroke-linecap:square;stroke-width:0.8;"/>
     </g>
     <g id="line2d_38">
      <g>
       <use style="stroke:#000000;stroke-width:0.8;" x="89.64375" xlink:href="#m469d2394ae" y="16.001074"/>
      </g>
     </g>
     <g id="text_19">
      <!-- 800,000 -->
      <defs>
       <path d="M 31.78125 34.625 
Q 24.75 34.625 20.71875 30.859375 
Q 16.703125 27.09375 16.703125 20.515625 
Q 16.703125 13.921875 20.71875 10.15625 
Q 24.75 6.390625 31.78125 6.390625 
Q 38.8125 6.390625 42.859375 10.171875 
Q 46.921875 13.96875 46.921875 20.515625 
Q 46.921875 27.09375 42.890625 30.859375 
Q 38.875 34.625 31.78125 34.625 
z
M 21.921875 38.8125 
Q 15.578125 40.375 12.03125 44.71875 
Q 8.5 49.078125 8.5 55.328125 
Q 8.5 64.0625 14.71875 69.140625 
Q 20.953125 74.21875 31.78125 74.21875 
Q 42.671875 74.21875 48.875 69.140625 
Q 55.078125 64.0625 55.078125 55.328125 
Q 55.078125 49.078125 51.53125 44.71875 
Q 48 40.375 41.703125 38.8125 
Q 48.828125 37.15625 52.796875 32.3125 
Q 56.78125 27.484375 56.78125 20.515625 
Q 56.78125 9.90625 50.3125 4.234375 
Q 43.84375 -1.421875 31.78125 -1.421875 
Q 19.734375 -1.421875 13.25 4.234375 
Q 6.78125 9.90625 6.78125 20.515625 
Q 6.78125 27.484375 10.78125 32.3125 
Q 14.796875 37.15625 21.921875 38.8125 
z
M 18.3125 54.390625 
Q 18.3125 48.734375 21.84375 45.5625 
Q 25.390625 42.390625 31.78125 42.390625 
Q 38.140625 42.390625 41.71875 45.5625 
Q 45.3125 48.734375 45.3125 54.390625 
Q 45.3125 60.0625 41.71875 63.234375 
Q 38.140625 66.40625 31.78125 66.40625 
Q 25.390625 66.40625 21.84375 63.234375 
Q 18.3125 60.0625 18.3125 54.390625 
z
" id="DejaVuSans-56"/>
      </defs>
      <g transform="translate(24.749375 21.319981)scale(0.14 -0.14)">
       <use xlink:href="#DejaVuSans-56"/>
       <use x="63.623047" xlink:href="#DejaVuSans-48"/>
       <use x="127.246094" xlink:href="#DejaVuSans-48"/>
       <use x="190.869141" xlink:href="#DejaVuSans-44"/>
       <use x="222.65625" xlink:href="#DejaVuSans-48"/>
       <use x="286.279297" xlink:href="#DejaVuSans-48"/>
       <use x="349.902344" xlink:href="#DejaVuSans-48"/>
      </g>
     </g>
    </g>
    <g id="text_20">
     <!-- Total manuscripts -->
     <defs>
      <path d="M -0.296875 72.90625 
L 61.375 72.90625 
L 61.375 64.59375 
L 35.5 64.59375 
L 35.5 0 
L 25.59375 0 
L 25.59375 64.59375 
L -0.296875 64.59375 
z
" id="DejaVuSans-84"/>
      <path d="M 30.609375 48.390625 
Q 23.390625 48.390625 19.1875 42.75 
Q 14.984375 37.109375 14.984375 27.296875 
Q 14.984375 17.484375 19.15625 11.84375 
Q 23.34375 6.203125 30.609375 6.203125 
Q 37.796875 6.203125 41.984375 11.859375 
Q 46.1875 17.53125 46.1875 27.296875 
Q 46.1875 37.015625 41.984375 42.703125 
Q 37.796875 48.390625 30.609375 48.390625 
z
M 30.609375 56 
Q 42.328125 56 49.015625 48.375 
Q 55.71875 40.765625 55.71875 27.296875 
Q 55.71875 13.875 49.015625 6.21875 
Q 42.328125 -1.421875 30.609375 -1.421875 
Q 18.84375 -1.421875 12.171875 6.21875 
Q 5.515625 13.875 5.515625 27.296875 
Q 5.515625 40.765625 12.171875 48.375 
Q 18.84375 56 30.609375 56 
z
" id="DejaVuSans-111"/>
      <path d="M 18.3125 70.21875 
L 18.3125 54.6875 
L 36.8125 54.6875 
L 36.8125 47.703125 
L 18.3125 47.703125 
L 18.3125 18.015625 
Q 18.3125 11.328125 20.140625 9.421875 
Q 21.96875 7.515625 27.59375 7.515625 
L 36.8125 7.515625 
L 36.8125 0 
L 27.59375 0 
Q 17.1875 0 13.234375 3.875 
Q 9.28125 7.765625 9.28125 18.015625 
L 9.28125 47.703125 
L 2.6875 47.703125 
L 2.6875 54.6875 
L 9.28125 54.6875 
L 9.28125 70.21875 
z
" id="DejaVuSans-116"/>
      <path d="M 34.28125 27.484375 
Q 23.390625 27.484375 19.1875 25 
Q 14.984375 22.515625 14.984375 16.5 
Q 14.984375 11.71875 18.140625 8.90625 
Q 21.296875 6.109375 26.703125 6.109375 
Q 34.1875 6.109375 38.703125 11.40625 
Q 43.21875 16.703125 43.21875 25.484375 
L 43.21875 27.484375 
z
M 52.203125 31.203125 
L 52.203125 0 
L 43.21875 0 
L 43.21875 8.296875 
Q 40.140625 3.328125 35.546875 0.953125 
Q 30.953125 -1.421875 24.3125 -1.421875 
Q 15.921875 -1.421875 10.953125 3.296875 
Q 6 8.015625 6 15.921875 
Q 6 25.140625 12.171875 29.828125 
Q 18.359375 34.515625 30.609375 34.515625 
L 43.21875 34.515625 
L 43.21875 35.40625 
Q 43.21875 41.609375 39.140625 45 
Q 35.0625 48.390625 27.6875 48.390625 
Q 23 48.390625 18.546875 47.265625 
Q 14.109375 46.140625 10.015625 43.890625 
L 10.015625 52.203125 
Q 14.9375 54.109375 19.578125 55.046875 
Q 24.21875 56 28.609375 56 
Q 40.484375 56 46.34375 49.84375 
Q 52.203125 43.703125 52.203125 31.203125 
z
" id="DejaVuSans-97"/>
      <path d="M 9.421875 75.984375 
L 18.40625 75.984375 
L 18.40625 0 
L 9.421875 0 
z
" id="DejaVuSans-108"/>
      <path id="DejaVuSans-32"/>
      <path d="M 52 44.1875 
Q 55.375 50.25 60.0625 53.125 
Q 64.75 56 71.09375 56 
Q 79.640625 56 84.28125 50.015625 
Q 88.921875 44.046875 88.921875 33.015625 
L 88.921875 0 
L 79.890625 0 
L 79.890625 32.71875 
Q 79.890625 40.578125 77.09375 44.375 
Q 74.3125 48.1875 68.609375 48.1875 
Q 61.625 48.1875 57.5625 43.546875 
Q 53.515625 38.921875 53.515625 30.90625 
L 53.515625 0 
L 44.484375 0 
L 44.484375 32.71875 
Q 44.484375 40.625 41.703125 44.40625 
Q 38.921875 48.1875 33.109375 48.1875 
Q 26.21875 48.1875 22.15625 43.53125 
Q 18.109375 38.875 18.109375 30.90625 
L 18.109375 0 
L 9.078125 0 
L 9.078125 54.6875 
L 18.109375 54.6875 
L 18.109375 46.1875 
Q 21.1875 51.21875 25.484375 53.609375 
Q 29.78125 56 35.6875 56 
Q 41.65625 56 45.828125 52.96875 
Q 50 49.953125 52 44.1875 
z
" id="DejaVuSans-109"/>
      <path d="M 54.890625 33.015625 
L 54.890625 0 
L 45.90625 0 
L 45.90625 32.71875 
Q 45.90625 40.484375 42.875 44.328125 
Q 39.84375 48.1875 33.796875 48.1875 
Q 26.515625 48.1875 22.3125 43.546875 
Q 18.109375 38.921875 18.109375 30.90625 
L 18.109375 0 
L 9.078125 0 
L 9.078125 54.6875 
L 18.109375 54.6875 
L 18.109375 46.1875 
Q 21.34375 51.125 25.703125 53.5625 
Q 30.078125 56 35.796875 56 
Q 45.21875 56 50.046875 50.171875 
Q 54.890625 44.34375 54.890625 33.015625 
z
" id="DejaVuSans-110"/>
      <path d="M 8.5 21.578125 
L 8.5 54.6875 
L 17.484375 54.6875 
L 17.484375 21.921875 
Q 17.484375 14.15625 20.5 10.265625 
Q 23.53125 6.390625 29.59375 6.390625 
Q 36.859375 6.390625 41.078125 11.03125 
Q 45.3125 15.671875 45.3125 23.6875 
L 45.3125 54.6875 
L 54.296875 54.6875 
L 54.296875 0 
L 45.3125 0 
L 45.3125 8.40625 
Q 42.046875 3.421875 37.71875 1 
Q 33.40625 -1.421875 27.6875 -1.421875 
Q 18.265625 -1.421875 13.375 4.4375 
Q 8.5 10.296875 8.5 21.578125 
z
M 31.109375 56 
z
" id="DejaVuSans-117"/>
      <path d="M 44.28125 53.078125 
L 44.28125 44.578125 
Q 40.484375 46.53125 36.375 47.5 
Q 32.28125 48.484375 27.875 48.484375 
Q 21.1875 48.484375 17.84375 46.4375 
Q 14.5 44.390625 14.5 40.28125 
Q 14.5 37.15625 16.890625 35.375 
Q 19.28125 33.59375 26.515625 31.984375 
L 29.59375 31.296875 
Q 39.15625 29.25 43.1875 25.515625 
Q 47.21875 21.78125 47.21875 15.09375 
Q 47.21875 7.46875 41.1875 3.015625 
Q 35.15625 -1.421875 24.609375 -1.421875 
Q 20.21875 -1.421875 15.453125 -0.5625 
Q 10.6875 0.296875 5.421875 2 
L 5.421875 11.28125 
Q 10.40625 8.6875 15.234375 7.390625 
Q 20.0625 6.109375 24.8125 6.109375 
Q 31.15625 6.109375 34.5625 8.28125 
Q 37.984375 10.453125 37.984375 14.40625 
Q 37.984375 18.0625 35.515625 20.015625 
Q 33.0625 21.96875 24.703125 23.78125 
L 21.578125 24.515625 
Q 13.234375 26.265625 9.515625 29.90625 
Q 5.8125 33.546875 5.8125 39.890625 
Q 5.8125 47.609375 11.28125 51.796875 
Q 16.75 56 26.8125 56 
Q 31.78125 56 36.171875 55.265625 
Q 40.578125 54.546875 44.28125 53.078125 
z
" id="DejaVuSans-115"/>
      <path d="M 48.78125 52.59375 
L 48.78125 44.1875 
Q 44.96875 46.296875 41.140625 47.34375 
Q 37.3125 48.390625 33.40625 48.390625 
Q 24.65625 48.390625 19.8125 42.84375 
Q 14.984375 37.3125 14.984375 27.296875 
Q 14.984375 17.28125 19.8125 11.734375 
Q 24.65625 6.203125 33.40625 6.203125 
Q 37.3125 6.203125 41.140625 7.25 
Q 44.96875 8.296875 48.78125 10.40625 
L 48.78125 2.09375 
Q 45.015625 0.34375 40.984375 -0.53125 
Q 36.96875 -1.421875 32.421875 -1.421875 
Q 20.0625 -1.421875 12.78125 6.34375 
Q 5.515625 14.109375 5.515625 27.296875 
Q 5.515625 40.671875 12.859375 48.328125 
Q 20.21875 56 33.015625 56 
Q 37.15625 56 41.109375 55.140625 
Q 45.0625 54.296875 48.78125 52.59375 
z
" id="DejaVuSans-99"/>
      <path d="M 41.109375 46.296875 
Q 39.59375 47.171875 37.8125 47.578125 
Q 36.03125 48 33.890625 48 
Q 26.265625 48 22.1875 43.046875 
Q 18.109375 38.09375 18.109375 28.8125 
L 18.109375 0 
L 9.078125 0 
L 9.078125 54.6875 
L 18.109375 54.6875 
L 18.109375 46.1875 
Q 20.953125 51.171875 25.484375 53.578125 
Q 30.03125 56 36.53125 56 
Q 37.453125 56 38.578125 55.875 
Q 39.703125 55.765625 41.0625 55.515625 
z
" id="DejaVuSans-114"/>
      <path d="M 9.421875 54.6875 
L 18.40625 54.6875 
L 18.40625 0 
L 9.421875 0 
z
M 9.421875 75.984375 
L 18.40625 75.984375 
L 18.40625 64.59375 
L 9.421875 64.59375 
z
" id="DejaVuSans-105"/>
      <path d="M 18.109375 8.203125 
L 18.109375 -20.796875 
L 9.078125 -20.796875 
L 9.078125 54.6875 
L 18.109375 54.6875 
L 18.109375 46.390625 
Q 20.953125 51.265625 25.265625 53.625 
Q 29.59375 56 35.59375 56 
Q 45.5625 56 51.78125 48.09375 
Q 58.015625 40.1875 58.015625 27.296875 
Q 58.015625 14.40625 51.78125 6.484375 
Q 45.5625 -1.421875 35.59375 -1.421875 
Q 29.59375 -1.421875 25.265625 0.953125 
Q 20.953125 3.328125 18.109375 8.203125 
z
M 48.6875 27.296875 
Q 48.6875 37.203125 44.609375 42.84375 
Q 40.53125 48.484375 33.40625 48.484375 
Q 26.265625 48.484375 22.1875 42.84375 
Q 18.109375 37.203125 18.109375 27.296875 
Q 18.109375 17.390625 22.1875 11.75 
Q 26.265625 6.109375 33.40625 6.109375 
Q 40.53125 6.109375 44.609375 11.75 
Q 48.6875 17.390625 48.6875 27.296875 
z
" id="DejaVuSans-112"/>
     </defs>
     <g transform="translate(17.837813 368.869036)rotate(-90)scale(0.14 -0.14)">
      <use xlink:href="#DejaVuSans-84"/>
      <use x="60.818359" xlink:href="#DejaVuSans-111"/>
      <use x="122" xlink:href="#DejaVuSans-116"/>
      <use x="161.208984" xlink:href="#DejaVuSans-97"/>
      <use x="222.488281" xlink:href="#DejaVuSans-108"/>
      <use x="250.271484" xlink:href="#DejaVuSans-32"/>
      <use x="282.058594" xlink:href="#DejaVuSans-109"/>
      <use x="379.470703" xlink:href="#DejaVuSans-97"/>
      <use x="440.75" xlink:href="#DejaVuSans-110"/>
      <use x="504.128906" xlink:href="#DejaVuSans-117"/>
      <use x="567.507812" xlink:href="#DejaVuSans-115"/>
      <use x="619.607422" xlink:href="#DejaVuSans-99"/>
      <use x="674.587891" xlink:href="#DejaVuSans-114"/>
      <use x="715.701172" xlink:href="#DejaVuSans-105"/>
      <use x="743.484375" xlink:href="#DejaVuSans-112"/>
      <use x="806.960938" xlink:href="#DejaVuSans-116"/>
      <use x="846.169922" xlink:href="#DejaVuSans-115"/>
     </g>
    </g>
   </g>
   <g id="line2d_39">
    <path clip-path="url(#p8f814ef81f)" d="M 112.701601 567.485763 
L 124.769262 565.239778 
L 130.803092 562.481552 
L 136.836922 561.518362 
L 142.870752 557.893265 
L 148.904583 556.053718 
L 158.386316 553.365542 
L 164.420146 505.993374 
L 170.453976 501.823928 
L 171.315952 500.465976 
L 173.039904 498.466627 
L 173.901879 498.281286 
L 174.763855 497.631133 
L 176.487807 496.786882 
L 177.349782 501.135831 
L 178.211758 500.658614 
L 179.073734 500.455031 
L 179.93571 500.415628 
L 180.797685 500.089456 
L 181.659661 499.485274 
L 182.521637 498.476113 
L 183.383613 497.747883 
L 184.245588 497.231993 
L 185.107564 497.02695 
L 186.831516 495.818584 
L 187.693491 495.47636 
L 188.555467 492.834884 
L 189.417443 484.903889 
L 190.279418 484.671848 
L 192.00337 483.935592 
L 193.727321 483.770682 
L 194.589297 482.742549 
L 195.451273 482.942484 
L 196.313249 481.861084 
L 197.175224 480.416299 
L 198.0372 480.20396 
L 198.899176 477.551539 
L 199.761152 477.294688 
L 200.623127 476.669344 
L 201.485103 475.836039 
L 203.209055 468.296887 
L 204.07103 467.346102 
L 204.933006 467.111142 
L 205.794982 466.709813 
L 206.656958 466.116575 
L 207.518933 464.811891 
L 208.380909 463.969099 
L 209.242885 463.352512 
L 210.104861 463.088364 
L 210.966836 462.616255 
L 212.690788 460.639526 
L 213.552764 460.122906 
L 214.414739 459.280845 
L 220.44857 455.17999 
L 223.896473 454.477299 
L 224.758448 452.253935 
L 225.620424 451.532272 
L 226.4824 451.244775 
L 227.344376 450.295449 
L 229.930303 448.479981 
L 230.792279 448.27275 
L 232.51623 446.222322 
L 233.378206 445.618139 
L 234.240182 446.126003 
L 237.688085 444.175543 
L 238.55006 442.484853 
L 239.412036 441.714301 
L 240.274012 435.825707 
L 241.135988 434.396245 
L 242.859939 433.786225 
L 244.583891 432.002864 
L 245.445866 431.688368 
L 247.169818 429.527758 
L 248.031794 429.341687 
L 248.893769 428.798068 
L 251.479697 425.594731 
L 252.341672 425.356853 
L 254.9276 423.048115 
L 255.789575 421.83829 
L 256.651551 420.937124 
L 260.96143 417.20987 
L 261.823406 416.065717 
L 263.547357 414.809921 
L 266.133284 409.206636 
L 266.99526 408.198205 
L 267.857236 405.60197 
L 268.719211 405.527542 
L 269.581187 404.07619 
L 270.443163 402.05495 
L 271.305139 400.518224 
L 272.167114 400.241672 
L 273.02909 399.793642 
L 273.891066 398.891017 
L 274.753042 397.615519 
L 275.615017 395.822672 
L 277.338969 393.961964 
L 278.200945 393.459208 
L 280.786872 391.816677 
L 282.510823 390.515641 
L 283.372799 390.036235 
L 284.234775 389.721739 
L 285.958726 388.270387 
L 286.820702 385.517268 
L 287.682678 384.828442 
L 288.544654 380.976411 
L 289.406629 379.629404 
L 290.268605 379.058787 
L 292.854532 376.939039 
L 293.716508 375.935716 
L 294.578484 375.477471 
L 295.44046 374.129735 
L 296.302435 374.041442 
L 297.164411 372.940341 
L 298.026387 372.369724 
L 298.888363 370.629415 
L 299.750338 369.208709 
L 301.47429 367.611419 
L 302.336266 367.137121 
L 304.060217 365.874029 
L 304.922193 364.470836 
L 306.646144 358.370632 
L 307.50812 357.161537 
L 308.370096 356.87112 
L 310.094047 355.830583 
L 311.817999 352.21862 
L 313.54195 350.408261 
L 314.403926 350.111277 
L 315.265902 349.641357 
L 316.989853 347.518691 
L 317.851829 347.091093 
L 318.713805 341.074803 
L 319.575781 340.313007 
L 320.437756 340.137882 
L 321.299732 339.702987 
L 322.161708 338.763147 
L 323.023684 338.269877 
L 323.885659 337.564997 
L 325.609611 335.96041 
L 326.471587 335.509462 
L 327.333562 335.246773 
L 329.91949 331.784397 
L 330.781465 331.484495 
L 331.643441 330.775966 
L 333.367393 329.550088 
L 335.091344 327.845533 
L 335.95332 327.17203 
L 336.815296 326.84221 
L 337.677271 326.197895 
L 338.539247 326.050497 
L 339.401223 325.344158 
L 340.263199 324.434965 
L 341.125174 323.751246 
L 341.98715 322.77784 
L 342.849126 322.489613 
L 343.711102 321.144795 
L 347.159004 316.59883 
L 348.02098 315.110264 
L 349.744932 313.650155 
L 350.606907 313.399142 
L 351.468883 313.008028 
L 352.330859 311.73618 
L 353.192835 310.978032 
L 354.05481 310.947385 
L 358.364689 309.788638 
L 359.226665 307.790019 
L 360.088641 307.790019 
L 360.950616 307.586436 
L 362.674568 307.565275 
L 364.398519 306.843612 
L 365.260495 299.732788 
L 366.122471 298.393808 
L 366.984447 297.646606 
L 367.846422 296.056613 
L 369.570374 295.368516 
L 371.294325 293.396895 
L 373.018277 289.838199 
L 373.880253 289.153751 
L 374.742228 289.053783 
L 375.604204 288.108835 
L 376.46618 287.624322 
L 377.328156 287.318582 
L 378.190131 286.116054 
L 379.914083 284.115245 
L 380.776059 283.686917 
L 381.638034 283.486253 
L 383.361986 279.585333 
L 384.223962 279.332131 
L 385.085937 278.361644 
L 385.947913 278.213517 
L 386.809889 277.863266 
L 392.843719 271.111449 
L 398.877549 263.532895 
L 404.91138 258.607491 
L 410.94521 251.854215 
L 416.97904 247.881056 
L 429.0467 241.545163 
L 435.080531 236.435877 
L 441.114361 218.738719 
L 448.010167 213.271886 
L 453.182021 208.042931 
L 459.215852 202.505318 
L 465.249682 196.286905 
L 471.283512 185.402857 
L 477.317342 177.076371 
L 483.351173 170.723695 
L 489.385003 162.219164 
L 501.452663 124.777339 
L 507.486493 118.520982 
L 513.520324 111.026342 
L 519.554154 102.362739 
L 525.587984 95.333641 
L 531.621814 82.288982 
L 537.655645 75.476602 
L 543.689475 67.258839 
L 549.723305 59.562075 
L 558.343063 53.433413 
L 561.790966 46.390451 
L 567.824796 38.673255 
L 573.858626 51.06776 
L 573.858626 51.06776 
" style="fill:none;stroke:#1f77b4;stroke-linecap:square;stroke-width:3;"/>
   </g>
   <g id="patch_3">
    <path d="M 89.64375 599.75263 
L 89.64375 12.23263 
" style="fill:none;stroke:#000000;stroke-linecap:square;stroke-linejoin:miter;stroke-width:0.8;"/>
   </g>
   <g id="patch_4">
    <path d="M 89.64375 599.75263 
L 596.916477 599.75263 
" style="fill:none;stroke:#000000;stroke-linecap:square;stroke-linejoin:miter;stroke-width:0.8;"/>
   </g>
  </g>
  <g id="axes_2">
   <g id="patch_5">
    <path d="M 698.371023 599.75263 
L 1205.64375 599.75263 
L 1205.64375 12.23263 
L 698.371023 12.23263 
z
" style="fill:#ffffff;"/>
   </g>
   <g id="matplotlib.axis_3">
    <g id="xtick_11">
     <g id="line2d_40">
      <path clip-path="url(#pbbafab1914)" d="M 705.051335 599.75263 
L 705.051335 12.23263 
" style="fill:none;stroke:#d3d3d3;stroke-linecap:square;stroke-width:0.8;"/>
     </g>
     <g id="line2d_41">
      <g>
       <use style="stroke:#000000;stroke-width:0.8;" x="705.051335" xlink:href="#md146835dda" y="599.75263"/>
      </g>
     </g>
     <g id="text_21">
      <!-- 2020-03 -->
      <g transform="translate(652.936586 645.213214)rotate(-30)scale(0.14 -0.14)">
       <use xlink:href="#DejaVuSans-50"/>
       <use x="63.623047" xlink:href="#DejaVuSans-48"/>
       <use x="127.246094" xlink:href="#DejaVuSans-50"/>
       <use x="190.869141" xlink:href="#DejaVuSans-48"/>
       <use x="254.492188" xlink:href="#DejaVuSans-45"/>
       <use x="290.576172" xlink:href="#DejaVuSans-48"/>
       <use x="354.199219" xlink:href="#DejaVuSans-51"/>
      </g>
     </g>
    </g>
    <g id="xtick_12">
     <g id="line2d_42">
      <path clip-path="url(#pbbafab1914)" d="M 757.631855 599.75263 
L 757.631855 12.23263 
" style="fill:none;stroke:#d3d3d3;stroke-linecap:square;stroke-width:0.8;"/>
     </g>
     <g id="line2d_43">
      <g>
       <use style="stroke:#000000;stroke-width:0.8;" x="757.631855" xlink:href="#md146835dda" y="599.75263"/>
      </g>
     </g>
     <g id="text_22">
      <!-- 2020-05 -->
      <g transform="translate(705.517106 645.213214)rotate(-30)scale(0.14 -0.14)">
       <use xlink:href="#DejaVuSans-50"/>
       <use x="63.623047" xlink:href="#DejaVuSans-48"/>
       <use x="127.246094" xlink:href="#DejaVuSans-50"/>
       <use x="190.869141" xlink:href="#DejaVuSans-48"/>
       <use x="254.492188" xlink:href="#DejaVuSans-45"/>
       <use x="290.576172" xlink:href="#DejaVuSans-48"/>
       <use x="354.199219" xlink:href="#DejaVuSans-53"/>
      </g>
     </g>
    </g>
    <g id="xtick_13">
     <g id="line2d_44">
      <path clip-path="url(#pbbafab1914)" d="M 810.212376 599.75263 
L 810.212376 12.23263 
" style="fill:none;stroke:#d3d3d3;stroke-linecap:square;stroke-width:0.8;"/>
     </g>
     <g id="line2d_45">
      <g>
       <use style="stroke:#000000;stroke-width:0.8;" x="810.212376" xlink:href="#md146835dda" y="599.75263"/>
      </g>
     </g>
     <g id="text_23">
      <!-- 2020-07 -->
      <g transform="translate(758.097627 645.213214)rotate(-30)scale(0.14 -0.14)">
       <use xlink:href="#DejaVuSans-50"/>
       <use x="63.623047" xlink:href="#DejaVuSans-48"/>
       <use x="127.246094" xlink:href="#DejaVuSans-50"/>
       <use x="190.869141" xlink:href="#DejaVuSans-48"/>
       <use x="254.492188" xlink:href="#DejaVuSans-45"/>
       <use x="290.576172" xlink:href="#DejaVuSans-48"/>
       <use x="354.199219" xlink:href="#DejaVuSans-55"/>
      </g>
     </g>
    </g>
    <g id="xtick_14">
     <g id="line2d_46">
      <path clip-path="url(#pbbafab1914)" d="M 863.654872 599.75263 
L 863.654872 12.23263 
" style="fill:none;stroke:#d3d3d3;stroke-linecap:square;stroke-width:0.8;"/>
     </g>
     <g id="line2d_47">
      <g>
       <use style="stroke:#000000;stroke-width:0.8;" x="863.654872" xlink:href="#md146835dda" y="599.75263"/>
      </g>
     </g>
     <g id="text_24">
      <!-- 2020-09 -->
      <g transform="translate(811.540123 645.213214)rotate(-30)scale(0.14 -0.14)">
       <use xlink:href="#DejaVuSans-50"/>
       <use x="63.623047" xlink:href="#DejaVuSans-48"/>
       <use x="127.246094" xlink:href="#DejaVuSans-50"/>
       <use x="190.869141" xlink:href="#DejaVuSans-48"/>
       <use x="254.492188" xlink:href="#DejaVuSans-45"/>
       <use x="290.576172" xlink:href="#DejaVuSans-48"/>
       <use x="354.199219" xlink:href="#DejaVuSans-57"/>
      </g>
     </g>
    </g>
    <g id="xtick_15">
     <g id="line2d_48">
      <path clip-path="url(#pbbafab1914)" d="M 916.235393 599.75263 
L 916.235393 12.23263 
" style="fill:none;stroke:#d3d3d3;stroke-linecap:square;stroke-width:0.8;"/>
     </g>
     <g id="line2d_49">
      <g>
       <use style="stroke:#000000;stroke-width:0.8;" x="916.235393" xlink:href="#md146835dda" y="599.75263"/>
      </g>
     </g>
     <g id="text_25">
      <!-- 2020-11 -->
      <g transform="translate(864.120644 645.213214)rotate(-30)scale(0.14 -0.14)">
       <use xlink:href="#DejaVuSans-50"/>
       <use x="63.623047" xlink:href="#DejaVuSans-48"/>
       <use x="127.246094" xlink:href="#DejaVuSans-50"/>
       <use x="190.869141" xlink:href="#DejaVuSans-48"/>
       <use x="254.492188" xlink:href="#DejaVuSans-45"/>
       <use x="290.576172" xlink:href="#DejaVuSans-49"/>
       <use x="354.199219" xlink:href="#DejaVuSans-49"/>
      </g>
     </g>
    </g>
    <g id="xtick_16">
     <g id="line2d_50">
      <path clip-path="url(#pbbafab1914)" d="M 968.815913 599.75263 
L 968.815913 12.23263 
" style="fill:none;stroke:#d3d3d3;stroke-linecap:square;stroke-width:0.8;"/>
     </g>
     <g id="line2d_51">
      <g>
       <use style="stroke:#000000;stroke-width:0.8;" x="968.815913" xlink:href="#md146835dda" y="599.75263"/>
      </g>
     </g>
     <g id="text_26">
      <!-- 2021-01 -->
      <g transform="translate(916.701164 645.213214)rotate(-30)scale(0.14 -0.14)">
       <use xlink:href="#DejaVuSans-50"/>
       <use x="63.623047" xlink:href="#DejaVuSans-48"/>
       <use x="127.246094" xlink:href="#DejaVuSans-50"/>
       <use x="190.869141" xlink:href="#DejaVuSans-49"/>
       <use x="254.492188" xlink:href="#DejaVuSans-45"/>
       <use x="290.576172" xlink:href="#DejaVuSans-48"/>
       <use x="354.199219" xlink:href="#DejaVuSans-49"/>
      </g>
     </g>
    </g>
    <g id="xtick_17">
     <g id="line2d_52">
      <path clip-path="url(#pbbafab1914)" d="M 1019.672483 599.75263 
L 1019.672483 12.23263 
" style="fill:none;stroke:#d3d3d3;stroke-linecap:square;stroke-width:0.8;"/>
     </g>
     <g id="line2d_53">
      <g>
       <use style="stroke:#000000;stroke-width:0.8;" x="1019.672483" xlink:href="#md146835dda" y="599.75263"/>
      </g>
     </g>
     <g id="text_27">
      <!-- 2021-03 -->
      <g transform="translate(967.557733 645.213214)rotate(-30)scale(0.14 -0.14)">
       <use xlink:href="#DejaVuSans-50"/>
       <use x="63.623047" xlink:href="#DejaVuSans-48"/>
       <use x="127.246094" xlink:href="#DejaVuSans-50"/>
       <use x="190.869141" xlink:href="#DejaVuSans-49"/>
       <use x="254.492188" xlink:href="#DejaVuSans-45"/>
       <use x="290.576172" xlink:href="#DejaVuSans-48"/>
       <use x="354.199219" xlink:href="#DejaVuSans-51"/>
      </g>
     </g>
    </g>
    <g id="xtick_18">
     <g id="line2d_54">
      <path clip-path="url(#pbbafab1914)" d="M 1072.253003 599.75263 
L 1072.253003 12.23263 
" style="fill:none;stroke:#d3d3d3;stroke-linecap:square;stroke-width:0.8;"/>
     </g>
     <g id="line2d_55">
      <g>
       <use style="stroke:#000000;stroke-width:0.8;" x="1072.253003" xlink:href="#md146835dda" y="599.75263"/>
      </g>
     </g>
     <g id="text_28">
      <!-- 2021-05 -->
      <g transform="translate(1020.138254 645.213214)rotate(-30)scale(0.14 -0.14)">
       <use xlink:href="#DejaVuSans-50"/>
       <use x="63.623047" xlink:href="#DejaVuSans-48"/>
       <use x="127.246094" xlink:href="#DejaVuSans-50"/>
       <use x="190.869141" xlink:href="#DejaVuSans-49"/>
       <use x="254.492188" xlink:href="#DejaVuSans-45"/>
       <use x="290.576172" xlink:href="#DejaVuSans-48"/>
       <use x="354.199219" xlink:href="#DejaVuSans-53"/>
      </g>
     </g>
    </g>
    <g id="xtick_19">
     <g id="line2d_56">
      <path clip-path="url(#pbbafab1914)" d="M 1124.833524 599.75263 
L 1124.833524 12.23263 
" style="fill:none;stroke:#d3d3d3;stroke-linecap:square;stroke-width:0.8;"/>
     </g>
     <g id="line2d_57">
      <g>
       <use style="stroke:#000000;stroke-width:0.8;" x="1124.833524" xlink:href="#md146835dda" y="599.75263"/>
      </g>
     </g>
     <g id="text_29">
      <!-- 2021-07 -->
      <g transform="translate(1072.718775 645.213214)rotate(-30)scale(0.14 -0.14)">
       <use xlink:href="#DejaVuSans-50"/>
       <use x="63.623047" xlink:href="#DejaVuSans-48"/>
       <use x="127.246094" xlink:href="#DejaVuSans-50"/>
       <use x="190.869141" xlink:href="#DejaVuSans-49"/>
       <use x="254.492188" xlink:href="#DejaVuSans-45"/>
       <use x="290.576172" xlink:href="#DejaVuSans-48"/>
       <use x="354.199219" xlink:href="#DejaVuSans-55"/>
      </g>
     </g>
    </g>
    <g id="xtick_20">
     <g id="line2d_58">
      <path clip-path="url(#pbbafab1914)" d="M 1178.27602 599.75263 
L 1178.27602 12.23263 
" style="fill:none;stroke:#d3d3d3;stroke-linecap:square;stroke-width:0.8;"/>
     </g>
     <g id="line2d_59">
      <g>
       <use style="stroke:#000000;stroke-width:0.8;" x="1178.27602" xlink:href="#md146835dda" y="599.75263"/>
      </g>
     </g>
     <g id="text_30">
      <!-- 2021-09 -->
      <g transform="translate(1126.161271 645.213214)rotate(-30)scale(0.14 -0.14)">
       <use xlink:href="#DejaVuSans-50"/>
       <use x="63.623047" xlink:href="#DejaVuSans-48"/>
       <use x="127.246094" xlink:href="#DejaVuSans-50"/>
       <use x="190.869141" xlink:href="#DejaVuSans-49"/>
       <use x="254.492188" xlink:href="#DejaVuSans-45"/>
       <use x="290.576172" xlink:href="#DejaVuSans-48"/>
       <use x="354.199219" xlink:href="#DejaVuSans-57"/>
      </g>
     </g>
    </g>
   </g>
   <g id="matplotlib.axis_4">
    <g id="ytick_10">
     <g id="line2d_60">
      <path clip-path="url(#pbbafab1914)" d="M 698.371023 599.75263 
L 1205.64375 599.75263 
" style="fill:none;stroke:#d3d3d3;stroke-linecap:square;stroke-width:0.8;"/>
     </g>
     <g id="line2d_61">
      <g>
       <use style="stroke:#000000;stroke-width:0.8;" x="698.371023" xlink:href="#m469d2394ae" y="599.75263"/>
      </g>
     </g>
     <g id="text_31">
      <!-- 0 -->
      <g transform="translate(682.463523 605.071536)scale(0.14 -0.14)">
       <use xlink:href="#DejaVuSans-48"/>
      </g>
     </g>
    </g>
    <g id="ytick_11">
     <g id="line2d_62">
      <path clip-path="url(#pbbafab1914)" d="M 698.371023 526.348414 
L 1205.64375 526.348414 
" style="fill:none;stroke:#d3d3d3;stroke-linecap:square;stroke-width:0.8;"/>
     </g>
     <g id="line2d_63">
      <g>
       <use style="stroke:#000000;stroke-width:0.8;" x="698.371023" xlink:href="#m469d2394ae" y="526.348414"/>
      </g>
     </g>
     <g id="text_32">
      <!-- 2,000 -->
      <g transform="translate(651.291648 531.667321)scale(0.14 -0.14)">
       <use xlink:href="#DejaVuSans-50"/>
       <use x="63.623047" xlink:href="#DejaVuSans-44"/>
       <use x="95.410156" xlink:href="#DejaVuSans-48"/>
       <use x="159.033203" xlink:href="#DejaVuSans-48"/>
       <use x="222.65625" xlink:href="#DejaVuSans-48"/>
      </g>
     </g>
    </g>
    <g id="ytick_12">
     <g id="line2d_64">
      <path clip-path="url(#pbbafab1914)" d="M 698.371023 452.944199 
L 1205.64375 452.944199 
" style="fill:none;stroke:#d3d3d3;stroke-linecap:square;stroke-width:0.8;"/>
     </g>
     <g id="line2d_65">
      <g>
       <use style="stroke:#000000;stroke-width:0.8;" x="698.371023" xlink:href="#m469d2394ae" y="452.944199"/>
      </g>
     </g>
     <g id="text_33">
      <!-- 4,000 -->
      <g transform="translate(651.291648 458.263105)scale(0.14 -0.14)">
       <use xlink:href="#DejaVuSans-52"/>
       <use x="63.623047" xlink:href="#DejaVuSans-44"/>
       <use x="95.410156" xlink:href="#DejaVuSans-48"/>
       <use x="159.033203" xlink:href="#DejaVuSans-48"/>
       <use x="222.65625" xlink:href="#DejaVuSans-48"/>
      </g>
     </g>
    </g>
    <g id="ytick_13">
     <g id="line2d_66">
      <path clip-path="url(#pbbafab1914)" d="M 698.371023 379.539983 
L 1205.64375 379.539983 
" style="fill:none;stroke:#d3d3d3;stroke-linecap:square;stroke-width:0.8;"/>
     </g>
     <g id="line2d_67">
      <g>
       <use style="stroke:#000000;stroke-width:0.8;" x="698.371023" xlink:href="#m469d2394ae" y="379.539983"/>
      </g>
     </g>
     <g id="text_34">
      <!-- 6,000 -->
      <g transform="translate(651.291648 384.85889)scale(0.14 -0.14)">
       <use xlink:href="#DejaVuSans-54"/>
       <use x="63.623047" xlink:href="#DejaVuSans-44"/>
       <use x="95.410156" xlink:href="#DejaVuSans-48"/>
       <use x="159.033203" xlink:href="#DejaVuSans-48"/>
       <use x="222.65625" xlink:href="#DejaVuSans-48"/>
      </g>
     </g>
    </g>
    <g id="ytick_14">
     <g id="line2d_68">
      <path clip-path="url(#pbbafab1914)" d="M 698.371023 306.135768 
L 1205.64375 306.135768 
" style="fill:none;stroke:#d3d3d3;stroke-linecap:square;stroke-width:0.8;"/>
     </g>
     <g id="line2d_69">
      <g>
       <use style="stroke:#000000;stroke-width:0.8;" x="698.371023" xlink:href="#m469d2394ae" y="306.135768"/>
      </g>
     </g>
     <g id="text_35">
      <!-- 8,000 -->
      <g transform="translate(651.291648 311.454674)scale(0.14 -0.14)">
       <use xlink:href="#DejaVuSans-56"/>
       <use x="63.623047" xlink:href="#DejaVuSans-44"/>
       <use x="95.410156" xlink:href="#DejaVuSans-48"/>
       <use x="159.033203" xlink:href="#DejaVuSans-48"/>
       <use x="222.65625" xlink:href="#DejaVuSans-48"/>
      </g>
     </g>
    </g>
    <g id="ytick_15">
     <g id="line2d_70">
      <path clip-path="url(#pbbafab1914)" d="M 698.371023 232.731553 
L 1205.64375 232.731553 
" style="fill:none;stroke:#d3d3d3;stroke-linecap:square;stroke-width:0.8;"/>
     </g>
     <g id="line2d_71">
      <g>
       <use style="stroke:#000000;stroke-width:0.8;" x="698.371023" xlink:href="#m469d2394ae" y="232.731553"/>
      </g>
     </g>
     <g id="text_36">
      <!-- 10,000 -->
      <g transform="translate(642.384148 238.050459)scale(0.14 -0.14)">
       <use xlink:href="#DejaVuSans-49"/>
       <use x="63.623047" xlink:href="#DejaVuSans-48"/>
       <use x="127.246094" xlink:href="#DejaVuSans-44"/>
       <use x="159.033203" xlink:href="#DejaVuSans-48"/>
       <use x="222.65625" xlink:href="#DejaVuSans-48"/>
       <use x="286.279297" xlink:href="#DejaVuSans-48"/>
      </g>
     </g>
    </g>
    <g id="ytick_16">
     <g id="line2d_72">
      <path clip-path="url(#pbbafab1914)" d="M 698.371023 159.327337 
L 1205.64375 159.327337 
" style="fill:none;stroke:#d3d3d3;stroke-linecap:square;stroke-width:0.8;"/>
     </g>
     <g id="line2d_73">
      <g>
       <use style="stroke:#000000;stroke-width:0.8;" x="698.371023" xlink:href="#m469d2394ae" y="159.327337"/>
      </g>
     </g>
     <g id="text_37">
      <!-- 12,000 -->
      <g transform="translate(642.384148 164.646243)scale(0.14 -0.14)">
       <use xlink:href="#DejaVuSans-49"/>
       <use x="63.623047" xlink:href="#DejaVuSans-50"/>
       <use x="127.246094" xlink:href="#DejaVuSans-44"/>
       <use x="159.033203" xlink:href="#DejaVuSans-48"/>
       <use x="222.65625" xlink:href="#DejaVuSans-48"/>
       <use x="286.279297" xlink:href="#DejaVuSans-48"/>
      </g>
     </g>
    </g>
    <g id="ytick_17">
     <g id="line2d_74">
      <path clip-path="url(#pbbafab1914)" d="M 698.371023 85.923122 
L 1205.64375 85.923122 
" style="fill:none;stroke:#d3d3d3;stroke-linecap:square;stroke-width:0.8;"/>
     </g>
     <g id="line2d_75">
      <g>
       <use style="stroke:#000000;stroke-width:0.8;" x="698.371023" xlink:href="#m469d2394ae" y="85.923122"/>
      </g>
     </g>
     <g id="text_38">
      <!-- 14,000 -->
      <g transform="translate(642.384148 91.242028)scale(0.14 -0.14)">
       <use xlink:href="#DejaVuSans-49"/>
       <use x="63.623047" xlink:href="#DejaVuSans-52"/>
       <use x="127.246094" xlink:href="#DejaVuSans-44"/>
       <use x="159.033203" xlink:href="#DejaVuSans-48"/>
       <use x="222.65625" xlink:href="#DejaVuSans-48"/>
       <use x="286.279297" xlink:href="#DejaVuSans-48"/>
      </g>
     </g>
    </g>
    <g id="ytick_18">
     <g id="line2d_76">
      <path clip-path="url(#pbbafab1914)" d="M 698.371023 12.518906 
L 1205.64375 12.518906 
" style="fill:none;stroke:#d3d3d3;stroke-linecap:square;stroke-width:0.8;"/>
     </g>
     <g id="line2d_77">
      <g>
       <use style="stroke:#000000;stroke-width:0.8;" x="698.371023" xlink:href="#m469d2394ae" y="12.518906"/>
      </g>
     </g>
     <g id="text_39">
      <!-- 16,000 -->
      <g transform="translate(642.384148 17.837813)scale(0.14 -0.14)">
       <use xlink:href="#DejaVuSans-49"/>
       <use x="63.623047" xlink:href="#DejaVuSans-54"/>
       <use x="127.246094" xlink:href="#DejaVuSans-44"/>
       <use x="159.033203" xlink:href="#DejaVuSans-48"/>
       <use x="222.65625" xlink:href="#DejaVuSans-48"/>
       <use x="286.279297" xlink:href="#DejaVuSans-48"/>
      </g>
     </g>
    </g>
    <g id="text_40">
     <!-- Preprints -->
     <defs>
      <path d="M 19.671875 64.796875 
L 19.671875 37.40625 
L 32.078125 37.40625 
Q 38.96875 37.40625 42.71875 40.96875 
Q 46.484375 44.53125 46.484375 51.125 
Q 46.484375 57.671875 42.71875 61.234375 
Q 38.96875 64.796875 32.078125 64.796875 
z
M 9.8125 72.90625 
L 32.078125 72.90625 
Q 44.34375 72.90625 50.609375 67.359375 
Q 56.890625 61.8125 56.890625 51.125 
Q 56.890625 40.328125 50.609375 34.8125 
Q 44.34375 29.296875 32.078125 29.296875 
L 19.671875 29.296875 
L 19.671875 0 
L 9.8125 0 
z
" id="DejaVuSans-80"/>
      <path d="M 56.203125 29.59375 
L 56.203125 25.203125 
L 14.890625 25.203125 
Q 15.484375 15.921875 20.484375 11.0625 
Q 25.484375 6.203125 34.421875 6.203125 
Q 39.59375 6.203125 44.453125 7.46875 
Q 49.3125 8.734375 54.109375 11.28125 
L 54.109375 2.78125 
Q 49.265625 0.734375 44.1875 -0.34375 
Q 39.109375 -1.421875 33.890625 -1.421875 
Q 20.796875 -1.421875 13.15625 6.1875 
Q 5.515625 13.8125 5.515625 26.8125 
Q 5.515625 40.234375 12.765625 48.109375 
Q 20.015625 56 32.328125 56 
Q 43.359375 56 49.78125 48.890625 
Q 56.203125 41.796875 56.203125 29.59375 
z
M 47.21875 32.234375 
Q 47.125 39.59375 43.09375 43.984375 
Q 39.0625 48.390625 32.421875 48.390625 
Q 24.90625 48.390625 20.390625 44.140625 
Q 15.875 39.890625 15.1875 32.171875 
z
" id="DejaVuSans-101"/>
     </defs>
     <g transform="translate(635.472585 337.488255)rotate(-90)scale(0.14 -0.14)">
      <use xlink:href="#DejaVuSans-80"/>
      <use x="60.287109" xlink:href="#DejaVuSans-114"/>
      <use x="101.369141" xlink:href="#DejaVuSans-101"/>
      <use x="162.892578" xlink:href="#DejaVuSans-112"/>
      <use x="226.369141" xlink:href="#DejaVuSans-114"/>
      <use x="267.482422" xlink:href="#DejaVuSans-105"/>
      <use x="295.265625" xlink:href="#DejaVuSans-110"/>
      <use x="358.644531" xlink:href="#DejaVuSans-116"/>
      <use x="397.853516" xlink:href="#DejaVuSans-115"/>
     </g>
    </g>
   </g>
   <g id="line2d_78">
    <path clip-path="url(#pbbafab1914)" d="M 721.428874 593.219655 
L 727.462704 589.586146 
L 733.496534 584.998383 
L 739.530365 579.676577 
L 751.598025 570.537752 
L 757.631855 564.628713 
L 767.113589 557.398397 
L 773.147419 551.782975 
L 782.629152 543.85532 
L 784.353104 543.15798 
L 785.215079 542.093619 
L 786.939031 540.588832 
L 787.801007 539.744684 
L 790.386934 538.203195 
L 791.248909 537.102132 
L 792.972861 535.634048 
L 793.834837 534.45958 
L 794.696812 533.652134 
L 796.420764 533.0649 
L 797.28274 531.890433 
L 798.144715 530.97288 
L 799.006691 530.422348 
L 800.730643 528.807456 
L 802.454594 528.293626 
L 803.31657 527.66969 
L 804.178546 526.495223 
L 805.902497 525.027138 
L 806.764473 524.256394 
L 808.488424 523.522352 
L 810.212376 522.457991 
L 811.936327 520.806396 
L 812.798303 520.18246 
L 814.522255 519.191503 
L 815.38423 518.163844 
L 818.832133 515.227676 
L 819.694109 514.823953 
L 820.556085 514.60374 
L 821.418061 514.200017 
L 823.142012 512.51172 
L 826.589915 510.236189 
L 827.451891 509.355338 
L 828.313867 508.731403 
L 830.037818 506.969701 
L 830.899794 506.455872 
L 832.623745 505.611724 
L 835.209673 503.079278 
L 836.933624 501.280875 
L 838.657576 500.32662 
L 840.381527 498.711727 
L 841.243503 498.087791 
L 842.105479 497.243643 
L 842.967454 496.583005 
L 844.691406 496.252686 
L 845.553382 495.408538 
L 847.277333 494.05056 
L 848.139309 493.133007 
L 849.86326 492.288858 
L 850.725236 492.068646 
L 851.587212 491.371306 
L 853.311163 490.306945 
L 855.035115 488.875562 
L 855.897091 488.728754 
L 856.759066 488.398435 
L 859.344994 486.416521 
L 861.068945 484.728224 
L 863.654872 483.627161 
L 864.516848 483.039927 
L 865.378824 482.636204 
L 869.688702 479.95695 
L 870.550678 479.25961 
L 872.27463 477.571313 
L 875.722533 475.809612 
L 876.584508 475.442591 
L 877.446484 474.855357 
L 878.30846 474.011209 
L 879.170436 473.460677 
L 880.894387 472.910146 
L 881.756363 471.992593 
L 882.618339 471.295253 
L 883.480314 470.451104 
L 885.204266 469.643658 
L 886.066242 469.019722 
L 886.928217 468.615999 
L 891.238096 465.826639 
L 892.962048 465.276107 
L 897.271926 461.385684 
L 898.995878 460.468131 
L 900.719829 459.146855 
L 901.581805 458.779834 
L 902.443781 457.825579 
L 904.167732 456.981431 
L 905.029708 456.61441 
L 905.891684 455.843665 
L 906.75366 454.779304 
L 907.615635 454.192071 
L 909.339587 452.540476 
L 911.063538 451.806434 
L 911.925514 450.962285 
L 912.78749 449.82452 
L 916.235393 446.668138 
L 917.097369 446.264415 
L 917.959344 445.420267 
L 919.683296 444.466012 
L 920.545272 443.842076 
L 921.407247 443.03463 
L 923.131199 442.263886 
L 923.993175 441.603248 
L 928.303053 438.813887 
L 929.165029 438.520271 
L 930.888981 436.905378 
L 932.612932 435.804315 
L 934.336884 434.996868 
L 935.198859 434.886762 
L 936.060835 433.822401 
L 938.646762 432.0607 
L 940.370714 431.400062 
L 942.094665 430.188892 
L 943.818617 429.124531 
L 944.680593 428.133574 
L 945.542568 427.399532 
L 947.26652 426.885702 
L 948.990471 424.903789 
L 950.714423 423.325598 
L 951.576398 422.738364 
L 952.438374 422.371343 
L 955.886277 419.985706 
L 956.748253 419.214962 
L 957.610229 418.66443 
L 958.472204 418.370813 
L 959.33418 418.224005 
L 960.196156 417.563367 
L 961.058132 416.3889 
L 961.920107 415.728262 
L 962.782083 414.920815 
L 965.36801 414.076667 
L 966.229986 413.489433 
L 967.091962 413.159114 
L 969.677889 411.617626 
L 970.539865 411.213902 
L 971.401841 411.030392 
L 972.263816 410.333052 
L 973.125792 409.452201 
L 975.711719 408.020819 
L 977.435671 407.213373 
L 979.159622 405.488374 
L 980.021598 404.680927 
L 981.74555 403.50646 
L 983.469501 402.882524 
L 984.331477 402.258588 
L 985.193453 401.084121 
L 986.055428 400.239972 
L 986.917404 399.836249 
L 987.77938 399.285717 
L 989.503331 398.661782 
L 991.227283 397.193697 
L 992.089259 396.753272 
L 992.951234 395.615507 
L 993.81321 394.954869 
L 994.675186 394.661252 
L 995.537162 394.184124 
L 1001.570992 389.779872 
L 1007.604822 384.825087 
L 1019.672483 376.053283 
L 1025.706313 371.025094 
L 1037.773973 362.76712 
L 1049.841634 355.022976 
L 1067.943124 341.443196 
L 1080.010785 333.588945 
L 1086.044615 329.441606 
L 1098.112276 320.009165 
L 1110.179936 309.292149 
L 1122.247596 299.823006 
L 1128.281427 295.565561 
L 1134.315257 291.89535 
L 1140.349087 287.637906 
L 1146.382917 283.820887 
L 1152.416748 279.600144 
L 1158.450578 274.792168 
L 1167.070335 269.103341 
L 1170.518238 265.873556 
L 1176.552069 261.94643 
L 1182.585899 259.120368 
L 1182.585899 259.120368 
" style="fill:none;stroke:#1f77b4;stroke-linecap:square;stroke-width:3;"/>
   </g>
   <g id="line2d_79">
    <path clip-path="url(#pbbafab1914)" d="M 721.428874 578.355301 
L 727.462704 572.556368 
L 733.496534 563.160628 
L 739.530365 555.122867 
L 745.564195 544.662766 
L 751.598025 531.817028 
L 757.631855 520.402673 
L 767.113589 497.463856 
L 773.147419 486.086202 
L 779.181249 472.653231 
L 780.043225 466.634085 
L 780.905201 465.239405 
L 781.767176 464.688873 
L 782.629152 462.413343 
L 783.491128 460.651642 
L 784.353104 460.614939 
L 785.215079 459.807493 
L 786.077055 456.871324 
L 786.939031 454.632496 
L 787.801007 453.751645 
L 788.662982 450.448456 
L 789.524958 450.301647 
L 791.248909 447.805904 
L 792.110885 445.163352 
L 792.972861 445.089948 
L 793.834837 444.025587 
L 794.696812 439.914951 
L 795.558788 439.437823 
L 796.420764 438.373462 
L 797.28274 438.263356 
L 798.144715 435.584102 
L 799.006691 434.299528 
L 799.868667 433.418678 
L 801.592618 429.45485 
L 802.454594 429.381446 
L 803.31657 428.170276 
L 804.178546 425.674533 
L 805.040521 424.57347 
L 805.902497 424.243151 
L 806.764473 422.077726 
L 807.626449 422.041024 
L 808.488424 421.013365 
L 809.3504 418.66443 
L 810.212376 417.893686 
L 812.798303 414.847411 
L 813.660279 413.232518 
L 814.522255 412.865497 
L 815.38423 411.87454 
L 816.246206 409.966031 
L 817.108182 408.828265 
L 817.970158 408.424542 
L 818.832133 407.213373 
L 819.694109 405.011246 
L 821.418061 404.90114 
L 822.280036 402.552205 
L 823.142012 401.41444 
L 826.589915 396.239442 
L 827.451891 395.578805 
L 828.313867 394.404337 
L 829.175842 393.743699 
L 830.037818 393.596891 
L 830.899794 390.734126 
L 832.623745 388.091575 
L 833.485721 387.063916 
L 834.347697 386.329873 
L 835.209673 384.091045 
L 836.071648 382.586258 
L 836.933624 382.109131 
L 837.7956 380.934664 
L 838.657576 380.34743 
L 839.519551 380.310728 
L 840.381527 376.530411 
L 841.243503 376.383602 
L 842.967454 373.300625 
L 845.553382 373.190519 
L 846.415357 371.282009 
L 848.139309 369.593712 
L 849.001285 366.400629 
L 849.86326 365.37297 
L 850.725236 364.785736 
L 852.449188 363.134141 
L 853.311163 362.730418 
L 854.173139 362.546908 
L 855.897091 359.133612 
L 856.759066 358.656484 
L 857.621042 357.738931 
L 858.483018 356.234145 
L 859.344994 355.243188 
L 861.068945 355.09638 
L 863.654872 353.444785 
L 864.516848 350.214999 
L 865.378824 347.682554 
L 870.550678 342.801174 
L 872.27463 339.938409 
L 875.722533 336.194794 
L 876.584508 335.460752 
L 877.446484 335.203837 
L 878.30846 335.167135 
L 879.170436 330.799584 
L 880.032411 330.762882 
L 881.756363 330.249053 
L 882.618339 329.037883 
L 883.480314 326.615544 
L 884.34229 326.248523 
L 885.204266 324.523524 
L 886.066242 324.523524 
L 886.928217 323.716078 
L 889.514145 320.045867 
L 891.238096 319.091612 
L 892.100072 319.091612 
L 892.962048 318.430974 
L 893.824023 317.329911 
L 894.685999 315.861827 
L 895.547975 315.458103 
L 898.995878 314.540551 
L 900.719829 312.485233 
L 901.581805 310.466617 
L 903.305757 309.549064 
L 904.167732 309.549064 
L 905.029708 308.998532 
L 905.891684 308.96183 
L 906.75366 306.943214 
L 907.615635 305.438428 
L 908.477611 305.218215 
L 909.339587 303.896939 
L 910.201563 303.896939 
L 911.063538 303.529918 
L 911.925514 302.86928 
L 912.78749 299.492687 
L 913.649466 299.235772 
L 915.373417 298.391623 
L 916.235393 298.208113 
L 917.097369 297.841092 
L 917.959344 297.730985 
L 918.82132 295.638965 
L 919.683296 292.739499 
L 920.545272 292.188967 
L 921.407247 291.0145 
L 922.269223 290.280457 
L 923.131199 290.207053 
L 923.993175 289.840032 
L 925.717126 288.92248 
L 926.579102 287.527799 
L 927.441078 285.766098 
L 928.303053 285.729396 
L 929.165029 285.399077 
L 930.027005 283.674078 
L 930.888981 283.380461 
L 931.750956 281.325143 
L 932.612932 280.994824 
L 935.198859 279.673548 
L 936.060835 278.352272 
L 938.646762 276.92089 
L 939.508738 276.076742 
L 940.370714 275.489508 
L 942.094665 272.03951 
L 943.818617 270.718234 
L 944.680593 269.763979 
L 945.542568 267.928874 
L 947.26652 267.85547 
L 948.128496 266.277279 
L 949.852447 264.882599 
L 950.714423 264.845897 
L 951.576398 262.313451 
L 952.438374 262.240047 
L 955.886277 258.790049 
L 956.748253 258.349624 
L 957.610229 257.285263 
L 958.472204 256.441114 
L 959.33418 256.037391 
L 960.196156 256.000689 
L 961.058132 253.174627 
L 961.920107 252.770903 
L 962.782083 251.449628 
L 965.36801 250.421969 
L 967.091962 250.311862 
L 967.953938 249.834735 
L 968.815913 249.798033 
L 970.539865 248.623565 
L 971.401841 248.586863 
L 972.263816 246.017716 
L 973.125792 245.430482 
L 973.987768 244.109206 
L 974.849744 244.035802 
L 975.711719 242.494313 
L 976.573695 241.760271 
L 977.435671 241.686867 
L 978.297647 241.246442 
L 979.159622 240.549102 
L 980.021598 239.374634 
L 980.883574 239.264528 
L 981.74555 236.218253 
L 982.607525 235.961338 
L 985.193453 235.81453 
L 986.055428 232.878361 
L 986.917404 232.69485 
L 987.77938 231.740596 
L 989.503331 231.630489 
L 990.365307 230.345916 
L 991.227283 227.446449 
L 992.089259 226.93262 
L 992.951234 226.712407 
L 993.81321 224.987408 
L 994.675186 224.803897 
L 995.537162 223.996451 
L 1001.570992 216.876242 
L 1007.604822 212.398585 
L 1013.638652 205.498589 
L 1019.672483 199.846464 
L 1025.706313 192.726255 
L 1037.773973 177.604987 
L 1043.807803 167.768822 
L 1049.841634 163.474675 
L 1056.73744 156.684785 
L 1061.909294 151.436384 
L 1067.943124 143.765643 
L 1073.976955 137.232668 
L 1080.010785 131.727352 
L 1086.044615 125.744909 
L 1092.078445 118.80821 
L 1098.112276 113.486405 
L 1110.179936 102.549176 
L 1116.213766 98.585349 
L 1122.247596 91.795459 
L 1128.281427 86.730568 
L 1134.315257 78.5827 
L 1140.349087 73.994937 
L 1146.382917 65.920473 
L 1152.416748 60.928986 
L 1158.450578 56.194414 
L 1167.070335 50.175269 
L 1170.518238 48.560376 
L 1176.552069 43.091762 
L 1182.585899 39.898679 
L 1182.585899 39.898679 
" style="fill:none;stroke:#ff7f0e;stroke-linecap:square;stroke-width:3;"/>
   </g>
   <g id="line2d_80">
    <path clip-path="url(#pbbafab1914)" d="M 721.428874 591.971783 
L 727.462704 590.577103 
L 733.496534 588.558487 
L 739.530365 586.209552 
L 745.564195 583.38349 
L 751.598025 580.227109 
L 757.631855 577.694663 
L 767.113589 572.849985 
L 773.147419 568.849455 
L 780.905201 565.069138 
L 781.767176 564.114883 
L 782.629152 563.417543 
L 787.801007 560.9218 
L 788.662982 560.297864 
L 790.386934 560.077651 
L 791.248909 559.380311 
L 792.110885 558.976588 
L 792.972861 558.31595 
L 793.834837 557.802121 
L 794.696812 556.884568 
L 796.420764 556.297334 
L 797.28274 555.599994 
L 798.144715 554.645739 
L 799.006691 553.948399 
L 799.868667 553.43457 
L 800.730643 552.663826 
L 801.592618 552.186698 
L 803.31657 551.562762 
L 804.178546 550.82872 
L 805.902497 549.690955 
L 806.764473 549.213827 
L 808.488424 548.883509 
L 809.3504 548.222871 
L 810.212376 547.048403 
L 811.936327 545.727127 
L 814.522255 545.176596 
L 816.246206 544.112235 
L 817.108182 543.745213 
L 818.832133 542.64415 
L 820.556085 542.423938 
L 821.418061 541.836704 
L 822.280036 541.396279 
L 823.142012 540.662236 
L 826.589915 539.524471 
L 827.451891 538.827131 
L 829.175842 538.019685 
L 830.899794 536.698409 
L 832.623745 536.294686 
L 833.485721 535.597346 
L 834.347697 535.193622 
L 836.933624 533.505325 
L 838.657576 533.211709 
L 839.519551 532.807985 
L 841.243503 531.523412 
L 842.967454 530.752667 
L 844.691406 530.752667 
L 845.553382 530.018625 
L 846.415357 529.431391 
L 848.139309 528.587243 
L 849.001285 527.889903 
L 849.86326 527.743094 
L 852.449188 526.531925 
L 855.035115 525.137245 
L 856.759066 524.660117 
L 857.621042 524.146288 
L 858.483018 523.889373 
L 861.068945 522.347885 
L 864.516848 521.026609 
L 865.378824 520.586183 
L 870.550678 518.457461 
L 872.27463 517.429802 
L 875.722533 515.925016 
L 879.170436 514.310123 
L 880.894387 514.053208 
L 881.756363 513.465975 
L 884.34229 512.438316 
L 885.204266 511.99789 
L 886.928217 511.851082 
L 891.238096 509.685657 
L 892.962048 509.502147 
L 893.824023 509.355338 
L 897.271926 507.263318 
L 898.995878 507.079808 
L 900.719829 506.198957 
L 901.581805 505.428213 
L 902.443781 504.914383 
L 903.305757 504.253746 
L 905.029708 504.033533 
L 906.75366 503.079278 
L 909.339587 502.051619 
L 911.063538 501.831406 
L 913.649466 500.436726 
L 915.373417 499.592578 
L 917.097369 499.188855 
L 918.82132 498.014387 
L 919.683296 497.757472 
L 921.407247 496.472899 
L 922.269223 496.436197 
L 923.131199 496.215984 
L 923.993175 495.555346 
L 925.717126 494.858006 
L 926.579102 494.23407 
L 927.441078 493.903751 
L 928.303053 493.720241 
L 929.165029 493.683538 
L 931.750956 491.995242 
L 932.612932 491.921837 
L 934.336884 491.408008 
L 935.198859 491.371306 
L 938.646762 490.013328 
L 939.508738 489.719711 
L 940.370714 489.683009 
L 942.094665 489.095775 
L 943.818617 487.701095 
L 945.542568 486.636734 
L 947.26652 486.159606 
L 948.128496 485.645777 
L 948.990471 485.35216 
L 951.576398 483.994182 
L 952.438374 483.884076 
L 955.886277 482.379289 
L 956.748253 482.159077 
L 957.610229 481.314928 
L 958.472204 481.314928 
L 959.33418 480.947907 
L 961.058132 479.663333 
L 962.782083 478.709079 
L 965.36801 478.158547 
L 967.953938 476.690463 
L 969.677889 476.396846 
L 971.401841 476.103229 
L 972.263816 475.332485 
L 973.987768 474.304826 
L 975.711719 473.423975 
L 977.435671 473.350571 
L 978.297647 472.579827 
L 979.159622 472.322912 
L 980.883574 471.405359 
L 981.74555 470.928232 
L 983.469501 470.781423 
L 984.331477 470.267594 
L 985.193453 469.239935 
L 987.77938 468.065467 
L 988.641356 467.992063 
L 990.365307 467.368127 
L 991.227283 466.670787 
L 992.089259 465.789937 
L 992.951234 465.349511 
L 993.81321 465.055894 
L 994.675186 464.615469 
L 995.537162 464.542065 
L 1001.570992 461.165471 
L 1007.604822 458.88994 
L 1013.638652 455.550049 
L 1019.672483 452.760688 
L 1043.807803 439.0341 
L 1049.841634 436.354846 
L 1056.73744 432.574529 
L 1061.909294 430.959636 
L 1067.943124 428.463893 
L 1073.976955 424.646874 
L 1080.010785 421.160174 
L 1086.044615 418.297409 
L 1092.078445 414.517092 
L 1110.179936 405.08465 
L 1116.213766 402.148482 
L 1122.247596 399.652739 
L 1128.281427 396.973485 
L 1134.315257 394.074018 
L 1140.349087 391.541573 
L 1146.382917 388.678808 
L 1152.416748 386.256469 
L 1158.450578 383.173492 
L 1167.070335 378.512324 
L 1170.518238 377.080942 
L 1176.552069 374.364986 
L 1182.585899 372.529881 
L 1182.585899 372.529881 
" style="fill:none;stroke:#2ca02c;stroke-linecap:square;stroke-width:3;"/>
   </g>
   <g id="patch_6">
    <path d="M 698.371023 599.75263 
L 698.371023 12.23263 
" style="fill:none;stroke:#000000;stroke-linecap:square;stroke-linejoin:miter;stroke-width:0.8;"/>
   </g>
   <g id="patch_7">
    <path d="M 698.371023 599.75263 
L 1205.64375 599.75263 
" style="fill:none;stroke:#000000;stroke-linecap:square;stroke-linejoin:miter;stroke-width:0.8;"/>
   </g>
   <g id="legend_1">
    <g id="patch_8">
     <path d="M 708.171023 85.080755 
L 814.299773 85.080755 
Q 817.099773 85.080755 817.099773 82.280755 
L 817.099773 22.03263 
Q 817.099773 19.23263 814.299773 19.23263 
L 708.171023 19.23263 
Q 705.371023 19.23263 705.371023 22.03263 
L 705.371023 82.280755 
Q 705.371023 85.080755 708.171023 85.080755 
z
" style="fill:#ffffff;opacity:0.8;stroke:#cccccc;stroke-linejoin:miter;"/>
    </g>
    <g id="line2d_81">
     <path d="M 710.971023 30.570442 
L 738.971023 30.570442 
" style="fill:none;stroke:#1f77b4;stroke-linecap:square;stroke-width:3;"/>
    </g>
    <g id="line2d_82"/>
    <g id="text_41">
     <!-- arXiv -->
     <defs>
      <path d="M 6.296875 72.90625 
L 16.890625 72.90625 
L 35.015625 45.796875 
L 53.21875 72.90625 
L 63.8125 72.90625 
L 40.375 37.890625 
L 65.375 0 
L 54.78125 0 
L 34.28125 31 
L 13.625 0 
L 2.984375 0 
L 29 38.921875 
z
" id="DejaVuSans-88"/>
      <path d="M 2.984375 54.6875 
L 12.5 54.6875 
L 29.59375 8.796875 
L 46.6875 54.6875 
L 56.203125 54.6875 
L 35.6875 0 
L 23.484375 0 
z
" id="DejaVuSans-118"/>
     </defs>
     <g transform="translate(750.171023 35.470442)scale(0.14 -0.14)">
      <use xlink:href="#DejaVuSans-97"/>
      <use x="61.279297" xlink:href="#DejaVuSans-114"/>
      <use x="102.392578" xlink:href="#DejaVuSans-88"/>
      <use x="170.898438" xlink:href="#DejaVuSans-105"/>
      <use x="198.681641" xlink:href="#DejaVuSans-118"/>
     </g>
    </g>
    <g id="line2d_83">
     <path d="M 710.971023 51.119817 
L 738.971023 51.119817 
" style="fill:none;stroke:#ff7f0e;stroke-linecap:square;stroke-width:3;"/>
    </g>
    <g id="line2d_84"/>
    <g id="text_42">
     <!-- medRxiv -->
     <defs>
      <path d="M 45.40625 46.390625 
L 45.40625 75.984375 
L 54.390625 75.984375 
L 54.390625 0 
L 45.40625 0 
L 45.40625 8.203125 
Q 42.578125 3.328125 38.25 0.953125 
Q 33.9375 -1.421875 27.875 -1.421875 
Q 17.96875 -1.421875 11.734375 6.484375 
Q 5.515625 14.40625 5.515625 27.296875 
Q 5.515625 40.1875 11.734375 48.09375 
Q 17.96875 56 27.875 56 
Q 33.9375 56 38.25 53.625 
Q 42.578125 51.265625 45.40625 46.390625 
z
M 14.796875 27.296875 
Q 14.796875 17.390625 18.875 11.75 
Q 22.953125 6.109375 30.078125 6.109375 
Q 37.203125 6.109375 41.296875 11.75 
Q 45.40625 17.390625 45.40625 27.296875 
Q 45.40625 37.203125 41.296875 42.84375 
Q 37.203125 48.484375 30.078125 48.484375 
Q 22.953125 48.484375 18.875 42.84375 
Q 14.796875 37.203125 14.796875 27.296875 
z
" id="DejaVuSans-100"/>
      <path d="M 44.390625 34.1875 
Q 47.5625 33.109375 50.5625 29.59375 
Q 53.5625 26.078125 56.59375 19.921875 
L 66.609375 0 
L 56 0 
L 46.6875 18.703125 
Q 43.0625 26.03125 39.671875 28.421875 
Q 36.28125 30.8125 30.421875 30.8125 
L 19.671875 30.8125 
L 19.671875 0 
L 9.8125 0 
L 9.8125 72.90625 
L 32.078125 72.90625 
Q 44.578125 72.90625 50.734375 67.671875 
Q 56.890625 62.453125 56.890625 51.90625 
Q 56.890625 45.015625 53.6875 40.46875 
Q 50.484375 35.9375 44.390625 34.1875 
z
M 19.671875 64.796875 
L 19.671875 38.921875 
L 32.078125 38.921875 
Q 39.203125 38.921875 42.84375 42.21875 
Q 46.484375 45.515625 46.484375 51.90625 
Q 46.484375 58.296875 42.84375 61.546875 
Q 39.203125 64.796875 32.078125 64.796875 
z
" id="DejaVuSans-82"/>
      <path d="M 54.890625 54.6875 
L 35.109375 28.078125 
L 55.90625 0 
L 45.3125 0 
L 29.390625 21.484375 
L 13.484375 0 
L 2.875 0 
L 24.125 28.609375 
L 4.6875 54.6875 
L 15.28125 54.6875 
L 29.78125 35.203125 
L 44.28125 54.6875 
z
" id="DejaVuSans-120"/>
     </defs>
     <g transform="translate(750.171023 56.019817)scale(0.14 -0.14)">
      <use xlink:href="#DejaVuSans-109"/>
      <use x="97.412109" xlink:href="#DejaVuSans-101"/>
      <use x="158.935547" xlink:href="#DejaVuSans-100"/>
      <use x="222.412109" xlink:href="#DejaVuSans-82"/>
      <use x="291.894531" xlink:href="#DejaVuSans-120"/>
      <use x="351.074219" xlink:href="#DejaVuSans-105"/>
      <use x="378.857422" xlink:href="#DejaVuSans-118"/>
     </g>
    </g>
    <g id="line2d_85">
     <path d="M 710.971023 71.669192 
L 738.971023 71.669192 
" style="fill:none;stroke:#2ca02c;stroke-linecap:square;stroke-width:3;"/>
    </g>
    <g id="line2d_86"/>
    <g id="text_43">
     <!-- bioRxiv -->
     <defs>
      <path d="M 48.6875 27.296875 
Q 48.6875 37.203125 44.609375 42.84375 
Q 40.53125 48.484375 33.40625 48.484375 
Q 26.265625 48.484375 22.1875 42.84375 
Q 18.109375 37.203125 18.109375 27.296875 
Q 18.109375 17.390625 22.1875 11.75 
Q 26.265625 6.109375 33.40625 6.109375 
Q 40.53125 6.109375 44.609375 11.75 
Q 48.6875 17.390625 48.6875 27.296875 
z
M 18.109375 46.390625 
Q 20.953125 51.265625 25.265625 53.625 
Q 29.59375 56 35.59375 56 
Q 45.5625 56 51.78125 48.09375 
Q 58.015625 40.1875 58.015625 27.296875 
Q 58.015625 14.40625 51.78125 6.484375 
Q 45.5625 -1.421875 35.59375 -1.421875 
Q 29.59375 -1.421875 25.265625 0.953125 
Q 20.953125 3.328125 18.109375 8.203125 
L 18.109375 0 
L 9.078125 0 
L 9.078125 75.984375 
L 18.109375 75.984375 
z
" id="DejaVuSans-98"/>
     </defs>
     <g transform="translate(750.171023 76.569192)scale(0.14 -0.14)">
      <use xlink:href="#DejaVuSans-98"/>
      <use x="63.476562" xlink:href="#DejaVuSans-105"/>
      <use x="91.259766" xlink:href="#DejaVuSans-111"/>
      <use x="152.441406" xlink:href="#DejaVuSans-82"/>
      <use x="221.923828" xlink:href="#DejaVuSans-120"/>
      <use x="281.103516" xlink:href="#DejaVuSans-105"/>
      <use x="308.886719" xlink:href="#DejaVuSans-118"/>
     </g>
    </g>
   </g>
  </g>
 </g>
 <defs>
  <clipPath id="p8f814ef81f">
   <rect height="587.52" width="507.272727" x="89.64375" y="12.23263"/>
  </clipPath>
  <clipPath id="pbbafab1914">
   <rect height="587.52" width="507.272727" x="698.371023" y="12.23263"/>
  </clipPath>
 </defs>
</svg>
