<?xml version="1.0" encoding="utf-8" standalone="no"?>
<!DOCTYPE svg PUBLIC "-//W3C//DTD SVG 1.1//EN"
  "http://www.w3.org/Graphics/SVG/1.1/DTD/svg11.dtd">
<!-- Created with matplotlib (https://matplotlib.org/) -->
<svg height="679.17498pt" version="1.1" viewBox="0 0 840.3725 679.17498" width="840.3725pt" xmlns="http://www.w3.org/2000/svg" xmlns:xlink="http://www.w3.org/1999/xlink">
 <defs>
  <style type="text/css">
*{stroke-linecap:butt;stroke-linejoin:round;}
  </style>
 </defs>
 <g id="figure_1">
  <g id="patch_1">
   <path d="M -0 679.17498 
L 840.3725 679.17498 
L 840.3725 0 
L -0 0 
z
" style="fill:#ffffff;"/>
  </g>
  <g id="axes_1">
   <g id="patch_2">
    <path d="M 163.5725 274.254545 
L 833.1725 274.254545 
L 833.1725 7.2 
L 163.5725 7.2 
z
" style="fill:#ffffff;"/>
   </g>
   <g id="matplotlib.axis_1">
    <g id="xtick_1">
     <g id="line2d_1">
      <path clip-path="url(#p33684231c6)" d="M 203.866795 274.254545 
L 203.866795 7.2 
" style="fill:none;stroke:#d3d3d3;stroke-linecap:square;stroke-width:0.8;"/>
     </g>
     <g id="line2d_2">
      <defs>
       <path d="M 0 0 
L 0 3.5 
" id="m4f87664463" style="stroke:#000000;stroke-width:0.8;"/>
      </defs>
      <g>
       <use style="stroke:#000000;stroke-width:0.8;" x="203.866795" xlink:href="#m4f87664463" y="274.254545"/>
      </g>
     </g>
    </g>
    <g id="xtick_2">
     <g id="line2d_3">
      <path clip-path="url(#p33684231c6)" d="M 278.622776 274.254545 
L 278.622776 7.2 
" style="fill:none;stroke:#d3d3d3;stroke-linecap:square;stroke-width:0.8;"/>
     </g>
     <g id="line2d_4">
      <g>
       <use style="stroke:#000000;stroke-width:0.8;" x="278.622776" xlink:href="#m4f87664463" y="274.254545"/>
      </g>
     </g>
    </g>
    <g id="xtick_3">
     <g id="line2d_5">
      <path clip-path="url(#p33684231c6)" d="M 354.200251 274.254545 
L 354.200251 7.2 
" style="fill:none;stroke:#d3d3d3;stroke-linecap:square;stroke-width:0.8;"/>
     </g>
     <g id="line2d_6">
      <g>
       <use style="stroke:#000000;stroke-width:0.8;" x="354.200251" xlink:href="#m4f87664463" y="274.254545"/>
      </g>
     </g>
    </g>
    <g id="xtick_4">
     <g id="line2d_7">
      <path clip-path="url(#p33684231c6)" d="M 429.777726 274.254545 
L 429.777726 7.2 
" style="fill:none;stroke:#d3d3d3;stroke-linecap:square;stroke-width:0.8;"/>
     </g>
     <g id="line2d_8">
      <g>
       <use style="stroke:#000000;stroke-width:0.8;" x="429.777726" xlink:href="#m4f87664463" y="274.254545"/>
      </g>
     </g>
    </g>
    <g id="xtick_5">
     <g id="line2d_9">
      <path clip-path="url(#p33684231c6)" d="M 503.712213 274.254545 
L 503.712213 7.2 
" style="fill:none;stroke:#d3d3d3;stroke-linecap:square;stroke-width:0.8;"/>
     </g>
     <g id="line2d_10">
      <g>
       <use style="stroke:#000000;stroke-width:0.8;" x="503.712213" xlink:href="#m4f87664463" y="274.254545"/>
      </g>
     </g>
    </g>
    <g id="xtick_6">
     <g id="line2d_11">
      <path clip-path="url(#p33684231c6)" d="M 578.468194 274.254545 
L 578.468194 7.2 
" style="fill:none;stroke:#d3d3d3;stroke-linecap:square;stroke-width:0.8;"/>
     </g>
     <g id="line2d_12">
      <g>
       <use style="stroke:#000000;stroke-width:0.8;" x="578.468194" xlink:href="#m4f87664463" y="274.254545"/>
      </g>
     </g>
    </g>
    <g id="xtick_7">
     <g id="line2d_13">
      <path clip-path="url(#p33684231c6)" d="M 654.045669 274.254545 
L 654.045669 7.2 
" style="fill:none;stroke:#d3d3d3;stroke-linecap:square;stroke-width:0.8;"/>
     </g>
     <g id="line2d_14">
      <g>
       <use style="stroke:#000000;stroke-width:0.8;" x="654.045669" xlink:href="#m4f87664463" y="274.254545"/>
      </g>
     </g>
    </g>
    <g id="xtick_8">
     <g id="line2d_15">
      <path clip-path="url(#p33684231c6)" d="M 729.623144 274.254545 
L 729.623144 7.2 
" style="fill:none;stroke:#d3d3d3;stroke-linecap:square;stroke-width:0.8;"/>
     </g>
     <g id="line2d_16">
      <g>
       <use style="stroke:#000000;stroke-width:0.8;" x="729.623144" xlink:href="#m4f87664463" y="274.254545"/>
      </g>
     </g>
    </g>
    <g id="xtick_9">
     <g id="line2d_17">
      <path clip-path="url(#p33684231c6)" d="M 803.557631 274.254545 
L 803.557631 7.2 
" style="fill:none;stroke:#d3d3d3;stroke-linecap:square;stroke-width:0.8;"/>
     </g>
     <g id="line2d_18">
      <g>
       <use style="stroke:#000000;stroke-width:0.8;" x="803.557631" xlink:href="#m4f87664463" y="274.254545"/>
      </g>
     </g>
    </g>
   </g>
   <g id="matplotlib.axis_2">
    <g id="ytick_1">
     <g id="line2d_19">
      <path clip-path="url(#p33684231c6)" d="M 163.5725 274.254545 
L 833.1725 274.254545 
" style="fill:none;stroke:#d3d3d3;stroke-linecap:square;stroke-width:0.8;"/>
     </g>
     <g id="line2d_20">
      <defs>
       <path d="M 0 0 
L -3.5 0 
" id="ma3b018ac2d" style="stroke:#000000;stroke-width:0.8;"/>
      </defs>
      <g>
       <use style="stroke:#000000;stroke-width:0.8;" x="163.5725" xlink:href="#ma3b018ac2d" y="274.254545"/>
      </g>
     </g>
     <g id="text_1">
      <!-- 0 -->
      <defs>
       <path d="M 31.78125 66.40625 
Q 24.171875 66.40625 20.328125 58.90625 
Q 16.5 51.421875 16.5 36.375 
Q 16.5 21.390625 20.328125 13.890625 
Q 24.171875 6.390625 31.78125 6.390625 
Q 39.453125 6.390625 43.28125 13.890625 
Q 47.125 21.390625 47.125 36.375 
Q 47.125 51.421875 43.28125 58.90625 
Q 39.453125 66.40625 31.78125 66.40625 
z
M 31.78125 74.21875 
Q 44.046875 74.21875 50.515625 64.515625 
Q 56.984375 54.828125 56.984375 36.375 
Q 56.984375 17.96875 50.515625 8.265625 
Q 44.046875 -1.421875 31.78125 -1.421875 
Q 19.53125 -1.421875 13.0625 8.265625 
Q 6.59375 17.96875 6.59375 36.375 
Q 6.59375 54.828125 13.0625 64.515625 
Q 19.53125 74.21875 31.78125 74.21875 
z
" id="DejaVuSans-48"/>
      </defs>
      <g transform="translate(141.3025 283.37267)scale(0.24 -0.24)">
       <use xlink:href="#DejaVuSans-48"/>
      </g>
     </g>
    </g>
    <g id="ytick_2">
     <g id="line2d_21">
      <path clip-path="url(#p33684231c6)" d="M 163.5725 210.080712 
L 833.1725 210.080712 
" style="fill:none;stroke:#d3d3d3;stroke-linecap:square;stroke-width:0.8;"/>
     </g>
     <g id="line2d_22">
      <g>
       <use style="stroke:#000000;stroke-width:0.8;" x="163.5725" xlink:href="#ma3b018ac2d" y="210.080712"/>
      </g>
     </g>
     <g id="text_2">
      <!-- 250,000 -->
      <defs>
       <path d="M 19.1875 8.296875 
L 53.609375 8.296875 
L 53.609375 0 
L 7.328125 0 
L 7.328125 8.296875 
Q 12.9375 14.109375 22.625 23.890625 
Q 32.328125 33.6875 34.8125 36.53125 
Q 39.546875 41.84375 41.421875 45.53125 
Q 43.3125 49.21875 43.3125 52.78125 
Q 43.3125 58.59375 39.234375 62.25 
Q 35.15625 65.921875 28.609375 65.921875 
Q 23.96875 65.921875 18.8125 64.3125 
Q 13.671875 62.703125 7.8125 59.421875 
L 7.8125 69.390625 
Q 13.765625 71.78125 18.9375 73 
Q 24.125 74.21875 28.421875 74.21875 
Q 39.75 74.21875 46.484375 68.546875 
Q 53.21875 62.890625 53.21875 53.421875 
Q 53.21875 48.921875 51.53125 44.890625 
Q 49.859375 40.875 45.40625 35.40625 
Q 44.1875 33.984375 37.640625 27.21875 
Q 31.109375 20.453125 19.1875 8.296875 
z
" id="DejaVuSans-50"/>
       <path d="M 10.796875 72.90625 
L 49.515625 72.90625 
L 49.515625 64.59375 
L 19.828125 64.59375 
L 19.828125 46.734375 
Q 21.96875 47.46875 24.109375 47.828125 
Q 26.265625 48.1875 28.421875 48.1875 
Q 40.625 48.1875 47.75 41.5 
Q 54.890625 34.8125 54.890625 23.390625 
Q 54.890625 11.625 47.5625 5.09375 
Q 40.234375 -1.421875 26.90625 -1.421875 
Q 22.3125 -1.421875 17.546875 -0.640625 
Q 12.796875 0.140625 7.71875 1.703125 
L 7.71875 11.625 
Q 12.109375 9.234375 16.796875 8.0625 
Q 21.484375 6.890625 26.703125 6.890625 
Q 35.15625 6.890625 40.078125 11.328125 
Q 45.015625 15.765625 45.015625 23.390625 
Q 45.015625 31 40.078125 35.4375 
Q 35.15625 39.890625 26.703125 39.890625 
Q 22.75 39.890625 18.8125 39.015625 
Q 14.890625 38.140625 10.796875 36.28125 
z
" id="DejaVuSans-53"/>
       <path d="M 11.71875 12.40625 
L 22.015625 12.40625 
L 22.015625 4 
L 14.015625 -11.625 
L 7.71875 -11.625 
L 11.71875 4 
z
" id="DejaVuSans-44"/>
      </defs>
      <g transform="translate(57.325 219.198837)scale(0.24 -0.24)">
       <use xlink:href="#DejaVuSans-50"/>
       <use x="63.623047" xlink:href="#DejaVuSans-53"/>
       <use x="127.246094" xlink:href="#DejaVuSans-48"/>
       <use x="190.869141" xlink:href="#DejaVuSans-44"/>
       <use x="222.65625" xlink:href="#DejaVuSans-48"/>
       <use x="286.279297" xlink:href="#DejaVuSans-48"/>
       <use x="349.902344" xlink:href="#DejaVuSans-48"/>
      </g>
     </g>
    </g>
    <g id="ytick_3">
     <g id="line2d_23">
      <path clip-path="url(#p33684231c6)" d="M 163.5725 145.906878 
L 833.1725 145.906878 
" style="fill:none;stroke:#d3d3d3;stroke-linecap:square;stroke-width:0.8;"/>
     </g>
     <g id="line2d_24">
      <g>
       <use style="stroke:#000000;stroke-width:0.8;" x="163.5725" xlink:href="#ma3b018ac2d" y="145.906878"/>
      </g>
     </g>
     <g id="text_3">
      <!-- 500,000 -->
      <g transform="translate(57.325 155.025003)scale(0.24 -0.24)">
       <use xlink:href="#DejaVuSans-53"/>
       <use x="63.623047" xlink:href="#DejaVuSans-48"/>
       <use x="127.246094" xlink:href="#DejaVuSans-48"/>
       <use x="190.869141" xlink:href="#DejaVuSans-44"/>
       <use x="222.65625" xlink:href="#DejaVuSans-48"/>
       <use x="286.279297" xlink:href="#DejaVuSans-48"/>
       <use x="349.902344" xlink:href="#DejaVuSans-48"/>
      </g>
     </g>
    </g>
    <g id="ytick_4">
     <g id="line2d_25">
      <path clip-path="url(#p33684231c6)" d="M 163.5725 81.733044 
L 833.1725 81.733044 
" style="fill:none;stroke:#d3d3d3;stroke-linecap:square;stroke-width:0.8;"/>
     </g>
     <g id="line2d_26">
      <g>
       <use style="stroke:#000000;stroke-width:0.8;" x="163.5725" xlink:href="#ma3b018ac2d" y="81.733044"/>
      </g>
     </g>
     <g id="text_4">
      <!-- 750,000 -->
      <defs>
       <path d="M 8.203125 72.90625 
L 55.078125 72.90625 
L 55.078125 68.703125 
L 28.609375 0 
L 18.3125 0 
L 43.21875 64.59375 
L 8.203125 64.59375 
z
" id="DejaVuSans-55"/>
      </defs>
      <g transform="translate(57.325 90.851169)scale(0.24 -0.24)">
       <use xlink:href="#DejaVuSans-55"/>
       <use x="63.623047" xlink:href="#DejaVuSans-53"/>
       <use x="127.246094" xlink:href="#DejaVuSans-48"/>
       <use x="190.869141" xlink:href="#DejaVuSans-44"/>
       <use x="222.65625" xlink:href="#DejaVuSans-48"/>
       <use x="286.279297" xlink:href="#DejaVuSans-48"/>
       <use x="349.902344" xlink:href="#DejaVuSans-48"/>
      </g>
     </g>
    </g>
    <g id="ytick_5">
     <g id="line2d_27">
      <path clip-path="url(#p33684231c6)" d="M 163.5725 17.55921 
L 833.1725 17.55921 
" style="fill:none;stroke:#d3d3d3;stroke-linecap:square;stroke-width:0.8;"/>
     </g>
     <g id="line2d_28">
      <g>
       <use style="stroke:#000000;stroke-width:0.8;" x="163.5725" xlink:href="#ma3b018ac2d" y="17.55921"/>
      </g>
     </g>
     <g id="text_5">
      <!-- 1,000,000 -->
      <defs>
       <path d="M 12.40625 8.296875 
L 28.515625 8.296875 
L 28.515625 63.921875 
L 10.984375 60.40625 
L 10.984375 69.390625 
L 28.421875 72.90625 
L 38.28125 72.90625 
L 38.28125 8.296875 
L 54.390625 8.296875 
L 54.390625 0 
L 12.40625 0 
z
" id="DejaVuSans-49"/>
      </defs>
      <g transform="translate(34.4275 26.677335)scale(0.24 -0.24)">
       <use xlink:href="#DejaVuSans-49"/>
       <use x="63.623047" xlink:href="#DejaVuSans-44"/>
       <use x="95.410156" xlink:href="#DejaVuSans-48"/>
       <use x="159.033203" xlink:href="#DejaVuSans-48"/>
       <use x="222.65625" xlink:href="#DejaVuSans-48"/>
       <use x="286.279297" xlink:href="#DejaVuSans-44"/>
       <use x="318.066406" xlink:href="#DejaVuSans-48"/>
       <use x="381.689453" xlink:href="#DejaVuSans-48"/>
       <use x="445.3125" xlink:href="#DejaVuSans-48"/>
      </g>
     </g>
    </g>
    <g id="text_6">
     <!-- Total manuscripts -->
     <defs>
      <path d="M -0.296875 72.90625 
L 61.375 72.90625 
L 61.375 64.59375 
L 35.5 64.59375 
L 35.5 0 
L 25.59375 0 
L 25.59375 64.59375 
L -0.296875 64.59375 
z
" id="DejaVuSans-84"/>
      <path d="M 30.609375 48.390625 
Q 23.390625 48.390625 19.1875 42.75 
Q 14.984375 37.109375 14.984375 27.296875 
Q 14.984375 17.484375 19.15625 11.84375 
Q 23.34375 6.203125 30.609375 6.203125 
Q 37.796875 6.203125 41.984375 11.859375 
Q 46.1875 17.53125 46.1875 27.296875 
Q 46.1875 37.015625 41.984375 42.703125 
Q 37.796875 48.390625 30.609375 48.390625 
z
M 30.609375 56 
Q 42.328125 56 49.015625 48.375 
Q 55.71875 40.765625 55.71875 27.296875 
Q 55.71875 13.875 49.015625 6.21875 
Q 42.328125 -1.421875 30.609375 -1.421875 
Q 18.84375 -1.421875 12.171875 6.21875 
Q 5.515625 13.875 5.515625 27.296875 
Q 5.515625 40.765625 12.171875 48.375 
Q 18.84375 56 30.609375 56 
z
" id="DejaVuSans-111"/>
      <path d="M 18.3125 70.21875 
L 18.3125 54.6875 
L 36.8125 54.6875 
L 36.8125 47.703125 
L 18.3125 47.703125 
L 18.3125 18.015625 
Q 18.3125 11.328125 20.140625 9.421875 
Q 21.96875 7.515625 27.59375 7.515625 
L 36.8125 7.515625 
L 36.8125 0 
L 27.59375 0 
Q 17.1875 0 13.234375 3.875 
Q 9.28125 7.765625 9.28125 18.015625 
L 9.28125 47.703125 
L 2.6875 47.703125 
L 2.6875 54.6875 
L 9.28125 54.6875 
L 9.28125 70.21875 
z
" id="DejaVuSans-116"/>
      <path d="M 34.28125 27.484375 
Q 23.390625 27.484375 19.1875 25 
Q 14.984375 22.515625 14.984375 16.5 
Q 14.984375 11.71875 18.140625 8.90625 
Q 21.296875 6.109375 26.703125 6.109375 
Q 34.1875 6.109375 38.703125 11.40625 
Q 43.21875 16.703125 43.21875 25.484375 
L 43.21875 27.484375 
z
M 52.203125 31.203125 
L 52.203125 0 
L 43.21875 0 
L 43.21875 8.296875 
Q 40.140625 3.328125 35.546875 0.953125 
Q 30.953125 -1.421875 24.3125 -1.421875 
Q 15.921875 -1.421875 10.953125 3.296875 
Q 6 8.015625 6 15.921875 
Q 6 25.140625 12.171875 29.828125 
Q 18.359375 34.515625 30.609375 34.515625 
L 43.21875 34.515625 
L 43.21875 35.40625 
Q 43.21875 41.609375 39.140625 45 
Q 35.0625 48.390625 27.6875 48.390625 
Q 23 48.390625 18.546875 47.265625 
Q 14.109375 46.140625 10.015625 43.890625 
L 10.015625 52.203125 
Q 14.9375 54.109375 19.578125 55.046875 
Q 24.21875 56 28.609375 56 
Q 40.484375 56 46.34375 49.84375 
Q 52.203125 43.703125 52.203125 31.203125 
z
" id="DejaVuSans-97"/>
      <path d="M 9.421875 75.984375 
L 18.40625 75.984375 
L 18.40625 0 
L 9.421875 0 
z
" id="DejaVuSans-108"/>
      <path id="DejaVuSans-32"/>
      <path d="M 52 44.1875 
Q 55.375 50.25 60.0625 53.125 
Q 64.75 56 71.09375 56 
Q 79.640625 56 84.28125 50.015625 
Q 88.921875 44.046875 88.921875 33.015625 
L 88.921875 0 
L 79.890625 0 
L 79.890625 32.71875 
Q 79.890625 40.578125 77.09375 44.375 
Q 74.3125 48.1875 68.609375 48.1875 
Q 61.625 48.1875 57.5625 43.546875 
Q 53.515625 38.921875 53.515625 30.90625 
L 53.515625 0 
L 44.484375 0 
L 44.484375 32.71875 
Q 44.484375 40.625 41.703125 44.40625 
Q 38.921875 48.1875 33.109375 48.1875 
Q 26.21875 48.1875 22.15625 43.53125 
Q 18.109375 38.875 18.109375 30.90625 
L 18.109375 0 
L 9.078125 0 
L 9.078125 54.6875 
L 18.109375 54.6875 
L 18.109375 46.1875 
Q 21.1875 51.21875 25.484375 53.609375 
Q 29.78125 56 35.6875 56 
Q 41.65625 56 45.828125 52.96875 
Q 50 49.953125 52 44.1875 
z
" id="DejaVuSans-109"/>
      <path d="M 54.890625 33.015625 
L 54.890625 0 
L 45.90625 0 
L 45.90625 32.71875 
Q 45.90625 40.484375 42.875 44.328125 
Q 39.84375 48.1875 33.796875 48.1875 
Q 26.515625 48.1875 22.3125 43.546875 
Q 18.109375 38.921875 18.109375 30.90625 
L 18.109375 0 
L 9.078125 0 
L 9.078125 54.6875 
L 18.109375 54.6875 
L 18.109375 46.1875 
Q 21.34375 51.125 25.703125 53.5625 
Q 30.078125 56 35.796875 56 
Q 45.21875 56 50.046875 50.171875 
Q 54.890625 44.34375 54.890625 33.015625 
z
" id="DejaVuSans-110"/>
      <path d="M 8.5 21.578125 
L 8.5 54.6875 
L 17.484375 54.6875 
L 17.484375 21.921875 
Q 17.484375 14.15625 20.5 10.265625 
Q 23.53125 6.390625 29.59375 6.390625 
Q 36.859375 6.390625 41.078125 11.03125 
Q 45.3125 15.671875 45.3125 23.6875 
L 45.3125 54.6875 
L 54.296875 54.6875 
L 54.296875 0 
L 45.3125 0 
L 45.3125 8.40625 
Q 42.046875 3.421875 37.71875 1 
Q 33.40625 -1.421875 27.6875 -1.421875 
Q 18.265625 -1.421875 13.375 4.4375 
Q 8.5 10.296875 8.5 21.578125 
z
M 31.109375 56 
z
" id="DejaVuSans-117"/>
      <path d="M 44.28125 53.078125 
L 44.28125 44.578125 
Q 40.484375 46.53125 36.375 47.5 
Q 32.28125 48.484375 27.875 48.484375 
Q 21.1875 48.484375 17.84375 46.4375 
Q 14.5 44.390625 14.5 40.28125 
Q 14.5 37.15625 16.890625 35.375 
Q 19.28125 33.59375 26.515625 31.984375 
L 29.59375 31.296875 
Q 39.15625 29.25 43.1875 25.515625 
Q 47.21875 21.78125 47.21875 15.09375 
Q 47.21875 7.46875 41.1875 3.015625 
Q 35.15625 -1.421875 24.609375 -1.421875 
Q 20.21875 -1.421875 15.453125 -0.5625 
Q 10.6875 0.296875 5.421875 2 
L 5.421875 11.28125 
Q 10.40625 8.6875 15.234375 7.390625 
Q 20.0625 6.109375 24.8125 6.109375 
Q 31.15625 6.109375 34.5625 8.28125 
Q 37.984375 10.453125 37.984375 14.40625 
Q 37.984375 18.0625 35.515625 20.015625 
Q 33.0625 21.96875 24.703125 23.78125 
L 21.578125 24.515625 
Q 13.234375 26.265625 9.515625 29.90625 
Q 5.8125 33.546875 5.8125 39.890625 
Q 5.8125 47.609375 11.28125 51.796875 
Q 16.75 56 26.8125 56 
Q 31.78125 56 36.171875 55.265625 
Q 40.578125 54.546875 44.28125 53.078125 
z
" id="DejaVuSans-115"/>
      <path d="M 48.78125 52.59375 
L 48.78125 44.1875 
Q 44.96875 46.296875 41.140625 47.34375 
Q 37.3125 48.390625 33.40625 48.390625 
Q 24.65625 48.390625 19.8125 42.84375 
Q 14.984375 37.3125 14.984375 27.296875 
Q 14.984375 17.28125 19.8125 11.734375 
Q 24.65625 6.203125 33.40625 6.203125 
Q 37.3125 6.203125 41.140625 7.25 
Q 44.96875 8.296875 48.78125 10.40625 
L 48.78125 2.09375 
Q 45.015625 0.34375 40.984375 -0.53125 
Q 36.96875 -1.421875 32.421875 -1.421875 
Q 20.0625 -1.421875 12.78125 6.34375 
Q 5.515625 14.109375 5.515625 27.296875 
Q 5.515625 40.671875 12.859375 48.328125 
Q 20.21875 56 33.015625 56 
Q 37.15625 56 41.109375 55.140625 
Q 45.0625 54.296875 48.78125 52.59375 
z
" id="DejaVuSans-99"/>
      <path d="M 41.109375 46.296875 
Q 39.59375 47.171875 37.8125 47.578125 
Q 36.03125 48 33.890625 48 
Q 26.265625 48 22.1875 43.046875 
Q 18.109375 38.09375 18.109375 28.8125 
L 18.109375 0 
L 9.078125 0 
L 9.078125 54.6875 
L 18.109375 54.6875 
L 18.109375 46.1875 
Q 20.953125 51.171875 25.484375 53.578125 
Q 30.03125 56 36.53125 56 
Q 37.453125 56 38.578125 55.875 
Q 39.703125 55.765625 41.0625 55.515625 
z
" id="DejaVuSans-114"/>
      <path d="M 9.421875 54.6875 
L 18.40625 54.6875 
L 18.40625 0 
L 9.421875 0 
z
M 9.421875 75.984375 
L 18.40625 75.984375 
L 18.40625 64.59375 
L 9.421875 64.59375 
z
" id="DejaVuSans-105"/>
      <path d="M 18.109375 8.203125 
L 18.109375 -20.796875 
L 9.078125 -20.796875 
L 9.078125 54.6875 
L 18.109375 54.6875 
L 18.109375 46.390625 
Q 20.953125 51.265625 25.265625 53.625 
Q 29.59375 56 35.59375 56 
Q 45.5625 56 51.78125 48.09375 
Q 58.015625 40.1875 58.015625 27.296875 
Q 58.015625 14.40625 51.78125 6.484375 
Q 45.5625 -1.421875 35.59375 -1.421875 
Q 29.59375 -1.421875 25.265625 0.953125 
Q 20.953125 3.328125 18.109375 8.203125 
z
M 48.6875 27.296875 
Q 48.6875 37.203125 44.609375 42.84375 
Q 40.53125 48.484375 33.40625 48.484375 
Q 26.265625 48.484375 22.1875 42.84375 
Q 18.109375 37.203125 18.109375 27.296875 
Q 18.109375 17.390625 22.1875 11.75 
Q 26.265625 6.109375 33.40625 6.109375 
Q 40.53125 6.109375 44.609375 11.75 
Q 48.6875 17.390625 48.6875 27.296875 
z
" id="DejaVuSans-112"/>
     </defs>
     <g transform="translate(25.43625 248.515398)rotate(-90)scale(0.24 -0.24)">
      <use xlink:href="#DejaVuSans-84"/>
      <use x="60.818359" xlink:href="#DejaVuSans-111"/>
      <use x="122" xlink:href="#DejaVuSans-116"/>
      <use x="161.208984" xlink:href="#DejaVuSans-97"/>
      <use x="222.488281" xlink:href="#DejaVuSans-108"/>
      <use x="250.271484" xlink:href="#DejaVuSans-32"/>
      <use x="282.058594" xlink:href="#DejaVuSans-109"/>
      <use x="379.470703" xlink:href="#DejaVuSans-97"/>
      <use x="440.75" xlink:href="#DejaVuSans-110"/>
      <use x="504.128906" xlink:href="#DejaVuSans-117"/>
      <use x="567.507812" xlink:href="#DejaVuSans-115"/>
      <use x="619.607422" xlink:href="#DejaVuSans-99"/>
      <use x="674.587891" xlink:href="#DejaVuSans-114"/>
      <use x="715.701172" xlink:href="#DejaVuSans-105"/>
      <use x="743.484375" xlink:href="#DejaVuSans-112"/>
      <use x="806.960938" xlink:href="#DejaVuSans-116"/>
      <use x="846.169922" xlink:href="#DejaVuSans-115"/>
     </g>
    </g>
   </g>
   <g id="line2d_29">
    <path clip-path="url(#p33684231c6)" d="M 194.008864 262.903478 
L 205.509784 262.113369 
L 211.260244 261.143061 
L 217.010704 260.804223 
L 222.761164 259.528961 
L 237.548061 257.936166 
L 243.298521 241.271248 
L 249.048981 239.804491 
L 249.870476 239.326781 
L 251.513464 238.623436 
L 252.334959 238.558235 
L 253.977947 238.180637 
L 254.799441 238.032523 
L 255.620936 239.562428 
L 257.263924 239.322931 
L 258.906913 239.194326 
L 259.728407 238.981783 
L 261.371396 238.370591 
L 265.478867 237.571499 
L 266.300362 236.642261 
L 267.121856 233.85224 
L 271.229327 233.453592 
L 272.050822 233.091908 
L 272.872316 233.162243 
L 273.69381 232.78182 
L 274.515305 232.273563 
L 275.336799 232.198865 
L 276.158293 231.265778 
L 276.979787 231.175421 
L 278.622776 230.662287 
L 280.265765 228.010111 
L 281.087259 227.675637 
L 282.730248 227.451798 
L 283.551742 227.243105 
L 284.373236 226.784134 
L 286.016225 226.270743 
L 287.659213 226.011737 
L 289.302202 225.31635 
L 290.123696 225.13461 
L 290.94519 224.838383 
L 296.695651 223.395755 
L 299.981628 223.148558 
L 300.803122 222.366407 
L 301.624616 222.112535 
L 302.446111 222.011397 
L 304.089099 221.450005 
L 304.910593 221.184582 
L 306.553582 220.965877 
L 308.196571 220.244563 
L 309.018065 220.03202 
L 309.839559 220.21068 
L 313.125536 219.524533 
L 313.947031 218.92977 
L 314.768525 218.6587 
L 315.590019 216.587168 
L 316.411514 216.084302 
L 318.054502 215.869705 
L 319.697491 215.242341 
L 320.518985 215.131706 
L 322.161974 214.371631 
L 322.983468 214.306173 
L 323.804962 214.114935 
L 326.269445 212.988043 
L 327.090939 212.90436 
L 329.555422 212.092176 
L 331.198411 211.349557 
L 335.305882 210.038357 
L 336.127377 209.635859 
L 337.770365 209.194086 
L 340.234848 207.222922 
L 341.056342 206.868169 
L 341.877837 205.954847 
L 342.699331 205.928664 
L 343.520825 205.418097 
L 344.34232 204.707051 
L 345.163814 204.166451 
L 346.806803 203.911553 
L 347.628297 203.59402 
L 348.449791 203.145317 
L 349.271285 202.514617 
L 351.735768 201.68318 
L 359.129217 199.85782 
L 359.950711 198.889308 
L 360.772206 198.646988 
L 361.5937 197.291893 
L 362.415194 196.818034 
L 364.879677 196.12932 
L 367.34416 195.357437 
L 368.165654 194.883321 
L 368.987149 194.852261 
L 369.808643 194.464907 
L 370.630137 194.264172 
L 372.273126 193.152168 
L 373.916114 192.590261 
L 376.380597 191.97907 
L 377.202091 191.485445 
L 378.84508 189.339472 
L 379.666574 188.914128 
L 381.309563 188.651015 
L 382.131057 188.445915 
L 383.774046 187.175273 
L 385.417034 186.538412 
L 387.060023 186.268625 
L 388.703012 185.521899 
L 389.524506 185.371475 
L 390.346 183.255022 
L 391.167494 182.987032 
L 392.810483 182.772435 
L 393.631977 182.441811 
L 395.274966 182.020318 
L 396.917955 181.455845 
L 398.560943 181.204797 
L 401.025426 179.986777 
L 401.84692 179.881275 
L 407.59738 178.24818 
L 408.418875 178.021518 
L 409.240369 177.969665 
L 411.704852 177.160818 
L 412.526346 176.818387 
L 413.34784 176.716992 
L 414.169335 176.243902 
L 417.455312 174.644691 
L 418.276806 174.121032 
L 419.919795 173.607385 
L 421.562783 173.381493 
L 422.384278 172.934073 
L 423.205772 172.667366 
L 424.027266 172.656585 
L 428.134738 172.248953 
L 428.956232 171.545864 
L 432.242209 171.466802 
L 433.885198 171.212931 
L 434.706692 168.711435 
L 435.528186 168.240399 
L 436.349681 167.977543 
L 437.171175 167.418203 
L 438.814164 167.17614 
L 440.457152 166.482549 
L 442.100141 165.230646 
L 442.921635 164.989866 
L 443.743129 164.954698 
L 444.564624 164.622278 
L 446.207612 164.344277 
L 447.850601 163.571881 
L 448.672095 163.217384 
L 450.315084 162.996113 
L 451.958072 161.62382 
L 452.779567 161.534746 
L 453.601061 161.193342 
L 455.24405 161.018019 
L 460.99451 158.642817 
L 466.74497 155.976779 
L 472.49543 154.244085 
L 478.24589 151.86837 
L 483.99635 150.470664 
L 495.49727 148.241778 
L 501.24773 146.444398 
L 506.99819 140.218766 
L 513.570144 138.295604 
L 518.49911 136.456125 
L 524.24957 134.508065 
L 530.00003 132.320507 
L 535.75049 128.491639 
L 541.50095 125.562489 
L 547.251411 123.327699 
L 553.001871 120.335915 
L 564.502791 107.164364 
L 570.253251 104.963458 
L 576.003711 102.32694 
L 581.754171 99.279197 
L 587.504631 96.806451 
L 593.255091 92.217508 
L 599.005551 89.821 
L 604.756011 86.930097 
L 610.506471 84.222475 
L 618.721414 82.066491 
L 622.007391 79.588868 
L 627.757851 76.874058 
L 633.508312 81.234285 
L 650.759692 77.998897 
L 662.260612 72.679913 
L 673.761532 68.430578 
L 679.511992 66.008401 
L 685.262452 63.179362 
L 691.012912 60.878088 
L 702.513832 57.199387 
L 714.014752 54.008151 
L 719.765213 51.801084 
L 731.266133 49.70568 
L 760.018433 40.764982 
L 781.377285 34.277264 
L 784.663262 31.859707 
L 802.736136 19.376356 
L 802.736136 19.376356 
" style="fill:none;stroke:#1f77b4;stroke-linecap:square;stroke-width:5;"/>
   </g>
   <g id="patch_3">
    <path d="M 163.5725 274.254545 
L 163.5725 7.2 
" style="fill:none;stroke:#000000;stroke-linecap:square;stroke-linejoin:miter;stroke-width:0.8;"/>
   </g>
   <g id="patch_4">
    <path d="M 163.5725 274.254545 
L 833.1725 274.254545 
" style="fill:none;stroke:#000000;stroke-linecap:square;stroke-linejoin:miter;stroke-width:0.8;"/>
   </g>
  </g>
  <g id="axes_2">
   <g id="patch_5">
    <path d="M 163.5725 594.72 
L 833.1725 594.72 
L 833.1725 327.665455 
L 163.5725 327.665455 
z
" style="fill:#ffffff;"/>
   </g>
   <g id="matplotlib.axis_3">
    <g id="xtick_10">
     <g id="line2d_30">
      <path clip-path="url(#p2889d3eb5b)" d="M 203.866795 594.72 
L 203.866795 327.665455 
" style="fill:none;stroke:#d3d3d3;stroke-linecap:square;stroke-width:0.8;"/>
     </g>
     <g id="line2d_31">
      <g>
       <use style="stroke:#000000;stroke-width:0.8;" x="203.866795" xlink:href="#m4f87664463" y="594.72"/>
      </g>
     </g>
     <g id="text_7">
      <!-- 2020-04 -->
      <defs>
       <path d="M 4.890625 31.390625 
L 31.203125 31.390625 
L 31.203125 23.390625 
L 4.890625 23.390625 
z
" id="DejaVuSans-45"/>
       <path d="M 37.796875 64.3125 
L 12.890625 25.390625 
L 37.796875 25.390625 
z
M 35.203125 72.90625 
L 47.609375 72.90625 
L 47.609375 25.390625 
L 58.015625 25.390625 
L 58.015625 17.1875 
L 47.609375 17.1875 
L 47.609375 0 
L 37.796875 0 
L 37.796875 17.1875 
L 4.890625 17.1875 
L 4.890625 26.703125 
z
" id="DejaVuSans-52"/>
      </defs>
      <g transform="translate(114.527225 667.652431)rotate(-30)scale(0.24 -0.24)">
       <use xlink:href="#DejaVuSans-50"/>
       <use x="63.623047" xlink:href="#DejaVuSans-48"/>
       <use x="127.246094" xlink:href="#DejaVuSans-50"/>
       <use x="190.869141" xlink:href="#DejaVuSans-48"/>
       <use x="254.492188" xlink:href="#DejaVuSans-45"/>
       <use x="290.576172" xlink:href="#DejaVuSans-48"/>
       <use x="354.199219" xlink:href="#DejaVuSans-52"/>
      </g>
     </g>
    </g>
    <g id="xtick_11">
     <g id="line2d_32">
      <path clip-path="url(#p2889d3eb5b)" d="M 278.622776 594.72 
L 278.622776 327.665455 
" style="fill:none;stroke:#d3d3d3;stroke-linecap:square;stroke-width:0.8;"/>
     </g>
     <g id="line2d_33">
      <g>
       <use style="stroke:#000000;stroke-width:0.8;" x="278.622776" xlink:href="#m4f87664463" y="594.72"/>
      </g>
     </g>
     <g id="text_8">
      <!-- 2020-07 -->
      <g transform="translate(189.283206 667.652431)rotate(-30)scale(0.24 -0.24)">
       <use xlink:href="#DejaVuSans-50"/>
       <use x="63.623047" xlink:href="#DejaVuSans-48"/>
       <use x="127.246094" xlink:href="#DejaVuSans-50"/>
       <use x="190.869141" xlink:href="#DejaVuSans-48"/>
       <use x="254.492188" xlink:href="#DejaVuSans-45"/>
       <use x="290.576172" xlink:href="#DejaVuSans-48"/>
       <use x="354.199219" xlink:href="#DejaVuSans-55"/>
      </g>
     </g>
    </g>
    <g id="xtick_12">
     <g id="line2d_34">
      <path clip-path="url(#p2889d3eb5b)" d="M 354.200251 594.72 
L 354.200251 327.665455 
" style="fill:none;stroke:#d3d3d3;stroke-linecap:square;stroke-width:0.8;"/>
     </g>
     <g id="line2d_35">
      <g>
       <use style="stroke:#000000;stroke-width:0.8;" x="354.200251" xlink:href="#m4f87664463" y="594.72"/>
      </g>
     </g>
     <g id="text_9">
      <!-- 2020-10 -->
      <g transform="translate(264.860681 667.652431)rotate(-30)scale(0.24 -0.24)">
       <use xlink:href="#DejaVuSans-50"/>
       <use x="63.623047" xlink:href="#DejaVuSans-48"/>
       <use x="127.246094" xlink:href="#DejaVuSans-50"/>
       <use x="190.869141" xlink:href="#DejaVuSans-48"/>
       <use x="254.492188" xlink:href="#DejaVuSans-45"/>
       <use x="290.576172" xlink:href="#DejaVuSans-49"/>
       <use x="354.199219" xlink:href="#DejaVuSans-48"/>
      </g>
     </g>
    </g>
    <g id="xtick_13">
     <g id="line2d_36">
      <path clip-path="url(#p2889d3eb5b)" d="M 429.777726 594.72 
L 429.777726 327.665455 
" style="fill:none;stroke:#d3d3d3;stroke-linecap:square;stroke-width:0.8;"/>
     </g>
     <g id="line2d_37">
      <g>
       <use style="stroke:#000000;stroke-width:0.8;" x="429.777726" xlink:href="#m4f87664463" y="594.72"/>
      </g>
     </g>
     <g id="text_10">
      <!-- 2021-01 -->
      <g transform="translate(340.438156 667.652431)rotate(-30)scale(0.24 -0.24)">
       <use xlink:href="#DejaVuSans-50"/>
       <use x="63.623047" xlink:href="#DejaVuSans-48"/>
       <use x="127.246094" xlink:href="#DejaVuSans-50"/>
       <use x="190.869141" xlink:href="#DejaVuSans-49"/>
       <use x="254.492188" xlink:href="#DejaVuSans-45"/>
       <use x="290.576172" xlink:href="#DejaVuSans-48"/>
       <use x="354.199219" xlink:href="#DejaVuSans-49"/>
      </g>
     </g>
    </g>
    <g id="xtick_14">
     <g id="line2d_38">
      <path clip-path="url(#p2889d3eb5b)" d="M 503.712213 594.72 
L 503.712213 327.665455 
" style="fill:none;stroke:#d3d3d3;stroke-linecap:square;stroke-width:0.8;"/>
     </g>
     <g id="line2d_39">
      <g>
       <use style="stroke:#000000;stroke-width:0.8;" x="503.712213" xlink:href="#m4f87664463" y="594.72"/>
      </g>
     </g>
     <g id="text_11">
      <!-- 2021-04 -->
      <g transform="translate(414.372643 667.652431)rotate(-30)scale(0.24 -0.24)">
       <use xlink:href="#DejaVuSans-50"/>
       <use x="63.623047" xlink:href="#DejaVuSans-48"/>
       <use x="127.246094" xlink:href="#DejaVuSans-50"/>
       <use x="190.869141" xlink:href="#DejaVuSans-49"/>
       <use x="254.492188" xlink:href="#DejaVuSans-45"/>
       <use x="290.576172" xlink:href="#DejaVuSans-48"/>
       <use x="354.199219" xlink:href="#DejaVuSans-52"/>
      </g>
     </g>
    </g>
    <g id="xtick_15">
     <g id="line2d_40">
      <path clip-path="url(#p2889d3eb5b)" d="M 578.468194 594.72 
L 578.468194 327.665455 
" style="fill:none;stroke:#d3d3d3;stroke-linecap:square;stroke-width:0.8;"/>
     </g>
     <g id="line2d_41">
      <g>
       <use style="stroke:#000000;stroke-width:0.8;" x="578.468194" xlink:href="#m4f87664463" y="594.72"/>
      </g>
     </g>
     <g id="text_12">
      <!-- 2021-07 -->
      <g transform="translate(489.128624 667.652431)rotate(-30)scale(0.24 -0.24)">
       <use xlink:href="#DejaVuSans-50"/>
       <use x="63.623047" xlink:href="#DejaVuSans-48"/>
       <use x="127.246094" xlink:href="#DejaVuSans-50"/>
       <use x="190.869141" xlink:href="#DejaVuSans-49"/>
       <use x="254.492188" xlink:href="#DejaVuSans-45"/>
       <use x="290.576172" xlink:href="#DejaVuSans-48"/>
       <use x="354.199219" xlink:href="#DejaVuSans-55"/>
      </g>
     </g>
    </g>
    <g id="xtick_16">
     <g id="line2d_42">
      <path clip-path="url(#p2889d3eb5b)" d="M 654.045669 594.72 
L 654.045669 327.665455 
" style="fill:none;stroke:#d3d3d3;stroke-linecap:square;stroke-width:0.8;"/>
     </g>
     <g id="line2d_43">
      <g>
       <use style="stroke:#000000;stroke-width:0.8;" x="654.045669" xlink:href="#m4f87664463" y="594.72"/>
      </g>
     </g>
     <g id="text_13">
      <!-- 2021-10 -->
      <g transform="translate(564.706099 667.652431)rotate(-30)scale(0.24 -0.24)">
       <use xlink:href="#DejaVuSans-50"/>
       <use x="63.623047" xlink:href="#DejaVuSans-48"/>
       <use x="127.246094" xlink:href="#DejaVuSans-50"/>
       <use x="190.869141" xlink:href="#DejaVuSans-49"/>
       <use x="254.492188" xlink:href="#DejaVuSans-45"/>
       <use x="290.576172" xlink:href="#DejaVuSans-49"/>
       <use x="354.199219" xlink:href="#DejaVuSans-48"/>
      </g>
     </g>
    </g>
    <g id="xtick_17">
     <g id="line2d_44">
      <path clip-path="url(#p2889d3eb5b)" d="M 729.623144 594.72 
L 729.623144 327.665455 
" style="fill:none;stroke:#d3d3d3;stroke-linecap:square;stroke-width:0.8;"/>
     </g>
     <g id="line2d_45">
      <g>
       <use style="stroke:#000000;stroke-width:0.8;" x="729.623144" xlink:href="#m4f87664463" y="594.72"/>
      </g>
     </g>
     <g id="text_14">
      <!-- 2022-01 -->
      <g transform="translate(640.283574 667.652431)rotate(-30)scale(0.24 -0.24)">
       <use xlink:href="#DejaVuSans-50"/>
       <use x="63.623047" xlink:href="#DejaVuSans-48"/>
       <use x="127.246094" xlink:href="#DejaVuSans-50"/>
       <use x="190.869141" xlink:href="#DejaVuSans-50"/>
       <use x="254.492188" xlink:href="#DejaVuSans-45"/>
       <use x="290.576172" xlink:href="#DejaVuSans-48"/>
       <use x="354.199219" xlink:href="#DejaVuSans-49"/>
      </g>
     </g>
    </g>
    <g id="xtick_18">
     <g id="line2d_46">
      <path clip-path="url(#p2889d3eb5b)" d="M 803.557631 594.72 
L 803.557631 327.665455 
" style="fill:none;stroke:#d3d3d3;stroke-linecap:square;stroke-width:0.8;"/>
     </g>
     <g id="line2d_47">
      <g>
       <use style="stroke:#000000;stroke-width:0.8;" x="803.557631" xlink:href="#m4f87664463" y="594.72"/>
      </g>
     </g>
     <g id="text_15">
      <!-- 2022-04 -->
      <g transform="translate(714.218061 667.652431)rotate(-30)scale(0.24 -0.24)">
       <use xlink:href="#DejaVuSans-50"/>
       <use x="63.623047" xlink:href="#DejaVuSans-48"/>
       <use x="127.246094" xlink:href="#DejaVuSans-50"/>
       <use x="190.869141" xlink:href="#DejaVuSans-50"/>
       <use x="254.492188" xlink:href="#DejaVuSans-45"/>
       <use x="290.576172" xlink:href="#DejaVuSans-48"/>
       <use x="354.199219" xlink:href="#DejaVuSans-52"/>
      </g>
     </g>
    </g>
   </g>
   <g id="matplotlib.axis_4">
    <g id="ytick_6">
     <g id="line2d_48">
      <path clip-path="url(#p2889d3eb5b)" d="M 163.5725 594.72 
L 833.1725 594.72 
" style="fill:none;stroke:#d3d3d3;stroke-linecap:square;stroke-width:0.8;"/>
     </g>
     <g id="line2d_49">
      <g>
       <use style="stroke:#000000;stroke-width:0.8;" x="163.5725" xlink:href="#ma3b018ac2d" y="594.72"/>
      </g>
     </g>
     <g id="text_16">
      <!-- 0 -->
      <g transform="translate(141.3025 603.838125)scale(0.24 -0.24)">
       <use xlink:href="#DejaVuSans-48"/>
      </g>
     </g>
    </g>
    <g id="ytick_7">
     <g id="line2d_50">
      <path clip-path="url(#p2889d3eb5b)" d="M 163.5725 527.746569 
L 833.1725 527.746569 
" style="fill:none;stroke:#d3d3d3;stroke-linecap:square;stroke-width:0.8;"/>
     </g>
     <g id="line2d_51">
      <g>
       <use style="stroke:#000000;stroke-width:0.8;" x="163.5725" xlink:href="#ma3b018ac2d" y="527.746569"/>
      </g>
     </g>
     <g id="text_17">
      <!-- 5,000 -->
      <g transform="translate(87.865 536.864694)scale(0.24 -0.24)">
       <use xlink:href="#DejaVuSans-53"/>
       <use x="63.623047" xlink:href="#DejaVuSans-44"/>
       <use x="95.410156" xlink:href="#DejaVuSans-48"/>
       <use x="159.033203" xlink:href="#DejaVuSans-48"/>
       <use x="222.65625" xlink:href="#DejaVuSans-48"/>
      </g>
     </g>
    </g>
    <g id="ytick_8">
     <g id="line2d_52">
      <path clip-path="url(#p2889d3eb5b)" d="M 163.5725 460.773139 
L 833.1725 460.773139 
" style="fill:none;stroke:#d3d3d3;stroke-linecap:square;stroke-width:0.8;"/>
     </g>
     <g id="line2d_53">
      <g>
       <use style="stroke:#000000;stroke-width:0.8;" x="163.5725" xlink:href="#ma3b018ac2d" y="460.773139"/>
      </g>
     </g>
     <g id="text_18">
      <!-- 10,000 -->
      <g transform="translate(72.595 469.891264)scale(0.24 -0.24)">
       <use xlink:href="#DejaVuSans-49"/>
       <use x="63.623047" xlink:href="#DejaVuSans-48"/>
       <use x="127.246094" xlink:href="#DejaVuSans-44"/>
       <use x="159.033203" xlink:href="#DejaVuSans-48"/>
       <use x="222.65625" xlink:href="#DejaVuSans-48"/>
       <use x="286.279297" xlink:href="#DejaVuSans-48"/>
      </g>
     </g>
    </g>
    <g id="ytick_9">
     <g id="line2d_54">
      <path clip-path="url(#p2889d3eb5b)" d="M 163.5725 393.799708 
L 833.1725 393.799708 
" style="fill:none;stroke:#d3d3d3;stroke-linecap:square;stroke-width:0.8;"/>
     </g>
     <g id="line2d_55">
      <g>
       <use style="stroke:#000000;stroke-width:0.8;" x="163.5725" xlink:href="#ma3b018ac2d" y="393.799708"/>
      </g>
     </g>
     <g id="text_19">
      <!-- 15,000 -->
      <g transform="translate(72.595 402.917833)scale(0.24 -0.24)">
       <use xlink:href="#DejaVuSans-49"/>
       <use x="63.623047" xlink:href="#DejaVuSans-53"/>
       <use x="127.246094" xlink:href="#DejaVuSans-44"/>
       <use x="159.033203" xlink:href="#DejaVuSans-48"/>
       <use x="222.65625" xlink:href="#DejaVuSans-48"/>
       <use x="286.279297" xlink:href="#DejaVuSans-48"/>
      </g>
     </g>
    </g>
    <g id="text_20">
     <!-- Preprints -->
     <defs>
      <path d="M 19.671875 64.796875 
L 19.671875 37.40625 
L 32.078125 37.40625 
Q 38.96875 37.40625 42.71875 40.96875 
Q 46.484375 44.53125 46.484375 51.125 
Q 46.484375 57.671875 42.71875 61.234375 
Q 38.96875 64.796875 32.078125 64.796875 
z
M 9.8125 72.90625 
L 32.078125 72.90625 
Q 44.34375 72.90625 50.609375 67.359375 
Q 56.890625 61.8125 56.890625 51.125 
Q 56.890625 40.328125 50.609375 34.8125 
Q 44.34375 29.296875 32.078125 29.296875 
L 19.671875 29.296875 
L 19.671875 0 
L 9.8125 0 
z
" id="DejaVuSans-80"/>
      <path d="M 56.203125 29.59375 
L 56.203125 25.203125 
L 14.890625 25.203125 
Q 15.484375 15.921875 20.484375 11.0625 
Q 25.484375 6.203125 34.421875 6.203125 
Q 39.59375 6.203125 44.453125 7.46875 
Q 49.3125 8.734375 54.109375 11.28125 
L 54.109375 2.78125 
Q 49.265625 0.734375 44.1875 -0.34375 
Q 39.109375 -1.421875 33.890625 -1.421875 
Q 20.796875 -1.421875 13.15625 6.1875 
Q 5.515625 13.8125 5.515625 26.8125 
Q 5.515625 40.234375 12.765625 48.109375 
Q 20.015625 56 32.328125 56 
Q 43.359375 56 49.78125 48.890625 
Q 56.203125 41.796875 56.203125 29.59375 
z
M 47.21875 32.234375 
Q 47.125 39.59375 43.09375 43.984375 
Q 39.0625 48.390625 32.421875 48.390625 
Q 24.90625 48.390625 20.390625 44.140625 
Q 15.875 39.890625 15.1875 32.171875 
z
" id="DejaVuSans-101"/>
     </defs>
     <g transform="translate(63.60375 515.185227)rotate(-90)scale(0.24 -0.24)">
      <use xlink:href="#DejaVuSans-80"/>
      <use x="60.287109" xlink:href="#DejaVuSans-114"/>
      <use x="101.369141" xlink:href="#DejaVuSans-101"/>
      <use x="162.892578" xlink:href="#DejaVuSans-112"/>
      <use x="226.369141" xlink:href="#DejaVuSans-114"/>
      <use x="267.482422" xlink:href="#DejaVuSans-105"/>
      <use x="295.265625" xlink:href="#DejaVuSans-110"/>
      <use x="358.644531" xlink:href="#DejaVuSans-116"/>
      <use x="397.853516" xlink:href="#DejaVuSans-115"/>
     </g>
    </g>
   </g>
   <g id="line2d_56">
    <path clip-path="url(#p2889d3eb5b)" d="M 194.008864 592.17501 
L 199.759324 590.848936 
L 205.509784 589.187995 
L 211.260244 587.23237 
L 222.761164 583.843515 
L 228.511624 581.71376 
L 237.548061 579.061612 
L 243.298521 577.02562 
L 252.334959 574.159157 
L 253.977947 573.877868 
L 255.620936 573.208134 
L 258.085419 572.431242 
L 259.728407 572.069586 
L 261.371396 571.373062 
L 262.19289 571.145352 
L 263.014384 570.703328 
L 263.835879 570.422039 
L 265.478867 570.207724 
L 267.121856 569.430833 
L 268.764844 568.921835 
L 269.586339 568.653941 
L 271.229327 568.466415 
L 272.050822 568.238706 
L 272.872316 567.82347 
L 276.158293 566.899237 
L 278.622776 566.363449 
L 281.087259 565.50619 
L 282.730248 565.144533 
L 284.373236 564.474799 
L 285.19473 564.153326 
L 288.480708 563.456803 
L 289.302202 563.309461 
L 290.94519 562.666516 
L 295.052662 561.527968 
L 296.695651 560.99218 
L 297.517145 560.657313 
L 300.803122 559.867027 
L 302.446111 559.250871 
L 304.089099 558.581137 
L 305.732088 558.21948 
L 309.018065 557.067537 
L 309.839559 556.826433 
L 311.482548 556.705881 
L 313.125536 556.170093 
L 315.590019 555.433386 
L 318.875997 554.81723 
L 322.161974 554.053733 
L 323.804962 553.705471 
L 327.090939 552.580317 
L 331.198411 551.81682 
L 336.127377 550.55772 
L 337.770365 549.968354 
L 343.520825 548.682464 
L 345.163814 548.347597 
L 345.985308 548.253834 
L 347.628297 547.677862 
L 348.449791 547.383179 
L 351.735768 546.70005 
L 355.84324 545.708843 
L 357.486228 545.521318 
L 360.772206 544.422954 
L 361.5937 544.114876 
L 363.236688 543.793403 
L 364.879677 543.2978 
L 365.701171 543.190642 
L 366.522666 542.855775 
L 369.808643 542.119068 
L 370.630137 541.717227 
L 372.273126 541.221624 
L 373.09462 540.926941 
L 374.737609 540.659047 
L 379.666574 538.770396 
L 380.488069 538.623055 
L 381.309563 538.314977 
L 383.774046 537.7524 
L 384.59554 537.484506 
L 386.238529 537.189823 
L 390.346 536.091459 
L 392.810483 535.542277 
L 393.631977 535.220804 
L 396.917955 534.524281 
L 397.739449 534.497491 
L 398.560943 534.12244 
L 401.84692 533.358943 
L 402.668415 533.238391 
L 405.954392 532.40792 
L 407.59738 531.77837 
L 409.240369 531.590844 
L 411.704852 530.639822 
L 413.34784 530.157613 
L 414.169335 530.010271 
L 419.919795 528.510066 
L 420.741289 528.456488 
L 421.562783 528.201989 
L 422.384278 527.800148 
L 424.027266 527.250966 
L 426.491749 526.956283 
L 429.777726 526.125812 
L 433.063704 525.536446 
L 433.885198 525.214974 
L 438.814164 524.116609 
L 440.457152 523.513849 
L 442.921635 522.937877 
L 443.743129 522.83072 
L 444.564624 522.589615 
L 446.207612 521.866302 
L 449.493589 521.290331 
L 451.136578 520.767938 
L 451.958072 520.607202 
L 452.779567 520.191966 
L 453.601061 519.937467 
L 455.24405 519.656179 
L 460.99451 518.129185 
L 466.74497 516.361086 
L 478.24589 513.19994 
L 483.99635 511.431842 
L 501.24773 507.011595 
L 506.99819 505.658732 
L 530.00003 499.430203 
L 535.75049 498.010366 
L 541.50095 496.469977 
L 553.001871 493.067727 
L 564.502791 489.143084 
L 581.754171 484.053103 
L 587.504631 482.646661 
L 593.255091 481.025904 
L 599.005551 479.632857 
L 604.756011 478.079073 
L 610.506471 476.257396 
L 618.721414 474.087457 
L 622.007391 472.828356 
L 627.757851 471.314757 
L 633.508312 469.573448 
L 645.009232 465.970277 
L 650.759692 464.510256 
L 662.260612 460.625797 
L 668.011072 458.830909 
L 673.761532 457.384283 
L 679.511992 455.656369 
L 685.262452 453.740929 
L 702.513832 449.066183 
L 714.014752 446.052379 
L 719.765213 444.043176 
L 731.266133 441.752684 
L 760.018433 434.211476 
L 781.377285 427.87579 
L 784.663262 427.125687 
L 802.736136 423.120676 
L 802.736136 423.120676 
" style="fill:none;stroke:#1f77b4;stroke-linecap:square;stroke-width:5;"/>
   </g>
   <g id="line2d_57">
    <path clip-path="url(#p2889d3eb5b)" d="M 194.008864 586.910898 
L 199.759324 584.794538 
L 205.509784 581.378893 
L 211.260244 578.418667 
L 217.010704 574.601181 
L 222.761164 569.872857 
L 228.511624 565.70711 
L 237.548061 557.322036 
L 243.298521 553.169684 
L 249.048981 548.280623 
L 249.870476 546.083895 
L 250.69197 545.574897 
L 251.513464 545.373976 
L 252.334959 544.5569 
L 253.156453 543.940745 
L 253.977947 543.92735 
L 254.799441 543.619272 
L 255.620936 542.534303 
L 256.44243 541.703832 
L 257.263924 541.38236 
L 258.085419 540.176838 
L 258.906913 540.123259 
L 260.549902 539.212421 
L 261.371396 538.248003 
L 262.19289 538.221214 
L 263.014384 537.832768 
L 263.835879 536.332563 
L 264.657373 536.158432 
L 265.478867 535.769986 
L 266.300362 535.729802 
L 267.121856 534.75199 
L 267.94335 534.283176 
L 268.764844 533.961704 
L 270.407833 532.515078 
L 271.229327 532.488288 
L 272.050822 532.046264 
L 272.872316 531.135425 
L 273.69381 530.733584 
L 274.515305 530.613032 
L 275.336799 529.822746 
L 276.158293 529.809351 
L 276.979787 529.4343 
L 277.801282 528.57704 
L 278.622776 528.295751 
L 281.087259 527.170598 
L 281.908753 526.581232 
L 282.730248 526.447285 
L 283.551742 526.085628 
L 284.373236 525.389105 
L 285.19473 524.973869 
L 286.016225 524.826528 
L 286.837719 524.384503 
L 287.659213 523.580822 
L 289.302202 523.540638 
L 290.123696 522.683378 
L 290.94519 522.268143 
L 294.231168 520.379492 
L 295.052662 520.138388 
L 295.874156 519.709758 
L 296.695651 519.468653 
L 297.517145 519.415075 
L 298.338639 518.370289 
L 300.803122 517.03082 
L 301.624616 516.762927 
L 302.446111 515.945851 
L 303.267605 515.396669 
L 304.089099 515.222538 
L 304.910593 514.793908 
L 305.732088 514.579593 
L 306.553582 514.566198 
L 307.375076 513.19994 
L 308.196571 513.146361 
L 309.839559 512.021208 
L 312.304042 511.981024 
L 313.125536 511.2845 
L 314.768525 510.668345 
L 315.590019 509.516402 
L 316.411514 509.127956 
L 318.054502 508.618958 
L 318.875997 508.31088 
L 320.518985 508.096565 
L 322.161974 506.850859 
L 322.983468 506.676728 
L 323.804962 506.341861 
L 324.626457 505.792679 
L 325.447951 505.431022 
L 327.090939 505.377444 
L 329.555422 504.774683 
L 330.376917 503.59595 
L 331.198411 502.671717 
L 336.127377 500.903618 
L 337.770365 499.858833 
L 341.877837 498.224681 
L 343.520825 498.117524 
L 344.34232 496.523556 
L 345.985308 496.416399 
L 346.806803 496.322636 
L 347.628297 495.880611 
L 348.449791 494.996562 
L 349.271285 494.862615 
L 350.09278 494.233065 
L 350.914274 494.233065 
L 351.735768 493.938382 
L 354.200251 492.598913 
L 355.84324 492.250651 
L 356.664734 492.250651 
L 357.486228 492.009547 
L 358.307723 491.607706 
L 359.129217 491.071919 
L 361.5937 490.723657 
L 362.415194 490.723657 
L 363.236688 490.58971 
L 364.879677 489.853002 
L 365.701171 489.129689 
L 367.34416 488.794822 
L 368.165654 488.794822 
L 368.987149 488.607297 
L 369.808643 488.593902 
L 370.630137 487.857194 
L 371.451631 487.294617 
L 372.273126 487.214249 
L 373.09462 486.73204 
L 373.916114 486.73204 
L 375.559103 486.356989 
L 376.380597 485.097889 
L 377.202091 485.004126 
L 380.488069 484.495128 
L 381.309563 484.454944 
L 382.131057 483.691447 
L 382.952552 482.619872 
L 383.774046 482.418952 
L 384.59554 482.003716 
L 385.417034 481.735823 
L 386.238529 481.709033 
L 388.703012 481.226824 
L 389.524506 480.717826 
L 390.346 480.074881 
L 391.988989 479.940935 
L 392.810483 479.29799 
L 393.631977 479.190832 
L 394.453472 478.400546 
L 396.917955 477.931732 
L 397.739449 477.797785 
L 398.560943 477.315576 
L 401.025426 476.779789 
L 402.668415 476.257396 
L 404.311403 475.025085 
L 406.775886 474.194614 
L 407.59738 473.52488 
L 409.240369 473.498091 
L 410.061863 472.922119 
L 411.704852 472.413121 
L 412.526346 472.399726 
L 413.34784 471.488888 
L 414.169335 471.462098 
L 417.455312 470.202998 
L 418.276806 470.042262 
L 419.919795 469.345738 
L 420.741289 469.198396 
L 421.562783 469.185002 
L 422.384278 468.153611 
L 423.205772 468.006269 
L 424.027266 467.510666 
L 427.313243 467.108825 
L 428.134738 467.095431 
L 428.956232 466.9213 
L 429.777726 466.907905 
L 431.420715 466.479275 
L 432.242209 466.46588 
L 433.063704 465.514858 
L 433.885198 465.300543 
L 434.706692 464.818334 
L 435.528186 464.791545 
L 436.349681 464.228968 
L 437.171175 463.961074 
L 437.992669 463.934285 
L 439.635658 463.519049 
L 440.457152 463.090419 
L 441.278646 463.050235 
L 442.100141 461.938476 
L 443.743129 461.831319 
L 445.386118 461.791135 
L 446.207612 460.71956 
L 447.029107 460.652587 
L 447.850601 460.304325 
L 449.493589 460.264141 
L 450.315084 459.795327 
L 451.136578 458.737146 
L 452.779567 458.469253 
L 453.601061 457.839702 
L 454.422555 457.772729 
L 455.24405 457.478046 
L 460.99451 454.879477 
L 466.74497 452.749722 
L 472.49543 450.177942 
L 478.24589 448.11516 
L 483.99635 445.516591 
L 495.49727 439.984586 
L 501.24773 436.39481 
L 506.99819 434.827632 
L 518.49911 430.434175 
L 524.24957 427.634685 
L 530.00003 425.27722 
L 535.75049 423.281412 
L 541.50095 421.098078 
L 547.251411 418.593272 
L 564.502791 412.632637 
L 570.253251 411.186011 
L 576.003711 408.707994 
L 581.754171 406.846132 
L 587.504631 403.899301 
L 593.255091 402.23836 
L 599.005551 399.304924 
L 604.756011 397.469852 
L 610.506471 395.755332 
L 618.721414 393.571998 
L 622.007391 392.982632 
L 627.757851 390.986824 
L 633.508312 389.45983 
L 645.009232 386.713919 
L 650.759692 384.209113 
L 662.260612 380.7131 
L 668.011072 379.346842 
L 673.761532 377.766269 
L 679.511992 375.676698 
L 685.262452 374.658702 
L 691.012912 372.756656 
L 702.513832 369.742852 
L 714.014752 366.220049 
L 719.765213 363.996531 
L 754.267973 353.508492 
L 760.018433 351.445711 
L 781.377285 345.431496 
L 802.736136 340.261148 
L 802.736136 340.261148 
" style="fill:none;stroke:#ff7f0e;stroke-linecap:square;stroke-width:5;"/>
   </g>
   <g id="line2d_58">
    <path clip-path="url(#p2889d3eb5b)" d="M 194.008864 591.920511 
L 199.759324 591.424907 
L 205.509784 590.688199 
L 211.260244 589.80415 
L 217.010704 588.772759 
L 222.761164 587.620816 
L 228.511624 586.696583 
L 237.548061 584.91509 
L 243.298521 583.468464 
L 250.69197 582.088811 
L 252.334959 581.48605 
L 258.906913 580.320712 
L 259.728407 580.280528 
L 261.371396 579.878688 
L 264.657373 578.994638 
L 265.478867 578.900876 
L 270.407833 577.400671 
L 272.050822 577.186356 
L 273.69381 576.704147 
L 275.336799 576.329096 
L 276.979787 576.208544 
L 277.801282 575.967439 
L 278.622776 575.538809 
L 280.265765 575.056601 
L 283.551742 574.641365 
L 287.659213 573.877868 
L 288.480708 573.851079 
L 290.94519 573.208134 
L 294.231168 572.792899 
L 295.874156 572.391058 
L 297.517145 572.029402 
L 298.338639 571.774903 
L 299.981628 571.627561 
L 301.624616 571.225721 
L 304.089099 570.609565 
L 305.732088 570.502407 
L 307.375076 570.154146 
L 309.018065 569.779094 
L 309.839559 569.645148 
L 311.482548 569.645148 
L 313.125536 569.176334 
L 321.340479 567.609155 
L 322.983468 567.435024 
L 325.447951 566.979605 
L 327.090939 566.591159 
L 335.305882 565.332059 
L 345.163814 563.630933 
L 345.985308 563.590749 
L 347.628297 563.255882 
L 349.271285 563.001383 
L 350.09278 562.840647 
L 351.735768 562.787068 
L 355.84324 562.010176 
L 358.307723 561.889624 
L 361.5937 561.152917 
L 363.236688 561.085943 
L 365.701171 560.496577 
L 367.34416 560.081342 
L 368.987149 560.000974 
L 371.451631 559.53216 
L 373.916114 559.237476 
L 374.737609 559.197292 
L 378.84508 558.393611 
L 380.488069 558.259664 
L 382.131057 557.831034 
L 382.952552 557.737272 
L 384.59554 557.268458 
L 386.238529 557.1613 
L 387.060023 556.93359 
L 393.631977 555.87541 
L 394.453472 555.647701 
L 395.274966 555.620911 
L 404.311403 554.602915 
L 406.775886 553.919786 
L 407.59738 553.73226 
L 409.240369 553.571524 
L 411.704852 553.116105 
L 413.34784 552.794632 
L 414.169335 552.754448 
L 418.276806 552.138293 
L 419.098301 551.830215 
L 419.919795 551.830215 
L 421.562783 551.455164 
L 424.027266 550.879192 
L 426.491749 550.691667 
L 428.956232 550.155879 
L 432.242209 549.92817 
L 433.885198 549.445961 
L 436.349681 548.977147 
L 437.992669 548.950358 
L 438.814164 548.682464 
L 440.457152 548.401175 
L 442.921635 548.066308 
L 443.743129 548.039519 
L 444.564624 547.865388 
L 445.386118 547.517126 
L 448.672095 547.088496 
L 450.315084 546.860786 
L 452.779567 546.124079 
L 455.24405 545.829396 
L 460.99451 544.610479 
L 466.74497 543.780009 
L 472.49543 542.628066 
L 478.24589 541.61007 
L 483.99635 540.364364 
L 501.24773 536.774588 
L 506.99819 535.83696 
L 513.570144 534.564465 
L 518.49911 534.028677 
L 524.24957 533.198207 
L 530.00003 531.952501 
L 535.75049 530.827347 
L 541.50095 529.83614 
L 547.251411 528.644013 
L 564.502791 525.456078 
L 570.253251 524.505055 
L 581.754171 522.844114 
L 587.504631 521.866302 
L 593.255091 521.062621 
L 599.005551 520.084809 
L 604.756011 519.281128 
L 622.007391 516.307507 
L 627.757851 515.503826 
L 633.508312 514.472435 
L 650.759692 511.860472 
L 662.260612 510.159346 
L 679.511992 507.895645 
L 691.012912 506.288282 
L 702.513832 504.747893 
L 714.014752 502.671717 
L 719.765213 501.27867 
L 731.266133 498.974784 
L 754.267973 494.969772 
L 760.018433 493.697277 
L 781.377285 489.1029 
L 784.663262 488.687665 
L 802.736136 486.075701 
L 802.736136 486.075701 
" style="fill:none;stroke:#2ca02c;stroke-linecap:square;stroke-width:5;"/>
   </g>
   <g id="patch_6">
    <path d="M 163.5725 594.72 
L 163.5725 327.665455 
" style="fill:none;stroke:#000000;stroke-linecap:square;stroke-linejoin:miter;stroke-width:0.8;"/>
   </g>
   <g id="patch_7">
    <path d="M 163.5725 594.72 
L 833.1725 594.72 
" style="fill:none;stroke:#000000;stroke-linecap:square;stroke-linejoin:miter;stroke-width:0.8;"/>
   </g>
   <g id="legend_1">
    <g id="patch_8">
     <path d="M 180.3725 452.547955 
L 362.3075 452.547955 
Q 367.1075 452.547955 367.1075 447.747955 
L 367.1075 344.465455 
Q 367.1075 339.665455 362.3075 339.665455 
L 180.3725 339.665455 
Q 175.5725 339.665455 175.5725 344.465455 
L 175.5725 447.747955 
Q 175.5725 452.547955 180.3725 452.547955 
z
" style="fill:#ffffff;opacity:0.8;stroke:#cccccc;stroke-linejoin:miter;"/>
    </g>
    <g id="line2d_59">
     <path d="M 185.1725 359.101705 
L 233.1725 359.101705 
" style="fill:none;stroke:#1f77b4;stroke-linecap:square;stroke-width:5;"/>
    </g>
    <g id="line2d_60"/>
    <g id="text_21">
     <!-- arXiv -->
     <defs>
      <path d="M 6.296875 72.90625 
L 16.890625 72.90625 
L 35.015625 45.796875 
L 53.21875 72.90625 
L 63.8125 72.90625 
L 40.375 37.890625 
L 65.375 0 
L 54.78125 0 
L 34.28125 31 
L 13.625 0 
L 2.984375 0 
L 29 38.921875 
z
" id="DejaVuSans-88"/>
      <path d="M 2.984375 54.6875 
L 12.5 54.6875 
L 29.59375 8.796875 
L 46.6875 54.6875 
L 56.203125 54.6875 
L 35.6875 0 
L 23.484375 0 
z
" id="DejaVuSans-118"/>
     </defs>
     <g transform="translate(252.3725 367.501705)scale(0.24 -0.24)">
      <use xlink:href="#DejaVuSans-97"/>
      <use x="61.279297" xlink:href="#DejaVuSans-114"/>
      <use x="102.392578" xlink:href="#DejaVuSans-88"/>
      <use x="170.898438" xlink:href="#DejaVuSans-105"/>
      <use x="198.681641" xlink:href="#DejaVuSans-118"/>
     </g>
    </g>
    <g id="line2d_61">
     <path d="M 185.1725 394.329205 
L 233.1725 394.329205 
" style="fill:none;stroke:#ff7f0e;stroke-linecap:square;stroke-width:5;"/>
    </g>
    <g id="line2d_62"/>
    <g id="text_22">
     <!-- medRxiv -->
     <defs>
      <path d="M 45.40625 46.390625 
L 45.40625 75.984375 
L 54.390625 75.984375 
L 54.390625 0 
L 45.40625 0 
L 45.40625 8.203125 
Q 42.578125 3.328125 38.25 0.953125 
Q 33.9375 -1.421875 27.875 -1.421875 
Q 17.96875 -1.421875 11.734375 6.484375 
Q 5.515625 14.40625 5.515625 27.296875 
Q 5.515625 40.1875 11.734375 48.09375 
Q 17.96875 56 27.875 56 
Q 33.9375 56 38.25 53.625 
Q 42.578125 51.265625 45.40625 46.390625 
z
M 14.796875 27.296875 
Q 14.796875 17.390625 18.875 11.75 
Q 22.953125 6.109375 30.078125 6.109375 
Q 37.203125 6.109375 41.296875 11.75 
Q 45.40625 17.390625 45.40625 27.296875 
Q 45.40625 37.203125 41.296875 42.84375 
Q 37.203125 48.484375 30.078125 48.484375 
Q 22.953125 48.484375 18.875 42.84375 
Q 14.796875 37.203125 14.796875 27.296875 
z
" id="DejaVuSans-100"/>
      <path d="M 44.390625 34.1875 
Q 47.5625 33.109375 50.5625 29.59375 
Q 53.5625 26.078125 56.59375 19.921875 
L 66.609375 0 
L 56 0 
L 46.6875 18.703125 
Q 43.0625 26.03125 39.671875 28.421875 
Q 36.28125 30.8125 30.421875 30.8125 
L 19.671875 30.8125 
L 19.671875 0 
L 9.8125 0 
L 9.8125 72.90625 
L 32.078125 72.90625 
Q 44.578125 72.90625 50.734375 67.671875 
Q 56.890625 62.453125 56.890625 51.90625 
Q 56.890625 45.015625 53.6875 40.46875 
Q 50.484375 35.9375 44.390625 34.1875 
z
M 19.671875 64.796875 
L 19.671875 38.921875 
L 32.078125 38.921875 
Q 39.203125 38.921875 42.84375 42.21875 
Q 46.484375 45.515625 46.484375 51.90625 
Q 46.484375 58.296875 42.84375 61.546875 
Q 39.203125 64.796875 32.078125 64.796875 
z
" id="DejaVuSans-82"/>
      <path d="M 54.890625 54.6875 
L 35.109375 28.078125 
L 55.90625 0 
L 45.3125 0 
L 29.390625 21.484375 
L 13.484375 0 
L 2.875 0 
L 24.125 28.609375 
L 4.6875 54.6875 
L 15.28125 54.6875 
L 29.78125 35.203125 
L 44.28125 54.6875 
z
" id="DejaVuSans-120"/>
     </defs>
     <g transform="translate(252.3725 402.729205)scale(0.24 -0.24)">
      <use xlink:href="#DejaVuSans-109"/>
      <use x="97.412109" xlink:href="#DejaVuSans-101"/>
      <use x="158.935547" xlink:href="#DejaVuSans-100"/>
      <use x="222.412109" xlink:href="#DejaVuSans-82"/>
      <use x="291.894531" xlink:href="#DejaVuSans-120"/>
      <use x="351.074219" xlink:href="#DejaVuSans-105"/>
      <use x="378.857422" xlink:href="#DejaVuSans-118"/>
     </g>
    </g>
    <g id="line2d_63">
     <path d="M 185.1725 429.556705 
L 233.1725 429.556705 
" style="fill:none;stroke:#2ca02c;stroke-linecap:square;stroke-width:5;"/>
    </g>
    <g id="line2d_64"/>
    <g id="text_23">
     <!-- bioRxiv -->
     <defs>
      <path d="M 48.6875 27.296875 
Q 48.6875 37.203125 44.609375 42.84375 
Q 40.53125 48.484375 33.40625 48.484375 
Q 26.265625 48.484375 22.1875 42.84375 
Q 18.109375 37.203125 18.109375 27.296875 
Q 18.109375 17.390625 22.1875 11.75 
Q 26.265625 6.109375 33.40625 6.109375 
Q 40.53125 6.109375 44.609375 11.75 
Q 48.6875 17.390625 48.6875 27.296875 
z
M 18.109375 46.390625 
Q 20.953125 51.265625 25.265625 53.625 
Q 29.59375 56 35.59375 56 
Q 45.5625 56 51.78125 48.09375 
Q 58.015625 40.1875 58.015625 27.296875 
Q 58.015625 14.40625 51.78125 6.484375 
Q 45.5625 -1.421875 35.59375 -1.421875 
Q 29.59375 -1.421875 25.265625 0.953125 
Q 20.953125 3.328125 18.109375 8.203125 
L 18.109375 0 
L 9.078125 0 
L 9.078125 75.984375 
L 18.109375 75.984375 
z
" id="DejaVuSans-98"/>
     </defs>
     <g transform="translate(252.3725 437.956705)scale(0.24 -0.24)">
      <use xlink:href="#DejaVuSans-98"/>
      <use x="63.476562" xlink:href="#DejaVuSans-105"/>
      <use x="91.259766" xlink:href="#DejaVuSans-111"/>
      <use x="152.441406" xlink:href="#DejaVuSans-82"/>
      <use x="221.923828" xlink:href="#DejaVuSans-120"/>
      <use x="281.103516" xlink:href="#DejaVuSans-105"/>
      <use x="308.886719" xlink:href="#DejaVuSans-118"/>
     </g>
    </g>
   </g>
  </g>
 </g>
 <defs>
  <clipPath id="p33684231c6">
   <rect height="267.054545" width="669.6" x="163.5725" y="7.2"/>
  </clipPath>
  <clipPath id="p2889d3eb5b">
   <rect height="267.054545" width="669.6" x="163.5725" y="327.665455"/>
  </clipPath>
 </defs>
</svg>
