<?xml version="1.0" encoding="utf-8" standalone="no"?>
<!DOCTYPE svg PUBLIC "-//W3C//DTD SVG 1.1//EN"
  "http://www.w3.org/Graphics/SVG/1.1/DTD/svg11.dtd">
<!-- Created with matplotlib (https://matplotlib.org/) -->
<svg height="311.299664pt" version="1.1" viewBox="0 0 433.55125 311.299664" width="433.55125pt" xmlns="http://www.w3.org/2000/svg" xmlns:xlink="http://www.w3.org/1999/xlink">
 <defs>
  <style type="text/css">
*{stroke-linecap:butt;stroke-linejoin:round;}
  </style>
 </defs>
 <g id="figure_1">
  <g id="patch_1">
   <path d="M 0 311.299664 
L 433.55125 311.299664 
L 433.55125 0 
L 0 0 
z
" style="fill:#ffffff;"/>
  </g>
  <g id="axes_1">
   <g id="patch_2">
    <path d="M 69.23125 45.647414 
L 426.35125 45.647414 
L 426.35125 7.631414 
L 69.23125 7.631414 
z
" style="fill:#ffffff;"/>
   </g>
   <g id="matplotlib.axis_1">
    <g id="xtick_1">
     <g id="line2d_1">
      <path clip-path="url(#pe221a96502)" d="M 85.463977 45.647414 
L 85.463977 7.631414 
" style="fill:none;stroke:#d3d3d3;stroke-linecap:square;stroke-width:0.8;"/>
     </g>
     <g id="line2d_2">
      <defs>
       <path d="M 0 0 
L 0 3.5 
" id="m60ed9ed36a" style="stroke:#000000;stroke-width:0.8;"/>
      </defs>
      <g>
       <use style="stroke:#000000;stroke-width:0.8;" x="85.463977" xlink:href="#m60ed9ed36a" y="45.647414"/>
      </g>
     </g>
    </g>
    <g id="xtick_2">
     <g id="line2d_3">
      <path clip-path="url(#pe221a96502)" d="M 150.786823 45.647414 
L 150.786823 7.631414 
" style="fill:none;stroke:#d3d3d3;stroke-linecap:square;stroke-width:0.8;"/>
     </g>
     <g id="line2d_4">
      <g>
       <use style="stroke:#000000;stroke-width:0.8;" x="150.786823" xlink:href="#m60ed9ed36a" y="45.647414"/>
      </g>
     </g>
    </g>
    <g id="xtick_3">
     <g id="line2d_5">
      <path clip-path="url(#pe221a96502)" d="M 216.10967 45.647414 
L 216.10967 7.631414 
" style="fill:none;stroke:#d3d3d3;stroke-linecap:square;stroke-width:0.8;"/>
     </g>
     <g id="line2d_6">
      <g>
       <use style="stroke:#000000;stroke-width:0.8;" x="216.10967" xlink:href="#m60ed9ed36a" y="45.647414"/>
      </g>
     </g>
    </g>
    <g id="xtick_4">
     <g id="line2d_7">
      <path clip-path="url(#pe221a96502)" d="M 281.432516 45.647414 
L 281.432516 7.631414 
" style="fill:none;stroke:#d3d3d3;stroke-linecap:square;stroke-width:0.8;"/>
     </g>
     <g id="line2d_8">
      <g>
       <use style="stroke:#000000;stroke-width:0.8;" x="281.432516" xlink:href="#m60ed9ed36a" y="45.647414"/>
      </g>
     </g>
    </g>
    <g id="xtick_5">
     <g id="line2d_9">
      <path clip-path="url(#pe221a96502)" d="M 346.755362 45.647414 
L 346.755362 7.631414 
" style="fill:none;stroke:#d3d3d3;stroke-linecap:square;stroke-width:0.8;"/>
     </g>
     <g id="line2d_10">
      <g>
       <use style="stroke:#000000;stroke-width:0.8;" x="346.755362" xlink:href="#m60ed9ed36a" y="45.647414"/>
      </g>
     </g>
    </g>
    <g id="xtick_6">
     <g id="line2d_11">
      <path clip-path="url(#pe221a96502)" d="M 412.078208 45.647414 
L 412.078208 7.631414 
" style="fill:none;stroke:#d3d3d3;stroke-linecap:square;stroke-width:0.8;"/>
     </g>
     <g id="line2d_12">
      <g>
       <use style="stroke:#000000;stroke-width:0.8;" x="412.078208" xlink:href="#m60ed9ed36a" y="45.647414"/>
      </g>
     </g>
    </g>
   </g>
   <g id="matplotlib.axis_2">
    <g id="ytick_1">
     <g id="line2d_13">
      <path clip-path="url(#pe221a96502)" d="M 69.23125 45.647414 
L 426.35125 45.647414 
" style="fill:none;stroke:#d3d3d3;stroke-linecap:square;stroke-width:0.8;"/>
     </g>
     <g id="line2d_14">
      <defs>
       <path d="M 0 0 
L -3.5 0 
" id="m06162a65fb" style="stroke:#000000;stroke-width:0.8;"/>
      </defs>
      <g>
       <use style="stroke:#000000;stroke-width:0.8;" x="69.23125" xlink:href="#m06162a65fb" y="45.647414"/>
      </g>
     </g>
     <g id="text_1">
      <!-- 0 -->
      <defs>
       <path d="M 31.78125 66.40625 
Q 24.171875 66.40625 20.328125 58.90625 
Q 16.5 51.421875 16.5 36.375 
Q 16.5 21.390625 20.328125 13.890625 
Q 24.171875 6.390625 31.78125 6.390625 
Q 39.453125 6.390625 43.28125 13.890625 
Q 47.125 21.390625 47.125 36.375 
Q 47.125 51.421875 43.28125 58.90625 
Q 39.453125 66.40625 31.78125 66.40625 
z
M 31.78125 74.21875 
Q 44.046875 74.21875 50.515625 64.515625 
Q 56.984375 54.828125 56.984375 36.375 
Q 56.984375 17.96875 50.515625 8.265625 
Q 44.046875 -1.421875 31.78125 -1.421875 
Q 19.53125 -1.421875 13.0625 8.265625 
Q 6.59375 17.96875 6.59375 36.375 
Q 6.59375 54.828125 13.0625 64.515625 
Q 19.53125 74.21875 31.78125 74.21875 
z
" id="DejaVuSans-48"/>
      </defs>
      <g transform="translate(55.86875 49.446633)scale(0.1 -0.1)">
       <use xlink:href="#DejaVuSans-48"/>
      </g>
     </g>
    </g>
    <g id="ytick_2">
     <g id="line2d_15">
      <path clip-path="url(#pe221a96502)" d="M 69.23125 10.999219 
L 426.35125 10.999219 
" style="fill:none;stroke:#d3d3d3;stroke-linecap:square;stroke-width:0.8;"/>
     </g>
     <g id="line2d_16">
      <g>
       <use style="stroke:#000000;stroke-width:0.8;" x="69.23125" xlink:href="#m06162a65fb" y="10.999219"/>
      </g>
     </g>
     <g id="text_2">
      <!-- 50 -->
      <defs>
       <path d="M 10.796875 72.90625 
L 49.515625 72.90625 
L 49.515625 64.59375 
L 19.828125 64.59375 
L 19.828125 46.734375 
Q 21.96875 47.46875 24.109375 47.828125 
Q 26.265625 48.1875 28.421875 48.1875 
Q 40.625 48.1875 47.75 41.5 
Q 54.890625 34.8125 54.890625 23.390625 
Q 54.890625 11.625 47.5625 5.09375 
Q 40.234375 -1.421875 26.90625 -1.421875 
Q 22.3125 -1.421875 17.546875 -0.640625 
Q 12.796875 0.140625 7.71875 1.703125 
L 7.71875 11.625 
Q 12.109375 9.234375 16.796875 8.0625 
Q 21.484375 6.890625 26.703125 6.890625 
Q 35.15625 6.890625 40.078125 11.328125 
Q 45.015625 15.765625 45.015625 23.390625 
Q 45.015625 31 40.078125 35.4375 
Q 35.15625 39.890625 26.703125 39.890625 
Q 22.75 39.890625 18.8125 39.015625 
Q 14.890625 38.140625 10.796875 36.28125 
z
" id="DejaVuSans-53"/>
      </defs>
      <g transform="translate(49.50625 14.798438)scale(0.1 -0.1)">
       <use xlink:href="#DejaVuSans-53"/>
       <use x="63.623047" xlink:href="#DejaVuSans-48"/>
      </g>
     </g>
    </g>
    <g id="text_3">
     <!-- Count -->
     <defs>
      <path d="M 64.40625 67.28125 
L 64.40625 56.890625 
Q 59.421875 61.53125 53.78125 63.8125 
Q 48.140625 66.109375 41.796875 66.109375 
Q 29.296875 66.109375 22.65625 58.46875 
Q 16.015625 50.828125 16.015625 36.375 
Q 16.015625 21.96875 22.65625 14.328125 
Q 29.296875 6.6875 41.796875 6.6875 
Q 48.140625 6.6875 53.78125 8.984375 
Q 59.421875 11.28125 64.40625 15.921875 
L 64.40625 5.609375 
Q 59.234375 2.09375 53.4375 0.328125 
Q 47.65625 -1.421875 41.21875 -1.421875 
Q 24.65625 -1.421875 15.125 8.703125 
Q 5.609375 18.84375 5.609375 36.375 
Q 5.609375 53.953125 15.125 64.078125 
Q 24.65625 74.21875 41.21875 74.21875 
Q 47.75 74.21875 53.53125 72.484375 
Q 59.328125 70.75 64.40625 67.28125 
z
" id="DejaVuSans-67"/>
      <path d="M 30.609375 48.390625 
Q 23.390625 48.390625 19.1875 42.75 
Q 14.984375 37.109375 14.984375 27.296875 
Q 14.984375 17.484375 19.15625 11.84375 
Q 23.34375 6.203125 30.609375 6.203125 
Q 37.796875 6.203125 41.984375 11.859375 
Q 46.1875 17.53125 46.1875 27.296875 
Q 46.1875 37.015625 41.984375 42.703125 
Q 37.796875 48.390625 30.609375 48.390625 
z
M 30.609375 56 
Q 42.328125 56 49.015625 48.375 
Q 55.71875 40.765625 55.71875 27.296875 
Q 55.71875 13.875 49.015625 6.21875 
Q 42.328125 -1.421875 30.609375 -1.421875 
Q 18.84375 -1.421875 12.171875 6.21875 
Q 5.515625 13.875 5.515625 27.296875 
Q 5.515625 40.765625 12.171875 48.375 
Q 18.84375 56 30.609375 56 
z
" id="DejaVuSans-111"/>
      <path d="M 8.5 21.578125 
L 8.5 54.6875 
L 17.484375 54.6875 
L 17.484375 21.921875 
Q 17.484375 14.15625 20.5 10.265625 
Q 23.53125 6.390625 29.59375 6.390625 
Q 36.859375 6.390625 41.078125 11.03125 
Q 45.3125 15.671875 45.3125 23.6875 
L 45.3125 54.6875 
L 54.296875 54.6875 
L 54.296875 0 
L 45.3125 0 
L 45.3125 8.40625 
Q 42.046875 3.421875 37.71875 1 
Q 33.40625 -1.421875 27.6875 -1.421875 
Q 18.265625 -1.421875 13.375 4.4375 
Q 8.5 10.296875 8.5 21.578125 
z
M 31.109375 56 
z
" id="DejaVuSans-117"/>
      <path d="M 54.890625 33.015625 
L 54.890625 0 
L 45.90625 0 
L 45.90625 32.71875 
Q 45.90625 40.484375 42.875 44.328125 
Q 39.84375 48.1875 33.796875 48.1875 
Q 26.515625 48.1875 22.3125 43.546875 
Q 18.109375 38.921875 18.109375 30.90625 
L 18.109375 0 
L 9.078125 0 
L 9.078125 54.6875 
L 18.109375 54.6875 
L 18.109375 46.1875 
Q 21.34375 51.125 25.703125 53.5625 
Q 30.078125 56 35.796875 56 
Q 45.21875 56 50.046875 50.171875 
Q 54.890625 44.34375 54.890625 33.015625 
z
" id="DejaVuSans-110"/>
      <path d="M 18.3125 70.21875 
L 18.3125 54.6875 
L 36.8125 54.6875 
L 36.8125 47.703125 
L 18.3125 47.703125 
L 18.3125 18.015625 
Q 18.3125 11.328125 20.140625 9.421875 
Q 21.96875 7.515625 27.59375 7.515625 
L 36.8125 7.515625 
L 36.8125 0 
L 27.59375 0 
Q 17.1875 0 13.234375 3.875 
Q 9.28125 7.765625 9.28125 18.015625 
L 9.28125 47.703125 
L 2.6875 47.703125 
L 2.6875 54.6875 
L 9.28125 54.6875 
L 9.28125 70.21875 
z
" id="DejaVuSans-116"/>
     </defs>
     <g transform="translate(43.426563 41.487852)rotate(-90)scale(0.1 -0.1)">
      <use xlink:href="#DejaVuSans-67"/>
      <use x="69.824219" xlink:href="#DejaVuSans-111"/>
      <use x="131.005859" xlink:href="#DejaVuSans-117"/>
      <use x="194.384766" xlink:href="#DejaVuSans-110"/>
      <use x="257.763672" xlink:href="#DejaVuSans-116"/>
     </g>
    </g>
   </g>
   <g id="line2d_17">
    <path clip-path="url(#pe221a96502)" d="M 407.505609 9.613291 
L 410.118523 9.613291 
L 410.118523 9.613291 
" style="fill:none;stroke:#1f77b4;stroke-linecap:square;stroke-width:2;"/>
   </g>
   <g id="patch_3">
    <path d="M 69.23125 45.647414 
L 69.23125 7.631414 
" style="fill:none;stroke:#000000;stroke-linecap:square;stroke-linejoin:miter;stroke-width:0.8;"/>
   </g>
   <g id="patch_4">
    <path d="M 69.23125 45.647414 
L 426.35125 45.647414 
" style="fill:none;stroke:#000000;stroke-linecap:square;stroke-linejoin:miter;stroke-width:0.8;"/>
   </g>
   <g id="legend_1">
    <g id="patch_5">
     <path d="M 348.47625 30.309539 
L 419.35125 30.309539 
Q 421.35125 30.309539 421.35125 28.309539 
L 421.35125 14.631414 
Q 421.35125 12.631414 419.35125 12.631414 
L 348.47625 12.631414 
Q 346.47625 12.631414 346.47625 14.631414 
L 346.47625 28.309539 
Q 346.47625 30.309539 348.47625 30.309539 
z
" style="fill:#ffffff;opacity:0.8;stroke:#cccccc;stroke-linejoin:miter;"/>
    </g>
    <g id="line2d_18">
     <path d="M 350.47625 20.729852 
L 370.47625 20.729852 
" style="fill:none;stroke:#1f77b4;stroke-linecap:square;stroke-width:2;"/>
    </g>
    <g id="line2d_19"/>
    <g id="text_4">
     <!-- Authors -->
     <defs>
      <path d="M 34.1875 63.1875 
L 20.796875 26.90625 
L 47.609375 26.90625 
z
M 28.609375 72.90625 
L 39.796875 72.90625 
L 67.578125 0 
L 57.328125 0 
L 50.6875 18.703125 
L 17.828125 18.703125 
L 11.1875 0 
L 0.78125 0 
z
" id="DejaVuSans-65"/>
      <path d="M 54.890625 33.015625 
L 54.890625 0 
L 45.90625 0 
L 45.90625 32.71875 
Q 45.90625 40.484375 42.875 44.328125 
Q 39.84375 48.1875 33.796875 48.1875 
Q 26.515625 48.1875 22.3125 43.546875 
Q 18.109375 38.921875 18.109375 30.90625 
L 18.109375 0 
L 9.078125 0 
L 9.078125 75.984375 
L 18.109375 75.984375 
L 18.109375 46.1875 
Q 21.34375 51.125 25.703125 53.5625 
Q 30.078125 56 35.796875 56 
Q 45.21875 56 50.046875 50.171875 
Q 54.890625 44.34375 54.890625 33.015625 
z
" id="DejaVuSans-104"/>
      <path d="M 41.109375 46.296875 
Q 39.59375 47.171875 37.8125 47.578125 
Q 36.03125 48 33.890625 48 
Q 26.265625 48 22.1875 43.046875 
Q 18.109375 38.09375 18.109375 28.8125 
L 18.109375 0 
L 9.078125 0 
L 9.078125 54.6875 
L 18.109375 54.6875 
L 18.109375 46.1875 
Q 20.953125 51.171875 25.484375 53.578125 
Q 30.03125 56 36.53125 56 
Q 37.453125 56 38.578125 55.875 
Q 39.703125 55.765625 41.0625 55.515625 
z
" id="DejaVuSans-114"/>
      <path d="M 44.28125 53.078125 
L 44.28125 44.578125 
Q 40.484375 46.53125 36.375 47.5 
Q 32.28125 48.484375 27.875 48.484375 
Q 21.1875 48.484375 17.84375 46.4375 
Q 14.5 44.390625 14.5 40.28125 
Q 14.5 37.15625 16.890625 35.375 
Q 19.28125 33.59375 26.515625 31.984375 
L 29.59375 31.296875 
Q 39.15625 29.25 43.1875 25.515625 
Q 47.21875 21.78125 47.21875 15.09375 
Q 47.21875 7.46875 41.1875 3.015625 
Q 35.15625 -1.421875 24.609375 -1.421875 
Q 20.21875 -1.421875 15.453125 -0.5625 
Q 10.6875 0.296875 5.421875 2 
L 5.421875 11.28125 
Q 10.40625 8.6875 15.234375 7.390625 
Q 20.0625 6.109375 24.8125 6.109375 
Q 31.15625 6.109375 34.5625 8.28125 
Q 37.984375 10.453125 37.984375 14.40625 
Q 37.984375 18.0625 35.515625 20.015625 
Q 33.0625 21.96875 24.703125 23.78125 
L 21.578125 24.515625 
Q 13.234375 26.265625 9.515625 29.90625 
Q 5.8125 33.546875 5.8125 39.890625 
Q 5.8125 47.609375 11.28125 51.796875 
Q 16.75 56 26.8125 56 
Q 31.78125 56 36.171875 55.265625 
Q 40.578125 54.546875 44.28125 53.078125 
z
" id="DejaVuSans-115"/>
     </defs>
     <g transform="translate(378.47625 24.229852)scale(0.1 -0.1)">
      <use xlink:href="#DejaVuSans-65"/>
      <use x="68.408203" xlink:href="#DejaVuSans-117"/>
      <use x="131.787109" xlink:href="#DejaVuSans-116"/>
      <use x="170.996094" xlink:href="#DejaVuSans-104"/>
      <use x="234.375" xlink:href="#DejaVuSans-111"/>
      <use x="295.556641" xlink:href="#DejaVuSans-114"/>
      <use x="336.669922" xlink:href="#DejaVuSans-115"/>
     </g>
    </g>
   </g>
  </g>
  <g id="axes_2">
   <g id="patch_6">
    <path d="M 69.23125 91.266614 
L 426.35125 91.266614 
L 426.35125 53.250614 
L 69.23125 53.250614 
z
" style="fill:#ffffff;"/>
   </g>
   <g id="matplotlib.axis_3">
    <g id="xtick_7">
     <g id="line2d_20">
      <path clip-path="url(#pd066cb9c32)" d="M 85.463977 91.266614 
L 85.463977 53.250614 
" style="fill:none;stroke:#d3d3d3;stroke-linecap:square;stroke-width:0.8;"/>
     </g>
     <g id="line2d_21">
      <g>
       <use style="stroke:#000000;stroke-width:0.8;" x="85.463977" xlink:href="#m60ed9ed36a" y="91.266614"/>
      </g>
     </g>
    </g>
    <g id="xtick_8">
     <g id="line2d_22">
      <path clip-path="url(#pd066cb9c32)" d="M 150.786823 91.266614 
L 150.786823 53.250614 
" style="fill:none;stroke:#d3d3d3;stroke-linecap:square;stroke-width:0.8;"/>
     </g>
     <g id="line2d_23">
      <g>
       <use style="stroke:#000000;stroke-width:0.8;" x="150.786823" xlink:href="#m60ed9ed36a" y="91.266614"/>
      </g>
     </g>
    </g>
    <g id="xtick_9">
     <g id="line2d_24">
      <path clip-path="url(#pd066cb9c32)" d="M 216.10967 91.266614 
L 216.10967 53.250614 
" style="fill:none;stroke:#d3d3d3;stroke-linecap:square;stroke-width:0.8;"/>
     </g>
     <g id="line2d_25">
      <g>
       <use style="stroke:#000000;stroke-width:0.8;" x="216.10967" xlink:href="#m60ed9ed36a" y="91.266614"/>
      </g>
     </g>
    </g>
    <g id="xtick_10">
     <g id="line2d_26">
      <path clip-path="url(#pd066cb9c32)" d="M 281.432516 91.266614 
L 281.432516 53.250614 
" style="fill:none;stroke:#d3d3d3;stroke-linecap:square;stroke-width:0.8;"/>
     </g>
     <g id="line2d_27">
      <g>
       <use style="stroke:#000000;stroke-width:0.8;" x="281.432516" xlink:href="#m60ed9ed36a" y="91.266614"/>
      </g>
     </g>
    </g>
    <g id="xtick_11">
     <g id="line2d_28">
      <path clip-path="url(#pd066cb9c32)" d="M 346.755362 91.266614 
L 346.755362 53.250614 
" style="fill:none;stroke:#d3d3d3;stroke-linecap:square;stroke-width:0.8;"/>
     </g>
     <g id="line2d_29">
      <g>
       <use style="stroke:#000000;stroke-width:0.8;" x="346.755362" xlink:href="#m60ed9ed36a" y="91.266614"/>
      </g>
     </g>
    </g>
    <g id="xtick_12">
     <g id="line2d_30">
      <path clip-path="url(#pd066cb9c32)" d="M 412.078208 91.266614 
L 412.078208 53.250614 
" style="fill:none;stroke:#d3d3d3;stroke-linecap:square;stroke-width:0.8;"/>
     </g>
     <g id="line2d_31">
      <g>
       <use style="stroke:#000000;stroke-width:0.8;" x="412.078208" xlink:href="#m60ed9ed36a" y="91.266614"/>
      </g>
     </g>
    </g>
   </g>
   <g id="matplotlib.axis_4">
    <g id="ytick_3">
     <g id="line2d_32">
      <path clip-path="url(#pd066cb9c32)" d="M 69.23125 91.266614 
L 426.35125 91.266614 
" style="fill:none;stroke:#d3d3d3;stroke-linecap:square;stroke-width:0.8;"/>
     </g>
     <g id="line2d_33">
      <g>
       <use style="stroke:#000000;stroke-width:0.8;" x="69.23125" xlink:href="#m06162a65fb" y="91.266614"/>
      </g>
     </g>
     <g id="text_5">
      <!-- 0 -->
      <g transform="translate(55.86875 95.065833)scale(0.1 -0.1)">
       <use xlink:href="#DejaVuSans-48"/>
      </g>
     </g>
    </g>
    <g id="ytick_4">
     <g id="line2d_34">
      <path clip-path="url(#pd066cb9c32)" d="M 69.23125 63.078666 
L 426.35125 63.078666 
" style="fill:none;stroke:#d3d3d3;stroke-linecap:square;stroke-width:0.8;"/>
     </g>
     <g id="line2d_35">
      <g>
       <use style="stroke:#000000;stroke-width:0.8;" x="69.23125" xlink:href="#m06162a65fb" y="63.078666"/>
      </g>
     </g>
     <g id="text_6">
      <!-- 100,000 -->
      <defs>
       <path d="M 12.40625 8.296875 
L 28.515625 8.296875 
L 28.515625 63.921875 
L 10.984375 60.40625 
L 10.984375 69.390625 
L 28.421875 72.90625 
L 38.28125 72.90625 
L 38.28125 8.296875 
L 54.390625 8.296875 
L 54.390625 0 
L 12.40625 0 
z
" id="DejaVuSans-49"/>
       <path d="M 11.71875 12.40625 
L 22.015625 12.40625 
L 22.015625 4 
L 14.015625 -11.625 
L 7.71875 -11.625 
L 11.71875 4 
z
" id="DejaVuSans-44"/>
      </defs>
      <g transform="translate(20.878125 66.877885)scale(0.1 -0.1)">
       <use xlink:href="#DejaVuSans-49"/>
       <use x="63.623047" xlink:href="#DejaVuSans-48"/>
       <use x="127.246094" xlink:href="#DejaVuSans-48"/>
       <use x="190.869141" xlink:href="#DejaVuSans-44"/>
       <use x="222.65625" xlink:href="#DejaVuSans-48"/>
       <use x="286.279297" xlink:href="#DejaVuSans-48"/>
       <use x="349.902344" xlink:href="#DejaVuSans-48"/>
      </g>
     </g>
    </g>
    <g id="text_7">
     <!-- Count -->
     <g transform="translate(14.798438 87.107052)rotate(-90)scale(0.1 -0.1)">
      <use xlink:href="#DejaVuSans-67"/>
      <use x="69.824219" xlink:href="#DejaVuSans-111"/>
      <use x="131.005859" xlink:href="#DejaVuSans-117"/>
      <use x="194.384766" xlink:href="#DejaVuSans-110"/>
      <use x="257.763672" xlink:href="#DejaVuSans-116"/>
     </g>
    </g>
   </g>
   <g id="line2d_36">
    <path clip-path="url(#pd066cb9c32)" d="M 407.505609 53.260522 
L 410.118523 53.263341 
L 410.118523 53.263341 
" style="fill:none;stroke:#ff7f0e;stroke-linecap:square;stroke-width:2;"/>
   </g>
   <g id="patch_7">
    <path d="M 69.23125 91.266614 
L 69.23125 53.250614 
" style="fill:none;stroke:#000000;stroke-linecap:square;stroke-linejoin:miter;stroke-width:0.8;"/>
   </g>
   <g id="patch_8">
    <path d="M 69.23125 91.266614 
L 426.35125 91.266614 
" style="fill:none;stroke:#000000;stroke-linecap:square;stroke-linejoin:miter;stroke-width:0.8;"/>
   </g>
   <g id="legend_2">
    <g id="patch_9">
     <path d="M 328.02 75.928739 
L 419.35125 75.928739 
Q 421.35125 75.928739 421.35125 73.928739 
L 421.35125 60.250614 
Q 421.35125 58.250614 419.35125 58.250614 
L 328.02 58.250614 
Q 326.02 58.250614 326.02 60.250614 
L 326.02 73.928739 
Q 326.02 75.928739 328.02 75.928739 
z
" style="fill:#ffffff;opacity:0.8;stroke:#cccccc;stroke-linejoin:miter;"/>
    </g>
    <g id="line2d_37">
     <path d="M 330.02 66.349052 
L 350.02 66.349052 
" style="fill:none;stroke:#ff7f0e;stroke-linecap:square;stroke-width:2;"/>
    </g>
    <g id="line2d_38"/>
    <g id="text_8">
     <!-- Word Count -->
     <defs>
      <path d="M 3.328125 72.90625 
L 13.28125 72.90625 
L 28.609375 11.28125 
L 43.890625 72.90625 
L 54.984375 72.90625 
L 70.3125 11.28125 
L 85.59375 72.90625 
L 95.609375 72.90625 
L 77.296875 0 
L 64.890625 0 
L 49.515625 63.28125 
L 33.984375 0 
L 21.578125 0 
z
" id="DejaVuSans-87"/>
      <path d="M 45.40625 46.390625 
L 45.40625 75.984375 
L 54.390625 75.984375 
L 54.390625 0 
L 45.40625 0 
L 45.40625 8.203125 
Q 42.578125 3.328125 38.25 0.953125 
Q 33.9375 -1.421875 27.875 -1.421875 
Q 17.96875 -1.421875 11.734375 6.484375 
Q 5.515625 14.40625 5.515625 27.296875 
Q 5.515625 40.1875 11.734375 48.09375 
Q 17.96875 56 27.875 56 
Q 33.9375 56 38.25 53.625 
Q 42.578125 51.265625 45.40625 46.390625 
z
M 14.796875 27.296875 
Q 14.796875 17.390625 18.875 11.75 
Q 22.953125 6.109375 30.078125 6.109375 
Q 37.203125 6.109375 41.296875 11.75 
Q 45.40625 17.390625 45.40625 27.296875 
Q 45.40625 37.203125 41.296875 42.84375 
Q 37.203125 48.484375 30.078125 48.484375 
Q 22.953125 48.484375 18.875 42.84375 
Q 14.796875 37.203125 14.796875 27.296875 
z
" id="DejaVuSans-100"/>
      <path id="DejaVuSans-32"/>
     </defs>
     <g transform="translate(358.02 69.849052)scale(0.1 -0.1)">
      <use xlink:href="#DejaVuSans-87"/>
      <use x="98.798828" xlink:href="#DejaVuSans-111"/>
      <use x="159.980469" xlink:href="#DejaVuSans-114"/>
      <use x="201.078125" xlink:href="#DejaVuSans-100"/>
      <use x="264.554688" xlink:href="#DejaVuSans-32"/>
      <use x="296.341797" xlink:href="#DejaVuSans-67"/>
      <use x="366.166016" xlink:href="#DejaVuSans-111"/>
      <use x="427.347656" xlink:href="#DejaVuSans-117"/>
      <use x="490.726562" xlink:href="#DejaVuSans-110"/>
      <use x="554.105469" xlink:href="#DejaVuSans-116"/>
     </g>
    </g>
   </g>
  </g>
  <g id="axes_3">
   <g id="patch_10">
    <path d="M 69.23125 136.885814 
L 426.35125 136.885814 
L 426.35125 98.869814 
L 69.23125 98.869814 
z
" style="fill:#ffffff;"/>
   </g>
   <g id="matplotlib.axis_5">
    <g id="xtick_13">
     <g id="line2d_39">
      <path clip-path="url(#p2d58512991)" d="M 85.463977 136.885814 
L 85.463977 98.869814 
" style="fill:none;stroke:#d3d3d3;stroke-linecap:square;stroke-width:0.8;"/>
     </g>
     <g id="line2d_40">
      <g>
       <use style="stroke:#000000;stroke-width:0.8;" x="85.463977" xlink:href="#m60ed9ed36a" y="136.885814"/>
      </g>
     </g>
    </g>
    <g id="xtick_14">
     <g id="line2d_41">
      <path clip-path="url(#p2d58512991)" d="M 150.786823 136.885814 
L 150.786823 98.869814 
" style="fill:none;stroke:#d3d3d3;stroke-linecap:square;stroke-width:0.8;"/>
     </g>
     <g id="line2d_42">
      <g>
       <use style="stroke:#000000;stroke-width:0.8;" x="150.786823" xlink:href="#m60ed9ed36a" y="136.885814"/>
      </g>
     </g>
    </g>
    <g id="xtick_15">
     <g id="line2d_43">
      <path clip-path="url(#p2d58512991)" d="M 216.10967 136.885814 
L 216.10967 98.869814 
" style="fill:none;stroke:#d3d3d3;stroke-linecap:square;stroke-width:0.8;"/>
     </g>
     <g id="line2d_44">
      <g>
       <use style="stroke:#000000;stroke-width:0.8;" x="216.10967" xlink:href="#m60ed9ed36a" y="136.885814"/>
      </g>
     </g>
    </g>
    <g id="xtick_16">
     <g id="line2d_45">
      <path clip-path="url(#p2d58512991)" d="M 281.432516 136.885814 
L 281.432516 98.869814 
" style="fill:none;stroke:#d3d3d3;stroke-linecap:square;stroke-width:0.8;"/>
     </g>
     <g id="line2d_46">
      <g>
       <use style="stroke:#000000;stroke-width:0.8;" x="281.432516" xlink:href="#m60ed9ed36a" y="136.885814"/>
      </g>
     </g>
    </g>
    <g id="xtick_17">
     <g id="line2d_47">
      <path clip-path="url(#p2d58512991)" d="M 346.755362 136.885814 
L 346.755362 98.869814 
" style="fill:none;stroke:#d3d3d3;stroke-linecap:square;stroke-width:0.8;"/>
     </g>
     <g id="line2d_48">
      <g>
       <use style="stroke:#000000;stroke-width:0.8;" x="346.755362" xlink:href="#m60ed9ed36a" y="136.885814"/>
      </g>
     </g>
    </g>
    <g id="xtick_18">
     <g id="line2d_49">
      <path clip-path="url(#p2d58512991)" d="M 412.078208 136.885814 
L 412.078208 98.869814 
" style="fill:none;stroke:#d3d3d3;stroke-linecap:square;stroke-width:0.8;"/>
     </g>
     <g id="line2d_50">
      <g>
       <use style="stroke:#000000;stroke-width:0.8;" x="412.078208" xlink:href="#m60ed9ed36a" y="136.885814"/>
      </g>
     </g>
    </g>
   </g>
   <g id="matplotlib.axis_6">
    <g id="ytick_5">
     <g id="line2d_51">
      <path clip-path="url(#p2d58512991)" d="M 69.23125 136.885814 
L 426.35125 136.885814 
" style="fill:none;stroke:#d3d3d3;stroke-linecap:square;stroke-width:0.8;"/>
     </g>
     <g id="line2d_52">
      <g>
       <use style="stroke:#000000;stroke-width:0.8;" x="69.23125" xlink:href="#m06162a65fb" y="136.885814"/>
      </g>
     </g>
     <g id="text_9">
      <!-- 0 -->
      <g transform="translate(55.86875 140.685033)scale(0.1 -0.1)">
       <use xlink:href="#DejaVuSans-48"/>
      </g>
     </g>
    </g>
    <g id="ytick_6">
     <g id="line2d_53">
      <path clip-path="url(#p2d58512991)" d="M 69.23125 112.947021 
L 426.35125 112.947021 
" style="fill:none;stroke:#d3d3d3;stroke-linecap:square;stroke-width:0.8;"/>
     </g>
     <g id="line2d_54">
      <g>
       <use style="stroke:#000000;stroke-width:0.8;" x="69.23125" xlink:href="#m06162a65fb" y="112.947021"/>
      </g>
     </g>
     <g id="text_10">
      <!-- 1,000 -->
      <g transform="translate(33.603125 116.74624)scale(0.1 -0.1)">
       <use xlink:href="#DejaVuSans-49"/>
       <use x="63.623047" xlink:href="#DejaVuSans-44"/>
       <use x="95.410156" xlink:href="#DejaVuSans-48"/>
       <use x="159.033203" xlink:href="#DejaVuSans-48"/>
       <use x="222.65625" xlink:href="#DejaVuSans-48"/>
      </g>
     </g>
    </g>
    <g id="text_11">
     <!-- Count -->
     <g transform="translate(27.523438 132.726252)rotate(-90)scale(0.1 -0.1)">
      <use xlink:href="#DejaVuSans-67"/>
      <use x="69.824219" xlink:href="#DejaVuSans-111"/>
      <use x="131.005859" xlink:href="#DejaVuSans-117"/>
      <use x="194.384766" xlink:href="#DejaVuSans-110"/>
      <use x="257.763672" xlink:href="#DejaVuSans-116"/>
     </g>
    </g>
   </g>
   <g id="line2d_55">
    <path clip-path="url(#p2d58512991)" d="M 407.505609 98.89495 
L 410.118523 98.871011 
L 410.118523 98.871011 
" style="fill:none;stroke:#2ca02c;stroke-linecap:square;stroke-width:2;"/>
   </g>
   <g id="patch_11">
    <path d="M 69.23125 136.885814 
L 69.23125 98.869814 
" style="fill:none;stroke:#000000;stroke-linecap:square;stroke-linejoin:miter;stroke-width:0.8;"/>
   </g>
   <g id="patch_12">
    <path d="M 69.23125 136.885814 
L 426.35125 136.885814 
" style="fill:none;stroke:#000000;stroke-linecap:square;stroke-linejoin:miter;stroke-width:0.8;"/>
   </g>
   <g id="legend_3">
    <g id="patch_13">
     <path d="M 331.123125 121.547939 
L 419.35125 121.547939 
Q 421.35125 121.547939 421.35125 119.547939 
L 421.35125 105.869814 
Q 421.35125 103.869814 419.35125 103.869814 
L 331.123125 103.869814 
Q 329.123125 103.869814 329.123125 105.869814 
L 329.123125 119.547939 
Q 329.123125 121.547939 331.123125 121.547939 
z
" style="fill:#ffffff;opacity:0.8;stroke:#cccccc;stroke-linejoin:miter;"/>
    </g>
    <g id="line2d_56">
     <path d="M 333.123125 111.968252 
L 353.123125 111.968252 
" style="fill:none;stroke:#2ca02c;stroke-linecap:square;stroke-width:2;"/>
    </g>
    <g id="line2d_57"/>
    <g id="text_12">
     <!-- References -->
     <defs>
      <path d="M 44.390625 34.1875 
Q 47.5625 33.109375 50.5625 29.59375 
Q 53.5625 26.078125 56.59375 19.921875 
L 66.609375 0 
L 56 0 
L 46.6875 18.703125 
Q 43.0625 26.03125 39.671875 28.421875 
Q 36.28125 30.8125 30.421875 30.8125 
L 19.671875 30.8125 
L 19.671875 0 
L 9.8125 0 
L 9.8125 72.90625 
L 32.078125 72.90625 
Q 44.578125 72.90625 50.734375 67.671875 
Q 56.890625 62.453125 56.890625 51.90625 
Q 56.890625 45.015625 53.6875 40.46875 
Q 50.484375 35.9375 44.390625 34.1875 
z
M 19.671875 64.796875 
L 19.671875 38.921875 
L 32.078125 38.921875 
Q 39.203125 38.921875 42.84375 42.21875 
Q 46.484375 45.515625 46.484375 51.90625 
Q 46.484375 58.296875 42.84375 61.546875 
Q 39.203125 64.796875 32.078125 64.796875 
z
" id="DejaVuSans-82"/>
      <path d="M 56.203125 29.59375 
L 56.203125 25.203125 
L 14.890625 25.203125 
Q 15.484375 15.921875 20.484375 11.0625 
Q 25.484375 6.203125 34.421875 6.203125 
Q 39.59375 6.203125 44.453125 7.46875 
Q 49.3125 8.734375 54.109375 11.28125 
L 54.109375 2.78125 
Q 49.265625 0.734375 44.1875 -0.34375 
Q 39.109375 -1.421875 33.890625 -1.421875 
Q 20.796875 -1.421875 13.15625 6.1875 
Q 5.515625 13.8125 5.515625 26.8125 
Q 5.515625 40.234375 12.765625 48.109375 
Q 20.015625 56 32.328125 56 
Q 43.359375 56 49.78125 48.890625 
Q 56.203125 41.796875 56.203125 29.59375 
z
M 47.21875 32.234375 
Q 47.125 39.59375 43.09375 43.984375 
Q 39.0625 48.390625 32.421875 48.390625 
Q 24.90625 48.390625 20.390625 44.140625 
Q 15.875 39.890625 15.1875 32.171875 
z
" id="DejaVuSans-101"/>
      <path d="M 37.109375 75.984375 
L 37.109375 68.5 
L 28.515625 68.5 
Q 23.6875 68.5 21.796875 66.546875 
Q 19.921875 64.59375 19.921875 59.515625 
L 19.921875 54.6875 
L 34.71875 54.6875 
L 34.71875 47.703125 
L 19.921875 47.703125 
L 19.921875 0 
L 10.890625 0 
L 10.890625 47.703125 
L 2.296875 47.703125 
L 2.296875 54.6875 
L 10.890625 54.6875 
L 10.890625 58.5 
Q 10.890625 67.625 15.140625 71.796875 
Q 19.390625 75.984375 28.609375 75.984375 
z
" id="DejaVuSans-102"/>
      <path d="M 48.78125 52.59375 
L 48.78125 44.1875 
Q 44.96875 46.296875 41.140625 47.34375 
Q 37.3125 48.390625 33.40625 48.390625 
Q 24.65625 48.390625 19.8125 42.84375 
Q 14.984375 37.3125 14.984375 27.296875 
Q 14.984375 17.28125 19.8125 11.734375 
Q 24.65625 6.203125 33.40625 6.203125 
Q 37.3125 6.203125 41.140625 7.25 
Q 44.96875 8.296875 48.78125 10.40625 
L 48.78125 2.09375 
Q 45.015625 0.34375 40.984375 -0.53125 
Q 36.96875 -1.421875 32.421875 -1.421875 
Q 20.0625 -1.421875 12.78125 6.34375 
Q 5.515625 14.109375 5.515625 27.296875 
Q 5.515625 40.671875 12.859375 48.328125 
Q 20.21875 56 33.015625 56 
Q 37.15625 56 41.109375 55.140625 
Q 45.0625 54.296875 48.78125 52.59375 
z
" id="DejaVuSans-99"/>
     </defs>
     <g transform="translate(361.123125 115.468252)scale(0.1 -0.1)">
      <use xlink:href="#DejaVuSans-82"/>
      <use x="69.419922" xlink:href="#DejaVuSans-101"/>
      <use x="130.943359" xlink:href="#DejaVuSans-102"/>
      <use x="166.148438" xlink:href="#DejaVuSans-101"/>
      <use x="227.671875" xlink:href="#DejaVuSans-114"/>
      <use x="268.753906" xlink:href="#DejaVuSans-101"/>
      <use x="330.277344" xlink:href="#DejaVuSans-110"/>
      <use x="393.65625" xlink:href="#DejaVuSans-99"/>
      <use x="448.636719" xlink:href="#DejaVuSans-101"/>
      <use x="510.160156" xlink:href="#DejaVuSans-115"/>
     </g>
    </g>
   </g>
  </g>
  <g id="axes_4">
   <g id="patch_14">
    <path d="M 69.23125 182.505014 
L 426.35125 182.505014 
L 426.35125 144.489014 
L 69.23125 144.489014 
z
" style="fill:#ffffff;"/>
   </g>
   <g id="matplotlib.axis_7">
    <g id="xtick_19">
     <g id="line2d_58">
      <path clip-path="url(#p3dcfe0cb30)" d="M 85.463977 182.505014 
L 85.463977 144.489014 
" style="fill:none;stroke:#d3d3d3;stroke-linecap:square;stroke-width:0.8;"/>
     </g>
     <g id="line2d_59">
      <g>
       <use style="stroke:#000000;stroke-width:0.8;" x="85.463977" xlink:href="#m60ed9ed36a" y="182.505014"/>
      </g>
     </g>
    </g>
    <g id="xtick_20">
     <g id="line2d_60">
      <path clip-path="url(#p3dcfe0cb30)" d="M 150.786823 182.505014 
L 150.786823 144.489014 
" style="fill:none;stroke:#d3d3d3;stroke-linecap:square;stroke-width:0.8;"/>
     </g>
     <g id="line2d_61">
      <g>
       <use style="stroke:#000000;stroke-width:0.8;" x="150.786823" xlink:href="#m60ed9ed36a" y="182.505014"/>
      </g>
     </g>
    </g>
    <g id="xtick_21">
     <g id="line2d_62">
      <path clip-path="url(#p3dcfe0cb30)" d="M 216.10967 182.505014 
L 216.10967 144.489014 
" style="fill:none;stroke:#d3d3d3;stroke-linecap:square;stroke-width:0.8;"/>
     </g>
     <g id="line2d_63">
      <g>
       <use style="stroke:#000000;stroke-width:0.8;" x="216.10967" xlink:href="#m60ed9ed36a" y="182.505014"/>
      </g>
     </g>
    </g>
    <g id="xtick_22">
     <g id="line2d_64">
      <path clip-path="url(#p3dcfe0cb30)" d="M 281.432516 182.505014 
L 281.432516 144.489014 
" style="fill:none;stroke:#d3d3d3;stroke-linecap:square;stroke-width:0.8;"/>
     </g>
     <g id="line2d_65">
      <g>
       <use style="stroke:#000000;stroke-width:0.8;" x="281.432516" xlink:href="#m60ed9ed36a" y="182.505014"/>
      </g>
     </g>
    </g>
    <g id="xtick_23">
     <g id="line2d_66">
      <path clip-path="url(#p3dcfe0cb30)" d="M 346.755362 182.505014 
L 346.755362 144.489014 
" style="fill:none;stroke:#d3d3d3;stroke-linecap:square;stroke-width:0.8;"/>
     </g>
     <g id="line2d_67">
      <g>
       <use style="stroke:#000000;stroke-width:0.8;" x="346.755362" xlink:href="#m60ed9ed36a" y="182.505014"/>
      </g>
     </g>
    </g>
    <g id="xtick_24">
     <g id="line2d_68">
      <path clip-path="url(#p3dcfe0cb30)" d="M 412.078208 182.505014 
L 412.078208 144.489014 
" style="fill:none;stroke:#d3d3d3;stroke-linecap:square;stroke-width:0.8;"/>
     </g>
     <g id="line2d_69">
      <g>
       <use style="stroke:#000000;stroke-width:0.8;" x="412.078208" xlink:href="#m60ed9ed36a" y="182.505014"/>
      </g>
     </g>
    </g>
   </g>
   <g id="matplotlib.axis_8">
    <g id="ytick_7">
     <g id="line2d_70">
      <path clip-path="url(#p3dcfe0cb30)" d="M 69.23125 182.505014 
L 426.35125 182.505014 
" style="fill:none;stroke:#d3d3d3;stroke-linecap:square;stroke-width:0.8;"/>
     </g>
     <g id="line2d_71">
      <g>
       <use style="stroke:#000000;stroke-width:0.8;" x="69.23125" xlink:href="#m06162a65fb" y="182.505014"/>
      </g>
     </g>
     <g id="text_13">
      <!-- 0 -->
      <g transform="translate(55.86875 186.304233)scale(0.1 -0.1)">
       <use xlink:href="#DejaVuSans-48"/>
      </g>
     </g>
    </g>
    <g id="ytick_8">
     <g id="line2d_72">
      <path clip-path="url(#p3dcfe0cb30)" d="M 69.23125 147.62795 
L 426.35125 147.62795 
" style="fill:none;stroke:#d3d3d3;stroke-linecap:square;stroke-width:0.8;"/>
     </g>
     <g id="line2d_73">
      <g>
       <use style="stroke:#000000;stroke-width:0.8;" x="69.23125" xlink:href="#m06162a65fb" y="147.62795"/>
      </g>
     </g>
     <g id="text_14">
      <!-- 50 -->
      <g transform="translate(49.50625 151.427169)scale(0.1 -0.1)">
       <use xlink:href="#DejaVuSans-53"/>
       <use x="63.623047" xlink:href="#DejaVuSans-48"/>
      </g>
     </g>
    </g>
    <g id="text_15">
     <!-- Count -->
     <g transform="translate(43.426563 178.345452)rotate(-90)scale(0.1 -0.1)">
      <use xlink:href="#DejaVuSans-67"/>
      <use x="69.824219" xlink:href="#DejaVuSans-111"/>
      <use x="131.005859" xlink:href="#DejaVuSans-117"/>
      <use x="194.384766" xlink:href="#DejaVuSans-110"/>
      <use x="257.763672" xlink:href="#DejaVuSans-116"/>
     </g>
    </g>
   </g>
   <g id="line2d_74">
    <path clip-path="url(#p3dcfe0cb30)" d="M 85.463977 181.109932 
L 92.64949 181.109932 
L 93.302719 180.41239 
L 99.181775 180.41239 
L 99.835003 179.714849 
L 102.447917 179.714849 
L 103.101146 179.017308 
L 105.71406 179.017308 
L 106.367288 178.319766 
L 110.939887 178.319766 
L 111.593116 177.622225 
L 114.859258 177.622225 
L 115.512487 176.924684 
L 116.818943 176.924684 
L 117.472172 176.227143 
L 119.431857 176.227143 
L 120.085086 175.529601 
L 124.657685 175.529601 
L 125.310913 174.83206 
L 131.18997 174.83206 
L 131.843198 174.134519 
L 134.456112 174.134519 
L 136.415797 172.041895 
L 137.069026 172.041895 
L 137.722254 171.344354 
L 140.335168 171.344354 
L 141.641625 169.949271 
L 142.294853 169.949271 
L 142.948082 169.25173 
L 143.60131 169.25173 
L 144.907767 167.856647 
L 148.17391 167.856647 
L 148.827138 167.159106 
L 151.440052 167.159106 
L 152.09328 166.461565 
L 153.399737 166.461565 
L 154.052966 165.764023 
L 162.544936 165.764023 
L 163.198164 165.066482 
L 163.851393 165.066482 
L 164.504621 164.368941 
L 169.730449 164.368941 
L 170.383677 162.973858 
L 171.690134 162.973858 
L 172.343363 162.276317 
L 174.303048 162.276317 
L 174.956277 161.578776 
L 179.528876 161.578776 
L 180.182104 160.881234 
L 185.407932 160.881234 
L 186.06116 160.183693 
L 191.286988 160.183693 
L 191.940217 159.486152 
L 201.085415 159.486152 
L 202.391872 158.091069 
L 203.0451 158.091069 
L 203.698329 157.393528 
L 216.10967 157.393528 
L 216.762898 155.998445 
L 222.641954 155.998445 
L 223.295183 155.300904 
L 235.053295 155.300904 
L 235.706523 154.603363 
L 236.359752 154.603363 
L 237.01298 153.905821 
L 240.279123 153.905821 
L 240.932351 153.20828 
L 249.424321 153.20828 
L 250.07755 152.510739 
L 281.432516 152.510739 
L 282.085744 151.813198 
L 285.351887 151.813198 
L 286.005115 152.510739 
L 289.271257 152.510739 
L 289.924486 151.813198 
L 290.577714 151.813198 
L 291.230943 152.510739 
L 299.722913 152.510739 
L 300.376141 151.813198 
L 305.601969 151.813198 
L 306.255197 151.115656 
L 309.52134 151.115656 
L 310.174568 150.418115 
L 367.658673 150.418115 
L 368.311901 149.720574 
L 372.8845 149.720574 
L 373.537729 149.023033 
L 374.844186 149.023033 
L 375.497414 148.325491 
L 378.763557 148.325491 
L 379.416785 147.62795 
L 380.070013 147.62795 
L 380.723242 146.930409 
L 382.029699 146.930409 
L 382.682927 146.232867 
L 406.85238 146.232867 
L 406.85238 146.232867 
" style="fill:none;stroke:#d62728;stroke-linecap:square;stroke-width:2;"/>
   </g>
   <g id="patch_15">
    <path d="M 69.23125 182.505014 
L 69.23125 144.489014 
" style="fill:none;stroke:#000000;stroke-linecap:square;stroke-linejoin:miter;stroke-width:0.8;"/>
   </g>
   <g id="patch_16">
    <path d="M 69.23125 182.505014 
L 426.35125 182.505014 
" style="fill:none;stroke:#000000;stroke-linecap:square;stroke-linejoin:miter;stroke-width:0.8;"/>
   </g>
   <g id="legend_4">
    <g id="patch_17">
     <path d="M 321.773125 177.505014 
L 419.35125 177.505014 
Q 421.35125 177.505014 421.35125 175.505014 
L 421.35125 161.548764 
Q 421.35125 159.548764 419.35125 159.548764 
L 321.773125 159.548764 
Q 319.773125 159.548764 319.773125 161.548764 
L 319.773125 175.505014 
Q 319.773125 177.505014 321.773125 177.505014 
z
" style="fill:#ffffff;opacity:0.8;stroke:#cccccc;stroke-linejoin:miter;"/>
    </g>
    <g id="line2d_75">
     <path d="M 323.773125 167.647202 
L 343.773125 167.647202 
" style="fill:none;stroke:#d62728;stroke-linecap:square;stroke-width:2;"/>
    </g>
    <g id="line2d_76"/>
    <g id="text_16">
     <!-- num_authors -->
     <defs>
      <path d="M 52 44.1875 
Q 55.375 50.25 60.0625 53.125 
Q 64.75 56 71.09375 56 
Q 79.640625 56 84.28125 50.015625 
Q 88.921875 44.046875 88.921875 33.015625 
L 88.921875 0 
L 79.890625 0 
L 79.890625 32.71875 
Q 79.890625 40.578125 77.09375 44.375 
Q 74.3125 48.1875 68.609375 48.1875 
Q 61.625 48.1875 57.5625 43.546875 
Q 53.515625 38.921875 53.515625 30.90625 
L 53.515625 0 
L 44.484375 0 
L 44.484375 32.71875 
Q 44.484375 40.625 41.703125 44.40625 
Q 38.921875 48.1875 33.109375 48.1875 
Q 26.21875 48.1875 22.15625 43.53125 
Q 18.109375 38.875 18.109375 30.90625 
L 18.109375 0 
L 9.078125 0 
L 9.078125 54.6875 
L 18.109375 54.6875 
L 18.109375 46.1875 
Q 21.1875 51.21875 25.484375 53.609375 
Q 29.78125 56 35.6875 56 
Q 41.65625 56 45.828125 52.96875 
Q 50 49.953125 52 44.1875 
z
" id="DejaVuSans-109"/>
      <path d="M 50.984375 -16.609375 
L 50.984375 -23.578125 
L -0.984375 -23.578125 
L -0.984375 -16.609375 
z
" id="DejaVuSans-95"/>
      <path d="M 34.28125 27.484375 
Q 23.390625 27.484375 19.1875 25 
Q 14.984375 22.515625 14.984375 16.5 
Q 14.984375 11.71875 18.140625 8.90625 
Q 21.296875 6.109375 26.703125 6.109375 
Q 34.1875 6.109375 38.703125 11.40625 
Q 43.21875 16.703125 43.21875 25.484375 
L 43.21875 27.484375 
z
M 52.203125 31.203125 
L 52.203125 0 
L 43.21875 0 
L 43.21875 8.296875 
Q 40.140625 3.328125 35.546875 0.953125 
Q 30.953125 -1.421875 24.3125 -1.421875 
Q 15.921875 -1.421875 10.953125 3.296875 
Q 6 8.015625 6 15.921875 
Q 6 25.140625 12.171875 29.828125 
Q 18.359375 34.515625 30.609375 34.515625 
L 43.21875 34.515625 
L 43.21875 35.40625 
Q 43.21875 41.609375 39.140625 45 
Q 35.0625 48.390625 27.6875 48.390625 
Q 23 48.390625 18.546875 47.265625 
Q 14.109375 46.140625 10.015625 43.890625 
L 10.015625 52.203125 
Q 14.9375 54.109375 19.578125 55.046875 
Q 24.21875 56 28.609375 56 
Q 40.484375 56 46.34375 49.84375 
Q 52.203125 43.703125 52.203125 31.203125 
z
" id="DejaVuSans-97"/>
     </defs>
     <g transform="translate(351.773125 171.147202)scale(0.1 -0.1)">
      <use xlink:href="#DejaVuSans-110"/>
      <use x="63.378906" xlink:href="#DejaVuSans-117"/>
      <use x="126.757812" xlink:href="#DejaVuSans-109"/>
      <use x="224.169922" xlink:href="#DejaVuSans-95"/>
      <use x="274.169922" xlink:href="#DejaVuSans-97"/>
      <use x="335.449219" xlink:href="#DejaVuSans-117"/>
      <use x="398.828125" xlink:href="#DejaVuSans-116"/>
      <use x="438.037109" xlink:href="#DejaVuSans-104"/>
      <use x="501.416016" xlink:href="#DejaVuSans-111"/>
      <use x="562.597656" xlink:href="#DejaVuSans-114"/>
      <use x="603.710938" xlink:href="#DejaVuSans-115"/>
     </g>
    </g>
   </g>
  </g>
  <g id="axes_5">
   <g id="patch_18">
    <path d="M 69.23125 228.124214 
L 426.35125 228.124214 
L 426.35125 190.108214 
L 69.23125 190.108214 
z
" style="fill:#ffffff;"/>
   </g>
   <g id="matplotlib.axis_9">
    <g id="xtick_25">
     <g id="line2d_77">
      <path clip-path="url(#pd1e8d51de9)" d="M 85.463977 228.124214 
L 85.463977 190.108214 
" style="fill:none;stroke:#d3d3d3;stroke-linecap:square;stroke-width:0.8;"/>
     </g>
     <g id="line2d_78">
      <g>
       <use style="stroke:#000000;stroke-width:0.8;" x="85.463977" xlink:href="#m60ed9ed36a" y="228.124214"/>
      </g>
     </g>
    </g>
    <g id="xtick_26">
     <g id="line2d_79">
      <path clip-path="url(#pd1e8d51de9)" d="M 150.786823 228.124214 
L 150.786823 190.108214 
" style="fill:none;stroke:#d3d3d3;stroke-linecap:square;stroke-width:0.8;"/>
     </g>
     <g id="line2d_80">
      <g>
       <use style="stroke:#000000;stroke-width:0.8;" x="150.786823" xlink:href="#m60ed9ed36a" y="228.124214"/>
      </g>
     </g>
    </g>
    <g id="xtick_27">
     <g id="line2d_81">
      <path clip-path="url(#pd1e8d51de9)" d="M 216.10967 228.124214 
L 216.10967 190.108214 
" style="fill:none;stroke:#d3d3d3;stroke-linecap:square;stroke-width:0.8;"/>
     </g>
     <g id="line2d_82">
      <g>
       <use style="stroke:#000000;stroke-width:0.8;" x="216.10967" xlink:href="#m60ed9ed36a" y="228.124214"/>
      </g>
     </g>
    </g>
    <g id="xtick_28">
     <g id="line2d_83">
      <path clip-path="url(#pd1e8d51de9)" d="M 281.432516 228.124214 
L 281.432516 190.108214 
" style="fill:none;stroke:#d3d3d3;stroke-linecap:square;stroke-width:0.8;"/>
     </g>
     <g id="line2d_84">
      <g>
       <use style="stroke:#000000;stroke-width:0.8;" x="281.432516" xlink:href="#m60ed9ed36a" y="228.124214"/>
      </g>
     </g>
    </g>
    <g id="xtick_29">
     <g id="line2d_85">
      <path clip-path="url(#pd1e8d51de9)" d="M 346.755362 228.124214 
L 346.755362 190.108214 
" style="fill:none;stroke:#d3d3d3;stroke-linecap:square;stroke-width:0.8;"/>
     </g>
     <g id="line2d_86">
      <g>
       <use style="stroke:#000000;stroke-width:0.8;" x="346.755362" xlink:href="#m60ed9ed36a" y="228.124214"/>
      </g>
     </g>
    </g>
    <g id="xtick_30">
     <g id="line2d_87">
      <path clip-path="url(#pd1e8d51de9)" d="M 412.078208 228.124214 
L 412.078208 190.108214 
" style="fill:none;stroke:#d3d3d3;stroke-linecap:square;stroke-width:0.8;"/>
     </g>
     <g id="line2d_88">
      <g>
       <use style="stroke:#000000;stroke-width:0.8;" x="412.078208" xlink:href="#m60ed9ed36a" y="228.124214"/>
      </g>
     </g>
    </g>
   </g>
   <g id="matplotlib.axis_10">
    <g id="ytick_9">
     <g id="line2d_89">
      <path clip-path="url(#pd1e8d51de9)" d="M 69.23125 228.124214 
L 426.35125 228.124214 
" style="fill:none;stroke:#d3d3d3;stroke-linecap:square;stroke-width:0.8;"/>
     </g>
     <g id="line2d_90">
      <g>
       <use style="stroke:#000000;stroke-width:0.8;" x="69.23125" xlink:href="#m06162a65fb" y="228.124214"/>
      </g>
     </g>
     <g id="text_17">
      <!-- 0 -->
      <g transform="translate(55.86875 231.923433)scale(0.1 -0.1)">
       <use xlink:href="#DejaVuSans-48"/>
      </g>
     </g>
    </g>
    <g id="ytick_10">
     <g id="line2d_91">
      <path clip-path="url(#pd1e8d51de9)" d="M 69.23125 205.861937 
L 426.35125 205.861937 
" style="fill:none;stroke:#d3d3d3;stroke-linecap:square;stroke-width:0.8;"/>
     </g>
     <g id="line2d_92">
      <g>
       <use style="stroke:#000000;stroke-width:0.8;" x="69.23125" xlink:href="#m06162a65fb" y="205.861937"/>
      </g>
     </g>
     <g id="text_18">
      <!-- 100,000 -->
      <g transform="translate(20.878125 209.661155)scale(0.1 -0.1)">
       <use xlink:href="#DejaVuSans-49"/>
       <use x="63.623047" xlink:href="#DejaVuSans-48"/>
       <use x="127.246094" xlink:href="#DejaVuSans-48"/>
       <use x="190.869141" xlink:href="#DejaVuSans-44"/>
       <use x="222.65625" xlink:href="#DejaVuSans-48"/>
       <use x="286.279297" xlink:href="#DejaVuSans-48"/>
       <use x="349.902344" xlink:href="#DejaVuSans-48"/>
      </g>
     </g>
    </g>
    <g id="text_19">
     <!-- Count -->
     <g transform="translate(14.798438 223.964652)rotate(-90)scale(0.1 -0.1)">
      <use xlink:href="#DejaVuSans-67"/>
      <use x="69.824219" xlink:href="#DejaVuSans-111"/>
      <use x="131.005859" xlink:href="#DejaVuSans-117"/>
      <use x="194.384766" xlink:href="#DejaVuSans-110"/>
      <use x="257.763672" xlink:href="#DejaVuSans-116"/>
     </g>
    </g>
   </g>
   <g id="line2d_93">
    <path clip-path="url(#pd1e8d51de9)" d="M 85.463977 227.813655 
L 91.343033 227.755773 
L 91.996262 227.623536 
L 95.915633 227.623536 
L 96.568861 227.474601 
L 111.593116 227.35483 
L 112.246344 227.612182 
L 116.165715 227.588806 
L 120.738314 227.489517 
L 122.044771 227.280919 
L 124.004457 227.279138 
L 124.657685 226.905132 
L 127.270599 226.850367 
L 128.577056 226.531348 
L 129.230284 226.52556 
L 129.883513 226.118828 
L 131.843198 226.118828 
L 133.149655 225.9178 
L 133.802883 226.118828 
L 142.294853 226.011747 
L 142.948082 225.735472 
L 143.60131 225.713432 
L 144.254539 217.071439 
L 144.907767 217.071439 
L 145.560996 216.863509 
L 146.214224 216.520893 
L 148.827138 216.377746 
L 149.480367 215.983036 
L 150.786823 215.973686 
L 152.09328 215.870611 
L 154.706194 215.825864 
L 155.359423 215.617267 
L 159.932022 215.596563 
L 161.891707 215.379506 
L 163.198164 215.379283 
L 163.851393 215.227899 
L 167.117535 215.139518 
L 167.770763 214.966763 
L 170.383677 214.963201 
L 171.036906 214.747257 
L 172.996591 214.747257 
L 174.303048 214.556469 
L 182.795018 214.463413 
L 183.448247 198.609777 
L 188.674074 198.534976 
L 189.980531 198.37914 
L 191.940217 198.283412 
L 192.593445 198.0481 
L 208.270928 197.426537 
L 208.924157 197.214155 
L 212.190299 197.11442 
L 212.843527 196.924968 
L 215.456441 196.905155 
L 216.10967 196.6832 
L 220.02904 196.606172 
L 221.335497 196.38867 
L 221.988726 196.199218 
L 223.948411 196.180072 
L 225.908097 196.114621 
L 234.400067 196.079892 
L 235.053295 211.933528 
L 237.01298 211.638775 
L 237.666209 211.146111 
L 238.972666 211.053055 
L 243.545265 210.996063 
L 244.851722 210.843344 
L 247.464636 210.69196 
L 248.117864 210.484699 
L 252.037235 210.352906 
L 252.690463 210.093105 
L 253.99692 210.032774 
L 255.303377 209.579069 
L 255.956606 209.737799 
L 257.916291 209.604003 
L 259.875977 209.403865 
L 260.529205 209.179016 
L 262.48889 209.261609 
L 263.142119 209.017169 
L 265.755033 209.018282 
L 266.408261 208.653626 
L 285.351887 208.54699 
L 286.005115 208.542092 
L 286.658343 208.670768 
L 288.618029 208.670768 
L 289.271257 208.045421 
L 289.924486 207.666962 
L 293.190628 207.635127 
L 297.109999 207.656276 
L 297.763227 206.645346 
L 298.416456 206.645346 
L 299.722913 206.169379 
L 301.02937 206.199655 
L 301.682598 205.46411 
L 302.335827 205.173142 
L 306.255197 205.070735 
L 307.561654 205.087209 
L 317.360081 205.007956 
L 318.666538 204.898203 
L 321.279452 204.904436 
L 321.93268 204.763961 
L 323.239137 204.659774 
L 324.545594 204.563823 
L 326.50528 204.41333 
L 327.158508 204.116352 
L 330.42465 204.130154 
L 331.077879 203.803344 
L 337.610163 203.707393 
L 338.91662 203.619903 
L 343.48922 203.611666 
L 344.142448 203.326486 
L 345.448905 203.098743 
L 348.715047 202.773936 
L 350.674733 202.723178 
L 351.327961 202.593167 
L 357.207017 202.539737 
L 357.860246 202.287505 
L 360.47316 202.232295 
L 361.126388 201.594481 
L 361.779617 201.594481 
L 362.432845 201.281028 
L 367.005444 200.895 
L 368.311901 200.818863 
L 369.618358 200.749627 
L 370.271587 200.442185 
L 372.8845 200.442853 
L 373.537729 200.309947 
L 374.190957 200.309947 
L 374.844186 199.01317 
L 376.150643 198.97332 
L 376.803871 198.77385 
L 380.070013 198.749362 
L 382.682927 198.67456 
L 383.336156 198.243563 
L 384.642613 198.18479 
L 385.295841 191.903711 
L 385.94907 196.178291 
L 386.602298 196.187641 
L 387.255527 195.955891 
L 392.481354 195.869513 
L 393.134583 197.435219 
L 396.400725 197.408727 
L 397.053953 198.565921 
L 400.320096 198.557461 
L 400.973324 198.41565 
L 403.586238 198.365115 
L 404.239467 198.156962 
L 406.85238 198.137372 
L 406.85238 198.137372 
" style="fill:none;stroke:#9467bd;stroke-linecap:square;stroke-width:2;"/>
   </g>
   <g id="patch_19">
    <path d="M 69.23125 228.124214 
L 69.23125 190.108214 
" style="fill:none;stroke:#000000;stroke-linecap:square;stroke-linejoin:miter;stroke-width:0.8;"/>
   </g>
   <g id="patch_20">
    <path d="M 69.23125 228.124214 
L 426.35125 228.124214 
" style="fill:none;stroke:#000000;stroke-linecap:square;stroke-linejoin:miter;stroke-width:0.8;"/>
   </g>
   <g id="legend_5">
    <g id="patch_21">
     <path d="M 76.23125 213.064464 
L 166.198438 213.064464 
Q 168.198438 213.064464 168.198438 211.064464 
L 168.198438 197.108214 
Q 168.198438 195.108214 166.198438 195.108214 
L 76.23125 195.108214 
Q 74.23125 195.108214 74.23125 197.108214 
L 74.23125 211.064464 
Q 74.23125 213.064464 76.23125 213.064464 
z
" style="fill:#ffffff;opacity:0.8;stroke:#cccccc;stroke-linejoin:miter;"/>
    </g>
    <g id="line2d_94">
     <path d="M 78.23125 203.206652 
L 98.23125 203.206652 
" style="fill:none;stroke:#9467bd;stroke-linecap:square;stroke-width:2;"/>
    </g>
    <g id="line2d_95"/>
    <g id="text_20">
     <!-- word_count -->
     <defs>
      <path d="M 4.203125 54.6875 
L 13.1875 54.6875 
L 24.421875 12.015625 
L 35.59375 54.6875 
L 46.1875 54.6875 
L 57.421875 12.015625 
L 68.609375 54.6875 
L 77.59375 54.6875 
L 63.28125 0 
L 52.6875 0 
L 40.921875 44.828125 
L 29.109375 0 
L 18.5 0 
z
" id="DejaVuSans-119"/>
     </defs>
     <g transform="translate(106.23125 206.706652)scale(0.1 -0.1)">
      <use xlink:href="#DejaVuSans-119"/>
      <use x="81.787109" xlink:href="#DejaVuSans-111"/>
      <use x="142.96875" xlink:href="#DejaVuSans-114"/>
      <use x="184.066406" xlink:href="#DejaVuSans-100"/>
      <use x="247.542969" xlink:href="#DejaVuSans-95"/>
      <use x="297.542969" xlink:href="#DejaVuSans-99"/>
      <use x="352.523438" xlink:href="#DejaVuSans-111"/>
      <use x="413.705078" xlink:href="#DejaVuSans-117"/>
      <use x="477.083984" xlink:href="#DejaVuSans-110"/>
      <use x="540.462891" xlink:href="#DejaVuSans-116"/>
     </g>
    </g>
   </g>
  </g>
  <g id="axes_6">
   <g id="patch_22">
    <path d="M 69.23125 273.743414 
L 426.35125 273.743414 
L 426.35125 235.727414 
L 69.23125 235.727414 
z
" style="fill:#ffffff;"/>
   </g>
   <g id="matplotlib.axis_11">
    <g id="xtick_31">
     <g id="line2d_96">
      <path clip-path="url(#p4cd363fdc4)" d="M 85.463977 273.743414 
L 85.463977 235.727414 
" style="fill:none;stroke:#d3d3d3;stroke-linecap:square;stroke-width:0.8;"/>
     </g>
     <g id="line2d_97">
      <g>
       <use style="stroke:#000000;stroke-width:0.8;" x="85.463977" xlink:href="#m60ed9ed36a" y="273.743414"/>
      </g>
     </g>
     <g id="text_21">
      <!-- nan -->
      <g transform="translate(76.062415 288.341852)scale(0.1 -0.1)">
       <use xlink:href="#DejaVuSans-110"/>
       <use x="63.378906" xlink:href="#DejaVuSans-97"/>
       <use x="124.658203" xlink:href="#DejaVuSans-110"/>
      </g>
     </g>
    </g>
    <g id="xtick_32">
     <g id="line2d_98">
      <path clip-path="url(#p4cd363fdc4)" d="M 150.786823 273.743414 
L 150.786823 235.727414 
" style="fill:none;stroke:#d3d3d3;stroke-linecap:square;stroke-width:0.8;"/>
     </g>
     <g id="line2d_99">
      <g>
       <use style="stroke:#000000;stroke-width:0.8;" x="150.786823" xlink:href="#m60ed9ed36a" y="273.743414"/>
      </g>
     </g>
     <g id="text_22">
      <!-- nan -->
      <g transform="translate(141.385261 288.341852)scale(0.1 -0.1)">
       <use xlink:href="#DejaVuSans-110"/>
       <use x="63.378906" xlink:href="#DejaVuSans-97"/>
       <use x="124.658203" xlink:href="#DejaVuSans-110"/>
      </g>
     </g>
    </g>
    <g id="xtick_33">
     <g id="line2d_100">
      <path clip-path="url(#p4cd363fdc4)" d="M 216.10967 273.743414 
L 216.10967 235.727414 
" style="fill:none;stroke:#d3d3d3;stroke-linecap:square;stroke-width:0.8;"/>
     </g>
     <g id="line2d_101">
      <g>
       <use style="stroke:#000000;stroke-width:0.8;" x="216.10967" xlink:href="#m60ed9ed36a" y="273.743414"/>
      </g>
     </g>
     <g id="text_23">
      <!-- nan -->
      <g transform="translate(206.708107 288.341852)scale(0.1 -0.1)">
       <use xlink:href="#DejaVuSans-110"/>
       <use x="63.378906" xlink:href="#DejaVuSans-97"/>
       <use x="124.658203" xlink:href="#DejaVuSans-110"/>
      </g>
     </g>
    </g>
    <g id="xtick_34">
     <g id="line2d_102">
      <path clip-path="url(#p4cd363fdc4)" d="M 281.432516 273.743414 
L 281.432516 235.727414 
" style="fill:none;stroke:#d3d3d3;stroke-linecap:square;stroke-width:0.8;"/>
     </g>
     <g id="line2d_103">
      <g>
       <use style="stroke:#000000;stroke-width:0.8;" x="281.432516" xlink:href="#m60ed9ed36a" y="273.743414"/>
      </g>
     </g>
     <g id="text_24">
      <!-- nan -->
      <g transform="translate(272.030953 288.341852)scale(0.1 -0.1)">
       <use xlink:href="#DejaVuSans-110"/>
       <use x="63.378906" xlink:href="#DejaVuSans-97"/>
       <use x="124.658203" xlink:href="#DejaVuSans-110"/>
      </g>
     </g>
    </g>
    <g id="xtick_35">
     <g id="line2d_104">
      <path clip-path="url(#p4cd363fdc4)" d="M 346.755362 273.743414 
L 346.755362 235.727414 
" style="fill:none;stroke:#d3d3d3;stroke-linecap:square;stroke-width:0.8;"/>
     </g>
     <g id="line2d_105">
      <g>
       <use style="stroke:#000000;stroke-width:0.8;" x="346.755362" xlink:href="#m60ed9ed36a" y="273.743414"/>
      </g>
     </g>
     <g id="text_25">
      <!-- nan -->
      <g transform="translate(337.353799 288.341852)scale(0.1 -0.1)">
       <use xlink:href="#DejaVuSans-110"/>
       <use x="63.378906" xlink:href="#DejaVuSans-97"/>
       <use x="124.658203" xlink:href="#DejaVuSans-110"/>
      </g>
     </g>
    </g>
    <g id="xtick_36">
     <g id="line2d_106">
      <path clip-path="url(#p4cd363fdc4)" d="M 412.078208 273.743414 
L 412.078208 235.727414 
" style="fill:none;stroke:#d3d3d3;stroke-linecap:square;stroke-width:0.8;"/>
     </g>
     <g id="line2d_107">
      <g>
       <use style="stroke:#000000;stroke-width:0.8;" x="412.078208" xlink:href="#m60ed9ed36a" y="273.743414"/>
      </g>
     </g>
    </g>
    <g id="text_26">
     <!-- Date -->
     <defs>
      <path d="M 19.671875 64.796875 
L 19.671875 8.109375 
L 31.59375 8.109375 
Q 46.6875 8.109375 53.6875 14.9375 
Q 60.6875 21.78125 60.6875 36.53125 
Q 60.6875 51.171875 53.6875 57.984375 
Q 46.6875 64.796875 31.59375 64.796875 
z
M 9.8125 72.90625 
L 30.078125 72.90625 
Q 51.265625 72.90625 61.171875 64.09375 
Q 71.09375 55.28125 71.09375 36.53125 
Q 71.09375 17.671875 61.125 8.828125 
Q 51.171875 0 30.078125 0 
L 9.8125 0 
z
" id="DejaVuSans-68"/>
     </defs>
     <g transform="translate(235.840469 302.019977)scale(0.1 -0.1)">
      <use xlink:href="#DejaVuSans-68"/>
      <use x="77.001953" xlink:href="#DejaVuSans-97"/>
      <use x="138.28125" xlink:href="#DejaVuSans-116"/>
      <use x="177.490234" xlink:href="#DejaVuSans-101"/>
     </g>
    </g>
   </g>
   <g id="matplotlib.axis_12">
    <g id="ytick_11">
     <g id="line2d_108">
      <path clip-path="url(#p4cd363fdc4)" d="M 69.23125 273.743414 
L 426.35125 273.743414 
" style="fill:none;stroke:#d3d3d3;stroke-linecap:square;stroke-width:0.8;"/>
     </g>
     <g id="line2d_109">
      <g>
       <use style="stroke:#000000;stroke-width:0.8;" x="69.23125" xlink:href="#m06162a65fb" y="273.743414"/>
      </g>
     </g>
     <g id="text_27">
      <!-- 0 -->
      <g transform="translate(55.86875 277.542633)scale(0.1 -0.1)">
       <use xlink:href="#DejaVuSans-48"/>
      </g>
     </g>
    </g>
    <g id="ytick_12">
     <g id="line2d_110">
      <path clip-path="url(#p4cd363fdc4)" d="M 69.23125 250.895201 
L 426.35125 250.895201 
" style="fill:none;stroke:#d3d3d3;stroke-linecap:square;stroke-width:0.8;"/>
     </g>
     <g id="line2d_111">
      <g>
       <use style="stroke:#000000;stroke-width:0.8;" x="69.23125" xlink:href="#m06162a65fb" y="250.895201"/>
      </g>
     </g>
     <g id="text_28">
      <!-- 1,000 -->
      <g transform="translate(33.603125 254.694419)scale(0.1 -0.1)">
       <use xlink:href="#DejaVuSans-49"/>
       <use x="63.623047" xlink:href="#DejaVuSans-44"/>
       <use x="95.410156" xlink:href="#DejaVuSans-48"/>
       <use x="159.033203" xlink:href="#DejaVuSans-48"/>
       <use x="222.65625" xlink:href="#DejaVuSans-48"/>
      </g>
     </g>
    </g>
    <g id="text_29">
     <!-- Count -->
     <g transform="translate(27.523438 269.583852)rotate(-90)scale(0.1 -0.1)">
      <use xlink:href="#DejaVuSans-67"/>
      <use x="69.824219" xlink:href="#DejaVuSans-111"/>
      <use x="131.005859" xlink:href="#DejaVuSans-117"/>
      <use x="194.384766" xlink:href="#DejaVuSans-110"/>
      <use x="257.763672" xlink:href="#DejaVuSans-116"/>
     </g>
    </g>
   </g>
   <g id="line2d_112">
    <path clip-path="url(#p4cd363fdc4)" d="M 85.463977 273.560628 
L 96.568861 273.469236 
L 98.528547 273.423539 
L 105.060831 273.28645 
L 111.593116 273.263602 
L 112.246344 273.446387 
L 118.1254 273.400691 
L 118.778629 273.172209 
L 124.004457 273.103664 
L 124.657685 272.463914 
L 125.310913 272.463914 
L 125.964142 272.166887 
L 127.270599 272.166887 
L 128.577056 271.412896 
L 129.230284 271.412896 
L 129.883513 270.521816 
L 136.415797 270.521816 
L 137.069026 270.33903 
L 142.294853 270.247637 
L 142.948082 269.904914 
L 143.60131 269.904914 
L 144.254539 267.003191 
L 144.907767 267.003191 
L 145.560996 266.820405 
L 147.520681 266.797557 
L 148.827138 266.706164 
L 150.786823 266.614772 
L 152.09328 266.523379 
L 154.706194 266.50053 
L 155.359423 266.112111 
L 159.932022 266.043566 
L 163.198164 265.815084 
L 163.851393 265.60945 
L 166.464307 265.563754 
L 167.117535 265.495209 
L 167.770763 265.266727 
L 170.383677 265.243879 
L 171.036906 264.992548 
L 172.996591 264.992548 
L 173.64982 264.741218 
L 174.956277 264.71837 
L 175.609505 264.786914 
L 176.915962 264.71837 
L 180.182104 264.695522 
L 180.835333 264.444191 
L 183.448247 264.352798 
L 186.06116 264.284254 
L 186.714389 264.581281 
L 189.327303 264.512736 
L 190.63376 264.352798 
L 191.286988 264.010075 
L 191.940217 264.010075 
L 192.593445 263.598807 
L 195.206359 263.43887 
L 196.512816 263.370325 
L 198.472501 263.324629 
L 199.778958 263.18754 
L 203.698329 263.073298 
L 204.351557 262.730575 
L 207.6177 262.662031 
L 208.270928 262.365004 
L 208.924157 262.205066 
L 211.53707 262.022281 
L 212.190299 261.611013 
L 212.843527 260.719932 
L 214.149984 260.582843 
L 214.803213 260.674236 
L 216.762898 260.422906 
L 220.682269 260.331513 
L 221.335497 259.874549 
L 221.988726 259.143406 
L 224.60164 259.052013 
L 226.561325 259.006316 
L 227.214553 258.800683 
L 228.52101 258.846379 
L 230.480696 258.800683 
L 235.053295 258.846379 
L 235.706523 258.549352 
L 236.359752 258.549352 
L 237.666209 258.046691 
L 238.972666 257.978147 
L 239.625894 257.955299 
L 240.279123 258.06954 
L 240.932351 257.955299 
L 242.892037 257.955299 
L 243.545265 258.115236 
L 244.851722 257.93245 
L 245.50495 257.863906 
L 246.158179 257.658272 
L 247.464636 257.635424 
L 248.117864 257.452638 
L 249.424321 257.452638 
L 250.730778 257.361245 
L 251.384007 257.338397 
L 252.037235 257.42979 
L 252.690463 256.881433 
L 253.343692 256.65295 
L 253.99692 256.584406 
L 254.650149 256.195986 
L 255.303377 255.944656 
L 255.956606 255.921808 
L 256.609834 255.579084 
L 259.222748 255.533388 
L 260.529205 254.710852 
L 261.182433 254.710852 
L 261.835662 254.825093 
L 262.48889 254.779397 
L 263.142119 254.87079 
L 263.795347 254.802245 
L 264.448576 254.093951 
L 273.593774 253.865468 
L 277.513145 253.865468 
L 278.166373 253.751227 
L 289.271257 253.659835 
L 289.924486 253.157174 
L 291.230943 253.088629 
L 294.497085 253.065781 
L 298.416456 253.065781 
L 300.376141 252.745906 
L 301.02937 252.70021 
L 301.682598 250.621022 
L 302.335827 250.415388 
L 305.601969 250.415388 
L 306.255197 250.529629 
L 306.908426 250.483933 
L 307.561654 250.575326 
L 308.868111 250.415388 
L 313.44071 250.346844 
L 315.400396 250.301147 
L 318.01331 250.232602 
L 319.319767 250.483933 
L 319.972995 250.186906 
L 325.198823 249.478611 
L 325.852051 249.478611 
L 326.50528 249.158736 
L 327.158508 248.176263 
L 330.42465 248.176263 
L 331.077879 247.719299 
L 331.731107 247.719299 
L 333.037564 247.58221 
L 335.650478 247.536513 
L 338.91662 247.262335 
L 341.529534 247.262335 
L 343.48922 247.239487 
L 344.142448 246.851067 
L 344.795677 246.782522 
L 345.448905 246.599737 
L 350.021504 246.371254 
L 350.674733 246.257013 
L 351.327961 245.982835 
L 352.634418 245.982835 
L 355.90056 245.91429 
L 358.513474 245.685808 
L 359.819931 245.548719 
L 360.47316 245.525871 
L 361.126388 243.766558 
L 361.779617 243.766558 
L 362.432845 243.332442 
L 364.39253 243.10396 
L 365.045759 243.081112 
L 365.698987 242.944022 
L 367.658673 242.921174 
L 368.96513 242.441362 
L 369.618358 242.304272 
L 370.271587 241.687371 
L 372.8845 241.687371 
L 373.537729 241.550281 
L 374.190957 241.550281 
L 375.497414 241.207558 
L 382.029699 241.116165 
L 382.682927 240.979076 
L 383.336156 240.407871 
L 384.642613 240.430719 
L 385.295841 239.676728 
L 385.94907 239.402549 
L 386.602298 239.425398 
L 387.255527 239.26546 
L 392.481354 239.219764 
L 393.787811 239.151219 
L 396.400725 239.105523 
L 397.053953 239.26546 
L 400.320096 239.26546 
L 400.973324 238.351531 
L 403.586238 238.123049 
L 404.239467 237.620389 
L 406.85238 237.528996 
L 406.85238 237.528996 
" style="fill:none;stroke:#8c564b;stroke-linecap:square;stroke-width:2;"/>
   </g>
   <g id="patch_23">
    <path d="M 69.23125 273.743414 
L 69.23125 235.727414 
" style="fill:none;stroke:#000000;stroke-linecap:square;stroke-linejoin:miter;stroke-width:0.8;"/>
   </g>
   <g id="patch_24">
    <path d="M 69.23125 273.743414 
L 426.35125 273.743414 
" style="fill:none;stroke:#000000;stroke-linecap:square;stroke-linejoin:miter;stroke-width:0.8;"/>
   </g>
   <g id="legend_6">
    <g id="patch_25">
     <path d="M 76.23125 258.683664 
L 149.428125 258.683664 
Q 151.428125 258.683664 151.428125 256.683664 
L 151.428125 242.727414 
Q 151.428125 240.727414 149.428125 240.727414 
L 76.23125 240.727414 
Q 74.23125 240.727414 74.23125 242.727414 
L 74.23125 256.683664 
Q 74.23125 258.683664 76.23125 258.683664 
z
" style="fill:#ffffff;opacity:0.8;stroke:#cccccc;stroke-linejoin:miter;"/>
    </g>
    <g id="line2d_113">
     <path d="M 78.23125 248.825852 
L 98.23125 248.825852 
" style="fill:none;stroke:#8c564b;stroke-linecap:square;stroke-width:2;"/>
    </g>
    <g id="line2d_114"/>
    <g id="text_30">
     <!-- num_ref -->
     <g transform="translate(106.23125 252.325852)scale(0.1 -0.1)">
      <use xlink:href="#DejaVuSans-110"/>
      <use x="63.378906" xlink:href="#DejaVuSans-117"/>
      <use x="126.757812" xlink:href="#DejaVuSans-109"/>
      <use x="224.169922" xlink:href="#DejaVuSans-95"/>
      <use x="274.169922" xlink:href="#DejaVuSans-114"/>
      <use x="315.251953" xlink:href="#DejaVuSans-101"/>
      <use x="376.775391" xlink:href="#DejaVuSans-102"/>
     </g>
    </g>
   </g>
  </g>
 </g>
 <defs>
  <clipPath id="pe221a96502">
   <rect height="38.016" width="357.12" x="69.23125" y="7.631414"/>
  </clipPath>
  <clipPath id="pd066cb9c32">
   <rect height="38.016" width="357.12" x="69.23125" y="53.250614"/>
  </clipPath>
  <clipPath id="p2d58512991">
   <rect height="38.016" width="357.12" x="69.23125" y="98.869814"/>
  </clipPath>
  <clipPath id="p3dcfe0cb30">
   <rect height="38.016" width="357.12" x="69.23125" y="144.489014"/>
  </clipPath>
  <clipPath id="pd1e8d51de9">
   <rect height="38.016" width="357.12" x="69.23125" y="190.108214"/>
  </clipPath>
  <clipPath id="p4cd363fdc4">
   <rect height="38.016" width="357.12" x="69.23125" y="235.727414"/>
  </clipPath>
 </defs>
</svg>
