<?xml version="1.0" encoding="utf-8" standalone="no"?>
<!DOCTYPE svg PUBLIC "-//W3C//DTD SVG 1.1//EN"
  "http://www.w3.org/Graphics/SVG/1.1/DTD/svg11.dtd">
<!-- Created with matplotlib (https://matplotlib.org/) -->
<svg height="310.86825pt" version="1.1" viewBox="0 0 433.55125 310.86825" width="433.55125pt" xmlns="http://www.w3.org/2000/svg" xmlns:xlink="http://www.w3.org/1999/xlink">
 <defs>
  <style type="text/css">
*{stroke-linecap:butt;stroke-linejoin:round;}
  </style>
 </defs>
 <g id="figure_1">
  <g id="patch_1">
   <path d="M 0 310.86825 
L 433.55125 310.86825 
L 433.55125 0 
L 0 0 
z
" style="fill:#ffffff;"/>
  </g>
  <g id="axes_1">
   <g id="patch_2">
    <path d="M 69.23125 85.468235 
L 426.35125 85.468235 
L 426.35125 7.2 
L 69.23125 7.2 
z
" style="fill:#ffffff;"/>
   </g>
   <g id="matplotlib.axis_1">
    <g id="xtick_1">
     <g id="line2d_1">
      <path clip-path="url(#p279a54bc05)" d="M 85.463977 85.468235 
L 85.463977 7.2 
" style="fill:none;stroke:#d3d3d3;stroke-linecap:square;stroke-width:0.8;"/>
     </g>
     <g id="line2d_2">
      <defs>
       <path d="M 0 0 
L 0 3.5 
" id="ma3020a9494" style="stroke:#000000;stroke-width:0.8;"/>
      </defs>
      <g>
       <use style="stroke:#000000;stroke-width:0.8;" x="85.463977" xlink:href="#ma3020a9494" y="85.468235"/>
      </g>
     </g>
    </g>
    <g id="xtick_2">
     <g id="line2d_3">
      <path clip-path="url(#p279a54bc05)" d="M 151.450674 85.468235 
L 151.450674 7.2 
" style="fill:none;stroke:#d3d3d3;stroke-linecap:square;stroke-width:0.8;"/>
     </g>
     <g id="line2d_4">
      <g>
       <use style="stroke:#000000;stroke-width:0.8;" x="151.450674" xlink:href="#ma3020a9494" y="85.468235"/>
      </g>
     </g>
    </g>
    <g id="xtick_3">
     <g id="line2d_5">
      <path clip-path="url(#p279a54bc05)" d="M 217.43737 85.468235 
L 217.43737 7.2 
" style="fill:none;stroke:#d3d3d3;stroke-linecap:square;stroke-width:0.8;"/>
     </g>
     <g id="line2d_6">
      <g>
       <use style="stroke:#000000;stroke-width:0.8;" x="217.43737" xlink:href="#ma3020a9494" y="85.468235"/>
      </g>
     </g>
    </g>
    <g id="xtick_4">
     <g id="line2d_7">
      <path clip-path="url(#p279a54bc05)" d="M 283.424066 85.468235 
L 283.424066 7.2 
" style="fill:none;stroke:#d3d3d3;stroke-linecap:square;stroke-width:0.8;"/>
     </g>
     <g id="line2d_8">
      <g>
       <use style="stroke:#000000;stroke-width:0.8;" x="283.424066" xlink:href="#ma3020a9494" y="85.468235"/>
      </g>
     </g>
    </g>
    <g id="xtick_5">
     <g id="line2d_9">
      <path clip-path="url(#p279a54bc05)" d="M 349.410762 85.468235 
L 349.410762 7.2 
" style="fill:none;stroke:#d3d3d3;stroke-linecap:square;stroke-width:0.8;"/>
     </g>
     <g id="line2d_10">
      <g>
       <use style="stroke:#000000;stroke-width:0.8;" x="349.410762" xlink:href="#ma3020a9494" y="85.468235"/>
      </g>
     </g>
    </g>
    <g id="xtick_6">
     <g id="line2d_11">
      <path clip-path="url(#p279a54bc05)" d="M 415.397458 85.468235 
L 415.397458 7.2 
" style="fill:none;stroke:#d3d3d3;stroke-linecap:square;stroke-width:0.8;"/>
     </g>
     <g id="line2d_12">
      <g>
       <use style="stroke:#000000;stroke-width:0.8;" x="415.397458" xlink:href="#ma3020a9494" y="85.468235"/>
      </g>
     </g>
    </g>
   </g>
   <g id="matplotlib.axis_2">
    <g id="ytick_1">
     <g id="line2d_13">
      <path clip-path="url(#p279a54bc05)" d="M 69.23125 85.468235 
L 426.35125 85.468235 
" style="fill:none;stroke:#d3d3d3;stroke-linecap:square;stroke-width:0.8;"/>
     </g>
     <g id="line2d_14">
      <defs>
       <path d="M 0 0 
L -3.5 0 
" id="m7cb6686455" style="stroke:#000000;stroke-width:0.8;"/>
      </defs>
      <g>
       <use style="stroke:#000000;stroke-width:0.8;" x="69.23125" xlink:href="#m7cb6686455" y="85.468235"/>
      </g>
     </g>
     <g id="text_1">
      <!-- 0 -->
      <defs>
       <path d="M 31.78125 66.40625 
Q 24.171875 66.40625 20.328125 58.90625 
Q 16.5 51.421875 16.5 36.375 
Q 16.5 21.390625 20.328125 13.890625 
Q 24.171875 6.390625 31.78125 6.390625 
Q 39.453125 6.390625 43.28125 13.890625 
Q 47.125 21.390625 47.125 36.375 
Q 47.125 51.421875 43.28125 58.90625 
Q 39.453125 66.40625 31.78125 66.40625 
z
M 31.78125 74.21875 
Q 44.046875 74.21875 50.515625 64.515625 
Q 56.984375 54.828125 56.984375 36.375 
Q 56.984375 17.96875 50.515625 8.265625 
Q 44.046875 -1.421875 31.78125 -1.421875 
Q 19.53125 -1.421875 13.0625 8.265625 
Q 6.59375 17.96875 6.59375 36.375 
Q 6.59375 54.828125 13.0625 64.515625 
Q 19.53125 74.21875 31.78125 74.21875 
z
" id="DejaVuSans-48"/>
      </defs>
      <g transform="translate(55.86875 89.267454)scale(0.1 -0.1)">
       <use xlink:href="#DejaVuSans-48"/>
      </g>
     </g>
    </g>
    <g id="ytick_2">
     <g id="line2d_15">
      <path clip-path="url(#p279a54bc05)" d="M 69.23125 56.745947 
L 426.35125 56.745947 
" style="fill:none;stroke:#d3d3d3;stroke-linecap:square;stroke-width:0.8;"/>
     </g>
     <g id="line2d_16">
      <g>
       <use style="stroke:#000000;stroke-width:0.8;" x="69.23125" xlink:href="#m7cb6686455" y="56.745947"/>
      </g>
     </g>
     <g id="text_2">
      <!-- 20 -->
      <defs>
       <path d="M 19.1875 8.296875 
L 53.609375 8.296875 
L 53.609375 0 
L 7.328125 0 
L 7.328125 8.296875 
Q 12.9375 14.109375 22.625 23.890625 
Q 32.328125 33.6875 34.8125 36.53125 
Q 39.546875 41.84375 41.421875 45.53125 
Q 43.3125 49.21875 43.3125 52.78125 
Q 43.3125 58.59375 39.234375 62.25 
Q 35.15625 65.921875 28.609375 65.921875 
Q 23.96875 65.921875 18.8125 64.3125 
Q 13.671875 62.703125 7.8125 59.421875 
L 7.8125 69.390625 
Q 13.765625 71.78125 18.9375 73 
Q 24.125 74.21875 28.421875 74.21875 
Q 39.75 74.21875 46.484375 68.546875 
Q 53.21875 62.890625 53.21875 53.421875 
Q 53.21875 48.921875 51.53125 44.890625 
Q 49.859375 40.875 45.40625 35.40625 
Q 44.1875 33.984375 37.640625 27.21875 
Q 31.109375 20.453125 19.1875 8.296875 
z
" id="DejaVuSans-50"/>
      </defs>
      <g transform="translate(49.50625 60.545166)scale(0.1 -0.1)">
       <use xlink:href="#DejaVuSans-50"/>
       <use x="63.623047" xlink:href="#DejaVuSans-48"/>
      </g>
     </g>
    </g>
    <g id="ytick_3">
     <g id="line2d_17">
      <path clip-path="url(#p279a54bc05)" d="M 69.23125 28.023659 
L 426.35125 28.023659 
" style="fill:none;stroke:#d3d3d3;stroke-linecap:square;stroke-width:0.8;"/>
     </g>
     <g id="line2d_18">
      <g>
       <use style="stroke:#000000;stroke-width:0.8;" x="69.23125" xlink:href="#m7cb6686455" y="28.023659"/>
      </g>
     </g>
     <g id="text_3">
      <!-- 40 -->
      <defs>
       <path d="M 37.796875 64.3125 
L 12.890625 25.390625 
L 37.796875 25.390625 
z
M 35.203125 72.90625 
L 47.609375 72.90625 
L 47.609375 25.390625 
L 58.015625 25.390625 
L 58.015625 17.1875 
L 47.609375 17.1875 
L 47.609375 0 
L 37.796875 0 
L 37.796875 17.1875 
L 4.890625 17.1875 
L 4.890625 26.703125 
z
" id="DejaVuSans-52"/>
      </defs>
      <g transform="translate(49.50625 31.822878)scale(0.1 -0.1)">
       <use xlink:href="#DejaVuSans-52"/>
       <use x="63.623047" xlink:href="#DejaVuSans-48"/>
      </g>
     </g>
    </g>
    <g id="text_4">
     <!-- Count -->
     <defs>
      <path d="M 64.40625 67.28125 
L 64.40625 56.890625 
Q 59.421875 61.53125 53.78125 63.8125 
Q 48.140625 66.109375 41.796875 66.109375 
Q 29.296875 66.109375 22.65625 58.46875 
Q 16.015625 50.828125 16.015625 36.375 
Q 16.015625 21.96875 22.65625 14.328125 
Q 29.296875 6.6875 41.796875 6.6875 
Q 48.140625 6.6875 53.78125 8.984375 
Q 59.421875 11.28125 64.40625 15.921875 
L 64.40625 5.609375 
Q 59.234375 2.09375 53.4375 0.328125 
Q 47.65625 -1.421875 41.21875 -1.421875 
Q 24.65625 -1.421875 15.125 8.703125 
Q 5.609375 18.84375 5.609375 36.375 
Q 5.609375 53.953125 15.125 64.078125 
Q 24.65625 74.21875 41.21875 74.21875 
Q 47.75 74.21875 53.53125 72.484375 
Q 59.328125 70.75 64.40625 67.28125 
z
" id="DejaVuSans-67"/>
      <path d="M 30.609375 48.390625 
Q 23.390625 48.390625 19.1875 42.75 
Q 14.984375 37.109375 14.984375 27.296875 
Q 14.984375 17.484375 19.15625 11.84375 
Q 23.34375 6.203125 30.609375 6.203125 
Q 37.796875 6.203125 41.984375 11.859375 
Q 46.1875 17.53125 46.1875 27.296875 
Q 46.1875 37.015625 41.984375 42.703125 
Q 37.796875 48.390625 30.609375 48.390625 
z
M 30.609375 56 
Q 42.328125 56 49.015625 48.375 
Q 55.71875 40.765625 55.71875 27.296875 
Q 55.71875 13.875 49.015625 6.21875 
Q 42.328125 -1.421875 30.609375 -1.421875 
Q 18.84375 -1.421875 12.171875 6.21875 
Q 5.515625 13.875 5.515625 27.296875 
Q 5.515625 40.765625 12.171875 48.375 
Q 18.84375 56 30.609375 56 
z
" id="DejaVuSans-111"/>
      <path d="M 8.5 21.578125 
L 8.5 54.6875 
L 17.484375 54.6875 
L 17.484375 21.921875 
Q 17.484375 14.15625 20.5 10.265625 
Q 23.53125 6.390625 29.59375 6.390625 
Q 36.859375 6.390625 41.078125 11.03125 
Q 45.3125 15.671875 45.3125 23.6875 
L 45.3125 54.6875 
L 54.296875 54.6875 
L 54.296875 0 
L 45.3125 0 
L 45.3125 8.40625 
Q 42.046875 3.421875 37.71875 1 
Q 33.40625 -1.421875 27.6875 -1.421875 
Q 18.265625 -1.421875 13.375 4.4375 
Q 8.5 10.296875 8.5 21.578125 
z
M 31.109375 56 
z
" id="DejaVuSans-117"/>
      <path d="M 54.890625 33.015625 
L 54.890625 0 
L 45.90625 0 
L 45.90625 32.71875 
Q 45.90625 40.484375 42.875 44.328125 
Q 39.84375 48.1875 33.796875 48.1875 
Q 26.515625 48.1875 22.3125 43.546875 
Q 18.109375 38.921875 18.109375 30.90625 
L 18.109375 0 
L 9.078125 0 
L 9.078125 54.6875 
L 18.109375 54.6875 
L 18.109375 46.1875 
Q 21.34375 51.125 25.703125 53.5625 
Q 30.078125 56 35.796875 56 
Q 45.21875 56 50.046875 50.171875 
Q 54.890625 44.34375 54.890625 33.015625 
z
" id="DejaVuSans-110"/>
      <path d="M 18.3125 70.21875 
L 18.3125 54.6875 
L 36.8125 54.6875 
L 36.8125 47.703125 
L 18.3125 47.703125 
L 18.3125 18.015625 
Q 18.3125 11.328125 20.140625 9.421875 
Q 21.96875 7.515625 27.59375 7.515625 
L 36.8125 7.515625 
L 36.8125 0 
L 27.59375 0 
Q 17.1875 0 13.234375 3.875 
Q 9.28125 7.765625 9.28125 18.015625 
L 9.28125 47.703125 
L 2.6875 47.703125 
L 2.6875 54.6875 
L 9.28125 54.6875 
L 9.28125 70.21875 
z
" id="DejaVuSans-116"/>
     </defs>
     <g transform="translate(43.426563 61.182555)rotate(-90)scale(0.1 -0.1)">
      <use xlink:href="#DejaVuSans-67"/>
      <use x="69.824219" xlink:href="#DejaVuSans-111"/>
      <use x="131.005859" xlink:href="#DejaVuSans-117"/>
      <use x="194.384766" xlink:href="#DejaVuSans-110"/>
      <use x="257.763672" xlink:href="#DejaVuSans-116"/>
     </g>
    </g>
   </g>
   <g id="line2d_19">
    <path clip-path="url(#p279a54bc05)" d="M 85.463977 82.596006 
L 92.722514 82.596006 
L 93.382381 81.159892 
L 99.321183 81.159892 
L 99.98105 79.723778 
L 102.620518 79.723778 
L 103.280385 78.287663 
L 105.919853 78.287663 
L 106.57972 76.851549 
L 111.198789 76.851549 
L 111.858656 75.415434 
L 115.157991 75.415434 
L 115.817858 73.97932 
L 117.137591 73.97932 
L 117.797458 72.543206 
L 119.777059 72.543206 
L 120.436926 71.107091 
L 125.055995 71.107091 
L 125.715862 69.670977 
L 131.654665 69.670977 
L 132.314532 68.234862 
L 134.953999 68.234862 
L 136.9336 63.926519 
L 137.593467 63.926519 
L 138.253334 62.490405 
L 140.892802 62.490405 
L 142.212536 59.618176 
L 142.872403 59.618176 
L 143.53227 58.182062 
L 144.192137 58.182062 
L 145.511871 55.309833 
L 148.811206 55.309833 
L 149.471073 53.873718 
L 152.11054 53.873718 
L 152.770407 52.437604 
L 154.090141 52.437604 
L 154.750008 51.001489 
L 163.328279 51.001489 
L 163.988146 49.565375 
L 164.648013 49.565375 
L 165.30788 48.129261 
L 170.586815 48.129261 
L 171.246682 45.257032 
L 172.566416 45.257032 
L 173.226283 43.820917 
L 175.205884 43.820917 
L 175.865751 42.384803 
L 180.48482 42.384803 
L 181.144687 40.948689 
L 186.423623 40.948689 
L 187.083489 39.512574 
L 192.362425 39.512574 
L 193.022292 38.07646 
L 202.26043 38.07646 
L 203.580164 35.204231 
L 204.24003 35.204231 
L 204.899897 33.768117 
L 217.43737 33.768117 
L 218.097237 30.895888 
L 224.036039 30.895888 
L 224.695906 29.459773 
L 236.573512 29.459773 
L 237.233379 28.023659 
L 237.893246 28.023659 
L 238.553113 26.587545 
L 241.852447 26.587545 
L 242.512314 25.15143 
L 251.090585 25.15143 
L 251.750452 23.715316 
L 283.424066 23.715316 
L 284.083933 22.279201 
L 287.383268 22.279201 
L 288.043135 23.715316 
L 291.34247 23.715316 
L 292.002336 22.279201 
L 292.662203 22.279201 
L 293.32207 23.715316 
L 301.900341 23.715316 
L 302.560208 22.279201 
L 307.839144 22.279201 
L 308.499011 20.843087 
L 311.798345 20.843087 
L 312.458212 19.406972 
L 370.526505 19.406972 
L 371.186372 17.970858 
L 375.805441 17.970858 
L 376.465308 16.534744 
L 377.785042 16.534744 
L 378.444909 15.098629 
L 381.744243 15.098629 
L 382.40411 13.662515 
L 383.063977 13.662515 
L 383.723844 12.2264 
L 385.043578 12.2264 
L 385.703445 10.790286 
L 410.118523 10.790286 
L 410.118523 10.790286 
" style="fill:none;stroke:#1f77b4;stroke-linecap:square;stroke-width:2;"/>
   </g>
   <g id="patch_3">
    <path d="M 69.23125 85.468235 
L 69.23125 7.2 
" style="fill:none;stroke:#000000;stroke-linecap:square;stroke-linejoin:miter;stroke-width:0.8;"/>
   </g>
   <g id="patch_4">
    <path d="M 69.23125 85.468235 
L 426.35125 85.468235 
" style="fill:none;stroke:#000000;stroke-linecap:square;stroke-linejoin:miter;stroke-width:0.8;"/>
   </g>
   <g id="legend_1">
    <g id="patch_5">
     <path d="M 76.23125 29.878125 
L 147.10625 29.878125 
Q 149.10625 29.878125 149.10625 27.878125 
L 149.10625 14.2 
Q 149.10625 12.2 147.10625 12.2 
L 76.23125 12.2 
Q 74.23125 12.2 74.23125 14.2 
L 74.23125 27.878125 
Q 74.23125 29.878125 76.23125 29.878125 
z
" style="fill:#ffffff;opacity:0.8;stroke:#cccccc;stroke-linejoin:miter;"/>
    </g>
    <g id="line2d_20">
     <path d="M 78.23125 20.298437 
L 98.23125 20.298437 
" style="fill:none;stroke:#1f77b4;stroke-linecap:square;stroke-width:2;"/>
    </g>
    <g id="line2d_21"/>
    <g id="text_5">
     <!-- Authors -->
     <defs>
      <path d="M 34.1875 63.1875 
L 20.796875 26.90625 
L 47.609375 26.90625 
z
M 28.609375 72.90625 
L 39.796875 72.90625 
L 67.578125 0 
L 57.328125 0 
L 50.6875 18.703125 
L 17.828125 18.703125 
L 11.1875 0 
L 0.78125 0 
z
" id="DejaVuSans-65"/>
      <path d="M 54.890625 33.015625 
L 54.890625 0 
L 45.90625 0 
L 45.90625 32.71875 
Q 45.90625 40.484375 42.875 44.328125 
Q 39.84375 48.1875 33.796875 48.1875 
Q 26.515625 48.1875 22.3125 43.546875 
Q 18.109375 38.921875 18.109375 30.90625 
L 18.109375 0 
L 9.078125 0 
L 9.078125 75.984375 
L 18.109375 75.984375 
L 18.109375 46.1875 
Q 21.34375 51.125 25.703125 53.5625 
Q 30.078125 56 35.796875 56 
Q 45.21875 56 50.046875 50.171875 
Q 54.890625 44.34375 54.890625 33.015625 
z
" id="DejaVuSans-104"/>
      <path d="M 41.109375 46.296875 
Q 39.59375 47.171875 37.8125 47.578125 
Q 36.03125 48 33.890625 48 
Q 26.265625 48 22.1875 43.046875 
Q 18.109375 38.09375 18.109375 28.8125 
L 18.109375 0 
L 9.078125 0 
L 9.078125 54.6875 
L 18.109375 54.6875 
L 18.109375 46.1875 
Q 20.953125 51.171875 25.484375 53.578125 
Q 30.03125 56 36.53125 56 
Q 37.453125 56 38.578125 55.875 
Q 39.703125 55.765625 41.0625 55.515625 
z
" id="DejaVuSans-114"/>
      <path d="M 44.28125 53.078125 
L 44.28125 44.578125 
Q 40.484375 46.53125 36.375 47.5 
Q 32.28125 48.484375 27.875 48.484375 
Q 21.1875 48.484375 17.84375 46.4375 
Q 14.5 44.390625 14.5 40.28125 
Q 14.5 37.15625 16.890625 35.375 
Q 19.28125 33.59375 26.515625 31.984375 
L 29.59375 31.296875 
Q 39.15625 29.25 43.1875 25.515625 
Q 47.21875 21.78125 47.21875 15.09375 
Q 47.21875 7.46875 41.1875 3.015625 
Q 35.15625 -1.421875 24.609375 -1.421875 
Q 20.21875 -1.421875 15.453125 -0.5625 
Q 10.6875 0.296875 5.421875 2 
L 5.421875 11.28125 
Q 10.40625 8.6875 15.234375 7.390625 
Q 20.0625 6.109375 24.8125 6.109375 
Q 31.15625 6.109375 34.5625 8.28125 
Q 37.984375 10.453125 37.984375 14.40625 
Q 37.984375 18.0625 35.515625 20.015625 
Q 33.0625 21.96875 24.703125 23.78125 
L 21.578125 24.515625 
Q 13.234375 26.265625 9.515625 29.90625 
Q 5.8125 33.546875 5.8125 39.890625 
Q 5.8125 47.609375 11.28125 51.796875 
Q 16.75 56 26.8125 56 
Q 31.78125 56 36.171875 55.265625 
Q 40.578125 54.546875 44.28125 53.078125 
z
" id="DejaVuSans-115"/>
     </defs>
     <g transform="translate(106.23125 23.798437)scale(0.1 -0.1)">
      <use xlink:href="#DejaVuSans-65"/>
      <use x="68.408203" xlink:href="#DejaVuSans-117"/>
      <use x="131.787109" xlink:href="#DejaVuSans-116"/>
      <use x="170.996094" xlink:href="#DejaVuSans-104"/>
      <use x="234.375" xlink:href="#DejaVuSans-111"/>
      <use x="295.556641" xlink:href="#DejaVuSans-114"/>
      <use x="336.669922" xlink:href="#DejaVuSans-115"/>
     </g>
    </g>
   </g>
  </g>
  <g id="axes_2">
   <g id="patch_6">
    <path d="M 69.23125 179.390118 
L 426.35125 179.390118 
L 426.35125 101.121882 
L 69.23125 101.121882 
z
" style="fill:#ffffff;"/>
   </g>
   <g id="matplotlib.axis_3">
    <g id="xtick_7">
     <g id="line2d_22">
      <path clip-path="url(#pa96da929bb)" d="M 85.463977 179.390118 
L 85.463977 101.121882 
" style="fill:none;stroke:#d3d3d3;stroke-linecap:square;stroke-width:0.8;"/>
     </g>
     <g id="line2d_23">
      <g>
       <use style="stroke:#000000;stroke-width:0.8;" x="85.463977" xlink:href="#ma3020a9494" y="179.390118"/>
      </g>
     </g>
    </g>
    <g id="xtick_8">
     <g id="line2d_24">
      <path clip-path="url(#pa96da929bb)" d="M 151.450674 179.390118 
L 151.450674 101.121882 
" style="fill:none;stroke:#d3d3d3;stroke-linecap:square;stroke-width:0.8;"/>
     </g>
     <g id="line2d_25">
      <g>
       <use style="stroke:#000000;stroke-width:0.8;" x="151.450674" xlink:href="#ma3020a9494" y="179.390118"/>
      </g>
     </g>
    </g>
    <g id="xtick_9">
     <g id="line2d_26">
      <path clip-path="url(#pa96da929bb)" d="M 217.43737 179.390118 
L 217.43737 101.121882 
" style="fill:none;stroke:#d3d3d3;stroke-linecap:square;stroke-width:0.8;"/>
     </g>
     <g id="line2d_27">
      <g>
       <use style="stroke:#000000;stroke-width:0.8;" x="217.43737" xlink:href="#ma3020a9494" y="179.390118"/>
      </g>
     </g>
    </g>
    <g id="xtick_10">
     <g id="line2d_28">
      <path clip-path="url(#pa96da929bb)" d="M 283.424066 179.390118 
L 283.424066 101.121882 
" style="fill:none;stroke:#d3d3d3;stroke-linecap:square;stroke-width:0.8;"/>
     </g>
     <g id="line2d_29">
      <g>
       <use style="stroke:#000000;stroke-width:0.8;" x="283.424066" xlink:href="#ma3020a9494" y="179.390118"/>
      </g>
     </g>
    </g>
    <g id="xtick_11">
     <g id="line2d_30">
      <path clip-path="url(#pa96da929bb)" d="M 349.410762 179.390118 
L 349.410762 101.121882 
" style="fill:none;stroke:#d3d3d3;stroke-linecap:square;stroke-width:0.8;"/>
     </g>
     <g id="line2d_31">
      <g>
       <use style="stroke:#000000;stroke-width:0.8;" x="349.410762" xlink:href="#ma3020a9494" y="179.390118"/>
      </g>
     </g>
    </g>
    <g id="xtick_12">
     <g id="line2d_32">
      <path clip-path="url(#pa96da929bb)" d="M 415.397458 179.390118 
L 415.397458 101.121882 
" style="fill:none;stroke:#d3d3d3;stroke-linecap:square;stroke-width:0.8;"/>
     </g>
     <g id="line2d_33">
      <g>
       <use style="stroke:#000000;stroke-width:0.8;" x="415.397458" xlink:href="#ma3020a9494" y="179.390118"/>
      </g>
     </g>
    </g>
   </g>
   <g id="matplotlib.axis_4">
    <g id="ytick_4">
     <g id="line2d_34">
      <path clip-path="url(#pa96da929bb)" d="M 69.23125 179.390118 
L 426.35125 179.390118 
" style="fill:none;stroke:#d3d3d3;stroke-linecap:square;stroke-width:0.8;"/>
     </g>
     <g id="line2d_35">
      <g>
       <use style="stroke:#000000;stroke-width:0.8;" x="69.23125" xlink:href="#m7cb6686455" y="179.390118"/>
      </g>
     </g>
     <g id="text_6">
      <!-- 0 -->
      <g transform="translate(55.86875 183.189336)scale(0.1 -0.1)">
       <use xlink:href="#DejaVuSans-48"/>
      </g>
     </g>
    </g>
    <g id="ytick_5">
     <g id="line2d_36">
      <path clip-path="url(#pa96da929bb)" d="M 69.23125 133.556017 
L 426.35125 133.556017 
" style="fill:none;stroke:#d3d3d3;stroke-linecap:square;stroke-width:0.8;"/>
     </g>
     <g id="line2d_37">
      <g>
       <use style="stroke:#000000;stroke-width:0.8;" x="69.23125" xlink:href="#m7cb6686455" y="133.556017"/>
      </g>
     </g>
     <g id="text_7">
      <!-- 100,000 -->
      <defs>
       <path d="M 12.40625 8.296875 
L 28.515625 8.296875 
L 28.515625 63.921875 
L 10.984375 60.40625 
L 10.984375 69.390625 
L 28.421875 72.90625 
L 38.28125 72.90625 
L 38.28125 8.296875 
L 54.390625 8.296875 
L 54.390625 0 
L 12.40625 0 
z
" id="DejaVuSans-49"/>
       <path d="M 11.71875 12.40625 
L 22.015625 12.40625 
L 22.015625 4 
L 14.015625 -11.625 
L 7.71875 -11.625 
L 11.71875 4 
z
" id="DejaVuSans-44"/>
      </defs>
      <g transform="translate(20.878125 137.355236)scale(0.1 -0.1)">
       <use xlink:href="#DejaVuSans-49"/>
       <use x="63.623047" xlink:href="#DejaVuSans-48"/>
       <use x="127.246094" xlink:href="#DejaVuSans-48"/>
       <use x="190.869141" xlink:href="#DejaVuSans-44"/>
       <use x="222.65625" xlink:href="#DejaVuSans-48"/>
       <use x="286.279297" xlink:href="#DejaVuSans-48"/>
       <use x="349.902344" xlink:href="#DejaVuSans-48"/>
      </g>
     </g>
    </g>
    <g id="text_8">
     <!-- Count -->
     <g transform="translate(14.798438 155.104437)rotate(-90)scale(0.1 -0.1)">
      <use xlink:href="#DejaVuSans-67"/>
      <use x="69.824219" xlink:href="#DejaVuSans-111"/>
      <use x="131.005859" xlink:href="#DejaVuSans-117"/>
      <use x="194.384766" xlink:href="#DejaVuSans-110"/>
      <use x="257.763672" xlink:href="#DejaVuSans-116"/>
     </g>
    </g>
   </g>
   <g id="line2d_38">
    <path clip-path="url(#pa96da929bb)" d="M 85.463977 178.750732 
L 90.083046 178.655855 
L 91.40278 178.631563 
L 92.062647 178.359309 
L 96.021849 178.359309 
L 96.681716 178.052679 
L 111.858656 177.806091 
L 112.518523 178.335933 
L 114.498124 178.287808 
L 118.457325 178.287808 
L 119.117192 178.083387 
L 121.096793 178.083387 
L 122.416527 177.653922 
L 124.396128 177.650255 
L 125.055995 176.880242 
L 126.375729 176.780782 
L 127.695463 176.76749 
L 129.015197 176.110688 
L 129.675064 176.098771 
L 130.334931 175.261382 
L 132.314532 175.261382 
L 133.634266 174.8475 
L 134.294132 175.261382 
L 136.9336 175.261382 
L 137.593467 175.104171 
L 142.872403 175.04092 
L 143.53227 174.472119 
L 144.192137 174.426743 
L 144.852004 156.634403 
L 145.511871 156.634403 
L 146.171738 156.206313 
L 146.831605 155.500926 
L 147.491472 155.374882 
L 148.151339 155.372591 
L 148.811206 155.206213 
L 149.471073 155.206213 
L 150.13094 154.393574 
L 151.450674 154.374324 
L 152.11054 154.162112 
L 155.409875 154.069985 
L 156.069742 153.64052 
L 160.688811 153.597894 
L 161.348678 153.377891 
L 162.008545 153.340307 
L 162.668412 153.151012 
L 163.988146 153.150553 
L 164.648013 152.838881 
L 166.627614 152.82559 
L 167.947348 152.65692 
L 168.607215 152.301247 
L 171.246682 152.293914 
L 171.906549 151.849323 
L 173.88615 151.849323 
L 174.546017 151.55461 
L 175.865751 151.456525 
L 181.804554 151.333231 
L 183.784155 151.264938 
L 184.444022 118.6251 
L 189.06309 118.544432 
L 189.722957 118.471098 
L 190.382824 118.231844 
L 193.022292 117.953172 
L 193.682159 117.468706 
L 195.001893 117.33487 
L 195.66176 117.168493 
L 200.280829 117.075449 
L 200.940696 116.642776 
L 204.899897 116.641859 
L 205.559764 116.340729 
L 208.859099 116.323312 
L 209.518966 116.189018 
L 210.178833 115.751761 
L 212.818301 115.731135 
L 213.478168 115.546424 
L 214.138035 115.156376 
L 216.117636 115.116042 
L 216.777503 115.115583 
L 217.43737 114.658617 
L 218.757104 114.568324 
L 220.736705 114.501406 
L 221.396572 114.500031 
L 222.056438 114.380404 
L 223.376172 113.662184 
L 224.695906 113.581516 
L 226.675507 113.649809 
L 227.335374 113.488014 
L 227.995241 113.488931 
L 228.655108 113.376638 
L 231.954443 113.409638 
L 235.913645 113.416513 
L 236.573512 146.056351 
L 237.233379 145.911974 
L 237.893246 145.911974 
L 238.553113 145.449508 
L 239.212979 144.435199 
L 239.872846 144.243613 
L 243.172181 144.215195 
L 243.832048 144.054318 
L 245.151782 144.126277 
L 245.811649 143.887023 
L 247.131383 143.731646 
L 247.79125 143.501559 
L 249.110984 143.500183 
L 249.770851 143.073468 
L 251.750452 142.880048 
L 252.410319 142.712754 
L 253.070186 142.698087 
L 253.730053 142.80213 
L 254.38992 142.267246 
L 255.709654 142.143036 
L 256.369521 141.572401 
L 257.029387 141.208937 
L 257.689254 141.535734 
L 259.008988 141.260271 
L 259.668855 141.260271 
L 260.328722 141.142477 
L 260.988589 141.142019 
L 261.648456 140.848222 
L 262.308323 140.385298 
L 262.96819 140.385756 
L 263.628057 140.554426 
L 264.287924 140.555343 
L 264.947791 140.052084 
L 266.267525 140.098377 
L 267.587259 140.054376 
L 268.247126 139.303613 
L 274.845795 139.260529 
L 276.165529 139.149152 
L 288.043135 139.073984 
L 288.703002 139.338905 
L 290.682603 139.338905 
L 291.34247 138.051426 
L 292.002336 137.272246 
L 293.981937 137.212203 
L 299.260873 137.250246 
L 299.92074 135.168919 
L 300.580607 135.168919 
L 301.240474 134.584076 
L 301.900341 134.188986 
L 302.560208 134.278821 
L 303.220075 134.25132 
L 303.879942 132.736962 
L 304.539809 132.13791 
L 305.199676 132.136993 
L 305.859543 131.955949 
L 319.056882 131.887656 
L 319.716749 131.797821 
L 320.376616 131.571859 
L 323.675951 131.584692 
L 324.335818 131.295479 
L 324.995685 131.295479 
L 326.315419 130.904056 
L 328.295019 130.800471 
L 328.954886 130.573592 
L 329.614753 129.962165 
L 332.914088 129.990582 
L 333.573955 129.317738 
L 334.233822 129.317738 
L 334.893689 129.17061 
L 340.172625 129.120193 
L 340.832492 128.940065 
L 346.111427 128.923106 
L 346.771294 128.335971 
L 347.431161 128.201677 
L 348.091028 127.867088 
L 348.750895 127.696586 
L 349.410762 127.386747 
L 350.070629 127.231828 
L 353.369964 127.093867 
L 354.029831 126.826196 
L 359.968634 126.716194 
L 360.628501 126.196894 
L 362.608101 126.092392 
L 363.267968 126.083225 
L 363.927835 124.770078 
L 364.587702 124.770078 
L 365.247569 124.124734 
L 366.567303 123.835063 
L 367.22717 123.835063 
L 368.546904 123.449598 
L 369.206771 123.449598 
L 369.866638 123.329971 
L 370.526505 123.329512 
L 371.846239 123.030674 
L 372.506106 123.030674 
L 373.165973 122.397705 
L 375.805441 122.39908 
L 376.465308 122.125451 
L 377.125175 122.125451 
L 377.785042 119.455614 
L 379.104775 119.373571 
L 379.764642 118.962898 
L 381.744243 118.91248 
L 385.043578 118.91248 
L 385.703445 118.758478 
L 386.363312 117.871129 
L 387.023179 117.750127 
L 387.683046 117.750127 
L 388.342913 104.818494 
L 389.00278 113.6191 
L 389.662647 113.63835 
L 390.322514 113.161217 
L 394.941583 113.0998 
L 395.60145 112.983381 
L 396.261317 116.206893 
L 399.560651 116.152351 
L 400.220518 118.534807 
L 403.519853 118.51739 
L 404.17972 118.225427 
L 406.819188 118.121384 
L 407.479055 117.692835 
L 410.118523 117.652501 
L 410.118523 117.652501 
" style="fill:none;stroke:#ff7f0e;stroke-linecap:square;stroke-width:2;"/>
   </g>
   <g id="patch_7">
    <path d="M 69.23125 179.390118 
L 69.23125 101.121882 
" style="fill:none;stroke:#000000;stroke-linecap:square;stroke-linejoin:miter;stroke-width:0.8;"/>
   </g>
   <g id="patch_8">
    <path d="M 69.23125 179.390118 
L 426.35125 179.390118 
" style="fill:none;stroke:#000000;stroke-linecap:square;stroke-linejoin:miter;stroke-width:0.8;"/>
   </g>
   <g id="legend_2">
    <g id="patch_9">
     <path d="M 76.23125 123.800007 
L 167.5625 123.800007 
Q 169.5625 123.800007 169.5625 121.800007 
L 169.5625 108.121882 
Q 169.5625 106.121882 167.5625 106.121882 
L 76.23125 106.121882 
Q 74.23125 106.121882 74.23125 108.121882 
L 74.23125 121.800007 
Q 74.23125 123.800007 76.23125 123.800007 
z
" style="fill:#ffffff;opacity:0.8;stroke:#cccccc;stroke-linejoin:miter;"/>
    </g>
    <g id="line2d_39">
     <path d="M 78.23125 114.22032 
L 98.23125 114.22032 
" style="fill:none;stroke:#ff7f0e;stroke-linecap:square;stroke-width:2;"/>
    </g>
    <g id="line2d_40"/>
    <g id="text_9">
     <!-- Word Count -->
     <defs>
      <path d="M 3.328125 72.90625 
L 13.28125 72.90625 
L 28.609375 11.28125 
L 43.890625 72.90625 
L 54.984375 72.90625 
L 70.3125 11.28125 
L 85.59375 72.90625 
L 95.609375 72.90625 
L 77.296875 0 
L 64.890625 0 
L 49.515625 63.28125 
L 33.984375 0 
L 21.578125 0 
z
" id="DejaVuSans-87"/>
      <path d="M 45.40625 46.390625 
L 45.40625 75.984375 
L 54.390625 75.984375 
L 54.390625 0 
L 45.40625 0 
L 45.40625 8.203125 
Q 42.578125 3.328125 38.25 0.953125 
Q 33.9375 -1.421875 27.875 -1.421875 
Q 17.96875 -1.421875 11.734375 6.484375 
Q 5.515625 14.40625 5.515625 27.296875 
Q 5.515625 40.1875 11.734375 48.09375 
Q 17.96875 56 27.875 56 
Q 33.9375 56 38.25 53.625 
Q 42.578125 51.265625 45.40625 46.390625 
z
M 14.796875 27.296875 
Q 14.796875 17.390625 18.875 11.75 
Q 22.953125 6.109375 30.078125 6.109375 
Q 37.203125 6.109375 41.296875 11.75 
Q 45.40625 17.390625 45.40625 27.296875 
Q 45.40625 37.203125 41.296875 42.84375 
Q 37.203125 48.484375 30.078125 48.484375 
Q 22.953125 48.484375 18.875 42.84375 
Q 14.796875 37.203125 14.796875 27.296875 
z
" id="DejaVuSans-100"/>
      <path id="DejaVuSans-32"/>
     </defs>
     <g transform="translate(106.23125 117.72032)scale(0.1 -0.1)">
      <use xlink:href="#DejaVuSans-87"/>
      <use x="98.798828" xlink:href="#DejaVuSans-111"/>
      <use x="159.980469" xlink:href="#DejaVuSans-114"/>
      <use x="201.078125" xlink:href="#DejaVuSans-100"/>
      <use x="264.554688" xlink:href="#DejaVuSans-32"/>
      <use x="296.341797" xlink:href="#DejaVuSans-67"/>
      <use x="366.166016" xlink:href="#DejaVuSans-111"/>
      <use x="427.347656" xlink:href="#DejaVuSans-117"/>
      <use x="490.726562" xlink:href="#DejaVuSans-110"/>
      <use x="554.105469" xlink:href="#DejaVuSans-116"/>
     </g>
    </g>
   </g>
  </g>
  <g id="axes_3">
   <g id="patch_10">
    <path d="M 69.23125 273.312 
L 426.35125 273.312 
L 426.35125 195.043765 
L 69.23125 195.043765 
z
" style="fill:#ffffff;"/>
   </g>
   <g id="matplotlib.axis_5">
    <g id="xtick_13">
     <g id="line2d_41">
      <path clip-path="url(#p3651c2b581)" d="M 85.463977 273.312 
L 85.463977 195.043765 
" style="fill:none;stroke:#d3d3d3;stroke-linecap:square;stroke-width:0.8;"/>
     </g>
     <g id="line2d_42">
      <g>
       <use style="stroke:#000000;stroke-width:0.8;" x="85.463977" xlink:href="#ma3020a9494" y="273.312"/>
      </g>
     </g>
     <g id="text_10">
      <!-- 2020-03-20 -->
      <defs>
       <path d="M 4.890625 31.390625 
L 31.203125 31.390625 
L 31.203125 23.390625 
L 4.890625 23.390625 
z
" id="DejaVuSans-45"/>
       <path d="M 40.578125 39.3125 
Q 47.65625 37.796875 51.625 33 
Q 55.609375 28.21875 55.609375 21.1875 
Q 55.609375 10.40625 48.1875 4.484375 
Q 40.765625 -1.421875 27.09375 -1.421875 
Q 22.515625 -1.421875 17.65625 -0.515625 
Q 12.796875 0.390625 7.625 2.203125 
L 7.625 11.71875 
Q 11.71875 9.328125 16.59375 8.109375 
Q 21.484375 6.890625 26.8125 6.890625 
Q 36.078125 6.890625 40.9375 10.546875 
Q 45.796875 14.203125 45.796875 21.1875 
Q 45.796875 27.640625 41.28125 31.265625 
Q 36.765625 34.90625 28.71875 34.90625 
L 20.21875 34.90625 
L 20.21875 43.015625 
L 29.109375 43.015625 
Q 36.375 43.015625 40.234375 45.921875 
Q 44.09375 48.828125 44.09375 54.296875 
Q 44.09375 59.90625 40.109375 62.90625 
Q 36.140625 65.921875 28.71875 65.921875 
Q 24.65625 65.921875 20.015625 65.03125 
Q 15.375 64.15625 9.8125 62.3125 
L 9.8125 71.09375 
Q 15.4375 72.65625 20.34375 73.4375 
Q 25.25 74.21875 29.59375 74.21875 
Q 40.828125 74.21875 47.359375 69.109375 
Q 53.90625 64.015625 53.90625 55.328125 
Q 53.90625 49.265625 50.4375 45.09375 
Q 46.96875 40.921875 40.578125 39.3125 
z
" id="DejaVuSans-51"/>
      </defs>
      <g transform="translate(56.406165 287.910437)scale(0.1 -0.1)">
       <use xlink:href="#DejaVuSans-50"/>
       <use x="63.623047" xlink:href="#DejaVuSans-48"/>
       <use x="127.246094" xlink:href="#DejaVuSans-50"/>
       <use x="190.869141" xlink:href="#DejaVuSans-48"/>
       <use x="254.492188" xlink:href="#DejaVuSans-45"/>
       <use x="290.576172" xlink:href="#DejaVuSans-48"/>
       <use x="354.199219" xlink:href="#DejaVuSans-51"/>
       <use x="417.822266" xlink:href="#DejaVuSans-45"/>
       <use x="453.90625" xlink:href="#DejaVuSans-50"/>
       <use x="517.529297" xlink:href="#DejaVuSans-48"/>
      </g>
     </g>
    </g>
    <g id="xtick_14">
     <g id="line2d_43">
      <path clip-path="url(#p3651c2b581)" d="M 151.450674 273.312 
L 151.450674 195.043765 
" style="fill:none;stroke:#d3d3d3;stroke-linecap:square;stroke-width:0.8;"/>
     </g>
     <g id="line2d_44">
      <g>
       <use style="stroke:#000000;stroke-width:0.8;" x="151.450674" xlink:href="#ma3020a9494" y="273.312"/>
      </g>
     </g>
     <g id="text_11">
      <!-- 2020-04-12 -->
      <g transform="translate(122.392861 287.910437)scale(0.1 -0.1)">
       <use xlink:href="#DejaVuSans-50"/>
       <use x="63.623047" xlink:href="#DejaVuSans-48"/>
       <use x="127.246094" xlink:href="#DejaVuSans-50"/>
       <use x="190.869141" xlink:href="#DejaVuSans-48"/>
       <use x="254.492188" xlink:href="#DejaVuSans-45"/>
       <use x="290.576172" xlink:href="#DejaVuSans-48"/>
       <use x="354.199219" xlink:href="#DejaVuSans-52"/>
       <use x="417.822266" xlink:href="#DejaVuSans-45"/>
       <use x="453.90625" xlink:href="#DejaVuSans-49"/>
       <use x="517.529297" xlink:href="#DejaVuSans-50"/>
      </g>
     </g>
    </g>
    <g id="xtick_15">
     <g id="line2d_45">
      <path clip-path="url(#p3651c2b581)" d="M 217.43737 273.312 
L 217.43737 195.043765 
" style="fill:none;stroke:#d3d3d3;stroke-linecap:square;stroke-width:0.8;"/>
     </g>
     <g id="line2d_46">
      <g>
       <use style="stroke:#000000;stroke-width:0.8;" x="217.43737" xlink:href="#ma3020a9494" y="273.312"/>
      </g>
     </g>
     <g id="text_12">
      <!-- 2020-07-20 -->
      <defs>
       <path d="M 8.203125 72.90625 
L 55.078125 72.90625 
L 55.078125 68.703125 
L 28.609375 0 
L 18.3125 0 
L 43.21875 64.59375 
L 8.203125 64.59375 
z
" id="DejaVuSans-55"/>
      </defs>
      <g transform="translate(188.379557 287.910437)scale(0.1 -0.1)">
       <use xlink:href="#DejaVuSans-50"/>
       <use x="63.623047" xlink:href="#DejaVuSans-48"/>
       <use x="127.246094" xlink:href="#DejaVuSans-50"/>
       <use x="190.869141" xlink:href="#DejaVuSans-48"/>
       <use x="254.492188" xlink:href="#DejaVuSans-45"/>
       <use x="290.576172" xlink:href="#DejaVuSans-48"/>
       <use x="354.199219" xlink:href="#DejaVuSans-55"/>
       <use x="417.822266" xlink:href="#DejaVuSans-45"/>
       <use x="453.90625" xlink:href="#DejaVuSans-50"/>
       <use x="517.529297" xlink:href="#DejaVuSans-48"/>
      </g>
     </g>
    </g>
    <g id="xtick_16">
     <g id="line2d_47">
      <path clip-path="url(#p3651c2b581)" d="M 283.424066 273.312 
L 283.424066 195.043765 
" style="fill:none;stroke:#d3d3d3;stroke-linecap:square;stroke-width:0.8;"/>
     </g>
     <g id="line2d_48">
      <g>
       <use style="stroke:#000000;stroke-width:0.8;" x="283.424066" xlink:href="#ma3020a9494" y="273.312"/>
      </g>
     </g>
     <g id="text_13">
      <!-- 2020-11-11 -->
      <g transform="translate(254.366253 287.910437)scale(0.1 -0.1)">
       <use xlink:href="#DejaVuSans-50"/>
       <use x="63.623047" xlink:href="#DejaVuSans-48"/>
       <use x="127.246094" xlink:href="#DejaVuSans-50"/>
       <use x="190.869141" xlink:href="#DejaVuSans-48"/>
       <use x="254.492188" xlink:href="#DejaVuSans-45"/>
       <use x="290.576172" xlink:href="#DejaVuSans-49"/>
       <use x="354.199219" xlink:href="#DejaVuSans-49"/>
       <use x="417.822266" xlink:href="#DejaVuSans-45"/>
       <use x="453.90625" xlink:href="#DejaVuSans-49"/>
       <use x="517.529297" xlink:href="#DejaVuSans-49"/>
      </g>
     </g>
    </g>
    <g id="xtick_17">
     <g id="line2d_49">
      <path clip-path="url(#p3651c2b581)" d="M 349.410762 273.312 
L 349.410762 195.043765 
" style="fill:none;stroke:#d3d3d3;stroke-linecap:square;stroke-width:0.8;"/>
     </g>
     <g id="line2d_50">
      <g>
       <use style="stroke:#000000;stroke-width:0.8;" x="349.410762" xlink:href="#ma3020a9494" y="273.312"/>
      </g>
     </g>
     <g id="text_14">
      <!-- 2021-02-18 -->
      <defs>
       <path d="M 31.78125 34.625 
Q 24.75 34.625 20.71875 30.859375 
Q 16.703125 27.09375 16.703125 20.515625 
Q 16.703125 13.921875 20.71875 10.15625 
Q 24.75 6.390625 31.78125 6.390625 
Q 38.8125 6.390625 42.859375 10.171875 
Q 46.921875 13.96875 46.921875 20.515625 
Q 46.921875 27.09375 42.890625 30.859375 
Q 38.875 34.625 31.78125 34.625 
z
M 21.921875 38.8125 
Q 15.578125 40.375 12.03125 44.71875 
Q 8.5 49.078125 8.5 55.328125 
Q 8.5 64.0625 14.71875 69.140625 
Q 20.953125 74.21875 31.78125 74.21875 
Q 42.671875 74.21875 48.875 69.140625 
Q 55.078125 64.0625 55.078125 55.328125 
Q 55.078125 49.078125 51.53125 44.71875 
Q 48 40.375 41.703125 38.8125 
Q 48.828125 37.15625 52.796875 32.3125 
Q 56.78125 27.484375 56.78125 20.515625 
Q 56.78125 9.90625 50.3125 4.234375 
Q 43.84375 -1.421875 31.78125 -1.421875 
Q 19.734375 -1.421875 13.25 4.234375 
Q 6.78125 9.90625 6.78125 20.515625 
Q 6.78125 27.484375 10.78125 32.3125 
Q 14.796875 37.15625 21.921875 38.8125 
z
M 18.3125 54.390625 
Q 18.3125 48.734375 21.84375 45.5625 
Q 25.390625 42.390625 31.78125 42.390625 
Q 38.140625 42.390625 41.71875 45.5625 
Q 45.3125 48.734375 45.3125 54.390625 
Q 45.3125 60.0625 41.71875 63.234375 
Q 38.140625 66.40625 31.78125 66.40625 
Q 25.390625 66.40625 21.84375 63.234375 
Q 18.3125 60.0625 18.3125 54.390625 
z
" id="DejaVuSans-56"/>
      </defs>
      <g transform="translate(320.35295 287.910437)scale(0.1 -0.1)">
       <use xlink:href="#DejaVuSans-50"/>
       <use x="63.623047" xlink:href="#DejaVuSans-48"/>
       <use x="127.246094" xlink:href="#DejaVuSans-50"/>
       <use x="190.869141" xlink:href="#DejaVuSans-49"/>
       <use x="254.492188" xlink:href="#DejaVuSans-45"/>
       <use x="290.576172" xlink:href="#DejaVuSans-48"/>
       <use x="354.199219" xlink:href="#DejaVuSans-50"/>
       <use x="417.822266" xlink:href="#DejaVuSans-45"/>
       <use x="453.90625" xlink:href="#DejaVuSans-49"/>
       <use x="517.529297" xlink:href="#DejaVuSans-56"/>
      </g>
     </g>
    </g>
    <g id="xtick_18">
     <g id="line2d_51">
      <path clip-path="url(#p3651c2b581)" d="M 415.397458 273.312 
L 415.397458 195.043765 
" style="fill:none;stroke:#d3d3d3;stroke-linecap:square;stroke-width:0.8;"/>
     </g>
     <g id="line2d_52">
      <g>
       <use style="stroke:#000000;stroke-width:0.8;" x="415.397458" xlink:href="#ma3020a9494" y="273.312"/>
      </g>
     </g>
    </g>
    <g id="text_15">
     <!-- Date -->
     <defs>
      <path d="M 19.671875 64.796875 
L 19.671875 8.109375 
L 31.59375 8.109375 
Q 46.6875 8.109375 53.6875 14.9375 
Q 60.6875 21.78125 60.6875 36.53125 
Q 60.6875 51.171875 53.6875 57.984375 
Q 46.6875 64.796875 31.59375 64.796875 
z
M 9.8125 72.90625 
L 30.078125 72.90625 
Q 51.265625 72.90625 61.171875 64.09375 
Q 71.09375 55.28125 71.09375 36.53125 
Q 71.09375 17.671875 61.125 8.828125 
Q 51.171875 0 30.078125 0 
L 9.8125 0 
z
" id="DejaVuSans-68"/>
      <path d="M 34.28125 27.484375 
Q 23.390625 27.484375 19.1875 25 
Q 14.984375 22.515625 14.984375 16.5 
Q 14.984375 11.71875 18.140625 8.90625 
Q 21.296875 6.109375 26.703125 6.109375 
Q 34.1875 6.109375 38.703125 11.40625 
Q 43.21875 16.703125 43.21875 25.484375 
L 43.21875 27.484375 
z
M 52.203125 31.203125 
L 52.203125 0 
L 43.21875 0 
L 43.21875 8.296875 
Q 40.140625 3.328125 35.546875 0.953125 
Q 30.953125 -1.421875 24.3125 -1.421875 
Q 15.921875 -1.421875 10.953125 3.296875 
Q 6 8.015625 6 15.921875 
Q 6 25.140625 12.171875 29.828125 
Q 18.359375 34.515625 30.609375 34.515625 
L 43.21875 34.515625 
L 43.21875 35.40625 
Q 43.21875 41.609375 39.140625 45 
Q 35.0625 48.390625 27.6875 48.390625 
Q 23 48.390625 18.546875 47.265625 
Q 14.109375 46.140625 10.015625 43.890625 
L 10.015625 52.203125 
Q 14.9375 54.109375 19.578125 55.046875 
Q 24.21875 56 28.609375 56 
Q 40.484375 56 46.34375 49.84375 
Q 52.203125 43.703125 52.203125 31.203125 
z
" id="DejaVuSans-97"/>
      <path d="M 56.203125 29.59375 
L 56.203125 25.203125 
L 14.890625 25.203125 
Q 15.484375 15.921875 20.484375 11.0625 
Q 25.484375 6.203125 34.421875 6.203125 
Q 39.59375 6.203125 44.453125 7.46875 
Q 49.3125 8.734375 54.109375 11.28125 
L 54.109375 2.78125 
Q 49.265625 0.734375 44.1875 -0.34375 
Q 39.109375 -1.421875 33.890625 -1.421875 
Q 20.796875 -1.421875 13.15625 6.1875 
Q 5.515625 13.8125 5.515625 26.8125 
Q 5.515625 40.234375 12.765625 48.109375 
Q 20.015625 56 32.328125 56 
Q 43.359375 56 49.78125 48.890625 
Q 56.203125 41.796875 56.203125 29.59375 
z
M 47.21875 32.234375 
Q 47.125 39.59375 43.09375 43.984375 
Q 39.0625 48.390625 32.421875 48.390625 
Q 24.90625 48.390625 20.390625 44.140625 
Q 15.875 39.890625 15.1875 32.171875 
z
" id="DejaVuSans-101"/>
     </defs>
     <g transform="translate(235.840469 301.588562)scale(0.1 -0.1)">
      <use xlink:href="#DejaVuSans-68"/>
      <use x="77.001953" xlink:href="#DejaVuSans-97"/>
      <use x="138.28125" xlink:href="#DejaVuSans-116"/>
      <use x="177.490234" xlink:href="#DejaVuSans-101"/>
     </g>
    </g>
   </g>
   <g id="matplotlib.axis_6">
    <g id="ytick_6">
     <g id="line2d_53">
      <path clip-path="url(#p3651c2b581)" d="M 69.23125 273.312 
L 426.35125 273.312 
" style="fill:none;stroke:#d3d3d3;stroke-linecap:square;stroke-width:0.8;"/>
     </g>
     <g id="line2d_54">
      <g>
       <use style="stroke:#000000;stroke-width:0.8;" x="69.23125" xlink:href="#m7cb6686455" y="273.312"/>
      </g>
     </g>
     <g id="text_16">
      <!-- 0 -->
      <g transform="translate(55.86875 277.111219)scale(0.1 -0.1)">
       <use xlink:href="#DejaVuSans-48"/>
      </g>
     </g>
    </g>
    <g id="ytick_7">
     <g id="line2d_55">
      <path clip-path="url(#p3651c2b581)" d="M 69.23125 226.27156 
L 426.35125 226.27156 
" style="fill:none;stroke:#d3d3d3;stroke-linecap:square;stroke-width:0.8;"/>
     </g>
     <g id="line2d_56">
      <g>
       <use style="stroke:#000000;stroke-width:0.8;" x="69.23125" xlink:href="#m7cb6686455" y="226.27156"/>
      </g>
     </g>
     <g id="text_17">
      <!-- 1,000 -->
      <g transform="translate(33.603125 230.070779)scale(0.1 -0.1)">
       <use xlink:href="#DejaVuSans-49"/>
       <use x="63.623047" xlink:href="#DejaVuSans-44"/>
       <use x="95.410156" xlink:href="#DejaVuSans-48"/>
       <use x="159.033203" xlink:href="#DejaVuSans-48"/>
       <use x="222.65625" xlink:href="#DejaVuSans-48"/>
      </g>
     </g>
    </g>
    <g id="text_18">
     <!-- Count -->
     <g transform="translate(27.523438 249.02632)rotate(-90)scale(0.1 -0.1)">
      <use xlink:href="#DejaVuSans-67"/>
      <use x="69.824219" xlink:href="#DejaVuSans-111"/>
      <use x="131.005859" xlink:href="#DejaVuSans-117"/>
      <use x="194.384766" xlink:href="#DejaVuSans-110"/>
      <use x="257.763672" xlink:href="#DejaVuSans-116"/>
     </g>
    </g>
   </g>
   <g id="line2d_57">
    <path clip-path="url(#p3651c2b581)" d="M 85.463977 272.935676 
L 91.40278 272.935676 
L 92.062647 272.747515 
L 98.661317 272.653434 
L 101.960651 272.512313 
L 103.280385 272.512313 
L 103.940252 272.371191 
L 111.858656 272.324151 
L 112.518523 272.700474 
L 118.457325 272.606393 
L 119.117192 272.135989 
L 121.75666 272.088949 
L 123.076394 271.994868 
L 124.396128 271.994868 
L 125.055995 270.677735 
L 125.715862 270.677735 
L 126.375729 270.06621 
L 127.695463 270.06621 
L 129.015197 268.513875 
L 129.675064 268.513875 
L 130.334931 266.679298 
L 136.9336 266.679298 
L 137.593467 266.302975 
L 140.232935 266.208894 
L 142.872403 266.114813 
L 143.53227 265.409206 
L 144.192137 265.409206 
L 144.852004 259.43507 
L 145.511871 259.43507 
L 146.171738 259.058747 
L 148.151339 259.011706 
L 148.811206 258.823545 
L 150.790807 258.823545 
L 152.11054 258.447221 
L 155.409875 258.400181 
L 156.069742 257.600493 
L 158.70921 257.506412 
L 162.008545 257.27121 
L 163.328279 256.941927 
L 163.988146 256.988967 
L 164.648013 256.565604 
L 167.287481 256.471523 
L 167.947348 256.330401 
L 168.607215 255.859997 
L 171.246682 255.812956 
L 171.906549 255.295512 
L 173.88615 255.295512 
L 174.546017 254.778067 
L 175.865751 254.731026 
L 176.525618 254.872148 
L 177.185485 254.731026 
L 181.144687 254.683986 
L 181.804554 254.166541 
L 183.784155 254.07246 
L 185.763756 253.884298 
L 187.083489 253.837258 
L 187.743356 254.448784 
L 189.06309 254.401743 
L 189.722957 254.260622 
L 190.382824 254.307662 
L 191.042691 254.07246 
L 191.702558 253.978379 
L 192.362425 253.272773 
L 193.022292 253.272773 
L 193.682159 252.426045 
L 194.342026 252.379004 
L 195.66176 252.096762 
L 196.321627 252.096762 
L 196.981494 251.95564 
L 199.620962 251.86156 
L 200.940696 251.579317 
L 204.899897 251.344115 
L 205.559764 250.638508 
L 208.199232 250.544427 
L 208.859099 250.497387 
L 209.518966 249.885861 
L 210.178833 249.556578 
L 212.158434 249.321376 
L 212.818301 249.180255 
L 213.478168 248.333527 
L 214.138035 246.498949 
L 214.797902 246.263747 
L 215.457769 246.216707 
L 216.117636 246.404869 
L 217.43737 245.887424 
L 221.396572 245.887424 
L 222.056438 245.699262 
L 222.716305 244.758453 
L 223.376172 243.253159 
L 225.355773 243.064997 
L 227.995241 242.970917 
L 228.655108 242.547553 
L 229.974842 242.641633 
L 231.294576 242.547553 
L 236.573512 242.641633 
L 237.233379 242.030108 
L 237.893246 242.030108 
L 239.212979 240.995218 
L 239.872846 240.854097 
L 241.19258 240.807056 
L 241.852447 241.042258 
L 242.512314 240.807056 
L 244.491915 240.807056 
L 245.151782 241.136339 
L 245.811649 240.854097 
L 247.131383 240.618895 
L 247.79125 240.195531 
L 249.110984 240.14849 
L 249.770851 239.772167 
L 250.430718 239.678086 
L 251.750452 239.772167 
L 252.410319 239.584005 
L 253.070186 239.536964 
L 253.730053 239.725126 
L 254.38992 238.596156 
L 255.049787 238.125751 
L 255.709654 237.98463 
L 256.369521 237.184942 
L 257.029387 236.667498 
L 257.689254 236.620457 
L 258.349121 235.914851 
L 260.988589 235.82077 
L 262.308323 234.127314 
L 262.96819 234.127314 
L 263.628057 234.362516 
L 264.287924 234.268435 
L 264.947791 234.456597 
L 265.607658 234.315476 
L 266.267525 232.857222 
L 272.866195 232.480898 
L 279.464864 232.386818 
L 280.124731 232.151615 
L 288.043135 232.104575 
L 288.703002 231.963454 
L 291.34247 231.963454 
L 292.002336 230.928564 
L 292.662203 230.787443 
L 300.580607 230.740402 
L 301.900341 230.081836 
L 303.220075 229.987755 
L 303.879942 225.707075 
L 304.539809 225.283711 
L 307.839144 225.283711 
L 308.499011 225.518913 
L 309.158877 225.424833 
L 309.818744 225.612994 
L 310.478611 225.377792 
L 311.798345 225.283711 
L 314.437813 225.283711 
L 315.09768 225.095549 
L 315.757547 225.14259 
L 317.077281 225.001469 
L 318.397015 225.048509 
L 320.376616 224.907388 
L 321.036483 225.283711 
L 321.69635 225.424833 
L 322.356217 224.813307 
L 323.016084 224.625145 
L 323.675951 224.625145 
L 324.335818 224.248822 
L 324.995685 224.248822 
L 325.655552 223.778417 
L 326.315419 223.731377 
L 327.635152 223.355053 
L 328.295019 223.355053 
L 328.954886 222.696487 
L 329.614753 220.673748 
L 332.914088 220.673748 
L 333.573955 219.732939 
L 334.233822 219.732939 
L 334.893689 219.497737 
L 340.172625 219.121414 
L 340.832492 218.792131 
L 346.111427 218.74509 
L 346.771294 217.945403 
L 347.431161 217.804281 
L 348.091028 217.427958 
L 348.750895 217.380917 
L 349.410762 217.192756 
L 351.390363 217.051634 
L 352.05023 217.192756 
L 353.369964 216.722351 
L 354.029831 216.157866 
L 354.689698 216.251947 
L 356.009432 216.157866 
L 357.329166 216.110826 
L 357.989033 215.969704 
L 358.6489 216.016745 
L 359.968634 215.828583 
L 360.628501 215.54634 
L 361.288368 215.54634 
L 361.948234 215.311138 
L 363.267968 215.217057 
L 363.927835 211.594943 
L 364.587702 211.594943 
L 365.247569 210.701175 
L 367.22717 210.230771 
L 367.887037 210.18373 
L 368.546904 209.901488 
L 370.526505 209.854447 
L 371.186372 209.242921 
L 372.506106 208.584355 
L 373.165973 207.314263 
L 375.805441 207.314263 
L 376.465308 207.032021 
L 377.125175 207.032021 
L 378.444909 206.326414 
L 379.104775 206.326414 
L 379.764642 206.138252 
L 383.723844 206.138252 
L 384.383711 206.279374 
L 385.043578 206.138252 
L 385.703445 205.85601 
L 386.363312 204.679999 
L 387.683046 204.727039 
L 388.342913 203.174705 
L 389.00278 202.610219 
L 389.662647 202.65726 
L 390.322514 202.327977 
L 395.60145 202.233896 
L 396.261317 202.092775 
L 399.560651 201.998694 
L 400.220518 202.327977 
L 403.519853 202.327977 
L 404.17972 200.446359 
L 404.839587 200.305238 
L 405.499454 199.975955 
L 406.819188 199.975955 
L 407.479055 198.941065 
L 408.798789 198.846984 
L 410.118523 198.752903 
L 410.118523 198.752903 
" style="fill:none;stroke:#2ca02c;stroke-linecap:square;stroke-width:2;"/>
   </g>
   <g id="patch_11">
    <path d="M 69.23125 273.312 
L 69.23125 195.043765 
" style="fill:none;stroke:#000000;stroke-linecap:square;stroke-linejoin:miter;stroke-width:0.8;"/>
   </g>
   <g id="patch_12">
    <path d="M 69.23125 273.312 
L 426.35125 273.312 
" style="fill:none;stroke:#000000;stroke-linecap:square;stroke-linejoin:miter;stroke-width:0.8;"/>
   </g>
   <g id="legend_3">
    <g id="patch_13">
     <path d="M 76.23125 217.72189 
L 164.459375 217.72189 
Q 166.459375 217.72189 166.459375 215.72189 
L 166.459375 202.043765 
Q 166.459375 200.043765 164.459375 200.043765 
L 76.23125 200.043765 
Q 74.23125 200.043765 74.23125 202.043765 
L 74.23125 215.72189 
Q 74.23125 217.72189 76.23125 217.72189 
z
" style="fill:#ffffff;opacity:0.8;stroke:#cccccc;stroke-linejoin:miter;"/>
    </g>
    <g id="line2d_58">
     <path d="M 78.23125 208.142202 
L 98.23125 208.142202 
" style="fill:none;stroke:#2ca02c;stroke-linecap:square;stroke-width:2;"/>
    </g>
    <g id="line2d_59"/>
    <g id="text_19">
     <!-- References -->
     <defs>
      <path d="M 44.390625 34.1875 
Q 47.5625 33.109375 50.5625 29.59375 
Q 53.5625 26.078125 56.59375 19.921875 
L 66.609375 0 
L 56 0 
L 46.6875 18.703125 
Q 43.0625 26.03125 39.671875 28.421875 
Q 36.28125 30.8125 30.421875 30.8125 
L 19.671875 30.8125 
L 19.671875 0 
L 9.8125 0 
L 9.8125 72.90625 
L 32.078125 72.90625 
Q 44.578125 72.90625 50.734375 67.671875 
Q 56.890625 62.453125 56.890625 51.90625 
Q 56.890625 45.015625 53.6875 40.46875 
Q 50.484375 35.9375 44.390625 34.1875 
z
M 19.671875 64.796875 
L 19.671875 38.921875 
L 32.078125 38.921875 
Q 39.203125 38.921875 42.84375 42.21875 
Q 46.484375 45.515625 46.484375 51.90625 
Q 46.484375 58.296875 42.84375 61.546875 
Q 39.203125 64.796875 32.078125 64.796875 
z
" id="DejaVuSans-82"/>
      <path d="M 37.109375 75.984375 
L 37.109375 68.5 
L 28.515625 68.5 
Q 23.6875 68.5 21.796875 66.546875 
Q 19.921875 64.59375 19.921875 59.515625 
L 19.921875 54.6875 
L 34.71875 54.6875 
L 34.71875 47.703125 
L 19.921875 47.703125 
L 19.921875 0 
L 10.890625 0 
L 10.890625 47.703125 
L 2.296875 47.703125 
L 2.296875 54.6875 
L 10.890625 54.6875 
L 10.890625 58.5 
Q 10.890625 67.625 15.140625 71.796875 
Q 19.390625 75.984375 28.609375 75.984375 
z
" id="DejaVuSans-102"/>
      <path d="M 48.78125 52.59375 
L 48.78125 44.1875 
Q 44.96875 46.296875 41.140625 47.34375 
Q 37.3125 48.390625 33.40625 48.390625 
Q 24.65625 48.390625 19.8125 42.84375 
Q 14.984375 37.3125 14.984375 27.296875 
Q 14.984375 17.28125 19.8125 11.734375 
Q 24.65625 6.203125 33.40625 6.203125 
Q 37.3125 6.203125 41.140625 7.25 
Q 44.96875 8.296875 48.78125 10.40625 
L 48.78125 2.09375 
Q 45.015625 0.34375 40.984375 -0.53125 
Q 36.96875 -1.421875 32.421875 -1.421875 
Q 20.0625 -1.421875 12.78125 6.34375 
Q 5.515625 14.109375 5.515625 27.296875 
Q 5.515625 40.671875 12.859375 48.328125 
Q 20.21875 56 33.015625 56 
Q 37.15625 56 41.109375 55.140625 
Q 45.0625 54.296875 48.78125 52.59375 
z
" id="DejaVuSans-99"/>
     </defs>
     <g transform="translate(106.23125 211.642202)scale(0.1 -0.1)">
      <use xlink:href="#DejaVuSans-82"/>
      <use x="69.419922" xlink:href="#DejaVuSans-101"/>
      <use x="130.943359" xlink:href="#DejaVuSans-102"/>
      <use x="166.148438" xlink:href="#DejaVuSans-101"/>
      <use x="227.671875" xlink:href="#DejaVuSans-114"/>
      <use x="268.753906" xlink:href="#DejaVuSans-101"/>
      <use x="330.277344" xlink:href="#DejaVuSans-110"/>
      <use x="393.65625" xlink:href="#DejaVuSans-99"/>
      <use x="448.636719" xlink:href="#DejaVuSans-101"/>
      <use x="510.160156" xlink:href="#DejaVuSans-115"/>
     </g>
    </g>
   </g>
  </g>
 </g>
 <defs>
  <clipPath id="p279a54bc05">
   <rect height="78.268235" width="357.12" x="69.23125" y="7.2"/>
  </clipPath>
  <clipPath id="pa96da929bb">
   <rect height="78.268235" width="357.12" x="69.23125" y="101.121882"/>
  </clipPath>
  <clipPath id="p3651c2b581">
   <rect height="78.268235" width="357.12" x="69.23125" y="195.043765"/>
  </clipPath>
 </defs>
</svg>
